G04*
G04 #@! TF.GenerationSoftware,Altium Limited,Altium Designer,20.2.3 (150)*
G04*
G04 Layer_Color=128*
%FSLAX25Y25*%
%MOIN*%
G70*
G04*
G04 #@! TF.SameCoordinates,FEBEBD62-9BCC-4C60-8B63-8EF99F169A48*
G04*
G04*
G04 #@! TF.FilePolarity,Positive*
G04*
G01*
G75*
%ADD97C,0.00200*%
D97*
X484038Y176798D02*
X487581D01*
X485810Y175027D02*
Y178570D01*
X494038Y176798D02*
X497581D01*
X495810Y175027D02*
Y178570D01*
X434038Y138657D02*
X437581D01*
X435810Y136885D02*
Y140429D01*
X444038Y138657D02*
X447581D01*
X445810Y136885D02*
Y140429D01*
X454038Y138657D02*
X457582D01*
X455810Y136885D02*
Y140429D01*
X464038Y138657D02*
X467582D01*
X465810Y136885D02*
Y140429D01*
X484038Y138657D02*
X487581D01*
X485810Y136885D02*
Y140429D01*
X494038Y138657D02*
X497581D01*
X495810Y136885D02*
Y140429D01*
X474038Y138657D02*
X477582D01*
X475810Y136885D02*
Y140429D01*
X58070Y435862D02*
X60039D01*
X59054Y434878D02*
Y436846D01*
X553492Y333983D02*
X555461D01*
X554477Y332998D02*
Y334967D01*
X549914Y536729D02*
X551883D01*
X550899Y535745D02*
Y537713D01*
X310681Y532159D02*
X312649D01*
X311665Y531175D02*
Y533143D01*
X314254Y329706D02*
X316223D01*
X315238Y328722D02*
Y330691D01*
X806219Y429737D02*
X808187D01*
X807203Y428753D02*
Y430722D01*
X109579Y622494D02*
X111547D01*
X110563Y621510D02*
Y623478D01*
X106780Y248478D02*
X108748D01*
X107764Y247494D02*
Y249462D01*
X242659Y110556D02*
X244628D01*
X243643Y109571D02*
Y111540D01*
X429295Y59055D02*
X431264D01*
X430280Y58071D02*
Y60039D01*
X616675Y107772D02*
X618644D01*
X617659Y106787D02*
Y108756D01*
X754595Y243648D02*
X756563D01*
X755579Y242663D02*
Y244632D01*
X757393Y617664D02*
X759362D01*
X758377Y616679D02*
Y618648D01*
X621514Y755586D02*
X623483D01*
X622498Y754602D02*
Y756570D01*
X434878Y807087D02*
X436846D01*
X435862Y806102D02*
Y808071D01*
X247498Y758370D02*
X249467D01*
X248482Y757386D02*
Y759354D01*
X629226Y276390D02*
X630800D01*
X630013Y275602D02*
Y277177D01*
X626796Y268941D02*
X628371D01*
X627584Y268154D02*
Y269728D01*
X611793Y272609D02*
X613368D01*
X612581Y271821D02*
Y273396D01*
X582842Y220069D02*
X584417D01*
X583630Y219282D02*
Y220856D01*
X596473Y212884D02*
X598047D01*
X597260Y212097D02*
Y213672D01*
X595571Y287435D02*
X597145D01*
X596358Y286648D02*
Y288223D01*
X592198Y284027D02*
X593773D01*
X592986Y283240D02*
Y284814D01*
X584764Y270212D02*
X586339D01*
X585552Y269425D02*
Y271000D01*
X576126Y257540D02*
X577701D01*
X576914Y256752D02*
Y258327D01*
X575939Y236057D02*
X577513D01*
X576726Y235269D02*
Y236844D01*
X562304Y281152D02*
X563879D01*
X563092Y280365D02*
Y281940D01*
X608313Y282767D02*
X609887D01*
X609100Y281979D02*
Y283554D01*
X591147Y239050D02*
X592722D01*
X591934Y238262D02*
Y239837D01*
X558680Y165781D02*
X560255D01*
X559468Y164994D02*
Y166568D01*
X543001Y171920D02*
X544576D01*
X543788Y171132D02*
Y172707D01*
X302113Y97400D02*
X303687D01*
X302900Y96613D02*
Y98187D01*
X262711Y181600D02*
X264286D01*
X263498Y180813D02*
Y182387D01*
X371230Y95459D02*
X372805D01*
X372017Y94672D02*
Y96247D01*
X424213Y137200D02*
X425787D01*
X425000Y136413D02*
Y137987D01*
X255624Y185419D02*
X257199D01*
X256412Y184632D02*
Y186206D01*
X203781Y188001D02*
X205356D01*
X204568Y187214D02*
Y188789D01*
X263646Y318594D02*
X265220D01*
X264433Y317807D02*
Y319381D01*
X269878Y324472D02*
X271453D01*
X270665Y323685D02*
Y325260D01*
X325818Y324756D02*
X327393D01*
X326606Y323969D02*
Y325543D01*
X540911Y341522D02*
X542486D01*
X541698Y340735D02*
Y342310D01*
X480039Y578159D02*
X481614D01*
X480827Y577372D02*
Y578946D01*
X293475Y641036D02*
X295050D01*
X294262Y640248D02*
Y641823D01*
X255985Y632923D02*
X257560D01*
X256773Y632136D02*
Y633711D01*
X470113Y719000D02*
X471687D01*
X470900Y718213D02*
Y719787D01*
X468155Y728887D02*
X469730D01*
X468943Y728100D02*
Y729675D01*
X451257Y699742D02*
X452832D01*
X452044Y698955D02*
Y700529D01*
X451513Y705700D02*
X453087D01*
X452300Y704913D02*
Y706487D01*
X597213Y643300D02*
X598787D01*
X598000Y642513D02*
Y644087D01*
X306442Y659475D02*
X308017D01*
X307230Y658687D02*
Y660262D01*
X322113Y684900D02*
X323687D01*
X322900Y684113D02*
Y685687D01*
X313801Y712371D02*
X315376D01*
X314588Y711584D02*
Y713159D01*
X319113Y713200D02*
X320687D01*
X319900Y712413D02*
Y713987D01*
X504783Y663999D02*
X506358D01*
X505571Y663212D02*
Y664786D01*
X610412Y630075D02*
X611987D01*
X611199Y629288D02*
Y630863D01*
X508160Y719742D02*
X509735D01*
X508947Y718954D02*
Y720529D01*
X501113Y719742D02*
X502687D01*
X501900Y718954D02*
Y720529D01*
X486613Y729742D02*
X488187D01*
X487400Y728954D02*
Y730529D01*
X509480Y684900D02*
X511055D01*
X510268Y684113D02*
Y685687D01*
X551413Y750000D02*
X552987D01*
X552200Y749213D02*
Y750787D01*
X760812Y624522D02*
X762387D01*
X761599Y623734D02*
Y625309D01*
X772223Y636100D02*
X773798D01*
X773011Y635313D02*
Y636887D01*
X822513Y432300D02*
X824087D01*
X823300Y431513D02*
Y433087D01*
X824736Y423534D02*
X826311D01*
X825524Y422747D02*
Y424322D01*
X752855Y265058D02*
X754429D01*
X753642Y264271D02*
Y265845D01*
X683807Y203994D02*
X685381D01*
X684594Y203207D02*
Y204781D01*
X703113Y224000D02*
X704687D01*
X703900Y223213D02*
Y224787D01*
X651613Y141700D02*
X653187D01*
X652400Y140913D02*
Y142487D01*
X413948Y53041D02*
X415523D01*
X414736Y52254D02*
Y53829D01*
X354953Y802853D02*
X356527D01*
X355740Y802066D02*
Y803640D01*
X347329Y742713D02*
X348904D01*
X348117Y741926D02*
Y743501D01*
X353168Y729791D02*
X354743D01*
X353956Y729003D02*
Y730578D01*
X409514Y817012D02*
X411089D01*
X410301Y816224D02*
Y817799D01*
X622094Y770100D02*
X623669D01*
X622882Y769313D02*
Y770887D01*
X773928Y625200D02*
X775502D01*
X774715Y624413D02*
Y625987D01*
X826003Y437300D02*
X827578D01*
X826790Y436513D02*
Y438087D01*
X762851Y241602D02*
X764426D01*
X763638Y240814D02*
Y242389D01*
X690713Y160300D02*
X692287D01*
X691500Y159513D02*
Y161087D01*
X337448Y756210D02*
X339023D01*
X338235Y755422D02*
Y756997D01*
X466071Y754376D02*
X467646D01*
X466858Y753588D02*
Y755163D01*
X501113Y699742D02*
X502687D01*
X501900Y698954D02*
Y700529D01*
X551413Y723100D02*
X552987D01*
X552200Y722313D02*
Y723887D01*
X551413Y714100D02*
X552987D01*
X552200Y713313D02*
Y714887D01*
X621606Y101548D02*
X623181D01*
X622393Y100760D02*
Y102335D01*
X341878Y696800D02*
X343452D01*
X342665Y696013D02*
Y697587D01*
X354613Y710168D02*
X356187D01*
X355400Y709381D02*
Y710956D01*
X389864Y719760D02*
X391439D01*
X390652Y718973D02*
Y720547D01*
X357113Y705169D02*
X358687D01*
X357900Y704382D02*
Y705956D01*
X363013Y707500D02*
X364587D01*
X363800Y706713D02*
Y708287D01*
X366613Y703033D02*
X368187D01*
X367400Y702245D02*
Y703820D01*
X812749Y453303D02*
X814323D01*
X813536Y452515D02*
Y454090D01*
X456272Y729797D02*
X457847D01*
X457060Y729010D02*
Y730585D01*
X356962Y727059D02*
X358537D01*
X357749Y726272D02*
Y727846D01*
X359903Y721264D02*
X361478D01*
X360690Y720477D02*
Y722051D01*
X470113Y734700D02*
X471687D01*
X470900Y733913D02*
Y735487D01*
X489613Y724742D02*
X491187D01*
X490400Y723954D02*
Y725529D01*
X320587Y724814D02*
X322162D01*
X321375Y724027D02*
Y725602D01*
X219184Y649372D02*
X220759D01*
X219972Y648584D02*
Y650159D01*
X178513Y579336D02*
X180087D01*
X179300Y578549D02*
Y580124D01*
X179583Y256511D02*
X181158D01*
X180370Y255724D02*
Y257298D01*
X159613Y178300D02*
X161187D01*
X160400Y177513D02*
Y179087D01*
X163383Y192553D02*
X164958D01*
X164170Y191766D02*
Y193340D01*
X151662Y233601D02*
X153237D01*
X152450Y232813D02*
Y234388D01*
X151662Y246700D02*
X153237D01*
X152450Y245913D02*
Y247487D01*
X337572Y735165D02*
X339147D01*
X338360Y734377D02*
Y735952D01*
X320587Y729814D02*
X322162D01*
X321375Y729026D02*
Y730601D01*
X171707Y716945D02*
X173282D01*
X172494Y716158D02*
Y717732D01*
X94803Y559392D02*
X96378D01*
X95590Y558605D02*
Y560180D01*
X112165Y653948D02*
X113740D01*
X112953Y653161D02*
Y654736D01*
X116659Y634518D02*
X118234D01*
X117447Y633730D02*
Y635305D01*
X255624Y427000D02*
X257199D01*
X256412Y426213D02*
Y427787D01*
X307343Y735419D02*
X308918D01*
X308131Y734632D02*
Y736207D01*
X367313Y689400D02*
X368887D01*
X368100Y688613D02*
Y690187D01*
X319863Y528030D02*
X321438D01*
X320651Y527243D02*
Y528817D01*
X333159Y593537D02*
X334734D01*
X333946Y592750D02*
Y594324D01*
X389864Y764003D02*
X391439D01*
X390652Y763216D02*
Y764791D01*
X401219Y761243D02*
X402794D01*
X402006Y760455D02*
Y762030D01*
X41772Y431713D02*
X43347D01*
X42559Y430926D02*
Y432501D01*
X255624Y357812D02*
X257199D01*
X256412Y357024D02*
Y358599D01*
X201143Y324965D02*
X202718D01*
X201931Y324177D02*
Y325752D01*
X203643Y431469D02*
X205218D01*
X204431Y430682D02*
Y432257D01*
X305590Y421387D02*
X307164D01*
X306377Y420600D02*
Y422175D01*
X543947Y529341D02*
X545522D01*
X544735Y528554D02*
Y530128D01*
X229913Y211300D02*
X231487D01*
X230700Y210513D02*
Y212087D01*
X35513Y363100D02*
X37087D01*
X36300Y362313D02*
Y363887D01*
X90645Y457000D02*
X92220D01*
X91432Y456213D02*
Y457787D01*
X158749Y457000D02*
X160324D01*
X159536Y456213D02*
Y457787D01*
X35513Y432500D02*
X37087D01*
X36300Y431713D02*
Y433287D01*
X158749Y474147D02*
X160324D01*
X159536Y473360D02*
Y474935D01*
X210730Y507700D02*
X212305D01*
X211517Y506913D02*
Y508487D01*
X88813Y658700D02*
X90387D01*
X89600Y657913D02*
Y659487D01*
X239613Y774715D02*
X241187D01*
X240400Y773927D02*
Y775502D01*
X557955Y270942D02*
X559529D01*
X558742Y270155D02*
Y271729D01*
X670313Y203994D02*
X671887D01*
X671100Y203207D02*
Y204781D01*
X682908Y432300D02*
X684483D01*
X683695Y431513D02*
Y433087D01*
X682908Y458417D02*
X684483D01*
X683695Y457630D02*
Y459204D01*
X722291Y497800D02*
X723866D01*
X723078Y497013D02*
Y498587D01*
X722291Y512522D02*
X723866D01*
X723078Y511734D02*
Y513309D01*
X351230Y181600D02*
X352805D01*
X352017Y180813D02*
Y182387D01*
X351230Y160500D02*
X352805D01*
X352017Y159713D02*
Y161287D01*
X592713Y393000D02*
X594287D01*
X593500Y392213D02*
Y393787D01*
X669813Y235100D02*
X671387D01*
X670600Y234313D02*
Y235887D01*
X618513Y216600D02*
X620087D01*
X619300Y215813D02*
Y217387D01*
X319113Y708000D02*
X320687D01*
X319900Y707213D02*
Y708787D01*
X154213Y571100D02*
X155787D01*
X155000Y570313D02*
Y571887D01*
X470029Y714742D02*
X471604D01*
X470816Y713954D02*
Y715529D01*
X420213Y714742D02*
X421787D01*
X421000Y713955D02*
Y715529D01*
X600313Y482200D02*
X601887D01*
X601100Y481413D02*
Y482987D01*
X614773Y497800D02*
X616347D01*
X615560Y497013D02*
Y498587D01*
X682908Y487170D02*
X684483D01*
X683695Y486383D02*
Y487957D01*
X462755Y699200D02*
X464329D01*
X463542Y698413D02*
Y699987D01*
X452213Y717700D02*
X453787D01*
X453000Y716913D02*
Y718487D01*
X699413Y248500D02*
X700987D01*
X700200Y247713D02*
Y249287D01*
X620742Y244329D02*
X622316D01*
X621529Y243542D02*
Y245116D01*
X332050Y734813D02*
X333625D01*
X332838Y734025D02*
Y735600D01*
X411382Y714760D02*
X412957D01*
X412170Y713973D02*
Y715547D01*
X394913Y696800D02*
X396487D01*
X395700Y696013D02*
Y697587D01*
X511113Y712242D02*
X512687D01*
X511900Y711454D02*
Y713029D01*
X476613Y696100D02*
X478187D01*
X477400Y695313D02*
Y696887D01*
X508113Y703000D02*
X509687D01*
X508900Y702213D02*
Y703787D01*
X435313Y704742D02*
X436887D01*
X436100Y703955D02*
Y705529D01*
X464994Y704289D02*
X466569D01*
X465782Y703502D02*
Y705076D01*
X470150Y702242D02*
X471725D01*
X470938Y701454D02*
Y703029D01*
X420213Y704742D02*
X421787D01*
X421000Y703955D02*
Y705529D01*
X203643Y473500D02*
X205218D01*
X204431Y472713D02*
Y474287D01*
X410233Y700900D02*
X411807D01*
X411020Y700113D02*
Y701687D01*
X158749Y272900D02*
X160324D01*
X159536Y272113D02*
Y273687D01*
X165913Y514800D02*
X167487D01*
X166700Y514013D02*
Y515587D01*
X158749Y502700D02*
X160324D01*
X159536Y501913D02*
Y503487D01*
X293932Y514800D02*
X295507D01*
X294719Y514013D02*
Y515587D01*
X165913Y414000D02*
X167487D01*
X166700Y413213D02*
Y414787D01*
X262711Y483579D02*
X264286D01*
X263498Y482792D02*
Y484367D01*
X233713Y122600D02*
X235287D01*
X234500Y121813D02*
Y123387D01*
X660113Y286500D02*
X661687D01*
X660900Y285713D02*
Y287287D01*
X674012Y280208D02*
X675587D01*
X674799Y279420D02*
Y280995D01*
X651013Y272601D02*
X652588D01*
X651801Y271813D02*
Y273388D01*
X643525Y509800D02*
X645100D01*
X644313Y509013D02*
Y510587D01*
X336213Y725200D02*
X337787D01*
X337000Y724413D02*
Y725987D01*
X469471Y709742D02*
X471046D01*
X470258Y708954D02*
Y710529D01*
X431769Y709742D02*
X433344D01*
X432556Y708955D02*
Y710529D01*
X193713Y556500D02*
X195287D01*
X194500Y555713D02*
Y557287D01*
X544713Y203900D02*
X546287D01*
X545500Y203113D02*
Y204687D01*
X489639Y704742D02*
X491213D01*
X490426Y703954D02*
Y705529D01*
X459713Y264500D02*
X461287D01*
X460500Y263713D02*
Y265287D01*
X240213Y91427D02*
X241787D01*
X241000Y90639D02*
Y92214D01*
X470113Y725700D02*
X471687D01*
X470900Y724913D02*
Y726487D01*
X92012Y232000D02*
X93587D01*
X92799Y231213D02*
Y232787D01*
X236213Y738600D02*
X237787D01*
X237000Y737813D02*
Y739387D01*
X437213Y714742D02*
X438787D01*
X438000Y713955D02*
Y715529D01*
X241913Y743900D02*
X243487D01*
X242700Y743113D02*
Y744687D01*
X419813Y727600D02*
X421387D01*
X420600Y726813D02*
Y728387D01*
X151662Y447750D02*
X153237D01*
X152450Y446963D02*
Y448538D01*
X599013Y441900D02*
X600587D01*
X599800Y441113D02*
Y442687D01*
X544755Y288442D02*
X546329D01*
X545542Y287655D02*
Y289229D01*
X643525Y435400D02*
X645100D01*
X644313Y434613D02*
Y436187D01*
X622013Y256400D02*
X623587D01*
X622800Y255613D02*
Y257187D01*
X667570Y466657D02*
X669145D01*
X668357Y465870D02*
Y467445D01*
X151662Y599100D02*
X153237D01*
X152450Y598313D02*
Y599887D01*
X210730Y553374D02*
X212305D01*
X211517Y552587D02*
Y554161D01*
X216013Y558600D02*
X217587D01*
X216800Y557813D02*
Y559387D01*
X649170Y417385D02*
X650745D01*
X649957Y416598D02*
Y418173D01*
X211613Y270900D02*
X213187D01*
X212400Y270113D02*
Y271687D01*
X642313Y293500D02*
X643887D01*
X643100Y292713D02*
Y294287D01*
X654155Y519500D02*
X655730D01*
X654942Y518713D02*
Y520287D01*
X168913Y553400D02*
X170487D01*
X169700Y552613D02*
Y554187D01*
X643525Y546000D02*
X645100D01*
X644312Y545213D02*
Y546787D01*
X641413Y522400D02*
X642987D01*
X642200Y521613D02*
Y523187D01*
X556313Y253000D02*
X557887D01*
X557100Y252213D02*
Y253787D01*
X644713Y240500D02*
X646287D01*
X645500Y239713D02*
Y241287D01*
X660113Y481300D02*
X661687D01*
X660900Y480513D02*
Y482087D01*
X693538Y514725D02*
X695113D01*
X694325Y513938D02*
Y515513D01*
X688413Y546300D02*
X689987D01*
X689200Y545513D02*
Y547087D01*
X255624Y473688D02*
X257199D01*
X256412Y472901D02*
Y474476D01*
X683513Y528900D02*
X685087D01*
X684300Y528113D02*
Y529687D01*
X722291Y528900D02*
X723865D01*
X723078Y528113D02*
Y529687D01*
X262713Y416300D02*
X264287D01*
X263500Y415513D02*
Y417087D01*
X548895Y227174D02*
X550470D01*
X549682Y226386D02*
Y227961D01*
X614772Y539900D02*
X616347D01*
X615560Y539113D02*
Y540687D01*
X151613Y416300D02*
X153187D01*
X152400Y415513D02*
Y417087D01*
X624713Y241800D02*
X626287D01*
X625500Y241013D02*
Y242587D01*
X674213Y194700D02*
X675787D01*
X675000Y193913D02*
Y195487D01*
X605313Y464200D02*
X606887D01*
X606100Y463413D02*
Y464987D01*
X151662Y292150D02*
X153237D01*
X152450Y291363D02*
Y292938D01*
X641413Y494000D02*
X642987D01*
X642200Y493213D02*
Y494787D01*
X642670Y492757D02*
X644245D01*
X643457Y491970D02*
Y493545D01*
X594113Y193900D02*
X595687D01*
X594900Y193113D02*
Y194687D01*
X210730Y446483D02*
X212305D01*
X211517Y445695D02*
Y447270D01*
X556375Y232237D02*
X557950D01*
X557163Y231450D02*
Y233025D01*
X270413Y588300D02*
X271987D01*
X271200Y587513D02*
Y589087D01*
X581413Y588300D02*
X582987D01*
X582200Y587513D02*
Y589087D01*
X146413Y401600D02*
X147987D01*
X147200Y400813D02*
Y402387D01*
X655613Y239200D02*
X657187D01*
X656400Y238413D02*
Y239987D01*
X211921Y570200D02*
X213495D01*
X212708Y569413D02*
Y570987D01*
X231213Y570200D02*
X232787D01*
X232000Y569413D02*
Y570987D01*
X610213Y570200D02*
X611787D01*
X611000Y569413D02*
Y570987D01*
X610513Y236700D02*
X612087D01*
X611300Y235913D02*
Y237487D01*
X255624Y233588D02*
X257199D01*
X256412Y232801D02*
Y234376D01*
X210730Y187919D02*
X212305D01*
X211517Y187132D02*
Y188706D01*
X210730Y279300D02*
X212305D01*
X211517Y278513D02*
Y280087D01*
X599313Y270000D02*
X600887D01*
X600100Y269213D02*
Y270787D01*
X247613Y285600D02*
X249187D01*
X248400Y284813D02*
Y286387D01*
X151662Y345400D02*
X153237D01*
X152450Y344613D02*
Y346187D01*
X253013Y345400D02*
X254587D01*
X253800Y344613D02*
Y346187D01*
X151662Y364000D02*
X153237D01*
X152450Y363213D02*
Y364787D01*
X226713Y193300D02*
X228287D01*
X227500Y192513D02*
Y194087D01*
X676213Y241800D02*
X677787D01*
X677000Y241013D02*
Y242587D01*
X294313Y329599D02*
X295887D01*
X295100Y328811D02*
Y330386D01*
X636113Y408500D02*
X637687D01*
X636900Y407713D02*
Y409287D01*
X262711Y324965D02*
X264286D01*
X263498Y324177D02*
Y325752D01*
M02*
