G04*
G04 #@! TF.GenerationSoftware,Altium Limited,Altium Designer,20.2.3 (150)*
G04*
G04 Layer_Color=16711935*
%FSLAX25Y25*%
%MOIN*%
G70*
G04*
G04 #@! TF.SameCoordinates,FEBEBD62-9BCC-4C60-8B63-8EF99F169A48*
G04*
G04*
G04 #@! TF.FilePolarity,Positive*
G04*
G01*
G75*
%ADD10C,0.00787*%
%ADD11C,0.00000*%
%ADD12C,0.00600*%
%ADD14C,0.00500*%
%ADD15C,0.01000*%
%ADD94C,0.00394*%
D10*
X548560Y163277D02*
G03*
X548560Y163277I-394J0D01*
G01*
X577313Y271867D02*
G03*
X577313Y271867I-394J0D01*
G01*
X628205Y207833D02*
G03*
X628205Y207833I-394J0D01*
G01*
X563002Y199959D02*
G03*
X563002Y199959I-394J0D01*
G01*
X588199Y207833D02*
G03*
X588199Y207833I-394J0D01*
G01*
X549879Y231532D02*
G03*
X549879Y231532I-394J0D01*
G01*
X668211Y207596D02*
G03*
X668211Y207596I-394J0D01*
G01*
X552957Y698020D02*
G03*
X552957Y698020I-307J-247D01*
G01*
X403229Y698117D02*
G03*
X403229Y698117I-228J-321D01*
G01*
X452759Y698153D02*
G03*
X452759Y698153I105J-380D01*
G01*
X503150Y697773D02*
G03*
X503150Y697773I-394J0D01*
G01*
X353920Y698691D02*
G03*
X353920Y698691I-133J-370D01*
G01*
D11*
X691650Y234229D02*
G03*
X689250Y234229I-1200J0D01*
G01*
X644128D02*
G03*
X641728Y234229I-1200J0D01*
G01*
X596606Y234229D02*
G03*
X594206Y234229I-1200J0D01*
G01*
D12*
X611978Y287587D02*
G03*
X614378Y287587I1200J0D01*
G01*
X659301D02*
G03*
X661701Y287587I1200J0D01*
G01*
X583103Y162862D02*
Y174262D01*
X589303D01*
Y162862D02*
Y174262D01*
X583103Y162862D02*
X589303D01*
Y173262D02*
X591803D01*
Y171362D02*
Y173262D01*
X589303Y171362D02*
X591803D01*
X589303D02*
Y173262D01*
Y165762D02*
X591803D01*
Y163862D02*
Y165762D01*
X589303Y163862D02*
X591803D01*
X589303D02*
Y165762D01*
X580603Y163862D02*
X583103D01*
X580603D02*
Y165762D01*
X583103D01*
Y163862D02*
Y165762D01*
X580603Y167562D02*
X583103D01*
X580603D02*
Y169562D01*
X583103D01*
Y167562D02*
Y169562D01*
X580603Y171362D02*
X583103D01*
X580603D02*
Y173262D01*
X583103D01*
Y171362D02*
Y173262D01*
X696750Y234229D02*
Y246829D01*
X691650Y234229D02*
X696750D01*
X689250D02*
X691650D01*
X684150D02*
X689250D01*
X684150D02*
Y246829D01*
X696750D01*
X680350Y235929D02*
X684150D01*
X680350D02*
Y237429D01*
X684150D01*
Y235929D02*
Y237429D01*
X680350Y238529D02*
X684150D01*
X680350D02*
Y240029D01*
X684150D01*
Y238529D02*
Y240029D01*
X680350Y241029D02*
X684150D01*
X680350D02*
Y242529D01*
X684150D01*
Y241029D02*
Y242529D01*
X680350Y243629D02*
X684150D01*
X680350D02*
Y245129D01*
X684150D01*
Y243629D02*
Y245129D01*
X696750D02*
X700550D01*
Y243629D02*
Y245129D01*
X696750Y243629D02*
X700550D01*
X696750D02*
Y245129D01*
Y242529D02*
X700550D01*
Y241029D02*
Y242529D01*
X696750Y241029D02*
X700550D01*
X696750D02*
Y242529D01*
Y240029D02*
X700550D01*
Y238529D02*
Y240029D01*
X696750Y238529D02*
X700550D01*
X696750D02*
Y240029D01*
Y237429D02*
X700550D01*
Y235929D02*
Y237429D01*
X696750Y235929D02*
X700550D01*
X696750D02*
Y237429D01*
X649228Y234229D02*
Y246829D01*
X644128Y234229D02*
X649228D01*
X641728D02*
X644128D01*
X636628D02*
X641728D01*
X636628D02*
Y246829D01*
X649228D01*
X632828Y235929D02*
X636628D01*
X632828D02*
Y237429D01*
X636628D01*
Y235929D02*
Y237429D01*
X632828Y238529D02*
X636628D01*
X632828D02*
Y240029D01*
X636628D01*
Y238529D02*
Y240029D01*
X632828Y241029D02*
X636628D01*
X632828D02*
Y242529D01*
X636628D01*
Y241029D02*
Y242529D01*
X632828Y243629D02*
X636628D01*
X632828D02*
Y245129D01*
X636628D01*
Y243629D02*
Y245129D01*
X649228D02*
X653028D01*
Y243629D02*
Y245129D01*
X649228Y243629D02*
X653028D01*
X649228D02*
Y245129D01*
Y242529D02*
X653028D01*
Y241029D02*
Y242529D01*
X649228Y241029D02*
X653028D01*
X649228D02*
Y242529D01*
Y240029D02*
X653028D01*
Y238529D02*
Y240029D01*
X649228Y238529D02*
X653028D01*
X649228D02*
Y240029D01*
Y237429D02*
X653028D01*
Y235929D02*
Y237429D01*
X649228Y235929D02*
X653028D01*
X649228D02*
Y237429D01*
X601706Y234229D02*
Y246829D01*
X596606Y234229D02*
X601706D01*
X594206D02*
X596606D01*
X589106D02*
X594206D01*
X589106D02*
Y246829D01*
X601706D01*
X585306Y235929D02*
X589106D01*
X585306D02*
Y237429D01*
X589106D01*
Y235929D02*
Y237429D01*
X585306Y238529D02*
X589106D01*
X585306D02*
Y240029D01*
X589106D01*
Y238529D02*
Y240029D01*
X585306Y241029D02*
X589106D01*
X585306D02*
Y242529D01*
X589106D01*
Y241029D02*
Y242529D01*
X585306Y243629D02*
X589106D01*
X585306D02*
Y245129D01*
X589106D01*
Y243629D02*
Y245129D01*
X601706D02*
X605506D01*
Y243629D02*
Y245129D01*
X601706Y243629D02*
X605506D01*
X601706D02*
Y245129D01*
Y242529D02*
X605506D01*
Y241029D02*
Y242529D01*
X601706Y241029D02*
X605506D01*
X601706D02*
Y242529D01*
Y240029D02*
X605506D01*
Y238529D02*
Y240029D01*
X601706Y238529D02*
X605506D01*
X601706D02*
Y240029D01*
Y237429D02*
X605506D01*
Y235929D02*
Y237429D01*
X601706Y235929D02*
X605506D01*
X601706D02*
Y237429D01*
X607079Y275387D02*
Y287587D01*
X611979D01*
X614379D01*
X619279D01*
Y275387D02*
Y287587D01*
X607079Y275387D02*
X619279D01*
Y286087D02*
X623179D01*
Y284587D02*
Y286087D01*
X619279Y284587D02*
X623179D01*
X619279D02*
Y286087D01*
Y283487D02*
X623179D01*
Y281987D02*
Y283487D01*
X619279Y281987D02*
X623179D01*
X619279D02*
Y283487D01*
Y280987D02*
X623179D01*
Y279487D02*
Y280987D01*
X619279Y279487D02*
X623179D01*
X619279D02*
Y280987D01*
Y278387D02*
X623179D01*
Y276887D02*
Y278387D01*
X619279Y276887D02*
X623179D01*
X619279D02*
Y278387D01*
X603179Y276887D02*
X607079D01*
X603179D02*
Y278387D01*
X607079D01*
Y276887D02*
Y278387D01*
X603179Y279487D02*
X607079D01*
X603179D02*
Y280987D01*
X607079D01*
Y279487D02*
Y280987D01*
X603179Y281987D02*
X607079D01*
X603179D02*
Y283487D01*
X607079D01*
Y281987D02*
Y283487D01*
X603179Y284587D02*
X607079D01*
X603179D02*
Y286087D01*
X607079D01*
Y284587D02*
Y286087D01*
X654401Y275387D02*
Y287587D01*
X659301D01*
X661701D01*
X666601D01*
Y275387D02*
Y287587D01*
X654401Y275387D02*
X666601D01*
Y286087D02*
X670501D01*
Y284587D02*
Y286087D01*
X666601Y284587D02*
X670501D01*
X666601D02*
Y286087D01*
Y283487D02*
X670501D01*
Y281987D02*
Y283487D01*
X666601Y281987D02*
X670501D01*
X666601D02*
Y283487D01*
Y280987D02*
X670501D01*
Y279487D02*
Y280987D01*
X666601Y279487D02*
X670501D01*
X666601D02*
Y280987D01*
Y278387D02*
X670501D01*
Y276887D02*
Y278387D01*
X666601Y276887D02*
X670501D01*
X666601D02*
Y278387D01*
X650501Y276887D02*
X654401D01*
X650501D02*
Y278387D01*
X654401D01*
Y276887D02*
Y278387D01*
X650501Y279487D02*
X654401D01*
X650501D02*
Y280987D01*
X654401D01*
Y279487D02*
Y280987D01*
X650501Y281987D02*
X654401D01*
X650501D02*
Y283487D01*
X654401D01*
Y281987D02*
Y283487D01*
X650501Y284587D02*
X654401D01*
X650501D02*
Y286087D01*
X654401D01*
Y284587D02*
Y286087D01*
D14*
X547750Y166710D02*
Y171828D01*
X554442D01*
Y166710D02*
Y171828D01*
X547750Y166710D02*
X554442D01*
X553336Y271286D02*
Y290597D01*
X568691Y271286D02*
Y290597D01*
X553336D02*
X568691D01*
X553336Y271286D02*
X568691D01*
X633914Y197990D02*
X639426D01*
X633914Y209801D02*
X639426D01*
Y197990D02*
Y209801D01*
X633914Y197990D02*
Y209801D01*
X550994D02*
X556506D01*
X550994Y197990D02*
X556506D01*
X550994D02*
Y209801D01*
X556506Y197990D02*
Y209801D01*
X593907Y197990D02*
X599419D01*
X593907Y209801D02*
X599419D01*
Y197990D02*
Y209801D01*
X593907Y197990D02*
Y209801D01*
X559328Y237634D02*
Y243146D01*
X547517Y237634D02*
Y243146D01*
X559328D01*
X547517Y237634D02*
X559328D01*
X673526Y198285D02*
X678644D01*
Y209703D01*
X673526D02*
X678644D01*
X673526Y198285D02*
Y209703D01*
X528654Y697754D02*
Y736730D01*
X544009Y697754D02*
Y736730D01*
X528654D02*
X544009D01*
X528654Y697754D02*
X544009Y697754D01*
X378975Y736735D02*
X379004Y697759D01*
X394329Y736747D02*
X394359Y697770D01*
X378975Y736735D02*
X394329Y736747D01*
X379004Y697759D02*
X394359Y697770D01*
X428867Y697754D02*
Y736730D01*
X444221Y697754D02*
Y736730D01*
X428867Y736730D02*
X444221Y736730D01*
X428867Y697754D02*
X444221D01*
X478761Y697754D02*
Y736730D01*
X494115Y697754D02*
Y736730D01*
X478761D02*
X494115D01*
X478761Y697754D02*
X494115D01*
X329092Y736838D02*
X329794Y697868D01*
X344444Y737115D02*
X345146Y698145D01*
X329092Y736838D02*
X344444Y737115D01*
X329794Y697868D02*
X345146Y698145D01*
X64270Y439974D02*
X64273Y426194D01*
X53837Y439971D02*
X64270Y439974D01*
X53837Y439971D02*
X53840Y426192D01*
X64273Y426194D01*
X552257Y323223D02*
X561115Y333778D01*
X553123Y340484D02*
X561115Y333778D01*
X544265Y329929D02*
X553123Y340484D01*
X544265Y329929D02*
X552257Y323223D01*
X552243Y543233D02*
X561116Y532690D01*
X544261Y536515D02*
X552243Y543233D01*
X544261Y536515D02*
X553133Y525972D01*
X561116Y532690D01*
X305027Y532364D02*
X313884Y542919D01*
X305027Y532364D02*
X313019Y525657D01*
X321877Y536213D01*
X313884Y542919D02*
X321877Y536213D01*
X305027Y333760D02*
X313884Y323204D01*
X321877Y329911D01*
X313019Y340466D02*
X321877Y329911D01*
X305027Y333760D02*
X313019Y340466D01*
X801980Y425635D02*
X802000Y439414D01*
X801980Y425635D02*
X812413Y425620D01*
X812433Y439399D01*
X802000Y439414D02*
X812433Y439399D01*
X110229Y611512D02*
X117137Y623435D01*
X108110Y628666D02*
X117137Y623435D01*
X101202Y616743D02*
X108110Y628666D01*
X101202Y616743D02*
X110229Y611512D01*
X110217Y254650D02*
X117125Y242727D01*
X101190Y249419D02*
X110217Y254650D01*
X101190Y249419D02*
X108098Y237497D01*
X117125Y242727D01*
X242682Y117127D02*
X254626Y110255D01*
X237479Y108084D02*
X242682Y117127D01*
X237479Y108084D02*
X249423Y101212D01*
X254626Y110255D01*
X426169Y64272D02*
X439949Y64271D01*
X426169Y53839D02*
X426169Y64272D01*
X426169Y53839D02*
X439949Y53838D01*
X439949Y64271D01*
X611495Y110244D02*
X623439Y117115D01*
X611495Y110244D02*
X616698Y101200D01*
X628642Y108072D01*
X623439Y117115D02*
X628642Y108072D01*
X749005Y242707D02*
X755913Y254629D01*
X749005Y242707D02*
X758032Y237476D01*
X764940Y249399D01*
X755913Y254629D02*
X764940Y249399D01*
X749016Y623415D02*
X755924Y611492D01*
X764952Y616722D01*
X758044Y628645D02*
X764952Y616722D01*
X749016Y623415D02*
X758044Y628645D01*
X611516Y755887D02*
X623460Y749015D01*
X628662Y758058D01*
X616719Y764930D02*
X628662Y758058D01*
X611516Y755887D02*
X616719Y764930D01*
X426193Y801871D02*
X439972Y801870D01*
X439973Y812303D01*
X426193Y812304D02*
X439973Y812303D01*
X426193Y801871D02*
X426193Y812304D01*
X242702Y749027D02*
X254646Y755898D01*
X249444Y764941D02*
X254646Y755898D01*
X237500Y758070D02*
X249444Y764941D01*
X237500Y758070D02*
X242702Y749027D01*
D15*
X601179Y290652D02*
X604511Y287320D01*
X601179D02*
X604511Y290652D01*
X601179Y288986D02*
X604511D01*
X602845Y287320D02*
Y290652D01*
X648501D02*
X651833Y287320D01*
X648501D02*
X651833Y290652D01*
X648501Y288986D02*
X651833D01*
X650167Y287320D02*
Y290652D01*
D94*
X735086Y406109D02*
Y413195D01*
X721700Y406109D02*
Y413195D01*
Y406109D02*
X735086D01*
X721700Y413195D02*
X735086D01*
X695703Y406109D02*
Y413195D01*
X682317Y406109D02*
Y413195D01*
Y406109D02*
X695703D01*
X682317Y413195D02*
X695703D01*
X656321Y406109D02*
Y413195D01*
X642935Y406109D02*
Y413195D01*
Y406109D02*
X656321D01*
X642935Y413195D02*
X656321D01*
X616938Y406109D02*
Y413195D01*
X603552Y406109D02*
Y413195D01*
Y406109D02*
X616938D01*
X603552Y413195D02*
X616938D01*
X735086Y437224D02*
Y444310D01*
X721700Y437224D02*
Y444310D01*
Y437224D02*
X735086D01*
X721700Y444310D02*
X735086D01*
X695703Y437224D02*
Y444310D01*
X682317Y437224D02*
Y444310D01*
Y437224D02*
X695703D01*
X682317Y444310D02*
X695703D01*
X656320Y437224D02*
Y444310D01*
X642935Y437224D02*
Y444310D01*
Y437224D02*
X656320D01*
X642935Y444310D02*
X656320D01*
X616938Y437224D02*
Y444310D01*
X603552Y437224D02*
Y444310D01*
Y437224D02*
X616938D01*
X603552Y444310D02*
X616938D01*
X735086Y468338D02*
Y475425D01*
X721700Y468338D02*
Y475425D01*
Y468338D02*
X735086D01*
X721700Y475425D02*
X735086D01*
X695703Y468338D02*
Y475425D01*
X682317Y468338D02*
Y475425D01*
Y468338D02*
X695703D01*
X682317Y475425D02*
X695703D01*
X656320Y468338D02*
Y475425D01*
X642935Y468338D02*
Y475425D01*
Y468338D02*
X656320D01*
X642935Y475425D02*
X656320D01*
X616938Y468338D02*
Y475425D01*
X603552Y468338D02*
Y475425D01*
Y468338D02*
X616938D01*
X603552Y475425D02*
X616938D01*
X735086Y499453D02*
Y506540D01*
X721700Y499453D02*
Y506540D01*
Y499453D02*
X735086D01*
X721700Y506540D02*
X735086D01*
X695703Y499453D02*
Y506540D01*
X682317Y499453D02*
Y506540D01*
Y499453D02*
X695703D01*
X682317Y506540D02*
X695703D01*
X656321Y499453D02*
Y506540D01*
X642935Y499453D02*
Y506540D01*
Y499453D02*
X656321D01*
X642935Y506540D02*
X656321D01*
X616938Y499453D02*
Y506540D01*
X603552Y499453D02*
Y506540D01*
Y499453D02*
X616938D01*
X603552Y506540D02*
X616938D01*
X735086Y530568D02*
Y537655D01*
X721700Y530568D02*
Y537655D01*
Y530568D02*
X735086D01*
X721700Y537655D02*
X735086D01*
X695703Y530568D02*
Y537655D01*
X682317Y530568D02*
Y537655D01*
Y530568D02*
X695703D01*
X682317Y537655D02*
X695703D01*
X656320Y530568D02*
Y537655D01*
X642935Y530568D02*
Y537655D01*
Y530568D02*
X656320D01*
X642935Y537655D02*
X656320D01*
X616938Y530568D02*
Y537655D01*
X603552Y530568D02*
Y537655D01*
Y530568D02*
X616938D01*
X603552Y537655D02*
X616938D01*
X735086Y561683D02*
Y568770D01*
X721700Y561683D02*
Y568770D01*
Y561683D02*
X735086D01*
X721700Y568770D02*
X735086D01*
X695703Y561683D02*
Y568770D01*
X682317Y561683D02*
Y568770D01*
Y561683D02*
X695703D01*
X682317Y568770D02*
X695703D01*
X151761Y646616D02*
X160225D01*
X151761Y652128D02*
X160225D01*
Y646616D02*
Y652128D01*
X151761Y646616D02*
Y652128D01*
X203742Y646616D02*
X212206D01*
X203742Y652128D02*
X212206D01*
Y646616D02*
Y652128D01*
X203742Y646616D02*
Y652128D01*
X255723Y646616D02*
X264187D01*
X255723Y652128D02*
X264187D01*
Y646616D02*
Y652128D01*
X255723Y646616D02*
Y652128D01*
X151761Y600934D02*
X160225D01*
X151761Y606446D02*
X160225D01*
Y600934D02*
Y606446D01*
X151761Y600934D02*
Y606446D01*
X203742Y600934D02*
X212206D01*
X203742Y606446D02*
X212206D01*
Y600934D02*
Y606446D01*
X203742Y600934D02*
Y606446D01*
X255723Y600934D02*
X264187D01*
X255723Y606446D02*
X264187D01*
Y600934D02*
Y606446D01*
X255723Y600934D02*
Y606446D01*
X151761Y555252D02*
X160225D01*
X151761Y560764D02*
X160225D01*
Y555252D02*
Y560764D01*
X151761Y555252D02*
Y560764D01*
X203742Y555252D02*
X212206D01*
X203742Y560764D02*
X212206D01*
Y555252D02*
Y560764D01*
X203742Y555252D02*
Y560764D01*
X255723Y555252D02*
X264187D01*
X255723Y560764D02*
X264187D01*
Y555252D02*
Y560764D01*
X255723Y555252D02*
Y560764D01*
X151761Y509570D02*
X160225D01*
X151761Y515082D02*
X160225D01*
Y509570D02*
Y515082D01*
X151761Y509570D02*
Y515082D01*
X203742Y509570D02*
X212206D01*
X203742Y515082D02*
X212206D01*
Y509570D02*
Y515082D01*
X203742Y509570D02*
Y515082D01*
X255723Y509570D02*
X264187D01*
X255723Y515082D02*
X264187D01*
Y509570D02*
Y515082D01*
X255723Y509570D02*
Y515082D01*
X151761Y463888D02*
X160225D01*
X151761Y469400D02*
X160225D01*
Y463888D02*
Y469400D01*
X151761Y463888D02*
Y469400D01*
X203742Y463888D02*
X212206D01*
X203742Y469400D02*
X212206D01*
Y463888D02*
Y469400D01*
X203742Y463888D02*
Y469400D01*
X255723Y463888D02*
X264187D01*
X255723Y469400D02*
X264187D01*
Y463888D02*
Y469400D01*
X255723Y463888D02*
Y469400D01*
X151761Y418207D02*
X160225D01*
X151761Y423718D02*
X160225D01*
Y418207D02*
Y423718D01*
X151761Y418207D02*
Y423718D01*
X203742Y418206D02*
X212206D01*
X203742Y423718D02*
X212206D01*
Y418206D02*
Y423718D01*
X203742Y418206D02*
Y423718D01*
X255723Y418207D02*
X264187D01*
X255723Y423718D02*
X264187D01*
Y418207D02*
Y423718D01*
X255723Y418207D02*
Y423718D01*
X151761Y378036D02*
X160225D01*
X151761Y372525D02*
X160225D01*
X151761D02*
Y378036D01*
X160225Y372525D02*
Y378036D01*
X203742Y372525D02*
X212206D01*
X203742Y378037D02*
X212206D01*
Y372525D02*
Y378037D01*
X203742Y372525D02*
Y378037D01*
X255723Y372525D02*
X264187D01*
X255723Y378037D02*
X264187D01*
Y372525D02*
Y378037D01*
X255723Y372525D02*
Y378037D01*
X151761Y326843D02*
X160225D01*
X151761Y332355D02*
X160225D01*
Y326843D02*
Y332355D01*
X151761Y326843D02*
Y332355D01*
X203742Y326843D02*
X212206D01*
X203742Y332354D02*
X212206D01*
Y326843D02*
Y332354D01*
X203742Y326843D02*
Y332354D01*
X255723Y326843D02*
X264187Y326843D01*
X255723Y332355D02*
X264187D01*
Y326843D02*
Y332355D01*
X255723Y326843D02*
Y332355D01*
X151761Y281161D02*
X160225D01*
X151761Y286673D02*
X160225D01*
Y281161D02*
Y286673D01*
X151761Y281161D02*
Y286673D01*
X203742Y281161D02*
X212206D01*
X203742Y286673D02*
X212206D01*
Y281161D02*
Y286673D01*
X203742Y281161D02*
Y286673D01*
X255723Y281161D02*
X264187D01*
X255723Y286673D02*
X264187D01*
Y281161D02*
Y286673D01*
X255723Y281161D02*
Y286673D01*
X151761Y235479D02*
X160225D01*
X151761Y240991D02*
X160225D01*
Y235479D02*
Y240991D01*
X151761Y235479D02*
Y240991D01*
X203742Y235479D02*
X212206D01*
X203742Y240991D02*
X212206D01*
Y235479D02*
Y240991D01*
X203742Y235479D02*
Y240991D01*
X255723Y235479D02*
X264187D01*
X255723Y240991D02*
X264187D01*
Y235479D02*
Y240991D01*
X255723Y235479D02*
Y240991D01*
X151761Y189797D02*
X160225D01*
X151761Y195309D02*
X160225D01*
Y189797D02*
Y195309D01*
X151761Y189797D02*
Y195309D01*
X203742Y189797D02*
X212206D01*
X203742Y195309D02*
X212206D01*
Y189797D02*
Y195309D01*
X203742Y189797D02*
Y195309D01*
X255723Y189797D02*
X264187D01*
X255723Y195309D02*
X264187D01*
Y189797D02*
Y195309D01*
X255723Y189797D02*
Y195309D01*
X341250Y189270D02*
X382785D01*
X341250Y224703D02*
X382785D01*
X341250Y189270D02*
Y224703D01*
X382785Y189270D02*
Y224703D01*
X827444Y431782D02*
X827478Y434341D01*
X826066Y431801D02*
X826100Y434360D01*
X827478Y434341D01*
X826066Y431801D02*
X827444Y431782D01*
X431791Y827461D02*
X434350D01*
X431791Y826083D02*
X434350Y826083D01*
X431791Y826083D02*
Y827461D01*
X434350Y826083D02*
Y827461D01*
X629162Y775265D02*
X631374Y773979D01*
X628469Y774073D02*
X630681Y772787D01*
X628469Y774073D02*
X629162Y775265D01*
X630681Y772787D02*
X631374Y773979D01*
X234768Y773983D02*
X236984Y775262D01*
X235457Y772790D02*
X237673Y774069D01*
X234768Y773983D02*
X235457Y772790D01*
X236984Y775262D02*
X237673Y774069D01*
X91939Y628433D02*
X93477Y630478D01*
X90838Y629261D02*
X92376Y631306D01*
X93477Y630478D01*
X90838Y629261D02*
X91939Y628433D01*
X38676Y434348D02*
X38686Y431789D01*
X40054Y434353D02*
X40064Y431794D01*
X38686Y431789D02*
X40064Y431794D01*
X38676Y434348D02*
X40054Y434353D01*
X90883Y236990D02*
X92152Y234768D01*
X92079Y237673D02*
X93349Y235451D01*
X92152Y234768D02*
X93349Y235451D01*
X90883Y236990D02*
X92079Y237673D01*
X234768Y92159D02*
X236984Y90879D01*
X235457Y93352D02*
X237673Y92073D01*
X236984Y90879D02*
X237673Y92073D01*
X234768Y92159D02*
X235457Y93352D01*
X431791Y38681D02*
X434350D01*
X431791Y40059D02*
X434350D01*
Y38681D02*
Y40059D01*
X431791Y38681D02*
Y40059D01*
X629158Y90879D02*
X631374Y92159D01*
X628469Y92073D02*
X630685Y93352D01*
X631374Y92159D01*
X628469Y92073D02*
X629158Y90879D01*
X773983Y234768D02*
X775262Y236984D01*
X772789Y235457D02*
X774069Y237673D01*
X775262Y236984D01*
X772789Y235457D02*
X773983Y234768D01*
Y631374D02*
X775262Y629158D01*
X772789Y630685D02*
X774069Y628469D01*
X772789Y630685D02*
X773983Y631374D01*
X774069Y628469D02*
X775262Y629158D01*
M02*
