G04*
G04 #@! TF.GenerationSoftware,Altium Limited,Altium Designer,20.2.3 (150)*
G04*
G04 Layer_Color=2752767*
%FSLAX25Y25*%
%MOIN*%
G70*
G04*
G04 #@! TF.SameCoordinates,FEBEBD62-9BCC-4C60-8B63-8EF99F169A48*
G04*
G04*
G04 #@! TF.FilePolarity,Positive*
G04*
G01*
G75*
%ADD97C,0.00200*%
%ADD98C,0.00267*%
D97*
X485010Y175998D02*
Y177598D01*
X486610D01*
Y175998D01*
X485010D01*
X495010D02*
Y177598D01*
X496610D01*
Y175998D01*
X495010D01*
X435010Y137857D02*
Y139457D01*
X436610D01*
Y137857D01*
X435010D01*
X445010D02*
Y139457D01*
X446610D01*
Y137857D01*
X445010D01*
X455010D02*
Y139457D01*
X456610D01*
Y137857D01*
X455010D01*
X465010D02*
Y139457D01*
X466610D01*
Y137857D01*
X465010D01*
X485010D02*
Y139457D01*
X486610D01*
Y137857D01*
X485010D01*
X495010D02*
Y139457D01*
X496610D01*
Y137857D01*
X495010D01*
X475010D02*
Y139457D01*
X476610D01*
Y137857D01*
X475010D01*
X630013Y275589D02*
X629213Y277189D01*
X630813D01*
X630013Y275589D01*
X627584Y268141D02*
X626784Y269741D01*
X628384D01*
X627584Y268141D01*
X612581Y271809D02*
X611781Y273409D01*
X613381D01*
X612581Y271809D01*
X583630Y219269D02*
X582830Y220869D01*
X584430D01*
X583630Y219269D01*
X597260Y212084D02*
X596460Y213684D01*
X598060D01*
X597260Y212084D01*
X596358Y286635D02*
X595558Y288235D01*
X597158D01*
X596358Y286635D01*
X592986Y283227D02*
X592186Y284827D01*
X593786D01*
X592986Y283227D01*
X585552Y269412D02*
X584752Y271012D01*
X586352D01*
X585552Y269412D01*
X576914Y256739D02*
X576114Y258340D01*
X577714D01*
X576914Y256739D01*
X576726Y235257D02*
X575926Y236857D01*
X577526D01*
X576726Y235257D01*
X563092Y280352D02*
X562292Y281952D01*
X563892D01*
X563092Y280352D01*
X609100Y281967D02*
X608300Y283567D01*
X609900D01*
X609100Y281967D01*
X591934Y238250D02*
X591134Y239850D01*
X592734D01*
X591934Y238250D01*
X559468Y164981D02*
X558668Y166581D01*
X560267D01*
X559468Y164981D01*
X543788Y171120D02*
X542988Y172720D01*
X544589D01*
X543788Y171120D01*
X302900Y96600D02*
X302100Y98200D01*
X303700D01*
X302900Y96600D01*
X263498Y180800D02*
X262698Y182400D01*
X264298D01*
X263498Y180800D01*
X372017Y94659D02*
X371217Y96259D01*
X372817D01*
X372017Y94659D01*
X425000Y136400D02*
X424200Y138000D01*
X425800D01*
X425000Y136400D01*
X256412Y184619D02*
X255612Y186219D01*
X257212D01*
X256412Y184619D01*
X204568Y187201D02*
X203768Y188801D01*
X205368D01*
X204568Y187201D01*
X264433Y317794D02*
X263633Y319394D01*
X265233D01*
X264433Y317794D01*
X270665Y323672D02*
X269865Y325272D01*
X271465D01*
X270665Y323672D01*
X326606Y323956D02*
X325806Y325556D01*
X327406D01*
X326606Y323956D01*
X541698Y340722D02*
X540898Y342322D01*
X542498D01*
X541698Y340722D01*
X480827Y577359D02*
X480027Y578959D01*
X481627D01*
X480827Y577359D01*
X294262Y640236D02*
X293462Y641836D01*
X295062D01*
X294262Y640236D01*
X256773Y632123D02*
X255973Y633723D01*
X257573D01*
X256773Y632123D01*
X470900Y718200D02*
X470100Y719800D01*
X471700D01*
X470900Y718200D01*
X468943Y728087D02*
X468143Y729687D01*
X469743D01*
X468943Y728087D01*
X452044Y698942D02*
X451244Y700542D01*
X452844D01*
X452044Y698942D01*
X452300Y704900D02*
X451500Y706500D01*
X453100D01*
X452300Y704900D01*
X598000Y642500D02*
X597200Y644100D01*
X598800D01*
X598000Y642500D01*
X307230Y658675D02*
X306430Y660275D01*
X308030D01*
X307230Y658675D01*
X322900Y684100D02*
X322100Y685700D01*
X323700D01*
X322900Y684100D01*
X314588Y711571D02*
X313788Y713171D01*
X315388D01*
X314588Y711571D01*
X319900Y712400D02*
X319100Y714000D01*
X320700D01*
X319900Y712400D01*
X505571Y663199D02*
X504771Y664799D01*
X506371D01*
X505571Y663199D01*
X611199Y629275D02*
X610399Y630875D01*
X611999D01*
X611199Y629275D01*
X508947Y718942D02*
X508147Y720542D01*
X509747D01*
X508947Y718942D01*
X501900D02*
X501100Y720542D01*
X502700D01*
X501900Y718942D01*
X487400Y728942D02*
X486600Y730542D01*
X488200D01*
X487400Y728942D01*
X510268Y684100D02*
X509468Y685700D01*
X511068D01*
X510268Y684100D01*
X552200Y749200D02*
X551400Y750800D01*
X553000D01*
X552200Y749200D01*
X761599Y623722D02*
X760800Y625322D01*
X762399D01*
X761599Y623722D01*
X773011Y635300D02*
X772211Y636900D01*
X773811D01*
X773011Y635300D01*
X823300Y431500D02*
X822500Y433100D01*
X824100D01*
X823300Y431500D01*
X825524Y422734D02*
X824724Y424334D01*
X826324D01*
X825524Y422734D01*
X753642Y264258D02*
X752842Y265858D01*
X754442D01*
X753642Y264258D01*
X684594Y203194D02*
X683794Y204794D01*
X685394D01*
X684594Y203194D01*
X703900Y223200D02*
X703100Y224800D01*
X704700D01*
X703900Y223200D01*
X652400Y140900D02*
X651600Y142500D01*
X653200D01*
X652400Y140900D01*
X414736Y52241D02*
X413936Y53841D01*
X415536D01*
X414736Y52241D01*
X355740Y802053D02*
X354940Y803653D01*
X356540D01*
X355740Y802053D01*
X348117Y741913D02*
X347317Y743513D01*
X348917D01*
X348117Y741913D01*
X353956Y728991D02*
X353156Y730591D01*
X354756D01*
X353956Y728991D01*
X410301Y816212D02*
X409501Y817812D01*
X411101D01*
X410301Y816212D01*
X622882Y769300D02*
X622082Y770900D01*
X623682D01*
X622882Y769300D01*
X774715Y624400D02*
X773915Y626000D01*
X775515D01*
X774715Y624400D01*
X826790Y436500D02*
X825990Y438100D01*
X827590D01*
X826790Y436500D01*
X763638Y240802D02*
X762839Y242402D01*
X764438D01*
X763638Y240802D01*
X691500Y159500D02*
X690700Y161100D01*
X692300D01*
X691500Y159500D01*
X338235Y755410D02*
X337435Y757010D01*
X339035D01*
X338235Y755410D01*
X466858Y753576D02*
X466058Y755176D01*
X467658D01*
X466858Y753576D01*
X501900Y698942D02*
X501100Y700542D01*
X502700D01*
X501900Y698942D01*
X552200Y722300D02*
X551400Y723900D01*
X553000D01*
X552200Y722300D01*
Y713300D02*
X551400Y714900D01*
X553000D01*
X552200Y713300D01*
X622393Y100748D02*
X621593Y102348D01*
X623193D01*
X622393Y100748D01*
X342665Y696000D02*
X341865Y697600D01*
X343465D01*
X342665Y696000D01*
X355400Y709368D02*
X354600Y710968D01*
X356200D01*
X355400Y709368D01*
X390652Y718960D02*
X389852Y720560D01*
X391452D01*
X390652Y718960D01*
X357900Y704369D02*
X357100Y705969D01*
X358700D01*
X357900Y704369D01*
X363800Y706700D02*
X363000Y708300D01*
X364600D01*
X363800Y706700D01*
X367400Y702233D02*
X366600Y703833D01*
X368200D01*
X367400Y702233D01*
X813536Y452503D02*
X812736Y454103D01*
X814336D01*
X813536Y452503D01*
X457060Y728997D02*
X456260Y730597D01*
X457860D01*
X457060Y728997D01*
X357749Y726259D02*
X356949Y727859D01*
X358549D01*
X357749Y726259D01*
X360690Y720464D02*
X359891Y722064D01*
X361491D01*
X360690Y720464D01*
X470900Y733900D02*
X470100Y735500D01*
X471700D01*
X470900Y733900D01*
X490400Y723942D02*
X489600Y725542D01*
X491200D01*
X490400Y723942D01*
X321375Y724014D02*
X320575Y725614D01*
X322175D01*
X321375Y724014D01*
X219972Y648572D02*
X219172Y650172D01*
X220772D01*
X219972Y648572D01*
X179300Y578536D02*
X178500Y580136D01*
X180100D01*
X179300Y578536D01*
X180370Y255711D02*
X179570Y257311D01*
X181170D01*
X180370Y255711D01*
X160400Y177500D02*
X159600Y179100D01*
X161200D01*
X160400Y177500D01*
X164170Y191753D02*
X163370Y193353D01*
X164970D01*
X164170Y191753D01*
X152450Y232801D02*
X151650Y234401D01*
X153250D01*
X152450Y232801D01*
Y245900D02*
X151650Y247500D01*
X153250D01*
X152450Y245900D01*
X338360Y734365D02*
X337560Y735965D01*
X339160D01*
X338360Y734365D01*
X321375Y729014D02*
X320575Y730614D01*
X322175D01*
X321375Y729014D01*
X172494Y716145D02*
X171694Y717745D01*
X173294D01*
X172494Y716145D01*
X95590Y558593D02*
X94790Y560192D01*
X96390D01*
X95590Y558593D01*
X112953Y653148D02*
X112153Y654748D01*
X113753D01*
X112953Y653148D01*
X117447Y633718D02*
X116647Y635318D01*
X118247D01*
X117447Y633718D01*
X256412Y426200D02*
X255612Y427800D01*
X257212D01*
X256412Y426200D01*
X308131Y734619D02*
X307331Y736219D01*
X308931D01*
X308131Y734619D01*
X368100Y688600D02*
X367300Y690200D01*
X368900D01*
X368100Y688600D01*
X320651Y527230D02*
X319850Y528830D01*
X321450D01*
X320651Y527230D01*
X333946Y592737D02*
X333146Y594337D01*
X334746D01*
X333946Y592737D01*
X390652Y763203D02*
X389852Y764803D01*
X391452D01*
X390652Y763203D01*
X402006Y760443D02*
X401206Y762043D01*
X402806D01*
X402006Y760443D01*
X42559Y430913D02*
X41759Y432514D01*
X43359D01*
X42559Y430913D01*
X256412Y357012D02*
X255612Y358612D01*
X257212D01*
X256412Y357012D01*
X201931Y324165D02*
X201131Y325765D01*
X202731D01*
X201931Y324165D01*
X204431Y430669D02*
X203631Y432269D01*
X205231D01*
X204431Y430669D01*
X306377Y420587D02*
X305577Y422187D01*
X307177D01*
X306377Y420587D01*
X544735Y528541D02*
X543935Y530141D01*
X545535D01*
X544735Y528541D01*
X230700Y210500D02*
X229900Y212100D01*
X231500D01*
X230700Y210500D01*
X36300Y362300D02*
X35500Y363900D01*
X37100D01*
X36300Y362300D01*
X91432Y456200D02*
X90632Y457800D01*
X92232D01*
X91432Y456200D01*
X159536D02*
X158736Y457800D01*
X160336D01*
X159536Y456200D01*
X36300Y431700D02*
X35500Y433300D01*
X37100D01*
X36300Y431700D01*
X159536Y473347D02*
X158736Y474947D01*
X160336D01*
X159536Y473347D01*
X211517Y506900D02*
X210717Y508500D01*
X212317D01*
X211517Y506900D01*
X89600Y657900D02*
X88800Y659500D01*
X90400D01*
X89600Y657900D01*
X240400Y773915D02*
X239600Y775515D01*
X241200D01*
X240400Y773915D01*
X558742Y270142D02*
X557942Y271742D01*
X559542D01*
X558742Y270142D01*
X671100Y203194D02*
X670300Y204794D01*
X671900D01*
X671100Y203194D01*
X683695Y431500D02*
X682895Y433100D01*
X684495D01*
X683695Y431500D01*
Y457617D02*
X682895Y459217D01*
X684495D01*
X683695Y457617D01*
X723078Y497000D02*
X722278Y498600D01*
X723878D01*
X723078Y497000D01*
Y511722D02*
X722278Y513322D01*
X723878D01*
X723078Y511722D01*
X352017Y180800D02*
X351217Y182400D01*
X352817D01*
X352017Y180800D01*
Y159700D02*
X351217Y161300D01*
X352817D01*
X352017Y159700D01*
X593500Y392200D02*
X592700Y393800D01*
X594300D01*
X593500Y392200D01*
X670600Y234300D02*
X669800Y235900D01*
X671400D01*
X670600Y234300D01*
X619300Y215800D02*
X618500Y217400D01*
X620100D01*
X619300Y215800D01*
X319900Y707200D02*
X319100Y708800D01*
X320700D01*
X319900Y707200D01*
X155000Y570300D02*
X154200Y571900D01*
X155800D01*
X155000Y570300D01*
X470816Y713942D02*
X470016Y715542D01*
X471616D01*
X470816Y713942D01*
X421000Y713942D02*
X420200Y715542D01*
X421800D01*
X421000Y713942D01*
X601100Y481400D02*
X600300Y483000D01*
X601900D01*
X601100Y481400D01*
X615560Y497000D02*
X614760Y498600D01*
X616360D01*
X615560Y497000D01*
X683695Y486370D02*
X682895Y487970D01*
X684495D01*
X683695Y486370D01*
X463542Y698400D02*
X462742Y700000D01*
X464342D01*
X463542Y698400D01*
X453000Y716900D02*
X452200Y718500D01*
X453800D01*
X453000Y716900D01*
X700200Y247700D02*
X699400Y249300D01*
X701000D01*
X700200Y247700D01*
X621529Y243529D02*
X620729Y245129D01*
X622329D01*
X621529Y243529D01*
X332838Y734013D02*
X332038Y735613D01*
X333638D01*
X332838Y734013D01*
X412170Y713960D02*
X411370Y715560D01*
X412970D01*
X412170Y713960D01*
X395700Y696000D02*
X394900Y697600D01*
X396500D01*
X395700Y696000D01*
X511900Y711442D02*
X511100Y713042D01*
X512700D01*
X511900Y711442D01*
X477400Y695300D02*
X476600Y696900D01*
X478200D01*
X477400Y695300D01*
X508900Y702200D02*
X508100Y703800D01*
X509700D01*
X508900Y702200D01*
X436100Y703942D02*
X435300Y705542D01*
X436900D01*
X436100Y703942D01*
X465782Y703489D02*
X464982Y705089D01*
X466582D01*
X465782Y703489D01*
X470938Y701442D02*
X470138Y703042D01*
X471738D01*
X470938Y701442D01*
X421000Y703942D02*
X420200Y705542D01*
X421800D01*
X421000Y703942D01*
X204431Y472700D02*
X203631Y474300D01*
X205231D01*
X204431Y472700D01*
X411020Y700100D02*
X410220Y701700D01*
X411820D01*
X411020Y700100D01*
X159536Y272100D02*
X158736Y273700D01*
X160336D01*
X159536Y272100D01*
X166700Y514000D02*
X165900Y515600D01*
X167500D01*
X166700Y514000D01*
X159536Y501900D02*
X158736Y503500D01*
X160336D01*
X159536Y501900D01*
X294719Y514000D02*
X293919Y515600D01*
X295519D01*
X294719Y514000D01*
X166700Y413200D02*
X165900Y414800D01*
X167500D01*
X166700Y413200D01*
X263498Y482779D02*
X262698Y484379D01*
X264298D01*
X263498Y482779D01*
X234500Y121800D02*
X233700Y123400D01*
X235300D01*
X234500Y121800D01*
X660900Y285700D02*
X660100Y287300D01*
X661700D01*
X660900Y285700D01*
X674799Y279408D02*
X673999Y281008D01*
X675599D01*
X674799Y279408D01*
X651801Y271801D02*
X651001Y273401D01*
X652601D01*
X651801Y271801D01*
X644313Y509000D02*
X643513Y510600D01*
X645113D01*
X644313Y509000D01*
X337000Y724400D02*
X336200Y726000D01*
X337800D01*
X337000Y724400D01*
X470258Y708942D02*
X469458Y710542D01*
X471058D01*
X470258Y708942D01*
X432556Y708942D02*
X431756Y710542D01*
X433356D01*
X432556Y708942D01*
X194500Y555700D02*
X193700Y557300D01*
X195300D01*
X194500Y555700D01*
X545500Y203100D02*
X544700Y204700D01*
X546300D01*
X545500Y203100D01*
X490426Y703942D02*
X489626Y705542D01*
X491226D01*
X490426Y703942D01*
X460500Y263700D02*
X459700Y265300D01*
X461300D01*
X460500Y263700D01*
X241000Y90627D02*
X240200Y92227D01*
X241800D01*
X241000Y90627D01*
X470900Y724900D02*
X470100Y726500D01*
X471700D01*
X470900Y724900D01*
X92799Y231200D02*
X91999Y232800D01*
X93599D01*
X92799Y231200D01*
X237000Y737800D02*
X236200Y739400D01*
X237800D01*
X237000Y737800D01*
X438000Y713942D02*
X437200Y715542D01*
X438800D01*
X438000Y713942D01*
X242700Y743100D02*
X241900Y744700D01*
X243500D01*
X242700Y743100D01*
X420600Y726800D02*
X419800Y728400D01*
X421400D01*
X420600Y726800D01*
X152450Y446950D02*
X151650Y448550D01*
X153250D01*
X152450Y446950D01*
X599800Y441100D02*
X599000Y442700D01*
X600600D01*
X599800Y441100D01*
X545542Y287642D02*
X544742Y289242D01*
X546342D01*
X545542Y287642D01*
X644313Y434600D02*
X643513Y436200D01*
X645113D01*
X644313Y434600D01*
X622800Y255600D02*
X622000Y257200D01*
X623600D01*
X622800Y255600D01*
X668357Y465857D02*
X667557Y467457D01*
X669157D01*
X668357Y465857D01*
X152450Y598300D02*
X151650Y599900D01*
X153250D01*
X152450Y598300D01*
X211517Y552574D02*
X210717Y554174D01*
X212317D01*
X211517Y552574D01*
X216800Y557800D02*
X216000Y559400D01*
X217600D01*
X216800Y557800D01*
X649957Y416585D02*
X649157Y418185D01*
X650757D01*
X649957Y416585D01*
X212400Y270100D02*
X211600Y271700D01*
X213200D01*
X212400Y270100D01*
X643100Y292700D02*
X642300Y294300D01*
X643900D01*
X643100Y292700D01*
X654942Y518700D02*
X654142Y520300D01*
X655742D01*
X654942Y518700D01*
X169700Y552600D02*
X168900Y554200D01*
X170500D01*
X169700Y552600D01*
X644312Y545200D02*
X643512Y546800D01*
X645112D01*
X644312Y545200D01*
X642200Y521600D02*
X641400Y523200D01*
X643000D01*
X642200Y521600D01*
X557100Y252200D02*
X556300Y253800D01*
X557900D01*
X557100Y252200D01*
X645500Y239700D02*
X644700Y241300D01*
X646300D01*
X645500Y239700D01*
X660900Y480500D02*
X660100Y482100D01*
X661700D01*
X660900Y480500D01*
X694325Y513925D02*
X693525Y515525D01*
X695125D01*
X694325Y513925D01*
X689200Y545500D02*
X688400Y547100D01*
X690000D01*
X689200Y545500D01*
X256412Y472888D02*
X255612Y474488D01*
X257212D01*
X256412Y472888D01*
X684300Y528100D02*
X683500Y529700D01*
X685100D01*
X684300Y528100D01*
X723078D02*
X722278Y529700D01*
X723878D01*
X723078Y528100D01*
X263500Y415500D02*
X262700Y417100D01*
X264300D01*
X263500Y415500D01*
X549682Y226374D02*
X548882Y227974D01*
X550482D01*
X549682Y226374D01*
X615560Y539100D02*
X614760Y540700D01*
X616360D01*
X615560Y539100D01*
X152400Y415500D02*
X151600Y417100D01*
X153200D01*
X152400Y415500D01*
X625500Y241000D02*
X624700Y242600D01*
X626300D01*
X625500Y241000D01*
X675000Y193900D02*
X674200Y195500D01*
X675800D01*
X675000Y193900D01*
X606100Y463400D02*
X605300Y465000D01*
X606900D01*
X606100Y463400D01*
X152450Y291350D02*
X151650Y292950D01*
X153250D01*
X152450Y291350D01*
X642200Y493200D02*
X641400Y494800D01*
X643000D01*
X642200Y493200D01*
X643457Y491957D02*
X642657Y493557D01*
X644257D01*
X643457Y491957D01*
X594900Y193100D02*
X594100Y194700D01*
X595700D01*
X594900Y193100D01*
X211517Y445683D02*
X210717Y447283D01*
X212317D01*
X211517Y445683D01*
X557163Y231437D02*
X556363Y233037D01*
X557963D01*
X557163Y231437D01*
X271200Y587500D02*
X270400Y589100D01*
X272000D01*
X271200Y587500D01*
X582200D02*
X581400Y589100D01*
X583000D01*
X582200Y587500D01*
X147200Y400800D02*
X146400Y402400D01*
X148000D01*
X147200Y400800D01*
X656400Y238400D02*
X655600Y240000D01*
X657200D01*
X656400Y238400D01*
X212708Y569400D02*
X211908Y571000D01*
X213508D01*
X212708Y569400D01*
X232000D02*
X231200Y571000D01*
X232800D01*
X232000Y569400D01*
X611000D02*
X610200Y571000D01*
X611800D01*
X611000Y569400D01*
X611300Y235900D02*
X610500Y237500D01*
X612100D01*
X611300Y235900D01*
X256412Y232788D02*
X255612Y234388D01*
X257212D01*
X256412Y232788D01*
X211517Y187119D02*
X210717Y188719D01*
X212317D01*
X211517Y187119D01*
Y278500D02*
X210717Y280100D01*
X212317D01*
X211517Y278500D01*
X600100Y269200D02*
X599300Y270800D01*
X600900D01*
X600100Y269200D01*
X248400Y284800D02*
X247600Y286400D01*
X249200D01*
X248400Y284800D01*
X152450Y344600D02*
X151650Y346200D01*
X153250D01*
X152450Y344600D01*
X253800D02*
X253000Y346200D01*
X254600D01*
X253800Y344600D01*
X152450Y363200D02*
X151650Y364800D01*
X153250D01*
X152450Y363200D01*
X227500Y192500D02*
X226700Y194100D01*
X228300D01*
X227500Y192500D01*
X677000Y241000D02*
X676200Y242600D01*
X677800D01*
X677000Y241000D01*
X295100Y328799D02*
X294300Y330399D01*
X295900D01*
X295100Y328799D01*
X636900Y407700D02*
X636100Y409300D01*
X637700D01*
X636900Y407700D01*
X263498Y324165D02*
X262698Y325765D01*
X264298D01*
X263498Y324165D01*
D98*
X59854Y435862D02*
G03*
X59854Y435862I-800J0D01*
G01*
X555277Y333983D02*
G03*
X555277Y333983I-800J0D01*
G01*
X551699Y536729D02*
G03*
X551699Y536729I-800J0D01*
G01*
X312465Y532159D02*
G03*
X312465Y532159I-800J0D01*
G01*
X316038Y329706D02*
G03*
X316038Y329706I-800J0D01*
G01*
X808003Y429737D02*
G03*
X808003Y429737I-800J0D01*
G01*
X111363Y622494D02*
G03*
X111363Y622494I-800J0D01*
G01*
X108564Y248478D02*
G03*
X108564Y248478I-800J0D01*
G01*
X244443Y110556D02*
G03*
X244443Y110556I-800J0D01*
G01*
X431080Y59055D02*
G03*
X431080Y59055I-800J0D01*
G01*
X618459Y107772D02*
G03*
X618459Y107772I-800J0D01*
G01*
X756379Y243648D02*
G03*
X756379Y243648I-800J0D01*
G01*
X759177Y617664D02*
G03*
X759177Y617664I-800J0D01*
G01*
X623298Y755586D02*
G03*
X623298Y755586I-800J0D01*
G01*
X436662Y807087D02*
G03*
X436662Y807087I-800J0D01*
G01*
X249282Y758370D02*
G03*
X249282Y758370I-800J0D01*
G01*
M02*
