G04*
G04 #@! TF.GenerationSoftware,Altium Limited,Altium Designer,20.2.3 (150)*
G04*
G04 Layer_Color=255*
%FSLAX25Y25*%
%MOIN*%
G70*
G04*
G04 #@! TF.SameCoordinates,FEBEBD62-9BCC-4C60-8B63-8EF99F169A48*
G04*
G04*
G04 #@! TF.FilePolarity,Positive*
G04*
G01*
G75*
%ADD16R,0.01260X0.02205*%
G04:AMPARAMS|DCode=17|XSize=77.56mil|YSize=23.62mil|CornerRadius=2.95mil|HoleSize=0mil|Usage=FLASHONLY|Rotation=180.000|XOffset=0mil|YOffset=0mil|HoleType=Round|Shape=RoundedRectangle|*
%AMROUNDEDRECTD17*
21,1,0.07756,0.01772,0,0,180.0*
21,1,0.07165,0.02362,0,0,180.0*
1,1,0.00591,-0.03583,0.00886*
1,1,0.00591,0.03583,0.00886*
1,1,0.00591,0.03583,-0.00886*
1,1,0.00591,-0.03583,-0.00886*
%
%ADD17ROUNDEDRECTD17*%
%ADD18R,0.05000X0.02200*%
%ADD19R,0.05900X0.01700*%
%ADD20R,0.05500X0.01700*%
G04:AMPARAMS|DCode=21|XSize=49.61mil|YSize=23.23mil|CornerRadius=2.9mil|HoleSize=0mil|Usage=FLASHONLY|Rotation=0.000|XOffset=0mil|YOffset=0mil|HoleType=Round|Shape=RoundedRectangle|*
%AMROUNDEDRECTD21*
21,1,0.04961,0.01742,0,0,0.0*
21,1,0.04380,0.02323,0,0,0.0*
1,1,0.00581,0.02190,-0.00871*
1,1,0.00581,-0.02190,-0.00871*
1,1,0.00581,-0.02190,0.00871*
1,1,0.00581,0.02190,0.00871*
%
%ADD21ROUNDEDRECTD21*%
G04:AMPARAMS|DCode=22|XSize=49.61mil|YSize=23.23mil|CornerRadius=2.9mil|HoleSize=0mil|Usage=FLASHONLY|Rotation=90.000|XOffset=0mil|YOffset=0mil|HoleType=Round|Shape=RoundedRectangle|*
%AMROUNDEDRECTD22*
21,1,0.04961,0.01742,0,0,90.0*
21,1,0.04380,0.02323,0,0,90.0*
1,1,0.00581,0.00871,0.02190*
1,1,0.00581,0.00871,-0.02190*
1,1,0.00581,-0.00871,-0.02190*
1,1,0.00581,-0.00871,0.02190*
%
%ADD22ROUNDEDRECTD22*%
G04:AMPARAMS|DCode=23|XSize=42.91mil|YSize=24.02mil|CornerRadius=3mil|HoleSize=0mil|Usage=FLASHONLY|Rotation=0.000|XOffset=0mil|YOffset=0mil|HoleType=Round|Shape=RoundedRectangle|*
%AMROUNDEDRECTD23*
21,1,0.04291,0.01801,0,0,0.0*
21,1,0.03691,0.02402,0,0,0.0*
1,1,0.00600,0.01846,-0.00901*
1,1,0.00600,-0.01846,-0.00901*
1,1,0.00600,-0.01846,0.00901*
1,1,0.00600,0.01846,0.00901*
%
%ADD23ROUNDEDRECTD23*%
%ADD24R,0.04331X0.06693*%
%ADD25R,0.04724X0.05512*%
G04:AMPARAMS|DCode=26|XSize=77.56mil|YSize=23.62mil|CornerRadius=2.95mil|HoleSize=0mil|Usage=FLASHONLY|Rotation=180.044|XOffset=0mil|YOffset=0mil|HoleType=Round|Shape=RoundedRectangle|*
%AMROUNDEDRECTD26*
21,1,0.07756,0.01772,0,0,180.0*
21,1,0.07165,0.02362,0,0,180.0*
1,1,0.00591,-0.03583,0.00883*
1,1,0.00591,0.03582,0.00889*
1,1,0.00591,0.03583,-0.00883*
1,1,0.00591,-0.03582,-0.00889*
%
%ADD26ROUNDEDRECTD26*%
%ADD27R,0.04134X0.09449*%
%ADD28R,0.41929X0.35039*%
G04:AMPARAMS|DCode=29|XSize=77.56mil|YSize=23.62mil|CornerRadius=2.95mil|HoleSize=0mil|Usage=FLASHONLY|Rotation=181.033|XOffset=0mil|YOffset=0mil|HoleType=Round|Shape=RoundedRectangle|*
%AMROUNDEDRECTD29*
21,1,0.07756,0.01772,0,0,181.0*
21,1,0.07165,0.02362,0,0,181.0*
1,1,0.00591,-0.03598,0.00821*
1,1,0.00591,0.03566,0.00950*
1,1,0.00591,0.03598,-0.00821*
1,1,0.00591,-0.03566,-0.00950*
%
%ADD29ROUNDEDRECTD29*%
G04:AMPARAMS|DCode=30|XSize=11.81mil|YSize=19.68mil|CornerRadius=0mil|HoleSize=0mil|Usage=FLASHONLY|Rotation=179.227|XOffset=0mil|YOffset=0mil|HoleType=Round|Shape=Rectangle|*
%AMROTATEDRECTD30*
4,1,4,0.00604,0.00976,0.00577,-0.00992,-0.00604,-0.00976,-0.00577,0.00992,0.00604,0.00976,0.0*
%
%ADD30ROTATEDRECTD30*%

%ADD31R,0.01968X0.01181*%
G04:AMPARAMS|DCode=32|XSize=11.81mil|YSize=19.68mil|CornerRadius=0mil|HoleSize=0mil|Usage=FLASHONLY|Rotation=239.828|XOffset=0mil|YOffset=0mil|HoleType=Round|Shape=Rectangle|*
%AMROTATEDRECTD32*
4,1,4,-0.00554,0.01005,0.01148,0.00016,0.00554,-0.01005,-0.01148,-0.00016,-0.00554,0.01005,0.0*
%
%ADD32ROTATEDRECTD32*%

G04:AMPARAMS|DCode=33|XSize=11.81mil|YSize=19.68mil|CornerRadius=0mil|HoleSize=0mil|Usage=FLASHONLY|Rotation=300.000|XOffset=0mil|YOffset=0mil|HoleType=Round|Shape=Rectangle|*
%AMROTATEDRECTD33*
4,1,4,-0.01148,0.00019,0.00557,0.01004,0.01148,-0.00019,-0.00557,-0.01004,-0.01148,0.00019,0.0*
%
%ADD33ROTATEDRECTD33*%

G04:AMPARAMS|DCode=34|XSize=11.81mil|YSize=19.68mil|CornerRadius=0mil|HoleSize=0mil|Usage=FLASHONLY|Rotation=143.067|XOffset=0mil|YOffset=0mil|HoleType=Round|Shape=Rectangle|*
%AMROTATEDRECTD34*
4,1,4,0.01064,0.00432,-0.00119,-0.01142,-0.01064,-0.00432,0.00119,0.01142,0.01064,0.00432,0.0*
%
%ADD34ROTATEDRECTD34*%

G04:AMPARAMS|DCode=35|XSize=11.81mil|YSize=19.68mil|CornerRadius=0mil|HoleSize=0mil|Usage=FLASHONLY|Rotation=0.225|XOffset=0mil|YOffset=0mil|HoleType=Round|Shape=Rectangle|*
%AMROTATEDRECTD35*
4,1,4,-0.00587,-0.00987,-0.00594,0.00982,0.00587,0.00987,0.00594,-0.00982,-0.00587,-0.00987,0.0*
%
%ADD35ROTATEDRECTD35*%

G04:AMPARAMS|DCode=36|XSize=11.81mil|YSize=19.68mil|CornerRadius=0mil|HoleSize=0mil|Usage=FLASHONLY|Rotation=29.737|XOffset=0mil|YOffset=0mil|HoleType=Round|Shape=Rectangle|*
%AMROTATEDRECTD36*
4,1,4,-0.00025,-0.01148,-0.01001,0.00562,0.00025,0.01148,0.01001,-0.00562,-0.00025,-0.01148,0.0*
%
%ADD36ROTATEDRECTD36*%

G04:AMPARAMS|DCode=37|XSize=11.81mil|YSize=19.68mil|CornerRadius=0mil|HoleSize=0mil|Usage=FLASHONLY|Rotation=150.000|XOffset=0mil|YOffset=0mil|HoleType=Round|Shape=Rectangle|*
%AMROTATEDRECTD37*
4,1,4,0.01004,0.00557,0.00019,-0.01148,-0.01004,-0.00557,-0.00019,0.01148,0.01004,0.00557,0.0*
%
%ADD37ROTATEDRECTD37*%

%ADD65R,0.05906X0.05906*%
%ADD66C,0.05906*%
%ADD67C,0.01968*%
D16*
X553064Y166179D02*
D03*
X549127Y172360D02*
D03*
X551096D02*
D03*
X553064D02*
D03*
X551096Y166179D02*
D03*
X549127D02*
D03*
D17*
X551289Y273442D02*
D03*
Y278442D02*
D03*
Y283442D02*
D03*
Y288442D02*
D03*
X570738D02*
D03*
Y283442D02*
D03*
Y278442D02*
D03*
Y273442D02*
D03*
X526587Y699742D02*
D03*
X526587Y704742D02*
D03*
X526587Y709742D02*
D03*
Y714742D02*
D03*
Y719742D02*
D03*
Y724742D02*
D03*
Y729742D02*
D03*
Y734742D02*
D03*
X546075D02*
D03*
X546076Y729742D02*
D03*
Y724742D02*
D03*
Y719742D02*
D03*
Y714742D02*
D03*
Y709742D02*
D03*
Y704742D02*
D03*
Y699742D02*
D03*
X426800Y699742D02*
D03*
Y704742D02*
D03*
Y709742D02*
D03*
Y714742D02*
D03*
Y719742D02*
D03*
Y724742D02*
D03*
Y729742D02*
D03*
Y734742D02*
D03*
X446288D02*
D03*
Y729742D02*
D03*
Y724742D02*
D03*
X446288Y719742D02*
D03*
X446288Y714742D02*
D03*
Y709742D02*
D03*
Y704742D02*
D03*
Y699742D02*
D03*
X476694Y699742D02*
D03*
X476694Y704742D02*
D03*
X476694Y709742D02*
D03*
X476694Y714742D02*
D03*
X476694Y719742D02*
D03*
Y724742D02*
D03*
Y729742D02*
D03*
Y734742D02*
D03*
X496182D02*
D03*
Y729742D02*
D03*
Y724742D02*
D03*
Y719742D02*
D03*
X496182Y714742D02*
D03*
Y709742D02*
D03*
Y704742D02*
D03*
Y699742D02*
D03*
D18*
X590703Y172362D02*
D03*
Y164762D02*
D03*
X581703D02*
D03*
Y168562D02*
D03*
Y172362D02*
D03*
D19*
X681850Y236729D02*
D03*
Y239229D02*
D03*
Y241829D02*
D03*
Y244329D02*
D03*
X699050D02*
D03*
Y241829D02*
D03*
Y239229D02*
D03*
Y236729D02*
D03*
X634328D02*
D03*
Y239229D02*
D03*
Y241829D02*
D03*
Y244329D02*
D03*
X651528D02*
D03*
Y241829D02*
D03*
Y239229D02*
D03*
Y236729D02*
D03*
X586806D02*
D03*
Y239229D02*
D03*
Y241829D02*
D03*
Y244329D02*
D03*
X604006D02*
D03*
Y241829D02*
D03*
Y239229D02*
D03*
Y236729D02*
D03*
D20*
X621879Y285326D02*
D03*
Y282767D02*
D03*
Y280208D02*
D03*
Y277649D02*
D03*
X604479D02*
D03*
Y280208D02*
D03*
Y282767D02*
D03*
Y285326D02*
D03*
X669201D02*
D03*
Y282767D02*
D03*
Y280208D02*
D03*
Y277649D02*
D03*
X651801D02*
D03*
Y280208D02*
D03*
Y282767D02*
D03*
Y285326D02*
D03*
D21*
X640528Y203896D02*
D03*
X632811Y200155D02*
D03*
Y207636D02*
D03*
X549892Y203896D02*
D03*
X557608Y207636D02*
D03*
Y200155D02*
D03*
X600522Y203896D02*
D03*
X592805Y200155D02*
D03*
Y207636D02*
D03*
D22*
X553423Y244249D02*
D03*
X557163Y236532D02*
D03*
X549682D02*
D03*
D23*
X671873Y200392D02*
D03*
X680298Y203994D02*
D03*
X671873Y207596D02*
D03*
D24*
X733708Y409652D02*
D03*
X723078D02*
D03*
X694325D02*
D03*
X683695D02*
D03*
X654943D02*
D03*
X644313D02*
D03*
X615560D02*
D03*
X604930D02*
D03*
X733708Y440767D02*
D03*
X723078D02*
D03*
X694325D02*
D03*
X683695D02*
D03*
X654942D02*
D03*
X644313D02*
D03*
X615560D02*
D03*
X604930D02*
D03*
X733708Y471882D02*
D03*
X723078D02*
D03*
X694325D02*
D03*
X683695D02*
D03*
X654943D02*
D03*
X644313D02*
D03*
X615560D02*
D03*
X604930D02*
D03*
X733708Y502997D02*
D03*
X723078D02*
D03*
X694325D02*
D03*
X683695D02*
D03*
X654943D02*
D03*
X644313D02*
D03*
X615560D02*
D03*
X604930D02*
D03*
X733708Y534112D02*
D03*
X723078D02*
D03*
X694325D02*
D03*
X683695D02*
D03*
X654942D02*
D03*
X644312D02*
D03*
X615560D02*
D03*
X604930D02*
D03*
X733708Y565226D02*
D03*
X723078D02*
D03*
X694325D02*
D03*
X683695D02*
D03*
D25*
X159536Y649372D02*
D03*
X152450Y649372D02*
D03*
X211517Y649372D02*
D03*
X204431Y649372D02*
D03*
X263498D02*
D03*
X256412Y649372D02*
D03*
X159536Y603690D02*
D03*
X152450D02*
D03*
X211517D02*
D03*
X204431D02*
D03*
X263498D02*
D03*
X256412D02*
D03*
X159536Y558008D02*
D03*
X152450D02*
D03*
X211517D02*
D03*
X204431D02*
D03*
X263498D02*
D03*
X256412D02*
D03*
X159536Y512326D02*
D03*
X152450D02*
D03*
X211517D02*
D03*
X204431D02*
D03*
X263498D02*
D03*
X256412D02*
D03*
X159536Y466644D02*
D03*
X152450D02*
D03*
X211517D02*
D03*
X204431D02*
D03*
X263498D02*
D03*
X256412D02*
D03*
X159536Y420962D02*
D03*
X152450D02*
D03*
X211517D02*
D03*
X204431D02*
D03*
X263498D02*
D03*
X256412D02*
D03*
X152450Y375281D02*
D03*
X159536D02*
D03*
X211517D02*
D03*
X204431D02*
D03*
X263498D02*
D03*
X256412D02*
D03*
X159536Y329599D02*
D03*
X152450D02*
D03*
X211517D02*
D03*
X204431D02*
D03*
X263498D02*
D03*
X256412D02*
D03*
X159536Y283917D02*
D03*
X152450D02*
D03*
X211517D02*
D03*
X204431D02*
D03*
X263498D02*
D03*
X256412D02*
D03*
X159536Y238235D02*
D03*
X152450D02*
D03*
X211517D02*
D03*
X204431D02*
D03*
X263498D02*
D03*
X256412D02*
D03*
X159536Y192553D02*
D03*
X152450D02*
D03*
X211517D02*
D03*
X204431D02*
D03*
X263498D02*
D03*
X256412D02*
D03*
D26*
X376936Y699745D02*
D03*
X376932Y704745D02*
D03*
X376928Y709745D02*
D03*
X376925Y714745D02*
D03*
X376921Y719745D02*
D03*
X376917Y724745D02*
D03*
X376913Y729745D02*
D03*
X376909Y734745D02*
D03*
X396397Y734760D02*
D03*
X396401Y729760D02*
D03*
X396405Y724760D02*
D03*
X396409Y719760D02*
D03*
X396413Y714760D02*
D03*
X396416Y709760D02*
D03*
X396420Y704760D02*
D03*
X396424Y699760D02*
D03*
D27*
X352017Y173128D02*
D03*
X372017D02*
D03*
D28*
X362017Y213876D02*
D03*
D29*
X327692Y699819D02*
D03*
X327602Y704818D02*
D03*
X327512Y709817D02*
D03*
X327422Y714816D02*
D03*
X327332Y719815D02*
D03*
X327241Y724814D02*
D03*
X327151Y729814D02*
D03*
X327061Y734813D02*
D03*
X346546Y735164D02*
D03*
X346636Y730165D02*
D03*
X346726Y725166D02*
D03*
X346817Y720167D02*
D03*
X346907Y715167D02*
D03*
X346997Y710168D02*
D03*
X347087Y705169D02*
D03*
X347177Y700170D02*
D03*
D30*
X826790Y434449D02*
D03*
X826753Y431693D02*
D03*
D31*
X431693Y826772D02*
D03*
X434449Y826772D02*
D03*
Y39370D02*
D03*
X431693D02*
D03*
D32*
X628730Y774718D02*
D03*
X631113Y773333D02*
D03*
X237414Y91427D02*
D03*
X235027Y92805D02*
D03*
D33*
Y773337D02*
D03*
X237414Y774715D02*
D03*
X631115Y92805D02*
D03*
X628728Y91427D02*
D03*
D34*
X92985Y630971D02*
D03*
X91329Y628768D02*
D03*
D35*
X39375Y431693D02*
D03*
X39364Y434449D02*
D03*
D36*
X92799Y235024D02*
D03*
X91432Y237417D02*
D03*
X773337Y631115D02*
D03*
X774715Y628728D02*
D03*
D37*
Y237414D02*
D03*
X773337Y235027D02*
D03*
D65*
X485810Y176798D02*
D03*
X495810Y138657D02*
D03*
D66*
Y176798D02*
D03*
X435810Y138657D02*
D03*
X445810D02*
D03*
X455810D02*
D03*
X465810D02*
D03*
X485810D02*
D03*
X475810D02*
D03*
D67*
X59054Y435862D02*
D03*
X554477Y333983D02*
D03*
X550899Y536729D02*
D03*
X311665Y532159D02*
D03*
X315238Y329706D02*
D03*
X807203Y429737D02*
D03*
X110563Y622494D02*
D03*
X107764Y248478D02*
D03*
X243643Y110556D02*
D03*
X430280Y59055D02*
D03*
X617659Y107772D02*
D03*
X755579Y243648D02*
D03*
X758377Y617664D02*
D03*
X622498Y755586D02*
D03*
X435862Y807087D02*
D03*
X248482Y758370D02*
D03*
M02*
