G04*
G04 #@! TF.GenerationSoftware,Altium Limited,Altium Designer,20.2.3 (150)*
G04*
G04 Layer_Color=32768*
%FSLAX25Y25*%
%MOIN*%
G70*
G04*
G04 #@! TF.SameCoordinates,FEBEBD62-9BCC-4C60-8B63-8EF99F169A48*
G04*
G04*
G04 #@! TF.FilePolarity,Positive*
G04*
G01*
G75*
%ADD94C,0.00394*%
%ADD95C,0.00197*%
D94*
X736267Y405912D02*
Y413392D01*
X720519Y405912D02*
Y413392D01*
Y405912D02*
X736267D01*
X720519Y413392D02*
X736267D01*
X726425Y409652D02*
X730362D01*
X728393Y407683D02*
Y411620D01*
X696884Y405912D02*
Y413392D01*
X681136Y405912D02*
Y413392D01*
Y405912D02*
X696884D01*
X681136Y413392D02*
X696884D01*
X687042Y409652D02*
X690979D01*
X689010Y407683D02*
Y411620D01*
X657502Y405912D02*
Y413392D01*
X641754Y405912D02*
Y413392D01*
Y405912D02*
X657502D01*
X641754Y413392D02*
X657502D01*
X647659Y409652D02*
X651596D01*
X649628Y407683D02*
Y411620D01*
X618119Y405912D02*
Y413392D01*
X602371Y405912D02*
Y413392D01*
Y405912D02*
X618119D01*
X602371Y413392D02*
X618119D01*
X608277Y409652D02*
X612214D01*
X610245Y407683D02*
Y411620D01*
X736267Y437027D02*
Y444507D01*
X720519Y437027D02*
Y444507D01*
Y437027D02*
X736267D01*
X720519Y444507D02*
X736267D01*
X726424Y440767D02*
X730361D01*
X728393Y438798D02*
Y442735D01*
X696884Y437027D02*
Y444507D01*
X681136Y437027D02*
Y444507D01*
Y437027D02*
X696884D01*
X681136Y444507D02*
X696884D01*
X687042Y440767D02*
X690979D01*
X689010Y438798D02*
Y442735D01*
X657501Y437027D02*
Y444507D01*
X641753Y437027D02*
Y444507D01*
Y437027D02*
X657501D01*
X641753Y444507D02*
X657501D01*
X647659Y440767D02*
X651596D01*
X649627Y438798D02*
Y442735D01*
X618119Y437027D02*
Y444507D01*
X602371Y437027D02*
Y444507D01*
Y437027D02*
X618119D01*
X602371Y444507D02*
X618119D01*
X608277Y440767D02*
X612214D01*
X610245Y438798D02*
Y442735D01*
X736267Y468141D02*
Y475622D01*
X720519Y468141D02*
Y475622D01*
Y468141D02*
X736267D01*
X720519Y475622D02*
X736267D01*
X726425Y471882D02*
X730362D01*
X728393Y469913D02*
Y473850D01*
X696884Y468141D02*
Y475622D01*
X681136Y468141D02*
Y475622D01*
Y468141D02*
X696884D01*
X681136Y475622D02*
X696884D01*
X687042Y471882D02*
X690979D01*
X689010Y469913D02*
Y473850D01*
X657502Y468141D02*
Y475622D01*
X641754Y468141D02*
Y475622D01*
Y468141D02*
X657502D01*
X641754Y475622D02*
X657502D01*
X647659Y471882D02*
X651596D01*
X649628Y469913D02*
Y473850D01*
X618119Y468142D02*
Y475622D01*
X602371Y468142D02*
Y475622D01*
Y468142D02*
X618119D01*
X602371Y475622D02*
X618119D01*
X608277Y471882D02*
X612214D01*
X610245Y469913D02*
Y473850D01*
X736267Y499257D02*
Y506737D01*
X720519Y499257D02*
Y506737D01*
Y499257D02*
X736267D01*
X720519Y506737D02*
X736267D01*
X726425Y502997D02*
X730362D01*
X728393Y501028D02*
Y504965D01*
X696884Y499257D02*
Y506737D01*
X681136Y499257D02*
Y506737D01*
Y499257D02*
X696884D01*
X681136Y506737D02*
X696884D01*
X687042Y502997D02*
X690979D01*
X689010Y501028D02*
Y504965D01*
X657502Y499257D02*
Y506737D01*
X641754Y499257D02*
Y506737D01*
Y499257D02*
X657502D01*
X641754Y506737D02*
X657502D01*
X647659Y502997D02*
X651596D01*
X649628Y501028D02*
Y504965D01*
X618119Y499257D02*
Y506737D01*
X602371Y499257D02*
Y506737D01*
Y499257D02*
X618119D01*
X602371Y506737D02*
X618119D01*
X608277Y502997D02*
X612214D01*
X610245Y501028D02*
Y504965D01*
X736267Y530372D02*
Y537852D01*
X720519Y530372D02*
Y537852D01*
Y530372D02*
X736267D01*
X720519Y537852D02*
X736267D01*
X726424Y534112D02*
X730361D01*
X728393Y532143D02*
Y536080D01*
X696884Y530372D02*
Y537852D01*
X681136Y530372D02*
Y537852D01*
Y530372D02*
X696884D01*
X681136Y537852D02*
X696884D01*
X687042Y534112D02*
X690979D01*
X689010Y532143D02*
Y536080D01*
X657501Y530372D02*
Y537852D01*
X641753Y530372D02*
Y537852D01*
Y530372D02*
X657501D01*
X641753Y537852D02*
X657501D01*
X647659Y534112D02*
X651596D01*
X649627Y532143D02*
Y536080D01*
X618119Y530372D02*
Y537852D01*
X602371Y530372D02*
Y537852D01*
Y530372D02*
X618119D01*
X602371Y537852D02*
X618119D01*
X608276Y534112D02*
X612213D01*
X610245Y532143D02*
Y536080D01*
X736267Y561486D02*
Y568967D01*
X720519Y561486D02*
Y568967D01*
Y561486D02*
X736267D01*
X720519Y568967D02*
X736267D01*
X726425Y565226D02*
X730362D01*
X728393Y563258D02*
Y567195D01*
X696884Y561486D02*
Y568967D01*
X681136Y561486D02*
Y568967D01*
Y561486D02*
X696884D01*
X681136Y568967D02*
X696884D01*
X687042Y565226D02*
X690979D01*
X689010Y563258D02*
Y567195D01*
X155993Y647403D02*
Y651340D01*
X154024Y649372D02*
X157961D01*
X149103Y645632D02*
X162883D01*
X149103Y653112D02*
X162883D01*
Y645632D02*
Y653112D01*
X149103Y645632D02*
Y653112D01*
X207974Y647403D02*
Y651340D01*
X206006Y649372D02*
X209943Y649372D01*
X201084Y645632D02*
X214864D01*
X201084Y653112D02*
X214864D01*
X214864Y645632D01*
X201084D02*
Y653112D01*
X259955Y647403D02*
Y651340D01*
X257987Y649372D02*
X261924D01*
X253065Y645632D02*
X266845D01*
X253065Y653112D02*
X266845D01*
Y645632D02*
Y653112D01*
X253065Y645632D02*
Y653112D01*
X155993Y601721D02*
Y605659D01*
X154024Y603690D02*
X157961D01*
X149103Y599950D02*
X162883D01*
X149103Y607430D02*
X162883D01*
Y599950D02*
Y607430D01*
X149103Y599950D02*
Y607430D01*
X207974Y601721D02*
Y605659D01*
X206006Y603690D02*
X209943D01*
X201084Y599950D02*
X214864D01*
X201084Y607430D02*
X214864D01*
Y599950D02*
Y607430D01*
X201084Y599950D02*
Y607430D01*
X259955Y601722D02*
Y605659D01*
X257987Y603690D02*
X261924D01*
X253065Y599950D02*
X266845D01*
X253065Y607430D02*
X266845D01*
Y599950D02*
Y607430D01*
X253065Y599950D02*
Y607430D01*
X155993Y556039D02*
Y559977D01*
X154024Y558008D02*
X157961D01*
X149103Y554268D02*
X162883D01*
X149103Y561748D02*
X162883D01*
Y554268D02*
Y561748D01*
X149103Y554268D02*
Y561748D01*
X207974Y556040D02*
Y559977D01*
X206006Y558008D02*
X209943D01*
X201084Y554268D02*
X214864D01*
X201084Y561748D02*
X214864D01*
Y554268D02*
Y561748D01*
X201084Y554268D02*
Y561748D01*
X259955Y556039D02*
Y559977D01*
X257987Y558008D02*
X261924D01*
X253065Y554268D02*
X266845D01*
X253065Y561748D02*
X266845D01*
Y554268D02*
Y561748D01*
X253065Y554268D02*
Y561748D01*
X155993Y510358D02*
Y514295D01*
X154024Y512326D02*
X157961D01*
X149103Y508586D02*
X162883D01*
X149103Y516066D02*
X162883D01*
Y508586D02*
Y516066D01*
X149103Y508586D02*
Y516066D01*
X207974Y510358D02*
Y514295D01*
X206006Y512326D02*
X209943D01*
X201084Y508586D02*
X214864D01*
X201084Y516066D02*
X214864D01*
Y508586D02*
Y516066D01*
X201084Y508586D02*
Y516066D01*
X259955Y510358D02*
Y514295D01*
X257987Y512326D02*
X261924D01*
X253065Y508586D02*
X266845D01*
X253065Y516066D02*
X266845D01*
Y508586D02*
Y516066D01*
X253065Y508586D02*
Y516066D01*
X155993Y464676D02*
Y468613D01*
X154024Y466644D02*
X157961D01*
X149103Y462904D02*
X162883D01*
X149103Y470384D02*
X162883D01*
Y462904D02*
Y470384D01*
X149103Y462904D02*
Y470384D01*
X207974Y464676D02*
Y468613D01*
X206006Y466644D02*
X209943D01*
X201084Y462904D02*
X214864D01*
X201084Y470384D02*
X214864D01*
Y462904D02*
Y470384D01*
X201084Y462904D02*
Y470384D01*
X259955Y464676D02*
Y468613D01*
X257987Y466644D02*
X261924D01*
X253065Y462904D02*
X266845D01*
X253065Y470384D02*
X266845D01*
Y462904D02*
Y470384D01*
X253065Y462904D02*
Y470384D01*
X155993Y418994D02*
Y422931D01*
X154024Y420962D02*
X157961D01*
X149103Y417222D02*
X162883D01*
X149103Y424703D02*
X162883D01*
Y417222D02*
Y424703D01*
X149103Y417222D02*
Y424703D01*
X207974Y418994D02*
Y422931D01*
X206006Y420962D02*
X209943D01*
X201084Y417222D02*
X214864D01*
X201084Y424703D02*
X214864D01*
Y417222D02*
Y424703D01*
X201084Y417222D02*
Y424703D01*
X259955Y418994D02*
Y422931D01*
X257987Y420962D02*
X261924D01*
X253065Y417222D02*
X266845D01*
X253065Y424703D02*
X266845D01*
Y417222D02*
Y424703D01*
X253065Y417222D02*
Y424703D01*
X155993Y373312D02*
Y377249D01*
X154024Y375281D02*
X157961D01*
X149103Y379021D02*
X162883D01*
X149103Y371540D02*
X162883D01*
X149103D02*
Y379021D01*
X162883Y371540D02*
Y379021D01*
X207974Y373312D02*
Y377249D01*
X206006Y375281D02*
X209943D01*
X201084Y371541D02*
X214864D01*
X201084Y379021D02*
X214864D01*
Y371541D02*
Y379021D01*
X201084Y371541D02*
Y379021D01*
X259955Y373312D02*
Y377249D01*
X257987Y375281D02*
X261924D01*
X253065Y371540D02*
X266845D01*
X253065Y379021D02*
X266845D01*
Y371540D02*
Y379021D01*
X253065Y371540D02*
Y379021D01*
X155993Y327630D02*
Y331567D01*
X154024Y329599D02*
X157961D01*
X149103Y325859D02*
X162883D01*
X149103Y333339D02*
X162883D01*
Y325859D02*
Y333339D01*
X149103Y325859D02*
Y333339D01*
X207974Y327630D02*
Y331567D01*
X206006Y329598D02*
X209943Y329599D01*
X201084Y325858D02*
X214864D01*
X201084Y333339D02*
X214864D01*
Y325858D02*
Y333339D01*
X201084Y325858D02*
Y333339D01*
X259955Y327630D02*
Y331567D01*
X257987Y329599D02*
X261924D01*
X253065Y325858D02*
X266845D01*
X253065Y333339D02*
X266845D01*
Y325858D02*
Y333339D01*
X253065Y325858D02*
Y333339D01*
X155993Y281948D02*
Y285885D01*
X154024Y283917D02*
X157961D01*
X149103Y280177D02*
X162883D01*
X149103Y287657D02*
X162883D01*
Y280177D02*
Y287657D01*
X149103Y280177D02*
Y287657D01*
X207974Y281948D02*
Y285885D01*
X206006Y283917D02*
X209943D01*
X201084Y280177D02*
X214864D01*
X201084Y287657D02*
X214864D01*
Y280177D02*
Y287657D01*
X201084Y280177D02*
Y287657D01*
X259955Y281948D02*
Y285885D01*
X257987Y283917D02*
X261924D01*
X253065Y280177D02*
X266845D01*
X253065Y287657D02*
X266845D01*
Y280177D02*
Y287657D01*
X253065Y280177D02*
Y287657D01*
X155993Y236266D02*
Y240203D01*
X154024Y238235D02*
X157961D01*
X149103Y234495D02*
X162883D01*
X149103Y241975D02*
X162883D01*
Y234495D02*
Y241975D01*
X149103Y234495D02*
Y241975D01*
X207974Y236266D02*
Y240203D01*
X206006Y238235D02*
X209943D01*
X201084Y234495D02*
X214864D01*
X201084Y241975D02*
X214864D01*
Y234495D02*
Y241975D01*
X201084Y234495D02*
Y241975D01*
X259955Y236266D02*
Y240203D01*
X257987Y238235D02*
X261924D01*
X253065Y234495D02*
X266845D01*
X253065Y241975D02*
X266845D01*
Y234495D02*
Y241975D01*
X253065Y234495D02*
Y241975D01*
X155993Y190584D02*
Y194522D01*
X154024Y192553D02*
X157961D01*
X149103Y188813D02*
X162883D01*
X149103Y196293D02*
X162883D01*
Y188813D02*
Y196293D01*
X149103Y188813D02*
Y196293D01*
X207974Y190585D02*
Y194522D01*
X206006Y192553D02*
X209943D01*
X201084Y188813D02*
X214864D01*
X201084Y196293D02*
X214864D01*
Y188813D02*
Y196293D01*
X201084Y188813D02*
Y196293D01*
X259955Y190584D02*
Y194522D01*
X257987Y192553D02*
X261924D01*
X253065Y188813D02*
X266845D01*
X253065Y196293D02*
X266845D01*
Y188813D02*
Y196293D01*
X253065Y188813D02*
Y196293D01*
X340167Y167420D02*
X383868D01*
X340167Y232380D02*
X383868D01*
X340167Y167420D02*
Y232380D01*
X383868Y167420D02*
Y232380D01*
X362017Y197931D02*
Y201868D01*
X360049Y199900D02*
X363986D01*
X826083Y433080D02*
X827461Y433062D01*
X826763Y432382D02*
X826781Y433760D01*
X827719Y430302D02*
X827793Y435813D01*
X825751Y430329D02*
X825825Y435840D01*
X827793Y435813D01*
X825751Y430329D02*
X827719Y430302D01*
X433071Y826083D02*
X433071Y827461D01*
X432382Y826772D02*
X433760D01*
X430315Y827756D02*
X435827D01*
X430315Y825788D02*
X435827D01*
X430315D02*
Y827756D01*
X435827Y825788D02*
Y827756D01*
X629575Y773430D02*
X630268Y774622D01*
X629326Y774372D02*
X630517Y773680D01*
X628034Y776262D02*
X632799Y773492D01*
X627044Y774560D02*
X631809Y771790D01*
X627044Y774560D02*
X628034Y776262D01*
X631809Y771790D02*
X632799Y773492D01*
X235876Y774623D02*
X236565Y773429D01*
X235624Y773681D02*
X236817Y774370D01*
X233342Y773500D02*
X238115Y776256D01*
X234326Y771796D02*
X239099Y774551D01*
X233342Y773500D02*
X234326Y771796D01*
X238115Y776256D02*
X239099Y774551D01*
X91607Y630284D02*
X92708Y629456D01*
X91743Y629319D02*
X92571Y630420D01*
X91288Y627075D02*
X94600Y631481D01*
X89715Y628258D02*
X93027Y632664D01*
X94600Y631481D01*
X89715Y628258D02*
X91288Y627075D01*
X38681Y433068D02*
X40059Y433074D01*
X39367Y433760D02*
X39373Y432382D01*
X38375Y435823D02*
X38396Y430311D01*
X40343Y435831D02*
X40365Y430319D01*
X38396Y430311D02*
X40365Y430319D01*
X38375Y435823D02*
X40343Y435831D01*
X91518Y235879D02*
X92714Y236562D01*
X91774Y236819D02*
X92458Y235622D01*
X89894Y238125D02*
X92628Y233339D01*
X91603Y239102D02*
X94337Y234316D01*
X92628Y233339D02*
X94337Y234316D01*
X89894Y238125D02*
X91603Y239102D01*
X235876Y91519D02*
X236565Y92713D01*
X235624Y92460D02*
X236817Y91771D01*
X233342Y92641D02*
X238115Y89886D01*
X234326Y94346D02*
X239099Y91590D01*
X238115Y89886D02*
X239099Y91590D01*
X233342Y92641D02*
X234326Y94346D01*
X433071Y38681D02*
Y40059D01*
X432382Y39370D02*
X433760Y39370D01*
X430315Y38386D02*
X435827D01*
X430315Y40354D02*
X435827D01*
Y38386D02*
Y40354D01*
X430315Y38386D02*
Y40354D01*
X629577Y92712D02*
X630266Y91519D01*
X629325Y91771D02*
X630518Y92460D01*
X628027Y89885D02*
X632800Y92641D01*
X627043Y91590D02*
X631816Y94346D01*
X632800Y92641D01*
X627043Y91590D02*
X628027Y89885D01*
X773429Y236565D02*
X774623Y235876D01*
X773681Y235624D02*
X774370Y236817D01*
X773500Y233342D02*
X776256Y238115D01*
X771796Y234326D02*
X774552Y239099D01*
X776256Y238115D01*
X771796Y234326D02*
X773500Y233342D01*
X773429Y629577D02*
X774623Y630266D01*
X773681Y630518D02*
X774370Y629325D01*
X773500Y632800D02*
X776256Y628027D01*
X771796Y631816D02*
X774552Y627043D01*
X771796Y631816D02*
X773500Y632800D01*
X774552Y627043D02*
X776256Y628027D01*
D95*
X547513Y164092D02*
Y165726D01*
X546765D02*
X547513D01*
X546765D02*
Y172813D01*
X547513D01*
Y174447D01*
X554679D01*
Y172813D02*
Y174447D01*
Y172813D02*
X555427D01*
Y165726D02*
Y172813D01*
X554679Y165726D02*
X555427D01*
X554679Y164092D02*
Y165726D01*
X547513Y164092D02*
X554679D01*
X546427Y270302D02*
Y291582D01*
X575600Y270302D02*
Y291582D01*
X546427D02*
X575600D01*
X546427Y270302D02*
X575600D01*
X629347Y209781D02*
X632930D01*
Y210785D01*
X640410D01*
Y206041D02*
Y210785D01*
Y206041D02*
X643993D01*
Y201750D02*
Y206041D01*
X640410Y201750D02*
X643993D01*
X640410Y197006D02*
Y201750D01*
X632930Y197006D02*
X640410D01*
X632930D02*
Y198010D01*
X629347D02*
X632930D01*
X629347D02*
Y202301D01*
X632930D01*
Y205490D01*
X629347D02*
X632930D01*
X629347D02*
Y209781D01*
X557490Y198010D02*
X561073D01*
X557490Y197006D02*
Y198010D01*
X550010Y197006D02*
X557490D01*
X550010D02*
Y201750D01*
X546427D02*
X550010D01*
X546427D02*
Y206041D01*
X550010D01*
Y210785D01*
X557490D01*
Y209781D02*
Y210785D01*
Y209781D02*
X561073D01*
Y205490D02*
Y209781D01*
X557490Y205490D02*
X561073D01*
X557490Y202301D02*
Y205490D01*
Y202301D02*
X561073D01*
Y198010D02*
Y202301D01*
X589340Y209781D02*
X592923D01*
Y210785D01*
X600403D01*
Y206041D02*
Y210785D01*
Y206041D02*
X603986D01*
Y201750D02*
Y206041D01*
X600403Y201750D02*
X603986D01*
X600403Y197006D02*
Y201750D01*
X592923Y197006D02*
X600403D01*
X592923D02*
Y198010D01*
X589340D02*
X592923D01*
X589340D02*
Y202301D01*
X592923D01*
Y205490D01*
X589340D02*
X592923D01*
X589340D02*
Y209781D01*
X547537Y233068D02*
Y236650D01*
X546533D02*
X547537D01*
X546533D02*
Y244131D01*
X551277D01*
Y247713D01*
X555568D01*
Y244131D02*
Y247713D01*
Y244131D02*
X560312D01*
Y236650D02*
Y244131D01*
X559308Y236650D02*
X560312D01*
X559308Y233068D02*
Y236650D01*
X555017Y233068D02*
X559308D01*
X555017D02*
Y236650D01*
X551828D02*
X555017D01*
X551828Y233068D02*
Y236650D01*
X547537Y233068D02*
X551828D01*
X683428Y197301D02*
Y210687D01*
X668743Y197301D02*
Y210687D01*
Y197301D02*
X683428D01*
X668743Y210687D02*
X683428D01*
X521725Y696769D02*
Y737714D01*
X550938Y696769D02*
Y737714D01*
X521725Y737714D02*
X550938Y737714D01*
X521725Y696769D02*
X550938D01*
X372045Y737714D02*
X372076Y696769D01*
X401257Y737736D02*
X401289Y696791D01*
X372045Y737714D02*
X401257Y737736D01*
X372076Y696769D02*
X401289Y696791D01*
X421938Y696769D02*
Y737714D01*
X451151Y696769D02*
Y737714D01*
X421938D02*
X451151D01*
X421938Y696769D02*
X451151D01*
X471832D02*
Y737714D01*
X501044Y696769D02*
Y737714D01*
X471832Y737714D02*
X501044Y737714D01*
X471832Y696769D02*
X501044D01*
X322146Y737697D02*
X322884Y696759D01*
X351354Y738224D02*
X352092Y697286D01*
X322146Y737697D02*
X351354Y738224D01*
X322884Y696759D02*
X352092Y697286D01*
X65254Y440958D02*
X65258Y425198D01*
X52852Y440955D02*
X65254Y440958D01*
X52852Y440955D02*
X52856Y425195D01*
X65258Y425198D01*
X552371Y321827D02*
X562501Y333900D01*
X553001Y341871D02*
X562501Y333900D01*
X542871Y329798D02*
X553001Y341871D01*
X542871Y329798D02*
X552371Y321827D01*
X552363Y544620D02*
X562510Y532561D01*
X542874Y536634D02*
X552363Y544620D01*
X542874Y536634D02*
X553022Y524576D01*
X562510Y532561D01*
X303640Y532242D02*
X313771Y544315D01*
X303640Y532242D02*
X313141Y524271D01*
X323271Y536343D01*
X313771Y544315D02*
X323271Y536343D01*
X303633Y333890D02*
X313763Y321818D01*
X323263Y329789D01*
X313133Y341862D02*
X323263Y329789D01*
X303633Y333890D02*
X313133Y341862D01*
X800995Y424652D02*
X801017Y440412D01*
X800995Y424652D02*
X813396Y424634D01*
X813419Y440394D01*
X801017Y440412D02*
X813419Y440394D01*
X110581Y610157D02*
X118482Y623793D01*
X107752Y630011D02*
X118482Y623793D01*
X99851Y616374D02*
X107752Y630011D01*
X99851Y616374D02*
X110581Y610157D01*
X110576Y255995D02*
X118476Y242358D01*
X99845Y249778D02*
X110576Y255995D01*
X99845Y249778D02*
X107746Y236141D01*
X118476Y242358D01*
X242320Y118471D02*
X255980Y110612D01*
X236135Y107721D02*
X242320Y118471D01*
X236135Y107721D02*
X249796Y99862D01*
X255980Y110612D01*
X425185Y65256D02*
X440945Y65255D01*
X425185Y52854D02*
X425185Y65256D01*
X425185Y52854D02*
X440945Y52854D01*
X440945Y65255D01*
X610151Y110606D02*
X623812Y118465D01*
X610151Y110606D02*
X616335Y99856D01*
X629996Y107715D01*
X623812Y118465D02*
X629996Y107715D01*
X747659Y242348D02*
X755560Y255985D01*
X747659Y242348D02*
X758390Y236131D01*
X766291Y249767D01*
X755560Y255985D02*
X766291Y249767D01*
X747665Y623783D02*
X755566Y610147D01*
X766297Y616364D01*
X758396Y630001D02*
X766297Y616364D01*
X747665Y623783D02*
X758396Y630001D01*
X610162Y755530D02*
X623822Y747671D01*
X630006Y758420D01*
X616346Y766280D02*
X630006Y758420D01*
X610162Y755530D02*
X616346Y766280D01*
X425197Y800886D02*
X440956Y800886D01*
X440957Y813287D01*
X425197Y813288D02*
X440957Y813287D01*
X425197Y800886D02*
X425197Y813288D01*
X242330Y747677D02*
X255990Y755536D01*
X249807Y766285D02*
X255990Y755536D01*
X236146Y758427D02*
X249807Y766285D01*
X236146Y758427D02*
X242330Y747677D01*
M02*
