G04*
G04 #@! TF.GenerationSoftware,Altium Limited,Altium Designer,20.2.3 (150)*
G04*
G04 Layer_Color=32896*
%FSLAX25Y25*%
%MOIN*%
G70*
G04*
G04 #@! TF.SameCoordinates,FEBEBD62-9BCC-4C60-8B63-8EF99F169A48*
G04*
G04*
G04 #@! TF.FilePolarity,Positive*
G04*
G01*
G75*
%ADD10C,0.00787*%
%ADD14C,0.00500*%
%ADD15C,0.01000*%
D10*
X52019Y428095D02*
G03*
X52019Y428095I197J-341D01*
G01*
X544249Y331846D02*
G03*
X544249Y331846I-224J324D01*
G01*
X550947Y526511D02*
G03*
X550947Y526511I-63J-389D01*
G01*
X322184Y533584D02*
G03*
X322184Y533584I-68J388D01*
G01*
X315231Y340705D02*
G03*
X315231Y340705I37J-392D01*
G01*
X813737Y438066D02*
G03*
X813737Y438066I318J-232D01*
G01*
X100972Y618876D02*
G03*
X100972Y618876I-392J33D01*
G01*
X106303Y238035D02*
G03*
X106303Y238035I-394J0D01*
G01*
X247259Y100190D02*
G03*
X247259Y100190I-1J394D01*
G01*
X438779Y52214D02*
G03*
X438779Y52214I-394J0D01*
G01*
X628457Y106044D02*
G03*
X628457Y106043I-360J-159D01*
G01*
X765480Y247618D02*
G03*
X765480Y247618I81J-385D01*
G01*
X759841Y628065D02*
G03*
X759841Y628065I391J42D01*
G01*
X619081Y765217D02*
G03*
X619081Y765217I-197J341D01*
G01*
X428150Y813927D02*
G03*
X428150Y813927I-394J0D01*
G01*
X238243Y760598D02*
G03*
X238243Y760598I-198J-340D01*
G01*
D14*
X53840Y426180D02*
X64273Y426182D01*
X53837Y439959D02*
X53840Y426180D01*
X53837Y439959D02*
X64270Y439962D01*
X64273Y426182D01*
X544258Y329920D02*
X552250Y323213D01*
X544258Y329920D02*
X553115Y340475D01*
X561107Y333769D01*
X552250Y323213D02*
X561107Y333769D01*
X553141Y525963D02*
X561123Y532681D01*
X544269Y536506D02*
X553141Y525963D01*
X544269Y536506D02*
X552251Y543224D01*
X561123Y532681D01*
X313892Y542928D02*
X321884Y536222D01*
X313027Y525666D02*
X321884Y536222D01*
X305035Y532373D02*
X313027Y525666D01*
X305035Y532373D02*
X313892Y542928D01*
X305019Y333769D02*
X313012Y340475D01*
X321869Y329920D01*
X313877Y323213D02*
X321869Y329920D01*
X305019Y333769D02*
X313877Y323213D01*
X802000Y439426D02*
X812433Y439411D01*
X812413Y425631D02*
X812433Y439411D01*
X801980Y425647D02*
X812413Y425631D01*
X801980Y425647D02*
X802000Y439426D01*
X101196Y616733D02*
X110223Y611502D01*
X101196Y616733D02*
X108104Y628655D01*
X117131Y623425D01*
X110223Y611502D02*
X117131Y623425D01*
X108104Y237486D02*
X117131Y242717D01*
X101196Y249409D02*
X108104Y237486D01*
X101196Y249409D02*
X110223Y254639D01*
X117131Y242717D01*
X249433Y101206D02*
X254636Y110249D01*
X237490Y108078D02*
X249433Y101206D01*
X237490Y108078D02*
X242692Y117121D01*
X254636Y110249D01*
X439960Y53838D02*
X439961Y64271D01*
X426181Y53839D02*
X439960Y53838D01*
X426181Y53839D02*
X426181Y64272D01*
X439961Y64271D01*
X623450Y117121D02*
X628652Y108077D01*
X616708Y101206D02*
X628652Y108077D01*
X611506Y110250D02*
X616708Y101206D01*
X611506Y110250D02*
X623450Y117121D01*
X755919Y254640D02*
X764946Y249409D01*
X758038Y237486D02*
X764946Y249409D01*
X749010Y242717D02*
X758038Y237486D01*
X749010Y242717D02*
X755919Y254640D01*
X749010Y623425D02*
X758038Y628655D01*
X764946Y616733D01*
X755919Y611502D02*
X764946Y616733D01*
X749010Y623425D02*
X755919Y611502D01*
X611505Y755892D02*
X616708Y764936D01*
X628652Y758064D01*
X623449Y749021D02*
X628652Y758064D01*
X611505Y755892D02*
X623449Y749021D01*
X426181Y801870D02*
X426181Y812304D01*
X439961Y812303D01*
X439960Y801870D02*
X439961Y812303D01*
X426181Y801870D02*
X439960Y801870D01*
X237490Y758064D02*
X242692Y749021D01*
X237490Y758064D02*
X249434Y764935D01*
X254636Y755892D01*
X242692Y749021D02*
X254636Y755892D01*
D15*
X557700Y547800D02*
Y553798D01*
X554701D01*
X553701Y552798D01*
Y550799D01*
X554701Y549799D01*
X557700D01*
X551702Y547800D02*
X549703D01*
X550702D01*
Y553798D01*
X551702Y552798D01*
X546704D02*
X545704Y553798D01*
X543705D01*
X542705Y552798D01*
Y551799D01*
X543705Y550799D01*
X542705Y549799D01*
Y548800D01*
X543705Y547800D01*
X545704D01*
X546704Y548800D01*
Y549799D01*
X545704Y550799D01*
X546704Y551799D01*
Y552798D01*
X545704Y550799D02*
X543705D01*
X557700Y345900D02*
Y351898D01*
X554701D01*
X553701Y350898D01*
Y348899D01*
X554701Y347899D01*
X557700D01*
X551702Y345900D02*
X549703D01*
X550702D01*
Y351898D01*
X551702Y350898D01*
X546704Y351898D02*
X542705D01*
Y350898D01*
X546704Y346900D01*
Y345900D01*
X319500D02*
Y351898D01*
X316501D01*
X315501Y350898D01*
Y348899D01*
X316501Y347899D01*
X319500D01*
X313502Y345900D02*
X311503D01*
X312502D01*
Y351898D01*
X313502Y350898D01*
X304505Y351898D02*
X306504Y350898D01*
X308504Y348899D01*
Y346900D01*
X307504Y345900D01*
X305504D01*
X304505Y346900D01*
Y347899D01*
X305504Y348899D01*
X308504D01*
X626000Y770600D02*
Y776598D01*
X623001D01*
X622001Y775598D01*
Y773599D01*
X623001Y772599D01*
X626000D01*
X620002Y770600D02*
X618003D01*
X619002D01*
Y776598D01*
X620002Y775598D01*
X611005Y776598D02*
X615004D01*
Y773599D01*
X613004Y774599D01*
X612005D01*
X611005Y773599D01*
Y771600D01*
X612005Y770600D01*
X614004D01*
X615004Y771600D01*
X441100Y817700D02*
Y823698D01*
X438101D01*
X437101Y822698D01*
Y820699D01*
X438101Y819699D01*
X441100D01*
X435102Y817700D02*
X433103D01*
X434102D01*
Y823698D01*
X435102Y822698D01*
X427105Y817700D02*
Y823698D01*
X430104Y820699D01*
X426105D01*
X251300Y770600D02*
Y776598D01*
X248301D01*
X247301Y775598D01*
Y773599D01*
X248301Y772599D01*
X251300D01*
X245302Y770600D02*
X243303D01*
X244302D01*
Y776598D01*
X245302Y775598D01*
X240304D02*
X239304Y776598D01*
X237304D01*
X236305Y775598D01*
Y774599D01*
X237304Y773599D01*
X238304D01*
X237304D01*
X236305Y772599D01*
Y771600D01*
X237304Y770600D01*
X239304D01*
X240304Y771600D01*
X114600Y633800D02*
Y639798D01*
X111601D01*
X110601Y638798D01*
Y636799D01*
X111601Y635799D01*
X114600D01*
X108602Y633800D02*
X106603D01*
X107602D01*
Y639798D01*
X108602Y638798D01*
X99605Y633800D02*
X103604D01*
X99605Y637799D01*
Y638798D01*
X100604Y639798D01*
X102604D01*
X103604Y638798D01*
X65400Y444100D02*
Y450098D01*
X62401D01*
X61401Y449098D01*
Y447099D01*
X62401Y446099D01*
X65400D01*
X59402Y444100D02*
X57403D01*
X58402D01*
Y450098D01*
X59402Y449098D01*
X54404Y444100D02*
X52404D01*
X53404D01*
Y450098D01*
X54404Y449098D01*
X114600Y259100D02*
Y265098D01*
X111601D01*
X110601Y264098D01*
Y262099D01*
X111601Y261099D01*
X114600D01*
X108602Y259100D02*
X106603D01*
X107602D01*
Y265098D01*
X108602Y264098D01*
X103604D02*
X102604Y265098D01*
X100604D01*
X99605Y264098D01*
Y260100D01*
X100604Y259100D01*
X102604D01*
X103604Y260100D01*
Y264098D01*
X314500Y547500D02*
Y553498D01*
X311501D01*
X310501Y552498D01*
Y550499D01*
X311501Y549499D01*
X314500D01*
X308502Y548500D02*
X307502Y547500D01*
X305503D01*
X304503Y548500D01*
Y552498D01*
X305503Y553498D01*
X307502D01*
X308502Y552498D01*
Y551499D01*
X307502Y550499D01*
X304503D01*
X246300Y121600D02*
Y127598D01*
X243301D01*
X242301Y126598D01*
Y124599D01*
X243301Y123599D01*
X246300D01*
X240302Y126598D02*
X239302Y127598D01*
X237303D01*
X236303Y126598D01*
Y125599D01*
X237303Y124599D01*
X236303Y123599D01*
Y122600D01*
X237303Y121600D01*
X239302D01*
X240302Y122600D01*
Y123599D01*
X239302Y124599D01*
X240302Y125599D01*
Y126598D01*
X239302Y124599D02*
X237303D01*
X436100Y68400D02*
Y74398D01*
X433101D01*
X432101Y73398D01*
Y71399D01*
X433101Y70399D01*
X436100D01*
X430102Y74398D02*
X426103D01*
Y73398D01*
X430102Y69400D01*
Y68400D01*
X621000Y121600D02*
Y127598D01*
X618001D01*
X617001Y126598D01*
Y124599D01*
X618001Y123599D01*
X621000D01*
X611003Y127598D02*
X613003Y126598D01*
X615002Y124599D01*
Y122600D01*
X614002Y121600D01*
X612003D01*
X611003Y122600D01*
Y123599D01*
X612003Y124599D01*
X615002D01*
X758500Y259100D02*
Y265098D01*
X755501D01*
X754501Y264098D01*
Y262099D01*
X755501Y261099D01*
X758500D01*
X748503Y265098D02*
X752502D01*
Y262099D01*
X750503Y263099D01*
X749503D01*
X748503Y262099D01*
Y260100D01*
X749503Y259100D01*
X751502D01*
X752502Y260100D01*
X811900Y443500D02*
Y449498D01*
X808901D01*
X807901Y448498D01*
Y446499D01*
X808901Y445499D01*
X811900D01*
X802903Y443500D02*
Y449498D01*
X805902Y446499D01*
X801903D01*
X758500Y633800D02*
Y639798D01*
X755501D01*
X754501Y638798D01*
Y636799D01*
X755501Y635799D01*
X758500D01*
X752502Y638798D02*
X751502Y639798D01*
X749503D01*
X748503Y638798D01*
Y637799D01*
X749503Y636799D01*
X750503D01*
X749503D01*
X748503Y635799D01*
Y634800D01*
X749503Y633800D01*
X751502D01*
X752502Y634800D01*
M02*
