G04*
G04 #@! TF.GenerationSoftware,Altium Limited,Altium Designer,20.2.3 (150)*
G04*
G04 Layer_Physical_Order=3*
G04 Layer_Color=16440176*
%FSLAX25Y25*%
%MOIN*%
G70*
G04*
G04 #@! TF.SameCoordinates,FEBEBD62-9BCC-4C60-8B63-8EF99F169A48*
G04*
G04*
G04 #@! TF.FilePolarity,Positive*
G04*
G01*
G75*
%ADD64C,0.01181*%
%ADD66C,0.05906*%
%ADD68C,0.02756*%
G36*
X446120Y864935D02*
X459158Y864343D01*
X472172Y863359D01*
X485150Y861982D01*
X498081Y860213D01*
X510952Y858055D01*
X523752Y855508D01*
X536470Y852577D01*
X549093Y849263D01*
X561610Y845568D01*
X574010Y841498D01*
X586282Y837055D01*
X598413Y832243D01*
X610394Y827067D01*
X622213Y821532D01*
X633860Y815642D01*
X645323Y809403D01*
X656592Y802820D01*
X667658Y795901D01*
X678509Y788650D01*
X689137Y781075D01*
X699531Y773182D01*
X709682Y764979D01*
X719580Y756473D01*
X729217Y747672D01*
X738584Y738584D01*
X747672Y729217D01*
X756473Y719580D01*
X764979Y709682D01*
X773182Y699531D01*
X781075Y689137D01*
X788650Y678509D01*
X795901Y667658D01*
X802820Y656592D01*
X809403Y645323D01*
X815642Y633860D01*
X821532Y622213D01*
X827067Y610394D01*
X832243Y598413D01*
X837055Y586282D01*
X841498Y574010D01*
X845568Y561610D01*
X849263Y549093D01*
X852577Y536470D01*
X855508Y523752D01*
X858055Y510952D01*
X860213Y498081D01*
X861982Y485150D01*
X863359Y472172D01*
X864343Y459158D01*
X864935Y446120D01*
X865132Y433071D01*
X864935Y420021D01*
X864343Y406984D01*
X863359Y393970D01*
X861982Y380992D01*
X860213Y368061D01*
X858055Y355190D01*
X855508Y342389D01*
X852577Y329672D01*
X849263Y317049D01*
X845568Y304531D01*
X841498Y292131D01*
X837055Y279860D01*
X832243Y267728D01*
X827067Y255748D01*
X821532Y243929D01*
X815642Y232282D01*
X809403Y220819D01*
X802820Y209549D01*
X795901Y198484D01*
X788650Y187632D01*
X781075Y177005D01*
X773182Y166611D01*
X764979Y156460D01*
X756473Y146562D01*
X747672Y136925D01*
X738584Y127558D01*
X729217Y118470D01*
X719580Y109669D01*
X709682Y101163D01*
X699531Y92960D01*
X689137Y85067D01*
X678509Y77492D01*
X667658Y70241D01*
X656592Y63321D01*
X645323Y56739D01*
X633860Y50500D01*
X622213Y44610D01*
X610394Y39075D01*
X598413Y33899D01*
X586282Y29087D01*
X574010Y24644D01*
X561610Y20573D01*
X549093Y16879D01*
X536470Y13565D01*
X523752Y10633D01*
X510952Y8087D01*
X498081Y5929D01*
X485150Y4160D01*
X472172Y2783D01*
X459158Y1798D01*
X446120Y1207D01*
X433071Y1010D01*
X420021Y1207D01*
X406984Y1798D01*
X393970Y2783D01*
X380992Y4160D01*
X368061Y5929D01*
X355190Y8087D01*
X342389Y10633D01*
X329672Y13565D01*
X317049Y16879D01*
X304531Y20573D01*
X292131Y24644D01*
X279860Y29087D01*
X267728Y33899D01*
X255748Y39075D01*
X243929Y44610D01*
X232282Y50500D01*
X220819Y56739D01*
X209549Y63321D01*
X198484Y70241D01*
X187632Y77492D01*
X177005Y85067D01*
X166611Y92960D01*
X156460Y101163D01*
X146562Y109669D01*
X136925Y118470D01*
X127558Y127558D01*
X118470Y136925D01*
X109669Y146562D01*
X101163Y156460D01*
X92960Y166611D01*
X85067Y177005D01*
X77492Y187632D01*
X70241Y198484D01*
X63321Y209549D01*
X56739Y220819D01*
X50500Y232282D01*
X44610Y243929D01*
X39075Y255748D01*
X33899Y267728D01*
X29087Y279860D01*
X24644Y292131D01*
X20573Y304531D01*
X16879Y317049D01*
X13565Y329672D01*
X10633Y342389D01*
X8087Y355190D01*
X5929Y368061D01*
X4160Y380992D01*
X2783Y393970D01*
X1798Y406984D01*
X1207Y420021D01*
X1010Y433071D01*
X1207Y446120D01*
X1798Y459158D01*
X2783Y472172D01*
X4160Y485150D01*
X5929Y498081D01*
X8087Y510952D01*
X10633Y523752D01*
X13565Y536470D01*
X16879Y549093D01*
X20573Y561610D01*
X24644Y574010D01*
X29087Y586282D01*
X33899Y598413D01*
X39075Y610394D01*
X44610Y622213D01*
X50500Y633860D01*
X56739Y645323D01*
X63321Y656592D01*
X70241Y667658D01*
X77492Y678509D01*
X85067Y689137D01*
X92960Y699531D01*
X101163Y709682D01*
X109669Y719580D01*
X118470Y729217D01*
X127558Y738584D01*
X136925Y747672D01*
X146562Y756473D01*
X156460Y764979D01*
X166611Y773182D01*
X177005Y781075D01*
X187632Y788650D01*
X198484Y795901D01*
X209549Y802820D01*
X220819Y809403D01*
X232282Y815642D01*
X243929Y821532D01*
X255748Y827067D01*
X267728Y832243D01*
X279860Y837055D01*
X292131Y841498D01*
X304531Y845568D01*
X317049Y849263D01*
X329672Y852577D01*
X342389Y855508D01*
X355190Y858055D01*
X368061Y860213D01*
X380992Y861982D01*
X393970Y863359D01*
X406984Y864343D01*
X420021Y864935D01*
X433071Y865132D01*
X446120Y864935D01*
D02*
G37*
%LPC*%
G36*
X410301Y819420D02*
X409379Y819237D01*
X408598Y818715D01*
X408076Y817933D01*
X407893Y817012D01*
X408076Y816090D01*
X408598Y815309D01*
X409379Y814787D01*
X410301Y814603D01*
X411223Y814787D01*
X412004Y815309D01*
X412526Y816090D01*
X412710Y817012D01*
X412526Y817933D01*
X412004Y818715D01*
X411223Y819237D01*
X410301Y819420D01*
D02*
G37*
G36*
X435862Y809094D02*
X435862Y809094D01*
X435862Y809094D01*
X435094Y808941D01*
X435094Y808941D01*
X435094Y808941D01*
X434702Y808679D01*
X434443Y808506D01*
X434443Y808506D01*
X434443Y808506D01*
X434270Y808247D01*
X434008Y807855D01*
X434008Y807855D01*
X434008Y807855D01*
X433855Y807087D01*
X433855Y807087D01*
X433855Y807087D01*
X434008Y806319D01*
X434008Y806319D01*
X434008Y806319D01*
X434270Y805927D01*
X434443Y805668D01*
X434443Y805668D01*
X434443Y805668D01*
X434702Y805494D01*
X435094Y805233D01*
X435094Y805233D01*
X435094Y805233D01*
X435862Y805080D01*
X435862Y805080D01*
X435862Y805080D01*
X436630Y805233D01*
X436630Y805233D01*
X436630Y805233D01*
X437022Y805494D01*
X437281Y805668D01*
X437281Y805668D01*
X437281Y805668D01*
X437455Y805927D01*
X437716Y806319D01*
X437716Y806319D01*
X437716Y806319D01*
X437869Y807087D01*
X437869Y807087D01*
X437869Y807087D01*
X437716Y807855D01*
X437716Y807855D01*
X437716Y807855D01*
X437455Y808247D01*
X437282Y808506D01*
X437281Y808506D01*
X437281Y808506D01*
X437022Y808679D01*
X436630Y808941D01*
X436630Y808941D01*
X436630Y808941D01*
X436321Y809003D01*
X435862Y809094D01*
D02*
G37*
G36*
X240400Y777123D02*
X239478Y776940D01*
X238697Y776418D01*
X238175Y775636D01*
X237991Y774715D01*
X238175Y773793D01*
X238697Y773012D01*
X239478Y772490D01*
X240400Y772306D01*
X241322Y772490D01*
X242103Y773012D01*
X242625Y773793D01*
X242809Y774715D01*
X242625Y775636D01*
X242103Y776418D01*
X241322Y776940D01*
X240400Y777123D01*
D02*
G37*
G36*
X622882Y772508D02*
X621960Y772325D01*
X621178Y771803D01*
X620656Y771022D01*
X620473Y770100D01*
X620656Y769178D01*
X621178Y768397D01*
X621960Y767875D01*
X622882Y767692D01*
X623803Y767875D01*
X624585Y768397D01*
X625107Y769178D01*
X625290Y770100D01*
X625107Y771022D01*
X624585Y771803D01*
X623803Y772325D01*
X622882Y772508D01*
D02*
G37*
G36*
X248482Y760377D02*
X248354Y760352D01*
X248223Y760360D01*
X247973Y760276D01*
X247714Y760224D01*
X247606Y760152D01*
X247482Y760110D01*
X247283Y759936D01*
X247063Y759789D01*
X246990Y759680D01*
X246892Y759594D01*
X246775Y759358D01*
X246628Y759138D01*
X246603Y759010D01*
X246545Y758892D01*
X246527Y758629D01*
X246475Y758370D01*
X246501Y758242D01*
X246492Y758111D01*
X246577Y757861D01*
X246628Y757602D01*
X246701Y757493D01*
X246743Y757369D01*
X246917Y757170D01*
X247063Y756951D01*
X247172Y756878D01*
X247258Y756780D01*
X247495Y756662D01*
X247714Y756516D01*
X247843Y756490D01*
X247960Y756432D01*
X248223Y756415D01*
X248482Y756363D01*
X248611Y756389D01*
X248741Y756380D01*
X248991Y756464D01*
X249251Y756516D01*
X249359Y756588D01*
X249483Y756630D01*
X249682Y756804D01*
X249902Y756951D01*
X249974Y757060D01*
X250073Y757146D01*
X250190Y757382D01*
X250337Y757602D01*
X250362Y757730D01*
X250420Y757847D01*
X250438Y758111D01*
X250489Y758370D01*
X250464Y758498D01*
X250473Y758629D01*
X250388Y758879D01*
X250337Y759138D01*
X250264Y759247D01*
X250222Y759371D01*
X250048Y759570D01*
X249902Y759789D01*
X249793Y759862D01*
X249707Y759960D01*
X249470Y760078D01*
X249251Y760224D01*
X249122Y760250D01*
X249005Y760308D01*
X248741Y760326D01*
X248482Y760377D01*
D02*
G37*
G36*
X402006Y763651D02*
X401085Y763468D01*
X400303Y762946D01*
X399781Y762164D01*
X399598Y761243D01*
X399781Y760321D01*
X400303Y759540D01*
X401085Y759018D01*
X402006Y758834D01*
X402928Y759018D01*
X403709Y759540D01*
X404231Y760321D01*
X404415Y761243D01*
X404231Y762164D01*
X403709Y762946D01*
X402928Y763468D01*
X402006Y763651D01*
D02*
G37*
G36*
X622498Y757593D02*
X622239Y757542D01*
X621976Y757524D01*
X621859Y757466D01*
X621730Y757441D01*
X621511Y757294D01*
X621274Y757177D01*
X621188Y757078D01*
X621079Y757005D01*
X620932Y756786D01*
X620759Y756587D01*
X620717Y756463D01*
X620644Y756354D01*
X620593Y756095D01*
X620508Y755845D01*
X620517Y755715D01*
X620491Y755586D01*
X620543Y755327D01*
X620561Y755064D01*
X620619Y754947D01*
X620644Y754818D01*
X620791Y754599D01*
X620908Y754362D01*
X621006Y754276D01*
X621079Y754167D01*
X621299Y754020D01*
X621497Y753847D01*
X621622Y753805D01*
X621730Y753732D01*
X621989Y753680D01*
X622239Y753596D01*
X622370Y753605D01*
X622498Y753579D01*
X622757Y753631D01*
X623021Y753648D01*
X623138Y753706D01*
X623267Y753732D01*
X623486Y753879D01*
X623723Y753996D01*
X623809Y754094D01*
X623918Y754167D01*
X624064Y754387D01*
X624238Y754585D01*
X624280Y754709D01*
X624353Y754818D01*
X624404Y755077D01*
X624489Y755327D01*
X624480Y755458D01*
X624506Y755586D01*
X624454Y755845D01*
X624436Y756109D01*
X624378Y756226D01*
X624353Y756354D01*
X624206Y756574D01*
X624089Y756810D01*
X623990Y756897D01*
X623918Y757005D01*
X623698Y757152D01*
X623499Y757326D01*
X623375Y757368D01*
X623267Y757441D01*
X623007Y757492D01*
X622757Y757577D01*
X622627Y757568D01*
X622498Y757593D01*
D02*
G37*
G36*
X552700Y752325D02*
Y750500D01*
X554525D01*
X554440Y750928D01*
X553914Y751714D01*
X553128Y752240D01*
X552700Y752325D01*
D02*
G37*
G36*
X551700D02*
X551272Y752240D01*
X550486Y751714D01*
X549960Y750928D01*
X549875Y750500D01*
X551700D01*
Y752325D01*
D02*
G37*
G36*
X554525Y749500D02*
X552700D01*
Y747675D01*
X553128Y747760D01*
X553914Y748286D01*
X554440Y749072D01*
X554525Y749500D01*
D02*
G37*
G36*
X551700D02*
X549875D01*
X549960Y749072D01*
X550486Y748286D01*
X551272Y747760D01*
X551700Y747675D01*
Y749500D01*
D02*
G37*
G36*
X242700Y746309D02*
X241778Y746125D01*
X240997Y745603D01*
X240475Y744822D01*
X240292Y743900D01*
X240475Y742978D01*
X240997Y742197D01*
X241778Y741675D01*
X242700Y741492D01*
X243622Y741675D01*
X244403Y742197D01*
X244925Y742978D01*
X245109Y743900D01*
X244925Y744822D01*
X244403Y745603D01*
X243622Y746125D01*
X242700Y746309D01*
D02*
G37*
G36*
X348117Y745122D02*
X347195Y744939D01*
X346414Y744416D01*
X345892Y743635D01*
X345708Y742713D01*
X345892Y741792D01*
X346414Y741010D01*
X347195Y740488D01*
X348117Y740305D01*
X349039Y740488D01*
X349820Y741010D01*
X350342Y741792D01*
X350525Y742713D01*
X350342Y743635D01*
X349820Y744416D01*
X349039Y744939D01*
X348117Y745122D01*
D02*
G37*
G36*
X237000Y741009D02*
X236078Y740825D01*
X235297Y740303D01*
X235232Y740206D01*
X176952D01*
X176952Y740206D01*
X176338Y740083D01*
X175817Y739735D01*
X175817Y739735D01*
X99054Y662972D01*
X98706Y662452D01*
X98584Y661837D01*
X98584Y661837D01*
Y256054D01*
X91664Y249135D01*
X91316Y248614D01*
X91193Y247999D01*
X91194Y247999D01*
Y233768D01*
X91096Y233703D01*
X90574Y232922D01*
X90391Y232000D01*
X90574Y231078D01*
X91096Y230297D01*
X91878Y229775D01*
X92799Y229591D01*
X93721Y229775D01*
X94502Y230297D01*
X95024Y231078D01*
X95208Y232000D01*
X95024Y232922D01*
X94502Y233703D01*
X94405Y233768D01*
Y247334D01*
X101324Y254254D01*
X101325Y254254D01*
X101673Y254775D01*
X101795Y255389D01*
X101795Y255389D01*
Y661172D01*
X177617Y736994D01*
X235232D01*
X235297Y736897D01*
X236078Y736375D01*
X237000Y736192D01*
X237922Y736375D01*
X238703Y736897D01*
X239225Y737678D01*
X239408Y738600D01*
X239225Y739522D01*
X238703Y740303D01*
X237922Y740825D01*
X237000Y741009D01*
D02*
G37*
G36*
X308131Y737828D02*
X307209Y737644D01*
X306428Y737122D01*
X305906Y736341D01*
X305722Y735419D01*
X305906Y734498D01*
X306428Y733716D01*
X307209Y733194D01*
X308131Y733011D01*
X309052Y733194D01*
X309834Y733716D01*
X310356Y734498D01*
X310539Y735419D01*
X310356Y736341D01*
X309834Y737122D01*
X309052Y737644D01*
X308131Y737828D01*
D02*
G37*
G36*
X338235Y758618D02*
X337314Y758435D01*
X336532Y757913D01*
X336010Y757132D01*
X335827Y756210D01*
X336010Y755288D01*
X336532Y754507D01*
X336692Y754400D01*
Y736891D01*
X336657Y736868D01*
X336135Y736087D01*
X335951Y735165D01*
X336135Y734243D01*
X336657Y733462D01*
X337438Y732940D01*
X338360Y732756D01*
X339281Y732940D01*
X340063Y733462D01*
X340585Y734243D01*
X340768Y735165D01*
X340585Y736087D01*
X340063Y736868D01*
X339903Y736974D01*
Y754483D01*
X339938Y754507D01*
X340460Y755288D01*
X340644Y756210D01*
X340460Y757132D01*
X339938Y757913D01*
X339157Y758435D01*
X338235Y758618D01*
D02*
G37*
G36*
X332838Y737221D02*
X331916Y737038D01*
X331135Y736516D01*
X330613Y735735D01*
X330429Y734813D01*
X330613Y733891D01*
X331135Y733110D01*
X331916Y732588D01*
X332838Y732404D01*
X333759Y732588D01*
X334541Y733110D01*
X335063Y733891D01*
X335246Y734813D01*
X335063Y735735D01*
X334541Y736516D01*
X333759Y737038D01*
X332838Y737221D01*
D02*
G37*
G36*
X440147Y732158D02*
X440147Y732158D01*
X419377D01*
X419377Y732158D01*
X418762Y732036D01*
X418242Y731688D01*
X418242Y731688D01*
X414581Y728027D01*
X414232Y727506D01*
X414110Y726892D01*
X414110Y726892D01*
Y716906D01*
X413610Y716638D01*
X413091Y716985D01*
X412170Y717169D01*
X411248Y716985D01*
X410467Y716463D01*
X410401Y716366D01*
X338609D01*
X337995Y716243D01*
X337474Y715895D01*
X256888Y635309D01*
X256773Y635332D01*
X255851Y635148D01*
X255069Y634626D01*
X254547Y633845D01*
X254364Y632923D01*
X254547Y632002D01*
X255069Y631220D01*
X255851Y630698D01*
X256773Y630515D01*
X257694Y630698D01*
X258476Y631220D01*
X258998Y632002D01*
X259181Y632923D01*
X259158Y633038D01*
X339274Y713154D01*
X410401D01*
X410467Y713057D01*
X410914Y712758D01*
X410980Y712147D01*
X410917Y712058D01*
X356823D01*
X356322Y712393D01*
X355400Y712577D01*
X354478Y712393D01*
X353697Y711871D01*
X353175Y711090D01*
X352992Y710168D01*
X353175Y709246D01*
X353697Y708465D01*
X354478Y707943D01*
X355400Y707760D01*
X356322Y707943D01*
X357103Y708465D01*
X357358Y708847D01*
X361346D01*
X361560Y708347D01*
X361391Y707500D01*
X361575Y706578D01*
X362097Y705797D01*
X362878Y705275D01*
X363800Y705091D01*
X364722Y705275D01*
X365503Y705797D01*
X366025Y706578D01*
X366209Y707500D01*
X366040Y708347D01*
X366254Y708847D01*
X412038D01*
X412038Y708847D01*
X412653Y708969D01*
X413174Y709317D01*
X416851Y712995D01*
X416851Y712995D01*
X417199Y713516D01*
X417322Y714130D01*
X417322Y714131D01*
Y726227D01*
X417912Y726817D01*
X418417Y726615D01*
X418897Y725897D01*
X419678Y725375D01*
X420600Y725191D01*
X421522Y725375D01*
X422303Y725897D01*
X422825Y726678D01*
X423008Y727600D01*
X422840Y728447D01*
X423054Y728947D01*
X439482D01*
X450614Y717815D01*
X450592Y717700D01*
X450775Y716778D01*
X451297Y715997D01*
X452078Y715475D01*
X453000Y715292D01*
X453922Y715475D01*
X454703Y715997D01*
X455225Y716778D01*
X455408Y717700D01*
X455225Y718622D01*
X454703Y719403D01*
X453922Y719925D01*
X453000Y720109D01*
X452885Y720086D01*
X441283Y731688D01*
X440762Y732036D01*
X440660Y732057D01*
X440147Y732158D01*
D02*
G37*
G36*
X457060Y732206D02*
X456138Y732022D01*
X455357Y731500D01*
X454835Y730719D01*
X454651Y729797D01*
X454835Y728876D01*
X455357Y728094D01*
X456138Y727572D01*
X457060Y727389D01*
X457981Y727572D01*
X458763Y728094D01*
X459285Y728876D01*
X459468Y729797D01*
X459285Y730719D01*
X458763Y731500D01*
X457981Y732022D01*
X457060Y732206D01*
D02*
G37*
G36*
X337500Y727525D02*
Y725700D01*
X339325D01*
X339240Y726128D01*
X338714Y726914D01*
X337928Y727440D01*
X337500Y727525D01*
D02*
G37*
G36*
X336500D02*
X336072Y727440D01*
X335286Y726914D01*
X334760Y726128D01*
X334675Y725700D01*
X336500D01*
Y727525D01*
D02*
G37*
G36*
X552700Y725425D02*
Y723600D01*
X554525D01*
X554440Y724028D01*
X553914Y724814D01*
X553128Y725340D01*
X552700Y725425D01*
D02*
G37*
G36*
X551700D02*
X551272Y725340D01*
X550486Y724814D01*
X549960Y724028D01*
X549875Y723600D01*
X551700D01*
Y725425D01*
D02*
G37*
G36*
X339325Y724700D02*
X337500D01*
Y722875D01*
X337928Y722960D01*
X338714Y723486D01*
X339240Y724272D01*
X339325Y724700D01*
D02*
G37*
G36*
X336500D02*
X334675D01*
X334760Y724272D01*
X335286Y723486D01*
X336072Y722960D01*
X336500Y722875D01*
Y724700D01*
D02*
G37*
G36*
X554525Y722600D02*
X552700D01*
Y720775D01*
X553128Y720860D01*
X553914Y721386D01*
X554440Y722172D01*
X554525Y722600D01*
D02*
G37*
G36*
X551700D02*
X549875D01*
X549960Y722172D01*
X550486Y721386D01*
X551272Y720860D01*
X551700Y720775D01*
Y722600D01*
D02*
G37*
G36*
X390652Y766412D02*
X389730Y766228D01*
X388949Y765706D01*
X388427Y764925D01*
X388243Y764003D01*
X388427Y763082D01*
X388949Y762300D01*
X389046Y762235D01*
Y721528D01*
X388949Y721463D01*
X388427Y720682D01*
X388243Y719760D01*
X388427Y718838D01*
X388949Y718057D01*
X389730Y717535D01*
X390652Y717351D01*
X391574Y717535D01*
X392355Y718057D01*
X392877Y718838D01*
X393060Y719760D01*
X392877Y720682D01*
X392355Y721463D01*
X392257Y721528D01*
Y762235D01*
X392355Y762300D01*
X392877Y763082D01*
X393060Y764003D01*
X392877Y764925D01*
X392355Y765706D01*
X391574Y766228D01*
X390652Y766412D01*
D02*
G37*
G36*
X501900Y722150D02*
X500978Y721967D01*
X500197Y721445D01*
X499675Y720663D01*
X499492Y719742D01*
X499675Y718820D01*
X500197Y718039D01*
X500978Y717517D01*
X501900Y717333D01*
X502822Y717517D01*
X503603Y718039D01*
X504125Y718820D01*
X504309Y719742D01*
X504125Y720663D01*
X503603Y721445D01*
X502822Y721967D01*
X501900Y722150D01*
D02*
G37*
G36*
X552700Y716425D02*
Y714600D01*
X554525D01*
X554440Y715028D01*
X553914Y715814D01*
X553128Y716340D01*
X552700Y716425D01*
D02*
G37*
G36*
X551700D02*
X551272Y716340D01*
X550486Y715814D01*
X549960Y715028D01*
X549875Y714600D01*
X551700D01*
Y716425D01*
D02*
G37*
G36*
X438000Y717150D02*
X437078Y716967D01*
X436297Y716445D01*
X435775Y715664D01*
X435592Y714742D01*
X435775Y713820D01*
X436297Y713039D01*
X437078Y712517D01*
X438000Y712333D01*
X438922Y712517D01*
X439703Y713039D01*
X440225Y713820D01*
X440409Y714742D01*
X440225Y715664D01*
X439703Y716445D01*
X438922Y716967D01*
X438000Y717150D01*
D02*
G37*
G36*
X421000D02*
X420078Y716967D01*
X419297Y716445D01*
X418775Y715664D01*
X418591Y714742D01*
X418775Y713820D01*
X419297Y713039D01*
X420078Y712517D01*
X421000Y712333D01*
X421922Y712517D01*
X422703Y713039D01*
X423225Y713820D01*
X423409Y714742D01*
X423225Y715664D01*
X422703Y716445D01*
X421922Y716967D01*
X421000Y717150D01*
D02*
G37*
G36*
X554525Y713600D02*
X552700D01*
Y711775D01*
X553128Y711860D01*
X553914Y712386D01*
X554440Y713172D01*
X554525Y713600D01*
D02*
G37*
G36*
X551700D02*
X549875D01*
X549960Y713172D01*
X550486Y712386D01*
X551272Y711860D01*
X551700Y711775D01*
Y713600D01*
D02*
G37*
G36*
X433056Y712067D02*
Y710242D01*
X434881D01*
X434796Y710670D01*
X434271Y711456D01*
X433484Y711982D01*
X433056Y712067D01*
D02*
G37*
G36*
X432056D02*
X431628Y711982D01*
X430842Y711456D01*
X430316Y710670D01*
X430231Y710242D01*
X432056D01*
Y712067D01*
D02*
G37*
G36*
X314588Y714780D02*
X313667Y714596D01*
X312885Y714074D01*
X312363Y713293D01*
X312180Y712371D01*
X312363Y711449D01*
X312885Y710668D01*
X313667Y710146D01*
X314588Y709963D01*
X315510Y710146D01*
X316291Y710668D01*
X316813Y711449D01*
X316997Y712371D01*
X316813Y713293D01*
X316291Y714074D01*
X315510Y714596D01*
X314588Y714780D01*
D02*
G37*
G36*
X511900Y714650D02*
X510978Y714467D01*
X510197Y713945D01*
X509675Y713164D01*
X509491Y712242D01*
X509675Y711320D01*
X510197Y710539D01*
X510978Y710017D01*
X511900Y709833D01*
X512822Y710017D01*
X513603Y710539D01*
X514125Y711320D01*
X514309Y712242D01*
X514125Y713164D01*
X513603Y713945D01*
X512822Y714467D01*
X511900Y714650D01*
D02*
G37*
G36*
X434881Y709242D02*
X433056D01*
Y707417D01*
X433484Y707502D01*
X434271Y708028D01*
X434796Y708814D01*
X434881Y709242D01*
D02*
G37*
G36*
X432056D02*
X430231D01*
X430316Y708814D01*
X430842Y708028D01*
X431628Y707502D01*
X432056Y707417D01*
Y709242D01*
D02*
G37*
G36*
X472583Y709242D02*
X470758D01*
Y707417D01*
X471186Y707502D01*
X471973Y708027D01*
X472498Y708814D01*
X472583Y709242D01*
D02*
G37*
G36*
X469758D02*
X467933D01*
X468018Y708814D01*
X468544Y708027D01*
X469330Y707502D01*
X469758Y707417D01*
Y709242D01*
D02*
G37*
G36*
X452300Y708109D02*
X451378Y707925D01*
X450597Y707403D01*
X450075Y706622D01*
X449892Y705700D01*
X450075Y704778D01*
X450597Y703997D01*
X451378Y703475D01*
X452300Y703292D01*
X453222Y703475D01*
X454003Y703997D01*
X454525Y704778D01*
X454708Y705700D01*
X454525Y706622D01*
X454003Y707403D01*
X453222Y707925D01*
X452300Y708109D01*
D02*
G37*
G36*
X357900Y707578D02*
X356978Y707394D01*
X356197Y706872D01*
X355675Y706091D01*
X355491Y705169D01*
X355675Y704247D01*
X356197Y703466D01*
X356978Y702944D01*
X357900Y702761D01*
X358822Y702944D01*
X359603Y703466D01*
X360125Y704247D01*
X360309Y705169D01*
X360125Y706091D01*
X359603Y706872D01*
X358822Y707394D01*
X357900Y707578D01*
D02*
G37*
G36*
X436100Y707151D02*
X435178Y706967D01*
X434397Y706445D01*
X433875Y705664D01*
X433692Y704742D01*
X433875Y703820D01*
X434397Y703039D01*
X435178Y702517D01*
X436100Y702333D01*
X437022Y702517D01*
X437803Y703039D01*
X438325Y703820D01*
X438509Y704742D01*
X438325Y705664D01*
X437803Y706445D01*
X437022Y706967D01*
X436100Y707151D01*
D02*
G37*
G36*
X421000D02*
X420078Y706967D01*
X419297Y706445D01*
X418775Y705664D01*
X418591Y704742D01*
X418775Y703820D01*
X419297Y703039D01*
X420078Y702517D01*
X421000Y702333D01*
X421922Y702517D01*
X422703Y703039D01*
X423225Y703820D01*
X423409Y704742D01*
X423225Y705664D01*
X422703Y706445D01*
X421922Y706967D01*
X421000Y707151D01*
D02*
G37*
G36*
X465782Y706698D02*
X464860Y706514D01*
X464079Y705992D01*
X463557Y705211D01*
X463373Y704289D01*
X463557Y703367D01*
X464079Y702586D01*
X464860Y702064D01*
X465782Y701881D01*
X466704Y702064D01*
X467485Y702586D01*
X468007Y703367D01*
X468190Y704289D01*
X468007Y705211D01*
X467485Y705992D01*
X466704Y706514D01*
X465782Y706698D01*
D02*
G37*
G36*
X367400Y705441D02*
X366478Y705258D01*
X365697Y704736D01*
X365175Y703954D01*
X364991Y703033D01*
X365175Y702111D01*
X365697Y701330D01*
X366478Y700807D01*
X367400Y700624D01*
X368322Y700807D01*
X369103Y701330D01*
X369625Y702111D01*
X369809Y703033D01*
X369625Y703954D01*
X369103Y704736D01*
X368322Y705258D01*
X367400Y705441D01*
D02*
G37*
G36*
X470938Y704650D02*
X470016Y704467D01*
X469235Y703945D01*
X468713Y703163D01*
X468529Y702242D01*
X468713Y701320D01*
X469235Y700539D01*
X470016Y700017D01*
X470938Y699833D01*
X471860Y700017D01*
X472641Y700539D01*
X473163Y701320D01*
X473346Y702242D01*
X473163Y703163D01*
X472641Y703945D01*
X471860Y704467D01*
X470938Y704650D01*
D02*
G37*
G36*
X411020Y703308D02*
X410098Y703125D01*
X409317Y702603D01*
X408795Y701822D01*
X408611Y700900D01*
X408795Y699978D01*
X409317Y699197D01*
X410098Y698675D01*
X411020Y698491D01*
X411942Y698675D01*
X412723Y699197D01*
X413245Y699978D01*
X413428Y700900D01*
X413245Y701822D01*
X412723Y702603D01*
X411942Y703125D01*
X411020Y703308D01*
D02*
G37*
G36*
X463542Y701609D02*
X462620Y701425D01*
X461839Y700903D01*
X461317Y700122D01*
X461133Y699200D01*
X461317Y698278D01*
X461839Y697497D01*
X462620Y696975D01*
X463542Y696792D01*
X464464Y696975D01*
X465245Y697497D01*
X465767Y698278D01*
X465950Y699200D01*
X465767Y700122D01*
X465245Y700903D01*
X464464Y701425D01*
X463542Y701609D01*
D02*
G37*
G36*
X395700Y699208D02*
X394778Y699025D01*
X393997Y698503D01*
X393475Y697722D01*
X393291Y696800D01*
X393475Y695878D01*
X393997Y695097D01*
X394778Y694575D01*
X395700Y694391D01*
X396622Y694575D01*
X397403Y695097D01*
X397925Y695878D01*
X398109Y696800D01*
X397925Y697722D01*
X397403Y698503D01*
X396622Y699025D01*
X395700Y699208D01*
D02*
G37*
G36*
X342665D02*
X341743Y699025D01*
X340962Y698503D01*
X340440Y697722D01*
X340257Y696800D01*
X340440Y695878D01*
X340962Y695097D01*
X341743Y694575D01*
X342665Y694391D01*
X343587Y694575D01*
X344368Y695097D01*
X344890Y695878D01*
X345074Y696800D01*
X344890Y697722D01*
X344368Y698503D01*
X343587Y699025D01*
X342665Y699208D01*
D02*
G37*
G36*
X477400Y698509D02*
X476478Y698325D01*
X475697Y697803D01*
X475175Y697022D01*
X474992Y696100D01*
X475175Y695178D01*
X475697Y694397D01*
X476478Y693875D01*
X477400Y693691D01*
X478322Y693875D01*
X479103Y694397D01*
X479625Y695178D01*
X479809Y696100D01*
X479625Y697022D01*
X479103Y697803D01*
X478322Y698325D01*
X477400Y698509D01*
D02*
G37*
G36*
X322900Y687309D02*
X321978Y687125D01*
X321197Y686603D01*
X320675Y685822D01*
X320492Y684900D01*
X320514Y684785D01*
X194615Y558886D01*
X194500Y558909D01*
X193578Y558725D01*
X192797Y558203D01*
X192275Y557422D01*
X192092Y556500D01*
X192275Y555578D01*
X192797Y554797D01*
X193578Y554275D01*
X194500Y554092D01*
X195422Y554275D01*
X196203Y554797D01*
X196725Y555578D01*
X196908Y556500D01*
X196886Y556615D01*
X209953Y569682D01*
X210431Y569537D01*
X210483Y569278D01*
X211005Y568497D01*
X211786Y567975D01*
X212708Y567792D01*
X213630Y567975D01*
X214411Y568497D01*
X214933Y569278D01*
X215117Y570200D01*
X214933Y571122D01*
X214411Y571903D01*
X213630Y572425D01*
X213371Y572477D01*
X213226Y572955D01*
X322785Y682514D01*
X322900Y682491D01*
X323822Y682675D01*
X324603Y683197D01*
X325125Y683978D01*
X325308Y684900D01*
X325125Y685822D01*
X324603Y686603D01*
X323822Y687125D01*
X322900Y687309D01*
D02*
G37*
G36*
X505571Y666407D02*
X504649Y666224D01*
X503868Y665702D01*
X503346Y664921D01*
X503162Y663999D01*
X503346Y663077D01*
X503868Y662296D01*
X504649Y661774D01*
X505571Y661590D01*
X506492Y661774D01*
X507274Y662296D01*
X507796Y663077D01*
X507979Y663999D01*
X507796Y664921D01*
X507274Y665702D01*
X506492Y666224D01*
X505571Y666407D01*
D02*
G37*
G36*
X307230Y661883D02*
X306308Y661700D01*
X305527Y661178D01*
X305005Y660397D01*
X304821Y659475D01*
X305005Y658553D01*
X305527Y657772D01*
X306308Y657250D01*
X307230Y657066D01*
X308151Y657250D01*
X308933Y657772D01*
X309455Y658553D01*
X309638Y659475D01*
X309455Y660397D01*
X308933Y661178D01*
X308151Y661700D01*
X307230Y661883D01*
D02*
G37*
G36*
X89600Y661108D02*
X88678Y660925D01*
X87897Y660403D01*
X87375Y659622D01*
X87191Y658700D01*
X87375Y657778D01*
X87897Y656997D01*
X88678Y656475D01*
X89600Y656291D01*
X90522Y656475D01*
X91303Y656997D01*
X91825Y657778D01*
X92009Y658700D01*
X91825Y659622D01*
X91303Y660403D01*
X90522Y660925D01*
X89600Y661108D01*
D02*
G37*
G36*
X112953Y656357D02*
X112031Y656173D01*
X111250Y655651D01*
X110728Y654870D01*
X110544Y653948D01*
X110728Y653027D01*
X111250Y652245D01*
X112031Y651723D01*
X112953Y651540D01*
X113874Y651723D01*
X114656Y652245D01*
X115178Y653027D01*
X115361Y653948D01*
X115178Y654870D01*
X114656Y655651D01*
X113874Y656173D01*
X112953Y656357D01*
D02*
G37*
G36*
X219972Y651780D02*
X219050Y651597D01*
X218269Y651075D01*
X217747Y650293D01*
X217563Y649372D01*
X217747Y648450D01*
X218269Y647669D01*
X219050Y647147D01*
X219972Y646963D01*
X220894Y647147D01*
X221675Y647669D01*
X222197Y648450D01*
X222380Y649372D01*
X222197Y650293D01*
X221675Y651075D01*
X220894Y651597D01*
X219972Y651780D01*
D02*
G37*
G36*
X598500Y645625D02*
Y643800D01*
X600325D01*
X600240Y644228D01*
X599714Y645014D01*
X598928Y645540D01*
X598500Y645625D01*
D02*
G37*
G36*
X597500D02*
X597072Y645540D01*
X596286Y645014D01*
X595760Y644228D01*
X595675Y643800D01*
X597500D01*
Y645625D01*
D02*
G37*
G36*
X600325Y642800D02*
X598500D01*
Y640975D01*
X598928Y641060D01*
X599714Y641586D01*
X600240Y642372D01*
X600325Y642800D01*
D02*
G37*
G36*
X597500D02*
X595675D01*
X595760Y642372D01*
X596286Y641586D01*
X597072Y641060D01*
X597500Y640975D01*
Y642800D01*
D02*
G37*
G36*
X294262Y643444D02*
X293340Y643261D01*
X292559Y642739D01*
X292037Y641957D01*
X291854Y641036D01*
X292037Y640114D01*
X292559Y639332D01*
X293340Y638810D01*
X294262Y638627D01*
X295184Y638810D01*
X295965Y639332D01*
X296487Y640114D01*
X296671Y641036D01*
X296487Y641957D01*
X295965Y642739D01*
X295184Y643261D01*
X294262Y643444D01*
D02*
G37*
G36*
X773011Y638509D02*
X772089Y638325D01*
X771308Y637803D01*
X770786Y637022D01*
X770602Y636100D01*
X770786Y635178D01*
X771308Y634397D01*
X772089Y633875D01*
X773011Y633692D01*
X773932Y633875D01*
X774714Y634397D01*
X775236Y635178D01*
X775419Y636100D01*
X775236Y637022D01*
X774714Y637803D01*
X773932Y638325D01*
X773011Y638509D01*
D02*
G37*
G36*
X117447Y636926D02*
X116525Y636743D01*
X115744Y636221D01*
X115222Y635439D01*
X115038Y634518D01*
X115222Y633596D01*
X115744Y632815D01*
X116525Y632293D01*
X117447Y632109D01*
X118368Y632293D01*
X119150Y632815D01*
X119672Y633596D01*
X119855Y634518D01*
X119672Y635439D01*
X119150Y636221D01*
X118368Y636743D01*
X117447Y636926D01*
D02*
G37*
G36*
X110563Y624501D02*
X110307Y624450D01*
X110047Y624434D01*
X109926Y624374D01*
X109795Y624348D01*
X109578Y624203D01*
X109344Y624088D01*
X109255Y623988D01*
X109144Y623913D01*
X108999Y623696D01*
X108826Y623500D01*
X108783Y623373D01*
X108709Y623262D01*
X108658Y623006D01*
X108573Y622759D01*
X108582Y622625D01*
X108556Y622494D01*
X108607Y622238D01*
X108624Y621978D01*
X108683Y621857D01*
X108709Y621726D01*
X108854Y621509D01*
X108969Y621275D01*
X109069Y621186D01*
X109144Y621075D01*
X109361Y620930D01*
X109557Y620757D01*
X109684Y620714D01*
X109795Y620640D01*
X110051Y620589D01*
X110298Y620505D01*
X110432Y620513D01*
X110563Y620487D01*
X110819Y620538D01*
X111080Y620554D01*
X111200Y620614D01*
X111331Y620640D01*
X111548Y620785D01*
X111782Y620900D01*
X111871Y621000D01*
X111982Y621075D01*
X112127Y621292D01*
X112300Y621488D01*
X112343Y621615D01*
X112417Y621726D01*
X112468Y621982D01*
X112552Y622229D01*
X112544Y622363D01*
X112570Y622494D01*
X112519Y622750D01*
X112503Y623010D01*
X112443Y623131D01*
X112417Y623262D01*
X112272Y623479D01*
X112157Y623713D01*
X112057Y623802D01*
X111982Y623913D01*
X111765Y624058D01*
X111569Y624231D01*
X111442Y624274D01*
X111331Y624348D01*
X111075Y624399D01*
X110828Y624483D01*
X110694Y624475D01*
X110563Y624501D01*
D02*
G37*
G36*
X355740Y805262D02*
X354818Y805078D01*
X354037Y804556D01*
X353515Y803775D01*
X353331Y802853D01*
X353515Y801931D01*
X354037Y801150D01*
X354818Y800628D01*
X355740Y800445D01*
X356662Y800628D01*
X357443Y801150D01*
X357508Y801247D01*
X615840D01*
X801614Y615474D01*
Y611755D01*
X801152Y611564D01*
X781964Y630751D01*
X781444Y631099D01*
X780829Y631222D01*
X780829Y631222D01*
X771327D01*
X771327Y631222D01*
X770712Y631099D01*
X770191Y630751D01*
X764708Y625268D01*
X764248Y625515D01*
X764260Y625576D01*
Y631323D01*
X764138Y631938D01*
X763790Y632459D01*
X763790Y632459D01*
X653353Y742896D01*
X652832Y743244D01*
X652217Y743366D01*
X652217Y743366D01*
X488161D01*
X488161Y743366D01*
X487546Y743244D01*
X487025Y742896D01*
X487025Y742896D01*
X477483Y733353D01*
X473354D01*
X473140Y733853D01*
X473309Y734700D01*
X473125Y735622D01*
X472603Y736403D01*
X472506Y736468D01*
Y756884D01*
X472383Y757499D01*
X472035Y758020D01*
X472035Y758020D01*
X433469Y796586D01*
X432948Y796934D01*
X432334Y797056D01*
X432334Y797056D01*
X216273D01*
X215658Y796934D01*
X215137Y796586D01*
X73565Y655014D01*
X73217Y654493D01*
X73094Y653878D01*
X73094Y653878D01*
Y464519D01*
X42674Y434099D01*
X42559Y434122D01*
X41638Y433939D01*
X40856Y433417D01*
X40334Y432635D01*
X40151Y431713D01*
X40334Y430792D01*
X40856Y430011D01*
X41638Y429488D01*
X42559Y429305D01*
X43481Y429488D01*
X44262Y430011D01*
X44785Y430792D01*
X44968Y431713D01*
X44945Y431828D01*
X75835Y462719D01*
X75835Y462719D01*
X76183Y463240D01*
X76306Y463854D01*
Y653213D01*
X216938Y793845D01*
X431669D01*
X469154Y756360D01*
X469120Y756143D01*
X468596Y756027D01*
X468561Y756079D01*
X467780Y756601D01*
X466858Y756784D01*
X465936Y756601D01*
X465155Y756079D01*
X465090Y755981D01*
X457642D01*
X433815Y779808D01*
X433294Y780156D01*
X432680Y780279D01*
X432680Y780278D01*
X366004D01*
X366004Y780279D01*
X365389Y780156D01*
X364868Y779808D01*
X364868Y779808D01*
X356614Y771554D01*
X356266Y771033D01*
X356144Y770418D01*
X356144Y770418D01*
Y731629D01*
X355878Y731549D01*
X355644Y731504D01*
X354877Y732016D01*
X353956Y732199D01*
X353034Y732016D01*
X352253Y731494D01*
X351730Y730713D01*
X351547Y729791D01*
X351730Y728869D01*
X352253Y728088D01*
X353034Y727566D01*
X353956Y727382D01*
X354877Y727566D01*
X354940Y727608D01*
X355390Y727307D01*
X355341Y727059D01*
X355524Y726137D01*
X356046Y725356D01*
X356828Y724834D01*
X357749Y724650D01*
X358596Y724819D01*
X359096Y724605D01*
Y723040D01*
X358987Y722967D01*
X358465Y722186D01*
X358282Y721264D01*
X358465Y720342D01*
X358987Y719561D01*
X359769Y719039D01*
X360690Y718855D01*
X361612Y719039D01*
X362394Y719561D01*
X362916Y720342D01*
X363099Y721264D01*
X362916Y722186D01*
X362394Y722967D01*
X362308Y723024D01*
Y766326D01*
X367912Y771930D01*
X427223D01*
X467673Y731481D01*
X467609Y730837D01*
X467240Y730590D01*
X466718Y729809D01*
X466534Y728887D01*
X466718Y727965D01*
X467240Y727184D01*
X468021Y726662D01*
X468658Y726535D01*
X468492Y725700D01*
X468514Y725585D01*
X459265Y716335D01*
X458917Y715814D01*
X458794Y715200D01*
X458794Y715200D01*
Y703162D01*
X454860Y699228D01*
X454400Y699475D01*
X454453Y699742D01*
X454270Y700664D01*
X453748Y701445D01*
X452966Y701967D01*
X452044Y702150D01*
X451123Y701967D01*
X450341Y701445D01*
X449819Y700664D01*
X449636Y699742D01*
X449819Y698820D01*
X450341Y698039D01*
X451123Y697517D01*
X452044Y697333D01*
X452312Y697387D01*
X452558Y696926D01*
X409502Y653870D01*
X340592D01*
X340592Y653870D01*
X339978Y653748D01*
X339457Y653400D01*
X339457Y653400D01*
X281305Y595248D01*
X280957Y594727D01*
X280834Y594112D01*
X280834Y594112D01*
Y447005D01*
X257156Y423327D01*
X256644D01*
X255759Y424212D01*
X256006Y424672D01*
X256412Y424591D01*
X257333Y424775D01*
X258115Y425297D01*
X258637Y426078D01*
X258820Y427000D01*
X258637Y427922D01*
X258115Y428703D01*
X257333Y429225D01*
X256412Y429409D01*
X256297Y429386D01*
X214547Y471135D01*
X214026Y471483D01*
X213412Y471606D01*
X213412Y471606D01*
X206607D01*
X206340Y472106D01*
X206656Y472578D01*
X206839Y473500D01*
X206656Y474422D01*
X206134Y475203D01*
X206036Y475268D01*
Y525066D01*
X268496Y587525D01*
X268862Y587414D01*
X269007Y587330D01*
X269497Y586597D01*
X270278Y586075D01*
X271200Y585891D01*
X272122Y586075D01*
X272903Y586597D01*
X273425Y587378D01*
X273608Y588300D01*
X273425Y589222D01*
X272903Y590003D01*
X272170Y590493D01*
X272086Y590638D01*
X271975Y591004D01*
X367985Y687014D01*
X368100Y686992D01*
X369022Y687175D01*
X369803Y687697D01*
X370325Y688478D01*
X370509Y689400D01*
X370325Y690322D01*
X369803Y691103D01*
X369022Y691625D01*
X368100Y691809D01*
X367178Y691625D01*
X366397Y691103D01*
X365875Y690322D01*
X365691Y689400D01*
X365714Y689285D01*
X203295Y526866D01*
X202947Y526345D01*
X202825Y525731D01*
X202825Y525731D01*
Y475268D01*
X202728Y475203D01*
X202206Y474422D01*
X202022Y473500D01*
X202206Y472578D01*
X202521Y472106D01*
X202254Y471606D01*
X188665D01*
X184606Y475665D01*
Y570435D01*
X319785Y705614D01*
X319900Y705591D01*
X320822Y705775D01*
X321603Y706297D01*
X322125Y707078D01*
X322308Y708000D01*
X322125Y708922D01*
X321603Y709703D01*
X320822Y710225D01*
X320219Y710345D01*
Y710855D01*
X320822Y710975D01*
X321603Y711497D01*
X322125Y712278D01*
X322308Y713200D01*
X322125Y714122D01*
X321603Y714903D01*
X320822Y715425D01*
X319900Y715609D01*
X318978Y715425D01*
X318197Y714903D01*
X317675Y714122D01*
X317492Y713200D01*
X317675Y712278D01*
X318197Y711497D01*
X318978Y710975D01*
X319581Y710855D01*
Y710345D01*
X318978Y710225D01*
X318197Y709703D01*
X317675Y708922D01*
X317492Y708000D01*
X317514Y707885D01*
X182438Y572808D01*
X181976Y573000D01*
Y575565D01*
X214326Y607916D01*
X214326Y607916D01*
X214674Y608437D01*
X214796Y609051D01*
X214796Y609051D01*
Y691924D01*
X246081Y723209D01*
X319607D01*
X319672Y723111D01*
X320453Y722589D01*
X321375Y722406D01*
X322297Y722589D01*
X323078Y723111D01*
X323600Y723893D01*
X323783Y724814D01*
X323600Y725736D01*
X323078Y726517D01*
X322297Y727039D01*
X322198Y727059D01*
Y727569D01*
X322297Y727589D01*
X323078Y728111D01*
X323600Y728892D01*
X323783Y729814D01*
X323600Y730735D01*
X323078Y731517D01*
X322297Y732039D01*
X321375Y732222D01*
X320453Y732039D01*
X319672Y731517D01*
X319607Y731419D01*
X185363D01*
X185363Y731419D01*
X184748Y731297D01*
X184228Y730949D01*
X184228Y730949D01*
X172609Y719331D01*
X172494Y719354D01*
X171573Y719170D01*
X170791Y718648D01*
X170269Y717867D01*
X170086Y716945D01*
X170269Y716023D01*
X170791Y715242D01*
X171573Y714720D01*
X172494Y714537D01*
X173416Y714720D01*
X174197Y715242D01*
X174720Y716023D01*
X174903Y716945D01*
X174880Y717060D01*
X186028Y728208D01*
X319607D01*
X319672Y728111D01*
X320453Y727589D01*
X320551Y727569D01*
Y727059D01*
X320453Y727039D01*
X319672Y726517D01*
X319607Y726420D01*
X245416D01*
X244801Y726298D01*
X244280Y725950D01*
X244280Y725950D01*
X212055Y693725D01*
X211707Y693204D01*
X211585Y692589D01*
X211585Y692589D01*
Y609716D01*
X181988Y580119D01*
X181483Y580321D01*
X181003Y581039D01*
X180222Y581561D01*
X179300Y581745D01*
X178378Y581561D01*
X177597Y581039D01*
X177075Y580258D01*
X176892Y579336D01*
X177075Y578414D01*
X177597Y577633D01*
X178378Y577111D01*
X178494Y577088D01*
X178565Y577022D01*
X178821Y576513D01*
X178764Y576230D01*
X178764Y576230D01*
Y258279D01*
X178667Y258214D01*
X178145Y257433D01*
X177962Y256511D01*
X178145Y255589D01*
X178667Y254808D01*
X179448Y254286D01*
X180370Y254103D01*
X181292Y254286D01*
X182073Y254808D01*
X182595Y255589D01*
X182779Y256511D01*
X182595Y257433D01*
X182073Y258214D01*
X181976Y258279D01*
Y473100D01*
X182438Y473292D01*
X186865Y468865D01*
X186865Y468865D01*
X187385Y468517D01*
X188000Y468394D01*
X188000Y468394D01*
X212747D01*
X254026Y427115D01*
X254003Y427000D01*
X254084Y426594D01*
X253623Y426347D01*
X228735Y451235D01*
X228215Y451583D01*
X227600Y451706D01*
X227600Y451706D01*
X197467D01*
X197467Y451706D01*
X196853Y451583D01*
X196332Y451235D01*
X196332Y451235D01*
X192367Y447271D01*
X192019Y446750D01*
X191897Y446136D01*
X191897Y446136D01*
Y318497D01*
X191897Y318497D01*
X192019Y317883D01*
X192367Y317362D01*
X239394Y270335D01*
Y93195D01*
X239297Y93130D01*
X238775Y92348D01*
X238592Y91427D01*
X238775Y90505D01*
X239297Y89724D01*
X240078Y89202D01*
X241000Y89018D01*
X241922Y89202D01*
X242703Y89724D01*
X243225Y90505D01*
X243408Y91427D01*
X243225Y92348D01*
X242703Y93130D01*
X242606Y93195D01*
Y108284D01*
X242653Y108357D01*
X243106Y108656D01*
X243134Y108650D01*
X243384Y108565D01*
X243515Y108574D01*
X243643Y108548D01*
X243902Y108600D01*
X244166Y108618D01*
X244283Y108676D01*
X244411Y108701D01*
X244631Y108848D01*
X244868Y108965D01*
X244954Y109064D01*
X245063Y109136D01*
X245209Y109356D01*
X245383Y109555D01*
X245425Y109679D01*
X245498Y109787D01*
X245549Y110047D01*
X245634Y110297D01*
X245625Y110427D01*
X245651Y110556D01*
X245599Y110815D01*
X245581Y111078D01*
X245523Y111195D01*
X245498Y111324D01*
X245351Y111543D01*
X245234Y111780D01*
X245135Y111866D01*
X245063Y111975D01*
X244843Y112121D01*
X244644Y112295D01*
X244520Y112337D01*
X244411Y112410D01*
X244152Y112461D01*
X243902Y112546D01*
X243772Y112537D01*
X243643Y112563D01*
X243384Y112511D01*
X243121Y112494D01*
X243106Y112486D01*
X242818Y112599D01*
X242668Y112730D01*
X242606Y112827D01*
Y271000D01*
X242483Y271615D01*
X242135Y272135D01*
X242135Y272135D01*
X195108Y319162D01*
Y445471D01*
X198132Y448494D01*
X209445D01*
X209686Y447994D01*
X209292Y447404D01*
X209109Y446483D01*
X209292Y445561D01*
X209814Y444780D01*
X210596Y444257D01*
X211517Y444074D01*
X211632Y444097D01*
X456665Y199065D01*
X456665Y199065D01*
X457186Y198717D01*
X457800Y198594D01*
X561687D01*
X561911Y198550D01*
X562525Y198672D01*
X563046Y199020D01*
X563394Y199541D01*
X563516Y200155D01*
X563394Y200770D01*
X563046Y201291D01*
X563002Y201335D01*
X562481Y201683D01*
X561866Y201806D01*
X561866Y201806D01*
X547449D01*
X547276Y202306D01*
X547725Y202978D01*
X547908Y203900D01*
X547725Y204822D01*
X547203Y205603D01*
X547106Y205668D01*
Y225878D01*
X547606Y226030D01*
X547979Y225471D01*
X548761Y224949D01*
X549682Y224765D01*
X550604Y224949D01*
X551385Y225471D01*
X551907Y226252D01*
X552091Y227174D01*
X551907Y228096D01*
X551385Y228877D01*
X551288Y228942D01*
Y272817D01*
X560310Y281839D01*
X560771Y281593D01*
X560683Y281152D01*
X560867Y280231D01*
X561389Y279449D01*
X562170Y278927D01*
X563092Y278744D01*
X564013Y278927D01*
X564795Y279449D01*
X565317Y280231D01*
X565500Y281152D01*
X565317Y282074D01*
X564795Y282856D01*
X564013Y283378D01*
X563092Y283561D01*
X562651Y283473D01*
X562405Y283934D01*
X573901Y295431D01*
X574363Y295239D01*
Y272534D01*
X557215Y255386D01*
X557100Y255409D01*
X556178Y255225D01*
X555397Y254703D01*
X554875Y253922D01*
X554692Y253000D01*
X554875Y252078D01*
X555397Y251297D01*
X556178Y250775D01*
X557100Y250591D01*
X558022Y250775D01*
X558803Y251297D01*
X559325Y252078D01*
X559509Y253000D01*
X559486Y253115D01*
X577104Y270734D01*
X577104Y270734D01*
X577452Y271255D01*
X577575Y271869D01*
X577575Y271869D01*
Y494204D01*
X604165Y520794D01*
X640432D01*
X640497Y520697D01*
X641278Y520175D01*
X642200Y519991D01*
X643122Y520175D01*
X643903Y520697D01*
X644425Y521478D01*
X644608Y522400D01*
X644425Y523322D01*
X643903Y524103D01*
X643122Y524625D01*
X642200Y524809D01*
X641278Y524625D01*
X640497Y524103D01*
X640432Y524006D01*
X603500D01*
X602885Y523883D01*
X602365Y523535D01*
X602365Y523535D01*
X575986Y497156D01*
X575450Y497328D01*
X575422Y497492D01*
X615445Y537514D01*
X615560Y537492D01*
X616481Y537675D01*
X617263Y538197D01*
X617785Y538978D01*
X617968Y539900D01*
X617785Y540822D01*
X617263Y541603D01*
X616481Y542125D01*
X615560Y542309D01*
X614638Y542125D01*
X613857Y541603D01*
X613335Y540822D01*
X613151Y539900D01*
X613174Y539785D01*
X572472Y499083D01*
X572124Y498562D01*
X572002Y497948D01*
X572002Y497948D01*
Y298073D01*
X548547Y274618D01*
X548199Y274097D01*
X548077Y273482D01*
X548077Y273482D01*
Y228942D01*
X547979Y228877D01*
X547606Y228318D01*
X547106Y228469D01*
Y275035D01*
X567350Y295279D01*
X567698Y295800D01*
X567820Y296415D01*
X567820Y296415D01*
Y628953D01*
X567698Y629568D01*
X567350Y630089D01*
X567350Y630089D01*
X512653Y684785D01*
X512676Y684900D01*
X512493Y685822D01*
X512170Y686305D01*
X512559Y686624D01*
X659194Y539988D01*
Y498400D01*
X659194Y498400D01*
X659317Y497786D01*
X659665Y497265D01*
X689894Y467035D01*
Y162068D01*
X689797Y162003D01*
X689275Y161222D01*
X689091Y160300D01*
X689275Y159378D01*
X689797Y158597D01*
X690578Y158075D01*
X691500Y157891D01*
X692422Y158075D01*
X693203Y158597D01*
X693725Y159378D01*
X693909Y160300D01*
X693725Y161222D01*
X693203Y162003D01*
X693106Y162068D01*
Y467700D01*
X693106Y467700D01*
X693106Y467700D01*
Y509953D01*
X693106Y509953D01*
X692983Y510567D01*
X692635Y511088D01*
X692635Y511088D01*
X661935Y541788D01*
X661935Y541788D01*
X506458Y697265D01*
Y701502D01*
X506958Y701654D01*
X507197Y701297D01*
X507978Y700775D01*
X508900Y700592D01*
X509822Y700775D01*
X510603Y701297D01*
X511125Y702078D01*
X511308Y703000D01*
X511125Y703922D01*
X510603Y704703D01*
X509822Y705225D01*
X508900Y705408D01*
X507978Y705225D01*
X507197Y704703D01*
X506675Y703922D01*
X506573Y703408D01*
X506042Y703302D01*
X505988Y703383D01*
X505988Y703383D01*
X489006Y720365D01*
Y722258D01*
X489418Y722514D01*
X489506Y722511D01*
X490400Y722333D01*
X491322Y722517D01*
X492103Y723039D01*
X492168Y723136D01*
X507793D01*
X508432Y722497D01*
X508287Y722019D01*
X508026Y721967D01*
X507244Y721445D01*
X506722Y720663D01*
X506539Y719742D01*
X506722Y718820D01*
X507244Y718039D01*
X508026Y717517D01*
X508947Y717333D01*
X509869Y717517D01*
X510650Y718039D01*
X511172Y718820D01*
X511224Y719081D01*
X511703Y719227D01*
X683894Y547035D01*
Y535000D01*
X683894Y535000D01*
X684017Y534385D01*
X684365Y533865D01*
X707494Y510735D01*
Y503900D01*
X707494Y503900D01*
X707617Y503286D01*
X707965Y502765D01*
X752394Y458335D01*
Y363030D01*
X752159Y362678D01*
X752036Y362063D01*
X752036Y362063D01*
Y266826D01*
X751939Y266761D01*
X751417Y265980D01*
X751233Y265058D01*
X751417Y264136D01*
X751939Y263355D01*
X752720Y262833D01*
X753642Y262649D01*
X754564Y262833D01*
X755345Y263355D01*
X755867Y264136D01*
X756050Y265058D01*
X755867Y265980D01*
X755345Y266761D01*
X755248Y266826D01*
Y361454D01*
X755483Y361807D01*
X755606Y362421D01*
X755606Y362421D01*
Y459000D01*
X755606Y459000D01*
X755483Y459615D01*
X755135Y460135D01*
X710706Y504565D01*
Y511400D01*
X710706Y511400D01*
X710583Y512014D01*
X710235Y512535D01*
X687106Y535665D01*
Y544351D01*
X687606Y544524D01*
X688278Y544075D01*
X689200Y543891D01*
X690122Y544075D01*
X690903Y544597D01*
X691425Y545378D01*
X691608Y546300D01*
X691425Y547222D01*
X690903Y548003D01*
X690122Y548525D01*
X689200Y548708D01*
X688278Y548525D01*
X687548Y548037D01*
X687276Y548082D01*
X687011Y548176D01*
X686983Y548315D01*
X686635Y548835D01*
X686635Y548835D01*
X509594Y725877D01*
X509073Y726225D01*
X508458Y726347D01*
X508458Y726347D01*
X492168D01*
X492103Y726445D01*
X491322Y726967D01*
X490400Y727150D01*
X489506Y726972D01*
X489418Y726970D01*
X489006Y727226D01*
Y727974D01*
X489103Y728039D01*
X489625Y728820D01*
X489809Y729742D01*
X489625Y730663D01*
X489103Y731445D01*
X488322Y731967D01*
X487400Y732150D01*
X486478Y731967D01*
X485697Y731445D01*
X485175Y730663D01*
X484992Y729742D01*
X485175Y728820D01*
X485697Y728039D01*
X485794Y727974D01*
Y719700D01*
X485794Y719700D01*
X485917Y719086D01*
X486265Y718565D01*
X502236Y702593D01*
X501990Y702132D01*
X501900Y702150D01*
X500978Y701967D01*
X500197Y701445D01*
X499675Y700664D01*
X499492Y699742D01*
X499675Y698820D01*
X500197Y698039D01*
X500978Y697517D01*
X501900Y697333D01*
X502747Y697502D01*
X503247Y697288D01*
Y696600D01*
X503247Y696600D01*
X503369Y695986D01*
X503717Y695465D01*
X511991Y687191D01*
X511673Y686802D01*
X511190Y687125D01*
X510268Y687309D01*
X510153Y687286D01*
X492812Y704627D01*
X492835Y704742D01*
X492651Y705663D01*
X492129Y706445D01*
X491348Y706967D01*
X490426Y707150D01*
X489504Y706967D01*
X488723Y706445D01*
X488201Y705663D01*
X488018Y704742D01*
X488201Y703820D01*
X488723Y703039D01*
X489504Y702517D01*
X490426Y702333D01*
X490541Y702356D01*
X507882Y685015D01*
X507859Y684900D01*
X508043Y683978D01*
X508565Y683197D01*
X509346Y682675D01*
X510268Y682491D01*
X510383Y682514D01*
X564609Y628288D01*
Y506466D01*
X564109Y506259D01*
X543749Y526619D01*
X543995Y527080D01*
X544735Y526933D01*
X545656Y527116D01*
X546438Y527638D01*
X546960Y528419D01*
X547143Y529341D01*
X546960Y530263D01*
X546438Y531044D01*
X545656Y531566D01*
X544735Y531750D01*
X543813Y531566D01*
X543032Y531044D01*
X542510Y530263D01*
X542326Y529341D01*
X542473Y528602D01*
X542013Y528355D01*
X485506Y584862D01*
Y706000D01*
X485506Y706000D01*
X485383Y706614D01*
X485035Y707135D01*
X485035Y707135D01*
X473286Y718885D01*
X473309Y719000D01*
X473125Y719922D01*
X472603Y720703D01*
X471822Y721225D01*
X470900Y721409D01*
X469978Y721225D01*
X469197Y720703D01*
X468675Y719922D01*
X468492Y719000D01*
X468675Y718078D01*
X469197Y717297D01*
X469419Y717149D01*
Y716649D01*
X469113Y716445D01*
X468591Y715663D01*
X468408Y714742D01*
X468591Y713820D01*
X469113Y713039D01*
X469794Y712584D01*
X469777Y712169D01*
X469741Y712064D01*
X469330Y711982D01*
X468544Y711456D01*
X468018Y710670D01*
X467933Y710242D01*
X472583D01*
X472498Y710670D01*
X471973Y711456D01*
X471284Y711916D01*
X471298Y712319D01*
X471337Y712437D01*
X471738Y712517D01*
X472519Y713039D01*
X473042Y713820D01*
X473065Y713940D01*
X473544Y714085D01*
X482294Y705335D01*
Y584197D01*
X482294Y584197D01*
X482417Y583583D01*
X482765Y583062D01*
X561848Y503978D01*
Y500115D01*
X561348Y499908D01*
X483212Y578044D01*
X483235Y578159D01*
X483052Y579081D01*
X482530Y579862D01*
X481748Y580384D01*
X480827Y580568D01*
X479905Y580384D01*
X479123Y579862D01*
X478602Y579081D01*
X478418Y578159D01*
X478602Y577237D01*
X479123Y576456D01*
X479905Y575934D01*
X480827Y575751D01*
X480941Y575773D01*
X558778Y497937D01*
Y360873D01*
X541813Y343908D01*
X541698Y343931D01*
X540776Y343747D01*
X539995Y343225D01*
X539473Y342444D01*
X539290Y341522D01*
X539473Y340601D01*
X539995Y339819D01*
X540776Y339297D01*
X541698Y339114D01*
X542620Y339297D01*
X543401Y339819D01*
X543923Y340601D01*
X544107Y341522D01*
X544084Y341637D01*
X561348Y358902D01*
X561848Y358695D01*
Y356350D01*
X471604Y266106D01*
X462268D01*
X462203Y266203D01*
X461422Y266725D01*
X460500Y266909D01*
X459578Y266725D01*
X458797Y266203D01*
X458275Y265422D01*
X458091Y264500D01*
X458275Y263578D01*
X458797Y262797D01*
X459578Y262275D01*
X460500Y262091D01*
X461422Y262275D01*
X462203Y262797D01*
X462268Y262894D01*
X472269D01*
X472269Y262894D01*
X472884Y263017D01*
X473405Y263365D01*
X564109Y354069D01*
X564609Y353862D01*
Y297080D01*
X544365Y276835D01*
X544017Y276314D01*
X543894Y275700D01*
X543894Y275700D01*
Y205668D01*
X543797Y205603D01*
X543275Y204822D01*
X543091Y203900D01*
X543275Y202978D01*
X543724Y202306D01*
X543551Y201806D01*
X458465D01*
X213903Y446368D01*
X213926Y446483D01*
X213742Y447404D01*
X213348Y447994D01*
X213590Y448494D01*
X226935D01*
X254865Y420565D01*
X254865Y420565D01*
X255386Y420217D01*
X256000Y420094D01*
X256000Y420094D01*
X257800D01*
X257800Y420094D01*
X258415Y420217D01*
X258935Y420565D01*
X283575Y445204D01*
X283923Y445725D01*
X284046Y446340D01*
X284046Y446340D01*
Y593447D01*
X341257Y650659D01*
X410167D01*
X410167Y650659D01*
X410782Y650781D01*
X411303Y651129D01*
X461535Y701362D01*
X461535Y701362D01*
X461883Y701883D01*
X462006Y702497D01*
X462006Y702497D01*
Y714535D01*
X470785Y723314D01*
X470900Y723291D01*
X471822Y723475D01*
X472603Y723997D01*
X473125Y724778D01*
X473309Y725700D01*
X473125Y726622D01*
X472603Y727403D01*
X471822Y727925D01*
X471185Y728052D01*
X471351Y728887D01*
X471201Y729642D01*
X471501Y730142D01*
X478148D01*
X478148Y730142D01*
X478762Y730264D01*
X479283Y730612D01*
X488826Y740155D01*
X651552D01*
X761049Y630658D01*
Y626821D01*
X760678Y626747D01*
X759897Y626225D01*
X759374Y625443D01*
X759191Y624522D01*
X759374Y623600D01*
X759897Y622819D01*
X760678Y622296D01*
X761041Y622224D01*
X761186Y621746D01*
X759801Y620361D01*
X759487Y619891D01*
X759420Y619818D01*
X759223Y619685D01*
X758896Y619602D01*
X758894Y619603D01*
X758633Y619620D01*
X758377Y619671D01*
X758246Y619644D01*
X758112Y619653D01*
X757865Y619569D01*
X757609Y619518D01*
X757498Y619444D01*
X757371Y619400D01*
X757175Y619228D01*
X756958Y619083D01*
X756884Y618971D01*
X756783Y618883D01*
X756668Y618649D01*
X756523Y618432D01*
X756497Y618300D01*
X756438Y618180D01*
X756421Y617920D01*
X756370Y617664D01*
X756396Y617532D01*
X756388Y617399D01*
X756452Y617210D01*
X756387Y617053D01*
X756093Y616712D01*
X756089Y616710D01*
X626835D01*
X613585Y629960D01*
X613608Y630075D01*
X613424Y630997D01*
X612902Y631778D01*
X612121Y632300D01*
X611199Y632484D01*
X610278Y632300D01*
X609496Y631778D01*
X608974Y630997D01*
X608791Y630075D01*
X608974Y629153D01*
X609496Y628372D01*
X610278Y627850D01*
X611199Y627667D01*
X611314Y627690D01*
X625035Y613969D01*
X625555Y613621D01*
X626170Y613499D01*
X626170Y613499D01*
X759437D01*
X759437Y613499D01*
X760052Y613621D01*
X760573Y613969D01*
X762072Y615468D01*
X762072Y615468D01*
X762420Y615989D01*
X762542Y616604D01*
X762542Y616604D01*
Y618561D01*
X771992Y628010D01*
X774172D01*
X774221Y627510D01*
X773793Y627425D01*
X773012Y626903D01*
X772490Y626122D01*
X772306Y625200D01*
X772490Y624278D01*
X773012Y623497D01*
X773109Y623432D01*
Y564824D01*
X723193Y514907D01*
X723078Y514930D01*
X722156Y514747D01*
X721375Y514225D01*
X720853Y513444D01*
X720670Y512522D01*
X720853Y511600D01*
X721375Y510819D01*
X722156Y510297D01*
X723078Y510113D01*
X724000Y510297D01*
X724781Y510819D01*
X725303Y511600D01*
X725487Y512522D01*
X725464Y512637D01*
X775850Y563023D01*
X775850Y563023D01*
X776198Y563544D01*
X776321Y564159D01*
Y623432D01*
X776418Y623497D01*
X776940Y624278D01*
X777123Y625200D01*
X776940Y626122D01*
X776418Y626903D01*
X775637Y627425D01*
X775209Y627510D01*
X775258Y628010D01*
X780164D01*
X799448Y608726D01*
Y533050D01*
X799448Y533049D01*
X799571Y532435D01*
X799919Y531914D01*
X831999Y499834D01*
Y432280D01*
X825639Y425920D01*
X825524Y425943D01*
X824602Y425760D01*
X823821Y425237D01*
X823299Y424456D01*
X823115Y423534D01*
X823299Y422613D01*
X823821Y421831D01*
X824602Y421309D01*
X825524Y421126D01*
X826446Y421309D01*
X827227Y421831D01*
X827749Y422613D01*
X827932Y423534D01*
X827909Y423649D01*
X834740Y430479D01*
X835088Y431000D01*
X835210Y431615D01*
X835210Y431615D01*
Y500499D01*
X835088Y501114D01*
X834740Y501635D01*
X834739Y501635D01*
X802660Y533715D01*
Y539155D01*
X803122Y539346D01*
X836255Y506213D01*
Y316490D01*
X763753Y243987D01*
X763638Y244010D01*
X762717Y243827D01*
X761936Y243305D01*
X761413Y242524D01*
X761230Y241602D01*
X761413Y240680D01*
X761936Y239899D01*
X762717Y239377D01*
X763638Y239193D01*
X764560Y239377D01*
X765342Y239899D01*
X765864Y240680D01*
X766047Y241602D01*
X766024Y241717D01*
X838996Y314689D01*
X838997Y314689D01*
X839345Y315210D01*
X839467Y315825D01*
X839467Y315825D01*
Y506878D01*
X839467Y506878D01*
X839345Y507492D01*
X838997Y508013D01*
X804825Y542184D01*
Y616139D01*
X804825Y616139D01*
X804703Y616753D01*
X804355Y617274D01*
X804355Y617274D01*
X617640Y803988D01*
X617120Y804336D01*
X616505Y804459D01*
X616505Y804459D01*
X357508D01*
X357443Y804556D01*
X356662Y805078D01*
X355740Y805262D01*
D02*
G37*
G36*
X152450Y601509D02*
X151528Y601325D01*
X150747Y600803D01*
X150224Y600022D01*
X150041Y599100D01*
X150224Y598178D01*
X150747Y597397D01*
X151528Y596875D01*
X152450Y596692D01*
X153371Y596875D01*
X154153Y597397D01*
X154675Y598178D01*
X154858Y599100D01*
X154675Y600022D01*
X154153Y600803D01*
X153371Y601325D01*
X152450Y601509D01*
D02*
G37*
G36*
X582200Y590708D02*
X581278Y590525D01*
X580497Y590003D01*
X579975Y589222D01*
X579791Y588300D01*
X579975Y587378D01*
X580497Y586597D01*
X581278Y586075D01*
X582200Y585891D01*
X583122Y586075D01*
X583903Y586597D01*
X584425Y587378D01*
X584609Y588300D01*
X584425Y589222D01*
X583903Y590003D01*
X583122Y590525D01*
X582200Y590708D01*
D02*
G37*
G36*
X155000Y573509D02*
X154078Y573325D01*
X153297Y572803D01*
X152775Y572022D01*
X152592Y571100D01*
X152775Y570178D01*
X153297Y569397D01*
X154078Y568875D01*
X155000Y568691D01*
X155922Y568875D01*
X156703Y569397D01*
X157225Y570178D01*
X157408Y571100D01*
X157225Y572022D01*
X156703Y572803D01*
X155922Y573325D01*
X155000Y573509D01*
D02*
G37*
G36*
X232000Y572609D02*
X231078Y572425D01*
X230297Y571903D01*
X229775Y571122D01*
X229591Y570200D01*
X229775Y569278D01*
X230297Y568497D01*
X231078Y567975D01*
X232000Y567792D01*
X232922Y567975D01*
X233703Y568497D01*
X234225Y569278D01*
X234408Y570200D01*
X234225Y571122D01*
X233703Y571903D01*
X232922Y572425D01*
X232000Y572609D01*
D02*
G37*
G36*
X95590Y561801D02*
X94669Y561618D01*
X93887Y561096D01*
X93365Y560314D01*
X93182Y559392D01*
X93365Y558471D01*
X93887Y557690D01*
X94669Y557167D01*
X95590Y556984D01*
X96512Y557167D01*
X97293Y557690D01*
X97815Y558471D01*
X97999Y559392D01*
X97815Y560314D01*
X97293Y561096D01*
X96512Y561618D01*
X95590Y561801D01*
D02*
G37*
G36*
X216800Y561009D02*
X215878Y560825D01*
X215097Y560303D01*
X214575Y559522D01*
X214391Y558600D01*
X214575Y557678D01*
X215097Y556897D01*
X215878Y556375D01*
X216800Y556191D01*
X217722Y556375D01*
X218503Y556897D01*
X219025Y557678D01*
X219209Y558600D01*
X219025Y559522D01*
X218503Y560303D01*
X217722Y560825D01*
X216800Y561009D01*
D02*
G37*
G36*
X169700Y555808D02*
X168778Y555625D01*
X167997Y555103D01*
X167475Y554322D01*
X167291Y553400D01*
X167475Y552478D01*
X167997Y551697D01*
X168778Y551175D01*
X169700Y550991D01*
X170622Y551175D01*
X171403Y551697D01*
X171925Y552478D01*
X172108Y553400D01*
X171925Y554322D01*
X171403Y555103D01*
X170622Y555625D01*
X169700Y555808D01*
D02*
G37*
G36*
X211517Y555783D02*
X210596Y555599D01*
X209814Y555077D01*
X209292Y554296D01*
X209109Y553374D01*
X209292Y552452D01*
X209814Y551671D01*
X210596Y551149D01*
X211517Y550965D01*
X212439Y551149D01*
X213220Y551671D01*
X213742Y552452D01*
X213926Y553374D01*
X213742Y554296D01*
X213220Y555077D01*
X212439Y555599D01*
X211517Y555783D01*
D02*
G37*
G36*
X644312Y548409D02*
X643391Y548225D01*
X642609Y547703D01*
X642087Y546922D01*
X641904Y546000D01*
X642087Y545078D01*
X642609Y544297D01*
X643391Y543775D01*
X644312Y543591D01*
X645234Y543775D01*
X646015Y544297D01*
X646538Y545078D01*
X646721Y546000D01*
X646538Y546922D01*
X646015Y547703D01*
X645234Y548225D01*
X644312Y548409D01*
D02*
G37*
G36*
X550899Y538736D02*
X550597Y538676D01*
X550292Y538642D01*
X550216Y538600D01*
X550131Y538583D01*
X549875Y538413D01*
X549606Y538265D01*
X549552Y538197D01*
X549479Y538148D01*
X549309Y537893D01*
X549117Y537653D01*
X549093Y537570D01*
X549044Y537497D01*
X548984Y537196D01*
X548899Y536901D01*
X548909Y536814D01*
X548891Y536729D01*
X548951Y536428D01*
X548985Y536123D01*
X549027Y536046D01*
X549044Y535961D01*
X549215Y535706D01*
X549363Y535437D01*
X549431Y535382D01*
X549479Y535310D01*
X549735Y535139D01*
X549974Y534947D01*
X550058Y534923D01*
X550131Y534875D01*
X550432Y534815D01*
X550727Y534729D01*
X550813Y534739D01*
X550899Y534722D01*
X551200Y534782D01*
X551505Y534816D01*
X551581Y534858D01*
X551667Y534875D01*
X551922Y535045D01*
X552191Y535193D01*
X552245Y535261D01*
X552318Y535310D01*
X552488Y535565D01*
X552680Y535805D01*
X552704Y535888D01*
X552753Y535961D01*
X552813Y536262D01*
X552898Y536557D01*
X552889Y536644D01*
X552906Y536729D01*
X552846Y537030D01*
X552812Y537335D01*
X552770Y537412D01*
X552753Y537497D01*
X552582Y537752D01*
X552434Y538021D01*
X552366Y538076D01*
X552318Y538148D01*
X552063Y538319D01*
X551823Y538511D01*
X551739Y538535D01*
X551667Y538583D01*
X551366Y538643D01*
X551071Y538729D01*
X550984Y538719D01*
X550899Y538736D01*
D02*
G37*
G36*
X311665Y534166D02*
X311578Y534149D01*
X311490Y534158D01*
X311197Y534073D01*
X310897Y534013D01*
X310823Y533964D01*
X310738Y533939D01*
X310500Y533748D01*
X310246Y533578D01*
X310197Y533505D01*
X310128Y533449D01*
X309981Y533181D01*
X309811Y532927D01*
X309794Y532840D01*
X309751Y532762D01*
X309718Y532459D01*
X309658Y532159D01*
X309675Y532072D01*
X309666Y531984D01*
X309751Y531691D01*
X309811Y531391D01*
X309860Y531317D01*
X309885Y531232D01*
X310076Y530994D01*
X310246Y530740D01*
X310320Y530691D01*
X310375Y530621D01*
X310643Y530475D01*
X310897Y530305D01*
X310984Y530287D01*
X311062Y530245D01*
X311365Y530212D01*
X311665Y530152D01*
X311752Y530169D01*
X311840Y530160D01*
X312134Y530245D01*
X312433Y530305D01*
X312507Y530354D01*
X312592Y530379D01*
X312830Y530570D01*
X313084Y530740D01*
X313134Y530813D01*
X313203Y530869D01*
X313350Y531137D01*
X313520Y531391D01*
X313537Y531478D01*
X313579Y531556D01*
X313613Y531859D01*
X313672Y532159D01*
X313655Y532246D01*
X313665Y532334D01*
X313579Y532627D01*
X313520Y532927D01*
X313470Y533001D01*
X313445Y533086D01*
X313254Y533324D01*
X313084Y533578D01*
X313011Y533627D01*
X312955Y533697D01*
X312687Y533844D01*
X312433Y534013D01*
X312346Y534031D01*
X312269Y534073D01*
X311965Y534106D01*
X311665Y534166D01*
D02*
G37*
G36*
X723078Y531309D02*
X722156Y531125D01*
X721375Y530603D01*
X720853Y529822D01*
X720670Y528900D01*
X720853Y527978D01*
X721375Y527197D01*
X722156Y526675D01*
X723078Y526491D01*
X724000Y526675D01*
X724781Y527197D01*
X725303Y527978D01*
X725487Y528900D01*
X725303Y529822D01*
X724781Y530603D01*
X724000Y531125D01*
X723078Y531309D01*
D02*
G37*
G36*
X684300D02*
X683378Y531125D01*
X682597Y530603D01*
X682075Y529822D01*
X681891Y528900D01*
X682075Y527978D01*
X682597Y527197D01*
X683378Y526675D01*
X684300Y526491D01*
X685222Y526675D01*
X686003Y527197D01*
X686525Y527978D01*
X686708Y528900D01*
X686525Y529822D01*
X686003Y530603D01*
X685222Y531125D01*
X684300Y531309D01*
D02*
G37*
G36*
X333946Y595946D02*
X333025Y595762D01*
X332243Y595240D01*
X331721Y594459D01*
X331538Y593537D01*
X331721Y592615D01*
X332243Y591834D01*
X332341Y591769D01*
Y542335D01*
X320392Y530387D01*
X319729Y530255D01*
X318947Y529733D01*
X318425Y528952D01*
X318242Y528030D01*
X318425Y527108D01*
X318947Y526327D01*
X319729Y525805D01*
X320651Y525621D01*
X321572Y525805D01*
X322354Y526327D01*
X322876Y527108D01*
X323059Y528030D01*
X322979Y528432D01*
X335082Y540535D01*
X335082Y540535D01*
X335430Y541056D01*
X335552Y541670D01*
Y591769D01*
X335649Y591834D01*
X336172Y592615D01*
X336355Y593537D01*
X336172Y594459D01*
X335649Y595240D01*
X334868Y595762D01*
X333946Y595946D01*
D02*
G37*
G36*
X295219Y517125D02*
Y515300D01*
X297044D01*
X296959Y515728D01*
X296434Y516514D01*
X295647Y517040D01*
X295219Y517125D01*
D02*
G37*
G36*
X294219D02*
X293791Y517040D01*
X293005Y516514D01*
X292479Y515728D01*
X292394Y515300D01*
X294219D01*
Y517125D01*
D02*
G37*
G36*
X167200D02*
Y515300D01*
X169025D01*
X168940Y515728D01*
X168414Y516514D01*
X167628Y517040D01*
X167200Y517125D01*
D02*
G37*
G36*
X166200D02*
X165772Y517040D01*
X164986Y516514D01*
X164460Y515728D01*
X164375Y515300D01*
X166200D01*
Y517125D01*
D02*
G37*
G36*
X297044Y514300D02*
X295219D01*
Y512475D01*
X295647Y512560D01*
X296434Y513086D01*
X296959Y513872D01*
X297044Y514300D01*
D02*
G37*
G36*
X294219D02*
X292394D01*
X292479Y513872D01*
X293005Y513086D01*
X293791Y512560D01*
X294219Y512475D01*
Y514300D01*
D02*
G37*
G36*
X169025D02*
X167200D01*
Y512475D01*
X167628Y512560D01*
X168414Y513086D01*
X168940Y513872D01*
X169025Y514300D01*
D02*
G37*
G36*
X166200D02*
X164375D01*
X164460Y513872D01*
X164986Y513086D01*
X165772Y512560D01*
X166200Y512475D01*
Y514300D01*
D02*
G37*
G36*
X694325Y517134D02*
X693403Y516950D01*
X692622Y516428D01*
X692100Y515647D01*
X691917Y514725D01*
X692100Y513803D01*
X692622Y513022D01*
X693403Y512500D01*
X694325Y512317D01*
X695247Y512500D01*
X696028Y513022D01*
X696550Y513803D01*
X696734Y514725D01*
X696550Y515647D01*
X696028Y516428D01*
X695247Y516950D01*
X694325Y517134D01*
D02*
G37*
G36*
X611000Y572609D02*
X610078Y572425D01*
X609297Y571903D01*
X608775Y571122D01*
X608592Y570200D01*
X608775Y569278D01*
X609297Y568497D01*
X610078Y567975D01*
X611000Y567792D01*
X611115Y567814D01*
X646094Y532835D01*
Y512071D01*
X645594Y511803D01*
X645240Y512040D01*
X644813Y512125D01*
Y509800D01*
Y507475D01*
X645240Y507560D01*
X645594Y507796D01*
X646094Y507529D01*
Y493963D01*
X645594Y493811D01*
X645160Y494460D01*
X644389Y494976D01*
X643903Y495703D01*
X643122Y496225D01*
X642200Y496409D01*
X641278Y496225D01*
X640497Y495703D01*
X639975Y494922D01*
X639791Y494000D01*
X639814Y493885D01*
X615127Y469197D01*
X614779Y468677D01*
X614656Y468062D01*
X614656Y468062D01*
Y466227D01*
X611445Y463016D01*
X611097Y462495D01*
X610975Y461881D01*
X610975Y461881D01*
Y284956D01*
X610475Y284689D01*
X610022Y284992D01*
X609100Y285175D01*
X608206Y284997D01*
X608118Y284995D01*
X607706Y285251D01*
Y462432D01*
X607803Y462497D01*
X608325Y463278D01*
X608508Y464200D01*
X608325Y465122D01*
X607803Y465903D01*
X607022Y466425D01*
X606100Y466608D01*
X605178Y466425D01*
X604397Y465903D01*
X603875Y465122D01*
X603691Y464200D01*
X603875Y463278D01*
X604397Y462497D01*
X604494Y462432D01*
Y234600D01*
X604494Y234600D01*
X604617Y233985D01*
X604965Y233465D01*
X609865Y228565D01*
X609865Y228565D01*
X618975Y219454D01*
X618811Y218911D01*
X618378Y218825D01*
X617597Y218303D01*
X617075Y217522D01*
X616891Y216600D01*
X617075Y215678D01*
X617597Y214897D01*
X618378Y214375D01*
X619300Y214192D01*
X620222Y214375D01*
X621003Y214897D01*
X621525Y215678D01*
X621611Y216111D01*
X622154Y216276D01*
X644865Y193565D01*
X644865Y193565D01*
X645386Y193217D01*
X646000Y193094D01*
X673232D01*
X673297Y192997D01*
X674078Y192475D01*
X675000Y192291D01*
X675922Y192475D01*
X676703Y192997D01*
X677225Y193778D01*
X677409Y194700D01*
X677225Y195622D01*
X676703Y196403D01*
X675922Y196925D01*
X675000Y197108D01*
X674885Y197086D01*
X670817Y201154D01*
X671052Y201595D01*
X671100Y201586D01*
X672022Y201769D01*
X672803Y202291D01*
X673325Y203072D01*
X673509Y203994D01*
X673325Y204916D01*
X672803Y205697D01*
X672022Y206219D01*
X671100Y206402D01*
X670178Y206219D01*
X669397Y205697D01*
X668875Y204916D01*
X668691Y203994D01*
X668701Y203946D01*
X668260Y203711D01*
X641606Y230365D01*
Y242835D01*
X657527Y258757D01*
X657528Y258757D01*
X657876Y259278D01*
X657998Y259892D01*
Y280208D01*
X657876Y280822D01*
X657528Y281343D01*
X657007Y281691D01*
X656392Y281814D01*
X655778Y281691D01*
X655257Y281343D01*
X654909Y280822D01*
X654786Y280208D01*
Y260557D01*
X638865Y244635D01*
X638865Y244635D01*
X625535Y231306D01*
X611665D01*
X607706Y235265D01*
Y280283D01*
X608118Y280539D01*
X608206Y280536D01*
X609100Y280358D01*
X610022Y280542D01*
X610475Y280845D01*
X610975Y280577D01*
Y274377D01*
X610878Y274312D01*
X610356Y273531D01*
X610172Y272609D01*
X610356Y271687D01*
X610878Y270906D01*
X611659Y270384D01*
X612581Y270200D01*
X613503Y270384D01*
X614284Y270906D01*
X614806Y271687D01*
X614989Y272609D01*
X614806Y273531D01*
X614284Y274312D01*
X614186Y274377D01*
Y461216D01*
X617397Y464427D01*
X617397Y464427D01*
X643342Y490372D01*
X643457Y490349D01*
X644379Y490532D01*
X645160Y491054D01*
X645594Y491704D01*
X646094Y491552D01*
Y459665D01*
X618165Y431735D01*
X617817Y431215D01*
X617694Y430600D01*
X617694Y430600D01*
Y247865D01*
X610165Y240335D01*
X609817Y239814D01*
X609694Y239200D01*
X609694Y239200D01*
Y238468D01*
X609597Y238403D01*
X609075Y237622D01*
X608891Y236700D01*
X609075Y235778D01*
X609597Y234997D01*
X610378Y234475D01*
X611300Y234292D01*
X612222Y234475D01*
X613003Y234997D01*
X613525Y235778D01*
X613708Y236700D01*
X613525Y237622D01*
X613003Y238403D01*
X613226Y238855D01*
X618637Y244266D01*
X619168Y244090D01*
X619304Y243407D01*
X619826Y242626D01*
X620607Y242104D01*
X621529Y241920D01*
X622451Y242104D01*
X622672Y242251D01*
X623122Y241951D01*
X623092Y241800D01*
X623275Y240878D01*
X623797Y240097D01*
X624578Y239575D01*
X625500Y239391D01*
X626422Y239575D01*
X627203Y240097D01*
X627725Y240878D01*
X627909Y241800D01*
X627725Y242722D01*
X627203Y243503D01*
X626422Y244025D01*
X625500Y244209D01*
X624578Y244025D01*
X624358Y243878D01*
X623908Y244178D01*
X623938Y244329D01*
X623754Y245251D01*
X623232Y246032D01*
X622451Y246554D01*
X621529Y246738D01*
X621315Y246695D01*
X620890Y247120D01*
X620906Y247200D01*
X620906Y247200D01*
Y254223D01*
X621406Y254491D01*
X621878Y254175D01*
X622800Y253992D01*
X623722Y254175D01*
X624503Y254697D01*
X625025Y255478D01*
X625209Y256400D01*
X625025Y257322D01*
X624503Y258103D01*
X623722Y258625D01*
X622800Y258808D01*
X621878Y258625D01*
X621406Y258309D01*
X620906Y258577D01*
Y429935D01*
X648835Y457865D01*
X648835Y457865D01*
X649183Y458386D01*
X649306Y459000D01*
X649306Y459000D01*
Y533500D01*
X649306Y533500D01*
X649183Y534115D01*
X648835Y534635D01*
X648835Y534635D01*
X613386Y570085D01*
X613409Y570200D01*
X613225Y571122D01*
X612703Y571903D01*
X611922Y572425D01*
X611000Y572609D01*
D02*
G37*
G36*
X643813Y512125D02*
X643385Y512040D01*
X642598Y511514D01*
X642073Y510728D01*
X641988Y510300D01*
X643813D01*
Y512125D01*
D02*
G37*
G36*
Y509300D02*
X641988D01*
X642073Y508872D01*
X642598Y508086D01*
X643385Y507560D01*
X643813Y507475D01*
Y509300D01*
D02*
G37*
G36*
X211517Y510109D02*
X210596Y509925D01*
X209814Y509403D01*
X209292Y508622D01*
X209109Y507700D01*
X209292Y506778D01*
X209814Y505997D01*
X210596Y505475D01*
X211517Y505292D01*
X212439Y505475D01*
X213220Y505997D01*
X213742Y506778D01*
X213926Y507700D01*
X213742Y508622D01*
X213220Y509403D01*
X212439Y509925D01*
X211517Y510109D01*
D02*
G37*
G36*
X160036Y505025D02*
Y503200D01*
X161861D01*
X161776Y503628D01*
X161251Y504414D01*
X160464Y504940D01*
X160036Y505025D01*
D02*
G37*
G36*
X159036D02*
X158608Y504940D01*
X157822Y504414D01*
X157296Y503628D01*
X157211Y503200D01*
X159036D01*
Y505025D01*
D02*
G37*
G36*
X161861Y502200D02*
X160036D01*
Y500375D01*
X160464Y500460D01*
X161251Y500986D01*
X161776Y501772D01*
X161861Y502200D01*
D02*
G37*
G36*
X159036D02*
X157211D01*
X157296Y501772D01*
X157822Y500986D01*
X158608Y500460D01*
X159036Y500375D01*
Y502200D01*
D02*
G37*
G36*
X723078Y500209D02*
X722156Y500025D01*
X721375Y499503D01*
X720853Y498722D01*
X720670Y497800D01*
X720853Y496878D01*
X721375Y496097D01*
X722156Y495575D01*
X723078Y495392D01*
X724000Y495575D01*
X724781Y496097D01*
X725303Y496878D01*
X725487Y497800D01*
X725303Y498722D01*
X724781Y499503D01*
X724000Y500025D01*
X723078Y500209D01*
D02*
G37*
G36*
X615560D02*
X614638Y500025D01*
X613857Y499503D01*
X613335Y498722D01*
X613152Y497800D01*
X613335Y496878D01*
X613857Y496097D01*
X614638Y495575D01*
X615560Y495392D01*
X616482Y495575D01*
X617263Y496097D01*
X617785Y496878D01*
X617969Y497800D01*
X617785Y498722D01*
X617263Y499503D01*
X616482Y500025D01*
X615560Y500209D01*
D02*
G37*
G36*
X263998Y485904D02*
Y484079D01*
X265824D01*
X265738Y484507D01*
X265213Y485294D01*
X264426Y485819D01*
X263998Y485904D01*
D02*
G37*
G36*
X262998D02*
X262571Y485819D01*
X261784Y485294D01*
X261258Y484507D01*
X261173Y484079D01*
X262998D01*
Y485904D01*
D02*
G37*
G36*
X265824Y483079D02*
X263998D01*
Y481254D01*
X264426Y481339D01*
X265213Y481865D01*
X265738Y482651D01*
X265824Y483079D01*
D02*
G37*
G36*
X262998D02*
X261173D01*
X261258Y482651D01*
X261784Y481865D01*
X262571Y481339D01*
X262998Y481254D01*
Y483079D01*
D02*
G37*
G36*
X601100Y484609D02*
X600178Y484425D01*
X599397Y483903D01*
X598875Y483122D01*
X598692Y482200D01*
X598875Y481278D01*
X599397Y480497D01*
X600178Y479975D01*
X601100Y479791D01*
X602022Y479975D01*
X602803Y480497D01*
X603325Y481278D01*
X603509Y482200D01*
X603325Y483122D01*
X602803Y483903D01*
X602022Y484425D01*
X601100Y484609D01*
D02*
G37*
G36*
X159536Y476556D02*
X158615Y476372D01*
X157833Y475850D01*
X157311Y475069D01*
X157128Y474147D01*
X157311Y473226D01*
X157833Y472444D01*
X158615Y471922D01*
X159536Y471739D01*
X160458Y471922D01*
X161239Y472444D01*
X161761Y473226D01*
X161945Y474147D01*
X161761Y475069D01*
X161239Y475850D01*
X160458Y476372D01*
X159536Y476556D01*
D02*
G37*
G36*
X256412Y476097D02*
X255490Y475913D01*
X254709Y475391D01*
X254187Y474610D01*
X254003Y473688D01*
X254187Y472766D01*
X254709Y471985D01*
X255490Y471463D01*
X256412Y471280D01*
X257333Y471463D01*
X258115Y471985D01*
X258637Y472766D01*
X258820Y473688D01*
X258637Y474610D01*
X258115Y475391D01*
X257333Y475913D01*
X256412Y476097D01*
D02*
G37*
G36*
X660900Y483708D02*
X659978Y483525D01*
X659197Y483003D01*
X658675Y482222D01*
X658492Y481300D01*
X658675Y480378D01*
X659197Y479597D01*
X659978Y479075D01*
X660900Y478892D01*
X661015Y478914D01*
X662294Y477635D01*
Y288959D01*
X661904Y288750D01*
X661794Y288747D01*
X661400Y288825D01*
Y286500D01*
Y284175D01*
X661794Y284253D01*
X661904Y284250D01*
X662294Y284041D01*
Y259565D01*
X645615Y242886D01*
X645500Y242909D01*
X644578Y242725D01*
X643797Y242203D01*
X643275Y241422D01*
X643091Y240500D01*
X643275Y239578D01*
X643797Y238797D01*
X644578Y238275D01*
X645500Y238091D01*
X646422Y238275D01*
X647203Y238797D01*
X647725Y239578D01*
X647908Y240500D01*
X647886Y240615D01*
X665035Y257765D01*
X665383Y258285D01*
X665506Y258900D01*
X665506Y258900D01*
Y466322D01*
X666006Y466371D01*
X666132Y465735D01*
X666654Y464954D01*
X667436Y464432D01*
X668357Y464249D01*
X669279Y464432D01*
X670060Y464954D01*
X670582Y465735D01*
X670766Y466657D01*
X670582Y467579D01*
X670060Y468360D01*
X669279Y468882D01*
X668357Y469066D01*
X667436Y468882D01*
X666654Y468360D01*
X666132Y467579D01*
X666006Y466943D01*
X665506Y466993D01*
Y478300D01*
X665506Y478300D01*
X665383Y478914D01*
X665035Y479435D01*
X663286Y481185D01*
X663308Y481300D01*
X663125Y482222D01*
X662603Y483003D01*
X661822Y483525D01*
X660900Y483708D01*
D02*
G37*
G36*
X683695Y460825D02*
X682773Y460642D01*
X681992Y460120D01*
X681470Y459339D01*
X681287Y458417D01*
X681470Y457495D01*
X681992Y456714D01*
X682773Y456192D01*
X683695Y456008D01*
X684617Y456192D01*
X685398Y456714D01*
X685920Y457495D01*
X686104Y458417D01*
X685920Y459339D01*
X685398Y460120D01*
X684617Y460642D01*
X683695Y460825D01*
D02*
G37*
G36*
X159536Y459409D02*
X158615Y459225D01*
X157833Y458703D01*
X157311Y457922D01*
X157128Y457000D01*
X157311Y456078D01*
X157833Y455297D01*
X158615Y454775D01*
X159536Y454592D01*
X160458Y454775D01*
X161239Y455297D01*
X161761Y456078D01*
X161945Y457000D01*
X161761Y457922D01*
X161239Y458703D01*
X160458Y459225D01*
X159536Y459409D01*
D02*
G37*
G36*
X91432D02*
X90511Y459225D01*
X89729Y458703D01*
X89207Y457922D01*
X89024Y457000D01*
X89207Y456078D01*
X89729Y455297D01*
X90511Y454775D01*
X91432Y454592D01*
X92354Y454775D01*
X93135Y455297D01*
X93658Y456078D01*
X93841Y457000D01*
X93658Y457922D01*
X93135Y458703D01*
X92354Y459225D01*
X91432Y459409D01*
D02*
G37*
G36*
X813536Y455711D02*
X812614Y455528D01*
X811833Y455006D01*
X811311Y454224D01*
X811127Y453303D01*
X811311Y452381D01*
X811833Y451600D01*
X812614Y451078D01*
X813536Y450894D01*
X814458Y451078D01*
X815239Y451600D01*
X815761Y452381D01*
X815944Y453303D01*
X815761Y454224D01*
X815239Y455006D01*
X814458Y455528D01*
X813536Y455711D01*
D02*
G37*
G36*
X152450Y450159D02*
X151528Y449976D01*
X150747Y449453D01*
X150224Y448672D01*
X150041Y447750D01*
X150224Y446829D01*
X150747Y446047D01*
X151528Y445525D01*
X152450Y445342D01*
X153371Y445525D01*
X154153Y446047D01*
X154675Y446829D01*
X154858Y447750D01*
X154675Y448672D01*
X154153Y449453D01*
X153371Y449976D01*
X152450Y450159D01*
D02*
G37*
G36*
X599800Y444309D02*
X598878Y444125D01*
X598097Y443603D01*
X597575Y442822D01*
X597392Y441900D01*
X597575Y440978D01*
X598097Y440197D01*
X598878Y439675D01*
X599800Y439492D01*
X600722Y439675D01*
X601503Y440197D01*
X602025Y440978D01*
X602209Y441900D01*
X602025Y442822D01*
X601503Y443603D01*
X600722Y444125D01*
X599800Y444309D01*
D02*
G37*
G36*
X59054Y437869D02*
X59054Y437869D01*
X59054Y437869D01*
X58672Y437793D01*
X58286Y437716D01*
X58286Y437716D01*
X58286Y437716D01*
X57963Y437500D01*
X57635Y437281D01*
X57635Y437281D01*
X57635Y437281D01*
X57415Y436953D01*
X57200Y436630D01*
X57200Y436630D01*
X57200Y436630D01*
X57123Y436244D01*
X57047Y435862D01*
X57047Y435862D01*
X57047Y435862D01*
X57123Y435480D01*
X57200Y435094D01*
X57200Y435094D01*
X57200Y435094D01*
X57416Y434771D01*
X57635Y434443D01*
X57635Y434443D01*
X57635Y434443D01*
X57964Y434223D01*
X58286Y434008D01*
X58286Y434008D01*
X58287Y434008D01*
X58673Y433931D01*
X59054Y433855D01*
X59054Y433855D01*
X59055Y433855D01*
X59437Y433931D01*
X59822Y434008D01*
X59822Y434008D01*
X59823Y434008D01*
X60145Y434224D01*
X60473Y434443D01*
X60474Y434443D01*
X60474Y434443D01*
X60693Y434772D01*
X60909Y435094D01*
X60909Y435094D01*
X60909Y435095D01*
X60985Y435481D01*
X61061Y435862D01*
X61061Y435862D01*
X61061Y435863D01*
X60985Y436245D01*
X60909Y436630D01*
X60908Y436630D01*
X60908Y436631D01*
X60693Y436953D01*
X60473Y437281D01*
X60473Y437282D01*
X60473Y437282D01*
X60145Y437501D01*
X59822Y437716D01*
X59822Y437716D01*
X59822Y437717D01*
X59436Y437793D01*
X59054Y437869D01*
D02*
G37*
G36*
X826790Y439709D02*
X825869Y439525D01*
X825087Y439003D01*
X824565Y438222D01*
X824382Y437300D01*
X824565Y436378D01*
X825087Y435597D01*
X825869Y435075D01*
X826790Y434892D01*
X827712Y435075D01*
X828493Y435597D01*
X829016Y436378D01*
X829199Y437300D01*
X829016Y438222D01*
X828493Y439003D01*
X827712Y439525D01*
X826790Y439709D01*
D02*
G37*
G36*
X644313Y437809D02*
X643391Y437625D01*
X642610Y437103D01*
X642087Y436322D01*
X641904Y435400D01*
X642087Y434478D01*
X642610Y433697D01*
X643391Y433175D01*
X644313Y432992D01*
X645234Y433175D01*
X646016Y433697D01*
X646538Y434478D01*
X646721Y435400D01*
X646538Y436322D01*
X646016Y437103D01*
X645234Y437625D01*
X644313Y437809D01*
D02*
G37*
G36*
X807206Y431744D02*
X807204Y431744D01*
X807203Y431744D01*
X806820Y431668D01*
X806437Y431593D01*
X806436Y431592D01*
X806435Y431592D01*
X806108Y431374D01*
X805786Y431159D01*
X805785Y431157D01*
X805784Y431157D01*
X805567Y430833D01*
X805350Y430508D01*
X805349Y430507D01*
X805348Y430506D01*
X805273Y430126D01*
X805196Y429740D01*
X805196Y429739D01*
X805196Y429737D01*
X805272Y429355D01*
X805347Y428972D01*
X805348Y428971D01*
X805348Y428969D01*
X805567Y428643D01*
X805781Y428320D01*
X805783Y428319D01*
X805784Y428318D01*
X806108Y428102D01*
X806432Y427884D01*
X806433Y427884D01*
X806435Y427883D01*
X806815Y427808D01*
X807200Y427730D01*
X807201Y427731D01*
X807203Y427730D01*
X807585Y427806D01*
X807968Y427882D01*
X807969Y427883D01*
X807971Y427883D01*
X808297Y428101D01*
X808620Y428316D01*
X808621Y428317D01*
X808622Y428318D01*
X808838Y428642D01*
X809056Y428967D01*
X809056Y428968D01*
X809057Y428969D01*
X809133Y429349D01*
X809210Y429735D01*
X809210Y429736D01*
X809210Y429737D01*
X809134Y430120D01*
X809058Y430503D01*
X809057Y430504D01*
X809057Y430506D01*
X808839Y430832D01*
X808624Y431155D01*
X808623Y431155D01*
X808622Y431157D01*
X808298Y431373D01*
X807974Y431591D01*
X807972Y431591D01*
X807971Y431592D01*
X807591Y431667D01*
X807206Y431744D01*
D02*
G37*
G36*
X36300Y434908D02*
X35378Y434725D01*
X34597Y434203D01*
X34075Y433422D01*
X33891Y432500D01*
X34075Y431578D01*
X34597Y430797D01*
X35378Y430275D01*
X36300Y430091D01*
X37222Y430275D01*
X38003Y430797D01*
X38525Y431578D01*
X38708Y432500D01*
X38525Y433422D01*
X38003Y434203D01*
X37222Y434725D01*
X36300Y434908D01*
D02*
G37*
G36*
X823300Y434708D02*
X822378Y434525D01*
X821597Y434003D01*
X821075Y433222D01*
X820891Y432300D01*
X821075Y431378D01*
X821597Y430597D01*
X822378Y430075D01*
X823300Y429891D01*
X824222Y430075D01*
X825003Y430597D01*
X825525Y431378D01*
X825708Y432300D01*
X825525Y433222D01*
X825003Y434003D01*
X824222Y434525D01*
X823300Y434708D01*
D02*
G37*
G36*
X204431Y433878D02*
X203509Y433694D01*
X202728Y433172D01*
X202206Y432391D01*
X202022Y431469D01*
X202206Y430548D01*
X202728Y429766D01*
X203509Y429244D01*
X204431Y429061D01*
X205352Y429244D01*
X206134Y429766D01*
X206656Y430548D01*
X206839Y431469D01*
X206656Y432391D01*
X206134Y433172D01*
X205352Y433694D01*
X204431Y433878D01*
D02*
G37*
G36*
X306377Y423796D02*
X305455Y423612D01*
X304674Y423090D01*
X304152Y422309D01*
X303969Y421387D01*
X304152Y420466D01*
X304674Y419684D01*
X305455Y419162D01*
X306377Y418979D01*
X307299Y419162D01*
X308080Y419684D01*
X308602Y420466D01*
X308786Y421387D01*
X308602Y422309D01*
X308080Y423090D01*
X307299Y423612D01*
X306377Y423796D01*
D02*
G37*
G36*
X649957Y419794D02*
X649036Y419610D01*
X648254Y419088D01*
X647732Y418307D01*
X647549Y417385D01*
X647732Y416464D01*
X648254Y415682D01*
X649036Y415160D01*
X649957Y414977D01*
X650879Y415160D01*
X651660Y415682D01*
X652182Y416464D01*
X652366Y417385D01*
X652182Y418307D01*
X651660Y419088D01*
X650879Y419610D01*
X649957Y419794D01*
D02*
G37*
G36*
X167200Y416325D02*
Y414500D01*
X169025D01*
X168940Y414928D01*
X168414Y415714D01*
X167628Y416240D01*
X167200Y416325D01*
D02*
G37*
G36*
X166200D02*
X165772Y416240D01*
X164986Y415714D01*
X164460Y414928D01*
X164375Y414500D01*
X166200D01*
Y416325D01*
D02*
G37*
G36*
X263500Y418709D02*
X262578Y418525D01*
X261797Y418003D01*
X261275Y417222D01*
X261091Y416300D01*
X261275Y415378D01*
X261797Y414597D01*
X262578Y414075D01*
X263500Y413892D01*
X264422Y414075D01*
X265203Y414597D01*
X265725Y415378D01*
X265909Y416300D01*
X265725Y417222D01*
X265203Y418003D01*
X264422Y418525D01*
X263500Y418709D01*
D02*
G37*
G36*
X152400D02*
X151478Y418525D01*
X150697Y418003D01*
X150175Y417222D01*
X149992Y416300D01*
X150175Y415378D01*
X150697Y414597D01*
X151478Y414075D01*
X152400Y413892D01*
X153322Y414075D01*
X154103Y414597D01*
X154625Y415378D01*
X154808Y416300D01*
X154625Y417222D01*
X154103Y418003D01*
X153322Y418525D01*
X152400Y418709D01*
D02*
G37*
G36*
X169025Y413500D02*
X167200D01*
Y411675D01*
X167628Y411760D01*
X168414Y412286D01*
X168940Y413072D01*
X169025Y413500D01*
D02*
G37*
G36*
X166200D02*
X164375D01*
X164460Y413072D01*
X164986Y412286D01*
X165772Y411760D01*
X166200Y411675D01*
Y413500D01*
D02*
G37*
G36*
X636900Y410909D02*
X635978Y410725D01*
X635197Y410203D01*
X634675Y409422D01*
X634491Y408500D01*
X634675Y407578D01*
X635197Y406797D01*
X635978Y406275D01*
X636900Y406091D01*
X637822Y406275D01*
X638603Y406797D01*
X639125Y407578D01*
X639309Y408500D01*
X639125Y409422D01*
X638603Y410203D01*
X637822Y410725D01*
X636900Y410909D01*
D02*
G37*
G36*
X147200Y404008D02*
X146278Y403825D01*
X145497Y403303D01*
X144975Y402522D01*
X144791Y401600D01*
X144975Y400678D01*
X145497Y399897D01*
X146278Y399375D01*
X147200Y399191D01*
X148122Y399375D01*
X148903Y399897D01*
X149425Y400678D01*
X149609Y401600D01*
X149425Y402522D01*
X148903Y403303D01*
X148122Y403825D01*
X147200Y404008D01*
D02*
G37*
G36*
X593500Y395409D02*
X592578Y395225D01*
X591797Y394703D01*
X591275Y393922D01*
X591091Y393000D01*
X591114Y392885D01*
X584416Y386187D01*
X584068Y385666D01*
X583946Y385052D01*
X583946Y385052D01*
Y271980D01*
X583849Y271915D01*
X583327Y271134D01*
X583143Y270212D01*
X583327Y269290D01*
X583849Y268509D01*
X584630Y267987D01*
X585552Y267804D01*
X586474Y267987D01*
X587255Y268509D01*
X587777Y269290D01*
X587960Y270212D01*
X587777Y271134D01*
X587255Y271915D01*
X587157Y271980D01*
Y384387D01*
X593385Y390614D01*
X593500Y390592D01*
X594422Y390775D01*
X595203Y391297D01*
X595725Y392078D01*
X595908Y393000D01*
X595725Y393922D01*
X595203Y394703D01*
X594422Y395225D01*
X593500Y395409D01*
D02*
G37*
G36*
X152450Y366408D02*
X151528Y366225D01*
X150747Y365703D01*
X150224Y364922D01*
X150041Y364000D01*
X150224Y363078D01*
X150747Y362297D01*
X151528Y361775D01*
X152450Y361592D01*
X153371Y361775D01*
X154153Y362297D01*
X154675Y363078D01*
X154858Y364000D01*
X154675Y364922D01*
X154153Y365703D01*
X153371Y366225D01*
X152450Y366408D01*
D02*
G37*
G36*
X36300Y365509D02*
X35378Y365325D01*
X34597Y364803D01*
X34075Y364022D01*
X33891Y363100D01*
X34075Y362178D01*
X34597Y361397D01*
X35378Y360875D01*
X36300Y360691D01*
X37222Y360875D01*
X38003Y361397D01*
X38525Y362178D01*
X38708Y363100D01*
X38525Y364022D01*
X38003Y364803D01*
X37222Y365325D01*
X36300Y365509D01*
D02*
G37*
G36*
X256412Y360220D02*
X255490Y360037D01*
X254709Y359515D01*
X254187Y358734D01*
X254003Y357812D01*
X254026Y357697D01*
X247265Y350935D01*
X246917Y350414D01*
X246794Y349800D01*
X246794Y349800D01*
Y287368D01*
X246697Y287303D01*
X246175Y286522D01*
X245991Y285600D01*
X246175Y284678D01*
X246697Y283897D01*
X247478Y283375D01*
X248400Y283191D01*
X249322Y283375D01*
X250103Y283897D01*
X250625Y284678D01*
X250809Y285600D01*
X250625Y286522D01*
X250103Y287303D01*
X250006Y287368D01*
Y349135D01*
X256297Y355426D01*
X256412Y355403D01*
X257333Y355587D01*
X258115Y356109D01*
X258637Y356890D01*
X258820Y357812D01*
X258637Y358734D01*
X258115Y359515D01*
X257333Y360037D01*
X256412Y360220D01*
D02*
G37*
G36*
X152450Y347809D02*
X151528Y347625D01*
X150747Y347103D01*
X150224Y346322D01*
X150041Y345400D01*
X150224Y344478D01*
X150747Y343697D01*
X151528Y343175D01*
X152450Y342991D01*
X153371Y343175D01*
X154153Y343697D01*
X154675Y344478D01*
X154858Y345400D01*
X154675Y346322D01*
X154153Y347103D01*
X153371Y347625D01*
X152450Y347809D01*
D02*
G37*
G36*
X263498Y356707D02*
X262884Y356585D01*
X262363Y356237D01*
X262015Y355716D01*
X261893Y355102D01*
Y336531D01*
X261431Y336340D01*
X255406Y342365D01*
Y343632D01*
X255503Y343697D01*
X256025Y344478D01*
X256208Y345400D01*
X256025Y346322D01*
X255503Y347103D01*
X254722Y347625D01*
X253800Y347809D01*
X252878Y347625D01*
X252097Y347103D01*
X251575Y346322D01*
X251392Y345400D01*
X251575Y344478D01*
X252097Y343697D01*
X252194Y343632D01*
Y341700D01*
X252194Y341700D01*
X252317Y341086D01*
X252665Y340565D01*
X262363Y330866D01*
X268340Y324889D01*
X268257Y324472D01*
X268440Y323551D01*
X268962Y322769D01*
X269743Y322247D01*
X270665Y322064D01*
X271587Y322247D01*
X272368Y322769D01*
X272890Y323551D01*
X273074Y324472D01*
X272890Y325394D01*
X272368Y326175D01*
X271587Y326697D01*
X270946Y326825D01*
X265104Y332667D01*
Y355102D01*
X264982Y355716D01*
X264634Y356237D01*
X264113Y356585D01*
X263498Y356707D01*
D02*
G37*
G36*
X554477Y335990D02*
X554390Y335972D01*
X554302Y335982D01*
X554008Y335896D01*
X553709Y335837D01*
X553635Y335788D01*
X553550Y335763D01*
X553311Y335572D01*
X553057Y335402D01*
X553008Y335328D01*
X552939Y335273D01*
X552792Y335005D01*
X552622Y334751D01*
X552605Y334664D01*
X552562Y334586D01*
X552529Y334282D01*
X552469Y333983D01*
X552487Y333896D01*
X552477Y333808D01*
X552563Y333514D01*
X552622Y333214D01*
X552671Y333141D01*
X552696Y333056D01*
X552888Y332818D01*
X553057Y332563D01*
X553131Y332514D01*
X553187Y332445D01*
X553454Y332298D01*
X553709Y332128D01*
X553795Y332111D01*
X553873Y332068D01*
X554177Y332035D01*
X554477Y331976D01*
X554564Y331993D01*
X554651Y331983D01*
X554945Y332069D01*
X555245Y332128D01*
X555318Y332177D01*
X555403Y332202D01*
X555642Y332394D01*
X555896Y332563D01*
X555945Y332637D01*
X556014Y332693D01*
X556161Y332960D01*
X556331Y333214D01*
X556348Y333301D01*
X556391Y333379D01*
X556424Y333683D01*
X556484Y333983D01*
X556466Y334069D01*
X556476Y334157D01*
X556390Y334451D01*
X556331Y334751D01*
X556282Y334824D01*
X556257Y334909D01*
X556066Y335148D01*
X555896Y335402D01*
X555822Y335451D01*
X555767Y335520D01*
X555499Y335667D01*
X555245Y335837D01*
X555158Y335854D01*
X555080Y335897D01*
X554776Y335930D01*
X554477Y335990D01*
D02*
G37*
G36*
X315238Y331713D02*
X314939Y331654D01*
X314635Y331620D01*
X314557Y331578D01*
X314470Y331560D01*
X314216Y331391D01*
X313948Y331244D01*
X313893Y331175D01*
X313819Y331125D01*
X313649Y330871D01*
X313458Y330633D01*
X313433Y330548D01*
X313384Y330474D01*
X313324Y330174D01*
X313239Y329881D01*
X313249Y329793D01*
X313231Y329706D01*
X313291Y329406D01*
X313324Y329103D01*
X313367Y329025D01*
X313384Y328938D01*
X313554Y328684D01*
X313701Y328416D01*
X313770Y328361D01*
X313819Y328287D01*
X314073Y328117D01*
X314312Y327926D01*
X314397Y327901D01*
X314470Y327852D01*
X314770Y327792D01*
X315064Y327707D01*
X315152Y327716D01*
X315238Y327699D01*
X315538Y327759D01*
X315842Y327792D01*
X315920Y327835D01*
X316006Y327852D01*
X316261Y328022D01*
X316529Y328169D01*
X316584Y328238D01*
X316658Y328287D01*
X316827Y328541D01*
X317019Y328779D01*
X317043Y328865D01*
X317093Y328938D01*
X317152Y329238D01*
X317238Y329531D01*
X317228Y329619D01*
X317246Y329706D01*
X317186Y330006D01*
X317153Y330310D01*
X317110Y330387D01*
X317093Y330474D01*
X316923Y330728D01*
X316776Y330996D01*
X316707Y331052D01*
X316658Y331125D01*
X316404Y331295D01*
X316165Y331487D01*
X316080Y331511D01*
X316006Y331560D01*
X315707Y331620D01*
X315413Y331706D01*
X315325Y331696D01*
X315238Y331713D01*
D02*
G37*
G36*
X295100Y332007D02*
X294178Y331824D01*
X293397Y331302D01*
X292875Y330520D01*
X292691Y329599D01*
X292875Y328677D01*
X293397Y327896D01*
X294178Y327374D01*
X295100Y327190D01*
X296022Y327374D01*
X296803Y327896D01*
X297325Y328677D01*
X297509Y329599D01*
X297325Y330520D01*
X296803Y331302D01*
X296022Y331824D01*
X295100Y332007D01*
D02*
G37*
G36*
X263498Y327373D02*
X262577Y327190D01*
X261795Y326668D01*
X261273Y325886D01*
X261090Y324965D01*
X261273Y324043D01*
X261795Y323261D01*
X262577Y322739D01*
X263498Y322556D01*
X264420Y322739D01*
X265201Y323261D01*
X265723Y324043D01*
X265907Y324965D01*
X265723Y325886D01*
X265201Y326668D01*
X264420Y327190D01*
X263498Y327373D01*
D02*
G37*
G36*
X201931D02*
X201009Y327190D01*
X200228Y326668D01*
X199706Y325886D01*
X199522Y324965D01*
X199706Y324043D01*
X200228Y323261D01*
X201009Y322739D01*
X201931Y322556D01*
X202853Y322739D01*
X203634Y323261D01*
X204156Y324043D01*
X204339Y324965D01*
X204156Y325886D01*
X203634Y326668D01*
X202853Y327190D01*
X201931Y327373D01*
D02*
G37*
G36*
X326606Y327165D02*
X325684Y326981D01*
X324903Y326459D01*
X324381Y325678D01*
X324197Y324756D01*
X324220Y324641D01*
X319779Y320200D01*
X266201D01*
X266136Y320297D01*
X265355Y320819D01*
X264433Y321003D01*
X263511Y320819D01*
X262730Y320297D01*
X262208Y319516D01*
X262025Y318594D01*
X262208Y317672D01*
X262730Y316891D01*
X263511Y316369D01*
X264433Y316186D01*
X265355Y316369D01*
X266136Y316891D01*
X266201Y316988D01*
X320444D01*
X320444Y316988D01*
X321058Y317111D01*
X321579Y317459D01*
X326491Y322370D01*
X326606Y322347D01*
X327527Y322531D01*
X328309Y323053D01*
X328831Y323834D01*
X329014Y324756D01*
X328831Y325678D01*
X328309Y326459D01*
X327527Y326981D01*
X326606Y327165D01*
D02*
G37*
G36*
X433071Y552712D02*
X426363Y552524D01*
X419675Y551960D01*
X413030Y551022D01*
X406448Y549713D01*
X399950Y548036D01*
X393556Y545998D01*
X387286Y543605D01*
X381160Y540864D01*
X375198Y537784D01*
X369418Y534374D01*
X363838Y530646D01*
X358476Y526610D01*
X353348Y522281D01*
X348471Y517670D01*
X343861Y512794D01*
X339531Y507666D01*
X335496Y502304D01*
X331768Y496724D01*
X328358Y490944D01*
X325278Y484981D01*
X322536Y478856D01*
X320143Y472586D01*
X318105Y466192D01*
X316429Y459694D01*
X315120Y453112D01*
X314182Y446466D01*
X313617Y439779D01*
X313429Y433071D01*
X313617Y426363D01*
X314182Y419675D01*
X315120Y413030D01*
X316429Y406448D01*
X318105Y399950D01*
X320143Y393556D01*
X322536Y387286D01*
X325278Y381160D01*
X328358Y375198D01*
X331768Y369418D01*
X335496Y363838D01*
X339531Y358476D01*
X343861Y353348D01*
X348471Y348471D01*
X353348Y343861D01*
X358476Y339531D01*
X363838Y335496D01*
X369418Y331768D01*
X375198Y328358D01*
X381160Y325278D01*
X387286Y322536D01*
X393556Y320143D01*
X399950Y318105D01*
X406448Y316429D01*
X413030Y315120D01*
X419675Y314182D01*
X426363Y313617D01*
X433071Y313429D01*
X439779Y313617D01*
X446466Y314182D01*
X453112Y315120D01*
X459694Y316429D01*
X466192Y318105D01*
X472586Y320143D01*
X478856Y322536D01*
X484981Y325278D01*
X490944Y328358D01*
X496724Y331768D01*
X502304Y335496D01*
X507666Y339531D01*
X512794Y343861D01*
X517670Y348471D01*
X522281Y353348D01*
X526610Y358476D01*
X530646Y363838D01*
X534374Y369418D01*
X537784Y375198D01*
X540864Y381160D01*
X543605Y387286D01*
X545998Y393556D01*
X548036Y399950D01*
X549713Y406448D01*
X551022Y413030D01*
X551960Y419675D01*
X552524Y426363D01*
X552712Y433071D01*
X552524Y439779D01*
X551960Y446466D01*
X551022Y453112D01*
X549713Y459694D01*
X548036Y466192D01*
X545998Y472586D01*
X543605Y478856D01*
X540864Y484981D01*
X537784Y490944D01*
X534374Y496724D01*
X530646Y502304D01*
X526610Y507666D01*
X522281Y512794D01*
X517670Y517670D01*
X512794Y522281D01*
X507666Y526610D01*
X502304Y530646D01*
X496724Y534374D01*
X490944Y537784D01*
X484981Y540864D01*
X478856Y543605D01*
X472586Y545998D01*
X466192Y548036D01*
X459694Y549713D01*
X453112Y551022D01*
X446466Y551960D01*
X439779Y552524D01*
X433071Y552712D01*
D02*
G37*
G36*
X654942Y521909D02*
X654021Y521725D01*
X653239Y521203D01*
X652717Y520422D01*
X652534Y519500D01*
X652717Y518578D01*
X653239Y517797D01*
X653337Y517732D01*
Y306008D01*
X643215Y295886D01*
X643100Y295908D01*
X642178Y295725D01*
X641397Y295203D01*
X640875Y294422D01*
X640692Y293500D01*
X640875Y292578D01*
X641397Y291797D01*
X642178Y291275D01*
X643100Y291091D01*
X644022Y291275D01*
X644803Y291797D01*
X645325Y292578D01*
X645508Y293500D01*
X645486Y293615D01*
X656078Y304207D01*
X656078Y304207D01*
X656426Y304728D01*
X656548Y305342D01*
Y517732D01*
X656645Y517797D01*
X657168Y518578D01*
X657351Y519500D01*
X657168Y520422D01*
X656645Y521203D01*
X655864Y521725D01*
X654942Y521909D01*
D02*
G37*
G36*
X152450Y294559D02*
X151528Y294376D01*
X150747Y293853D01*
X150224Y293072D01*
X150041Y292150D01*
X150224Y291229D01*
X150747Y290447D01*
X151528Y289925D01*
X152450Y289742D01*
X153371Y289925D01*
X154153Y290447D01*
X154675Y291229D01*
X154858Y292150D01*
X154675Y293072D01*
X154153Y293853D01*
X153371Y294376D01*
X152450Y294559D01*
D02*
G37*
G36*
X660400Y288825D02*
X659972Y288740D01*
X659186Y288214D01*
X658660Y287428D01*
X658575Y287000D01*
X660400D01*
Y288825D01*
D02*
G37*
G36*
X596358Y289844D02*
X595436Y289661D01*
X594655Y289139D01*
X594133Y288357D01*
X593949Y287435D01*
X594099Y286685D01*
X594093Y286671D01*
X593758Y286319D01*
X593706Y286292D01*
X592986Y286435D01*
X592064Y286252D01*
X591283Y285730D01*
X590761Y284949D01*
X590577Y284027D01*
X590761Y283105D01*
X591283Y282324D01*
X592064Y281802D01*
X592986Y281618D01*
X593907Y281802D01*
X594252Y282032D01*
X594752Y281765D01*
Y273252D01*
X580646Y259145D01*
X578682D01*
X578617Y259243D01*
X577836Y259765D01*
X576914Y259948D01*
X575992Y259765D01*
X575211Y259243D01*
X574689Y258461D01*
X574505Y257540D01*
X574689Y256618D01*
X575211Y255837D01*
X575992Y255314D01*
X576914Y255131D01*
X577836Y255314D01*
X578617Y255837D01*
X578682Y255934D01*
X581311D01*
X581311Y255934D01*
X581925Y256056D01*
X582446Y256404D01*
X597493Y271451D01*
X597493Y271451D01*
X597841Y271972D01*
X597964Y272587D01*
X597964Y272587D01*
Y285667D01*
X598061Y285732D01*
X598583Y286514D01*
X598766Y287435D01*
X598583Y288357D01*
X598061Y289139D01*
X597280Y289661D01*
X596358Y289844D01*
D02*
G37*
G36*
X545542Y290850D02*
X544620Y290667D01*
X543839Y290145D01*
X543317Y289364D01*
X543133Y288442D01*
X543317Y287520D01*
X543839Y286739D01*
X544620Y286217D01*
X545542Y286034D01*
X546464Y286217D01*
X547245Y286739D01*
X547767Y287520D01*
X547951Y288442D01*
X547767Y289364D01*
X547245Y290145D01*
X546464Y290667D01*
X545542Y290850D01*
D02*
G37*
G36*
X660400Y286000D02*
X658575D01*
X658660Y285572D01*
X659186Y284786D01*
X659972Y284260D01*
X660400Y284175D01*
Y286000D01*
D02*
G37*
G36*
X675299Y282533D02*
Y280708D01*
X677125D01*
X677039Y281136D01*
X676514Y281922D01*
X675727Y282448D01*
X675299Y282533D01*
D02*
G37*
G36*
X674299D02*
X673872Y282448D01*
X673085Y281922D01*
X672559Y281136D01*
X672474Y280708D01*
X674299D01*
Y282533D01*
D02*
G37*
G36*
X677125Y279708D02*
X675299D01*
Y277883D01*
X675727Y277968D01*
X676514Y278493D01*
X677039Y279280D01*
X677125Y279708D01*
D02*
G37*
G36*
X674299D02*
X672474D01*
X672559Y279280D01*
X673085Y278493D01*
X673872Y277968D01*
X674299Y277883D01*
Y279708D01*
D02*
G37*
G36*
X211517Y281709D02*
X210596Y281525D01*
X209814Y281003D01*
X209292Y280222D01*
X209109Y279300D01*
X209292Y278378D01*
X209814Y277597D01*
X210596Y277075D01*
X211517Y276891D01*
X212439Y277075D01*
X213220Y277597D01*
X213742Y278378D01*
X213926Y279300D01*
X213742Y280222D01*
X213220Y281003D01*
X212439Y281525D01*
X211517Y281709D01*
D02*
G37*
G36*
X630013Y278798D02*
X629091Y278615D01*
X628310Y278093D01*
X627788Y277311D01*
X627605Y276390D01*
X627788Y275468D01*
X628310Y274687D01*
X629091Y274164D01*
X630013Y273981D01*
X630935Y274164D01*
X631716Y274687D01*
X632238Y275468D01*
X632422Y276390D01*
X632238Y277311D01*
X631716Y278093D01*
X630935Y278615D01*
X630013Y278798D01*
D02*
G37*
G36*
X160036Y275225D02*
Y273400D01*
X161861D01*
X161776Y273828D01*
X161251Y274614D01*
X160464Y275140D01*
X160036Y275225D01*
D02*
G37*
G36*
X159036D02*
X158608Y275140D01*
X157822Y274614D01*
X157296Y273828D01*
X157211Y273400D01*
X159036D01*
Y275225D01*
D02*
G37*
G36*
X652301Y274926D02*
Y273101D01*
X654126D01*
X654041Y273528D01*
X653515Y274315D01*
X652728Y274841D01*
X652301Y274926D01*
D02*
G37*
G36*
X651301D02*
X650873Y274841D01*
X650086Y274315D01*
X649561Y273528D01*
X649475Y273101D01*
X651301D01*
Y274926D01*
D02*
G37*
G36*
X161861Y272400D02*
X160036D01*
Y270575D01*
X160464Y270660D01*
X161251Y271186D01*
X161776Y271972D01*
X161861Y272400D01*
D02*
G37*
G36*
X159036D02*
X157211D01*
X157296Y271972D01*
X157822Y271186D01*
X158608Y270660D01*
X159036Y270575D01*
Y272400D01*
D02*
G37*
G36*
X654126Y272101D02*
X652301D01*
Y270275D01*
X652728Y270361D01*
X653515Y270886D01*
X654041Y271673D01*
X654126Y272101D01*
D02*
G37*
G36*
X651301D02*
X649475D01*
X649561Y271673D01*
X650086Y270886D01*
X650873Y270361D01*
X651301Y270275D01*
Y272101D01*
D02*
G37*
G36*
X558742Y273351D02*
X557820Y273167D01*
X557039Y272645D01*
X556517Y271864D01*
X556333Y270942D01*
X556517Y270020D01*
X557039Y269239D01*
X557820Y268717D01*
X558742Y268533D01*
X559664Y268717D01*
X560445Y269239D01*
X560967Y270020D01*
X561151Y270942D01*
X560967Y271864D01*
X560445Y272645D01*
X559664Y273167D01*
X558742Y273351D01*
D02*
G37*
G36*
X212400Y273308D02*
X211478Y273125D01*
X210697Y272603D01*
X210175Y271822D01*
X209992Y270900D01*
X210175Y269978D01*
X210697Y269197D01*
X211478Y268675D01*
X212400Y268492D01*
X213322Y268675D01*
X214103Y269197D01*
X214625Y269978D01*
X214809Y270900D01*
X214625Y271822D01*
X214103Y272603D01*
X213322Y273125D01*
X212400Y273308D01*
D02*
G37*
G36*
X600100Y272409D02*
X599178Y272225D01*
X598397Y271703D01*
X597875Y270922D01*
X597691Y270000D01*
X597875Y269078D01*
X598397Y268297D01*
X599178Y267775D01*
X600100Y267592D01*
X601022Y267775D01*
X601803Y268297D01*
X602325Y269078D01*
X602508Y270000D01*
X602325Y270922D01*
X601803Y271703D01*
X601022Y272225D01*
X600100Y272409D01*
D02*
G37*
G36*
X627584Y271349D02*
X626662Y271166D01*
X625881Y270644D01*
X625359Y269863D01*
X625175Y268941D01*
X625359Y268019D01*
X625881Y267238D01*
X626662Y266716D01*
X627584Y266532D01*
X628506Y266716D01*
X629287Y267238D01*
X629809Y268019D01*
X629992Y268941D01*
X629809Y269863D01*
X629287Y270644D01*
X628506Y271166D01*
X627584Y271349D01*
D02*
G37*
G36*
X107764Y250485D02*
X107633Y250459D01*
X107499Y250468D01*
X107252Y250383D01*
X106996Y250332D01*
X106885Y250258D01*
X106758Y250215D01*
X106562Y250042D01*
X106345Y249897D01*
X106271Y249786D01*
X106170Y249698D01*
X106055Y249463D01*
X105910Y249246D01*
X105884Y249115D01*
X105825Y248995D01*
X105808Y248734D01*
X105757Y248478D01*
X105783Y248347D01*
X105775Y248213D01*
X105859Y247966D01*
X105910Y247710D01*
X105984Y247599D01*
X106028Y247472D01*
X106200Y247276D01*
X106345Y247059D01*
X106456Y246985D01*
X106545Y246884D01*
X106779Y246769D01*
X106996Y246624D01*
X107127Y246598D01*
X107248Y246539D01*
X107508Y246522D01*
X107764Y246471D01*
X107896Y246497D01*
X108029Y246489D01*
X108276Y246573D01*
X108532Y246624D01*
X108644Y246698D01*
X108770Y246742D01*
X108966Y246914D01*
X109183Y247059D01*
X109258Y247170D01*
X109358Y247259D01*
X109474Y247493D01*
X109618Y247710D01*
X109645Y247842D01*
X109704Y247962D01*
X109720Y248222D01*
X109771Y248478D01*
X109745Y248609D01*
X109754Y248743D01*
X109669Y248990D01*
X109618Y249246D01*
X109544Y249358D01*
X109501Y249484D01*
X109328Y249680D01*
X109183Y249897D01*
X109072Y249972D01*
X108984Y250072D01*
X108749Y250187D01*
X108532Y250332D01*
X108401Y250359D01*
X108281Y250418D01*
X108020Y250434D01*
X107764Y250485D01*
D02*
G37*
G36*
X700200Y250908D02*
X699278Y250725D01*
X698497Y250203D01*
X697975Y249422D01*
X697791Y248500D01*
X697975Y247578D01*
X698497Y246797D01*
X699278Y246275D01*
X700200Y246092D01*
X701122Y246275D01*
X701903Y246797D01*
X702425Y247578D01*
X702608Y248500D01*
X702425Y249422D01*
X701903Y250203D01*
X701122Y250725D01*
X700200Y250908D01*
D02*
G37*
G36*
X152450Y249109D02*
X151528Y248925D01*
X150747Y248403D01*
X150224Y247622D01*
X150041Y246700D01*
X150224Y245778D01*
X150747Y244997D01*
X151528Y244475D01*
X152450Y244291D01*
X153371Y244475D01*
X154153Y244997D01*
X154675Y245778D01*
X154858Y246700D01*
X154675Y247622D01*
X154153Y248403D01*
X153371Y248925D01*
X152450Y249109D01*
D02*
G37*
G36*
X755579Y245655D02*
X755323Y245604D01*
X755062Y245587D01*
X754942Y245528D01*
X754811Y245502D01*
X754594Y245357D01*
X754359Y245242D01*
X754271Y245141D01*
X754160Y245067D01*
X754015Y244850D01*
X753842Y244654D01*
X753799Y244527D01*
X753724Y244416D01*
X753674Y244160D01*
X753589Y243913D01*
X753598Y243779D01*
X753572Y243648D01*
X753623Y243392D01*
X753639Y243131D01*
X753698Y243011D01*
X753724Y242880D01*
X753869Y242663D01*
X753985Y242428D01*
X754085Y242340D01*
X754160Y242228D01*
X754377Y242083D01*
X754573Y241911D01*
X754699Y241868D01*
X754811Y241793D01*
X755067Y241742D01*
X755314Y241658D01*
X755447Y241667D01*
X755579Y241640D01*
X755835Y241691D01*
X756095Y241708D01*
X756215Y241767D01*
X756347Y241793D01*
X756564Y241938D01*
X756798Y242053D01*
X756887Y242154D01*
X756998Y242228D01*
X757143Y242445D01*
X757315Y242641D01*
X757359Y242768D01*
X757433Y242880D01*
X757484Y243136D01*
X757568Y243383D01*
X757560Y243516D01*
X757586Y243648D01*
X757535Y243904D01*
X757518Y244164D01*
X757459Y244284D01*
X757433Y244416D01*
X757288Y244633D01*
X757173Y244867D01*
X757072Y244955D01*
X756998Y245067D01*
X756781Y245212D01*
X756585Y245384D01*
X756458Y245427D01*
X756347Y245502D01*
X756091Y245553D01*
X755844Y245637D01*
X755710Y245628D01*
X755579Y245655D01*
D02*
G37*
G36*
X677000Y244209D02*
X676078Y244025D01*
X675297Y243503D01*
X674775Y242722D01*
X674591Y241800D01*
X674775Y240878D01*
X675297Y240097D01*
X676078Y239575D01*
X677000Y239391D01*
X677922Y239575D01*
X678703Y240097D01*
X679225Y240878D01*
X679409Y241800D01*
X679225Y242722D01*
X678703Y243503D01*
X677922Y244025D01*
X677000Y244209D01*
D02*
G37*
G36*
X656400Y241609D02*
X655478Y241425D01*
X654697Y240903D01*
X654175Y240122D01*
X653992Y239200D01*
X654175Y238278D01*
X654697Y237497D01*
X655478Y236975D01*
X656400Y236791D01*
X657322Y236975D01*
X658103Y237497D01*
X658625Y238278D01*
X658809Y239200D01*
X658625Y240122D01*
X658103Y240903D01*
X657322Y241425D01*
X656400Y241609D01*
D02*
G37*
G36*
X591934Y241458D02*
X591012Y241275D01*
X590231Y240753D01*
X589709Y239971D01*
X589526Y239050D01*
X589709Y238128D01*
X590231Y237347D01*
X591012Y236825D01*
X591934Y236641D01*
X592856Y236825D01*
X593637Y237347D01*
X594159Y238128D01*
X594343Y239050D01*
X594159Y239971D01*
X593637Y240753D01*
X592856Y241275D01*
X591934Y241458D01*
D02*
G37*
G36*
X576726Y238465D02*
X575804Y238282D01*
X575023Y237760D01*
X574501Y236979D01*
X574317Y236057D01*
X574501Y235135D01*
X575023Y234354D01*
X575804Y233832D01*
X576726Y233648D01*
X577648Y233832D01*
X578429Y234354D01*
X578951Y235135D01*
X579134Y236057D01*
X578951Y236979D01*
X578429Y237760D01*
X577648Y238282D01*
X576726Y238465D01*
D02*
G37*
G36*
X670600Y237509D02*
X669678Y237325D01*
X668897Y236803D01*
X668375Y236022D01*
X668191Y235100D01*
X668375Y234178D01*
X668897Y233397D01*
X669678Y232875D01*
X670600Y232692D01*
X671522Y232875D01*
X672303Y233397D01*
X672825Y234178D01*
X673008Y235100D01*
X672825Y236022D01*
X672303Y236803D01*
X671522Y237325D01*
X670600Y237509D01*
D02*
G37*
G36*
X152450Y236009D02*
X151528Y235826D01*
X150747Y235304D01*
X150224Y234523D01*
X150041Y233601D01*
X150224Y232679D01*
X150747Y231898D01*
X151528Y231376D01*
X152450Y231192D01*
X153371Y231376D01*
X154153Y231898D01*
X154675Y232679D01*
X154858Y233601D01*
X154675Y234523D01*
X154153Y235304D01*
X153371Y235826D01*
X152450Y236009D01*
D02*
G37*
G36*
X256412Y235997D02*
X255490Y235813D01*
X254709Y235291D01*
X254187Y234510D01*
X254003Y233588D01*
X254187Y232666D01*
X254709Y231885D01*
X255490Y231363D01*
X256412Y231180D01*
X257333Y231363D01*
X258115Y231885D01*
X258637Y232666D01*
X258820Y233588D01*
X258637Y234510D01*
X258115Y235291D01*
X257333Y235813D01*
X256412Y235997D01*
D02*
G37*
G36*
X557163Y234646D02*
X556241Y234462D01*
X555460Y233940D01*
X554938Y233159D01*
X554754Y232237D01*
X554938Y231315D01*
X555460Y230534D01*
X556241Y230012D01*
X557163Y229829D01*
X558084Y230012D01*
X558866Y230534D01*
X559388Y231315D01*
X559571Y232237D01*
X559388Y233159D01*
X558866Y233940D01*
X558084Y234462D01*
X557163Y234646D01*
D02*
G37*
G36*
X703900Y226409D02*
X702978Y226225D01*
X702197Y225703D01*
X701675Y224922D01*
X701491Y224000D01*
X701675Y223078D01*
X702197Y222297D01*
X702978Y221775D01*
X703900Y221591D01*
X704822Y221775D01*
X705603Y222297D01*
X706125Y223078D01*
X706309Y224000D01*
X706125Y224922D01*
X705603Y225703D01*
X704822Y226225D01*
X703900Y226409D01*
D02*
G37*
G36*
X583630Y222478D02*
X582708Y222294D01*
X581927Y221772D01*
X581405Y220991D01*
X581221Y220069D01*
X581405Y219147D01*
X581927Y218366D01*
X582708Y217844D01*
X583630Y217660D01*
X584551Y217844D01*
X585333Y218366D01*
X585855Y219147D01*
X586038Y220069D01*
X585855Y220991D01*
X585333Y221772D01*
X584551Y222294D01*
X583630Y222478D01*
D02*
G37*
G36*
X597260Y215293D02*
X596338Y215109D01*
X595557Y214587D01*
X595035Y213806D01*
X594861Y212932D01*
X538135Y156206D01*
X461753D01*
X461138Y156083D01*
X460617Y155735D01*
X460617Y155735D01*
X447217Y142335D01*
X446838Y142493D01*
X445810Y142628D01*
X444782Y142493D01*
X443824Y142096D01*
X443002Y141465D01*
X442371Y140643D01*
X441974Y139685D01*
X441839Y138657D01*
X441974Y137629D01*
X442371Y136672D01*
X443002Y135849D01*
X443824Y135218D01*
X444782Y134821D01*
X445810Y134686D01*
X446838Y134821D01*
X447795Y135218D01*
X448618Y135849D01*
X449249Y136672D01*
X449646Y137629D01*
X449781Y138657D01*
X449646Y139685D01*
X449488Y140065D01*
X462418Y152994D01*
X538800D01*
X538800Y152994D01*
X539415Y153117D01*
X539935Y153465D01*
X596999Y210528D01*
X597260Y210476D01*
X598182Y210659D01*
X598963Y211181D01*
X599485Y211963D01*
X599669Y212884D01*
X599485Y213806D01*
X598963Y214587D01*
X598182Y215109D01*
X597260Y215293D01*
D02*
G37*
G36*
X230700Y213708D02*
X229778Y213525D01*
X228997Y213003D01*
X228475Y212222D01*
X228292Y211300D01*
X228475Y210378D01*
X228997Y209597D01*
X229778Y209075D01*
X230700Y208892D01*
X231622Y209075D01*
X232403Y209597D01*
X232925Y210378D01*
X233108Y211300D01*
X232925Y212222D01*
X232403Y213003D01*
X231622Y213525D01*
X230700Y213708D01*
D02*
G37*
G36*
X683695Y434708D02*
X682773Y434525D01*
X681992Y434003D01*
X681470Y433222D01*
X681287Y432300D01*
X681470Y431378D01*
X681992Y430597D01*
X682096Y430527D01*
X682981Y205757D01*
X682891Y205697D01*
X682369Y204916D01*
X682186Y203994D01*
X682369Y203072D01*
X682891Y202291D01*
X683672Y201769D01*
X684594Y201586D01*
X685516Y201769D01*
X686297Y202291D01*
X686819Y203072D01*
X687003Y203994D01*
X686819Y204916D01*
X686297Y205697D01*
X686193Y205767D01*
X685308Y430537D01*
X685398Y430597D01*
X685920Y431378D01*
X686104Y432300D01*
X685920Y433222D01*
X685398Y434003D01*
X684617Y434525D01*
X683695Y434708D01*
D02*
G37*
G36*
X594900Y196309D02*
X593978Y196125D01*
X593197Y195603D01*
X592675Y194822D01*
X592491Y193900D01*
X592675Y192978D01*
X593197Y192197D01*
X593978Y191675D01*
X594900Y191491D01*
X595822Y191675D01*
X596603Y192197D01*
X597125Y192978D01*
X597308Y193900D01*
X597125Y194822D01*
X596603Y195603D01*
X595822Y196125D01*
X594900Y196309D01*
D02*
G37*
G36*
X227500Y195709D02*
X226578Y195525D01*
X225797Y195003D01*
X225275Y194222D01*
X225092Y193300D01*
X225275Y192378D01*
X225797Y191597D01*
X226578Y191075D01*
X227500Y190892D01*
X228422Y191075D01*
X229203Y191597D01*
X229725Y192378D01*
X229908Y193300D01*
X229725Y194222D01*
X229203Y195003D01*
X228422Y195525D01*
X227500Y195709D01*
D02*
G37*
G36*
X164170Y194962D02*
X163249Y194778D01*
X162467Y194256D01*
X161945Y193475D01*
X161762Y192553D01*
X161945Y191631D01*
X162467Y190850D01*
X163249Y190328D01*
X164170Y190145D01*
X165092Y190328D01*
X165873Y190850D01*
X166395Y191631D01*
X166579Y192553D01*
X166395Y193475D01*
X165873Y194256D01*
X165092Y194778D01*
X164170Y194962D01*
D02*
G37*
G36*
X204568Y190410D02*
X203647Y190226D01*
X202865Y189704D01*
X202343Y188923D01*
X202160Y188001D01*
X202343Y187080D01*
X202865Y186298D01*
X203647Y185776D01*
X204568Y185593D01*
X205490Y185776D01*
X206271Y186298D01*
X206793Y187080D01*
X206977Y188001D01*
X206793Y188923D01*
X206271Y189704D01*
X205490Y190226D01*
X204568Y190410D01*
D02*
G37*
G36*
X211517Y190328D02*
X210596Y190144D01*
X209814Y189622D01*
X209292Y188841D01*
X209109Y187919D01*
X209292Y186997D01*
X209814Y186216D01*
X210596Y185694D01*
X211517Y185511D01*
X212439Y185694D01*
X213220Y186216D01*
X213742Y186997D01*
X213926Y187919D01*
X213742Y188841D01*
X213220Y189622D01*
X212439Y190144D01*
X211517Y190328D01*
D02*
G37*
G36*
X256412Y187828D02*
X255490Y187644D01*
X254709Y187122D01*
X254187Y186341D01*
X254003Y185419D01*
X254187Y184497D01*
X254709Y183716D01*
X255490Y183194D01*
X256412Y183010D01*
X257333Y183194D01*
X258115Y183716D01*
X258637Y184497D01*
X258820Y185419D01*
X258637Y186341D01*
X258115Y187122D01*
X257333Y187644D01*
X256412Y187828D01*
D02*
G37*
G36*
X352017Y184009D02*
X351096Y183825D01*
X350314Y183303D01*
X349792Y182522D01*
X349609Y181600D01*
X349792Y180678D01*
X350314Y179897D01*
X351096Y179375D01*
X352017Y179192D01*
X352939Y179375D01*
X353720Y179897D01*
X354242Y180678D01*
X354426Y181600D01*
X354242Y182522D01*
X353720Y183303D01*
X352939Y183825D01*
X352017Y184009D01*
D02*
G37*
G36*
X263498D02*
X262577Y183825D01*
X261795Y183303D01*
X261273Y182522D01*
X261090Y181600D01*
X261273Y180678D01*
X261795Y179897D01*
X262577Y179375D01*
X263498Y179192D01*
X264420Y179375D01*
X265201Y179897D01*
X265723Y180678D01*
X265907Y181600D01*
X265723Y182522D01*
X265201Y183303D01*
X264420Y183825D01*
X263498Y184009D01*
D02*
G37*
G36*
X496310Y180719D02*
Y177298D01*
X499731D01*
X499661Y177830D01*
X499263Y178792D01*
X498629Y179618D01*
X497803Y180251D01*
X496842Y180649D01*
X496310Y180719D01*
D02*
G37*
G36*
X495310D02*
X494778Y180649D01*
X493816Y180251D01*
X492991Y179618D01*
X492357Y178792D01*
X491959Y177830D01*
X491889Y177298D01*
X495310D01*
Y180719D01*
D02*
G37*
G36*
X160400Y180709D02*
X159478Y180525D01*
X158697Y180003D01*
X158175Y179222D01*
X157992Y178300D01*
X158175Y177378D01*
X158697Y176597D01*
X159478Y176075D01*
X160400Y175891D01*
X161322Y176075D01*
X162103Y176597D01*
X162625Y177378D01*
X162809Y178300D01*
X162625Y179222D01*
X162103Y180003D01*
X161322Y180525D01*
X160400Y180709D01*
D02*
G37*
G36*
X499731Y176298D02*
X496310D01*
Y172877D01*
X496842Y172947D01*
X497803Y173346D01*
X498629Y173979D01*
X499263Y174805D01*
X499661Y175767D01*
X499731Y176298D01*
D02*
G37*
G36*
X495310D02*
X491889D01*
X491959Y175767D01*
X492357Y174805D01*
X492991Y173979D01*
X493816Y173346D01*
X494778Y172947D01*
X495310Y172877D01*
Y176298D01*
D02*
G37*
G36*
X489747Y180735D02*
X481873D01*
Y172861D01*
X489747D01*
Y180735D01*
D02*
G37*
G36*
X543788Y174328D02*
X542867Y174145D01*
X542086Y173623D01*
X541563Y172841D01*
X541380Y171920D01*
X541563Y170998D01*
X542086Y170217D01*
X542867Y169694D01*
X543788Y169511D01*
X544710Y169694D01*
X545492Y170217D01*
X546014Y170998D01*
X546197Y171920D01*
X546014Y172841D01*
X545492Y173623D01*
X544710Y174145D01*
X543788Y174328D01*
D02*
G37*
G36*
X559468Y168189D02*
X558546Y168006D01*
X557764Y167484D01*
X557242Y166703D01*
X557059Y165781D01*
X557242Y164859D01*
X557764Y164078D01*
X558546Y163556D01*
X559468Y163372D01*
X560389Y163556D01*
X561171Y164078D01*
X561693Y164859D01*
X561876Y165781D01*
X561693Y166703D01*
X561171Y167484D01*
X560389Y168006D01*
X559468Y168189D01*
D02*
G37*
G36*
X352017Y162908D02*
X351096Y162725D01*
X350314Y162203D01*
X349792Y161422D01*
X349609Y160500D01*
X349792Y159578D01*
X350314Y158797D01*
X351096Y158275D01*
X352017Y158091D01*
X352939Y158275D01*
X353720Y158797D01*
X354242Y159578D01*
X354426Y160500D01*
X354242Y161422D01*
X353720Y162203D01*
X352939Y162725D01*
X352017Y162908D01*
D02*
G37*
G36*
X652400Y144108D02*
X651478Y143925D01*
X650697Y143403D01*
X650175Y142622D01*
X649992Y141700D01*
X650175Y140778D01*
X650697Y139997D01*
X651478Y139475D01*
X652400Y139292D01*
X653322Y139475D01*
X654103Y139997D01*
X654625Y140778D01*
X654809Y141700D01*
X654625Y142622D01*
X654103Y143403D01*
X653322Y143925D01*
X652400Y144108D01*
D02*
G37*
G36*
X486310Y142578D02*
Y139157D01*
X489731D01*
X489661Y139689D01*
X489262Y140651D01*
X488629Y141476D01*
X487803Y142110D01*
X486842Y142508D01*
X486310Y142578D01*
D02*
G37*
G36*
X456310D02*
Y139157D01*
X459731D01*
X459661Y139689D01*
X459263Y140651D01*
X458629Y141476D01*
X457803Y142110D01*
X456842Y142508D01*
X456310Y142578D01*
D02*
G37*
G36*
X485310D02*
X484778Y142508D01*
X483816Y142110D01*
X482991Y141476D01*
X482357Y140651D01*
X481959Y139689D01*
X481889Y139157D01*
X485310D01*
Y142578D01*
D02*
G37*
G36*
X455310D02*
X454778Y142508D01*
X453816Y142110D01*
X452991Y141476D01*
X452357Y140651D01*
X451959Y139689D01*
X451889Y139157D01*
X455310D01*
Y142578D01*
D02*
G37*
G36*
X425000Y139609D02*
X424078Y139425D01*
X423297Y138903D01*
X422775Y138122D01*
X422591Y137200D01*
X422775Y136278D01*
X423297Y135497D01*
X424078Y134975D01*
X425000Y134792D01*
X425922Y134975D01*
X426703Y135497D01*
X427225Y136278D01*
X427409Y137200D01*
X427225Y138122D01*
X426703Y138903D01*
X425922Y139425D01*
X425000Y139609D01*
D02*
G37*
G36*
X489731Y138157D02*
X486310D01*
Y134736D01*
X486842Y134806D01*
X487803Y135205D01*
X488629Y135838D01*
X489262Y136664D01*
X489661Y137625D01*
X489731Y138157D01*
D02*
G37*
G36*
X459731D02*
X456310D01*
Y134736D01*
X456842Y134806D01*
X457803Y135205D01*
X458629Y135838D01*
X459263Y136664D01*
X459661Y137625D01*
X459731Y138157D01*
D02*
G37*
G36*
X485310D02*
X481889D01*
X481959Y137625D01*
X482357Y136664D01*
X482991Y135838D01*
X483816Y135205D01*
X484778Y134806D01*
X485310Y134736D01*
Y138157D01*
D02*
G37*
G36*
X455310D02*
X451889D01*
X451959Y137625D01*
X452357Y136664D01*
X452991Y135838D01*
X453816Y135205D01*
X454778Y134806D01*
X455310Y134736D01*
Y138157D01*
D02*
G37*
G36*
X499747Y142594D02*
X491873D01*
Y134720D01*
X499747D01*
Y142594D01*
D02*
G37*
G36*
X475810Y142628D02*
X474782Y142493D01*
X473824Y142096D01*
X473002Y141465D01*
X472371Y140643D01*
X471974Y139685D01*
X471839Y138657D01*
X471974Y137629D01*
X472371Y136672D01*
X473002Y135849D01*
X473824Y135218D01*
X474782Y134821D01*
X475810Y134686D01*
X476838Y134821D01*
X477795Y135218D01*
X478618Y135849D01*
X479249Y136672D01*
X479645Y137629D01*
X479781Y138657D01*
X479645Y139685D01*
X479249Y140643D01*
X478618Y141465D01*
X477795Y142096D01*
X476838Y142493D01*
X475810Y142628D01*
D02*
G37*
G36*
X465810D02*
X464782Y142493D01*
X463824Y142096D01*
X463002Y141465D01*
X462371Y140643D01*
X461974Y139685D01*
X461839Y138657D01*
X461974Y137629D01*
X462371Y136672D01*
X463002Y135849D01*
X463824Y135218D01*
X464782Y134821D01*
X465810Y134686D01*
X466838Y134821D01*
X467795Y135218D01*
X468618Y135849D01*
X469249Y136672D01*
X469646Y137629D01*
X469781Y138657D01*
X469646Y139685D01*
X469249Y140643D01*
X468618Y141465D01*
X467795Y142096D01*
X466838Y142493D01*
X465810Y142628D01*
D02*
G37*
G36*
X435810D02*
X434782Y142493D01*
X433824Y142096D01*
X433002Y141465D01*
X432371Y140643D01*
X431974Y139685D01*
X431839Y138657D01*
X431974Y137629D01*
X432371Y136672D01*
X433002Y135849D01*
X433824Y135218D01*
X434782Y134821D01*
X435810Y134686D01*
X436838Y134821D01*
X437795Y135218D01*
X438618Y135849D01*
X439249Y136672D01*
X439645Y137629D01*
X439781Y138657D01*
X439645Y139685D01*
X439249Y140643D01*
X438618Y141465D01*
X437795Y142096D01*
X436838Y142493D01*
X435810Y142628D01*
D02*
G37*
G36*
X235000Y124925D02*
Y123100D01*
X236825D01*
X236740Y123528D01*
X236214Y124314D01*
X235428Y124840D01*
X235000Y124925D01*
D02*
G37*
G36*
X234000D02*
X233572Y124840D01*
X232786Y124314D01*
X232260Y123528D01*
X232175Y123100D01*
X234000D01*
Y124925D01*
D02*
G37*
G36*
X236825Y122100D02*
X235000D01*
Y120275D01*
X235428Y120360D01*
X236214Y120886D01*
X236740Y121672D01*
X236825Y122100D01*
D02*
G37*
G36*
X234000D02*
X232175D01*
X232260Y121672D01*
X232786Y120886D01*
X233572Y120360D01*
X234000Y120275D01*
Y122100D01*
D02*
G37*
G36*
X617659Y109779D02*
X617531Y109753D01*
X617400Y109762D01*
X617150Y109677D01*
X616891Y109626D01*
X616782Y109553D01*
X616658Y109511D01*
X616460Y109337D01*
X616240Y109191D01*
X616167Y109082D01*
X616069Y108996D01*
X615952Y108759D01*
X615805Y108540D01*
X615779Y108411D01*
X615721Y108294D01*
X615704Y108031D01*
X615652Y107772D01*
X615678Y107643D01*
X615669Y107513D01*
X615753Y107263D01*
X615805Y107003D01*
X615878Y106895D01*
X615919Y106771D01*
X616093Y106572D01*
X616240Y106352D01*
X616349Y106280D01*
X616435Y106181D01*
X616672Y106064D01*
X616891Y105917D01*
X617020Y105892D01*
X617137Y105834D01*
X617400Y105816D01*
X617659Y105764D01*
X617788Y105790D01*
X617918Y105781D01*
X618168Y105866D01*
X618427Y105917D01*
X618536Y105990D01*
X618660Y106032D01*
X618859Y106206D01*
X619078Y106352D01*
X619151Y106461D01*
X619250Y106547D01*
X619367Y106784D01*
X619514Y107003D01*
X619539Y107132D01*
X619597Y107249D01*
X619615Y107512D01*
X619666Y107772D01*
X619641Y107900D01*
X619650Y108030D01*
X619565Y108281D01*
X619514Y108540D01*
X619441Y108649D01*
X619399Y108772D01*
X619225Y108971D01*
X619078Y109191D01*
X618970Y109264D01*
X618884Y109362D01*
X618647Y109479D01*
X618427Y109626D01*
X618299Y109651D01*
X618182Y109710D01*
X617918Y109727D01*
X617659Y109779D01*
D02*
G37*
G36*
X622393Y103956D02*
X621472Y103773D01*
X620690Y103251D01*
X620168Y102470D01*
X619985Y101548D01*
X620168Y100626D01*
X620690Y99845D01*
X621472Y99323D01*
X622393Y99139D01*
X623315Y99323D01*
X624096Y99845D01*
X624618Y100626D01*
X624802Y101548D01*
X624618Y102470D01*
X624096Y103251D01*
X623315Y103773D01*
X622393Y103956D01*
D02*
G37*
G36*
X302900Y99809D02*
X301978Y99625D01*
X301197Y99103D01*
X300675Y98322D01*
X300491Y97400D01*
X300675Y96478D01*
X301197Y95697D01*
X301978Y95175D01*
X302900Y94991D01*
X303822Y95175D01*
X304603Y95697D01*
X305125Y96478D01*
X305309Y97400D01*
X305125Y98322D01*
X304603Y99103D01*
X303822Y99625D01*
X302900Y99809D01*
D02*
G37*
G36*
X372017Y97868D02*
X371096Y97685D01*
X370314Y97162D01*
X369792Y96381D01*
X369609Y95459D01*
X369792Y94538D01*
X370314Y93756D01*
X371096Y93234D01*
X372017Y93051D01*
X372939Y93234D01*
X373720Y93756D01*
X374242Y94538D01*
X374426Y95459D01*
X374242Y96381D01*
X373720Y97162D01*
X372939Y97685D01*
X372017Y97868D01*
D02*
G37*
G36*
X430280Y61062D02*
X430280Y61062D01*
X430280Y61062D01*
X429512Y60909D01*
X429512Y60909D01*
X429511Y60909D01*
X429119Y60647D01*
X428860Y60474D01*
X428860Y60474D01*
X428860Y60474D01*
X428687Y60215D01*
X428425Y59823D01*
X428425Y59823D01*
X428425Y59823D01*
X428272Y59055D01*
X428272Y59055D01*
X428272Y59055D01*
X428425Y58287D01*
X428425Y58287D01*
X428425Y58287D01*
X428687Y57895D01*
X428860Y57636D01*
X428860Y57636D01*
X428860Y57636D01*
X429119Y57463D01*
X429511Y57201D01*
X429511Y57201D01*
X429511Y57201D01*
X430279Y57048D01*
X430280Y57048D01*
X430280Y57048D01*
X431048Y57201D01*
X431048Y57201D01*
X431048Y57201D01*
X431440Y57463D01*
X431699Y57636D01*
X431699Y57636D01*
X431699Y57636D01*
X431872Y57895D01*
X432134Y58287D01*
X432134Y58287D01*
X432134Y58287D01*
X432287Y59055D01*
X432287Y59055D01*
X432287Y59055D01*
X432134Y59823D01*
X432134Y59823D01*
X432134Y59823D01*
X431872Y60215D01*
X431699Y60474D01*
X431699Y60474D01*
X431699Y60474D01*
X431440Y60647D01*
X431048Y60909D01*
X431048Y60909D01*
X431048Y60909D01*
X430738Y60971D01*
X430280Y61062D01*
D02*
G37*
G36*
X414736Y55450D02*
X413814Y55266D01*
X413032Y54744D01*
X412510Y53963D01*
X412327Y53041D01*
X412510Y52119D01*
X413032Y51338D01*
X413814Y50816D01*
X414736Y50633D01*
X415657Y50816D01*
X416439Y51338D01*
X416961Y52119D01*
X417144Y53041D01*
X416961Y53963D01*
X416439Y54744D01*
X415657Y55266D01*
X414736Y55450D01*
D02*
G37*
%LPD*%
G36*
X455841Y753241D02*
X455841Y753240D01*
X456362Y752892D01*
X456977Y752770D01*
X456977Y752770D01*
X465090D01*
X465155Y752673D01*
X465936Y752151D01*
X466858Y751967D01*
X467780Y752151D01*
X468561Y752673D01*
X468794Y753022D01*
X469294Y752870D01*
Y736468D01*
X469197Y736403D01*
X468717Y735685D01*
X468212Y735483D01*
X429024Y774671D01*
X428503Y775019D01*
X427888Y775142D01*
X427888Y775142D01*
X367247D01*
X367247Y775142D01*
X366633Y775019D01*
X366112Y774671D01*
X366112Y774671D01*
X359855Y768414D01*
X359355Y768621D01*
Y769753D01*
X366669Y777067D01*
X432015D01*
X455841Y753241D01*
D02*
G37*
G36*
X689894Y509288D02*
Y472230D01*
X689432Y472038D01*
X662406Y499065D01*
Y536123D01*
X662868Y536314D01*
X689894Y509288D01*
D02*
G37*
%LPC*%
G36*
X683695Y489578D02*
X682774Y489395D01*
X681992Y488873D01*
X681470Y488092D01*
X681287Y487170D01*
X681470Y486248D01*
X681992Y485467D01*
X682774Y484945D01*
X683695Y484761D01*
X684617Y484945D01*
X685398Y485467D01*
X685921Y486248D01*
X686104Y487170D01*
X685921Y488092D01*
X685398Y488873D01*
X684617Y489395D01*
X683695Y489578D01*
D02*
G37*
%LPD*%
G36*
X638394Y238970D02*
Y229700D01*
X638394Y229700D01*
X638517Y229085D01*
X638865Y228565D01*
X670662Y196768D01*
X670470Y196306D01*
X646665D01*
X615338Y227632D01*
X615530Y228094D01*
X626200D01*
X626200Y228094D01*
X626815Y228217D01*
X627335Y228565D01*
X637932Y239162D01*
X638394Y238970D01*
D02*
G37*
D64*
X616262Y465562D02*
X643457Y492757D01*
X576914Y257540D02*
X581311D01*
X596358Y272587D02*
Y287435D01*
X581311Y257540D02*
X596358Y272587D01*
X612581Y461881D02*
X616262Y465562D01*
X612581Y272609D02*
Y461881D01*
X597084Y212884D02*
X597260D01*
X538800Y154600D02*
X597084Y212884D01*
X461753Y154600D02*
X538800D01*
X585552Y270212D02*
Y385052D01*
X593500Y393000D01*
X549682Y227174D02*
Y273482D01*
X573607Y297407D01*
Y497948D01*
X264433Y318594D02*
X320444D01*
X326606Y324756D01*
X270665Y324472D02*
Y324835D01*
X263498Y332002D02*
X270665Y324835D01*
X480827Y578159D02*
X560384Y498602D01*
Y360208D02*
Y498602D01*
X541698Y341522D02*
X560384Y360208D01*
X541698Y341522D02*
Y341522D01*
X460500Y264500D02*
X472269D01*
X563454Y355685D02*
Y504643D01*
X472269Y264500D02*
X563454Y355685D01*
X340592Y652264D02*
X410167D01*
X460400Y702497D02*
Y715200D01*
X410167Y652264D02*
X460400Y702497D01*
X282440Y446340D02*
Y594112D01*
X340592Y652264D01*
X204431Y525731D02*
X368100Y689400D01*
X204431Y473500D02*
Y525731D01*
X333946Y541670D02*
Y593537D01*
X483900Y584197D02*
Y706000D01*
X470900Y719000D02*
X483900Y706000D01*
Y584197D02*
X563454Y504643D01*
X566215Y296415D02*
Y628953D01*
X545500Y275700D02*
X566215Y296415D01*
X510268Y684900D02*
X566215Y628953D01*
X573607Y497948D02*
X615560Y539900D01*
X557100Y253000D02*
X575969Y271869D01*
Y494869D02*
X603500Y522400D01*
X575969Y271869D02*
Y494869D01*
X194500Y556500D02*
X322900Y684900D01*
X611199Y630075D02*
X626170Y615104D01*
X759437D01*
X771327Y629616D02*
X780829D01*
X801054Y533049D02*
Y609391D01*
X780829Y629616D02*
X801054Y609391D01*
X760936Y619226D02*
X771327Y629616D01*
X759437Y615104D02*
X760936Y616604D01*
Y619226D01*
X685500Y535000D02*
Y547700D01*
X490400Y724742D02*
X508458D01*
X685500Y547700D01*
X709100Y503900D02*
Y511400D01*
X685500Y535000D02*
X709100Y511400D01*
X660800Y540653D02*
X691500Y509953D01*
X709100Y503900D02*
X754000Y459000D01*
X504853Y696600D02*
X660800Y540653D01*
Y498400D02*
X691500Y467700D01*
Y509953D01*
X754000Y362421D02*
Y459000D01*
X660800Y498400D02*
Y540653D01*
X504853Y696600D02*
Y702247D01*
X487400Y719700D02*
X504853Y702247D01*
X487400Y719700D02*
Y729742D01*
X490426Y704742D02*
X510268Y684900D01*
X488161Y741760D02*
X652217D01*
X762654Y631323D01*
Y625576D02*
Y631323D01*
X355740Y802853D02*
X616505D01*
X803220Y616139D01*
Y541519D02*
Y616139D01*
X478148Y731747D02*
X488161Y741760D01*
X801054Y533049D02*
X833604Y500499D01*
X774715Y564159D02*
Y625200D01*
X723078Y512522D02*
X774715Y564159D01*
X761599Y624522D02*
X762654Y625576D01*
X803220Y541519D02*
X837861Y506878D01*
Y315825D02*
Y506878D01*
X833604Y431615D02*
Y500499D01*
X825524Y423534D02*
X833604Y431615D01*
X763638Y241602D02*
X837861Y315825D01*
X753642Y265058D02*
Y362063D01*
X754000Y362421D01*
X432334Y795451D02*
X470900Y756884D01*
X74700Y653878D02*
X216273Y795451D01*
X432334D01*
X470900Y734700D02*
Y756884D01*
X366004Y778673D02*
X432680D01*
X456977Y754376D01*
X466858D01*
X357749Y770418D02*
X366004Y778673D01*
X691500Y160300D02*
Y467700D01*
X338297Y735227D02*
X338360Y735165D01*
X338297Y735227D02*
Y756148D01*
X338235Y756210D02*
X338297Y756148D01*
X338609Y714760D02*
X412170D01*
X256773Y632923D02*
X338609Y714760D01*
X355400Y710168D02*
X355685Y710453D01*
X412038D01*
X415716Y714130D02*
Y726892D01*
X412038Y710453D02*
X415716Y714130D01*
X419377Y730553D02*
X440147D01*
X415716Y726892D02*
X419377Y730553D01*
X390652Y720072D02*
Y764003D01*
Y720072D02*
X391003Y719721D01*
X390652Y719760D02*
Y720072D01*
X367247Y773536D02*
X427888D01*
X469677Y731747D01*
X357749Y727059D02*
Y770418D01*
X360702Y766991D02*
X367247Y773536D01*
X360702Y721276D02*
Y766991D01*
X74700Y463854D02*
Y653878D01*
X360690Y721264D02*
X360702Y721276D01*
X469677Y731747D02*
X478148D01*
X245416Y724814D02*
X321375D01*
X213191Y692589D02*
X245416Y724814D01*
X213191Y609051D02*
Y692589D01*
X180370Y256511D02*
Y576230D01*
X213191Y609051D01*
X172494Y716945D02*
X185363Y729814D01*
X321375D01*
X92799Y247999D02*
X100189Y255389D01*
Y661837D02*
X176952Y738600D01*
X100189Y255389D02*
Y661837D01*
X176952Y738600D02*
X237000D01*
X257800Y421700D02*
X282440Y446340D01*
X183000Y475000D02*
Y571100D01*
Y475000D02*
X188000Y470000D01*
X183000Y571100D02*
X319900Y708000D01*
X320651Y528030D02*
Y528374D01*
X333946Y541670D01*
X440147Y730553D02*
X453000Y717700D01*
X42559Y431713D02*
X74700Y463854D01*
X193503Y318497D02*
Y446136D01*
X197467Y450100D02*
X227600D01*
X193503Y446136D02*
X197467Y450100D01*
X193503Y318497D02*
X241000Y271000D01*
X188000Y470000D02*
X213412D01*
X626200Y229700D02*
X640000Y243500D01*
X611000Y229700D02*
X646000Y194700D01*
X253800Y341700D02*
X263498Y332002D01*
X545500Y203900D02*
Y275700D01*
X256000Y421700D02*
X257800D01*
X92799Y232000D02*
Y247999D01*
X660900Y481300D02*
X663900Y478300D01*
X611000Y229700D02*
X626200D01*
X606100Y234600D02*
X611000Y229700D01*
X646000Y194700D02*
X675000D01*
X606100Y234600D02*
Y464200D01*
X616262Y468062D02*
X642200Y494000D01*
X561866Y200200D02*
X561911Y200155D01*
X647700Y459000D02*
Y533500D01*
X619300Y430600D02*
X647700Y459000D01*
X619300Y247200D02*
Y430600D01*
X611300Y239200D02*
X619300Y247200D01*
X611300Y236700D02*
Y239200D01*
X248400Y349800D02*
X256412Y357812D01*
X248400Y285600D02*
Y349800D01*
X263498Y332002D02*
Y355102D01*
X616262Y465562D02*
Y468062D01*
X445810Y138657D02*
X461753Y154600D01*
X213412Y470000D02*
X256412Y427000D01*
X683695Y432300D02*
X684594Y203994D01*
X241000Y91427D02*
Y271000D01*
X227600Y450100D02*
X256000Y421700D01*
X460400Y715200D02*
X470900Y725700D01*
X643100Y293500D02*
X654942Y305342D01*
Y519500D01*
X603500Y522400D02*
X642200D01*
X645500Y240500D02*
X663900Y258900D01*
Y478300D01*
X656392Y259892D02*
Y280208D01*
X640000Y243500D02*
X656392Y259892D01*
X640000Y229700D02*
Y243500D01*
Y229700D02*
X675000Y194700D01*
X457800Y200200D02*
X561866D01*
X211517Y446483D02*
X457800Y200200D01*
X611000Y570200D02*
X647700Y533500D01*
X253800Y341700D02*
Y345400D01*
D66*
X495810Y176798D02*
D03*
X445810Y138657D02*
D03*
X455810D02*
D03*
X485810D02*
D03*
D68*
X612581Y272609D02*
D03*
X597260Y212884D02*
D03*
X596358Y287435D02*
D03*
X585552Y270212D02*
D03*
X576914Y257540D02*
D03*
X264433Y318594D02*
D03*
X270665Y324472D02*
D03*
X326606Y324756D02*
D03*
X541698Y341522D02*
D03*
X480827Y578159D02*
D03*
X256773Y632923D02*
D03*
X470900Y719000D02*
D03*
X598000Y643300D02*
D03*
X322900Y684900D02*
D03*
X611199Y630075D02*
D03*
X487400Y729742D02*
D03*
X510268Y684900D02*
D03*
X552200Y750000D02*
D03*
X761599Y624522D02*
D03*
X825524Y423534D02*
D03*
X753642Y265058D02*
D03*
X684594Y203994D02*
D03*
X355740Y802853D02*
D03*
X774715Y625200D02*
D03*
X763638Y241602D02*
D03*
X691500Y160300D02*
D03*
X338235Y756210D02*
D03*
X466858Y754376D02*
D03*
X552200Y723100D02*
D03*
Y714100D02*
D03*
X355400Y710168D02*
D03*
X390652Y719760D02*
D03*
X357749Y727059D02*
D03*
X360690Y721264D02*
D03*
X470900Y734700D02*
D03*
X490400Y724742D02*
D03*
X321375Y724814D02*
D03*
X180370Y256511D02*
D03*
X338360Y735165D02*
D03*
X321375Y729814D02*
D03*
X172494Y716945D02*
D03*
X256412Y427000D02*
D03*
X368100Y689400D02*
D03*
X320651Y528030D02*
D03*
X333946Y593537D02*
D03*
X390652Y764003D02*
D03*
X42559Y431713D02*
D03*
X256412Y357812D02*
D03*
X683695Y432300D02*
D03*
X723078Y512522D02*
D03*
X593500Y393000D02*
D03*
X319900Y708000D02*
D03*
X453000Y717700D02*
D03*
X412170Y714760D02*
D03*
X204431Y473500D02*
D03*
X159536Y272900D02*
D03*
X166700Y514800D02*
D03*
X159536Y502700D02*
D03*
X294719Y514800D02*
D03*
X166700Y414000D02*
D03*
X263498Y483579D02*
D03*
X234500Y122600D02*
D03*
X660900Y286500D02*
D03*
X674799Y280208D02*
D03*
X651801Y272601D02*
D03*
X644313Y509800D02*
D03*
X337000Y725200D02*
D03*
X470258Y709742D02*
D03*
X432556Y709742D02*
D03*
X194500Y556500D02*
D03*
X545500Y203900D02*
D03*
X490426Y704742D02*
D03*
X460500Y264500D02*
D03*
X241000Y91427D02*
D03*
X470900Y725700D02*
D03*
X92799Y232000D02*
D03*
X237000Y738600D02*
D03*
X643100Y293500D02*
D03*
X654942Y519500D02*
D03*
X642200Y522400D02*
D03*
X557100Y253000D02*
D03*
X645500Y240500D02*
D03*
X660900Y481300D02*
D03*
X549682Y227174D02*
D03*
X615560Y539900D02*
D03*
X675000Y194700D02*
D03*
X606100Y464200D02*
D03*
X642200Y494000D02*
D03*
X643457Y492757D02*
D03*
X211517Y446483D02*
D03*
X611000Y570200D02*
D03*
X611300Y236700D02*
D03*
X248400Y285600D02*
D03*
X253800Y345400D02*
D03*
M02*
