M48
;Layer_Color=9474304
;FILE_FORMAT=4:4
METRIC,LZ
;TYPE=PLATED
T1F00S00C0.4000
T2F00S00C0.9000
;TYPE=NON_PLATED
T3F00S00C0.5000
%
T01
X0061214Y00232224
X0059563Y00311404
X00769366Y00247396
X00944924Y00242467
X01053428Y00134725
X010795Y00348488
X01580879Y00257932
X01657096Y00359918
X0175641Y00407162
X01738869Y00518145
X01704594
X017145Y00494538
X01703324Y00597154
X0171958Y00614172
X01667256Y00607568
X0163957Y0061087
X0158877Y00614172
X01594063Y0068311
X01600233Y00702029
X01655573Y00692405
X01678686Y0072771
X0171399Y00711728
X01633474Y0074549
X01778508Y0063119
X01787906Y0056896
X01939642Y00613669
X01914251Y00673247
X01581912Y00651256
X01578684Y00620596
X01552702Y00601218
X01503513Y00607187
X01464884Y00599584
X01465361Y0065415
X01487302Y00686339
X01524254Y006858
X01555955Y00692426
X01547114Y00718228
X01506183Y00721428
X01514749Y00730086
X01430253Y00714127
X01419205Y00688193
X01415034Y0064262
X01415193Y00589883
X01396193Y00577021
X0138557Y00517906
X01381223Y00436676
X01421048Y00421083
X01511046Y00492506
X01517041Y00540726
X0148242Y00558975
X01573022Y00550164
X01385677Y00732643
X0116967Y0067183
X00894124Y00461264
Y0040767
X00669286Y00461264
X00651286Y00470964
X0057785Y00490982
X00585978Y00536702
X00537254Y00477314
X00519604Y00477524
X00416992Y00489085
X00407416Y00452882
X00405222Y00693166
X0045814Y00651538
X00539496Y00688086
X00537254Y00709422
X00630936Y00725424
X00651286Y00593314
X00387222Y00593346
Y00626618
Y00742062
X0023571Y0058928
X00387222Y00877316
Y0092456
X00373888Y01020064
X00387096Y01057402
X00387222Y01137286
X00232238Y0116078
X00108101Y01096552
X00092202Y0109855
Y00922274
X00423418Y0105156
X00405222Y0116078
X00537254Y01134066
X00519254Y01095932
X00651286Y0108458
X0066929Y01057402
X00778198Y01070324
X00749554Y0083718
X0068749Y00824159
X00669286Y0082541
X0067166Y00809229
X00644652Y00877316
X00651286Y00908842
X00512904Y0082541
X00829579Y0082488
X01375913Y00867467
X0150749Y0099822
X01523492Y01122426
X01539494Y01179068
X01697627Y01185309
X01736586Y01164379
Y01098042
X01636554Y01105916
X01650892Y01060158
X01617726Y0103759
X02096831Y01075777
X02091182Y01098042
X02100048Y01110742
X02066381Y01151389
X01836619Y01264412
Y01301805
X01836618Y01343406
X01738122
X01750568Y01387602
X01763586Y01307402
X01736586Y01237412
X01678686Y01222502
X01634382Y01251604
X01631188Y0125476
X01636554Y01294892
X01631188Y01326896
X01663554Y0131953
X01636553Y0138684
X01934463Y01586285
X0155194Y01448308
X01563522Y01371346
X01563522Y01264412
X01526794Y01224788
X01383626Y01344526
X01478788Y01494282
X012213Y01468524
X00848224Y01507584
X00814452Y01341196
X00748587Y01307592
X00669286Y01228291
X00651286Y01203168
X00519254Y0120269
X00537254Y01289558
Y0140557
X00550672Y01418844
X00540278Y01448308
X0058928
X0049403Y0141351
X00431038Y01405636
X00455422Y01471514
X00423418Y01307592
X00405222Y01276858
Y01204334
X00688848Y01494282
X00387222Y01521714
X003937Y01450594
X00242799Y01420857
X00298315Y01611675
X002869Y01661029
X00227584Y01673098
X00558728Y01649404
X00652202Y01607625
X00747426Y0162823
X00780363Y01675066
X00782652Y01867965
X00616458Y01889506
X0060198Y01876044
X00610616Y01967776
X00438136Y01821041
X00799054Y01809423
X00812546Y01811528
Y0179832
X00816292Y01841029
Y01853727
X00845408Y01866425
X00859433Y01867319
X0085598Y01842008
X00899047Y01853669
X00908683Y0184673
X00916154Y01832011
X00902716Y01803827
X00909066Y01791129
X00924052Y0179705
X00933196Y01785703
X00934974Y01751076
X00870369Y01769872
X00820166Y01739646
X00884217Y01886492
X00859118Y01920773
X00992256Y01940568
X01021096Y01933556
X01068324Y01848104
X0106934Y01815445
X01046911Y0181549
X01043991Y01780286
X0106934Y01790045
X01107694
X01098693Y01802745
X0111252Y01815445
X0115062Y01822958
X01148842Y01792478
X01148193Y01777345
X01177397Y01775968
X01183086Y01788894
X01160932Y01853685
X0118582Y01916115
X00992256Y0182819
X01005078Y01769872
X01196182Y01783694
X01194456Y01802744
X01195874Y01815444
X01196086Y0182626
Y01843278
X01191115Y01851373
X01196086Y01866138
X01237996Y01853544
X01245616Y01840844
X01274826Y01828144
X01292726
X01300226Y01809094
X01292606Y0178562
X01274826Y01777344
X01245682Y01790044
X01212596Y01768094
X0129608Y01739646
X0128415Y01686557
X01402588Y01813814
Y01836674
Y01905
X01582119Y01956054
X0151892Y01633982
X01552446Y01600391
X01963447Y01615694
X01967776Y01588008
X01042165Y0207521
X00903579Y02039247
T02
X01106957Y00352189
X01132357
X01157757
X01183157
X01208557
X01233957
X01259357
Y00449068
X01233957
T03
X00618854Y00280811
X0109291Y0015
X01568854Y0027374
X0191917Y00618865
X00273721Y00631135
X00149998Y0110709
X00800705Y00837454
X01408371Y00848316
X02050295Y01091533
X01926279Y01568866
X01399282Y01363292
X0079163Y01351684
X0028083Y01581135
X00631145Y0192626
X01581146Y01919189
X0110709Y0205
M30
