%TF.GenerationSoftware,Altium Limited,Altium Designer,20.2.3 (150)*%
G04 Layer_Color=255*
%FSLAX45Y45*%
%MOMM*%
%TF.SameCoordinates,D065702F-5D7C-4ECE-B493-19553C93D9E3*%
%TF.FilePolarity,Positive*%
%TF.FileFunction,Pads,Bot*%
%TF.Part,Single*%
G01*
G75*
%TA.AperFunction,ComponentPad*%
%ADD33R,1.50000X1.50000*%
%ADD34C,1.50000*%
%ADD35C,0.50000*%
%TA.AperFunction,SMDPad,CuDef*%
G04:AMPARAMS|DCode=37|XSize=0.65mm|YSize=0.55mm|CornerRadius=0mm|HoleSize=0mm|Usage=FLASHONLY|Rotation=0.015|XOffset=0mm|YOffset=0mm|HoleType=Round|Shape=Rectangle|*
%AMROTATEDRECTD37*
4,1,4,-0.32493,-0.27508,-0.32507,0.27492,0.32493,0.27508,0.32507,-0.27492,-0.32493,-0.27508,0.0*
%
%ADD37ROTATEDRECTD37*%

%ADD38C,0.20000*%
%ADD39P,0.14142X4X45.0*%
G04:AMPARAMS|DCode=40|XSize=0.65mm|YSize=0.55mm|CornerRadius=0mm|HoleSize=0mm|Usage=FLASHONLY|Rotation=320.000|XOffset=0mm|YOffset=0mm|HoleType=Round|Shape=Rectangle|*
%AMROTATEDRECTD40*
4,1,4,-0.42573,-0.00176,-0.07220,0.41957,0.42573,0.00176,0.07220,-0.41957,-0.42573,-0.00176,0.0*
%
%ADD40ROTATEDRECTD40*%

%ADD41P,0.14142X4X365.0*%
G04:AMPARAMS|DCode=42|XSize=0.65mm|YSize=0.55mm|CornerRadius=0mm|HoleSize=0mm|Usage=FLASHONLY|Rotation=40.083|XOffset=0mm|YOffset=0mm|HoleType=Round|Shape=Rectangle|*
%AMROTATEDRECTD42*
4,1,4,-0.07159,-0.41967,-0.42573,0.00114,0.07159,0.41967,0.42573,-0.00114,-0.07159,-0.41967,0.0*
%
%ADD42ROTATEDRECTD42*%

%ADD43P,0.14142X4X85.1*%
G04:AMPARAMS|DCode=44|XSize=0.65mm|YSize=0.55mm|CornerRadius=0mm|HoleSize=0mm|Usage=FLASHONLY|Rotation=329.912|XOffset=0mm|YOffset=0mm|HoleType=Round|Shape=Rectangle|*
%AMROTATEDRECTD44*
4,1,4,-0.41907,-0.07501,-0.14334,0.40088,0.41907,0.07501,0.14334,-0.40088,-0.41907,-0.07501,0.0*
%
%ADD44ROTATEDRECTD44*%

%ADD45P,0.14142X4X374.9*%
G04:AMPARAMS|DCode=46|XSize=0.65mm|YSize=0.55mm|CornerRadius=0mm|HoleSize=0mm|Usage=FLASHONLY|Rotation=30.087|XOffset=0mm|YOffset=0mm|HoleType=Round|Shape=Rectangle|*
%AMROTATEDRECTD46*
4,1,4,-0.14335,-0.40088,-0.41907,0.07502,0.14335,0.40088,0.41907,-0.07502,-0.14335,-0.40088,0.0*
%
%ADD46ROTATEDRECTD46*%

%ADD47P,0.14142X4X75.1*%
G04:AMPARAMS|DCode=48|XSize=0.65mm|YSize=0.55mm|CornerRadius=0mm|HoleSize=0mm|Usage=FLASHONLY|Rotation=60.087|XOffset=0mm|YOffset=0mm|HoleType=Round|Shape=Rectangle|*
%AMROTATEDRECTD48*
4,1,4,0.07629,-0.41884,-0.40044,-0.14456,-0.07629,0.41884,0.40044,0.14456,0.07629,-0.41884,0.0*
%
%ADD48ROTATEDRECTD48*%

%ADD49P,0.14142X4X105.1*%
G04:AMPARAMS|DCode=50|XSize=0.65mm|YSize=0.55mm|CornerRadius=0mm|HoleSize=0mm|Usage=FLASHONLY|Rotation=89.998|XOffset=0mm|YOffset=0mm|HoleType=Round|Shape=Rectangle|*
%AMROTATEDRECTD50*
4,1,4,0.27499,-0.32501,-0.27501,-0.32499,-0.27499,0.32501,0.27501,0.32499,0.27499,-0.32501,0.0*
%
%ADD50ROTATEDRECTD50*%

%ADD51P,0.14142X4X135.0*%
G04:AMPARAMS|DCode=52|XSize=0.65mm|YSize=0.55mm|CornerRadius=0mm|HoleSize=0mm|Usage=FLASHONLY|Rotation=119.911|XOffset=0mm|YOffset=0mm|HoleType=Round|Shape=Rectangle|*
%AMROTATEDRECTD52*
4,1,4,0.40043,-0.14458,-0.07631,-0.41884,-0.40043,0.14458,0.07631,0.41884,0.40043,-0.14458,0.0*
%
%ADD52ROTATEDRECTD52*%

%ADD53P,0.14142X4X164.9*%
D33*
X12339569Y4490679D02*
D03*
X12593569Y3521893D02*
D03*
D34*
Y4490679D02*
D03*
X11069569Y3521893D02*
D03*
X11323569D02*
D03*
X11577569D02*
D03*
X11831569D02*
D03*
X12339569D02*
D03*
X12085569D02*
D03*
D35*
X1499977Y11070900D02*
D03*
X14083707Y8483158D02*
D03*
X13992824Y13632916D02*
D03*
X7916296Y13516840D02*
D03*
X8007055Y8374537D02*
D03*
X20502951Y10915330D02*
D03*
X2808300Y15811348D02*
D03*
X2737211Y6311346D02*
D03*
X6188542Y2808112D02*
D03*
X10929102Y1499997D02*
D03*
X15688544Y2737399D02*
D03*
X19191702Y6188649D02*
D03*
X19262785Y15688655D02*
D03*
X15811459Y19191888D02*
D03*
X11070900Y20500005D02*
D03*
X6311453Y19262598D02*
D03*
D37*
X1452514Y10922889D02*
D03*
X1547515Y10922914D02*
D03*
X20550668Y11063265D02*
D03*
X20455666Y11063402D02*
D03*
D38*
X1567602Y10983504D02*
D03*
X1431585Y10984382D02*
D03*
X14079301Y8372744D02*
D03*
X13975700Y8460877D02*
D03*
X14100835Y13609564D02*
D03*
X13996178Y13522685D02*
D03*
X7920700Y13627257D02*
D03*
X8024302Y13539125D02*
D03*
X7899080Y8398048D02*
D03*
X8003860Y8484773D02*
D03*
X20435480Y11002848D02*
D03*
X20571490Y11001731D02*
D03*
X2822961Y15701823D02*
D03*
X2705740Y15770804D02*
D03*
X2839527Y6269594D02*
D03*
X2721376Y6202202D02*
D03*
X6298027Y2823113D02*
D03*
X6229401Y2705679D02*
D03*
X11016518Y1567597D02*
D03*
X11015594Y1431580D02*
D03*
X15730611Y2839588D02*
D03*
X15797636Y2721229D02*
D03*
X19177036Y6298179D02*
D03*
X19294263Y6229198D02*
D03*
X19160475Y15730403D02*
D03*
X19278619Y15797794D02*
D03*
X15701974Y19176888D02*
D03*
X15770601Y19294324D02*
D03*
X10983483Y20432405D02*
D03*
X10984403Y20568417D02*
D03*
X6269391Y19160414D02*
D03*
X6202365Y19278767D02*
D03*
D39*
X1498407Y11138301D02*
D03*
X20504404Y10847929D02*
D03*
D40*
X13952190Y8400318D02*
D03*
X14024966Y8339252D02*
D03*
X8047812Y13599678D02*
D03*
X7975041Y13660745D02*
D03*
D41*
X14125844Y8535792D02*
D03*
X7874157Y13464211D02*
D03*
D42*
X14051778Y13489091D02*
D03*
X14124467Y13550266D02*
D03*
X7948310Y8518444D02*
D03*
X7875534Y8457377D02*
D03*
D43*
X13948242Y13683488D02*
D03*
X8051566Y8323900D02*
D03*
D44*
X2692999Y15707106D02*
D03*
X2775199Y15659476D02*
D03*
X19306998Y6292896D02*
D03*
X19224799Y6340521D02*
D03*
D45*
X2840746Y15870444D02*
D03*
X19159250Y6129558D02*
D03*
D46*
X2770307Y6159475D02*
D03*
X2852506Y6207100D02*
D03*
X19229695Y15840527D02*
D03*
X19147495Y15792902D02*
D03*
D47*
X2702082Y6368887D02*
D03*
X19297923Y15631114D02*
D03*
D48*
X6293140Y2693132D02*
D03*
X6340516Y2775478D02*
D03*
X15706862Y19306865D02*
D03*
X15659486Y19224522D02*
D03*
D49*
X6129350Y2840380D02*
D03*
X15870651Y19159621D02*
D03*
D50*
X11077097Y1452494D02*
D03*
X11077103Y1547490D02*
D03*
X10922904Y20547508D02*
D03*
X10922899Y20452507D02*
D03*
D51*
X10861700Y1498448D02*
D03*
X11138301Y20501549D02*
D03*
D52*
X15840517Y2770027D02*
D03*
X15793146Y2852375D02*
D03*
X6159480Y19229974D02*
D03*
X6206851Y19147627D02*
D03*
D53*
X15630896Y2702448D02*
D03*
X6369106Y19297552D02*
D03*
%TF.MD5,96edc2a3992d0b85d47856db00f5403c*%
M02*
