%TF.GenerationSoftware,Altium Limited,Altium Designer,20.2.3 (150)*%
G04 Layer_Color=2752767*
%FSLAX45Y45*%
%MOMM*%
%TF.SameCoordinates,D065702F-5D7C-4ECE-B493-19553C93D9E3*%
%TF.FilePolarity,Positive*%
%TF.FileFunction,Drawing*%
%TF.Part,Single*%
G01*
G75*
%TA.AperFunction,NonConductor*%
%ADD55C,0.12700*%
%ADD110C,0.16933*%
D55*
X12288769Y4439879D02*
Y4541479D01*
X12390369D01*
Y4439879D01*
X12288769D01*
X12542769D02*
Y4541479D01*
X12644369D01*
Y4439879D01*
X12542769D01*
X11018769Y3471093D02*
Y3572693D01*
X11120369D01*
Y3471093D01*
X11018769D01*
X11272769D02*
Y3572693D01*
X11374369D01*
Y3471093D01*
X11272769D01*
X11526769D02*
Y3572693D01*
X11628369D01*
Y3471093D01*
X11526769D01*
X11780769D02*
Y3572693D01*
X11882369D01*
Y3471093D01*
X11780769D01*
X12288769D02*
Y3572693D01*
X12390369D01*
Y3471093D01*
X12288769D01*
X12542769D02*
Y3572693D01*
X12644369D01*
Y3471093D01*
X12542769D01*
X12034769D02*
Y3572693D01*
X12136369D01*
Y3471093D01*
X12034769D01*
X16002333Y6969493D02*
X15951534Y7071093D01*
X16053133D01*
X16002333Y6969493D01*
X15940631Y6780299D02*
X15889832Y6881899D01*
X15991431D01*
X15940631Y6780299D01*
X15559552Y6873464D02*
X15508752Y6975064D01*
X15610352D01*
X15559552Y6873464D01*
X14824197Y5538953D02*
X14773396Y5640553D01*
X14874997D01*
X14824197Y5538953D01*
X15170407Y5356459D02*
X15119608Y5458059D01*
X15221207D01*
X15170407Y5356459D01*
X15147491Y7250059D02*
X15096690Y7351659D01*
X15198291D01*
X15147491Y7250059D01*
X15061835Y7163483D02*
X15011034Y7265083D01*
X15112634D01*
X15061835Y7163483D01*
X14873016Y6812590D02*
X14822215Y6914190D01*
X14923816D01*
X14873016Y6812590D01*
X14653613Y6490703D02*
X14602814Y6592303D01*
X14704413D01*
X14653613Y6490703D01*
X14648837Y5945043D02*
X14598038Y6046643D01*
X14699638D01*
X14648837Y5945043D01*
X14302528Y7090471D02*
X14251729Y7192071D01*
X14353329D01*
X14302528Y7090471D01*
X15471140Y7131477D02*
X15420340Y7233077D01*
X15521941D01*
X15471140Y7131477D01*
X15035126Y6021065D02*
X14984326Y6122665D01*
X15085925D01*
X15035126Y6021065D01*
X14210475Y4160035D02*
X14159674Y4261635D01*
X14261275D01*
X14210475Y4160035D01*
X13812228Y4315958D02*
X13761427Y4417558D01*
X13863028D01*
X13812228Y4315958D01*
X7693660Y2423160D02*
X7642860Y2524760D01*
X7744460D01*
X7693660Y2423160D01*
X6692859Y4561840D02*
X6642059Y4663440D01*
X6743659D01*
X6692859Y4561840D01*
X9449242Y2373869D02*
X9398442Y2475469D01*
X9500042D01*
X9449242Y2373869D01*
X10795000Y3434080D02*
X10744200Y3535680D01*
X10845800D01*
X10795000Y3434080D01*
X6512860Y4658843D02*
X6462060Y4760443D01*
X6563660D01*
X6512860Y4658843D01*
X5196035Y4724436D02*
X5145235Y4826036D01*
X5246835D01*
X5196035Y4724436D01*
X6716601Y8041490D02*
X6665801Y8143090D01*
X6767401D01*
X6716601Y8041490D01*
X6874896Y8190794D02*
X6824096Y8292394D01*
X6925696D01*
X6874896Y8190794D01*
X8295787Y8198002D02*
X8244987Y8299602D01*
X8346587D01*
X8295787Y8198002D01*
X13759132Y8623866D02*
X13708331Y8725466D01*
X13809932D01*
X13759132Y8623866D01*
X12212996Y14634441D02*
X12162196Y14736041D01*
X12263796D01*
X12212996Y14634441D01*
X7474260Y16231503D02*
X7423460Y16333104D01*
X7525060D01*
X7474260Y16231503D01*
X6522024Y16025452D02*
X6471224Y16127052D01*
X6572824D01*
X6522024Y16025452D01*
X11960860Y18211800D02*
X11910060Y18313400D01*
X12011660D01*
X11960860Y18211800D01*
X11911147Y18462935D02*
X11860347Y18564536D01*
X11961947D01*
X11911147Y18462935D01*
X11481928Y17722647D02*
X11431128Y17824248D01*
X11532728D01*
X11481928Y17722647D01*
X11488420Y17873981D02*
X11437620Y17975580D01*
X11539220D01*
X11488420Y17873981D01*
X15189200Y16289020D02*
X15138400Y16390620D01*
X15239999D01*
X15189200Y16289020D01*
X7803634Y16699863D02*
X7752834Y16801462D01*
X7854434D01*
X7803634Y16699863D01*
X8201660Y17345660D02*
X8150860Y17447260D01*
X8252460D01*
X8201660Y17345660D01*
X7990545Y18043428D02*
X7939745Y18145029D01*
X8041345D01*
X7990545Y18043428D01*
X8125460Y18064481D02*
X8074660Y18166080D01*
X8176260D01*
X8125460Y18064481D01*
X12841496Y16814775D02*
X12790696Y16916376D01*
X12892296D01*
X12841496Y16814775D01*
X15524461Y15953108D02*
X15473662Y16054707D01*
X15575262D01*
X15524461Y15953108D01*
X12927258Y18230643D02*
X12876459Y18332242D01*
X12978059D01*
X12927258Y18230643D01*
X12748260D02*
X12697460Y18332242D01*
X12799060D01*
X12748260Y18230643D01*
X12379960Y18484642D02*
X12329160Y18586243D01*
X12430760D01*
X12379960Y18484642D01*
X12960802Y17345660D02*
X12910002Y17447260D01*
X13011601D01*
X12960802Y17345660D01*
X14025880Y18999200D02*
X13975079Y19100800D01*
X14076680D01*
X14025880Y18999200D01*
X19344627Y15812048D02*
X19293826Y15913649D01*
X19395427D01*
X19344627Y15812048D01*
X19634473Y16106140D02*
X19583673Y16207739D01*
X19685274D01*
X19634473Y16106140D01*
X20911819Y10929620D02*
X20861020Y11031220D01*
X20962621D01*
X20911819Y10929620D01*
X20968307Y10706974D02*
X20917506Y10808574D01*
X21019107D01*
X20968307Y10706974D01*
X19142506Y6681673D02*
X19091705Y6783273D01*
X19193306D01*
X19142506Y6681673D01*
X17388689Y5130648D02*
X17337888Y5232248D01*
X17439488D01*
X17388689Y5130648D01*
X17879060Y5638800D02*
X17828259Y5740400D01*
X17929860D01*
X17879060Y5638800D01*
X16570959Y3548380D02*
X16520160Y3649980D01*
X16621761D01*
X16570959Y3548380D01*
X10534284Y1296446D02*
X10483484Y1398046D01*
X10585084D01*
X10534284Y1296446D01*
X9035793Y20341666D02*
X8984993Y20443266D01*
X9086593D01*
X9035793Y20341666D01*
X8842169Y18814120D02*
X8791369Y18915720D01*
X8892969D01*
X8842169Y18814120D01*
X8990472Y18485889D02*
X8939672Y18587489D01*
X9041272D01*
X8990472Y18485889D01*
X10421650Y20701300D02*
X10370850Y20802901D01*
X10472450D01*
X10421650Y20701300D01*
X15821193Y19509740D02*
X15770393Y19611340D01*
X15871992D01*
X15821193Y19509740D01*
X19677760Y15829280D02*
X19626961Y15930881D01*
X19728561D01*
X19677760Y15829280D01*
X21000476Y11056620D02*
X20949677Y11158220D01*
X21051276D01*
X21000476Y11056620D01*
X19396419Y6085888D02*
X19345618Y6187488D01*
X19447218D01*
X19396419Y6085888D01*
X17564101Y4020820D02*
X17513300Y4122420D01*
X17614900D01*
X17564101Y4020820D01*
X8591177Y19156931D02*
X8540377Y19258531D01*
X8641977D01*
X8591177Y19156931D01*
X11858196Y19110349D02*
X11807396Y19211948D01*
X11908996D01*
X11858196Y19110349D01*
X12748260Y17722643D02*
X12697460Y17824242D01*
X12799060D01*
X12748260Y17722643D01*
X14025880Y18315939D02*
X13975079Y18417540D01*
X14076680D01*
X14025880Y18315939D01*
Y18087340D02*
X13975079Y18188940D01*
X14076680D01*
X14025880Y18087340D01*
X15808788Y2528517D02*
X15757986Y2630117D01*
X15859587D01*
X15808788Y2528517D01*
X8703691Y17647920D02*
X8652891Y17749519D01*
X8754491D01*
X8703691Y17647920D01*
X9027160Y17987473D02*
X8976360Y18089072D01*
X9077960D01*
X9027160Y17987473D01*
X9922556Y18231104D02*
X9871756Y18332704D01*
X9973356D01*
X9922556Y18231104D01*
X9090660Y17860493D02*
X9039860Y17962093D01*
X9141460D01*
X9090660Y17860493D01*
X9240520Y17919701D02*
X9189720Y18021300D01*
X9291320D01*
X9240520Y17919701D01*
X9331960Y17806229D02*
X9281160Y17907828D01*
X9382760D01*
X9331960Y17806229D01*
X20663812Y11463089D02*
X20613013Y11564689D01*
X20714612D01*
X20663812Y11463089D01*
X11609319Y18486053D02*
X11558519Y18587654D01*
X11660119D01*
X11609319Y18486053D01*
X9086832Y18416499D02*
X9036032Y18518098D01*
X9137632D01*
X9086832Y18416499D01*
X9161539Y18269305D02*
X9110739Y18370906D01*
X9212339D01*
X9161539Y18269305D01*
X11960860Y18610580D02*
X11910060Y18712180D01*
X12011660D01*
X11960860Y18610580D01*
X12456160Y18357642D02*
X12405360Y18459242D01*
X12506960D01*
X12456160Y18357642D01*
X8162920Y18359486D02*
X8112120Y18461086D01*
X8213720D01*
X8162920Y18359486D01*
X5587284Y16443243D02*
X5536484Y16544844D01*
X5638084D01*
X5587284Y16443243D01*
X4554220Y14664339D02*
X4503420Y14765939D01*
X4605020D01*
X4554220Y14664339D01*
X4581401Y6464582D02*
X4530601Y6566182D01*
X4632201D01*
X4581401Y6464582D01*
X4074160Y4478020D02*
X4023360Y4579620D01*
X4124960D01*
X4074160Y4478020D01*
X4169923Y4840046D02*
X4119123Y4941646D01*
X4220723D01*
X4169923Y4840046D01*
X3872220Y5882660D02*
X3821420Y5984260D01*
X3923020D01*
X3872220Y5882660D01*
Y6215380D02*
X3821420Y6316980D01*
X3923020D01*
X3872220Y6215380D01*
X8594334Y18622386D02*
X8543534Y18723985D01*
X8645134D01*
X8594334Y18622386D01*
X8162920Y18486465D02*
X8112120Y18588065D01*
X8213720D01*
X8162920Y18486465D01*
X4381358Y18159605D02*
X4330558Y18261206D01*
X4432158D01*
X4381358Y18159605D01*
X2427994Y14157770D02*
X2377194Y14259369D01*
X2478794D01*
X2427994Y14157770D01*
X2869000Y16559486D02*
X2818200Y16661087D01*
X2919800D01*
X2869000Y16559486D01*
X2983149Y16065950D02*
X2932349Y16167551D01*
X3033949D01*
X2983149Y16065950D01*
X6512860Y10795000D02*
X6462060Y10896600D01*
X6563660D01*
X6512860Y10795000D01*
X7826520Y18628853D02*
X7775720Y18730453D01*
X7877320D01*
X7826520Y18628853D01*
X9349740Y17459959D02*
X9298940Y17561560D01*
X9400540D01*
X9349740Y17459959D01*
X8144523Y13361159D02*
X8093723Y13462759D01*
X8195323D01*
X8144523Y13361159D01*
X8482239Y15025040D02*
X8431439Y15126640D01*
X8533039D01*
X8482239Y15025040D01*
X9922556Y19354883D02*
X9871756Y19456483D01*
X9973356D01*
X9922556Y19354883D01*
X10210960Y19284763D02*
X10160160Y19386362D01*
X10261760D01*
X10210960Y19284763D01*
X1081009Y10914723D02*
X1030209Y11016323D01*
X1131809D01*
X1081009Y10914723D01*
X6512860Y9037620D02*
X6462060Y9139220D01*
X6563660D01*
X6512860Y9037620D01*
X5129042Y8203301D02*
X5078242Y8304901D01*
X5179842D01*
X5129042Y8203301D01*
X5192542Y10908518D02*
X5141742Y11010118D01*
X5243342D01*
X5192542Y10908518D01*
X7781976Y10652437D02*
X7731176Y10754037D01*
X7832776D01*
X7781976Y10652437D01*
X13836264Y13394464D02*
X13785464Y13496065D01*
X13887064D01*
X13836264Y13394464D01*
X5859780Y5316220D02*
X5808980Y5417820D01*
X5910580D01*
X5859780Y5316220D01*
X922020Y9171940D02*
X871220Y9273540D01*
X972820D01*
X922020Y9171940D01*
X2322383Y11557000D02*
X2271583Y11658600D01*
X2373183D01*
X2322383Y11557000D01*
X4052219D02*
X4001419Y11658600D01*
X4103019D01*
X4052219Y11557000D01*
X922020Y10934700D02*
X871220Y11036300D01*
X972820D01*
X922020Y10934700D01*
X4052219Y11992544D02*
X4001419Y12094144D01*
X4103019D01*
X4052219Y11992544D01*
X5372542Y12844780D02*
X5321742Y12946381D01*
X5423342D01*
X5372542Y12844780D01*
X2275840Y16680180D02*
X2225040Y16781779D01*
X2326640D01*
X2275840Y16680180D01*
X6106160Y19626956D02*
X6055360Y19728555D01*
X6156960D01*
X6106160Y19626956D01*
X14192047Y6831127D02*
X14141248Y6932727D01*
X14242847D01*
X14192047Y6831127D01*
X17045940Y5130648D02*
X16995140Y5232248D01*
X17096741D01*
X17045940Y5130648D01*
X17365858Y10929620D02*
X17315057Y11031220D01*
X17416658D01*
X17365858Y10929620D01*
Y11592992D02*
X17315057Y11694592D01*
X17416658D01*
X17365858Y11592992D01*
X18366187Y12593320D02*
X18315385Y12694920D01*
X18416986D01*
X18366187Y12593320D01*
Y12967255D02*
X18315385Y13068854D01*
X18416986D01*
X18366187Y12967255D01*
X8941242Y4561840D02*
X8890442Y4663440D01*
X8992042D01*
X8941242Y4561840D01*
Y4025900D02*
X8890442Y4127500D01*
X8992042D01*
X8941242Y4025900D01*
X15074899Y9931400D02*
X15024100Y10033000D01*
X15125700D01*
X15074899Y9931400D01*
X17033240Y5920740D02*
X16982440Y6022340D01*
X17084039D01*
X17033240Y5920740D01*
X15730220Y5450840D02*
X15679420Y5552440D01*
X15781020D01*
X15730220Y5450840D01*
X8125460Y17932401D02*
X8074660Y18034000D01*
X8176260D01*
X8125460Y17932401D01*
X3937000Y14455141D02*
X3886200Y14556740D01*
X3987800D01*
X3937000Y14455141D01*
X11958737Y18103642D02*
X11907937Y18205241D01*
X12009537D01*
X11958737Y18103642D01*
X10693400Y18103647D02*
X10642600Y18205247D01*
X10744200D01*
X10693400Y18103647D01*
X15267940Y12197080D02*
X15217140Y12298680D01*
X15318739D01*
X15267940Y12197080D01*
X15635223Y12593320D02*
X15584424Y12694920D01*
X15686024D01*
X15635223Y12593320D01*
X17365863Y12323318D02*
X17315063Y12424918D01*
X17416663D01*
X17365863Y12323318D01*
X11773967Y17708881D02*
X11723167Y17810480D01*
X11824767D01*
X11773967Y17708881D01*
X11506200Y18178780D02*
X11455400Y18280380D01*
X11557000D01*
X11506200Y18178780D01*
X17785080Y6261100D02*
X17734280Y6362700D01*
X17835880D01*
X17785080Y6261100D01*
X15786836Y6155157D02*
X15736037Y6256757D01*
X15837637D01*
X15786836Y6155157D01*
X8454080Y18613445D02*
X8403280Y18715045D01*
X8504880D01*
X8454080Y18613445D01*
X10469108Y18104105D02*
X10418308Y18205704D01*
X10519908D01*
X10469108Y18104105D01*
X10050780Y17647920D02*
X9999980Y17749519D01*
X10101580D01*
X10050780Y17647920D01*
X13002260Y18040141D02*
X12951460Y18141742D01*
X13053059D01*
X13002260Y18040141D01*
X12125960Y17630141D02*
X12075160Y17731740D01*
X12176760D01*
X12125960Y17630141D01*
X12926060Y17805400D02*
X12875259Y17907001D01*
X12976860D01*
X12926060Y17805400D01*
X11076940Y17849648D02*
X11026140Y17951247D01*
X11127740D01*
X11076940Y17849648D01*
X11830858Y17838141D02*
X11780058Y17939742D01*
X11881658D01*
X11830858Y17838141D01*
X11961820Y17786142D02*
X11911020Y17887743D01*
X12012620D01*
X11961820Y17786142D01*
X10693400Y17849648D02*
X10642600Y17951247D01*
X10744200D01*
X10693400Y17849648D01*
X5192542Y11976100D02*
X5141742Y12077700D01*
X5243342D01*
X5192542Y11976100D01*
X10439908Y17752060D02*
X10389108Y17853661D01*
X10490708D01*
X10439908Y17752060D01*
X4052219Y6880860D02*
X4001419Y6982460D01*
X4103019D01*
X4052219Y6880860D01*
X4234180Y13025121D02*
X4183380Y13126720D01*
X4284980D01*
X4234180Y13025121D01*
X4052219Y12717780D02*
X4001419Y12819380D01*
X4103019D01*
X4052219Y12717780D01*
X7485868Y13025121D02*
X7435068Y13126720D01*
X7536668D01*
X7485868Y13025121D01*
X4234180Y10464800D02*
X4183380Y10566400D01*
X4284980D01*
X4234180Y10464800D01*
X6692859Y12232112D02*
X6642059Y12333712D01*
X6743659D01*
X6692859Y12232112D01*
X5956300Y3063240D02*
X5905500Y3164840D01*
X6007100D01*
X5956300Y3063240D01*
X16786861Y7226300D02*
X16736060Y7327900D01*
X16837660D01*
X16786861Y7226300D01*
X17139905Y7066478D02*
X17089105Y7168078D01*
X17190704D01*
X17139905Y7066478D01*
X16555734Y6873255D02*
X16504935Y6974855D01*
X16606535D01*
X16555734Y6873255D01*
X16365540Y12898120D02*
X16314740Y12999719D01*
X16416341D01*
X16365540Y12898120D01*
X8559800Y18369279D02*
X8509000Y18470880D01*
X8610600D01*
X8559800Y18369279D01*
X11944558Y17976642D02*
X11893758Y18078242D01*
X11995358D01*
X11944558Y17976642D01*
X10986927Y17976646D02*
X10936127Y18078247D01*
X11037727D01*
X10986927Y17976646D01*
X4940300Y14084300D02*
X4889500Y14185899D01*
X4991100D01*
X4940300Y14084300D01*
X13855701Y5128260D02*
X13804900Y5229860D01*
X13906500D01*
X13855701Y5128260D01*
X12456820Y17849641D02*
X12406020Y17951242D01*
X12507620D01*
X12456820Y17849641D01*
X11696700Y6667500D02*
X11645900Y6769100D01*
X11747500D01*
X11696700Y6667500D01*
X6121400Y2271441D02*
X6070600Y2373041D01*
X6172200D01*
X6121400Y2271441D01*
X11960860Y18381979D02*
X11910060Y18483580D01*
X12011660D01*
X11960860Y18381979D01*
X2357100Y5842000D02*
X2306300Y5943600D01*
X2407900D01*
X2357100Y5842000D01*
X6019800Y18709641D02*
X5969000Y18811240D01*
X6070600D01*
X6019800Y18709641D01*
X11125200Y18103647D02*
X11074400Y18205247D01*
X11176000D01*
X11125200Y18103647D01*
X6164580Y18844260D02*
X6113780Y18945860D01*
X6215380D01*
X6164580Y18844260D01*
X10683240Y18430240D02*
X10632440Y18531841D01*
X10734040D01*
X10683240Y18430240D01*
X3872220Y11322060D02*
X3821420Y11423660D01*
X3923020D01*
X3872220Y11322060D01*
X15234920Y11173460D02*
X15184120Y11275060D01*
X15285719D01*
X15234920Y11173460D01*
X13856767Y7275627D02*
X13805968Y7377227D01*
X13907567D01*
X13856767Y7275627D01*
X16365540Y11008360D02*
X16314740Y11109960D01*
X16416341D01*
X16365540Y11008360D01*
X15819119Y6461760D02*
X15768320Y6563360D01*
X15869920D01*
X15819119Y6461760D01*
X16976273Y11802293D02*
X16925473Y11903893D01*
X17027074D01*
X16976273Y11802293D01*
X3872220Y15166341D02*
X3821420Y15267940D01*
X3923020D01*
X3872220Y15166341D01*
X5372542Y14004900D02*
X5321742Y14106500D01*
X5423342D01*
X5372542Y14004900D01*
X5506720Y14137640D02*
X5455920Y14239240D01*
X5557520D01*
X5506720Y14137640D01*
X16508919Y10550784D02*
X16458118Y10652384D01*
X16559718D01*
X16508919Y10550784D01*
X5394960Y6830060D02*
X5344160Y6931660D01*
X5445760D01*
X5394960Y6830060D01*
X16334740Y7404100D02*
X16283940Y7505700D01*
X16385539D01*
X16334740Y7404100D01*
X16635538Y13144501D02*
X16584737Y13246100D01*
X16686337D01*
X16635538Y13144501D01*
X4310380Y14005560D02*
X4259580Y14107159D01*
X4361180D01*
X4310380Y14005560D01*
X16365535Y13817599D02*
X16314735Y13919200D01*
X16416335D01*
X16365535Y13817599D01*
X16311880Y13218159D02*
X16261079Y13319760D01*
X16362680D01*
X16311880Y13218159D01*
X14150340Y6375400D02*
X14099541Y6477000D01*
X14201140D01*
X14150340Y6375400D01*
X16395700Y6057900D02*
X16344901Y6159500D01*
X16446500D01*
X16395700Y6057900D01*
X16786861Y12174220D02*
X16736060Y12275820D01*
X16837660D01*
X16786861Y12174220D01*
X17635860Y13023219D02*
X17585060Y13124820D01*
X17686659D01*
X17635860Y13023219D01*
X17505679Y13825220D02*
X17454880Y13926820D01*
X17556480D01*
X17505679Y13825220D01*
X6512860Y11980880D02*
X6462060Y12082480D01*
X6563660D01*
X6512860Y11980880D01*
X17381219Y13383260D02*
X17330420Y13484860D01*
X17432021D01*
X17381219Y13383260D01*
X18366180D02*
X18315381Y13484860D01*
X18416982D01*
X18366180Y13383260D01*
X6692900Y10523220D02*
X6642100Y10624820D01*
X6743700D01*
X6692900Y10523220D01*
X13961932Y5719415D02*
X13911133Y5821015D01*
X14012733D01*
X13961932Y5719415D01*
X15635219Y13662660D02*
X15584419Y13764259D01*
X15686018D01*
X15635219Y13662660D01*
X3870960Y10523220D02*
X3820160Y10624820D01*
X3921760D01*
X3870960Y10523220D01*
X15887700Y6090920D02*
X15836900Y6192520D01*
X15938499D01*
X15887700Y6090920D01*
X17145000Y4894580D02*
X17094200Y4996180D01*
X17195799D01*
X17145000Y4894580D01*
X15394940Y11739880D02*
X15344141Y11841480D01*
X15445740D01*
X15394940Y11739880D01*
X3872220Y7369820D02*
X3821420Y7471420D01*
X3923020D01*
X3872220Y7369820D01*
X16311880Y12496800D02*
X16261079Y12598400D01*
X16362680D01*
X16311880Y12496800D01*
X16343819Y12465238D02*
X16293018Y12566838D01*
X16394618D01*
X16343819Y12465238D01*
X15110460Y4874260D02*
X15059660Y4975860D01*
X15161259D01*
X15110460Y4874260D01*
X5372542Y11289858D02*
X5321742Y11391458D01*
X5423342D01*
X5372542Y11289858D01*
X14151935Y5848025D02*
X14101135Y5949625D01*
X14202734D01*
X14151935Y5848025D01*
X6888480Y14892020D02*
X6837680Y14993620D01*
X6939280D01*
X6888480Y14892020D01*
X14787880D02*
X14737080Y14993620D01*
X14838680D01*
X14787880Y14892020D01*
X3738880Y10149840D02*
X3688080Y10251440D01*
X3789680D01*
X3738880Y10149840D01*
X16672560Y6024880D02*
X16621761Y6126480D01*
X16723360D01*
X16672560Y6024880D01*
X5402783Y14432280D02*
X5351983Y14533881D01*
X5453583D01*
X5402783Y14432280D01*
X5892800D02*
X5842000Y14533881D01*
X5943600D01*
X5892800Y14432280D01*
X15519400D02*
X15468600Y14533881D01*
X15570200D01*
X15519400Y14432280D01*
X15527020Y5961380D02*
X15476221Y6062980D01*
X15577820D01*
X15527020Y5961380D01*
X6512860Y5882340D02*
X6462060Y5983940D01*
X6563660D01*
X6512860Y5882340D01*
X5372542Y4722343D02*
X5321742Y4823943D01*
X5423342D01*
X5372542Y4722343D01*
Y7043420D02*
X5321742Y7145020D01*
X5423342D01*
X5372542Y7043420D01*
X15242540Y6807200D02*
X15191740Y6908800D01*
X15293340D01*
X15242540Y6807200D01*
X6309360Y7203440D02*
X6258560Y7305040D01*
X6360160D01*
X6309360Y7203440D01*
X3872220Y8722360D02*
X3821420Y8823960D01*
X3923020D01*
X3872220Y8722360D01*
X6446520D02*
X6395720Y8823960D01*
X6497320D01*
X6446520Y8722360D01*
X3872220Y9194800D02*
X3821420Y9296400D01*
X3923020D01*
X3872220Y9194800D01*
X5778500Y4859020D02*
X5727700Y4960620D01*
X5829300D01*
X5778500Y4859020D01*
X17195799Y6090920D02*
X17145000Y6192520D01*
X17246600D01*
X17195799Y6090920D01*
X7495540Y8321004D02*
X7444740Y8422604D01*
X7546340D01*
X7495540Y8321004D01*
X16177260Y10325100D02*
X16126460Y10426700D01*
X16228059D01*
X16177260Y10325100D01*
X6692859Y8203301D02*
X6642059Y8304901D01*
X6743659D01*
X6692859Y8203301D01*
D110*
X1550777Y11070900D02*
G03*
X1550777Y11070900I-50800J0D01*
G01*
X14134506Y8483158D02*
G03*
X14134506Y8483158I-50800J0D01*
G01*
X14043623Y13632916D02*
G03*
X14043623Y13632916I-50800J0D01*
G01*
X7967096Y13516840D02*
G03*
X7967096Y13516840I-50800J0D01*
G01*
X8057855Y8374537D02*
G03*
X8057855Y8374537I-50800J0D01*
G01*
X20553751Y10915330D02*
G03*
X20553751Y10915330I-50800J0D01*
G01*
X2859100Y15811348D02*
G03*
X2859100Y15811348I-50800J0D01*
G01*
X2788011Y6311346D02*
G03*
X2788011Y6311346I-50800J0D01*
G01*
X6239342Y2808112D02*
G03*
X6239342Y2808112I-50800J0D01*
G01*
X10979902Y1499997D02*
G03*
X10979902Y1499997I-50800J0D01*
G01*
X15739343Y2737399D02*
G03*
X15739343Y2737399I-50800J0D01*
G01*
X19242502Y6188649D02*
G03*
X19242502Y6188649I-50800J0D01*
G01*
X19313586Y15688655D02*
G03*
X19313586Y15688655I-50800J0D01*
G01*
X15862259Y19191888D02*
G03*
X15862259Y19191888I-50800J0D01*
G01*
X11121700Y20500005D02*
G03*
X11121700Y20500005I-50800J0D01*
G01*
X6362253Y19262598D02*
G03*
X6362253Y19262598I-50800J0D01*
G01*
%TF.MD5,ba07b67d4c2f0ecabca3855720e81135*%
M02*
