%TF.GenerationSoftware,Altium Limited,Altium Designer,20.2.3 (150)*%
G04 Layer_Color=32896*
%FSLAX45Y45*%
%MOMM*%
%TF.SameCoordinates,D065702F-5D7C-4ECE-B493-19553C93D9E3*%
%TF.FilePolarity,Positive*%
%TF.FileFunction,Legend,Bot*%
%TF.Part,Single*%
G01*
G75*
%TA.AperFunction,NonConductor*%
%ADD54C,0.20000*%
%ADD55C,0.12700*%
%ADD56C,0.25400*%
D54*
X1321280Y10873614D02*
G03*
X1321280Y10873614I5001J-8660D01*
G01*
X13823936Y8428886D02*
G03*
X13823936Y8428886I-5680J8231D01*
G01*
X13994058Y13373376D02*
G03*
X13994058Y13373376I-1592J-9872D01*
G01*
X8183480Y13553035D02*
G03*
X8183480Y13553035I-1737J9848D01*
G01*
X8006873Y8653905D02*
G03*
X8006873Y8653905I931J-9957D01*
G01*
X20668919Y11126869D02*
G03*
X20668919Y11126869I8082J-5889D01*
G01*
X2564702Y15719452D02*
G03*
X2564702Y15719452I-9964J848D01*
G01*
X2700093Y6046082D02*
G03*
X2700093Y6046082I-10000J0D01*
G01*
X6280381Y2544828D02*
G03*
X6280381Y2544828I-15J10000D01*
G01*
X11144994Y1326240D02*
G03*
X11144994Y1326240I-10000J0D01*
G01*
X15962810Y2693504D02*
G03*
X15962810Y2693503I-9147J-4040D01*
G01*
X19443201Y6289484D02*
G03*
X19443201Y6289484I2064J-9785D01*
G01*
X19299965Y15952844D02*
G03*
X19299965Y15952844I9942J1075D01*
G01*
X15724648Y19436520D02*
G03*
X15724648Y19436520I-5013J8653D01*
G01*
X10875004Y20673756D02*
G03*
X10875004Y20673756I-10000J0D01*
G01*
X6051366Y19319180D02*
G03*
X6051367Y19319180I-5028J-8644D01*
G01*
D55*
X1367541Y10824967D02*
X1632539Y10825033D01*
X1367450Y11174969D02*
X1367541Y10824967D01*
X1367450Y11174969D02*
X1632448Y11175035D01*
X1632539Y10825033D01*
X13824142Y8379958D02*
X14027150Y8209620D01*
X13824142Y8379958D02*
X14049121Y8648075D01*
X14252122Y8477738D01*
X14027150Y8209620D02*
X14252122Y8477738D01*
X14049786Y13359460D02*
X14252534Y13530092D01*
X13824422Y13627248D02*
X14049786Y13359460D01*
X13824422Y13627248D02*
X14027170Y13797885D01*
X14252534Y13530092D01*
X7972857Y13790381D02*
X8175859Y13620044D01*
X7950881Y13351927D02*
X8175859Y13620044D01*
X7747879Y13522264D02*
X7950881Y13351927D01*
X7747879Y13522264D02*
X7972857Y13790381D01*
X7747493Y8477737D02*
X7950495Y8648075D01*
X8175473Y8379958D01*
X7972466Y8209620D02*
X8175473Y8379958D01*
X7747493Y8477737D02*
X7972466Y8209620D01*
X20370810Y11161425D02*
X20635808Y11161039D01*
X20635300Y10811038D02*
X20635808Y11161039D01*
X20370302Y10811424D02*
X20635300Y10811038D01*
X20370302Y10811424D02*
X20370810Y11161425D01*
X2570373Y15665009D02*
X2799669Y15532156D01*
X2570373Y15665009D02*
X2745842Y15967847D01*
X2975132Y15834995D01*
X2799669Y15532156D02*
X2975132Y15834995D01*
X2745837Y6032155D02*
X2975132Y6165002D01*
X2570378Y6334994D02*
X2745837Y6032155D01*
X2570378Y6334994D02*
X2799669Y6467841D01*
X2975132Y6165002D01*
X6335608Y2570637D02*
X6467759Y2800330D01*
X6032236Y2745176D02*
X6335608Y2570637D01*
X6032236Y2745176D02*
X6164387Y2974873D01*
X6467759Y2800330D01*
X11174994Y1367490D02*
X11175004Y1632488D01*
X10824997Y1367500D02*
X11174994Y1367490D01*
X10824997Y1367500D02*
X10825002Y1632504D01*
X11175004Y1632488D01*
X15835625Y2974868D02*
X15967766Y2745166D01*
X15664383Y2570637D02*
X15967766Y2745166D01*
X15532242Y2800340D02*
X15664383Y2570637D01*
X15532242Y2800340D02*
X15835625Y2974868D01*
X19200333Y6467846D02*
X19429623Y6334989D01*
X19254160Y6032149D02*
X19429623Y6334989D01*
X19024864Y6165007D02*
X19254160Y6032149D01*
X19024864Y6165007D02*
X19200333Y6467846D01*
X19024864Y15835001D02*
X19254160Y15967847D01*
X19429628Y15665009D01*
X19200333Y15532156D02*
X19429628Y15665009D01*
X19024864Y15835001D02*
X19200333Y15532156D01*
X15532237Y19199667D02*
X15664394Y19429364D01*
X15967766Y19254826D01*
X15835616Y19025128D02*
X15967766Y19254826D01*
X15532237Y19199667D02*
X15835616Y19025128D01*
X10824997Y20367508D02*
X10825002Y20632510D01*
X11175004Y20632501D01*
X11174994Y20367497D02*
X11175004Y20632501D01*
X10824997Y20367508D02*
X11174994Y20367497D01*
X6032236Y19254836D02*
X6164377Y19025134D01*
X6032236Y19254836D02*
X6335619Y19429359D01*
X6467759Y19199657D01*
X6164377Y19025134D02*
X6467759Y19199657D01*
D56*
X14165581Y13914120D02*
Y14066470D01*
X14089404D01*
X14064014Y14041080D01*
Y13990295D01*
X14089404Y13964903D01*
X14165581D01*
X14013229Y13914120D02*
X13962447D01*
X13987837D01*
Y14066470D01*
X14013229Y14041080D01*
X13886270D02*
X13860880Y14066470D01*
X13810095D01*
X13784703Y14041080D01*
Y14015688D01*
X13810095Y13990295D01*
X13784703Y13964903D01*
Y13939513D01*
X13810095Y13914120D01*
X13860880D01*
X13886270Y13939513D01*
Y13964903D01*
X13860880Y13990295D01*
X13886270Y14015688D01*
Y14041080D01*
X13860880Y13990295D02*
X13810095D01*
X14165581Y8785860D02*
Y8938211D01*
X14089404D01*
X14064014Y8912819D01*
Y8862035D01*
X14089404Y8836643D01*
X14165581D01*
X14013229Y8785860D02*
X13962447D01*
X13987837D01*
Y8938211D01*
X14013229Y8912819D01*
X13886270Y8938211D02*
X13784703D01*
Y8912819D01*
X13886270Y8811252D01*
Y8785860D01*
X8115300D02*
Y8938211D01*
X8039125D01*
X8013733Y8912819D01*
Y8862035D01*
X8039125Y8836643D01*
X8115300D01*
X7962949Y8785860D02*
X7912166D01*
X7937557D01*
Y8938211D01*
X7962949Y8912819D01*
X7734423Y8938211D02*
X7785207Y8912819D01*
X7835990Y8862035D01*
Y8811252D01*
X7810599Y8785860D01*
X7759815D01*
X7734423Y8811252D01*
Y8836643D01*
X7759815Y8862035D01*
X7835990D01*
X15900400Y19573241D02*
Y19725591D01*
X15824225D01*
X15798833Y19700198D01*
Y19649416D01*
X15824225Y19624023D01*
X15900400D01*
X15748048Y19573241D02*
X15697266D01*
X15722656D01*
Y19725591D01*
X15748048Y19700198D01*
X15519524Y19725591D02*
X15621091D01*
Y19649416D01*
X15570306Y19674808D01*
X15544914D01*
X15519524Y19649416D01*
Y19598631D01*
X15544914Y19573241D01*
X15595699D01*
X15621091Y19598631D01*
X11203940Y20769580D02*
Y20921931D01*
X11127765D01*
X11102373Y20896539D01*
Y20845755D01*
X11127765Y20820363D01*
X11203940D01*
X11051589Y20769580D02*
X11000806D01*
X11026197D01*
Y20921931D01*
X11051589Y20896539D01*
X10848455Y20769580D02*
Y20921931D01*
X10924630Y20845755D01*
X10823063D01*
X6383020Y19573241D02*
Y19725591D01*
X6306845D01*
X6281453Y19700198D01*
Y19649416D01*
X6306845Y19624023D01*
X6383020D01*
X6230669Y19573241D02*
X6179886D01*
X6205277D01*
Y19725591D01*
X6230669Y19700198D01*
X6103710D02*
X6078319Y19725591D01*
X6027535D01*
X6002143Y19700198D01*
Y19674808D01*
X6027535Y19649416D01*
X6052927D01*
X6027535D01*
X6002143Y19624023D01*
Y19598631D01*
X6027535Y19573241D01*
X6078319D01*
X6103710Y19598631D01*
X2910840Y16098520D02*
Y16250871D01*
X2834665D01*
X2809273Y16225479D01*
Y16174695D01*
X2834665Y16149303D01*
X2910840D01*
X2758489Y16098520D02*
X2707706D01*
X2733097D01*
Y16250871D01*
X2758489Y16225479D01*
X2529963Y16098520D02*
X2631530D01*
X2529963Y16200087D01*
Y16225479D01*
X2555355Y16250871D01*
X2606139D01*
X2631530Y16225479D01*
X1661160Y11280140D02*
Y11432491D01*
X1584985D01*
X1559593Y11407099D01*
Y11356315D01*
X1584985Y11330923D01*
X1661160D01*
X1508809Y11280140D02*
X1458026D01*
X1483417D01*
Y11432491D01*
X1508809Y11407099D01*
X1381850Y11280140D02*
X1331067D01*
X1356459D01*
Y11432491D01*
X1381850Y11407099D01*
X2910840Y6581140D02*
Y6733491D01*
X2834665D01*
X2809273Y6708099D01*
Y6657315D01*
X2834665Y6631923D01*
X2910840D01*
X2758489Y6581140D02*
X2707706D01*
X2733097D01*
Y6733491D01*
X2758489Y6708099D01*
X2631530D02*
X2606139Y6733491D01*
X2555355D01*
X2529963Y6708099D01*
Y6606532D01*
X2555355Y6581140D01*
X2606139D01*
X2631530Y6606532D01*
Y6708099D01*
X7988300Y13906500D02*
Y14058852D01*
X7912125D01*
X7886733Y14033459D01*
Y13982675D01*
X7912125Y13957283D01*
X7988300D01*
X7835949Y13931892D02*
X7810557Y13906500D01*
X7759774D01*
X7734382Y13931892D01*
Y14033459D01*
X7759774Y14058852D01*
X7810557D01*
X7835949Y14033459D01*
Y14008067D01*
X7810557Y13982675D01*
X7734382D01*
X6256020Y3088640D02*
Y3240991D01*
X6179845D01*
X6154453Y3215599D01*
Y3164815D01*
X6179845Y3139423D01*
X6256020D01*
X6103669Y3215599D02*
X6078277Y3240991D01*
X6027494D01*
X6002102Y3215599D01*
Y3190207D01*
X6027494Y3164815D01*
X6002102Y3139423D01*
Y3114032D01*
X6027494Y3088640D01*
X6078277D01*
X6103669Y3114032D01*
Y3139423D01*
X6078277Y3164815D01*
X6103669Y3190207D01*
Y3215599D01*
X6078277Y3164815D02*
X6027494D01*
X11076940Y1737360D02*
Y1889711D01*
X11000765D01*
X10975373Y1864319D01*
Y1813535D01*
X11000765Y1788143D01*
X11076940D01*
X10924589Y1889711D02*
X10823022D01*
Y1864319D01*
X10924589Y1762752D01*
Y1737360D01*
X15773399Y3088640D02*
Y3240991D01*
X15697224D01*
X15671832Y3215599D01*
Y3164815D01*
X15697224Y3139423D01*
X15773399D01*
X15519482Y3240991D02*
X15570267Y3215599D01*
X15621049Y3164815D01*
Y3114032D01*
X15595657Y3088640D01*
X15544875D01*
X15519482Y3114032D01*
Y3139423D01*
X15544875Y3164815D01*
X15621049D01*
X19265900Y6581140D02*
Y6733491D01*
X19189725D01*
X19164333Y6708099D01*
Y6657315D01*
X19189725Y6631923D01*
X19265900D01*
X19011983Y6733491D02*
X19113548D01*
Y6657315D01*
X19062766Y6682707D01*
X19037373D01*
X19011983Y6657315D01*
Y6606532D01*
X19037373Y6581140D01*
X19088158D01*
X19113548Y6606532D01*
X20622260Y11264900D02*
Y11417251D01*
X20546085D01*
X20520692Y11391859D01*
Y11341075D01*
X20546085Y11315683D01*
X20622260D01*
X20393735Y11264900D02*
Y11417251D01*
X20469910Y11341075D01*
X20368343D01*
X19265900Y16098520D02*
Y16250871D01*
X19189725D01*
X19164333Y16225479D01*
Y16174695D01*
X19189725Y16149303D01*
X19265900D01*
X19113548Y16225479D02*
X19088158Y16250871D01*
X19037373D01*
X19011983Y16225479D01*
Y16200087D01*
X19037373Y16174695D01*
X19062766D01*
X19037373D01*
X19011983Y16149303D01*
Y16123912D01*
X19037373Y16098520D01*
X19088158D01*
X19113548Y16123912D01*
%TF.MD5,fd4f2442862c2a0991cd65d228cc9ef7*%
M02*
