%TF.GenerationSoftware,Altium Limited,Altium Designer,20.2.3 (150)*%
G04 Layer_Physical_Order=3*
G04 Layer_Color=16440176*
%FSLAX45Y45*%
%MOMM*%
%TF.SameCoordinates,D065702F-5D7C-4ECE-B493-19553C93D9E3*%
%TF.FilePolarity,Positive*%
%TF.FileFunction,Copper,L3,Inr,Signal*%
%TF.Part,Single*%
G01*
G75*
%TA.AperFunction,Conductor*%
%ADD32C,0.30000*%
%TA.AperFunction,ComponentPad*%
%ADD33R,1.50000X1.50000*%
%ADD34C,1.50000*%
%ADD35C,0.50000*%
%TA.AperFunction,ViaPad*%
%ADD36C,0.70000*%
G36*
X11331459Y21969341D02*
X11662615Y21954324D01*
X11993166Y21929314D01*
X12322812Y21894331D01*
X12651250Y21849408D01*
X12978181Y21794586D01*
X13303308Y21729913D01*
X13626334Y21655452D01*
X13946962Y21571268D01*
X14264902Y21477438D01*
X14579863Y21374048D01*
X14891557Y21261192D01*
X15199701Y21138974D01*
X15504013Y21007504D01*
X15804214Y20866905D01*
X16100034Y20717302D01*
X16391199Y20558832D01*
X16677444Y20391641D01*
X16958511Y20215880D01*
X17234140Y20031711D01*
X17504082Y19839301D01*
X17768086Y19638824D01*
X18025919Y19430467D01*
X18277338Y19214417D01*
X18522118Y18990872D01*
X18760036Y18760036D01*
X18990872Y18522118D01*
X19214417Y18277338D01*
X19430467Y18025919D01*
X19638824Y17768086D01*
X19839301Y17504082D01*
X20031711Y17234140D01*
X20215880Y16958511D01*
X20391641Y16677444D01*
X20558832Y16391199D01*
X20717302Y16100034D01*
X20866905Y15804214D01*
X21007504Y15504013D01*
X21138974Y15199701D01*
X21261192Y14891557D01*
X21374048Y14579863D01*
X21477438Y14264902D01*
X21571268Y13946962D01*
X21655452Y13626334D01*
X21729913Y13303308D01*
X21794586Y12978181D01*
X21849408Y12651250D01*
X21894331Y12322812D01*
X21929314Y11993166D01*
X21954324Y11662615D01*
X21969341Y11331459D01*
X21974347Y11000000D01*
X21969341Y10668542D01*
X21954324Y10337385D01*
X21929314Y10006834D01*
X21894331Y9677189D01*
X21849408Y9348750D01*
X21794586Y9021819D01*
X21729913Y8696692D01*
X21655452Y8373667D01*
X21571268Y8053038D01*
X21477438Y7735098D01*
X21374048Y7420138D01*
X21261192Y7108443D01*
X21138974Y6800299D01*
X21007504Y6495988D01*
X20866905Y6195785D01*
X20717302Y5899967D01*
X20558832Y5608802D01*
X20391641Y5322556D01*
X20215880Y5041490D01*
X20031711Y4765860D01*
X19839301Y4495920D01*
X19638824Y4231913D01*
X19430467Y3974082D01*
X19214417Y3722662D01*
X18990872Y3477882D01*
X18760036Y3239965D01*
X18522118Y3009129D01*
X18277338Y2785583D01*
X18025919Y2569533D01*
X17768086Y2361176D01*
X17504082Y2160700D01*
X17234140Y1968290D01*
X16958511Y1784120D01*
X16677444Y1608359D01*
X16391199Y1441168D01*
X16100034Y1282698D01*
X15804214Y1133095D01*
X15504013Y992495D01*
X15199701Y861026D01*
X14891557Y738808D01*
X14579863Y625952D01*
X14264902Y522562D01*
X13946962Y428732D01*
X13626334Y344548D01*
X13303308Y270086D01*
X12978181Y205414D01*
X12651250Y150592D01*
X12322812Y105669D01*
X11993166Y70686D01*
X11662615Y45675D01*
X11331459Y30660D01*
X11000000Y25653D01*
X10668542Y30660D01*
X10337385Y45675D01*
X10006834Y70686D01*
X9677189Y105669D01*
X9348750Y150592D01*
X9021819Y205414D01*
X8696692Y270086D01*
X8373667Y344548D01*
X8053038Y428732D01*
X7735098Y522562D01*
X7420138Y625952D01*
X7108443Y738808D01*
X6800299Y861026D01*
X6495988Y992495D01*
X6195785Y1133095D01*
X5899967Y1282698D01*
X5608802Y1441168D01*
X5322556Y1608359D01*
X5041490Y1784120D01*
X4765860Y1968290D01*
X4495920Y2160700D01*
X4231913Y2361176D01*
X3974082Y2569533D01*
X3722662Y2785583D01*
X3477882Y3009129D01*
X3239965Y3239965D01*
X3009129Y3477882D01*
X2785583Y3722662D01*
X2569533Y3974082D01*
X2361176Y4231913D01*
X2160700Y4495920D01*
X1968290Y4765860D01*
X1784120Y5041490D01*
X1608359Y5322556D01*
X1441168Y5608802D01*
X1282698Y5899967D01*
X1133095Y6195785D01*
X992495Y6495988D01*
X861026Y6800299D01*
X738808Y7108443D01*
X625952Y7420138D01*
X522562Y7735098D01*
X428732Y8053038D01*
X344548Y8373667D01*
X270086Y8696692D01*
X205414Y9021819D01*
X150592Y9348750D01*
X105669Y9677189D01*
X70686Y10006834D01*
X45675Y10337385D01*
X30660Y10668542D01*
X25653Y11000000D01*
X30660Y11331459D01*
X45675Y11662615D01*
X70686Y11993166D01*
X105669Y12322812D01*
X150592Y12651250D01*
X205414Y12978181D01*
X270086Y13303308D01*
X344548Y13626334D01*
X428732Y13946962D01*
X522562Y14264902D01*
X625952Y14579863D01*
X738808Y14891557D01*
X861026Y15199701D01*
X992495Y15504013D01*
X1133095Y15804214D01*
X1282698Y16100034D01*
X1441168Y16391199D01*
X1608359Y16677444D01*
X1784120Y16958511D01*
X1968290Y17234140D01*
X2160700Y17504082D01*
X2361176Y17768086D01*
X2569533Y18025919D01*
X2785583Y18277338D01*
X3009129Y18522118D01*
X3239965Y18760036D01*
X3477882Y18990872D01*
X3722662Y19214417D01*
X3974082Y19430467D01*
X4231913Y19638824D01*
X4495920Y19839301D01*
X4765860Y20031711D01*
X5041490Y20215880D01*
X5322556Y20391641D01*
X5608802Y20558832D01*
X5899967Y20717302D01*
X6195785Y20866905D01*
X6495988Y21007504D01*
X6800299Y21138974D01*
X7108443Y21261192D01*
X7420138Y21374048D01*
X7735098Y21477438D01*
X8053038Y21571268D01*
X8373667Y21655452D01*
X8696692Y21729913D01*
X9021819Y21794586D01*
X9348750Y21849408D01*
X9677189Y21894331D01*
X10006834Y21929314D01*
X10337385Y21954324D01*
X10668542Y21969341D01*
X11000000Y21974347D01*
X11331459Y21969341D01*
D02*
G37*
%LPC*%
G36*
X10421650Y20813275D02*
X10398240Y20808620D01*
X10378393Y20795357D01*
X10365132Y20775511D01*
X10360475Y20752100D01*
X10365132Y20728690D01*
X10378393Y20708842D01*
X10398240Y20695581D01*
X10421650Y20690924D01*
X10445061Y20695581D01*
X10464908Y20708842D01*
X10478169Y20728690D01*
X10482826Y20752100D01*
X10478169Y20775511D01*
X10464908Y20795357D01*
X10445061Y20808620D01*
X10421650Y20813275D01*
D02*
G37*
G36*
X11070901Y20550984D02*
X11070901Y20550984D01*
X11070900Y20550984D01*
X11051392Y20547104D01*
X11051392Y20547104D01*
X11051391Y20547104D01*
X11041433Y20540450D01*
X11034853Y20536053D01*
X11034852Y20536053D01*
X11034852Y20536053D01*
X11030456Y20529474D01*
X11023801Y20519514D01*
X11023801Y20519514D01*
X11023801Y20519514D01*
X11019920Y20500006D01*
X11019921Y20500005D01*
X11019920Y20500005D01*
X11023800Y20480498D01*
X11023801Y20480498D01*
X11023801Y20480496D01*
X11030455Y20470537D01*
X11034851Y20463959D01*
X11034851Y20463957D01*
X11034852Y20463957D01*
X11041430Y20459561D01*
X11051389Y20452905D01*
X11051390Y20452905D01*
X11051391Y20452905D01*
X11070898Y20449025D01*
X11070899Y20449025D01*
X11070900Y20449025D01*
X11090407Y20452905D01*
X11090408Y20452905D01*
X11090409Y20452905D01*
X11100367Y20459560D01*
X11106947Y20463956D01*
X11106947Y20463956D01*
X11106948Y20463957D01*
X11111343Y20470535D01*
X11117998Y20480495D01*
X11117999Y20480495D01*
X11117999Y20480496D01*
X11121879Y20500003D01*
X11121879Y20500005D01*
X11121879Y20500005D01*
X11117999Y20519511D01*
X11117999Y20519513D01*
X11117999Y20519514D01*
X11111345Y20529472D01*
X11106949Y20536052D01*
X11106948Y20536052D01*
X11106948Y20536053D01*
X11100369Y20540448D01*
X11090410Y20547102D01*
X11090409Y20547102D01*
X11090409Y20547104D01*
X11082543Y20548668D01*
X11070901Y20550984D01*
D02*
G37*
G36*
X6106160Y19738931D02*
X6082749Y19734274D01*
X6062903Y19721013D01*
X6049641Y19701167D01*
X6044985Y19677756D01*
X6049641Y19654346D01*
X6062903Y19634499D01*
X6082749Y19621237D01*
X6106160Y19616582D01*
X6129571Y19621237D01*
X6149417Y19634499D01*
X6162679Y19654346D01*
X6167335Y19677756D01*
X6162679Y19701167D01*
X6149417Y19721013D01*
X6129571Y19734274D01*
X6106160Y19738931D01*
D02*
G37*
G36*
X15821193Y19621715D02*
X15797781Y19617059D01*
X15777934Y19603796D01*
X15764674Y19583951D01*
X15760017Y19560539D01*
X15764674Y19537129D01*
X15777934Y19517284D01*
X15797781Y19504021D01*
X15821193Y19499365D01*
X15844604Y19504021D01*
X15864450Y19517284D01*
X15877711Y19537129D01*
X15882368Y19560539D01*
X15877711Y19583951D01*
X15864450Y19603796D01*
X15844604Y19617059D01*
X15821193Y19621715D01*
D02*
G37*
G36*
X6311453Y19313577D02*
X6308194Y19312929D01*
X6304878Y19313152D01*
X6298522Y19311006D01*
X6291944Y19309697D01*
X6289181Y19307851D01*
X6286032Y19306789D01*
X6280982Y19302373D01*
X6275405Y19298647D01*
X6273559Y19295883D01*
X6271057Y19293697D01*
X6268081Y19287685D01*
X6264354Y19282108D01*
X6263706Y19278848D01*
X6262231Y19275870D01*
X6261782Y19269177D01*
X6260473Y19262598D01*
X6261122Y19259338D01*
X6260899Y19256023D01*
X6263045Y19249667D01*
X6264354Y19243089D01*
X6266200Y19240327D01*
X6267263Y19237177D01*
X6271679Y19232127D01*
X6275405Y19226550D01*
X6278168Y19224704D01*
X6280355Y19222202D01*
X6286366Y19219226D01*
X6291944Y19215498D01*
X6295203Y19214851D01*
X6298181Y19213376D01*
X6304874Y19212927D01*
X6311453Y19211618D01*
X6314712Y19212267D01*
X6318028Y19212044D01*
X6324384Y19214191D01*
X6330962Y19215498D01*
X6333724Y19217345D01*
X6336874Y19218408D01*
X6341924Y19222824D01*
X6347501Y19226550D01*
X6349347Y19229314D01*
X6351849Y19231500D01*
X6354825Y19237511D01*
X6358552Y19243089D01*
X6359200Y19246349D01*
X6360675Y19249326D01*
X6361124Y19256020D01*
X6362433Y19262598D01*
X6361784Y19265857D01*
X6362007Y19269173D01*
X6359861Y19275529D01*
X6358552Y19282108D01*
X6356706Y19284869D01*
X6355643Y19288019D01*
X6351227Y19293069D01*
X6347501Y19298647D01*
X6344738Y19300491D01*
X6342551Y19302994D01*
X6336540Y19305969D01*
X6330962Y19309697D01*
X6327703Y19310345D01*
X6324725Y19311819D01*
X6318032Y19312270D01*
X6311453Y19313577D01*
D02*
G37*
G36*
X10210960Y19396738D02*
X10187549Y19392081D01*
X10167703Y19378819D01*
X10154441Y19358974D01*
X10149785Y19335562D01*
X10154441Y19312151D01*
X10167703Y19292305D01*
X10187549Y19279044D01*
X10210960Y19274387D01*
X10234371Y19279044D01*
X10254217Y19292305D01*
X10267479Y19312151D01*
X10272135Y19335562D01*
X10267479Y19358974D01*
X10254217Y19378819D01*
X10234371Y19392081D01*
X10210960Y19396738D01*
D02*
G37*
G36*
X15811459Y19242870D02*
X15804881Y19241560D01*
X15798190Y19241112D01*
X15795210Y19239638D01*
X15791949Y19238988D01*
X15786374Y19235263D01*
X15780363Y19232288D01*
X15778175Y19229784D01*
X15775410Y19227937D01*
X15771686Y19222362D01*
X15767271Y19217313D01*
X15766206Y19214163D01*
X15764360Y19211398D01*
X15763052Y19204820D01*
X15760905Y19198466D01*
X15761128Y19195151D01*
X15760480Y19191888D01*
X15761787Y19185310D01*
X15762238Y19178621D01*
X15763712Y19175641D01*
X15764360Y19172382D01*
X15768086Y19166805D01*
X15771062Y19160794D01*
X15773566Y19158606D01*
X15775410Y19155843D01*
X15780988Y19152116D01*
X15786037Y19147701D01*
X15789186Y19146638D01*
X15791949Y19144791D01*
X15798528Y19143481D01*
X15804881Y19141336D01*
X15808199Y19141559D01*
X15811459Y19140910D01*
X15818037Y19142218D01*
X15824728Y19142667D01*
X15827708Y19144142D01*
X15830968Y19144791D01*
X15836543Y19148515D01*
X15842555Y19151492D01*
X15844743Y19153995D01*
X15847507Y19155843D01*
X15851233Y19161417D01*
X15855647Y19166467D01*
X15856711Y19169617D01*
X15858559Y19172382D01*
X15859866Y19178958D01*
X15862013Y19185312D01*
X15861790Y19188629D01*
X15862439Y19191888D01*
X15861131Y19198468D01*
X15860683Y19205157D01*
X15859207Y19208138D01*
X15858559Y19211398D01*
X15854832Y19216975D01*
X15851857Y19222984D01*
X15849355Y19225172D01*
X15847507Y19227937D01*
X15841931Y19231664D01*
X15836882Y19236078D01*
X15833733Y19237141D01*
X15830968Y19238988D01*
X15824391Y19240297D01*
X15818037Y19242442D01*
X15814720Y19242220D01*
X15811459Y19242870D01*
D02*
G37*
G36*
X14038580Y19109058D02*
Y19062700D01*
X14084937D01*
X14082774Y19073567D01*
X14069426Y19093546D01*
X14049448Y19106895D01*
X14038580Y19109058D01*
D02*
G37*
G36*
X14013181D02*
X14002313Y19106895D01*
X13982333Y19093546D01*
X13968985Y19073567D01*
X13966823Y19062700D01*
X14013181D01*
Y19109058D01*
D02*
G37*
G36*
X14084937Y19037300D02*
X14038580D01*
Y18990942D01*
X14049448Y18993105D01*
X14069426Y19006454D01*
X14082774Y19026433D01*
X14084937Y19037300D01*
D02*
G37*
G36*
X14013181D02*
X13966823D01*
X13968985Y19026433D01*
X13982333Y19006454D01*
X14002313Y18993105D01*
X14013181Y18990942D01*
Y19037300D01*
D02*
G37*
G36*
X6164580Y18956235D02*
X6141169Y18951579D01*
X6121323Y18938316D01*
X6108061Y18918471D01*
X6103405Y18895061D01*
X6108061Y18871649D01*
X6121323Y18851804D01*
X6141169Y18838541D01*
X6164580Y18833885D01*
X6187991Y18838541D01*
X6207837Y18851804D01*
X6221099Y18871649D01*
X6225755Y18895061D01*
X6221099Y18918471D01*
X6207837Y18938316D01*
X6187991Y18951579D01*
X6164580Y18956235D01*
D02*
G37*
G36*
X8842169Y18926096D02*
X8818758Y18921439D01*
X8798912Y18908179D01*
X8785650Y18888332D01*
X8780994Y18864920D01*
X8785650Y18841508D01*
X8798912Y18821663D01*
X8818758Y18808401D01*
X8842169Y18803745D01*
X8865580Y18808401D01*
X8885427Y18821663D01*
X8898688Y18841508D01*
X8903345Y18864920D01*
X8898688Y18888332D01*
X8885427Y18908179D01*
X8865580Y18921439D01*
X8842169Y18926096D01*
D02*
G37*
G36*
X6019800Y18821616D02*
X5996389Y18816959D01*
X5976543Y18803697D01*
X5974889Y18801224D01*
X4494587D01*
X4494586Y18801224D01*
X4478979Y18798119D01*
X4465747Y18789278D01*
X4465747Y18789278D01*
X2515967Y16839497D01*
X2507127Y16826266D01*
X2504022Y16810660D01*
X2504022Y16810658D01*
Y6503779D01*
X2328261Y6328018D01*
X2319421Y6314787D01*
X2316316Y6299180D01*
X2316316Y6299178D01*
Y5937711D01*
X2313842Y5936057D01*
X2300581Y5916211D01*
X2295924Y5892800D01*
X2300581Y5869389D01*
X2313842Y5849543D01*
X2333689Y5836281D01*
X2357100Y5831625D01*
X2380511Y5836281D01*
X2400357Y5849543D01*
X2413618Y5869389D01*
X2418275Y5892800D01*
X2413618Y5916211D01*
X2400357Y5936057D01*
X2397883Y5937711D01*
Y6282286D01*
X2573643Y6458047D01*
X2573644Y6458047D01*
X2582485Y6471278D01*
X2585589Y6486886D01*
X2585589Y6486887D01*
Y16793767D01*
X4511479Y18719656D01*
X5974889D01*
X5976543Y18717183D01*
X5996389Y18703922D01*
X6019800Y18699265D01*
X6043211Y18703922D01*
X6063057Y18717183D01*
X6076319Y18737029D01*
X6080975Y18760440D01*
X6076319Y18783852D01*
X6063057Y18803697D01*
X6043211Y18816959D01*
X6019800Y18821616D01*
D02*
G37*
G36*
X7826520Y18740828D02*
X7803109Y18736172D01*
X7783262Y18722910D01*
X7770001Y18703064D01*
X7765344Y18679652D01*
X7770001Y18656242D01*
X7783262Y18636395D01*
X7803109Y18623134D01*
X7826520Y18618477D01*
X7849931Y18623134D01*
X7869777Y18636395D01*
X7883039Y18656242D01*
X7887695Y18679652D01*
X7883039Y18703064D01*
X7869777Y18722910D01*
X7849931Y18736172D01*
X7826520Y18740828D01*
D02*
G37*
G36*
X8591177Y19268907D02*
X8567766Y19264250D01*
X8547919Y19250989D01*
X8534658Y19231142D01*
X8530001Y19207732D01*
X8534658Y19184322D01*
X8547919Y19164474D01*
X8551972Y19161766D01*
Y18717043D01*
X8551076Y18716443D01*
X8537815Y18696597D01*
X8533158Y18673186D01*
X8537815Y18649776D01*
X8551076Y18629929D01*
X8570923Y18616667D01*
X8594334Y18612012D01*
X8617745Y18616667D01*
X8637591Y18629929D01*
X8650853Y18649776D01*
X8655509Y18673186D01*
X8650853Y18696597D01*
X8637591Y18716443D01*
X8633539Y18719151D01*
Y19163876D01*
X8634434Y19164474D01*
X8647695Y19184322D01*
X8652352Y19207732D01*
X8647695Y19231142D01*
X8634434Y19250989D01*
X8614588Y19264250D01*
X8591177Y19268907D01*
D02*
G37*
G36*
X8454080Y18725421D02*
X8430669Y18720764D01*
X8410823Y18707503D01*
X8397561Y18687656D01*
X8392905Y18664246D01*
X8397561Y18640834D01*
X8410823Y18620988D01*
X8430669Y18607726D01*
X8454080Y18603070D01*
X8477491Y18607726D01*
X8497338Y18620988D01*
X8510599Y18640834D01*
X8515256Y18664246D01*
X8510599Y18687656D01*
X8497338Y18707503D01*
X8477491Y18720764D01*
X8454080Y18725421D01*
D02*
G37*
G36*
X11179740Y18596825D02*
X11179739Y18596825D01*
X10652175D01*
X10652174Y18596825D01*
X10636567Y18593719D01*
X10623336Y18584879D01*
X10623335Y18584879D01*
X10530347Y18491890D01*
X10521506Y18478658D01*
X10518401Y18463051D01*
X10518402Y18463049D01*
Y18209402D01*
X10505702Y18202614D01*
X10492519Y18211423D01*
X10469108Y18216080D01*
X10445697Y18211423D01*
X10425850Y18198161D01*
X10424197Y18195688D01*
X8600676D01*
X8585069Y18192583D01*
X8571838Y18183742D01*
X6524942Y16136847D01*
X6522024Y16137427D01*
X6498613Y16132771D01*
X6478767Y16119508D01*
X6465505Y16099663D01*
X6460849Y16076253D01*
X6465505Y16052841D01*
X6478767Y16032994D01*
X6498613Y16019733D01*
X6522024Y16015076D01*
X6545435Y16019733D01*
X6565282Y16032994D01*
X6578543Y16052841D01*
X6583199Y16076253D01*
X6582619Y16079170D01*
X8617570Y18114120D01*
X10424197D01*
X10425850Y18111647D01*
X10437213Y18104054D01*
X10438898Y18088528D01*
X10437288Y18086284D01*
X9063303D01*
X9050571Y18094791D01*
X9027160Y18099448D01*
X9003749Y18094791D01*
X8983903Y18081531D01*
X8970641Y18061684D01*
X8965985Y18038272D01*
X8970641Y18014861D01*
X8983903Y17995015D01*
X9003749Y17981754D01*
X9027160Y17977097D01*
X9050571Y17981754D01*
X9070417Y17995015D01*
X9076900Y18004716D01*
X9178182D01*
X9183624Y17992017D01*
X9179345Y17970500D01*
X9184001Y17947089D01*
X9197263Y17927243D01*
X9217109Y17913982D01*
X9240520Y17909325D01*
X9263931Y17913982D01*
X9283777Y17927243D01*
X9297039Y17947089D01*
X9301695Y17970500D01*
X9297416Y17992017D01*
X9302858Y18004716D01*
X10465769D01*
X10465770Y18004716D01*
X10481377Y18007822D01*
X10494608Y18016663D01*
X10588023Y18110075D01*
X10588024Y18110077D01*
X10596864Y18123308D01*
X10599969Y18138914D01*
X10599969Y18138916D01*
Y18446158D01*
X10614966Y18461156D01*
X10627794Y18456023D01*
X10639983Y18437782D01*
X10659829Y18424521D01*
X10683240Y18419865D01*
X10706651Y18424521D01*
X10726497Y18437782D01*
X10739759Y18457629D01*
X10744415Y18481039D01*
X10740136Y18502556D01*
X10745578Y18515257D01*
X11162847D01*
X11445605Y18232498D01*
X11445025Y18229581D01*
X11449681Y18206169D01*
X11462943Y18186324D01*
X11482789Y18173061D01*
X11506200Y18168405D01*
X11529611Y18173061D01*
X11549457Y18186324D01*
X11562719Y18206169D01*
X11567375Y18229581D01*
X11562719Y18252991D01*
X11549457Y18272836D01*
X11529611Y18286099D01*
X11506200Y18290755D01*
X11503282Y18290175D01*
X11208578Y18584879D01*
X11195347Y18593719D01*
X11192758Y18594234D01*
X11179740Y18596825D01*
D02*
G37*
G36*
X11609319Y18598029D02*
X11585908Y18593373D01*
X11566061Y18580112D01*
X11552800Y18560265D01*
X11548144Y18536855D01*
X11552800Y18513443D01*
X11566061Y18493596D01*
X11585908Y18480334D01*
X11609319Y18475679D01*
X11632730Y18480334D01*
X11652576Y18493596D01*
X11665838Y18513443D01*
X11670494Y18536855D01*
X11665838Y18560265D01*
X11652576Y18580112D01*
X11632730Y18593373D01*
X11609319Y18598029D01*
D02*
G37*
G36*
X8572500Y18479137D02*
Y18432780D01*
X8618857D01*
X8616695Y18443646D01*
X8603346Y18463626D01*
X8583367Y18476974D01*
X8572500Y18479137D01*
D02*
G37*
G36*
X8547100D02*
X8536233Y18476974D01*
X8516254Y18463626D01*
X8502905Y18443646D01*
X8500743Y18432780D01*
X8547100D01*
Y18479137D01*
D02*
G37*
G36*
X14038580Y18425797D02*
Y18379440D01*
X14084937D01*
X14082774Y18390308D01*
X14069426Y18410286D01*
X14049448Y18423634D01*
X14038580Y18425797D01*
D02*
G37*
G36*
X14013181D02*
X14002313Y18423634D01*
X13982333Y18410286D01*
X13968985Y18390308D01*
X13966823Y18379440D01*
X14013181D01*
Y18425797D01*
D02*
G37*
G36*
X8618857Y18407381D02*
X8572500D01*
Y18361023D01*
X8583367Y18363185D01*
X8603346Y18376534D01*
X8616695Y18396513D01*
X8618857Y18407381D01*
D02*
G37*
G36*
X8547100D02*
X8500743D01*
X8502905Y18396513D01*
X8516254Y18376534D01*
X8536233Y18363185D01*
X8547100Y18361023D01*
Y18407381D01*
D02*
G37*
G36*
X14084937Y18354041D02*
X14038580D01*
Y18307683D01*
X14049448Y18309845D01*
X14069426Y18323193D01*
X14082774Y18343173D01*
X14084937Y18354041D01*
D02*
G37*
G36*
X14013181D02*
X13966823D01*
X13968985Y18343173D01*
X13982333Y18323193D01*
X14002313Y18309845D01*
X14013181Y18307683D01*
Y18354041D01*
D02*
G37*
G36*
X9922556Y19466859D02*
X9899145Y19462202D01*
X9879298Y19448941D01*
X9866037Y19429094D01*
X9861380Y19405682D01*
X9866037Y19382272D01*
X9879298Y19362427D01*
X9881772Y19360773D01*
Y18326814D01*
X9879298Y18325162D01*
X9866037Y18305315D01*
X9861380Y18281905D01*
X9866037Y18258493D01*
X9879298Y18238647D01*
X9899145Y18225385D01*
X9922556Y18220729D01*
X9945967Y18225385D01*
X9965813Y18238647D01*
X9979075Y18258493D01*
X9983731Y18281905D01*
X9979075Y18305315D01*
X9965813Y18325162D01*
X9963339Y18326814D01*
Y19360773D01*
X9965813Y19362427D01*
X9979075Y19382272D01*
X9983731Y19405682D01*
X9979075Y19429094D01*
X9965813Y19448941D01*
X9945967Y19462202D01*
X9922556Y19466859D01*
D02*
G37*
G36*
X12748260Y18342616D02*
X12724849Y18337961D01*
X12705003Y18324699D01*
X12691741Y18304852D01*
X12687085Y18281442D01*
X12691741Y18258031D01*
X12705003Y18238184D01*
X12724849Y18224924D01*
X12748260Y18220267D01*
X12771671Y18224924D01*
X12791517Y18238184D01*
X12804779Y18258031D01*
X12809435Y18281442D01*
X12804779Y18304852D01*
X12791517Y18324699D01*
X12771671Y18337961D01*
X12748260Y18342616D01*
D02*
G37*
G36*
X14038580Y18197197D02*
Y18150841D01*
X14084937D01*
X14082774Y18161707D01*
X14069426Y18181686D01*
X14049448Y18195035D01*
X14038580Y18197197D01*
D02*
G37*
G36*
X14013181D02*
X14002313Y18195035D01*
X13982333Y18181686D01*
X13968985Y18161707D01*
X13966823Y18150841D01*
X14013181D01*
Y18197197D01*
D02*
G37*
G36*
X11125200Y18215622D02*
X11101789Y18210966D01*
X11081943Y18197704D01*
X11068681Y18177858D01*
X11064025Y18154446D01*
X11068681Y18131036D01*
X11081943Y18111189D01*
X11101789Y18097928D01*
X11125200Y18093271D01*
X11148611Y18097928D01*
X11168457Y18111189D01*
X11181719Y18131036D01*
X11186375Y18154446D01*
X11181719Y18177858D01*
X11168457Y18197704D01*
X11148611Y18210966D01*
X11125200Y18215622D01*
D02*
G37*
G36*
X10693400D02*
X10669989Y18210966D01*
X10650143Y18197704D01*
X10636881Y18177858D01*
X10632225Y18154446D01*
X10636881Y18131036D01*
X10650143Y18111189D01*
X10669989Y18097928D01*
X10693400Y18093271D01*
X10716811Y18097928D01*
X10736657Y18111189D01*
X10749919Y18131036D01*
X10754575Y18154446D01*
X10749919Y18177858D01*
X10736657Y18197704D01*
X10716811Y18210966D01*
X10693400Y18215622D01*
D02*
G37*
G36*
X14084937Y18125439D02*
X14038580D01*
Y18079083D01*
X14049448Y18081245D01*
X14069426Y18094594D01*
X14082774Y18114574D01*
X14084937Y18125439D01*
D02*
G37*
G36*
X14013181D02*
X13966823D01*
X13968985Y18114574D01*
X13982333Y18094594D01*
X14002313Y18081245D01*
X14013181Y18079083D01*
Y18125439D01*
D02*
G37*
G36*
X10999627Y18086504D02*
Y18040147D01*
X11045985D01*
X11043823Y18051015D01*
X11030473Y18070993D01*
X11010494Y18084341D01*
X10999627Y18086504D01*
D02*
G37*
G36*
X10974227D02*
X10963361Y18084341D01*
X10943381Y18070993D01*
X10930032Y18051015D01*
X10927870Y18040147D01*
X10974227D01*
Y18086504D01*
D02*
G37*
G36*
X7990545Y18155405D02*
X7967134Y18150748D01*
X7947288Y18137486D01*
X7934027Y18117639D01*
X7929370Y18094228D01*
X7934027Y18070818D01*
X7947288Y18050970D01*
X7967134Y18037711D01*
X7990545Y18033054D01*
X8013956Y18037711D01*
X8033803Y18050970D01*
X8047064Y18070818D01*
X8051721Y18094228D01*
X8047064Y18117639D01*
X8033803Y18137486D01*
X8013956Y18150748D01*
X7990545Y18155405D01*
D02*
G37*
G36*
X13002260Y18152116D02*
X12978848Y18147461D01*
X12959003Y18134200D01*
X12945741Y18114352D01*
X12941084Y18090942D01*
X12945741Y18067531D01*
X12959003Y18047684D01*
X12978848Y18034422D01*
X13002260Y18029765D01*
X13025671Y18034422D01*
X13045517Y18047684D01*
X13058778Y18067531D01*
X13063435Y18090942D01*
X13058778Y18114352D01*
X13045517Y18134200D01*
X13025671Y18147461D01*
X13002260Y18152116D01*
D02*
G37*
G36*
X11045985Y18014748D02*
X10999627D01*
Y17968390D01*
X11010494Y17970551D01*
X11030473Y17983900D01*
X11043823Y18003880D01*
X11045985Y18014748D01*
D02*
G37*
G36*
X10974227D02*
X10927870D01*
X10930032Y18003880D01*
X10943381Y17983900D01*
X10963361Y17970551D01*
X10974227Y17968390D01*
Y18014748D01*
D02*
G37*
G36*
X12003615Y18014742D02*
X11957258D01*
Y17968385D01*
X11968125Y17970546D01*
X11988104Y17983896D01*
X12001454Y18003876D01*
X12003615Y18014742D01*
D02*
G37*
G36*
X11931858D02*
X11885501D01*
X11887663Y18003876D01*
X11901012Y17983896D01*
X11920991Y17970546D01*
X11931858Y17968385D01*
Y18014742D01*
D02*
G37*
G36*
X11488420Y17985954D02*
X11465009Y17981299D01*
X11445163Y17968037D01*
X11431901Y17948190D01*
X11427245Y17924780D01*
X11431901Y17901369D01*
X11445163Y17881523D01*
X11465009Y17868262D01*
X11488420Y17863605D01*
X11511831Y17868262D01*
X11531677Y17881523D01*
X11544939Y17901369D01*
X11549595Y17924780D01*
X11544939Y17948190D01*
X11531677Y17968037D01*
X11511831Y17981299D01*
X11488420Y17985954D01*
D02*
G37*
G36*
X9090660Y17972469D02*
X9067249Y17967812D01*
X9047403Y17954550D01*
X9034141Y17934705D01*
X9029485Y17911293D01*
X9034141Y17887881D01*
X9047403Y17868034D01*
X9067249Y17854774D01*
X9090660Y17850117D01*
X9114071Y17854774D01*
X9133917Y17868034D01*
X9147179Y17887881D01*
X9151835Y17911293D01*
X9147179Y17934705D01*
X9133917Y17954550D01*
X9114071Y17967812D01*
X9090660Y17972469D01*
D02*
G37*
G36*
X11076940Y17961623D02*
X11053529Y17956966D01*
X11033683Y17943704D01*
X11020421Y17923859D01*
X11015765Y17900447D01*
X11020421Y17877036D01*
X11033683Y17857188D01*
X11053529Y17843929D01*
X11076940Y17839272D01*
X11100351Y17843929D01*
X11120197Y17857188D01*
X11133459Y17877036D01*
X11138115Y17900447D01*
X11133459Y17923859D01*
X11120197Y17943704D01*
X11100351Y17956966D01*
X11076940Y17961623D01*
D02*
G37*
G36*
X10693400D02*
X10669989Y17956966D01*
X10650143Y17943704D01*
X10636881Y17923859D01*
X10632225Y17900447D01*
X10636881Y17877036D01*
X10650143Y17857188D01*
X10669989Y17843929D01*
X10693400Y17839272D01*
X10716811Y17843929D01*
X10736657Y17857188D01*
X10749919Y17877036D01*
X10754575Y17900447D01*
X10749919Y17923859D01*
X10736657Y17943704D01*
X10716811Y17956966D01*
X10693400Y17961623D01*
D02*
G37*
G36*
X11830858Y17950116D02*
X11807447Y17945459D01*
X11787600Y17932198D01*
X11774339Y17912352D01*
X11769682Y17888940D01*
X11774339Y17865530D01*
X11787600Y17845683D01*
X11807447Y17832422D01*
X11830858Y17827765D01*
X11854269Y17832422D01*
X11874115Y17845683D01*
X11887377Y17865530D01*
X11892033Y17888940D01*
X11887377Y17912352D01*
X11874115Y17932198D01*
X11854269Y17945459D01*
X11830858Y17950116D01*
D02*
G37*
G36*
X9331960Y17918204D02*
X9308549Y17913547D01*
X9288703Y17900285D01*
X9275441Y17880440D01*
X9270785Y17857028D01*
X9275441Y17833617D01*
X9288703Y17813771D01*
X9308549Y17800510D01*
X9331960Y17795853D01*
X9355371Y17800510D01*
X9375217Y17813771D01*
X9388479Y17833617D01*
X9393135Y17857028D01*
X9388479Y17880440D01*
X9375217Y17900285D01*
X9355371Y17913547D01*
X9331960Y17918204D01*
D02*
G37*
G36*
X11961820Y17898117D02*
X11938409Y17893462D01*
X11918563Y17880199D01*
X11905301Y17860353D01*
X11900645Y17836942D01*
X11905301Y17813531D01*
X11918563Y17793684D01*
X11938409Y17780423D01*
X11961820Y17775766D01*
X11985231Y17780423D01*
X12005078Y17793684D01*
X12018339Y17813531D01*
X12022996Y17836942D01*
X12018339Y17860353D01*
X12005078Y17880199D01*
X11985231Y17893462D01*
X11961820Y17898117D01*
D02*
G37*
G36*
X10439908Y17864035D02*
X10416497Y17859380D01*
X10396651Y17846117D01*
X10383389Y17826271D01*
X10378733Y17802859D01*
X10383389Y17779449D01*
X10396651Y17759602D01*
X10416497Y17746341D01*
X10439908Y17741685D01*
X10463319Y17746341D01*
X10483165Y17759602D01*
X10496427Y17779449D01*
X10501083Y17802859D01*
X10496427Y17826271D01*
X10483165Y17846117D01*
X10463319Y17859380D01*
X10439908Y17864035D01*
D02*
G37*
G36*
X11773967Y17820856D02*
X11750556Y17816199D01*
X11730709Y17802937D01*
X11717448Y17783092D01*
X11712791Y17759680D01*
X11717448Y17736269D01*
X11730709Y17716423D01*
X11750556Y17703162D01*
X11773967Y17698505D01*
X11797378Y17703162D01*
X11817224Y17716423D01*
X11830486Y17736269D01*
X11835142Y17759680D01*
X11830486Y17783092D01*
X11817224Y17802937D01*
X11797378Y17816199D01*
X11773967Y17820856D01*
D02*
G37*
G36*
X10050780Y17759895D02*
X10027369Y17755238D01*
X10007523Y17741977D01*
X9994261Y17722131D01*
X9989605Y17698720D01*
X9994261Y17675310D01*
X10007523Y17655463D01*
X10027369Y17642201D01*
X10050780Y17637544D01*
X10074191Y17642201D01*
X10094037Y17655463D01*
X10107299Y17675310D01*
X10111955Y17698720D01*
X10107299Y17722131D01*
X10094037Y17741977D01*
X10074191Y17755238D01*
X10050780Y17759895D01*
D02*
G37*
G36*
X8703691D02*
X8680280Y17755238D01*
X8660434Y17741977D01*
X8647172Y17722131D01*
X8642516Y17698720D01*
X8647172Y17675310D01*
X8660434Y17655463D01*
X8680280Y17642201D01*
X8703691Y17637544D01*
X8727102Y17642201D01*
X8746948Y17655463D01*
X8760210Y17675310D01*
X8764866Y17698720D01*
X8760210Y17722131D01*
X8746948Y17741977D01*
X8727102Y17755238D01*
X8703691Y17759895D01*
D02*
G37*
G36*
X12125960Y17742114D02*
X12102549Y17737459D01*
X12082703Y17724197D01*
X12069441Y17704350D01*
X12064785Y17680940D01*
X12069441Y17657529D01*
X12082703Y17637683D01*
X12102549Y17624422D01*
X12125960Y17619765D01*
X12149371Y17624422D01*
X12169217Y17637683D01*
X12182479Y17657529D01*
X12187135Y17680940D01*
X12182479Y17704350D01*
X12169217Y17724197D01*
X12149371Y17737459D01*
X12125960Y17742114D01*
D02*
G37*
G36*
X8201660Y17457635D02*
X8178249Y17452979D01*
X8158403Y17439717D01*
X8145141Y17419872D01*
X8140485Y17396460D01*
X8141065Y17393542D01*
X4943218Y14195695D01*
X4940300Y14196275D01*
X4916889Y14191618D01*
X4897043Y14178357D01*
X4883781Y14158511D01*
X4879125Y14135100D01*
X4883781Y14111690D01*
X4897043Y14091843D01*
X4916889Y14078581D01*
X4940300Y14073924D01*
X4963711Y14078581D01*
X4983557Y14091843D01*
X4996819Y14111690D01*
X5001475Y14135100D01*
X5000895Y14138017D01*
X5332804Y14469926D01*
X5344957Y14466241D01*
X5346264Y14459669D01*
X5359526Y14439822D01*
X5379372Y14426561D01*
X5402783Y14421906D01*
X5426194Y14426561D01*
X5446041Y14439822D01*
X5459302Y14459669D01*
X5463959Y14483080D01*
X5459302Y14506491D01*
X5446041Y14526337D01*
X5426194Y14539600D01*
X5419623Y14540906D01*
X5415936Y14553059D01*
X8198742Y17335864D01*
X8201660Y17335284D01*
X8225071Y17339941D01*
X8244917Y17353203D01*
X8258179Y17373048D01*
X8262835Y17396460D01*
X8258179Y17419872D01*
X8244917Y17439717D01*
X8225071Y17452979D01*
X8201660Y17457635D01*
D02*
G37*
G36*
X12841496Y16926750D02*
X12818085Y16922093D01*
X12798238Y16908832D01*
X12784977Y16888986D01*
X12780320Y16865575D01*
X12784977Y16842165D01*
X12798238Y16822318D01*
X12818085Y16809056D01*
X12841496Y16804399D01*
X12864906Y16809056D01*
X12884753Y16822318D01*
X12898015Y16842165D01*
X12902670Y16865575D01*
X12898015Y16888986D01*
X12884753Y16908832D01*
X12864906Y16922093D01*
X12841496Y16926750D01*
D02*
G37*
G36*
X7803634Y16811838D02*
X7780223Y16807181D01*
X7760377Y16793919D01*
X7747116Y16774072D01*
X7742459Y16750662D01*
X7747116Y16727252D01*
X7760377Y16707405D01*
X7780223Y16694144D01*
X7803634Y16689487D01*
X7827045Y16694144D01*
X7846892Y16707405D01*
X7860153Y16727252D01*
X7864810Y16750662D01*
X7860153Y16774072D01*
X7846892Y16793919D01*
X7827045Y16807181D01*
X7803634Y16811838D01*
D02*
G37*
G36*
X2275840Y16792155D02*
X2252429Y16787498D01*
X2232583Y16774237D01*
X2219321Y16754391D01*
X2214665Y16730980D01*
X2219321Y16707568D01*
X2232583Y16687723D01*
X2252429Y16674461D01*
X2275840Y16669804D01*
X2299251Y16674461D01*
X2319097Y16687723D01*
X2332359Y16707568D01*
X2337015Y16730980D01*
X2332359Y16754391D01*
X2319097Y16774237D01*
X2299251Y16787498D01*
X2275840Y16792155D01*
D02*
G37*
G36*
X2869000Y16671461D02*
X2845589Y16666806D01*
X2825743Y16653545D01*
X2812481Y16633698D01*
X2807825Y16610287D01*
X2812481Y16586876D01*
X2825743Y16567029D01*
X2845589Y16553767D01*
X2869000Y16549110D01*
X2892411Y16553767D01*
X2912258Y16567029D01*
X2925519Y16586876D01*
X2930175Y16610287D01*
X2925519Y16633698D01*
X2912258Y16653545D01*
X2892411Y16666806D01*
X2869000Y16671461D01*
D02*
G37*
G36*
X5587284Y16555219D02*
X5563873Y16550563D01*
X5544026Y16537302D01*
X5530765Y16517455D01*
X5526108Y16494044D01*
X5530765Y16470633D01*
X5544026Y16450786D01*
X5563873Y16437524D01*
X5587284Y16432867D01*
X5610695Y16437524D01*
X5630541Y16450786D01*
X5643803Y16470633D01*
X5648459Y16494044D01*
X5643803Y16517455D01*
X5630541Y16537302D01*
X5610695Y16550563D01*
X5587284Y16555219D01*
D02*
G37*
G36*
X15201900Y16398877D02*
Y16352521D01*
X15248257D01*
X15246095Y16363387D01*
X15232745Y16383366D01*
X15212767Y16396715D01*
X15201900Y16398877D01*
D02*
G37*
G36*
X15176500D02*
X15165633Y16396715D01*
X15145654Y16383366D01*
X15132304Y16363387D01*
X15130144Y16352521D01*
X15176500D01*
Y16398877D01*
D02*
G37*
G36*
X15248257Y16327119D02*
X15201900D01*
Y16280763D01*
X15212767Y16282925D01*
X15232745Y16296274D01*
X15246095Y16316254D01*
X15248257Y16327119D01*
D02*
G37*
G36*
X15176500D02*
X15130144D01*
X15132304Y16316254D01*
X15145654Y16296274D01*
X15165633Y16282925D01*
X15176500Y16280763D01*
Y16327119D01*
D02*
G37*
G36*
X7474260Y16343480D02*
X7450849Y16338823D01*
X7431002Y16325562D01*
X7417741Y16305714D01*
X7413084Y16282304D01*
X7417741Y16258893D01*
X7431002Y16239047D01*
X7450849Y16225784D01*
X7474260Y16221129D01*
X7497671Y16225784D01*
X7517517Y16239047D01*
X7530779Y16258893D01*
X7535435Y16282304D01*
X7530779Y16305714D01*
X7517517Y16325562D01*
X7497671Y16338823D01*
X7474260Y16343480D01*
D02*
G37*
G36*
X19634473Y16218115D02*
X19611063Y16213458D01*
X19591216Y16200197D01*
X19577954Y16180351D01*
X19573297Y16156940D01*
X19577954Y16133530D01*
X19591216Y16113683D01*
X19611063Y16100421D01*
X19634473Y16095766D01*
X19657884Y16100421D01*
X19677730Y16113683D01*
X19690993Y16133530D01*
X19695648Y16156940D01*
X19690993Y16180351D01*
X19677730Y16200197D01*
X19657884Y16213458D01*
X19634473Y16218115D01*
D02*
G37*
G36*
X2983149Y16177925D02*
X2959738Y16173268D01*
X2939891Y16160007D01*
X2926630Y16140161D01*
X2921973Y16116750D01*
X2926630Y16093340D01*
X2939891Y16073492D01*
X2959738Y16060231D01*
X2983149Y16055574D01*
X3006560Y16060231D01*
X3026406Y16073492D01*
X3039668Y16093340D01*
X3044324Y16116750D01*
X3039668Y16140161D01*
X3026406Y16160007D01*
X3006560Y16173268D01*
X2983149Y16177925D01*
D02*
G37*
G36*
X2808300Y15862328D02*
X2801798Y15861034D01*
X2795182Y15860609D01*
X2792128Y15859109D01*
X2788791Y15858447D01*
X2783279Y15854764D01*
X2777328Y15851840D01*
X2775081Y15849286D01*
X2772252Y15847395D01*
X2768570Y15841884D01*
X2764190Y15836906D01*
X2763092Y15833685D01*
X2761201Y15830856D01*
X2759908Y15824355D01*
X2757767Y15818080D01*
X2757984Y15814685D01*
X2757321Y15811348D01*
X2758614Y15804845D01*
X2759037Y15798228D01*
X2760538Y15795175D01*
X2761201Y15791840D01*
X2764884Y15786327D01*
X2767808Y15780376D01*
X2770362Y15778128D01*
X2772252Y15775301D01*
X2777764Y15771617D01*
X2782742Y15767236D01*
X2785962Y15766139D01*
X2788791Y15764249D01*
X2795294Y15762955D01*
X2801568Y15760815D01*
X2804963Y15761032D01*
X2808300Y15760368D01*
X2814803Y15761661D01*
X2821419Y15762085D01*
X2824472Y15763585D01*
X2827809Y15764249D01*
X2833321Y15767932D01*
X2839272Y15770856D01*
X2841520Y15773410D01*
X2844348Y15775301D01*
X2848031Y15780811D01*
X2852410Y15785789D01*
X2853509Y15789011D01*
X2855399Y15791840D01*
X2856693Y15798341D01*
X2858833Y15804614D01*
X2858616Y15808011D01*
X2859280Y15811348D01*
X2857986Y15817850D01*
X2857563Y15824466D01*
X2856063Y15827521D01*
X2855399Y15830856D01*
X2851716Y15836369D01*
X2848793Y15842320D01*
X2846238Y15844566D01*
X2844348Y15847395D01*
X2838836Y15851077D01*
X2833858Y15855458D01*
X2830638Y15856557D01*
X2827809Y15858447D01*
X2821307Y15859740D01*
X2815032Y15861880D01*
X2811637Y15861662D01*
X2808300Y15862328D01*
D02*
G37*
G36*
X9035793Y20453642D02*
X9012383Y20448985D01*
X8992536Y20435724D01*
X8979275Y20415877D01*
X8974618Y20392467D01*
X8979275Y20369055D01*
X8992536Y20349210D01*
X9012383Y20335947D01*
X9035793Y20331291D01*
X9059204Y20335947D01*
X9079051Y20349210D01*
X9080704Y20351683D01*
X15642336D01*
X20360992Y15633028D01*
Y15538582D01*
X20349258Y15533720D01*
X19861897Y16021082D01*
X19848666Y16029922D01*
X19833060Y16033028D01*
X19833058Y16033028D01*
X19591702D01*
X19591701Y16033028D01*
X19576093Y16029922D01*
X19562862Y16021082D01*
X19423593Y15881813D01*
X19411888Y15888069D01*
X19412199Y15889638D01*
Y16035612D01*
X19409096Y16051219D01*
X19400255Y16064450D01*
X19400253Y16064452D01*
X16595155Y18869550D01*
X16581924Y18878391D01*
X16566318Y18881496D01*
X16566316Y18881496D01*
X12399283D01*
X12399282Y18881496D01*
X12383675Y18878391D01*
X12370443Y18869550D01*
X12370443Y18869550D01*
X12128057Y18627164D01*
X12023198D01*
X12017756Y18639864D01*
X12022035Y18661380D01*
X12017379Y18684792D01*
X12004117Y18704637D01*
X12001644Y18706291D01*
Y19224861D01*
X11998539Y19240469D01*
X11989698Y19253700D01*
X11989698Y19253700D01*
X11010112Y20233286D01*
X10996881Y20242126D01*
X10981274Y20245232D01*
X10981272Y20245232D01*
X5493324D01*
X5477717Y20242126D01*
X5464486Y20233286D01*
X1868542Y16637341D01*
X1859701Y16624110D01*
X1856596Y16608504D01*
X1856596Y16608502D01*
Y11798787D01*
X1083927Y11026118D01*
X1081009Y11026698D01*
X1057598Y11022042D01*
X1037751Y11008780D01*
X1024490Y10988934D01*
X1019833Y10965523D01*
X1024490Y10942112D01*
X1037751Y10922265D01*
X1057598Y10909004D01*
X1081009Y10904348D01*
X1104420Y10909004D01*
X1124266Y10922265D01*
X1137528Y10942112D01*
X1142184Y10965523D01*
X1141604Y10968441D01*
X1926218Y11753055D01*
X1926218Y11753056D01*
X1935059Y11766287D01*
X1938164Y11781894D01*
Y16591611D01*
X5510217Y20163664D01*
X10964380D01*
X11916510Y19211536D01*
X11915644Y19206027D01*
X11902328Y19203096D01*
X11901453Y19204405D01*
X11881607Y19217667D01*
X11858196Y19222324D01*
X11834785Y19217667D01*
X11814938Y19204405D01*
X11813285Y19201932D01*
X11624106D01*
X11018908Y19807130D01*
X11005677Y19815971D01*
X10990069Y19819075D01*
X10990068Y19819075D01*
X9296498D01*
X9296497Y19819075D01*
X9280889Y19815971D01*
X9267658Y19807130D01*
X9267658Y19807129D01*
X9057994Y19597466D01*
X9049153Y19584235D01*
X9046048Y19568626D01*
X9046049Y19568626D01*
Y18583385D01*
X9039310Y18581342D01*
X9033349Y18580202D01*
X9013883Y18593208D01*
X8990472Y18597864D01*
X8967061Y18593208D01*
X8947215Y18579945D01*
X8933953Y18560100D01*
X8929297Y18536690D01*
X8933953Y18513278D01*
X8947215Y18493431D01*
X8967061Y18480170D01*
X8990472Y18475513D01*
X9013883Y18480170D01*
X9015480Y18481236D01*
X9026910Y18473599D01*
X9025657Y18467299D01*
X9030313Y18443887D01*
X9043575Y18424042D01*
X9063421Y18410780D01*
X9086832Y18406123D01*
X9108349Y18410403D01*
X9121049Y18404961D01*
Y18365211D01*
X9118281Y18363364D01*
X9105020Y18343517D01*
X9100363Y18320107D01*
X9105020Y18296695D01*
X9118281Y18276848D01*
X9138128Y18263586D01*
X9161539Y18258929D01*
X9184950Y18263586D01*
X9204796Y18276848D01*
X9218058Y18296695D01*
X9222714Y18320107D01*
X9218058Y18343517D01*
X9204796Y18363364D01*
X9202616Y18364819D01*
Y19464668D01*
X9344974Y19607028D01*
X10851469D01*
X11878884Y18579613D01*
X11877274Y18563261D01*
X11867890Y18556992D01*
X11854629Y18537146D01*
X11849972Y18513734D01*
X11854629Y18490324D01*
X11867890Y18470477D01*
X11887736Y18457216D01*
X11903905Y18453999D01*
X11899685Y18432780D01*
X11900265Y18429861D01*
X11665322Y18194917D01*
X11656481Y18181686D01*
X11653376Y18166080D01*
X11653376Y18166080D01*
Y17860323D01*
X11553457Y17760403D01*
X11541753Y17766660D01*
X11543103Y17773447D01*
X11538447Y17796858D01*
X11525185Y17816704D01*
X11505339Y17829967D01*
X11481928Y17834622D01*
X11458517Y17829967D01*
X11438670Y17816704D01*
X11425409Y17796858D01*
X11420752Y17773447D01*
X11425409Y17750037D01*
X11438670Y17730190D01*
X11458517Y17716928D01*
X11481928Y17712271D01*
X11488715Y17713622D01*
X11494972Y17701917D01*
X10401351Y16608298D01*
X8651038D01*
X8651037Y16608298D01*
X8635430Y16605193D01*
X8622198Y16596352D01*
X8622198Y16596352D01*
X7145135Y15119289D01*
X7136294Y15106058D01*
X7133190Y15090450D01*
X7133190Y15090450D01*
Y11353927D01*
X6531769Y10752506D01*
X6518751D01*
X6496284Y10774973D01*
X6502540Y10786677D01*
X6512860Y10784625D01*
X6536271Y10789281D01*
X6556117Y10802543D01*
X6569379Y10822389D01*
X6574035Y10845800D01*
X6569379Y10869211D01*
X6556117Y10889057D01*
X6536271Y10902319D01*
X6512860Y10906975D01*
X6509941Y10906395D01*
X5449498Y11966838D01*
X5436267Y11975679D01*
X5420660Y11978784D01*
X5420658Y11978784D01*
X5247827D01*
X5241039Y11991484D01*
X5249061Y12003489D01*
X5253718Y12026900D01*
X5249061Y12050311D01*
X5235800Y12070157D01*
X5233326Y12071811D01*
Y13336668D01*
X6819799Y14923141D01*
X6829102Y14920320D01*
X6832788Y14918172D01*
X6845223Y14899564D01*
X6865069Y14886301D01*
X6888480Y14881645D01*
X6911891Y14886301D01*
X6931737Y14899564D01*
X6944999Y14919409D01*
X6949655Y14942821D01*
X6944999Y14966231D01*
X6931737Y14986076D01*
X6913129Y14998512D01*
X6910980Y15002197D01*
X6908158Y15011501D01*
X9346822Y17450165D01*
X9349740Y17449585D01*
X9373151Y17454240D01*
X9392997Y17467503D01*
X9406259Y17487349D01*
X9410915Y17510760D01*
X9406259Y17534171D01*
X9392997Y17554018D01*
X9373151Y17567279D01*
X9349740Y17571935D01*
X9326329Y17567279D01*
X9306483Y17554018D01*
X9293221Y17534171D01*
X9288565Y17510760D01*
X9289145Y17507841D01*
X5163704Y13382401D01*
X5154863Y13369170D01*
X5151759Y13353561D01*
X5151759Y13353561D01*
Y12071811D01*
X5149285Y12070157D01*
X5136024Y12050311D01*
X5131367Y12026900D01*
X5136024Y12003489D01*
X5144046Y11991484D01*
X5137257Y11978784D01*
X4792093D01*
X4688984Y12081893D01*
Y14489047D01*
X8122542Y17922604D01*
X8125460Y17922025D01*
X8148871Y17926682D01*
X8168717Y17939943D01*
X8181979Y17959789D01*
X8186635Y17983200D01*
X8181979Y18006612D01*
X8168717Y18026457D01*
X8148871Y18039719D01*
X8133553Y18042766D01*
Y18055714D01*
X8148871Y18058762D01*
X8168717Y18072023D01*
X8181979Y18091869D01*
X8186635Y18115280D01*
X8181979Y18138692D01*
X8168717Y18158537D01*
X8148871Y18171799D01*
X8125460Y18176456D01*
X8102049Y18171799D01*
X8082203Y18158537D01*
X8068941Y18138692D01*
X8064285Y18115280D01*
X8068941Y18091869D01*
X8082203Y18072023D01*
X8102049Y18058762D01*
X8117367Y18055714D01*
Y18042766D01*
X8102049Y18039719D01*
X8082203Y18026457D01*
X8068941Y18006612D01*
X8064285Y17983200D01*
X8064865Y17980283D01*
X4633917Y14549335D01*
X4622184Y14554195D01*
Y14619360D01*
X5443883Y15441060D01*
X5443884Y15441061D01*
X5452725Y15454292D01*
X5455829Y15469899D01*
X5455829Y15469901D01*
Y17574876D01*
X6250454Y18369502D01*
X8118009D01*
X8119662Y18367027D01*
X8139509Y18353767D01*
X8162920Y18349110D01*
X8186331Y18353767D01*
X8206177Y18367027D01*
X8219439Y18386874D01*
X8224095Y18410286D01*
X8219439Y18433698D01*
X8206177Y18453543D01*
X8186331Y18466805D01*
X8183834Y18467300D01*
Y18480251D01*
X8186331Y18480746D01*
X8206177Y18494008D01*
X8219439Y18513855D01*
X8224095Y18537265D01*
X8219439Y18560677D01*
X8206177Y18580524D01*
X8186331Y18593784D01*
X8162920Y18598441D01*
X8139509Y18593784D01*
X8119662Y18580524D01*
X8118009Y18578049D01*
X4708219D01*
X4708218Y18578049D01*
X4692610Y18574945D01*
X4679379Y18566104D01*
X4679379Y18566103D01*
X4384276Y18271001D01*
X4381358Y18271581D01*
X4357947Y18266924D01*
X4338100Y18253664D01*
X4324839Y18233817D01*
X4320182Y18210406D01*
X4324839Y18186995D01*
X4338100Y18167148D01*
X4357947Y18153886D01*
X4381358Y18149229D01*
X4404769Y18153886D01*
X4424615Y18167148D01*
X4437877Y18186995D01*
X4442533Y18210406D01*
X4441953Y18213324D01*
X4725111Y18496481D01*
X8118009D01*
X8119662Y18494008D01*
X8139509Y18480746D01*
X8142006Y18480251D01*
Y18467300D01*
X8139509Y18466805D01*
X8119662Y18453543D01*
X8118009Y18451070D01*
X6233561D01*
X6217954Y18447964D01*
X6204723Y18439124D01*
X6204722Y18439124D01*
X5386207Y17620609D01*
X5377366Y17607378D01*
X5374262Y17591769D01*
X5374262Y17591769D01*
Y15486792D01*
X4622494Y14735025D01*
X4609666Y14740157D01*
X4597477Y14758397D01*
X4577631Y14771658D01*
X4554220Y14776315D01*
X4530809Y14771658D01*
X4510963Y14758397D01*
X4497701Y14738550D01*
X4493045Y14715138D01*
X4497701Y14691730D01*
X4510963Y14671883D01*
X4530809Y14658621D01*
X4533737Y14658038D01*
X4535544Y14656366D01*
X4542046Y14643437D01*
X4540617Y14636253D01*
X4540617Y14636253D01*
Y6560292D01*
X4538143Y6558639D01*
X4524882Y6538793D01*
X4520225Y6515382D01*
X4524882Y6491971D01*
X4538143Y6472124D01*
X4557990Y6458863D01*
X4581401Y6454207D01*
X4604811Y6458863D01*
X4624658Y6472124D01*
X4637919Y6491971D01*
X4642576Y6515382D01*
X4637919Y6538793D01*
X4624658Y6558639D01*
X4622184Y6560292D01*
Y12016746D01*
X4633917Y12021606D01*
X4746361Y11909162D01*
X4746362Y11909162D01*
X4759593Y11900321D01*
X4775200Y11897216D01*
X4775201Y11897216D01*
X5403766D01*
X6452265Y10848718D01*
X6451684Y10845800D01*
X6453737Y10835480D01*
X6442033Y10829224D01*
X5809878Y11461378D01*
X5796647Y11470219D01*
X5781040Y11473324D01*
X5781039Y11473324D01*
X5015666D01*
X5015664Y11473324D01*
X5000057Y11470219D01*
X4986826Y11461378D01*
X4986825Y11461378D01*
X4886135Y11360688D01*
X4877295Y11347457D01*
X4874190Y11331849D01*
X4874190Y11331848D01*
Y8089828D01*
X4874190Y8089826D01*
X4877295Y8074219D01*
X4886135Y8060988D01*
X6080616Y6866507D01*
Y2367151D01*
X6078143Y2365498D01*
X6064881Y2345652D01*
X6060225Y2322241D01*
X6064881Y2298830D01*
X6078143Y2278983D01*
X6097989Y2265722D01*
X6121400Y2261065D01*
X6144811Y2265722D01*
X6164657Y2278983D01*
X6177919Y2298830D01*
X6182575Y2322241D01*
X6177919Y2345652D01*
X6164657Y2365498D01*
X6162184Y2367151D01*
Y2750413D01*
X6163383Y2752270D01*
X6174884Y2759850D01*
X6175611Y2759705D01*
X6181965Y2757559D01*
X6185282Y2757781D01*
X6188542Y2757133D01*
X6195120Y2758441D01*
X6201811Y2758890D01*
X6204791Y2760365D01*
X6208051Y2761013D01*
X6213627Y2764739D01*
X6219638Y2767715D01*
X6221826Y2770217D01*
X6224590Y2772064D01*
X6228316Y2777640D01*
X6232730Y2782689D01*
X6233794Y2785839D01*
X6235641Y2788603D01*
X6236950Y2795181D01*
X6239096Y2801535D01*
X6238873Y2804851D01*
X6239522Y2808112D01*
X6238214Y2814690D01*
X6237765Y2821381D01*
X6236290Y2824361D01*
X6235641Y2827621D01*
X6231915Y2833197D01*
X6228940Y2839208D01*
X6226437Y2841396D01*
X6224590Y2844160D01*
X6219014Y2847886D01*
X6213965Y2852300D01*
X6210816Y2853364D01*
X6208051Y2855211D01*
X6201473Y2856520D01*
X6195120Y2858666D01*
X6191803Y2858443D01*
X6188542Y2859092D01*
X6181964Y2857783D01*
X6175273Y2857335D01*
X6174884Y2857142D01*
X6167574Y2860008D01*
X6163778Y2863345D01*
X6162184Y2865812D01*
Y6883400D01*
X6159079Y6899007D01*
X6150238Y6912238D01*
X6150238Y6912239D01*
X4955757Y8106720D01*
Y11314956D01*
X5032557Y11391756D01*
X5319900D01*
X5326038Y11379056D01*
X5316023Y11364069D01*
X5311367Y11340658D01*
X5316023Y11317247D01*
X5329284Y11297401D01*
X5349131Y11284139D01*
X5372542Y11279483D01*
X5375460Y11280063D01*
X11599281Y5056242D01*
X11599282Y5056242D01*
X11612513Y5047401D01*
X11628120Y5044296D01*
X14266840D01*
X14272534Y5043164D01*
X14288141Y5046268D01*
X14301372Y5055109D01*
X14310213Y5068340D01*
X14313318Y5083947D01*
X14310213Y5099554D01*
X14301372Y5112786D01*
X14300240Y5113918D01*
X14287009Y5122759D01*
X14271400Y5125864D01*
X14271400Y5125864D01*
X13905202D01*
X13900803Y5138564D01*
X13912219Y5155649D01*
X13916875Y5179060D01*
X13912219Y5202471D01*
X13898956Y5222317D01*
X13896484Y5223971D01*
Y5737310D01*
X13909184Y5741162D01*
X13918675Y5726957D01*
X13938522Y5713696D01*
X13961932Y5709039D01*
X13985344Y5713696D01*
X14005190Y5726957D01*
X14018452Y5746804D01*
X14023108Y5770215D01*
X14018452Y5793625D01*
X14005190Y5813472D01*
X14002716Y5815125D01*
Y6929560D01*
X14231876Y7158718D01*
X14243581Y7152462D01*
X14241354Y7141271D01*
X14246010Y7117860D01*
X14259271Y7098013D01*
X14279118Y7084752D01*
X14302528Y7080096D01*
X14325940Y7084752D01*
X14345787Y7098013D01*
X14359048Y7117860D01*
X14363705Y7141271D01*
X14359048Y7164682D01*
X14345787Y7184528D01*
X14325940Y7197790D01*
X14302528Y7202446D01*
X14291338Y7200220D01*
X14285081Y7211925D01*
X14577097Y7503939D01*
X14588829Y7499079D01*
Y6922366D01*
X14153258Y6486795D01*
X14150340Y6487375D01*
X14126929Y6482719D01*
X14107083Y6469457D01*
X14093822Y6449611D01*
X14089165Y6426200D01*
X14093822Y6402789D01*
X14107083Y6382943D01*
X14126929Y6369681D01*
X14150340Y6365025D01*
X14173750Y6369681D01*
X14193597Y6382943D01*
X14206859Y6402789D01*
X14211514Y6426200D01*
X14210934Y6429118D01*
X14658450Y6876634D01*
X14658450Y6876634D01*
X14667291Y6889866D01*
X14670396Y6905473D01*
X14670396Y6905474D01*
Y12552779D01*
X15345793Y13228175D01*
X16266969D01*
X16268623Y13225703D01*
X16288469Y13212440D01*
X16311880Y13207785D01*
X16335291Y13212440D01*
X16355138Y13225703D01*
X16368399Y13245549D01*
X16373055Y13268961D01*
X16368399Y13292371D01*
X16355138Y13312218D01*
X16335291Y13325479D01*
X16311880Y13330135D01*
X16288469Y13325479D01*
X16268623Y13312218D01*
X16266969Y13309744D01*
X15328900D01*
X15313293Y13306639D01*
X15300063Y13297798D01*
X15300061Y13297798D01*
X14630038Y12627776D01*
X14616426Y12632124D01*
X14615724Y12636288D01*
X15632300Y13652866D01*
X15635219Y13652284D01*
X15658630Y13656941D01*
X15678476Y13670203D01*
X15691737Y13690050D01*
X15696394Y13713460D01*
X15691737Y13736871D01*
X15678476Y13756717D01*
X15658630Y13769978D01*
X15635219Y13774635D01*
X15611807Y13769978D01*
X15591962Y13756717D01*
X15578700Y13736871D01*
X15574043Y13713460D01*
X15574625Y13710542D01*
X14540790Y12676707D01*
X14531949Y12663476D01*
X14528844Y12647869D01*
X14528844Y12647868D01*
Y7571041D01*
X13933095Y6975291D01*
X13924254Y6962060D01*
X13921149Y6946453D01*
X13921149Y6946452D01*
Y5815125D01*
X13918675Y5813472D01*
X13909184Y5799267D01*
X13896484Y5803119D01*
Y6985887D01*
X14410692Y7500095D01*
X14419533Y7513326D01*
X14422636Y7528933D01*
X14422636Y7528935D01*
Y15975409D01*
X14419533Y15991016D01*
X14410692Y16004247D01*
X14410690Y16004248D01*
X13021397Y17393542D01*
X13021979Y17396460D01*
X13017320Y17419872D01*
X13009122Y17432143D01*
X13018987Y17440239D01*
X16743536Y13715688D01*
Y12659361D01*
X16743536Y12659360D01*
X16746642Y12643753D01*
X16755482Y12630522D01*
X17523315Y11862687D01*
Y4116531D01*
X17520844Y4114877D01*
X17507581Y4095031D01*
X17502925Y4071620D01*
X17507581Y4048209D01*
X17520844Y4028363D01*
X17540689Y4015101D01*
X17564101Y4010445D01*
X17587511Y4015101D01*
X17607356Y4028363D01*
X17620619Y4048209D01*
X17625275Y4071620D01*
X17620619Y4095031D01*
X17607356Y4114877D01*
X17604884Y4116531D01*
Y11879579D01*
X17604884Y11879580D01*
X17604884Y11879581D01*
Y12952800D01*
X17604884Y12952802D01*
X17601779Y12968408D01*
X17592938Y12981641D01*
X17592938Y12981641D01*
X16813158Y13761420D01*
X16813158Y13761420D01*
X12864046Y17710533D01*
Y17818156D01*
X12876746Y17822009D01*
X12882803Y17812943D01*
X12902649Y17799681D01*
X12926060Y17795026D01*
X12949471Y17799681D01*
X12969318Y17812943D01*
X12982579Y17832790D01*
X12987234Y17856200D01*
X12982579Y17879611D01*
X12969318Y17899457D01*
X12949471Y17912720D01*
X12926060Y17917375D01*
X12902649Y17912720D01*
X12882803Y17899457D01*
X12869540Y17879611D01*
X12866945Y17866559D01*
X12853464Y17863876D01*
X12852100Y17865916D01*
X12852100Y17865918D01*
X12420744Y18297273D01*
Y18345345D01*
X12431218Y18351846D01*
X12433444Y18351785D01*
X12456160Y18347266D01*
X12479571Y18351923D01*
X12499417Y18365184D01*
X12501071Y18367657D01*
X12897945D01*
X12914169Y18351433D01*
X12910483Y18339281D01*
X12903848Y18337961D01*
X12884001Y18324699D01*
X12870740Y18304852D01*
X12866083Y18281442D01*
X12870740Y18258031D01*
X12884001Y18238184D01*
X12903848Y18224924D01*
X12927258Y18220267D01*
X12950670Y18224924D01*
X12970515Y18238184D01*
X12983778Y18258031D01*
X12985097Y18264667D01*
X12997250Y18268353D01*
X17370917Y13894687D01*
Y13589001D01*
X17370917Y13589000D01*
X17374020Y13573393D01*
X17382861Y13560162D01*
X17970357Y12972667D01*
Y12799061D01*
X17970357Y12799060D01*
X17973460Y12783453D01*
X17982301Y12770222D01*
X19110815Y11641707D01*
Y9220973D01*
X19104826Y9212010D01*
X19101723Y9196402D01*
X19101723Y9196401D01*
Y6777384D01*
X19099249Y6775731D01*
X19085986Y6755884D01*
X19081331Y6732473D01*
X19085986Y6709063D01*
X19099249Y6689216D01*
X19119095Y6675955D01*
X19142506Y6671298D01*
X19165916Y6675955D01*
X19185764Y6689216D01*
X19199025Y6709063D01*
X19203682Y6732473D01*
X19199025Y6755884D01*
X19185764Y6775731D01*
X19183290Y6777384D01*
Y9180925D01*
X19189279Y9189889D01*
X19192384Y9205496D01*
X19192384Y9205497D01*
Y11658599D01*
X19192384Y11658600D01*
X19189279Y11674207D01*
X19180438Y11687438D01*
X18051924Y12815953D01*
Y12989558D01*
X18051924Y12989560D01*
X18048819Y13005167D01*
X18039978Y13018398D01*
X17452484Y13605893D01*
Y13826518D01*
X17465184Y13830917D01*
X17482269Y13819501D01*
X17505679Y13814845D01*
X17529091Y13819501D01*
X17548936Y13832764D01*
X17562199Y13852609D01*
X17566855Y13876019D01*
X17562199Y13899431D01*
X17548936Y13919276D01*
X17529091Y13932539D01*
X17505679Y13937195D01*
X17482269Y13932539D01*
X17463728Y13920151D01*
X17456804Y13921275D01*
X17450079Y13923665D01*
X17449379Y13927187D01*
X17440538Y13940417D01*
X17440538Y13940419D01*
X12943677Y18437280D01*
X12930446Y18446121D01*
X12914838Y18449225D01*
X12914838Y18449225D01*
X12501071D01*
X12499417Y18451698D01*
X12479571Y18464961D01*
X12456160Y18469617D01*
X12433444Y18465099D01*
X12431218Y18465038D01*
X12420744Y18471539D01*
Y18490530D01*
X12423217Y18492184D01*
X12436479Y18512032D01*
X12441135Y18535442D01*
X12436479Y18558853D01*
X12423217Y18578699D01*
X12403371Y18591962D01*
X12379960Y18596617D01*
X12356549Y18591962D01*
X12336703Y18578699D01*
X12323441Y18558853D01*
X12318785Y18535442D01*
X12323441Y18512032D01*
X12336703Y18492184D01*
X12339176Y18490530D01*
Y18280380D01*
X12339176Y18280380D01*
X12342281Y18264774D01*
X12351122Y18251543D01*
X12756795Y17845868D01*
X12750539Y17834164D01*
X12748260Y17834618D01*
X12724849Y17829961D01*
X12705003Y17816699D01*
X12691741Y17796854D01*
X12687085Y17773442D01*
X12691741Y17750031D01*
X12705003Y17730183D01*
X12724849Y17716924D01*
X12748260Y17712267D01*
X12769777Y17716547D01*
X12782478Y17711108D01*
Y17693642D01*
X12782477Y17693640D01*
X12785582Y17678033D01*
X12794423Y17664803D01*
X13004581Y17454643D01*
X12996484Y17444778D01*
X12984213Y17452979D01*
X12960802Y17457635D01*
X12957884Y17457056D01*
X12517415Y17897523D01*
X12517996Y17900443D01*
X12513339Y17923853D01*
X12500078Y17943700D01*
X12480231Y17956961D01*
X12456820Y17961617D01*
X12433409Y17956961D01*
X12413563Y17943700D01*
X12400302Y17923853D01*
X12395645Y17900443D01*
X12400302Y17877031D01*
X12413563Y17857184D01*
X12433409Y17843922D01*
X12456820Y17839265D01*
X12459739Y17839847D01*
X12900208Y17399377D01*
X12899628Y17396460D01*
X12904283Y17373048D01*
X12917545Y17353203D01*
X12937392Y17339941D01*
X12960802Y17335284D01*
X12963721Y17335864D01*
X14341071Y15958516D01*
Y12864233D01*
X14328371Y12858974D01*
X13811223Y13376122D01*
X13817479Y13387825D01*
X13836264Y13384090D01*
X13859676Y13388745D01*
X13879521Y13402007D01*
X13892783Y13421854D01*
X13897440Y13445264D01*
X13892783Y13468675D01*
X13879521Y13488521D01*
X13859676Y13501784D01*
X13836264Y13506439D01*
X13812852Y13501784D01*
X13793005Y13488521D01*
X13779745Y13468675D01*
X13775089Y13445264D01*
X13778825Y13426479D01*
X13767120Y13420222D01*
X12331844Y14855499D01*
Y17932399D01*
X12331844Y17932401D01*
X12328739Y17948007D01*
X12319898Y17961238D01*
X12319898Y17961240D01*
X12021455Y18259682D01*
X12022035Y18262601D01*
X12017379Y18286011D01*
X12004117Y18305856D01*
X11984271Y18319119D01*
X11960860Y18323775D01*
X11937449Y18319119D01*
X11917603Y18305856D01*
X11904341Y18286011D01*
X11899685Y18262601D01*
X11904341Y18239189D01*
X11917603Y18219344D01*
X11923233Y18215581D01*
Y18202879D01*
X11915479Y18197699D01*
X11902218Y18177853D01*
X11897561Y18154442D01*
X11902218Y18131030D01*
X11915479Y18111185D01*
X11932772Y18099631D01*
X11932340Y18089102D01*
X11931431Y18086414D01*
X11920991Y18084337D01*
X11901012Y18070988D01*
X11887663Y18051009D01*
X11885501Y18040141D01*
X12003615D01*
X12001454Y18051009D01*
X11988104Y18070988D01*
X11970608Y18082680D01*
X11970961Y18092909D01*
X11971948Y18095894D01*
X11982147Y18097923D01*
X12001994Y18111185D01*
X12015255Y18131030D01*
X12015862Y18134081D01*
X12028015Y18137769D01*
X12250276Y17915508D01*
Y14838608D01*
X12250276Y14838606D01*
X12253381Y14823000D01*
X12262222Y14809769D01*
X14270953Y12801036D01*
Y12702921D01*
X14258253Y12697660D01*
X12273591Y14682323D01*
X12274171Y14685242D01*
X12269514Y14708652D01*
X12256253Y14728499D01*
X12236407Y14741760D01*
X12212996Y14746417D01*
X12189585Y14741760D01*
X12169738Y14728499D01*
X12156477Y14708652D01*
X12151820Y14685242D01*
X12156477Y14661830D01*
X12169738Y14641985D01*
X12189585Y14628722D01*
X12212996Y14624066D01*
X12215914Y14624646D01*
X14192970Y12647590D01*
Y9166181D01*
X13762050Y8735261D01*
X13759132Y8735841D01*
X13735721Y8731185D01*
X13715875Y8717923D01*
X13702612Y8698077D01*
X13697957Y8674666D01*
X13702612Y8651255D01*
X13715875Y8631408D01*
X13735721Y8618147D01*
X13759132Y8613491D01*
X13782542Y8618147D01*
X13802390Y8631408D01*
X13815651Y8651255D01*
X13820306Y8674666D01*
X13819727Y8677584D01*
X14258253Y9116111D01*
X14270953Y9110850D01*
Y9051289D01*
X11978747Y6759084D01*
X11741611D01*
X11739957Y6761557D01*
X11720111Y6774819D01*
X11696700Y6779475D01*
X11673289Y6774819D01*
X11653443Y6761557D01*
X11640181Y6741711D01*
X11635525Y6718300D01*
X11640181Y6694889D01*
X11653443Y6675043D01*
X11673289Y6661781D01*
X11696700Y6657125D01*
X11720111Y6661781D01*
X11739957Y6675043D01*
X11741611Y6677516D01*
X11995639D01*
X11995640Y6677516D01*
X12011248Y6680621D01*
X12024479Y6689462D01*
X14328371Y8993353D01*
X14341071Y8988093D01*
Y7545827D01*
X13826862Y7031618D01*
X13818021Y7018387D01*
X13814915Y7002780D01*
X13814915Y7002779D01*
Y5223971D01*
X13812444Y5222317D01*
X13799181Y5202471D01*
X13794525Y5179060D01*
X13799181Y5155649D01*
X13810597Y5138564D01*
X13806198Y5125864D01*
X11645013D01*
X5433137Y11337740D01*
X5433717Y11340658D01*
X5429061Y11364069D01*
X5419046Y11379056D01*
X5425184Y11391756D01*
X5764147D01*
X6473561Y10682342D01*
X6473562Y10682342D01*
X6486793Y10673501D01*
X6502400Y10670396D01*
X6502401Y10670396D01*
X6548119D01*
X6548120Y10670396D01*
X6563727Y10673501D01*
X6576958Y10682342D01*
X7202812Y11308195D01*
X7211653Y11321426D01*
X7214757Y11337033D01*
X7214757Y11337035D01*
Y15073557D01*
X8667930Y16526730D01*
X10418243D01*
X10418244Y16526729D01*
X10433852Y16529834D01*
X10447083Y16538675D01*
X11722998Y17814590D01*
X11722998Y17814590D01*
X11731839Y17827821D01*
X11734944Y17843430D01*
X11734944Y17843430D01*
Y18149187D01*
X11957942Y18372185D01*
X11960860Y18371605D01*
X11984271Y18376260D01*
X12004117Y18389523D01*
X12017379Y18409369D01*
X12022035Y18432780D01*
X12017379Y18456190D01*
X12004117Y18476038D01*
X11984271Y18489299D01*
X11968102Y18492516D01*
X11972323Y18513734D01*
X11968511Y18532896D01*
X11976131Y18545596D01*
X12144949D01*
X12144950Y18545596D01*
X12160557Y18548701D01*
X12173788Y18557541D01*
X12416175Y18799928D01*
X16549425D01*
X19330634Y16018719D01*
Y15921240D01*
X19321216Y15919366D01*
X19301370Y15906107D01*
X19288107Y15886259D01*
X19283452Y15862849D01*
X19288107Y15839438D01*
X19301370Y15819591D01*
X19321216Y15806329D01*
X19330437Y15804495D01*
X19334123Y15792343D01*
X19298949Y15757169D01*
X19290971Y15745232D01*
X19289270Y15743372D01*
X19284268Y15739998D01*
X19275957Y15737894D01*
X19275905Y15737918D01*
X19269289Y15738342D01*
X19262785Y15739635D01*
X19259450Y15738971D01*
X19256055Y15739189D01*
X19249779Y15737048D01*
X19243277Y15735754D01*
X19240450Y15733865D01*
X19237228Y15732767D01*
X19232249Y15728386D01*
X19226738Y15724702D01*
X19224849Y15721877D01*
X19222295Y15719627D01*
X19219370Y15713676D01*
X19215688Y15708163D01*
X19215022Y15704828D01*
X19213522Y15701775D01*
X19213100Y15695158D01*
X19211806Y15688655D01*
X19212469Y15685320D01*
X19212253Y15681924D01*
X19213885Y15677139D01*
X19212230Y15673141D01*
X19204756Y15664481D01*
X19204660Y15664439D01*
X15921608D01*
X15585057Y16000989D01*
X15585638Y16003908D01*
X15580981Y16027318D01*
X15567720Y16047165D01*
X15547873Y16060426D01*
X15524461Y16065083D01*
X15501051Y16060426D01*
X15481206Y16047165D01*
X15467943Y16027318D01*
X15463287Y16003908D01*
X15467943Y15980498D01*
X15481206Y15960651D01*
X15501051Y15947389D01*
X15524461Y15942732D01*
X15527380Y15943314D01*
X15875876Y15594817D01*
X15889107Y15585976D01*
X15904713Y15582872D01*
X15904716Y15582872D01*
X19289708D01*
X19289709Y15582872D01*
X19305318Y15585976D01*
X19318549Y15594817D01*
X19356624Y15632893D01*
X19356624Y15632893D01*
X19365465Y15646124D01*
X19368570Y15661732D01*
X19368570Y15661732D01*
Y15711436D01*
X19608594Y15951460D01*
X19663966D01*
X19665218Y15938760D01*
X19654350Y15936600D01*
X19634505Y15923337D01*
X19621242Y15903491D01*
X19616586Y15880080D01*
X19621242Y15856670D01*
X19634505Y15836823D01*
X19636977Y15835168D01*
Y14346521D01*
X18369104Y13078648D01*
X18366187Y13079230D01*
X18342775Y13074573D01*
X18322929Y13061311D01*
X18309666Y13041466D01*
X18305011Y13018054D01*
X18309666Y12994643D01*
X18322929Y12974796D01*
X18342775Y12961536D01*
X18366187Y12956879D01*
X18389597Y12961536D01*
X18409444Y12974796D01*
X18422705Y12994643D01*
X18427362Y13018054D01*
X18426781Y13020972D01*
X19706599Y14300790D01*
X19706599Y14300790D01*
X19715440Y14314021D01*
X19718546Y14329628D01*
Y15835168D01*
X19721017Y15836823D01*
X19734280Y15856670D01*
X19738936Y15880080D01*
X19734280Y15903491D01*
X19721017Y15923337D01*
X19701172Y15936600D01*
X19690305Y15938760D01*
X19691556Y15951460D01*
X19816167D01*
X20305992Y15461635D01*
Y13539461D01*
X20305992Y13539459D01*
X20309096Y13523851D01*
X20317937Y13510620D01*
X21132764Y12695794D01*
Y10979907D01*
X20971225Y10818369D01*
X20968307Y10818949D01*
X20944896Y10814293D01*
X20925050Y10801031D01*
X20911787Y10781185D01*
X20907132Y10757774D01*
X20911787Y10734363D01*
X20925050Y10714516D01*
X20944896Y10701255D01*
X20968307Y10696598D01*
X20991718Y10701255D01*
X21011565Y10714516D01*
X21024826Y10734363D01*
X21029482Y10757774D01*
X21028902Y10760692D01*
X21202385Y10934175D01*
X21211226Y10947406D01*
X21214330Y10963013D01*
X21214330Y10963015D01*
Y12712687D01*
X21211226Y12728295D01*
X21202385Y12741526D01*
X21202383Y12741526D01*
X20387560Y13556352D01*
Y13694536D01*
X20399292Y13699397D01*
X21240887Y12857800D01*
Y8038835D01*
X19399336Y6197283D01*
X19396419Y6197864D01*
X19373007Y6193207D01*
X19353160Y6179946D01*
X19339899Y6160099D01*
X19335243Y6136688D01*
X19339899Y6113277D01*
X19353160Y6093431D01*
X19373007Y6080169D01*
X19396419Y6075513D01*
X19419829Y6080169D01*
X19439674Y6093431D01*
X19452937Y6113277D01*
X19457593Y6136688D01*
X19457013Y6139606D01*
X21310510Y7993103D01*
X21310510Y7993104D01*
X21319351Y8006335D01*
X21322456Y8021942D01*
X21322455Y8021944D01*
Y12874692D01*
X21322456Y12874693D01*
X21319351Y12890302D01*
X21310510Y12903532D01*
X20442558Y13771484D01*
Y15649919D01*
X20442558Y15649921D01*
X20439455Y15665527D01*
X20430614Y15678758D01*
X20430614Y15678758D01*
X15688068Y20421304D01*
X15674837Y20430145D01*
X15659230Y20433250D01*
X15659229Y20433250D01*
X9080704D01*
X9079051Y20435724D01*
X9059204Y20448985D01*
X9035793Y20453642D01*
D02*
G37*
G36*
X3872220Y15278316D02*
X3848809Y15273659D01*
X3828962Y15260397D01*
X3815701Y15240552D01*
X3811044Y15217140D01*
X3815701Y15193729D01*
X3828962Y15173883D01*
X3848809Y15160622D01*
X3872220Y15155965D01*
X3895631Y15160622D01*
X3915477Y15173883D01*
X3928739Y15193729D01*
X3933395Y15217140D01*
X3928739Y15240552D01*
X3915477Y15260397D01*
X3895631Y15273659D01*
X3872220Y15278316D01*
D02*
G37*
G36*
X14787880Y15003995D02*
X14764468Y14999339D01*
X14744623Y14986076D01*
X14731361Y14966231D01*
X14726704Y14942821D01*
X14731361Y14919409D01*
X14744623Y14899564D01*
X14764468Y14886301D01*
X14787880Y14881645D01*
X14811292Y14886301D01*
X14831137Y14899564D01*
X14844398Y14919409D01*
X14849055Y14942821D01*
X14844398Y14966231D01*
X14831137Y14986076D01*
X14811292Y14999339D01*
X14787880Y15003995D01*
D02*
G37*
G36*
X3937000Y14567114D02*
X3913589Y14562459D01*
X3893743Y14549197D01*
X3880481Y14529350D01*
X3875825Y14505940D01*
X3880481Y14482529D01*
X3893743Y14462683D01*
X3913589Y14449422D01*
X3937000Y14444765D01*
X3960411Y14449422D01*
X3980257Y14462683D01*
X3993519Y14482529D01*
X3998175Y14505940D01*
X3993519Y14529350D01*
X3980257Y14549197D01*
X3960411Y14562459D01*
X3937000Y14567114D01*
D02*
G37*
G36*
X5892800Y14544255D02*
X5869389Y14539600D01*
X5849543Y14526337D01*
X5836281Y14506491D01*
X5831625Y14483080D01*
X5836281Y14459669D01*
X5849543Y14439822D01*
X5869389Y14426561D01*
X5892800Y14421906D01*
X5916211Y14426561D01*
X5936057Y14439822D01*
X5949319Y14459669D01*
X5953975Y14483080D01*
X5949319Y14506491D01*
X5936057Y14526337D01*
X5916211Y14539600D01*
X5892800Y14544255D01*
D02*
G37*
G36*
X2427994Y14269745D02*
X2404583Y14265088D01*
X2384736Y14251826D01*
X2371475Y14231979D01*
X2366818Y14208569D01*
X2371475Y14185159D01*
X2384736Y14165312D01*
X2404583Y14152051D01*
X2427994Y14147394D01*
X2451405Y14152051D01*
X2471251Y14165312D01*
X2484512Y14185159D01*
X2489169Y14208569D01*
X2484512Y14231979D01*
X2471251Y14251826D01*
X2451405Y14265088D01*
X2427994Y14269745D01*
D02*
G37*
G36*
X5506720Y14249615D02*
X5483309Y14244958D01*
X5463463Y14231697D01*
X5450201Y14211852D01*
X5445545Y14188440D01*
X5450201Y14165028D01*
X5463463Y14145183D01*
X5483309Y14131921D01*
X5506720Y14127264D01*
X5530131Y14131921D01*
X5549977Y14145183D01*
X5563239Y14165028D01*
X5567895Y14188440D01*
X5563239Y14211852D01*
X5549977Y14231697D01*
X5530131Y14244958D01*
X5506720Y14249615D01*
D02*
G37*
G36*
X4310380Y14117535D02*
X4286969Y14112878D01*
X4267123Y14099617D01*
X4253861Y14079771D01*
X4249205Y14056360D01*
X4253861Y14032948D01*
X4267123Y14013103D01*
X4286969Y13999841D01*
X4310380Y13995184D01*
X4333791Y13999841D01*
X4353637Y14013103D01*
X4366899Y14032948D01*
X4371555Y14056360D01*
X4366899Y14079771D01*
X4353637Y14099617D01*
X4333791Y14112878D01*
X4310380Y14117535D01*
D02*
G37*
G36*
X5372542Y14116875D02*
X5349131Y14112218D01*
X5329284Y14098956D01*
X5316023Y14079111D01*
X5311367Y14055701D01*
X5316023Y14032289D01*
X5329284Y14012442D01*
X5349131Y13999181D01*
X5372542Y13994524D01*
X5395953Y13999181D01*
X5415799Y14012442D01*
X5429061Y14032289D01*
X5433717Y14055701D01*
X5429061Y14079111D01*
X5415799Y14098956D01*
X5395953Y14112218D01*
X5372542Y14116875D01*
D02*
G37*
G36*
X16365535Y13929575D02*
X16342123Y13924919D01*
X16322276Y13911658D01*
X16309016Y13891811D01*
X16304359Y13868401D01*
X16309016Y13844989D01*
X16322276Y13825143D01*
X16342123Y13811880D01*
X16365535Y13807225D01*
X16388947Y13811880D01*
X16408792Y13825143D01*
X16422054Y13844989D01*
X16426711Y13868401D01*
X16422054Y13891811D01*
X16408792Y13911658D01*
X16388947Y13924919D01*
X16365535Y13929575D01*
D02*
G37*
G36*
X13992824Y13683896D02*
X13985175Y13682375D01*
X13977425Y13681514D01*
X13975487Y13680447D01*
X13973315Y13680016D01*
X13966830Y13675684D01*
X13959999Y13671921D01*
X13958617Y13670193D01*
X13956776Y13668964D01*
X13952444Y13662480D01*
X13947571Y13656390D01*
X13946954Y13654265D01*
X13945724Y13652425D01*
X13944205Y13644775D01*
X13942033Y13637286D01*
X13942278Y13635088D01*
X13941846Y13632916D01*
X13943365Y13625267D01*
X13944228Y13617516D01*
X13945294Y13615578D01*
X13945724Y13613406D01*
X13950058Y13606923D01*
X13953819Y13600092D01*
X13955547Y13598708D01*
X13956776Y13596867D01*
X13963261Y13592535D01*
X13969350Y13587663D01*
X13971475Y13587047D01*
X13973315Y13585817D01*
X13980965Y13584296D01*
X13988455Y13582124D01*
X13990654Y13582368D01*
X13992824Y13581937D01*
X14000475Y13583458D01*
X14008224Y13584319D01*
X14010162Y13585387D01*
X14012334Y13585817D01*
X14018819Y13590150D01*
X14025650Y13593912D01*
X14027032Y13595639D01*
X14028873Y13596867D01*
X14033205Y13603352D01*
X14038078Y13609442D01*
X14038693Y13611568D01*
X14039923Y13613406D01*
X14041444Y13621057D01*
X14043616Y13628548D01*
X14043372Y13630746D01*
X14043803Y13632916D01*
X14042284Y13640565D01*
X14041422Y13648317D01*
X14040355Y13650255D01*
X14039923Y13652425D01*
X14035591Y13658910D01*
X14031828Y13665742D01*
X14030101Y13667125D01*
X14028873Y13668964D01*
X14022388Y13673297D01*
X14016299Y13678169D01*
X14014172Y13678786D01*
X14012334Y13680016D01*
X14004683Y13681537D01*
X13997194Y13683708D01*
X13994995Y13683464D01*
X13992824Y13683896D01*
D02*
G37*
G36*
X7916296Y13567818D02*
X7914089Y13567380D01*
X7911853Y13567624D01*
X7904401Y13565453D01*
X7896787Y13563937D01*
X7894916Y13562688D01*
X7892756Y13562057D01*
X7886703Y13557199D01*
X7880248Y13552887D01*
X7878998Y13551016D01*
X7877244Y13549608D01*
X7873510Y13542802D01*
X7869197Y13536348D01*
X7868758Y13534142D01*
X7867676Y13532169D01*
X7866831Y13524454D01*
X7865317Y13516840D01*
X7865755Y13514632D01*
X7865511Y13512395D01*
X7867683Y13504944D01*
X7869197Y13497330D01*
X7870447Y13495459D01*
X7871077Y13493298D01*
X7875935Y13487245D01*
X7880248Y13480791D01*
X7882119Y13479541D01*
X7883527Y13477786D01*
X7890332Y13474052D01*
X7896787Y13469740D01*
X7898994Y13469301D01*
X7900966Y13468219D01*
X7908681Y13467374D01*
X7916296Y13465858D01*
X7918503Y13466298D01*
X7920739Y13466052D01*
X7928191Y13468225D01*
X7935805Y13469740D01*
X7937676Y13470990D01*
X7939836Y13471619D01*
X7945890Y13476479D01*
X7952344Y13480791D01*
X7953594Y13482661D01*
X7955349Y13484070D01*
X7959082Y13490875D01*
X7963395Y13497330D01*
X7963834Y13499538D01*
X7964916Y13501509D01*
X7965761Y13509224D01*
X7967276Y13516840D01*
X7966837Y13519046D01*
X7967082Y13521281D01*
X7964910Y13528734D01*
X7963395Y13536348D01*
X7962145Y13538219D01*
X7961515Y13540378D01*
X7956657Y13546432D01*
X7952344Y13552887D01*
X7950473Y13554137D01*
X7949065Y13555891D01*
X7942260Y13559625D01*
X7935805Y13563937D01*
X7933598Y13564375D01*
X7931626Y13565459D01*
X7923911Y13566304D01*
X7916296Y13567818D01*
D02*
G37*
G36*
X18366180Y13495235D02*
X18342770Y13490579D01*
X18322923Y13477316D01*
X18309662Y13457471D01*
X18305006Y13434061D01*
X18309662Y13410649D01*
X18322923Y13390804D01*
X18342770Y13377541D01*
X18366180Y13372885D01*
X18389592Y13377541D01*
X18409439Y13390804D01*
X18422701Y13410649D01*
X18427357Y13434061D01*
X18422701Y13457471D01*
X18409439Y13477316D01*
X18389592Y13490579D01*
X18366180Y13495235D01*
D02*
G37*
G36*
X17381219D02*
X17357809Y13490579D01*
X17337962Y13477316D01*
X17324701Y13457471D01*
X17320045Y13434061D01*
X17324701Y13410649D01*
X17337962Y13390804D01*
X17357809Y13377541D01*
X17381219Y13372885D01*
X17404631Y13377541D01*
X17424477Y13390804D01*
X17437740Y13410649D01*
X17442395Y13434061D01*
X17437740Y13457471D01*
X17424477Y13477316D01*
X17404631Y13490579D01*
X17381219Y13495235D01*
D02*
G37*
G36*
X8482239Y15137015D02*
X8458828Y15132359D01*
X8438981Y15119096D01*
X8425720Y15099251D01*
X8421063Y15075841D01*
X8425720Y15052429D01*
X8438981Y15032582D01*
X8441455Y15030930D01*
Y13775316D01*
X8137970Y13471832D01*
X8121112Y13468478D01*
X8101265Y13455217D01*
X8088004Y13435370D01*
X8083347Y13411958D01*
X8088004Y13388548D01*
X8101265Y13368703D01*
X8121112Y13355441D01*
X8144523Y13350784D01*
X8167934Y13355441D01*
X8187780Y13368703D01*
X8201042Y13388548D01*
X8205698Y13411958D01*
X8203666Y13422174D01*
X8511076Y13729584D01*
X8511077Y13729585D01*
X8519918Y13742816D01*
X8523022Y13758423D01*
Y15030930D01*
X8525496Y15032582D01*
X8538757Y15052429D01*
X8543414Y15075841D01*
X8538757Y15099251D01*
X8525496Y15119096D01*
X8505649Y15132359D01*
X8482239Y15137015D01*
D02*
G37*
G36*
X7498568Y13134978D02*
Y13088620D01*
X7544925D01*
X7542763Y13099487D01*
X7529414Y13119466D01*
X7509435Y13132816D01*
X7498568Y13134978D01*
D02*
G37*
G36*
X7473168D02*
X7462301Y13132816D01*
X7442322Y13119466D01*
X7428972Y13099487D01*
X7426811Y13088620D01*
X7473168D01*
Y13134978D01*
D02*
G37*
G36*
X4246880D02*
Y13088620D01*
X4293237D01*
X4291075Y13099487D01*
X4277726Y13119466D01*
X4257747Y13132816D01*
X4246880Y13134978D01*
D02*
G37*
G36*
X4221480D02*
X4210613Y13132816D01*
X4190634Y13119466D01*
X4177285Y13099487D01*
X4175123Y13088620D01*
X4221480D01*
Y13134978D01*
D02*
G37*
G36*
X7544925Y13063220D02*
X7498568D01*
Y13016862D01*
X7509435Y13019025D01*
X7529414Y13032375D01*
X7542763Y13052353D01*
X7544925Y13063220D01*
D02*
G37*
G36*
X7473168D02*
X7426811D01*
X7428972Y13052353D01*
X7442322Y13032375D01*
X7462301Y13019025D01*
X7473168Y13016862D01*
Y13063220D01*
D02*
G37*
G36*
X4293237D02*
X4246880D01*
Y13016862D01*
X4257747Y13019025D01*
X4277726Y13032375D01*
X4291075Y13052353D01*
X4293237Y13063220D01*
D02*
G37*
G36*
X4221480D02*
X4175123D01*
X4177285Y13052353D01*
X4190634Y13032375D01*
X4210613Y13019025D01*
X4221480Y13016862D01*
Y13063220D01*
D02*
G37*
G36*
X17635860Y13135194D02*
X17612450Y13130539D01*
X17592603Y13117278D01*
X17579341Y13097430D01*
X17574686Y13074020D01*
X17579341Y13050609D01*
X17592603Y13030763D01*
X17612450Y13017500D01*
X17635860Y13012845D01*
X17659271Y13017500D01*
X17679118Y13030763D01*
X17692380Y13050609D01*
X17697035Y13074020D01*
X17692380Y13097430D01*
X17679118Y13117278D01*
X17659271Y13130539D01*
X17635860Y13135194D01*
D02*
G37*
G36*
X15519400Y14544255D02*
X15495988Y14539600D01*
X15476143Y14526337D01*
X15462881Y14506491D01*
X15458224Y14483080D01*
X15462881Y14459669D01*
X15476143Y14439822D01*
X15495988Y14426561D01*
X15519400Y14421906D01*
X15522318Y14422485D01*
X16410796Y13534007D01*
Y13006596D01*
X16398096Y12999809D01*
X16389107Y13005815D01*
X16378239Y13007977D01*
Y12948920D01*
Y12889864D01*
X16389107Y12892026D01*
X16398096Y12898032D01*
X16410796Y12891243D01*
Y12546654D01*
X16398096Y12542802D01*
X16387074Y12559295D01*
X16367476Y12572391D01*
X16355138Y12590857D01*
X16335291Y12604119D01*
X16311880Y12608775D01*
X16288469Y12604119D01*
X16268623Y12590857D01*
X16255360Y12571011D01*
X16250705Y12547600D01*
X16251285Y12544682D01*
X15624216Y11917613D01*
X15615376Y11904382D01*
X15612271Y11888775D01*
X15612271Y11888774D01*
Y11842168D01*
X15530714Y11760611D01*
X15521873Y11747380D01*
X15518768Y11731772D01*
X15518768Y11731771D01*
Y7237888D01*
X15506068Y7231099D01*
X15494551Y7238796D01*
X15471140Y7243452D01*
X15448424Y7238934D01*
X15446198Y7238872D01*
X15435724Y7245374D01*
Y11745769D01*
X15438197Y11747423D01*
X15451459Y11767269D01*
X15456116Y11790680D01*
X15451459Y11814091D01*
X15438197Y11833937D01*
X15418352Y11847199D01*
X15394940Y11851855D01*
X15371529Y11847199D01*
X15351683Y11833937D01*
X15338422Y11814091D01*
X15333765Y11790680D01*
X15338422Y11767269D01*
X15351683Y11747423D01*
X15354156Y11745769D01*
Y5958841D01*
X15354156Y5958840D01*
X15357262Y5943233D01*
X15366103Y5930002D01*
X15490561Y5805542D01*
X15490562Y5805542D01*
X15721979Y5574125D01*
X15717798Y5560344D01*
X15706808Y5558159D01*
X15686963Y5544897D01*
X15673701Y5525051D01*
X15669044Y5501640D01*
X15673701Y5478229D01*
X15686963Y5458383D01*
X15706808Y5445121D01*
X15730220Y5440465D01*
X15753632Y5445121D01*
X15773477Y5458383D01*
X15786739Y5478229D01*
X15788924Y5489218D01*
X15802705Y5493398D01*
X16379561Y4916542D01*
X16379562Y4916542D01*
X16392793Y4907701D01*
X16408400Y4904596D01*
X17100089D01*
X17101743Y4902123D01*
X17121590Y4888861D01*
X17145000Y4884205D01*
X17168411Y4888861D01*
X17188257Y4902123D01*
X17201518Y4921969D01*
X17206175Y4945380D01*
X17201518Y4968791D01*
X17188257Y4988637D01*
X17168411Y5001899D01*
X17145000Y5006555D01*
X17142082Y5005975D01*
X17038744Y5109312D01*
X17044731Y5120513D01*
X17045940Y5120272D01*
X17069351Y5124929D01*
X17089197Y5138190D01*
X17102460Y5158037D01*
X17107115Y5181448D01*
X17102460Y5204859D01*
X17089197Y5224705D01*
X17069351Y5237966D01*
X17045940Y5242623D01*
X17022530Y5237966D01*
X17002682Y5224705D01*
X16989421Y5204859D01*
X16984766Y5181448D01*
X16985005Y5180239D01*
X16973805Y5174252D01*
X16296783Y5851273D01*
Y6168007D01*
X16701199Y6572423D01*
X16701199Y6572423D01*
X16710040Y6585655D01*
X16713145Y6601262D01*
Y7117278D01*
X16710040Y7132885D01*
X16701199Y7146117D01*
X16687968Y7154957D01*
X16672362Y7158062D01*
X16656755Y7154957D01*
X16643523Y7146117D01*
X16634683Y7132885D01*
X16631578Y7117278D01*
Y6618155D01*
X16227162Y6213738D01*
X16227161Y6213738D01*
X15888586Y5875164D01*
X15536293D01*
X15435724Y5975733D01*
Y7119179D01*
X15446198Y7125681D01*
X15448424Y7125620D01*
X15471140Y7121101D01*
X15494551Y7125758D01*
X15506068Y7133454D01*
X15518768Y7126666D01*
Y6969174D01*
X15516295Y6967521D01*
X15503033Y6947674D01*
X15498376Y6924264D01*
X15503033Y6900853D01*
X15516295Y6881006D01*
X15536140Y6867745D01*
X15559552Y6863088D01*
X15582964Y6867745D01*
X15602811Y6881006D01*
X15616071Y6900853D01*
X15620728Y6924264D01*
X15616071Y6947674D01*
X15602811Y6967521D01*
X15600336Y6969174D01*
Y11714879D01*
X15681892Y11796436D01*
X15681892Y11796436D01*
X16340900Y12455443D01*
X16343819Y12454863D01*
X16367229Y12459519D01*
X16387074Y12472780D01*
X16398096Y12489274D01*
X16410796Y12485422D01*
Y11675493D01*
X15701382Y10966078D01*
X15692542Y10952847D01*
X15689436Y10937240D01*
X15689436Y10937239D01*
Y6295773D01*
X15498183Y6104518D01*
X15489342Y6091287D01*
X15486237Y6075680D01*
X15486237Y6075679D01*
Y6057091D01*
X15483763Y6055437D01*
X15470502Y6035591D01*
X15465845Y6012180D01*
X15470502Y5988769D01*
X15483763Y5968923D01*
X15503609Y5955661D01*
X15527020Y5951005D01*
X15550430Y5955661D01*
X15570277Y5968923D01*
X15583539Y5988769D01*
X15588194Y6012180D01*
X15583539Y6035591D01*
X15570277Y6055437D01*
X15575943Y6066926D01*
X15713380Y6204365D01*
X15726868Y6199891D01*
X15730318Y6182546D01*
X15743579Y6162699D01*
X15763426Y6149438D01*
X15786836Y6144781D01*
X15810248Y6149438D01*
X15815855Y6153186D01*
X15827286Y6145549D01*
X15826524Y6141720D01*
X15831181Y6118309D01*
X15844443Y6098463D01*
X15864288Y6085201D01*
X15887700Y6080545D01*
X15911111Y6085201D01*
X15930957Y6098463D01*
X15944218Y6118309D01*
X15948875Y6141720D01*
X15944218Y6165131D01*
X15930957Y6184977D01*
X15911111Y6198239D01*
X15887700Y6202895D01*
X15864288Y6198239D01*
X15858681Y6194491D01*
X15847250Y6202128D01*
X15848012Y6205957D01*
X15843355Y6229368D01*
X15830093Y6249214D01*
X15810248Y6262475D01*
X15786836Y6267132D01*
X15781401Y6266051D01*
X15770599Y6276851D01*
X15771004Y6278880D01*
X15771004Y6278881D01*
Y6457275D01*
X15783704Y6464063D01*
X15795709Y6456041D01*
X15819119Y6451385D01*
X15842531Y6456041D01*
X15862376Y6469303D01*
X15875639Y6489149D01*
X15880295Y6512560D01*
X15875639Y6535971D01*
X15862376Y6555817D01*
X15842531Y6569079D01*
X15819119Y6573735D01*
X15795709Y6569079D01*
X15783704Y6561057D01*
X15771004Y6567845D01*
Y10920347D01*
X16480418Y11629761D01*
X16480418Y11629762D01*
X16489259Y11642993D01*
X16492365Y11658600D01*
X16492365Y11658601D01*
Y13550899D01*
X16492365Y13550900D01*
X16489259Y13566507D01*
X16480418Y13579738D01*
X16480418Y13579739D01*
X15579996Y14480162D01*
X15580576Y14483080D01*
X15575919Y14506491D01*
X15562657Y14526337D01*
X15542812Y14539600D01*
X15519400Y14544255D01*
D02*
G37*
G36*
X16352840Y13007977D02*
X16341972Y13005815D01*
X16321994Y12992467D01*
X16308646Y12972487D01*
X16306483Y12961620D01*
X16352840D01*
Y13007977D01*
D02*
G37*
G36*
Y12936220D02*
X16306483D01*
X16308646Y12925352D01*
X16321994Y12905374D01*
X16341972Y12892026D01*
X16352840Y12889864D01*
Y12936220D01*
D02*
G37*
G36*
X5372542Y12956755D02*
X5349131Y12952100D01*
X5329284Y12938837D01*
X5316023Y12918991D01*
X5311367Y12895580D01*
X5316023Y12872169D01*
X5329284Y12852322D01*
X5349131Y12839061D01*
X5372542Y12834406D01*
X5395953Y12839061D01*
X5415799Y12852322D01*
X5429061Y12872169D01*
X5433717Y12895580D01*
X5429061Y12918991D01*
X5415799Y12938837D01*
X5395953Y12952100D01*
X5372542Y12956755D01*
D02*
G37*
G36*
X4064919Y12827637D02*
Y12781280D01*
X4111277D01*
X4109115Y12792147D01*
X4095765Y12812126D01*
X4075786Y12825475D01*
X4064919Y12827637D01*
D02*
G37*
G36*
X4039519D02*
X4028653Y12825475D01*
X4008673Y12812126D01*
X3995324Y12792147D01*
X3993162Y12781280D01*
X4039519D01*
Y12827637D01*
D02*
G37*
G36*
X4111277Y12755880D02*
X4064919D01*
Y12709523D01*
X4075786Y12711685D01*
X4095765Y12725034D01*
X4109115Y12745013D01*
X4111277Y12755880D01*
D02*
G37*
G36*
X4039519D02*
X3993162D01*
X3995324Y12745013D01*
X4008673Y12725034D01*
X4028653Y12711685D01*
X4039519Y12709523D01*
Y12755880D01*
D02*
G37*
G36*
X18366187Y12705295D02*
X18342775Y12700639D01*
X18322929Y12687377D01*
X18309666Y12667531D01*
X18305011Y12644120D01*
X18309666Y12620709D01*
X18322929Y12600863D01*
X18342775Y12587601D01*
X18366187Y12582945D01*
X18389597Y12587601D01*
X18409444Y12600863D01*
X18422705Y12620709D01*
X18427362Y12644120D01*
X18422705Y12667531D01*
X18409444Y12687377D01*
X18389597Y12700639D01*
X18366187Y12705295D01*
D02*
G37*
G36*
X15635223D02*
X15611813Y12700639D01*
X15591966Y12687377D01*
X15578705Y12667531D01*
X15574049Y12644120D01*
X15578705Y12620709D01*
X15591966Y12600863D01*
X15611813Y12587601D01*
X15635223Y12582945D01*
X15658635Y12587601D01*
X15678481Y12600863D01*
X15691743Y12620709D01*
X15696399Y12644120D01*
X15691743Y12667531D01*
X15678481Y12687377D01*
X15658635Y12700639D01*
X15635223Y12705295D01*
D02*
G37*
G36*
X6705559Y12341969D02*
Y12295612D01*
X6751916D01*
X6749755Y12306479D01*
X6736405Y12326458D01*
X6716426Y12339807D01*
X6705559Y12341969D01*
D02*
G37*
G36*
X6680159D02*
X6669292Y12339807D01*
X6649313Y12326458D01*
X6635964Y12306479D01*
X6633802Y12295612D01*
X6680159D01*
Y12341969D01*
D02*
G37*
G36*
X6751916Y12270212D02*
X6705559D01*
Y12223855D01*
X6716426Y12226016D01*
X6736405Y12239366D01*
X6749755Y12259345D01*
X6751916Y12270212D01*
D02*
G37*
G36*
X6680159D02*
X6633802D01*
X6635964Y12259345D01*
X6649313Y12239366D01*
X6669292Y12226016D01*
X6680159Y12223855D01*
Y12270212D01*
D02*
G37*
G36*
X15267940Y12309055D02*
X15244530Y12304399D01*
X15224683Y12291137D01*
X15211421Y12271291D01*
X15206766Y12247880D01*
X15211421Y12224469D01*
X15224683Y12204623D01*
X15244530Y12191361D01*
X15267940Y12186705D01*
X15291351Y12191361D01*
X15311197Y12204623D01*
X15324458Y12224469D01*
X15329115Y12247880D01*
X15324458Y12271291D01*
X15311197Y12291137D01*
X15291351Y12304399D01*
X15267940Y12309055D01*
D02*
G37*
G36*
X4052219Y12104519D02*
X4028809Y12099863D01*
X4008962Y12086601D01*
X3995701Y12066755D01*
X3991044Y12043344D01*
X3995701Y12019933D01*
X4008962Y12000086D01*
X4028809Y11986825D01*
X4052219Y11982169D01*
X4075630Y11986825D01*
X4095477Y12000086D01*
X4108738Y12019933D01*
X4113395Y12043344D01*
X4108738Y12066755D01*
X4095477Y12086601D01*
X4075630Y12099863D01*
X4052219Y12104519D01*
D02*
G37*
G36*
X6512860Y12092856D02*
X6489449Y12088199D01*
X6469602Y12074938D01*
X6456341Y12055091D01*
X6451684Y12031680D01*
X6456341Y12008269D01*
X6469602Y11988423D01*
X6489449Y11975161D01*
X6512860Y11970505D01*
X6536271Y11975161D01*
X6556117Y11988423D01*
X6569379Y12008269D01*
X6574035Y12031680D01*
X6569379Y12055091D01*
X6556117Y12074938D01*
X6536271Y12088199D01*
X6512860Y12092856D01*
D02*
G37*
G36*
X16786861Y12286195D02*
X16763449Y12281539D01*
X16743604Y12268277D01*
X16730341Y12248431D01*
X16725685Y12225020D01*
X16730341Y12201609D01*
X16743604Y12181763D01*
X16763449Y12168501D01*
X16786861Y12163845D01*
X16789778Y12164425D01*
X16822276Y12131927D01*
Y7339549D01*
X16812369Y7334253D01*
X16809576Y7334165D01*
X16799561Y7336157D01*
Y7277100D01*
Y7218043D01*
X16809576Y7220035D01*
X16812369Y7219947D01*
X16822276Y7214651D01*
Y6592953D01*
X16398618Y6169295D01*
X16395700Y6169875D01*
X16372289Y6165219D01*
X16352443Y6151957D01*
X16339182Y6132111D01*
X16334525Y6108700D01*
X16339182Y6085289D01*
X16352443Y6065443D01*
X16372289Y6052181D01*
X16395700Y6047525D01*
X16419112Y6052181D01*
X16438957Y6065443D01*
X16452219Y6085289D01*
X16456876Y6108700D01*
X16456294Y6111618D01*
X16891898Y6547222D01*
X16900739Y6560453D01*
X16903844Y6576060D01*
X16903844Y6576061D01*
Y11844572D01*
X16916544Y11845823D01*
X16919754Y11829682D01*
X16933015Y11809835D01*
X16952863Y11796574D01*
X16976273Y11791917D01*
X16999684Y11796574D01*
X17019530Y11809835D01*
X17032793Y11829682D01*
X17037448Y11853093D01*
X17032793Y11876504D01*
X17019530Y11896350D01*
X16999684Y11909612D01*
X16976273Y11914268D01*
X16952863Y11909612D01*
X16933015Y11896350D01*
X16919754Y11876504D01*
X16916544Y11860363D01*
X16903844Y11861614D01*
Y12148819D01*
X16903844Y12148820D01*
X16900739Y12164427D01*
X16891898Y12177658D01*
X16847455Y12222102D01*
X16848035Y12225020D01*
X16843379Y12248431D01*
X16830116Y12268277D01*
X16810271Y12281539D01*
X16786861Y12286195D01*
D02*
G37*
G36*
X17365858Y11704967D02*
X17342447Y11700311D01*
X17322601Y11687049D01*
X17309338Y11667203D01*
X17304683Y11643792D01*
X17309338Y11620381D01*
X17322601Y11600534D01*
X17342447Y11587273D01*
X17365858Y11582616D01*
X17389268Y11587273D01*
X17409116Y11600534D01*
X17422377Y11620381D01*
X17427032Y11643792D01*
X17422377Y11667203D01*
X17409116Y11687049D01*
X17389268Y11700311D01*
X17365858Y11704967D01*
D02*
G37*
G36*
X4052219Y11668975D02*
X4028809Y11664319D01*
X4008962Y11651057D01*
X3995701Y11631211D01*
X3991044Y11607800D01*
X3995701Y11584389D01*
X4008962Y11564543D01*
X4028809Y11551281D01*
X4052219Y11546625D01*
X4075630Y11551281D01*
X4095477Y11564543D01*
X4108738Y11584389D01*
X4113395Y11607800D01*
X4108738Y11631211D01*
X4095477Y11651057D01*
X4075630Y11664319D01*
X4052219Y11668975D01*
D02*
G37*
G36*
X2322383D02*
X2298972Y11664319D01*
X2279125Y11651057D01*
X2265864Y11631211D01*
X2261208Y11607800D01*
X2265864Y11584389D01*
X2279125Y11564543D01*
X2298972Y11551281D01*
X2322383Y11546625D01*
X2345794Y11551281D01*
X2365640Y11564543D01*
X2378902Y11584389D01*
X2383558Y11607800D01*
X2378902Y11631211D01*
X2365640Y11651057D01*
X2345794Y11664319D01*
X2322383Y11668975D01*
D02*
G37*
G36*
X20663812Y11575064D02*
X20640401Y11570407D01*
X20620554Y11557146D01*
X20607294Y11537300D01*
X20602637Y11513889D01*
X20607294Y11490478D01*
X20620554Y11470631D01*
X20640401Y11457370D01*
X20663812Y11452713D01*
X20687222Y11457370D01*
X20707069Y11470631D01*
X20720331Y11490478D01*
X20724986Y11513889D01*
X20720331Y11537300D01*
X20707069Y11557146D01*
X20687222Y11570407D01*
X20663812Y11575064D01*
D02*
G37*
G36*
X3872220Y11434036D02*
X3848809Y11429379D01*
X3828962Y11416118D01*
X3815701Y11396271D01*
X3811044Y11372860D01*
X3815701Y11349449D01*
X3828962Y11329603D01*
X3848809Y11316341D01*
X3872220Y11311685D01*
X3895631Y11316341D01*
X3915477Y11329603D01*
X3928739Y11349449D01*
X3933395Y11372860D01*
X3928739Y11396271D01*
X3915477Y11416118D01*
X3895631Y11429379D01*
X3872220Y11434036D01*
D02*
G37*
G36*
X15234920Y11285435D02*
X15211510Y11280779D01*
X15191663Y11267517D01*
X15178401Y11247671D01*
X15173746Y11224260D01*
X15178401Y11200849D01*
X15191663Y11181003D01*
X15211510Y11167741D01*
X15234920Y11163085D01*
X15258331Y11167741D01*
X15278177Y11181003D01*
X15291438Y11200849D01*
X15296095Y11224260D01*
X15291438Y11247671D01*
X15278177Y11267517D01*
X15258331Y11280779D01*
X15234920Y11285435D01*
D02*
G37*
G36*
X1499977Y11121879D02*
X1499970Y11121878D01*
X1499963Y11121879D01*
X1490260Y11119947D01*
X1480468Y11117999D01*
X1480462Y11117995D01*
X1480456Y11117994D01*
X1472257Y11112512D01*
X1463929Y11106948D01*
X1463925Y11106942D01*
X1463919Y11106938D01*
X1458350Y11098598D01*
X1452878Y11090409D01*
X1452876Y11090402D01*
X1452873Y11090397D01*
X1450925Y11080591D01*
X1448997Y11070900D01*
X1448998Y11070893D01*
X1448997Y11070887D01*
X1450930Y11061184D01*
X1452878Y11051391D01*
X1452882Y11051385D01*
X1452883Y11051379D01*
X1458364Y11043180D01*
X1463929Y11034852D01*
X1463934Y11034848D01*
X1463938Y11034843D01*
X1472278Y11029273D01*
X1480468Y11023801D01*
X1480474Y11023800D01*
X1480480Y11023796D01*
X1490286Y11021848D01*
X1499977Y11019920D01*
X1499983Y11019922D01*
X1499990Y11019920D01*
X1509693Y11021853D01*
X1519486Y11023801D01*
X1519491Y11023805D01*
X1519498Y11023806D01*
X1527696Y11029287D01*
X1536025Y11034852D01*
X1536028Y11034858D01*
X1536034Y11034861D01*
X1541604Y11043202D01*
X1547076Y11051391D01*
X1547077Y11051398D01*
X1547081Y11051403D01*
X1549029Y11061209D01*
X1550956Y11070900D01*
X1550955Y11070906D01*
X1550956Y11070913D01*
X1549024Y11080616D01*
X1547076Y11090409D01*
X1547072Y11090414D01*
X1547071Y11090421D01*
X1541589Y11098620D01*
X1536025Y11106948D01*
X1536019Y11106952D01*
X1536015Y11106957D01*
X1527675Y11112527D01*
X1519486Y11117999D01*
X1519479Y11118000D01*
X1519473Y11118004D01*
X1509668Y11119952D01*
X1499977Y11121879D01*
D02*
G37*
G36*
X21000476Y11168595D02*
X20977065Y11163939D01*
X20957219Y11150677D01*
X20943958Y11130831D01*
X20939301Y11107420D01*
X20943958Y11084009D01*
X20957219Y11064163D01*
X20977065Y11050901D01*
X21000476Y11046245D01*
X21023888Y11050901D01*
X21043735Y11064163D01*
X21056995Y11084009D01*
X21061652Y11107420D01*
X21056995Y11130831D01*
X21043735Y11150677D01*
X21023888Y11163939D01*
X21000476Y11168595D01*
D02*
G37*
G36*
X16365540Y11120335D02*
X16342130Y11115679D01*
X16322282Y11102417D01*
X16309021Y11082571D01*
X16304366Y11059160D01*
X16309021Y11035749D01*
X16322282Y11015903D01*
X16342130Y11002641D01*
X16365540Y10997985D01*
X16388951Y11002641D01*
X16408798Y11015903D01*
X16422060Y11035749D01*
X16426715Y11059160D01*
X16422060Y11082571D01*
X16408798Y11102417D01*
X16388951Y11115679D01*
X16365540Y11120335D01*
D02*
G37*
G36*
X20503024Y10966310D02*
X20502988Y10966302D01*
X20502951Y10966310D01*
X20493234Y10964377D01*
X20483510Y10962457D01*
X20483479Y10962436D01*
X20483443Y10962429D01*
X20475150Y10956887D01*
X20466956Y10951430D01*
X20466936Y10951399D01*
X20466904Y10951378D01*
X20461407Y10943152D01*
X20455881Y10934907D01*
X20455873Y10934870D01*
X20455852Y10934839D01*
X20453934Y10925189D01*
X20451971Y10915404D01*
X20451979Y10915367D01*
X20451971Y10915330D01*
X20453905Y10905613D01*
X20455824Y10895889D01*
X20455846Y10895858D01*
X20455852Y10895821D01*
X20461394Y10887528D01*
X20466850Y10879334D01*
X20466882Y10879314D01*
X20466904Y10879282D01*
X20475130Y10873785D01*
X20483374Y10868259D01*
X20483411Y10868252D01*
X20483443Y10868231D01*
X20493092Y10866312D01*
X20502876Y10864350D01*
X20502914Y10864358D01*
X20502951Y10864350D01*
X20512668Y10866283D01*
X20522392Y10868203D01*
X20522423Y10868224D01*
X20522459Y10868231D01*
X20530753Y10873773D01*
X20538947Y10879230D01*
X20538968Y10879261D01*
X20538998Y10879282D01*
X20544496Y10887508D01*
X20550021Y10895753D01*
X20550029Y10895790D01*
X20550050Y10895821D01*
X20551970Y10905471D01*
X20553931Y10915256D01*
X20553923Y10915293D01*
X20553931Y10915330D01*
X20551997Y10925046D01*
X20550078Y10934771D01*
X20550056Y10934802D01*
X20550050Y10934839D01*
X20544508Y10943132D01*
X20539050Y10951326D01*
X20539020Y10951346D01*
X20538998Y10951378D01*
X20530772Y10956874D01*
X20522528Y10962401D01*
X20522491Y10962408D01*
X20522459Y10962429D01*
X20512810Y10964348D01*
X20503024Y10966310D01*
D02*
G37*
G36*
X922020Y11046675D02*
X898609Y11042019D01*
X878763Y11028757D01*
X865501Y11008911D01*
X860845Y10985500D01*
X865501Y10962089D01*
X878763Y10942243D01*
X898609Y10928981D01*
X922020Y10924325D01*
X945431Y10928981D01*
X965277Y10942243D01*
X978539Y10962089D01*
X983195Y10985500D01*
X978539Y11008911D01*
X965277Y11028757D01*
X945431Y11042019D01*
X922020Y11046675D01*
D02*
G37*
G36*
X20911819Y11041595D02*
X20888409Y11036939D01*
X20868562Y11023677D01*
X20855301Y11003831D01*
X20850645Y10980420D01*
X20855301Y10957009D01*
X20868562Y10937163D01*
X20888409Y10923901D01*
X20911819Y10919245D01*
X20935231Y10923901D01*
X20955077Y10937163D01*
X20968340Y10957009D01*
X20972995Y10980420D01*
X20968340Y11003831D01*
X20955077Y11023677D01*
X20935231Y11036939D01*
X20911819Y11041595D01*
D02*
G37*
G36*
X5192542Y11020493D02*
X5169131Y11015836D01*
X5149285Y11002575D01*
X5136024Y10982729D01*
X5131367Y10959318D01*
X5136024Y10935907D01*
X5149285Y10916060D01*
X5169131Y10902799D01*
X5192542Y10898142D01*
X5215953Y10902799D01*
X5235800Y10916060D01*
X5249061Y10935907D01*
X5253718Y10959318D01*
X5249061Y10982729D01*
X5235800Y11002575D01*
X5215953Y11015836D01*
X5192542Y11020493D01*
D02*
G37*
G36*
X7781976Y10764413D02*
X7758565Y10759756D01*
X7738718Y10746495D01*
X7725457Y10726648D01*
X7720800Y10703237D01*
X7725457Y10679826D01*
X7738718Y10659980D01*
X7758565Y10646719D01*
X7781976Y10642062D01*
X7805387Y10646719D01*
X7825233Y10659980D01*
X7838495Y10679826D01*
X7843151Y10703237D01*
X7838495Y10726648D01*
X7825233Y10746495D01*
X7805387Y10759756D01*
X7781976Y10764413D01*
D02*
G37*
G36*
X16508919Y10662759D02*
X16485507Y10658103D01*
X16465660Y10644842D01*
X16452399Y10624995D01*
X16447743Y10601584D01*
X16452399Y10578173D01*
X16465660Y10558327D01*
X16485507Y10545065D01*
X16508919Y10540409D01*
X16532329Y10545065D01*
X16552174Y10558327D01*
X16565437Y10578173D01*
X16570093Y10601584D01*
X16565437Y10624995D01*
X16552174Y10644842D01*
X16532329Y10658103D01*
X16508919Y10662759D01*
D02*
G37*
G36*
X4246880Y10574657D02*
Y10528300D01*
X4293237D01*
X4291075Y10539167D01*
X4277726Y10559146D01*
X4257747Y10572495D01*
X4246880Y10574657D01*
D02*
G37*
G36*
X4221480D02*
X4210613Y10572495D01*
X4190634Y10559146D01*
X4177285Y10539167D01*
X4175123Y10528300D01*
X4221480D01*
Y10574657D01*
D02*
G37*
G36*
X6692900Y10635195D02*
X6669489Y10630539D01*
X6649643Y10617277D01*
X6636381Y10597431D01*
X6631725Y10574020D01*
X6636381Y10550609D01*
X6649643Y10530763D01*
X6669489Y10517501D01*
X6692900Y10512845D01*
X6716311Y10517501D01*
X6736157Y10530763D01*
X6749419Y10550609D01*
X6754075Y10574020D01*
X6749419Y10597431D01*
X6736157Y10617277D01*
X6716311Y10630539D01*
X6692900Y10635195D01*
D02*
G37*
G36*
X3870960D02*
X3847549Y10630539D01*
X3827703Y10617277D01*
X3814441Y10597431D01*
X3809785Y10574020D01*
X3814441Y10550609D01*
X3827703Y10530763D01*
X3847549Y10517501D01*
X3870960Y10512845D01*
X3894371Y10517501D01*
X3914217Y10530763D01*
X3927479Y10550609D01*
X3932135Y10574020D01*
X3927479Y10597431D01*
X3914217Y10617277D01*
X3894371Y10630539D01*
X3870960Y10635195D01*
D02*
G37*
G36*
X4293237Y10502900D02*
X4246880D01*
Y10456543D01*
X4257747Y10458705D01*
X4277726Y10472054D01*
X4291075Y10492033D01*
X4293237Y10502900D01*
D02*
G37*
G36*
X4221480D02*
X4175123D01*
X4177285Y10492033D01*
X4190634Y10472054D01*
X4210613Y10458705D01*
X4221480Y10456543D01*
Y10502900D01*
D02*
G37*
G36*
X16177260Y10437075D02*
X16153848Y10432419D01*
X16134003Y10419157D01*
X16120741Y10399311D01*
X16116084Y10375900D01*
X16120741Y10352489D01*
X16134003Y10332643D01*
X16153848Y10319381D01*
X16177260Y10314725D01*
X16200671Y10319381D01*
X16220517Y10332643D01*
X16233778Y10352489D01*
X16238435Y10375900D01*
X16233778Y10399311D01*
X16220517Y10419157D01*
X16200671Y10432419D01*
X16177260Y10437075D01*
D02*
G37*
G36*
X3738880Y10261815D02*
X3715469Y10257159D01*
X3695623Y10243897D01*
X3682361Y10224051D01*
X3677705Y10200640D01*
X3682361Y10177229D01*
X3695623Y10157383D01*
X3715469Y10144121D01*
X3738880Y10139465D01*
X3762291Y10144121D01*
X3782137Y10157383D01*
X3795399Y10177229D01*
X3800055Y10200640D01*
X3795399Y10224051D01*
X3782137Y10243897D01*
X3762291Y10257159D01*
X3738880Y10261815D01*
D02*
G37*
G36*
X15074899Y10043375D02*
X15051489Y10038719D01*
X15031644Y10025457D01*
X15018381Y10005611D01*
X15013725Y9982200D01*
X15014305Y9979282D01*
X14844177Y9809154D01*
X14835336Y9795923D01*
X14832233Y9780316D01*
X14832233Y9780314D01*
Y6908300D01*
X14829758Y6906647D01*
X14816496Y6886801D01*
X14811839Y6863390D01*
X14816496Y6839979D01*
X14829758Y6820132D01*
X14849605Y6806871D01*
X14873016Y6802214D01*
X14896426Y6806871D01*
X14916273Y6820132D01*
X14929535Y6839979D01*
X14934190Y6863390D01*
X14929535Y6886801D01*
X14916273Y6906647D01*
X14913799Y6908300D01*
Y9763422D01*
X15071982Y9921605D01*
X15074899Y9921025D01*
X15098311Y9925681D01*
X15118156Y9938943D01*
X15131419Y9958789D01*
X15136075Y9982200D01*
X15131419Y10005611D01*
X15118156Y10025457D01*
X15098311Y10038719D01*
X15074899Y10043375D01*
D02*
G37*
G36*
X3872220Y9306775D02*
X3848809Y9302119D01*
X3828962Y9288857D01*
X3815701Y9269011D01*
X3811044Y9245600D01*
X3815701Y9222189D01*
X3828962Y9202343D01*
X3848809Y9189081D01*
X3872220Y9184425D01*
X3895631Y9189081D01*
X3915477Y9202343D01*
X3928739Y9222189D01*
X3933395Y9245600D01*
X3928739Y9269011D01*
X3915477Y9288857D01*
X3895631Y9302119D01*
X3872220Y9306775D01*
D02*
G37*
G36*
X922020Y9283915D02*
X898609Y9279259D01*
X878763Y9265997D01*
X865501Y9246151D01*
X860845Y9222740D01*
X865501Y9199329D01*
X878763Y9179483D01*
X898609Y9166221D01*
X922020Y9161565D01*
X945431Y9166221D01*
X965277Y9179483D01*
X978539Y9199329D01*
X983195Y9222740D01*
X978539Y9246151D01*
X965277Y9265997D01*
X945431Y9279259D01*
X922020Y9283915D01*
D02*
G37*
G36*
X6512860Y9149595D02*
X6489449Y9144939D01*
X6469602Y9131677D01*
X6456341Y9111831D01*
X6451684Y9088420D01*
X6452265Y9085501D01*
X6280522Y8913758D01*
X6271681Y8900527D01*
X6268576Y8884920D01*
X6268576Y8884919D01*
Y7299151D01*
X6266103Y7297497D01*
X6252841Y7277651D01*
X6248185Y7254240D01*
X6252841Y7230829D01*
X6266103Y7210983D01*
X6285949Y7197721D01*
X6309360Y7193065D01*
X6332771Y7197721D01*
X6352617Y7210983D01*
X6365879Y7230829D01*
X6370535Y7254240D01*
X6365879Y7277651D01*
X6352617Y7297497D01*
X6350144Y7299151D01*
Y8868027D01*
X6509941Y9027825D01*
X6512860Y9027244D01*
X6536271Y9031901D01*
X6556117Y9045162D01*
X6569379Y9065009D01*
X6574035Y9088420D01*
X6569379Y9111831D01*
X6556117Y9131677D01*
X6536271Y9144939D01*
X6512860Y9149595D01*
D02*
G37*
G36*
X3872220Y8834335D02*
X3848809Y8829679D01*
X3828962Y8816417D01*
X3815701Y8796571D01*
X3811044Y8773160D01*
X3815701Y8749749D01*
X3828962Y8729903D01*
X3848809Y8716641D01*
X3872220Y8711985D01*
X3895631Y8716641D01*
X3915477Y8729903D01*
X3928739Y8749749D01*
X3933395Y8773160D01*
X3928739Y8796571D01*
X3915477Y8816417D01*
X3895631Y8829679D01*
X3872220Y8834335D01*
D02*
G37*
G36*
X6692859Y9060364D02*
X6677252Y9057260D01*
X6664021Y9048419D01*
X6655180Y9035188D01*
X6652076Y9019581D01*
Y8547895D01*
X6640343Y8543034D01*
X6487304Y8696073D01*
Y8728249D01*
X6489777Y8729903D01*
X6503039Y8749749D01*
X6507695Y8773160D01*
X6503039Y8796571D01*
X6489777Y8816417D01*
X6469931Y8829679D01*
X6446520Y8834335D01*
X6423109Y8829679D01*
X6403263Y8816417D01*
X6390001Y8796571D01*
X6385345Y8773160D01*
X6390001Y8749749D01*
X6403263Y8729903D01*
X6405736Y8728249D01*
Y8679181D01*
X6405736Y8679180D01*
X6408841Y8663573D01*
X6417682Y8650342D01*
X6664021Y8404002D01*
X6815829Y8252194D01*
X6813721Y8241594D01*
X6818377Y8218183D01*
X6831639Y8198336D01*
X6851485Y8185075D01*
X6874896Y8180418D01*
X6898307Y8185075D01*
X6918154Y8198336D01*
X6931415Y8218183D01*
X6936071Y8241594D01*
X6931415Y8265005D01*
X6918154Y8284851D01*
X6898307Y8298113D01*
X6882025Y8301351D01*
X6733643Y8449734D01*
Y9019581D01*
X6730538Y9035188D01*
X6721698Y9048419D01*
X6708467Y9057260D01*
X6692859Y9060364D01*
D02*
G37*
G36*
X14083707Y8534138D02*
X14081499Y8533699D01*
X14079262Y8533944D01*
X14071811Y8531772D01*
X14064197Y8530257D01*
X14062326Y8529007D01*
X14060165Y8528377D01*
X14054112Y8523519D01*
X14047658Y8519206D01*
X14046408Y8517335D01*
X14044653Y8515927D01*
X14040919Y8509122D01*
X14036607Y8502667D01*
X14036168Y8500460D01*
X14035086Y8498488D01*
X14034241Y8490773D01*
X14032726Y8483158D01*
X14033165Y8480951D01*
X14032919Y8478715D01*
X14035092Y8471263D01*
X14036607Y8463649D01*
X14037857Y8461778D01*
X14038486Y8459618D01*
X14043346Y8453565D01*
X14047658Y8447110D01*
X14049529Y8445860D01*
X14050937Y8444106D01*
X14057742Y8440372D01*
X14064197Y8436059D01*
X14066405Y8435620D01*
X14068376Y8434538D01*
X14076091Y8433693D01*
X14083707Y8432178D01*
X14085913Y8432617D01*
X14088148Y8432373D01*
X14095601Y8434544D01*
X14103215Y8436059D01*
X14105086Y8437309D01*
X14107245Y8437939D01*
X14113300Y8442797D01*
X14119754Y8447110D01*
X14121004Y8448981D01*
X14122758Y8450389D01*
X14126492Y8457194D01*
X14130804Y8463649D01*
X14131244Y8465856D01*
X14132326Y8467828D01*
X14133171Y8475543D01*
X14134685Y8483158D01*
X14134245Y8485365D01*
X14134491Y8487601D01*
X14132320Y8495053D01*
X14130804Y8502667D01*
X14129555Y8504538D01*
X14128925Y8506698D01*
X14124066Y8512752D01*
X14119754Y8519206D01*
X14117883Y8520456D01*
X14116475Y8522211D01*
X14109669Y8525944D01*
X14103215Y8530257D01*
X14101009Y8530696D01*
X14099036Y8531778D01*
X14091319Y8532623D01*
X14083707Y8534138D01*
D02*
G37*
G36*
X8007055Y8425517D02*
X7999441Y8424002D01*
X7991725Y8423157D01*
X7989753Y8422075D01*
X7987546Y8421636D01*
X7981092Y8417324D01*
X7974286Y8413590D01*
X7972878Y8411835D01*
X7971007Y8410585D01*
X7966695Y8404131D01*
X7961836Y8398077D01*
X7961206Y8395917D01*
X7959956Y8394046D01*
X7958442Y8386433D01*
X7956270Y8378981D01*
X7956515Y8376744D01*
X7956076Y8374537D01*
X7957590Y8366923D01*
X7958435Y8359208D01*
X7959517Y8357236D01*
X7959956Y8355029D01*
X7964269Y8348574D01*
X7968003Y8341768D01*
X7969757Y8340360D01*
X7971007Y8338490D01*
X7977462Y8334177D01*
X7983516Y8329318D01*
X7985676Y8328688D01*
X7987546Y8327439D01*
X7995160Y8325924D01*
X8002612Y8323752D01*
X8004848Y8323997D01*
X8007055Y8323558D01*
X8014670Y8325073D01*
X8022385Y8325918D01*
X8024357Y8327000D01*
X8026564Y8327439D01*
X8033019Y8331751D01*
X8039824Y8335485D01*
X8041233Y8337240D01*
X8043103Y8338490D01*
X8047416Y8344944D01*
X8052275Y8350998D01*
X8052904Y8353158D01*
X8054154Y8355029D01*
X8055669Y8362642D01*
X8057841Y8370094D01*
X8057596Y8372330D01*
X8058035Y8374537D01*
X8056520Y8382152D01*
X8055675Y8389867D01*
X8054593Y8391839D01*
X8054154Y8394046D01*
X8049841Y8400501D01*
X8046108Y8407307D01*
X8044353Y8408715D01*
X8043103Y8410585D01*
X8036649Y8414898D01*
X8030595Y8419757D01*
X8028435Y8420387D01*
X8026564Y8421636D01*
X8018950Y8423151D01*
X8011499Y8425323D01*
X8009262Y8425078D01*
X8007055Y8425517D01*
D02*
G37*
G36*
X7495540Y8432980D02*
X7472129Y8428323D01*
X7452283Y8415062D01*
X7439021Y8395215D01*
X7434365Y8371804D01*
X7439021Y8348394D01*
X7452283Y8328547D01*
X7472129Y8315286D01*
X7495540Y8310629D01*
X7518951Y8315286D01*
X7538797Y8328547D01*
X7552059Y8348394D01*
X7556715Y8371804D01*
X7552059Y8395215D01*
X7538797Y8415062D01*
X7518951Y8428323D01*
X7495540Y8432980D01*
D02*
G37*
G36*
X6692859Y8315276D02*
X6669448Y8310620D01*
X6649602Y8297358D01*
X6636341Y8277512D01*
X6631684Y8254101D01*
X6636341Y8230690D01*
X6649602Y8210843D01*
X6669448Y8197582D01*
X6692859Y8192925D01*
X6716270Y8197582D01*
X6736117Y8210843D01*
X6749378Y8230690D01*
X6754035Y8254101D01*
X6749378Y8277512D01*
X6736117Y8297358D01*
X6716270Y8310620D01*
X6692859Y8315276D01*
D02*
G37*
G36*
X5129042D02*
X5105631Y8310620D01*
X5085785Y8297358D01*
X5072524Y8277512D01*
X5067867Y8254101D01*
X5072524Y8230690D01*
X5085785Y8210843D01*
X5105631Y8197582D01*
X5129042Y8192925D01*
X5152453Y8197582D01*
X5172300Y8210843D01*
X5185561Y8230690D01*
X5190218Y8254101D01*
X5185561Y8277512D01*
X5172300Y8297358D01*
X5152453Y8310620D01*
X5129042Y8315276D01*
D02*
G37*
G36*
X8295787Y8309978D02*
X8272376Y8305321D01*
X8252530Y8292060D01*
X8239269Y8272213D01*
X8234612Y8248802D01*
X8235192Y8245884D01*
X8122382Y8133074D01*
X6761511D01*
X6759858Y8135548D01*
X6740012Y8148809D01*
X6716601Y8153466D01*
X6693190Y8148809D01*
X6673343Y8135548D01*
X6660082Y8115701D01*
X6655425Y8092290D01*
X6660082Y8068879D01*
X6673343Y8049033D01*
X6693190Y8035771D01*
X6716601Y8031115D01*
X6740012Y8035771D01*
X6759858Y8049033D01*
X6761511Y8051507D01*
X8139274D01*
X8139275Y8051506D01*
X8154882Y8054611D01*
X8168113Y8063452D01*
X8292869Y8188207D01*
X8295787Y8187627D01*
X8319198Y8192284D01*
X8339045Y8205545D01*
X8352306Y8225391D01*
X8356963Y8248802D01*
X8352306Y8272213D01*
X8339045Y8292060D01*
X8319198Y8305321D01*
X8295787Y8309978D01*
D02*
G37*
G36*
X11000000Y14038895D02*
X10829608Y14034116D01*
X10659752Y14019788D01*
X10490966Y13995959D01*
X10323782Y13962704D01*
X10158726Y13920126D01*
X9996317Y13868362D01*
X9837065Y13807573D01*
X9681473Y13737950D01*
X9530029Y13659714D01*
X9383210Y13573106D01*
X9241479Y13478404D01*
X9105280Y13375903D01*
X8975043Y13265929D01*
X8851177Y13148824D01*
X8734072Y13024957D01*
X8624096Y12894720D01*
X8521596Y12758522D01*
X8426894Y12616790D01*
X8340288Y12469971D01*
X8262050Y12318527D01*
X8192427Y12162935D01*
X8131638Y12003684D01*
X8079873Y11841274D01*
X8037296Y11676218D01*
X8004041Y11509034D01*
X7980213Y11340248D01*
X7965886Y11170392D01*
X7961105Y11000000D01*
X7965886Y10829608D01*
X7980213Y10659752D01*
X8004041Y10490966D01*
X8037296Y10323782D01*
X8079873Y10158726D01*
X8131638Y9996317D01*
X8192427Y9837065D01*
X8262050Y9681473D01*
X8340288Y9530029D01*
X8426894Y9383210D01*
X8521596Y9241479D01*
X8624096Y9105280D01*
X8734072Y8975043D01*
X8851177Y8851177D01*
X8975043Y8734072D01*
X9105280Y8624096D01*
X9241479Y8521596D01*
X9383210Y8426894D01*
X9530029Y8340288D01*
X9681473Y8262050D01*
X9837065Y8192427D01*
X9996317Y8131638D01*
X10158726Y8079873D01*
X10323782Y8037296D01*
X10490966Y8004041D01*
X10659752Y7980213D01*
X10829608Y7965886D01*
X11000000Y7961105D01*
X11170392Y7965886D01*
X11340248Y7980213D01*
X11509034Y8004041D01*
X11676218Y8037296D01*
X11841274Y8079873D01*
X12003684Y8131638D01*
X12162935Y8192427D01*
X12318527Y8262050D01*
X12469971Y8340288D01*
X12616790Y8426894D01*
X12758522Y8521596D01*
X12894720Y8624096D01*
X13024957Y8734072D01*
X13148824Y8851177D01*
X13265929Y8975043D01*
X13375903Y9105280D01*
X13478404Y9241479D01*
X13573106Y9383210D01*
X13659714Y9530029D01*
X13737950Y9681473D01*
X13807573Y9837065D01*
X13868362Y9996317D01*
X13920126Y10158726D01*
X13962704Y10323782D01*
X13995959Y10490966D01*
X14019788Y10659752D01*
X14034116Y10829608D01*
X14038895Y11000000D01*
X14034116Y11170392D01*
X14019788Y11340248D01*
X13995959Y11509034D01*
X13962704Y11676218D01*
X13920126Y11841274D01*
X13868362Y12003684D01*
X13807573Y12162935D01*
X13737950Y12318527D01*
X13659714Y12469971D01*
X13573106Y12616790D01*
X13478404Y12758522D01*
X13375903Y12894720D01*
X13265929Y13024957D01*
X13148824Y13148824D01*
X13024957Y13265929D01*
X12894720Y13375903D01*
X12758522Y13478404D01*
X12616790Y13573106D01*
X12469971Y13659714D01*
X12318527Y13737950D01*
X12162935Y13807573D01*
X12003684Y13868362D01*
X11841274Y13920126D01*
X11676218Y13962704D01*
X11509034Y13995959D01*
X11340248Y14019788D01*
X11170392Y14034116D01*
X11000000Y14038895D01*
D02*
G37*
G36*
X16635538Y13256474D02*
X16612126Y13251819D01*
X16592279Y13238557D01*
X16579018Y13218710D01*
X16574362Y13195300D01*
X16579018Y13171889D01*
X16592279Y13152043D01*
X16594753Y13150389D01*
Y7772590D01*
X16337659Y7515495D01*
X16334740Y7516075D01*
X16311330Y7511419D01*
X16291483Y7498157D01*
X16278221Y7478311D01*
X16273566Y7454900D01*
X16278221Y7431489D01*
X16291483Y7411643D01*
X16311330Y7398381D01*
X16334740Y7393725D01*
X16358151Y7398381D01*
X16377997Y7411643D01*
X16391258Y7431489D01*
X16395915Y7454900D01*
X16395335Y7457818D01*
X16664375Y7726858D01*
X16664375Y7726859D01*
X16673216Y7740090D01*
X16676320Y7755697D01*
Y13150389D01*
X16678793Y13152043D01*
X16692056Y13171889D01*
X16696712Y13195300D01*
X16692056Y13218710D01*
X16678793Y13238557D01*
X16658948Y13251819D01*
X16635538Y13256474D01*
D02*
G37*
G36*
X3872220Y7481796D02*
X3848809Y7477139D01*
X3828962Y7463878D01*
X3815701Y7444031D01*
X3811044Y7420620D01*
X3815701Y7397209D01*
X3828962Y7377363D01*
X3848809Y7364101D01*
X3872220Y7359445D01*
X3895631Y7364101D01*
X3915477Y7377363D01*
X3928739Y7397209D01*
X3933395Y7420620D01*
X3928739Y7444031D01*
X3915477Y7463878D01*
X3895631Y7477139D01*
X3872220Y7481796D01*
D02*
G37*
G36*
X16774159Y7336157D02*
X16763293Y7333995D01*
X16743314Y7320646D01*
X16729965Y7300667D01*
X16727803Y7289800D01*
X16774159D01*
Y7336157D01*
D02*
G37*
G36*
X15147491Y7362035D02*
X15124080Y7357378D01*
X15104233Y7344117D01*
X15090971Y7324270D01*
X15086314Y7300859D01*
X15090106Y7281798D01*
X15089954Y7281452D01*
X15081461Y7272512D01*
X15080128Y7271820D01*
X15061835Y7275459D01*
X15038423Y7270802D01*
X15018578Y7257541D01*
X15005315Y7237694D01*
X15000659Y7214283D01*
X15005315Y7190872D01*
X15018578Y7171026D01*
X15038423Y7157764D01*
X15061835Y7153108D01*
X15085245Y7157764D01*
X15094006Y7163619D01*
X15106706Y7156831D01*
Y6940598D01*
X14748396Y6582287D01*
X14698524D01*
X14696870Y6584761D01*
X14677023Y6598022D01*
X14653613Y6602679D01*
X14630202Y6598022D01*
X14610356Y6584761D01*
X14597095Y6564914D01*
X14592438Y6541503D01*
X14597095Y6518092D01*
X14610356Y6498246D01*
X14630202Y6484984D01*
X14653613Y6480328D01*
X14677023Y6484984D01*
X14696870Y6498246D01*
X14698524Y6500720D01*
X14765288D01*
X14765289Y6500720D01*
X14780898Y6503824D01*
X14794128Y6512665D01*
X15176328Y6894866D01*
X15176329Y6894866D01*
X15185170Y6908098D01*
X15188274Y6923705D01*
X15188274Y6923706D01*
Y7255949D01*
X15190749Y7257602D01*
X15204008Y7277448D01*
X15208665Y7300859D01*
X15204008Y7324270D01*
X15190749Y7344117D01*
X15170901Y7357378D01*
X15147491Y7362035D01*
D02*
G37*
G36*
X13856767Y7387602D02*
X13833356Y7382946D01*
X13813509Y7369684D01*
X13800249Y7349838D01*
X13795592Y7326427D01*
X13800249Y7303016D01*
X13813509Y7283169D01*
X13833356Y7269908D01*
X13856767Y7265251D01*
X13880177Y7269908D01*
X13900024Y7283169D01*
X13913286Y7303016D01*
X13917941Y7326427D01*
X13913286Y7349838D01*
X13900024Y7369684D01*
X13880177Y7382946D01*
X13856767Y7387602D01*
D02*
G37*
G36*
X16774159Y7264400D02*
X16727803D01*
X16729965Y7253533D01*
X16743314Y7233554D01*
X16763293Y7220205D01*
X16774159Y7218043D01*
Y7264400D01*
D02*
G37*
G36*
X17152605Y7176335D02*
Y7129978D01*
X17198962D01*
X17196800Y7140845D01*
X17183450Y7160824D01*
X17163472Y7174174D01*
X17152605Y7176335D01*
D02*
G37*
G36*
X17127205D02*
X17116338Y7174174D01*
X17096359Y7160824D01*
X17083009Y7140845D01*
X17080849Y7129978D01*
X17127205D01*
Y7176335D01*
D02*
G37*
G36*
X17198962Y7104578D02*
X17152605D01*
Y7058221D01*
X17163472Y7060383D01*
X17183450Y7073732D01*
X17196800Y7093711D01*
X17198962Y7104578D01*
D02*
G37*
G36*
X17127205D02*
X17080849D01*
X17083009Y7093711D01*
X17096359Y7073732D01*
X17116338Y7060383D01*
X17127205Y7058221D01*
Y7104578D01*
D02*
G37*
G36*
X5372542Y7155395D02*
X5349131Y7150739D01*
X5329284Y7137477D01*
X5316023Y7117631D01*
X5311367Y7094220D01*
X5316023Y7070809D01*
X5329284Y7050963D01*
X5349131Y7037701D01*
X5372542Y7033045D01*
X5395953Y7037701D01*
X5415799Y7050963D01*
X5429061Y7070809D01*
X5433717Y7094220D01*
X5429061Y7117631D01*
X5415799Y7137477D01*
X5395953Y7150739D01*
X5372542Y7155395D01*
D02*
G37*
G36*
X16002333Y7081469D02*
X15978922Y7076812D01*
X15959074Y7063551D01*
X15945815Y7043704D01*
X15941158Y7020293D01*
X15945815Y6996882D01*
X15959074Y6977036D01*
X15978922Y6963774D01*
X16002333Y6959118D01*
X16025745Y6963774D01*
X16045590Y6977036D01*
X16058852Y6996882D01*
X16063509Y7020293D01*
X16058852Y7043704D01*
X16045590Y7063551D01*
X16025745Y7076812D01*
X16002333Y7081469D01*
D02*
G37*
G36*
X4064919Y6990717D02*
Y6944360D01*
X4111277D01*
X4109115Y6955227D01*
X4095765Y6975206D01*
X4075786Y6988555D01*
X4064919Y6990717D01*
D02*
G37*
G36*
X4039519D02*
X4028653Y6988555D01*
X4008673Y6975206D01*
X3995324Y6955227D01*
X3993162Y6944360D01*
X4039519D01*
Y6990717D01*
D02*
G37*
G36*
X16568436Y6983112D02*
Y6936755D01*
X16614792D01*
X16612631Y6947622D01*
X16599281Y6967601D01*
X16579301Y6980951D01*
X16568436Y6983112D01*
D02*
G37*
G36*
X16543034D02*
X16532169Y6980951D01*
X16512189Y6967601D01*
X16498840Y6947622D01*
X16496678Y6936755D01*
X16543034D01*
Y6983112D01*
D02*
G37*
G36*
X4111277Y6918960D02*
X4064919D01*
Y6872603D01*
X4075786Y6874765D01*
X4095765Y6888114D01*
X4109115Y6908093D01*
X4111277Y6918960D01*
D02*
G37*
G36*
X4039519D02*
X3993162D01*
X3995324Y6908093D01*
X4008673Y6888114D01*
X4028653Y6874765D01*
X4039519Y6872603D01*
Y6918960D01*
D02*
G37*
G36*
X16614792Y6911355D02*
X16568436D01*
Y6864998D01*
X16579301Y6867160D01*
X16599281Y6880509D01*
X16612631Y6900488D01*
X16614792Y6911355D01*
D02*
G37*
G36*
X16543034D02*
X16496678D01*
X16498840Y6900488D01*
X16512189Y6880509D01*
X16532169Y6867160D01*
X16543034Y6864998D01*
Y6911355D01*
D02*
G37*
G36*
X14192047Y6943102D02*
X14168636Y6938446D01*
X14148788Y6925184D01*
X14135529Y6905338D01*
X14130872Y6881927D01*
X14135529Y6858516D01*
X14148788Y6838669D01*
X14168636Y6825408D01*
X14192047Y6820751D01*
X14215459Y6825408D01*
X14235304Y6838669D01*
X14248566Y6858516D01*
X14253223Y6881927D01*
X14248566Y6905338D01*
X14235304Y6925184D01*
X14215459Y6938446D01*
X14192047Y6943102D01*
D02*
G37*
G36*
X5394960Y6942035D02*
X5371549Y6937379D01*
X5351703Y6924117D01*
X5338441Y6904271D01*
X5333785Y6880860D01*
X5338441Y6857449D01*
X5351703Y6837603D01*
X5371549Y6824341D01*
X5394960Y6819685D01*
X5418371Y6824341D01*
X5438217Y6837603D01*
X5451479Y6857449D01*
X5456135Y6880860D01*
X5451479Y6904271D01*
X5438217Y6924117D01*
X5418371Y6937379D01*
X5394960Y6942035D01*
D02*
G37*
G36*
X15242540Y6919175D02*
X15219128Y6914519D01*
X15199283Y6901257D01*
X15186021Y6881411D01*
X15181364Y6858000D01*
X15186021Y6834589D01*
X15199283Y6814743D01*
X15219128Y6801481D01*
X15242540Y6796825D01*
X15265952Y6801481D01*
X15285797Y6814743D01*
X15299059Y6834589D01*
X15303716Y6858000D01*
X15299059Y6881411D01*
X15285797Y6901257D01*
X15265952Y6914519D01*
X15242540Y6919175D01*
D02*
G37*
G36*
X15940631Y6892274D02*
X15917220Y6887618D01*
X15897374Y6874356D01*
X15884113Y6854510D01*
X15879456Y6831099D01*
X15884113Y6807688D01*
X15897374Y6787841D01*
X15917220Y6774580D01*
X15940631Y6769923D01*
X15964043Y6774580D01*
X15983888Y6787841D01*
X15997150Y6807688D01*
X16001807Y6831099D01*
X15997150Y6854510D01*
X15983888Y6874356D01*
X15964043Y6887618D01*
X15940631Y6892274D01*
D02*
G37*
G36*
X2737211Y6362326D02*
X2733874Y6361662D01*
X2730479Y6361880D01*
X2724204Y6359739D01*
X2717702Y6358445D01*
X2714873Y6356555D01*
X2711654Y6355457D01*
X2706676Y6351078D01*
X2701163Y6347394D01*
X2699273Y6344566D01*
X2696719Y6342319D01*
X2693795Y6336368D01*
X2690112Y6330855D01*
X2689448Y6327519D01*
X2687948Y6324466D01*
X2687524Y6317849D01*
X2686231Y6311346D01*
X2686895Y6308010D01*
X2686677Y6304615D01*
X2688818Y6298340D01*
X2690112Y6291837D01*
X2692002Y6289009D01*
X2693100Y6285789D01*
X2697479Y6280811D01*
X2701163Y6275298D01*
X2703991Y6273409D01*
X2706238Y6270854D01*
X2712189Y6267931D01*
X2717702Y6264247D01*
X2721038Y6263584D01*
X2724091Y6262084D01*
X2730708Y6261660D01*
X2737211Y6260367D01*
X2740547Y6261030D01*
X2743942Y6260813D01*
X2750217Y6262954D01*
X2756720Y6264247D01*
X2759548Y6266137D01*
X2762768Y6267236D01*
X2767746Y6271615D01*
X2773259Y6275298D01*
X2775148Y6278127D01*
X2777703Y6280374D01*
X2780626Y6286324D01*
X2784310Y6291837D01*
X2784973Y6295174D01*
X2786473Y6298227D01*
X2786897Y6304844D01*
X2788190Y6311346D01*
X2787527Y6314683D01*
X2787744Y6318078D01*
X2785603Y6324353D01*
X2784310Y6330855D01*
X2782420Y6333684D01*
X2781321Y6336903D01*
X2776942Y6341881D01*
X2773259Y6347394D01*
X2770430Y6349284D01*
X2768183Y6351838D01*
X2762233Y6354761D01*
X2756720Y6358445D01*
X2753383Y6359109D01*
X2750330Y6360609D01*
X2743713Y6361032D01*
X2737211Y6362326D01*
D02*
G37*
G36*
X17785080Y6373075D02*
X17761668Y6368419D01*
X17741823Y6355157D01*
X17728561Y6335311D01*
X17723904Y6311900D01*
X17728561Y6288489D01*
X17741823Y6268643D01*
X17761668Y6255381D01*
X17785080Y6250725D01*
X17808492Y6255381D01*
X17828337Y6268643D01*
X17841599Y6288489D01*
X17846255Y6311900D01*
X17841599Y6335311D01*
X17828337Y6355157D01*
X17808492Y6368419D01*
X17785080Y6373075D01*
D02*
G37*
G36*
X3872220Y6327355D02*
X3848809Y6322699D01*
X3828962Y6309437D01*
X3815701Y6289591D01*
X3811044Y6266180D01*
X3815701Y6242769D01*
X3828962Y6222923D01*
X3848809Y6209661D01*
X3872220Y6205005D01*
X3895631Y6209661D01*
X3915477Y6222923D01*
X3928739Y6242769D01*
X3933395Y6266180D01*
X3928739Y6289591D01*
X3915477Y6309437D01*
X3895631Y6322699D01*
X3872220Y6327355D01*
D02*
G37*
G36*
X19191702Y6239629D02*
X19185199Y6238335D01*
X19178583Y6237912D01*
X19175529Y6236412D01*
X19172192Y6235748D01*
X19166681Y6232065D01*
X19160730Y6229142D01*
X19158482Y6226587D01*
X19155653Y6224697D01*
X19151970Y6219185D01*
X19147591Y6214207D01*
X19146494Y6210987D01*
X19144603Y6208158D01*
X19143309Y6201655D01*
X19141168Y6195381D01*
X19141386Y6191986D01*
X19140723Y6188649D01*
X19142015Y6182147D01*
X19142439Y6175530D01*
X19143939Y6172477D01*
X19144603Y6169140D01*
X19148285Y6163628D01*
X19151208Y6157677D01*
X19153764Y6155430D01*
X19155653Y6152601D01*
X19161166Y6148918D01*
X19166144Y6144539D01*
X19169363Y6143440D01*
X19172192Y6141550D01*
X19178696Y6140256D01*
X19184970Y6138116D01*
X19188364Y6138333D01*
X19191702Y6137669D01*
X19198204Y6138963D01*
X19204820Y6139386D01*
X19207874Y6140886D01*
X19211211Y6141550D01*
X19216722Y6145233D01*
X19222675Y6148156D01*
X19224921Y6150711D01*
X19227750Y6152601D01*
X19231433Y6158113D01*
X19235812Y6163091D01*
X19236909Y6166311D01*
X19238800Y6169140D01*
X19240094Y6175643D01*
X19242235Y6181917D01*
X19242017Y6185312D01*
X19242680Y6188649D01*
X19241388Y6195151D01*
X19240964Y6201768D01*
X19239464Y6204821D01*
X19238800Y6208158D01*
X19235118Y6213670D01*
X19232195Y6219621D01*
X19229639Y6221868D01*
X19227750Y6224697D01*
X19222237Y6228380D01*
X19217259Y6232759D01*
X19214040Y6233858D01*
X19211211Y6235748D01*
X19204707Y6237042D01*
X19198434Y6239182D01*
X19195039Y6238965D01*
X19191702Y6239629D01*
D02*
G37*
G36*
X17195799Y6202895D02*
X17172389Y6198239D01*
X17152544Y6184977D01*
X17139281Y6165131D01*
X17134625Y6141720D01*
X17139281Y6118309D01*
X17152544Y6098463D01*
X17172389Y6085201D01*
X17195799Y6080545D01*
X17219211Y6085201D01*
X17239056Y6098463D01*
X17252319Y6118309D01*
X17256975Y6141720D01*
X17252319Y6165131D01*
X17239056Y6184977D01*
X17219211Y6198239D01*
X17195799Y6202895D01*
D02*
G37*
G36*
X16672560Y6136855D02*
X16649149Y6132199D01*
X16629303Y6118937D01*
X16616042Y6099091D01*
X16611385Y6075680D01*
X16616042Y6052269D01*
X16629303Y6032423D01*
X16649149Y6019161D01*
X16672560Y6014505D01*
X16695972Y6019161D01*
X16715817Y6032423D01*
X16729079Y6052269D01*
X16733736Y6075680D01*
X16729079Y6099091D01*
X16715817Y6118937D01*
X16695972Y6132199D01*
X16672560Y6136855D01*
D02*
G37*
G36*
X15035126Y6133040D02*
X15011716Y6128384D01*
X14991869Y6115122D01*
X14978607Y6095276D01*
X14973952Y6071865D01*
X14978607Y6048454D01*
X14991869Y6028607D01*
X15011716Y6015346D01*
X15035126Y6010690D01*
X15058537Y6015346D01*
X15078384Y6028607D01*
X15091644Y6048454D01*
X15096301Y6071865D01*
X15091644Y6095276D01*
X15078384Y6115122D01*
X15058537Y6128384D01*
X15035126Y6133040D01*
D02*
G37*
G36*
X14648837Y6057018D02*
X14625427Y6052362D01*
X14605580Y6039100D01*
X14592319Y6019254D01*
X14587662Y5995843D01*
X14592319Y5972432D01*
X14605580Y5952585D01*
X14625427Y5939324D01*
X14648837Y5934667D01*
X14672249Y5939324D01*
X14692094Y5952585D01*
X14705357Y5972432D01*
X14710013Y5995843D01*
X14705357Y6019254D01*
X14692094Y6039100D01*
X14672249Y6052362D01*
X14648837Y6057018D01*
D02*
G37*
G36*
X17033240Y6032715D02*
X17009830Y6028059D01*
X16989983Y6014797D01*
X16976721Y5994951D01*
X16972066Y5971540D01*
X16976721Y5948129D01*
X16989983Y5928283D01*
X17009830Y5915021D01*
X17033240Y5910365D01*
X17056651Y5915021D01*
X17076497Y5928283D01*
X17089758Y5948129D01*
X17094415Y5971540D01*
X17089758Y5994951D01*
X17076497Y6014797D01*
X17056651Y6028059D01*
X17033240Y6032715D01*
D02*
G37*
G36*
X3872220Y5994636D02*
X3848809Y5989979D01*
X3828962Y5976718D01*
X3815701Y5956871D01*
X3811044Y5933460D01*
X3815701Y5910049D01*
X3828962Y5890203D01*
X3848809Y5876942D01*
X3872220Y5872285D01*
X3895631Y5876942D01*
X3915477Y5890203D01*
X3928739Y5910049D01*
X3933395Y5933460D01*
X3928739Y5956871D01*
X3915477Y5976718D01*
X3895631Y5989979D01*
X3872220Y5994636D01*
D02*
G37*
G36*
X6512860Y5994316D02*
X6489449Y5989659D01*
X6469602Y5976398D01*
X6456341Y5956551D01*
X6451684Y5933140D01*
X6456341Y5909729D01*
X6469602Y5889883D01*
X6489449Y5876621D01*
X6512860Y5871965D01*
X6536271Y5876621D01*
X6556117Y5889883D01*
X6569379Y5909729D01*
X6574035Y5933140D01*
X6569379Y5956551D01*
X6556117Y5976398D01*
X6536271Y5989659D01*
X6512860Y5994316D01*
D02*
G37*
G36*
X14151935Y5960000D02*
X14128523Y5955344D01*
X14108678Y5942082D01*
X14095416Y5922236D01*
X14090759Y5898825D01*
X14095416Y5875414D01*
X14108678Y5855567D01*
X14128523Y5842306D01*
X14151935Y5837649D01*
X14175346Y5842306D01*
X14195193Y5855567D01*
X14208453Y5875414D01*
X14213110Y5898825D01*
X14208453Y5922236D01*
X14195193Y5942082D01*
X14175346Y5955344D01*
X14151935Y5960000D01*
D02*
G37*
G36*
X17879060Y5750775D02*
X17855649Y5746119D01*
X17835803Y5732857D01*
X17822540Y5713011D01*
X17817885Y5689600D01*
X17822540Y5666189D01*
X17835803Y5646343D01*
X17855649Y5633081D01*
X17879060Y5628425D01*
X17902470Y5633081D01*
X17922318Y5646343D01*
X17935579Y5666189D01*
X17940234Y5689600D01*
X17935579Y5713011D01*
X17922318Y5732857D01*
X17902470Y5746119D01*
X17879060Y5750775D01*
D02*
G37*
G36*
X14824197Y5650928D02*
X14800786Y5646271D01*
X14780939Y5633010D01*
X14767677Y5613164D01*
X14763022Y5589753D01*
X14767677Y5566342D01*
X14780939Y5546495D01*
X14800786Y5533234D01*
X14824197Y5528577D01*
X14847607Y5533234D01*
X14867455Y5546495D01*
X14880716Y5566342D01*
X14885371Y5589753D01*
X14880716Y5613164D01*
X14867455Y5633010D01*
X14847607Y5646271D01*
X14824197Y5650928D01*
D02*
G37*
G36*
X15170407Y5468434D02*
X15146996Y5463777D01*
X15127148Y5450516D01*
X15113889Y5430670D01*
X15109473Y5408468D01*
X13668626Y3967624D01*
X11728516D01*
X11712909Y3964519D01*
X11699678Y3955678D01*
X11699677Y3955678D01*
X11359322Y3615322D01*
X11349674Y3619319D01*
X11323569Y3622756D01*
X11297464Y3619319D01*
X11273138Y3609242D01*
X11252248Y3593214D01*
X11236219Y3572324D01*
X11226143Y3547998D01*
X11222706Y3521893D01*
X11226143Y3495788D01*
X11236219Y3471462D01*
X11252248Y3450572D01*
X11273138Y3434543D01*
X11297464Y3424467D01*
X11323569Y3421030D01*
X11349674Y3424467D01*
X11374000Y3434543D01*
X11394890Y3450572D01*
X11410919Y3471462D01*
X11420995Y3495788D01*
X11424432Y3521893D01*
X11420995Y3547998D01*
X11416999Y3557646D01*
X11745409Y3886056D01*
X13685519D01*
X13685519Y3886056D01*
X13701128Y3889161D01*
X13714359Y3898002D01*
X15163762Y5347405D01*
X15170407Y5346083D01*
X15193817Y5350740D01*
X15213664Y5364001D01*
X15226926Y5383848D01*
X15231583Y5407259D01*
X15226926Y5430670D01*
X15213664Y5450516D01*
X15193817Y5463777D01*
X15170407Y5468434D01*
D02*
G37*
G36*
X5859780Y5428195D02*
X5836369Y5423539D01*
X5816523Y5410277D01*
X5803261Y5390431D01*
X5798605Y5367020D01*
X5803261Y5343609D01*
X5816523Y5323763D01*
X5836369Y5310501D01*
X5859780Y5305845D01*
X5883191Y5310501D01*
X5903037Y5323763D01*
X5916299Y5343609D01*
X5920955Y5367020D01*
X5916299Y5390431D01*
X5903037Y5410277D01*
X5883191Y5423539D01*
X5859780Y5428195D01*
D02*
G37*
G36*
X17365858Y11041595D02*
X17342447Y11036939D01*
X17322601Y11023677D01*
X17309338Y11003831D01*
X17304683Y10980420D01*
X17309338Y10957009D01*
X17322601Y10937163D01*
X17325250Y10935391D01*
X17347726Y5226240D01*
X17345430Y5224705D01*
X17332169Y5204859D01*
X17327512Y5181448D01*
X17332169Y5158037D01*
X17345430Y5138190D01*
X17365277Y5124929D01*
X17388689Y5120272D01*
X17412099Y5124929D01*
X17431944Y5138190D01*
X17445206Y5158037D01*
X17449863Y5181448D01*
X17445206Y5204859D01*
X17431944Y5224705D01*
X17429294Y5226476D01*
X17406818Y10935628D01*
X17409116Y10937163D01*
X17422377Y10957009D01*
X17427032Y10980420D01*
X17422377Y11003831D01*
X17409116Y11023677D01*
X17389268Y11036939D01*
X17365858Y11041595D01*
D02*
G37*
G36*
X15110460Y4986235D02*
X15087048Y4981579D01*
X15067203Y4968317D01*
X15053941Y4948471D01*
X15049284Y4925060D01*
X15053941Y4901649D01*
X15067203Y4881803D01*
X15087048Y4868541D01*
X15110460Y4863885D01*
X15133871Y4868541D01*
X15153717Y4881803D01*
X15166978Y4901649D01*
X15171635Y4925060D01*
X15166978Y4948471D01*
X15153717Y4968317D01*
X15133871Y4981579D01*
X15110460Y4986235D01*
D02*
G37*
G36*
X5778500Y4970995D02*
X5755089Y4966339D01*
X5735243Y4953077D01*
X5721981Y4933231D01*
X5717325Y4909820D01*
X5721981Y4886409D01*
X5735243Y4866563D01*
X5755089Y4853301D01*
X5778500Y4848645D01*
X5801911Y4853301D01*
X5821757Y4866563D01*
X5835019Y4886409D01*
X5839675Y4909820D01*
X5835019Y4933231D01*
X5821757Y4953077D01*
X5801911Y4966339D01*
X5778500Y4970995D01*
D02*
G37*
G36*
X4169923Y4952022D02*
X4146512Y4947365D01*
X4126666Y4934104D01*
X4113404Y4914257D01*
X4108748Y4890846D01*
X4113404Y4867435D01*
X4126666Y4847589D01*
X4146512Y4834327D01*
X4169923Y4829671D01*
X4193334Y4834327D01*
X4213181Y4847589D01*
X4226442Y4867435D01*
X4231098Y4890846D01*
X4226442Y4914257D01*
X4213181Y4934104D01*
X4193334Y4947365D01*
X4169923Y4952022D01*
D02*
G37*
G36*
X5196035Y4836411D02*
X5172624Y4831754D01*
X5152777Y4818493D01*
X5139516Y4798646D01*
X5134859Y4775236D01*
X5139516Y4751825D01*
X5152777Y4731978D01*
X5172624Y4718717D01*
X5196035Y4714060D01*
X5219446Y4718717D01*
X5239292Y4731978D01*
X5252554Y4751825D01*
X5257210Y4775236D01*
X5252554Y4798646D01*
X5239292Y4818493D01*
X5219446Y4831754D01*
X5196035Y4836411D01*
D02*
G37*
G36*
X5372542Y4834318D02*
X5349131Y4829661D01*
X5329284Y4816400D01*
X5316023Y4796554D01*
X5311367Y4773143D01*
X5316023Y4749732D01*
X5329284Y4729885D01*
X5349131Y4716624D01*
X5372542Y4711967D01*
X5395953Y4716624D01*
X5415799Y4729885D01*
X5429061Y4749732D01*
X5433717Y4773143D01*
X5429061Y4796554D01*
X5415799Y4816400D01*
X5395953Y4829661D01*
X5372542Y4834318D01*
D02*
G37*
G36*
X6512860Y4770818D02*
X6489449Y4766161D01*
X6469602Y4752900D01*
X6456341Y4733054D01*
X6451684Y4709643D01*
X6456341Y4686232D01*
X6469602Y4666385D01*
X6489449Y4653124D01*
X6512860Y4648467D01*
X6536271Y4653124D01*
X6556117Y4666385D01*
X6569379Y4686232D01*
X6574035Y4709643D01*
X6569379Y4733054D01*
X6556117Y4752900D01*
X6536271Y4766161D01*
X6512860Y4770818D01*
D02*
G37*
G36*
X8941242Y4673815D02*
X8917831Y4669159D01*
X8897984Y4655897D01*
X8884723Y4636051D01*
X8880067Y4612640D01*
X8884723Y4589229D01*
X8897984Y4569383D01*
X8917831Y4556121D01*
X8941242Y4551465D01*
X8964653Y4556121D01*
X8984499Y4569383D01*
X8997761Y4589229D01*
X9002417Y4612640D01*
X8997761Y4636051D01*
X8984499Y4655897D01*
X8964653Y4669159D01*
X8941242Y4673815D01*
D02*
G37*
G36*
X6692859D02*
X6669448Y4669159D01*
X6649602Y4655897D01*
X6636341Y4636051D01*
X6631684Y4612640D01*
X6636341Y4589229D01*
X6649602Y4569383D01*
X6669448Y4556121D01*
X6692859Y4551465D01*
X6716270Y4556121D01*
X6736117Y4569383D01*
X6749378Y4589229D01*
X6754035Y4612640D01*
X6749378Y4636051D01*
X6736117Y4655897D01*
X6716270Y4669159D01*
X6692859Y4673815D01*
D02*
G37*
G36*
X12606269Y4590274D02*
Y4503379D01*
X12693163D01*
X12691385Y4516889D01*
X12681268Y4541312D01*
X12665175Y4562286D01*
X12644202Y4578378D01*
X12619779Y4588495D01*
X12606269Y4590274D01*
D02*
G37*
G36*
X12580869D02*
X12567359Y4588495D01*
X12542936Y4578378D01*
X12521963Y4562286D01*
X12505870Y4541312D01*
X12495753Y4516889D01*
X12493975Y4503379D01*
X12580869D01*
Y4590274D01*
D02*
G37*
G36*
X4074160Y4589995D02*
X4050749Y4585339D01*
X4030903Y4572077D01*
X4017641Y4552231D01*
X4012985Y4528820D01*
X4017641Y4505409D01*
X4030903Y4485563D01*
X4050749Y4472301D01*
X4074160Y4467645D01*
X4097571Y4472301D01*
X4117417Y4485563D01*
X4130679Y4505409D01*
X4135335Y4528820D01*
X4130679Y4552231D01*
X4117417Y4572077D01*
X4097571Y4585339D01*
X4074160Y4589995D01*
D02*
G37*
G36*
X12693163Y4477979D02*
X12606269D01*
Y4391085D01*
X12619779Y4392864D01*
X12644202Y4402980D01*
X12665175Y4419073D01*
X12681268Y4440046D01*
X12691385Y4464470D01*
X12693163Y4477979D01*
D02*
G37*
G36*
X12580869D02*
X12493975D01*
X12495753Y4464470D01*
X12505870Y4440046D01*
X12521963Y4419073D01*
X12542936Y4402980D01*
X12567359Y4392864D01*
X12580869Y4391085D01*
Y4477979D01*
D02*
G37*
G36*
X12439569Y4590679D02*
X12239569D01*
Y4390680D01*
X12439569D01*
Y4590679D01*
D02*
G37*
G36*
X13812228Y4427933D02*
X13788817Y4423277D01*
X13768970Y4410015D01*
X13755708Y4390169D01*
X13751053Y4366758D01*
X13755708Y4343347D01*
X13768970Y4323500D01*
X13788817Y4310239D01*
X13812228Y4305582D01*
X13835638Y4310239D01*
X13855486Y4323500D01*
X13868747Y4343347D01*
X13873402Y4366758D01*
X13868747Y4390169D01*
X13855486Y4410015D01*
X13835638Y4423277D01*
X13812228Y4427933D01*
D02*
G37*
G36*
X14210475Y4272010D02*
X14187064Y4267354D01*
X14167216Y4254092D01*
X14153957Y4234246D01*
X14149300Y4210835D01*
X14153957Y4187424D01*
X14167216Y4167577D01*
X14187064Y4154316D01*
X14210475Y4149659D01*
X14233885Y4154316D01*
X14253732Y4167577D01*
X14266994Y4187424D01*
X14271651Y4210835D01*
X14266994Y4234246D01*
X14253732Y4254092D01*
X14233885Y4267354D01*
X14210475Y4272010D01*
D02*
G37*
G36*
X8941242Y4137875D02*
X8917831Y4133219D01*
X8897984Y4119957D01*
X8884723Y4100111D01*
X8880067Y4076700D01*
X8884723Y4053289D01*
X8897984Y4033443D01*
X8917831Y4020181D01*
X8941242Y4015525D01*
X8964653Y4020181D01*
X8984499Y4033443D01*
X8997761Y4053289D01*
X9002417Y4076700D01*
X8997761Y4100111D01*
X8984499Y4119957D01*
X8964653Y4133219D01*
X8941242Y4137875D01*
D02*
G37*
G36*
X16570959Y3660355D02*
X16547549Y3655699D01*
X16527702Y3642437D01*
X16514441Y3622591D01*
X16509785Y3599180D01*
X16514441Y3575769D01*
X16527702Y3555923D01*
X16547549Y3542661D01*
X16570959Y3538005D01*
X16594371Y3542661D01*
X16614217Y3555923D01*
X16627480Y3575769D01*
X16632135Y3599180D01*
X16627480Y3622591D01*
X16614217Y3642437D01*
X16594371Y3655699D01*
X16570959Y3660355D01*
D02*
G37*
G36*
X12352269Y3621487D02*
Y3534593D01*
X12439163D01*
X12437385Y3548103D01*
X12427268Y3572526D01*
X12411175Y3593499D01*
X12390202Y3609592D01*
X12365779Y3619709D01*
X12352269Y3621487D01*
D02*
G37*
G36*
X11590269D02*
Y3534593D01*
X11677163D01*
X11675385Y3548103D01*
X11665268Y3572526D01*
X11649175Y3593499D01*
X11628202Y3609592D01*
X11603779Y3619709D01*
X11590269Y3621487D01*
D02*
G37*
G36*
X12326869D02*
X12313359Y3619709D01*
X12288936Y3609592D01*
X12267963Y3593499D01*
X12251870Y3572526D01*
X12241753Y3548103D01*
X12239975Y3534593D01*
X12326869D01*
Y3621487D01*
D02*
G37*
G36*
X11564869D02*
X11551359Y3619709D01*
X11526936Y3609592D01*
X11505963Y3593499D01*
X11489870Y3572526D01*
X11479753Y3548103D01*
X11477975Y3534593D01*
X11564869D01*
Y3621487D01*
D02*
G37*
G36*
X10795000Y3546055D02*
X10771589Y3541399D01*
X10751743Y3528137D01*
X10738481Y3508291D01*
X10733825Y3484880D01*
X10738481Y3461469D01*
X10751743Y3441623D01*
X10771589Y3428361D01*
X10795000Y3423705D01*
X10818411Y3428361D01*
X10838257Y3441623D01*
X10851519Y3461469D01*
X10856175Y3484880D01*
X10851519Y3508291D01*
X10838257Y3528137D01*
X10818411Y3541399D01*
X10795000Y3546055D01*
D02*
G37*
G36*
X12439163Y3509193D02*
X12352269D01*
Y3422299D01*
X12365779Y3424077D01*
X12390202Y3434194D01*
X12411175Y3450287D01*
X12427268Y3471260D01*
X12437385Y3495683D01*
X12439163Y3509193D01*
D02*
G37*
G36*
X11677163D02*
X11590269D01*
Y3422299D01*
X11603779Y3424077D01*
X11628202Y3434194D01*
X11649175Y3450287D01*
X11665268Y3471260D01*
X11675385Y3495683D01*
X11677163Y3509193D01*
D02*
G37*
G36*
X12326869D02*
X12239975D01*
X12241753Y3495683D01*
X12251870Y3471260D01*
X12267963Y3450287D01*
X12288936Y3434194D01*
X12313359Y3424077D01*
X12326869Y3422299D01*
Y3509193D01*
D02*
G37*
G36*
X11564869D02*
X11477975D01*
X11479753Y3495683D01*
X11489870Y3471260D01*
X11505963Y3450287D01*
X11526936Y3434194D01*
X11551359Y3424077D01*
X11564869Y3422299D01*
Y3509193D01*
D02*
G37*
G36*
X12693569Y3621893D02*
X12493569D01*
Y3421893D01*
X12693569D01*
Y3621893D01*
D02*
G37*
G36*
X12085569Y3622756D02*
X12059464Y3619319D01*
X12035138Y3609242D01*
X12014248Y3593214D01*
X11998219Y3572324D01*
X11988143Y3547998D01*
X11984706Y3521893D01*
X11988143Y3495788D01*
X11998219Y3471462D01*
X12014248Y3450572D01*
X12035138Y3434543D01*
X12059464Y3424467D01*
X12085569Y3421030D01*
X12111674Y3424467D01*
X12136000Y3434543D01*
X12156890Y3450572D01*
X12172919Y3471462D01*
X12182995Y3495788D01*
X12186432Y3521893D01*
X12182995Y3547998D01*
X12172919Y3572324D01*
X12156890Y3593214D01*
X12136000Y3609242D01*
X12111674Y3619319D01*
X12085569Y3622756D01*
D02*
G37*
G36*
X11831569D02*
X11805464Y3619319D01*
X11781138Y3609242D01*
X11760248Y3593214D01*
X11744219Y3572324D01*
X11734143Y3547998D01*
X11730706Y3521893D01*
X11734143Y3495788D01*
X11744219Y3471462D01*
X11760248Y3450572D01*
X11781138Y3434543D01*
X11805464Y3424467D01*
X11831569Y3421030D01*
X11857674Y3424467D01*
X11882000Y3434543D01*
X11902890Y3450572D01*
X11918919Y3471462D01*
X11928995Y3495788D01*
X11932432Y3521893D01*
X11928995Y3547998D01*
X11918919Y3572324D01*
X11902890Y3593214D01*
X11882000Y3609242D01*
X11857674Y3619319D01*
X11831569Y3622756D01*
D02*
G37*
G36*
X11069569D02*
X11043464Y3619319D01*
X11019138Y3609242D01*
X10998248Y3593214D01*
X10982219Y3572324D01*
X10972143Y3547998D01*
X10968706Y3521893D01*
X10972143Y3495788D01*
X10982219Y3471462D01*
X10998248Y3450572D01*
X11019138Y3434543D01*
X11043464Y3424467D01*
X11069569Y3421030D01*
X11095674Y3424467D01*
X11120000Y3434543D01*
X11140890Y3450572D01*
X11156919Y3471462D01*
X11166995Y3495788D01*
X11170432Y3521893D01*
X11166995Y3547998D01*
X11156919Y3572324D01*
X11140890Y3593214D01*
X11120000Y3609242D01*
X11095674Y3619319D01*
X11069569Y3622756D01*
D02*
G37*
G36*
X5969000Y3173097D02*
Y3126740D01*
X6015357D01*
X6013195Y3137607D01*
X5999846Y3157586D01*
X5979867Y3170935D01*
X5969000Y3173097D01*
D02*
G37*
G36*
X5943600D02*
X5932733Y3170935D01*
X5912754Y3157586D01*
X5899405Y3137607D01*
X5897243Y3126740D01*
X5943600D01*
Y3173097D01*
D02*
G37*
G36*
X6015357Y3101340D02*
X5969000D01*
Y3054983D01*
X5979867Y3057145D01*
X5999846Y3070494D01*
X6013195Y3090473D01*
X6015357Y3101340D01*
D02*
G37*
G36*
X5943600D02*
X5897243D01*
X5899405Y3090473D01*
X5912754Y3070494D01*
X5932733Y3057145D01*
X5943600Y3054983D01*
Y3101340D01*
D02*
G37*
G36*
X15688544Y2788378D02*
X15685284Y2787730D01*
X15681969Y2787952D01*
X15675613Y2785806D01*
X15669035Y2784498D01*
X15666272Y2782652D01*
X15663123Y2781588D01*
X15658073Y2777173D01*
X15652496Y2773447D01*
X15650648Y2770683D01*
X15648148Y2768496D01*
X15645172Y2762485D01*
X15641444Y2756908D01*
X15640796Y2753648D01*
X15639322Y2750670D01*
X15638873Y2743979D01*
X15637564Y2737399D01*
X15638213Y2734139D01*
X15637990Y2730823D01*
X15640137Y2724469D01*
X15641444Y2717890D01*
X15643291Y2715127D01*
X15644354Y2711978D01*
X15648770Y2706928D01*
X15652496Y2701351D01*
X15655260Y2699504D01*
X15657446Y2697002D01*
X15663457Y2694027D01*
X15669035Y2690300D01*
X15672295Y2689651D01*
X15675272Y2688177D01*
X15681964Y2687728D01*
X15688544Y2686419D01*
X15691805Y2687068D01*
X15695119Y2686845D01*
X15701474Y2688991D01*
X15708054Y2690300D01*
X15710815Y2692146D01*
X15713965Y2693209D01*
X15719016Y2697625D01*
X15724593Y2701351D01*
X15726437Y2704114D01*
X15728940Y2706301D01*
X15731915Y2712312D01*
X15735643Y2717890D01*
X15736292Y2721150D01*
X15737766Y2724127D01*
X15738214Y2730819D01*
X15739523Y2737399D01*
X15738875Y2740659D01*
X15739098Y2743974D01*
X15736951Y2750329D01*
X15735643Y2756908D01*
X15733797Y2759671D01*
X15732733Y2762819D01*
X15728317Y2767870D01*
X15724593Y2773447D01*
X15721828Y2775293D01*
X15719641Y2777795D01*
X15713631Y2780771D01*
X15708054Y2784498D01*
X15704793Y2785146D01*
X15701814Y2786620D01*
X15695123Y2787069D01*
X15688544Y2788378D01*
D02*
G37*
G36*
X15808788Y2640492D02*
X15785376Y2635835D01*
X15765530Y2622574D01*
X15752267Y2602728D01*
X15747612Y2579317D01*
X15752267Y2555906D01*
X15765530Y2536059D01*
X15785376Y2522798D01*
X15808788Y2518141D01*
X15832198Y2522798D01*
X15852045Y2536059D01*
X15865306Y2555906D01*
X15869963Y2579317D01*
X15865306Y2602728D01*
X15852045Y2622574D01*
X15832198Y2635835D01*
X15808788Y2640492D01*
D02*
G37*
G36*
X7693660Y2535135D02*
X7670249Y2530479D01*
X7650403Y2517217D01*
X7637141Y2497371D01*
X7632485Y2473960D01*
X7637141Y2450549D01*
X7650403Y2430703D01*
X7670249Y2417441D01*
X7693660Y2412785D01*
X7717071Y2417441D01*
X7736917Y2430703D01*
X7750179Y2450549D01*
X7754835Y2473960D01*
X7750179Y2497371D01*
X7736917Y2517217D01*
X7717071Y2530479D01*
X7693660Y2535135D01*
D02*
G37*
G36*
X9449242Y2485844D02*
X9425831Y2481188D01*
X9405984Y2467926D01*
X9392723Y2448080D01*
X9388067Y2424669D01*
X9392723Y2401258D01*
X9405984Y2381411D01*
X9425831Y2368150D01*
X9449242Y2363493D01*
X9472653Y2368150D01*
X9492499Y2381411D01*
X9505761Y2401258D01*
X9510417Y2424669D01*
X9505761Y2448080D01*
X9492499Y2467926D01*
X9472653Y2481188D01*
X9449242Y2485844D01*
D02*
G37*
G36*
X10929103Y1550977D02*
X10929103Y1550976D01*
X10929102Y1550977D01*
X10909594Y1547096D01*
X10909594Y1547096D01*
X10909593Y1547096D01*
X10899635Y1540442D01*
X10893055Y1536046D01*
X10893054Y1536045D01*
X10893054Y1536045D01*
X10888658Y1529467D01*
X10882003Y1519508D01*
X10882003Y1519506D01*
X10882003Y1519506D01*
X10878122Y1499999D01*
X10878123Y1499998D01*
X10878122Y1499997D01*
X10882002Y1480490D01*
X10882003Y1480489D01*
X10882003Y1480488D01*
X10888657Y1470530D01*
X10893053Y1463950D01*
X10893053Y1463950D01*
X10893054Y1463949D01*
X10899632Y1459554D01*
X10909591Y1452899D01*
X10909592Y1452898D01*
X10909593Y1452898D01*
X10929100Y1449017D01*
X10929101Y1449018D01*
X10929102Y1449017D01*
X10948609Y1452898D01*
X10948610Y1452898D01*
X10948611Y1452898D01*
X10958569Y1459552D01*
X10965149Y1463948D01*
X10965149Y1463949D01*
X10965150Y1463949D01*
X10969545Y1470527D01*
X10976200Y1480486D01*
X10976201Y1480488D01*
X10976201Y1480488D01*
X10980081Y1499995D01*
X10980081Y1499996D01*
X10980081Y1499997D01*
X10976201Y1519504D01*
X10976201Y1519505D01*
X10976201Y1519506D01*
X10969547Y1529464D01*
X10965151Y1536044D01*
X10965150Y1536044D01*
X10965150Y1536045D01*
X10958571Y1540440D01*
X10948612Y1547095D01*
X10948611Y1547096D01*
X10948611Y1547096D01*
X10940745Y1548661D01*
X10929103Y1550977D01*
D02*
G37*
G36*
X10534284Y1408422D02*
X10510873Y1403765D01*
X10491027Y1390504D01*
X10477765Y1370657D01*
X10473109Y1347246D01*
X10477765Y1323836D01*
X10491027Y1303989D01*
X10510873Y1290728D01*
X10534284Y1286071D01*
X10557695Y1290728D01*
X10577542Y1303989D01*
X10590803Y1323836D01*
X10595460Y1347246D01*
X10590803Y1370657D01*
X10577542Y1390504D01*
X10557695Y1403765D01*
X10534284Y1408422D01*
D02*
G37*
%LPD*%
G36*
X11578374Y19132310D02*
X11578375Y19132309D01*
X11591606Y19123470D01*
X11607213Y19120364D01*
X11607215Y19120364D01*
X11813285D01*
X11814938Y19117889D01*
X11834785Y19104630D01*
X11858196Y19099973D01*
X11881607Y19104630D01*
X11901453Y19117889D01*
X11907376Y19126755D01*
X11920076Y19122902D01*
Y18706291D01*
X11917603Y18704637D01*
X11905414Y18686397D01*
X11892586Y18681265D01*
X10897200Y19676649D01*
X10883969Y19685490D01*
X10868362Y19688596D01*
X10868361Y19688596D01*
X9328083D01*
X9328081Y19688596D01*
X9312474Y19685490D01*
X9299243Y19676649D01*
X9299243Y19676649D01*
X9140316Y19517723D01*
X9127616Y19522984D01*
Y19551733D01*
X9313390Y19737508D01*
X10973176D01*
X11578374Y19132310D01*
D02*
G37*
G36*
X17523315Y12935909D02*
Y11994634D01*
X17511583Y11989774D01*
X16825104Y12676253D01*
Y13617526D01*
X16836836Y13622388D01*
X17523315Y12935909D01*
D02*
G37*
%LPC*%
G36*
X17365863Y12435293D02*
X17342451Y12430637D01*
X17322606Y12417375D01*
X17309344Y12397529D01*
X17304688Y12374118D01*
X17309344Y12350707D01*
X17322606Y12330861D01*
X17342451Y12317599D01*
X17365863Y12312943D01*
X17389275Y12317599D01*
X17409122Y12330861D01*
X17422382Y12350707D01*
X17427039Y12374118D01*
X17422382Y12397529D01*
X17409122Y12417375D01*
X17389275Y12430637D01*
X17365863Y12435293D01*
D02*
G37*
%LPD*%
G36*
X16215216Y6069846D02*
Y5834381D01*
X16215216Y5834380D01*
X16218321Y5818773D01*
X16227162Y5805542D01*
X17034807Y4997897D01*
X17029945Y4986164D01*
X16425293D01*
X15629594Y5781863D01*
X15634454Y5793596D01*
X15905479D01*
X15905479Y5793596D01*
X15921088Y5796701D01*
X15934319Y5805542D01*
X16203484Y6074706D01*
X16215216Y6069846D01*
D02*
G37*
D32*
X15653055Y11825275D02*
X16343819Y12516038D01*
X14653613Y6541503D02*
X14765289D01*
X15147491Y6923705D02*
Y7300859D01*
X14765289Y6541503D02*
X15147491Y6923705D01*
X15559552Y11731772D02*
X15653055Y11825275D01*
X15559552Y6924264D02*
Y11731772D01*
X15165939Y5407259D02*
X15170407D01*
X13685519Y3926840D02*
X15165939Y5407259D01*
X11728516Y3926840D02*
X13685519D01*
X14873016Y6863390D02*
Y9780316D01*
X15074899Y9982200D01*
X13961932Y5770215D02*
Y6946453D01*
X14569627Y7554148D01*
Y12647869D01*
X6716601Y8092290D02*
X8139275D01*
X8295787Y8248802D01*
X6874896Y8241594D02*
Y8250804D01*
X6692859Y8432841D02*
X6874896Y8250804D01*
X12212996Y14685242D02*
X14233754Y12664483D01*
Y9149288D02*
Y12664483D01*
X13759132Y8674666D02*
X14233754Y9149288D01*
X13759132Y8674666D02*
Y8674666D01*
X11696700Y6718300D02*
X11995640D01*
X14311737Y9034396D02*
Y12817931D01*
X11995640Y6718300D02*
X14311737Y9034396D01*
X8651037Y16567513D02*
X10418244D01*
X11694160Y17843430D02*
Y18166080D01*
X10418244Y16567513D02*
X11694160Y17843430D01*
X7173973Y11337033D02*
Y15090450D01*
X8651037Y16567513D01*
X5192542Y13353561D02*
X9349740Y17510760D01*
X5192542Y12026900D02*
Y13353561D01*
X8482239Y13758423D02*
Y15075841D01*
X12291060Y14838606D02*
Y17932401D01*
X11960860Y18262601D02*
X12291060Y17932401D01*
Y14838606D02*
X14311737Y12817931D01*
X14381853Y7528933D02*
Y15975409D01*
X13855701Y7002780D02*
X14381853Y7528933D01*
X12960802Y17396460D02*
X14381853Y15975409D01*
X14569627Y12647869D02*
X15635219Y13713460D01*
X14150340Y6426200D02*
X14629613Y6905473D01*
Y12569673D02*
X15328900Y13268961D01*
X14629613Y6905473D02*
Y12569673D01*
X4940300Y14135100D02*
X8201660Y17396460D01*
X15524461Y16003908D02*
X15904713Y15623656D01*
X19289709D01*
X19591701Y15992244D02*
X19833060D01*
X20346774Y13539459D02*
Y15478528D01*
X19833060Y15992244D02*
X20346774Y15478528D01*
X19327786Y15728329D02*
X19591701Y15992244D01*
X19289709Y15623656D02*
X19327786Y15661732D01*
Y15728329D01*
X17411700Y13589000D02*
Y13911580D01*
X12456160Y18408443D02*
X12914838D01*
X17411700Y13911580D01*
X18011140Y12799060D02*
Y12989560D01*
X17411700Y13589000D02*
X18011140Y12989560D01*
X16784320Y13732581D02*
X17564101Y12952802D01*
X18011140Y12799060D02*
X19151601Y11658600D01*
X12823260Y17693640D02*
X16784320Y13732581D01*
Y12659360D02*
X17564101Y11879580D01*
Y12952802D01*
X19151601Y9205496D02*
Y11658600D01*
X16784320Y12659360D02*
Y13732581D01*
X12823260Y17693640D02*
Y17837079D01*
X12379960Y18280380D02*
X12823260Y17837079D01*
X12379960Y18280380D02*
Y18535442D01*
X12456820Y17900443D02*
X12960802Y17396460D01*
X12399282Y18840712D02*
X16566318D01*
X19371417Y16035612D01*
Y15889638D02*
Y16035612D01*
X9035793Y20392467D02*
X15659230D01*
X20401775Y15649921D01*
Y13754590D02*
Y15649921D01*
X12144950Y18586380D02*
X12399282Y18840712D01*
X20346774Y13539459D02*
X21173547Y12712687D01*
X19677760Y14329628D02*
Y15880080D01*
X18366187Y13018054D02*
X19677760Y14329628D01*
X19344627Y15862849D02*
X19371417Y15889638D01*
X20401775Y13754590D02*
X21281673Y12874693D01*
Y8021942D02*
Y12874693D01*
X21173547Y10963013D02*
Y12712687D01*
X20968307Y10757774D02*
X21173547Y10963013D01*
X19396419Y6136688D02*
X21281673Y8021942D01*
X19142506Y6732473D02*
Y9196402D01*
X19151601Y9205496D01*
X10981274Y20204448D02*
X11960860Y19224861D01*
X1897380Y16608504D02*
X5493324Y20204448D01*
X10981274D01*
X11960860Y18661380D02*
Y19224861D01*
X9296497Y19778291D02*
X10990069D01*
X11607213Y19161148D01*
X11858196D01*
X9086832Y19568626D02*
X9296497Y19778291D01*
X17564101Y4071620D02*
Y11879580D01*
X8592755Y18674765D02*
X8594334Y18673186D01*
X8592755Y18674765D02*
Y19206152D01*
X8591177Y19207732D02*
X8592755Y19206152D01*
X8600676Y18154904D02*
X10469108D01*
X6522024Y16076253D02*
X8600676Y18154904D01*
X9027160Y18038272D02*
X9034388Y18045500D01*
X10465770D01*
X10559185Y18138914D02*
Y18463051D01*
X10465770Y18045500D02*
X10559185Y18138914D01*
X10652174Y18556039D02*
X11179740D01*
X10559185Y18463051D02*
X10652174Y18556039D01*
X9922556Y18289838D02*
Y19405682D01*
Y18289838D02*
X9931482Y18280910D01*
X9922556Y18281905D02*
Y18289838D01*
X9328081Y19647812D02*
X10868362D01*
X11929794Y18586380D01*
X9086832Y18467299D02*
Y19568626D01*
X9161832Y19481563D02*
X9328081Y19647812D01*
X9161832Y18320399D02*
Y19481563D01*
X1897380Y11781894D02*
Y16608504D01*
X9161539Y18320107D02*
X9161832Y18320399D01*
X11929794Y18586380D02*
X12144950D01*
X6233561Y18410286D02*
X8162920D01*
X5415046Y17591769D02*
X6233561Y18410286D01*
X5415046Y15469899D02*
Y17591769D01*
X4581401Y6515382D02*
Y14636253D01*
X5415046Y15469899D01*
X4381358Y18210406D02*
X4708218Y18537265D01*
X8162920D01*
X2357100Y6299180D02*
X2544806Y6486886D01*
Y16810660D02*
X4494586Y18760440D01*
X2544806Y6486886D02*
Y16810660D01*
X4494586Y18760440D02*
X6019800D01*
X6548120Y10711180D02*
X7173973Y11337033D01*
X4648200Y12065000D02*
Y14505940D01*
Y12065000D02*
X4775200Y11938000D01*
X4648200Y14505940D02*
X8125460Y17983200D01*
X8144523Y13411958D02*
Y13420708D01*
X8482239Y13758423D01*
X11179740Y18556039D02*
X11506200Y18229581D01*
X1081009Y10965523D02*
X1897380Y11781894D01*
X4914974Y8089826D02*
Y11331849D01*
X5015664Y11432540D02*
X5781040D01*
X4914974Y11331849D02*
X5015664Y11432540D01*
X4914974Y8089826D02*
X6121400Y6883400D01*
X4775200Y11938000D02*
X5420660D01*
X15905479Y5834380D02*
X16256000Y6184900D01*
X15519400Y5834380D02*
X16408400Y4945380D01*
X6446520Y8679180D02*
X6692859Y8432841D01*
X13855701Y5179060D02*
Y7002780D01*
X6502400Y10711180D02*
X6548120D01*
X2357100Y5892800D02*
Y6299180D01*
X16786861Y12225020D02*
X16863060Y12148820D01*
X15519400Y5834380D02*
X15905479D01*
X15394940Y5958840D02*
X15519400Y5834380D01*
X16408400Y4945380D02*
X17145000D01*
X15394940Y5958840D02*
Y11790680D01*
X15653055Y11888775D02*
X16311880Y12547600D01*
X14271400Y5085080D02*
X14272534Y5083947D01*
X16451579Y11658600D02*
Y13550900D01*
X15730220Y10937240D02*
X16451579Y11658600D01*
X15730220Y6278880D02*
Y10937240D01*
X15527020Y6075680D02*
X15730220Y6278880D01*
X15527020Y6012180D02*
Y6075680D01*
X6309360Y8884920D02*
X6512860Y9088420D01*
X6309360Y7254240D02*
Y8884920D01*
X6692859Y8432841D02*
Y9019581D01*
X15653055Y11825275D02*
Y11888775D01*
X11323569Y3521893D02*
X11728516Y3926840D01*
X5420660Y11938000D02*
X6512860Y10845800D01*
X17365858Y10980420D02*
X17388689Y5181448D01*
X6121400Y2322241D02*
Y6883400D01*
X5781040Y11432540D02*
X6502400Y10711180D01*
X11694160Y18166080D02*
X11960860Y18432780D01*
X16334740Y7454900D02*
X16635538Y7755697D01*
Y13195300D01*
X15328900Y13268961D02*
X16311880D01*
X16395700Y6108700D02*
X16863060Y6576060D01*
Y12148820D01*
X16672362Y6601262D02*
Y7117278D01*
X16256000Y6184900D02*
X16672362Y6601262D01*
X16256000Y5834380D02*
Y6184900D01*
Y5834380D02*
X17145000Y4945380D01*
X11628120Y5085080D02*
X14271400D01*
X5372542Y11340658D02*
X11628120Y5085080D01*
X15519400Y14483080D02*
X16451579Y13550900D01*
X6446520Y8679180D02*
Y8773160D01*
D33*
X12339569Y4490679D02*
D03*
X12593569Y3521893D02*
D03*
D34*
Y4490679D02*
D03*
X11069569Y3521893D02*
D03*
X11323569D02*
D03*
X11577569D02*
D03*
X11831569D02*
D03*
X12339569D02*
D03*
X12085569D02*
D03*
D35*
X1499977Y11070900D02*
D03*
X14083707Y8483158D02*
D03*
X13992824Y13632916D02*
D03*
X7916296Y13516840D02*
D03*
X8007055Y8374537D02*
D03*
X20502951Y10915330D02*
D03*
X2808300Y15811348D02*
D03*
X2737211Y6311346D02*
D03*
X6188542Y2808112D02*
D03*
X10929102Y1499997D02*
D03*
X15688544Y2737399D02*
D03*
X19191702Y6188649D02*
D03*
X19262785Y15688655D02*
D03*
X15811459Y19191888D02*
D03*
X11070900Y20500005D02*
D03*
X6311453Y19262598D02*
D03*
D36*
X16002333Y7020293D02*
D03*
X15940631Y6831099D02*
D03*
X15559552Y6924264D02*
D03*
X14824197Y5589753D02*
D03*
X15170407Y5407259D02*
D03*
X15147491Y7300859D02*
D03*
X15061835Y7214283D02*
D03*
X14873016Y6863390D02*
D03*
X14653613Y6541503D02*
D03*
X14648837Y5995843D02*
D03*
X14302528Y7141271D02*
D03*
X15471140Y7182277D02*
D03*
X15035126Y6071865D02*
D03*
X14210475Y4210835D02*
D03*
X13812228Y4366758D02*
D03*
X7693660Y2473960D02*
D03*
X6692859Y4612640D02*
D03*
X9449242Y2424669D02*
D03*
X10795000Y3484880D02*
D03*
X6512860Y4709643D02*
D03*
X5196035Y4775236D02*
D03*
X6716601Y8092290D02*
D03*
X6874896Y8241594D02*
D03*
X8295787Y8248802D02*
D03*
X13759132Y8674666D02*
D03*
X12212996Y14685242D02*
D03*
X7474260Y16282304D02*
D03*
X6522024Y16076253D02*
D03*
X11960860Y18262601D02*
D03*
X11911147Y18513734D02*
D03*
X11481928Y17773447D02*
D03*
X11488420Y17924780D02*
D03*
X15189200Y16339819D02*
D03*
X7803634Y16750662D02*
D03*
X8201660Y17396460D02*
D03*
X7990545Y18094228D02*
D03*
X8125460Y18115280D02*
D03*
X12841496Y16865575D02*
D03*
X15524461Y16003908D02*
D03*
X12927258Y18281442D02*
D03*
X12748260D02*
D03*
X12379960Y18535442D02*
D03*
X12960802Y17396460D02*
D03*
X14025880Y19050000D02*
D03*
X19344627Y15862849D02*
D03*
X19634473Y16156940D02*
D03*
X20911819Y10980420D02*
D03*
X20968307Y10757774D02*
D03*
X19142506Y6732473D02*
D03*
X17388689Y5181448D02*
D03*
X17879060Y5689600D02*
D03*
X16570959Y3599180D02*
D03*
X10534284Y1347246D02*
D03*
X9035793Y20392467D02*
D03*
X8842169Y18864920D02*
D03*
X8990472Y18536690D02*
D03*
X10421650Y20752100D02*
D03*
X15821193Y19560539D02*
D03*
X19677760Y15880080D02*
D03*
X21000476Y11107420D02*
D03*
X19396419Y6136688D02*
D03*
X17564101Y4071620D02*
D03*
X8591177Y19207732D02*
D03*
X11858196Y19161148D02*
D03*
X12748260Y17773442D02*
D03*
X14025880Y18366740D02*
D03*
Y18138139D02*
D03*
X15808788Y2579317D02*
D03*
X8703691Y17698720D02*
D03*
X9027160Y18038272D02*
D03*
X9922556Y18281905D02*
D03*
X9090660Y17911293D02*
D03*
X9240520Y17970500D02*
D03*
X9331960Y17857028D02*
D03*
X20663812Y11513889D02*
D03*
X11609319Y18536855D02*
D03*
X9086832Y18467299D02*
D03*
X9161539Y18320107D02*
D03*
X11960860Y18661380D02*
D03*
X12456160Y18408443D02*
D03*
X8162920Y18410286D02*
D03*
X5587284Y16494044D02*
D03*
X4554220Y14715138D02*
D03*
X4581401Y6515382D02*
D03*
X4074160Y4528820D02*
D03*
X4169923Y4890846D02*
D03*
X3872220Y5933460D02*
D03*
Y6266180D02*
D03*
X8594334Y18673186D02*
D03*
X8162920Y18537265D02*
D03*
X4381358Y18210406D02*
D03*
X2427994Y14208569D02*
D03*
X2869000Y16610287D02*
D03*
X2983149Y16116750D02*
D03*
X6512860Y10845800D02*
D03*
X7826520Y18679652D02*
D03*
X9349740Y17510760D02*
D03*
X8144523Y13411958D02*
D03*
X8482239Y15075841D02*
D03*
X9922556Y19405682D02*
D03*
X10210960Y19335562D02*
D03*
X1081009Y10965523D02*
D03*
X6512860Y9088420D02*
D03*
X5129042Y8254101D02*
D03*
X5192542Y10959318D02*
D03*
X7781976Y10703237D02*
D03*
X13836264Y13445264D02*
D03*
X5859780Y5367020D02*
D03*
X922020Y9222740D02*
D03*
X2322383Y11607800D02*
D03*
X4052219D02*
D03*
X922020Y10985500D02*
D03*
X4052219Y12043344D02*
D03*
X5372542Y12895580D02*
D03*
X2275840Y16730980D02*
D03*
X6106160Y19677756D02*
D03*
X14192047Y6881927D02*
D03*
X17045940Y5181448D02*
D03*
X17365858Y10980420D02*
D03*
Y11643792D02*
D03*
X18366187Y12644120D02*
D03*
Y13018054D02*
D03*
X8941242Y4612640D02*
D03*
Y4076700D02*
D03*
X15074899Y9982200D02*
D03*
X17033240Y5971540D02*
D03*
X15730220Y5501640D02*
D03*
X8125460Y17983200D02*
D03*
X3937000Y14505940D02*
D03*
X11958737Y18154442D02*
D03*
X10693400Y18154446D02*
D03*
X15267940Y12247880D02*
D03*
X15635223Y12644120D02*
D03*
X17365863Y12374118D02*
D03*
X11773967Y17759680D02*
D03*
X11506200Y18229581D02*
D03*
X17785080Y6311900D02*
D03*
X15786836Y6205957D02*
D03*
X8454080Y18664246D02*
D03*
X10469108Y18154904D02*
D03*
X10050780Y17698720D02*
D03*
X13002260Y18090942D02*
D03*
X12125960Y17680940D02*
D03*
X12926060Y17856200D02*
D03*
X11076940Y17900447D02*
D03*
X11830858Y17888940D02*
D03*
X11961820Y17836942D02*
D03*
X10693400Y17900447D02*
D03*
X5192542Y12026900D02*
D03*
X10439908Y17802859D02*
D03*
X4052219Y6931660D02*
D03*
X4234180Y13075920D02*
D03*
X4052219Y12768580D02*
D03*
X7485868Y13075920D02*
D03*
X4234180Y10515600D02*
D03*
X6692859Y12282912D02*
D03*
X5956300Y3114040D02*
D03*
X16786861Y7277100D02*
D03*
X17139905Y7117278D02*
D03*
X16555734Y6924055D02*
D03*
X16365540Y12948920D02*
D03*
X8559800Y18420081D02*
D03*
X11944558Y18027441D02*
D03*
X10986927Y18027448D02*
D03*
X4940300Y14135100D02*
D03*
X13855701Y5179060D02*
D03*
X12456820Y17900443D02*
D03*
X11696700Y6718300D02*
D03*
X6121400Y2322241D02*
D03*
X11960860Y18432780D02*
D03*
X2357100Y5892800D02*
D03*
X6019800Y18760440D02*
D03*
X11125200Y18154446D02*
D03*
X6164580Y18895061D02*
D03*
X10683240Y18481039D02*
D03*
X3872220Y11372860D02*
D03*
X15234920Y11224260D02*
D03*
X13856767Y7326427D02*
D03*
X16365540Y11059160D02*
D03*
X15819119Y6512560D02*
D03*
X16976273Y11853093D02*
D03*
X3872220Y15217140D02*
D03*
X5372542Y14055701D02*
D03*
X5506720Y14188440D02*
D03*
X16508919Y10601584D02*
D03*
X5394960Y6880860D02*
D03*
X16334740Y7454900D02*
D03*
X16635538Y13195300D02*
D03*
X4310380Y14056360D02*
D03*
X16365535Y13868401D02*
D03*
X16311880Y13268961D02*
D03*
X14150340Y6426200D02*
D03*
X16395700Y6108700D02*
D03*
X16786861Y12225020D02*
D03*
X17635860Y13074020D02*
D03*
X17505679Y13876019D02*
D03*
X6512860Y12031680D02*
D03*
X17381219Y13434061D02*
D03*
X18366180D02*
D03*
X6692900Y10574020D02*
D03*
X13961932Y5770215D02*
D03*
X15635219Y13713460D02*
D03*
X3870960Y10574020D02*
D03*
X15887700Y6141720D02*
D03*
X17145000Y4945380D02*
D03*
X15394940Y11790680D02*
D03*
X3872220Y7420620D02*
D03*
X16311880Y12547600D02*
D03*
X16343819Y12516038D02*
D03*
X15110460Y4925060D02*
D03*
X5372542Y11340658D02*
D03*
X14151935Y5898825D02*
D03*
X6888480Y14942821D02*
D03*
X14787880D02*
D03*
X3738880Y10200640D02*
D03*
X16672560Y6075680D02*
D03*
X5402783Y14483080D02*
D03*
X5892800D02*
D03*
X15519400D02*
D03*
X15527020Y6012180D02*
D03*
X6512860Y5933140D02*
D03*
X5372542Y4773143D02*
D03*
Y7094220D02*
D03*
X15242540Y6858000D02*
D03*
X6309360Y7254240D02*
D03*
X3872220Y8773160D02*
D03*
X6446520D02*
D03*
X3872220Y9245600D02*
D03*
X5778500Y4909820D02*
D03*
X17195799Y6141720D02*
D03*
X7495540Y8371804D02*
D03*
X16177260Y10375900D02*
D03*
X6692859Y8254101D02*
D03*
%TF.MD5,286ce2a02534cf8936f3f61b73c226a9*%
M02*
