%TF.GenerationSoftware,Altium Limited,Altium Designer,20.2.3 (150)*%
G04 Layer_Color=0*
%FSLAX45Y45*%
%MOMM*%
%TF.SameCoordinates,D065702F-5D7C-4ECE-B493-19553C93D9E3*%
%TF.FilePolarity,Positive*%
%TF.FileFunction,Plated,1,4,PTH,Drill*%
%TF.Part,Single*%
G01*
G75*
%TA.AperFunction,ComponentDrill*%
%ADD107C,0.90000*%
%TA.AperFunction,ViaDrill,NotFilled*%
%ADD108C,0.40000*%
D107*
X12339569Y4490679D02*
D03*
X12593569D02*
D03*
X11069569Y3521893D02*
D03*
X11323569D02*
D03*
X11577569D02*
D03*
X11831569D02*
D03*
X12339569D02*
D03*
X12593569D02*
D03*
X12085569D02*
D03*
D108*
X16002333Y7020293D02*
D03*
X15940631Y6831099D02*
D03*
X15559552Y6924264D02*
D03*
X14824197Y5589753D02*
D03*
X15170407Y5407259D02*
D03*
X15147491Y7300859D02*
D03*
X15061835Y7214283D02*
D03*
X14873016Y6863390D02*
D03*
X14653613Y6541503D02*
D03*
X14648837Y5995843D02*
D03*
X14302528Y7141271D02*
D03*
X15471140Y7182277D02*
D03*
X15035126Y6071865D02*
D03*
X14210475Y4210835D02*
D03*
X13812228Y4366758D02*
D03*
X7693660Y2473960D02*
D03*
X6692859Y4612640D02*
D03*
X9449242Y2424669D02*
D03*
X10795000Y3484880D02*
D03*
X6512860Y4709643D02*
D03*
X5196035Y4775236D02*
D03*
X6716601Y8092290D02*
D03*
X6874896Y8241594D02*
D03*
X8295787Y8248802D02*
D03*
X13759132Y8674666D02*
D03*
X12212996Y14685242D02*
D03*
X7474260Y16282304D02*
D03*
X6522024Y16076253D02*
D03*
X11960860Y18262601D02*
D03*
X11911147Y18513734D02*
D03*
X11481928Y17773447D02*
D03*
X11488420Y17924780D02*
D03*
X15189200Y16339819D02*
D03*
X7803634Y16750662D02*
D03*
X8201660Y17396460D02*
D03*
X7990545Y18094228D02*
D03*
X8125460Y18115280D02*
D03*
X12841496Y16865575D02*
D03*
X15524461Y16003908D02*
D03*
X12927258Y18281442D02*
D03*
X12748260D02*
D03*
X12379960Y18535442D02*
D03*
X12960802Y17396460D02*
D03*
X14025880Y19050000D02*
D03*
X19344627Y15862849D02*
D03*
X19634473Y16156940D02*
D03*
X20911819Y10980420D02*
D03*
X20968307Y10757774D02*
D03*
X19142506Y6732473D02*
D03*
X17388689Y5181448D02*
D03*
X17879060Y5689600D02*
D03*
X16570959Y3599180D02*
D03*
X10534284Y1347246D02*
D03*
X9035793Y20392467D02*
D03*
X8842169Y18864920D02*
D03*
X8990472Y18536690D02*
D03*
X10421650Y20752100D02*
D03*
X15821193Y19560539D02*
D03*
X19677760Y15880080D02*
D03*
X21000476Y11107420D02*
D03*
X19396419Y6136688D02*
D03*
X17564101Y4071620D02*
D03*
X8591177Y19207732D02*
D03*
X11858196Y19161148D02*
D03*
X12748260Y17773442D02*
D03*
X14025880Y18366740D02*
D03*
Y18138139D02*
D03*
X15808788Y2579317D02*
D03*
X8703691Y17698720D02*
D03*
X9027160Y18038272D02*
D03*
X9922556Y18281905D02*
D03*
X9090660Y17911293D02*
D03*
X9240520Y17970500D02*
D03*
X9331960Y17857028D02*
D03*
X20663812Y11513889D02*
D03*
X11609319Y18536855D02*
D03*
X9086832Y18467299D02*
D03*
X9161539Y18320107D02*
D03*
X11960860Y18661380D02*
D03*
X12456160Y18408443D02*
D03*
X8162920Y18410286D02*
D03*
X5587284Y16494044D02*
D03*
X4554220Y14715138D02*
D03*
X4581401Y6515382D02*
D03*
X4074160Y4528820D02*
D03*
X4169923Y4890846D02*
D03*
X3872220Y5933460D02*
D03*
Y6266180D02*
D03*
X8594334Y18673186D02*
D03*
X8162920Y18537265D02*
D03*
X4381358Y18210406D02*
D03*
X2427994Y14208569D02*
D03*
X2869000Y16610287D02*
D03*
X2983149Y16116750D02*
D03*
X6512860Y10845800D02*
D03*
X7826520Y18679652D02*
D03*
X9349740Y17510760D02*
D03*
X8144523Y13411958D02*
D03*
X8482239Y15075841D02*
D03*
X9922556Y19405682D02*
D03*
X10210960Y19335562D02*
D03*
X1081009Y10965523D02*
D03*
X6512860Y9088420D02*
D03*
X5129042Y8254101D02*
D03*
X5192542Y10959318D02*
D03*
X7781976Y10703237D02*
D03*
X13836264Y13445264D02*
D03*
X5859780Y5367020D02*
D03*
X922020Y9222740D02*
D03*
X2322383Y11607800D02*
D03*
X4052219D02*
D03*
X922020Y10985500D02*
D03*
X4052219Y12043344D02*
D03*
X5372542Y12895580D02*
D03*
X2275840Y16730980D02*
D03*
X6106160Y19677756D02*
D03*
X14192047Y6881927D02*
D03*
X17045940Y5181448D02*
D03*
X17365858Y10980420D02*
D03*
Y11643792D02*
D03*
X18366187Y12644120D02*
D03*
Y13018054D02*
D03*
X8941242Y4612640D02*
D03*
Y4076700D02*
D03*
X15074899Y9982200D02*
D03*
X17033240Y5971540D02*
D03*
X15730220Y5501640D02*
D03*
X8125460Y17983200D02*
D03*
X3937000Y14505940D02*
D03*
X11958737Y18154442D02*
D03*
X10693400Y18154446D02*
D03*
X15267940Y12247880D02*
D03*
X15635223Y12644120D02*
D03*
X17365863Y12374118D02*
D03*
X11773967Y17759680D02*
D03*
X11506200Y18229581D02*
D03*
X17785080Y6311900D02*
D03*
X15786836Y6205957D02*
D03*
X8454080Y18664246D02*
D03*
X10469108Y18154904D02*
D03*
X10050780Y17698720D02*
D03*
X13002260Y18090942D02*
D03*
X12125960Y17680940D02*
D03*
X12926060Y17856200D02*
D03*
X11076940Y17900447D02*
D03*
X11830858Y17888940D02*
D03*
X11961820Y17836942D02*
D03*
X10693400Y17900447D02*
D03*
X5192542Y12026900D02*
D03*
X10439908Y17802859D02*
D03*
X4052219Y6931660D02*
D03*
X4234180Y13075920D02*
D03*
X4052219Y12768580D02*
D03*
X7485868Y13075920D02*
D03*
X4234180Y10515600D02*
D03*
X6692859Y12282912D02*
D03*
X5956300Y3114040D02*
D03*
X16786861Y7277100D02*
D03*
X17139905Y7117278D02*
D03*
X16555734Y6924055D02*
D03*
X16365540Y12948920D02*
D03*
X8559800Y18420081D02*
D03*
X11944558Y18027441D02*
D03*
X10986927Y18027448D02*
D03*
X4940300Y14135100D02*
D03*
X13855701Y5179060D02*
D03*
X12456820Y17900443D02*
D03*
X11696700Y6718300D02*
D03*
X6121400Y2322241D02*
D03*
X11960860Y18432780D02*
D03*
X2357100Y5892800D02*
D03*
X6019800Y18760440D02*
D03*
X11125200Y18154446D02*
D03*
X6164580Y18895061D02*
D03*
X10683240Y18481039D02*
D03*
X3872220Y11372860D02*
D03*
X15234920Y11224260D02*
D03*
X13856767Y7326427D02*
D03*
X16365540Y11059160D02*
D03*
X15819119Y6512560D02*
D03*
X16976273Y11853093D02*
D03*
X3872220Y15217140D02*
D03*
X5372542Y14055701D02*
D03*
X5506720Y14188440D02*
D03*
X16508919Y10601584D02*
D03*
X5394960Y6880860D02*
D03*
X16334740Y7454900D02*
D03*
X16635538Y13195300D02*
D03*
X4310380Y14056360D02*
D03*
X16365535Y13868401D02*
D03*
X16311880Y13268961D02*
D03*
X14150340Y6426200D02*
D03*
X16395700Y6108700D02*
D03*
X16786861Y12225020D02*
D03*
X17635860Y13074020D02*
D03*
X17505679Y13876019D02*
D03*
X6512860Y12031680D02*
D03*
X17381219Y13434061D02*
D03*
X18366180D02*
D03*
X6692900Y10574020D02*
D03*
X13961932Y5770215D02*
D03*
X15635219Y13713460D02*
D03*
X3870960Y10574020D02*
D03*
X15887700Y6141720D02*
D03*
X17145000Y4945380D02*
D03*
X15394940Y11790680D02*
D03*
X3872220Y7420620D02*
D03*
X16311880Y12547600D02*
D03*
X16343819Y12516038D02*
D03*
X15110460Y4925060D02*
D03*
X5372542Y11340658D02*
D03*
X14151935Y5898825D02*
D03*
X6888480Y14942821D02*
D03*
X14787880D02*
D03*
X3738880Y10200640D02*
D03*
X16672560Y6075680D02*
D03*
X5402783Y14483080D02*
D03*
X5892800D02*
D03*
X15519400D02*
D03*
X15527020Y6012180D02*
D03*
X6512860Y5933140D02*
D03*
X5372542Y4773143D02*
D03*
Y7094220D02*
D03*
X15242540Y6858000D02*
D03*
X6309360Y7254240D02*
D03*
X3872220Y8773160D02*
D03*
X6446520D02*
D03*
X3872220Y9245600D02*
D03*
X5778500Y4909820D02*
D03*
X17195799Y6141720D02*
D03*
X7495540Y8371804D02*
D03*
X16177260Y10375900D02*
D03*
X6692859Y8254101D02*
D03*
%TF.MD5,f5b50eb6a075020434551670479c6e88*%
M02*
