%TF.GenerationSoftware,Altium Limited,Altium Designer,20.2.3 (150)*%
G04 Layer_Physical_Order=2*
G04 Layer_Color=36540*
%FSLAX45Y45*%
%MOMM*%
%TF.SameCoordinates,D065702F-5D7C-4ECE-B493-19553C93D9E3*%
%TF.FilePolarity,Positive*%
%TF.FileFunction,Copper,L2,Inr,Signal*%
%TF.Part,Single*%
G01*
G75*
%TA.AperFunction,Conductor*%
%ADD32C,0.30000*%
%TA.AperFunction,ComponentPad*%
%ADD33R,1.50000X1.50000*%
%ADD34C,1.50000*%
%ADD35C,0.50000*%
%TA.AperFunction,ViaPad*%
%ADD36C,0.70000*%
G36*
X11331459Y21969341D02*
X11662615Y21954324D01*
X11993166Y21929314D01*
X12322812Y21894331D01*
X12651250Y21849408D01*
X12978181Y21794586D01*
X13303308Y21729913D01*
X13626334Y21655452D01*
X13946962Y21571268D01*
X14264902Y21477438D01*
X14579863Y21374048D01*
X14891557Y21261192D01*
X15199701Y21138974D01*
X15504013Y21007504D01*
X15804214Y20866905D01*
X16100034Y20717302D01*
X16391199Y20558832D01*
X16677444Y20391641D01*
X16958511Y20215880D01*
X17234140Y20031711D01*
X17504082Y19839301D01*
X17768086Y19638824D01*
X18025919Y19430467D01*
X18277338Y19214417D01*
X18522118Y18990872D01*
X18760036Y18760036D01*
X18990872Y18522118D01*
X19214417Y18277338D01*
X19430467Y18025919D01*
X19638824Y17768086D01*
X19839301Y17504082D01*
X20031711Y17234140D01*
X20215880Y16958511D01*
X20391641Y16677444D01*
X20558832Y16391199D01*
X20717302Y16100034D01*
X20866905Y15804214D01*
X21007504Y15504013D01*
X21138974Y15199701D01*
X21261192Y14891557D01*
X21374048Y14579863D01*
X21477438Y14264902D01*
X21571268Y13946962D01*
X21655452Y13626334D01*
X21729913Y13303308D01*
X21794586Y12978181D01*
X21849408Y12651250D01*
X21894331Y12322812D01*
X21929314Y11993166D01*
X21954324Y11662615D01*
X21969341Y11331459D01*
X21974347Y11000000D01*
X21969341Y10668542D01*
X21954324Y10337385D01*
X21929314Y10006834D01*
X21894331Y9677189D01*
X21849408Y9348750D01*
X21794586Y9021819D01*
X21729913Y8696692D01*
X21655452Y8373667D01*
X21571268Y8053038D01*
X21477438Y7735098D01*
X21374048Y7420138D01*
X21261192Y7108443D01*
X21138974Y6800299D01*
X21007504Y6495988D01*
X20866905Y6195785D01*
X20717302Y5899967D01*
X20558832Y5608802D01*
X20391641Y5322556D01*
X20215880Y5041490D01*
X20031711Y4765860D01*
X19839301Y4495920D01*
X19638824Y4231913D01*
X19430467Y3974082D01*
X19214417Y3722662D01*
X18990872Y3477882D01*
X18760036Y3239965D01*
X18522118Y3009129D01*
X18277338Y2785583D01*
X18025919Y2569533D01*
X17768086Y2361176D01*
X17504082Y2160700D01*
X17234140Y1968290D01*
X16958511Y1784120D01*
X16677444Y1608359D01*
X16391199Y1441168D01*
X16100034Y1282698D01*
X15804214Y1133095D01*
X15504013Y992495D01*
X15199701Y861026D01*
X14891557Y738808D01*
X14579863Y625952D01*
X14264902Y522562D01*
X13946962Y428732D01*
X13626334Y344548D01*
X13303308Y270086D01*
X12978181Y205414D01*
X12651250Y150592D01*
X12322812Y105669D01*
X11993166Y70686D01*
X11662615Y45675D01*
X11331459Y30660D01*
X11000000Y25653D01*
X10668542Y30660D01*
X10337385Y45675D01*
X10006834Y70686D01*
X9677189Y105669D01*
X9348750Y150592D01*
X9021819Y205414D01*
X8696692Y270086D01*
X8373667Y344548D01*
X8053038Y428732D01*
X7735098Y522562D01*
X7420138Y625952D01*
X7108443Y738808D01*
X6800299Y861026D01*
X6495988Y992495D01*
X6195785Y1133095D01*
X5899967Y1282698D01*
X5608802Y1441168D01*
X5322556Y1608359D01*
X5041490Y1784120D01*
X4765860Y1968290D01*
X4495920Y2160700D01*
X4231913Y2361176D01*
X3974082Y2569533D01*
X3722662Y2785583D01*
X3477882Y3009129D01*
X3239965Y3239965D01*
X3009129Y3477882D01*
X2785583Y3722662D01*
X2569533Y3974082D01*
X2361176Y4231913D01*
X2160700Y4495920D01*
X1968290Y4765860D01*
X1784120Y5041490D01*
X1608359Y5322556D01*
X1441168Y5608802D01*
X1282698Y5899967D01*
X1133095Y6195785D01*
X992495Y6495988D01*
X861026Y6800299D01*
X738808Y7108443D01*
X625952Y7420138D01*
X522562Y7735098D01*
X428732Y8053038D01*
X344548Y8373667D01*
X270086Y8696692D01*
X205414Y9021819D01*
X150592Y9348750D01*
X105669Y9677189D01*
X70686Y10006834D01*
X45675Y10337385D01*
X30660Y10668542D01*
X25653Y11000000D01*
X30660Y11331459D01*
X45675Y11662615D01*
X70686Y11993166D01*
X105669Y12322812D01*
X150592Y12651250D01*
X205414Y12978181D01*
X270086Y13303308D01*
X344548Y13626334D01*
X428732Y13946962D01*
X522562Y14264902D01*
X625952Y14579863D01*
X738808Y14891557D01*
X861026Y15199701D01*
X992495Y15504013D01*
X1133095Y15804214D01*
X1282698Y16100034D01*
X1441168Y16391199D01*
X1608359Y16677444D01*
X1784120Y16958511D01*
X1968290Y17234140D01*
X2160700Y17504082D01*
X2361176Y17768086D01*
X2569533Y18025919D01*
X2785583Y18277338D01*
X3009129Y18522118D01*
X3239965Y18760036D01*
X3477882Y18990872D01*
X3722662Y19214417D01*
X3974082Y19430467D01*
X4231913Y19638824D01*
X4495920Y19839301D01*
X4765860Y20031711D01*
X5041490Y20215880D01*
X5322556Y20391641D01*
X5608802Y20558832D01*
X5899967Y20717302D01*
X6195785Y20866905D01*
X6495988Y21007504D01*
X6800299Y21138974D01*
X7108443Y21261192D01*
X7420138Y21374048D01*
X7735098Y21477438D01*
X8053038Y21571268D01*
X8373667Y21655452D01*
X8696692Y21729913D01*
X9021819Y21794586D01*
X9348750Y21849408D01*
X9677189Y21894331D01*
X10006834Y21929314D01*
X10337385Y21954324D01*
X10668542Y21969341D01*
X11000000Y21974347D01*
X11331459Y21969341D01*
D02*
G37*
%LPC*%
G36*
X10421650Y20813275D02*
X10398240Y20808620D01*
X10378393Y20795357D01*
X10365132Y20775511D01*
X10360475Y20752100D01*
X10365132Y20728690D01*
X10378393Y20708842D01*
X10398240Y20695581D01*
X10421650Y20690924D01*
X10445061Y20695581D01*
X10464908Y20708842D01*
X10478169Y20728690D01*
X10482826Y20752100D01*
X10478169Y20775511D01*
X10464908Y20795357D01*
X10445061Y20808620D01*
X10421650Y20813275D01*
D02*
G37*
G36*
X11070901Y20550984D02*
X11070901Y20550984D01*
X11070900Y20550984D01*
X11051392Y20547104D01*
X11051392Y20547104D01*
X11051391Y20547104D01*
X11041433Y20540450D01*
X11034853Y20536053D01*
X11034852Y20536053D01*
X11034852Y20536053D01*
X11030456Y20529474D01*
X11023801Y20519514D01*
X11023801Y20519514D01*
X11023801Y20519514D01*
X11019920Y20500006D01*
X11019921Y20500005D01*
X11019920Y20500005D01*
X11023800Y20480498D01*
X11023801Y20480498D01*
X11023801Y20480496D01*
X11030455Y20470537D01*
X11034851Y20463959D01*
X11034851Y20463957D01*
X11034852Y20463957D01*
X11041430Y20459561D01*
X11051389Y20452905D01*
X11051390Y20452905D01*
X11051391Y20452905D01*
X11070898Y20449025D01*
X11070899Y20449025D01*
X11070900Y20449025D01*
X11090407Y20452905D01*
X11090408Y20452905D01*
X11090409Y20452905D01*
X11100367Y20459560D01*
X11106947Y20463956D01*
X11106947Y20463956D01*
X11106948Y20463957D01*
X11111343Y20470535D01*
X11117998Y20480495D01*
X11117999Y20480495D01*
X11117999Y20480496D01*
X11121879Y20500003D01*
X11121879Y20500005D01*
X11121879Y20500005D01*
X11117999Y20519511D01*
X11117999Y20519513D01*
X11117999Y20519514D01*
X11111345Y20529472D01*
X11106949Y20536052D01*
X11106948Y20536052D01*
X11106948Y20536053D01*
X11100369Y20540448D01*
X11090410Y20547102D01*
X11090409Y20547102D01*
X11090409Y20547104D01*
X11082543Y20548668D01*
X11070901Y20550984D01*
D02*
G37*
G36*
X9035793Y20453642D02*
X9012383Y20448985D01*
X8992536Y20435724D01*
X8979275Y20415877D01*
X8974618Y20392467D01*
X8979275Y20369055D01*
X8992536Y20349210D01*
X9012383Y20335947D01*
X9035793Y20331291D01*
X9059204Y20335947D01*
X9079051Y20349210D01*
X9092312Y20369055D01*
X9096969Y20392467D01*
X9092312Y20415877D01*
X9079051Y20435724D01*
X9059204Y20448985D01*
X9035793Y20453642D01*
D02*
G37*
G36*
X16168472Y19956918D02*
X16168469Y19956918D01*
X8735168D01*
X8735167Y19956918D01*
X8719560Y19953815D01*
X8706328Y19944974D01*
X8706328Y19944974D01*
X8562338Y19800983D01*
X8553497Y19787752D01*
X8550393Y19772145D01*
X8550393Y19772144D01*
Y19252641D01*
X8547919Y19250989D01*
X8534658Y19231142D01*
X8530001Y19207732D01*
X8534658Y19184322D01*
X8539863Y19176530D01*
X8533074Y19163831D01*
X6392569D01*
X6392568Y19163832D01*
X6376961Y19160727D01*
X6363729Y19151886D01*
X6167498Y18955655D01*
X6164580Y18956235D01*
X6141169Y18951579D01*
X6121323Y18938316D01*
X6108061Y18918471D01*
X6103405Y18895061D01*
X6108061Y18871649D01*
X6121323Y18851804D01*
X6141169Y18838541D01*
X6164580Y18833885D01*
X6187991Y18838541D01*
X6207837Y18851804D01*
X6221099Y18871649D01*
X6225755Y18895061D01*
X6225175Y18897978D01*
X6409461Y19082265D01*
X10335001D01*
X10642456Y18774809D01*
Y18525951D01*
X10639983Y18524297D01*
X10626721Y18504451D01*
X10622065Y18481039D01*
X10626721Y18457629D01*
X10639983Y18437782D01*
X10659829Y18424521D01*
X10683240Y18419865D01*
X10706651Y18424521D01*
X10726497Y18437782D01*
X10739759Y18457629D01*
X10744415Y18481039D01*
X10739759Y18504451D01*
X10726497Y18524297D01*
X10724024Y18525951D01*
Y18791701D01*
X10724024Y18791702D01*
X10720919Y18807310D01*
X10712078Y18820541D01*
X10712078Y18820541D01*
X10380733Y19151886D01*
X10367502Y19160727D01*
X10351894Y19163832D01*
X10351893Y19163831D01*
X8649279D01*
X8642491Y19176530D01*
X8647695Y19184322D01*
X8652352Y19207732D01*
X8647695Y19231142D01*
X8634434Y19250989D01*
X8631960Y19252641D01*
Y19755252D01*
X8752060Y19875351D01*
X16151578D01*
X20322562Y15704369D01*
Y12875429D01*
X20322562Y12875427D01*
X20325665Y12859821D01*
X20334508Y12846590D01*
X21077831Y12103265D01*
Y10736572D01*
X20354906Y10013647D01*
X20346065Y10000416D01*
X20342960Y9984809D01*
X20342960Y9984807D01*
Y6362880D01*
X16600180Y2620100D01*
X15853699D01*
X15852045Y2622574D01*
X15832198Y2635835D01*
X15808788Y2640492D01*
X15785376Y2635835D01*
X15765530Y2622574D01*
X15752267Y2602728D01*
X15747612Y2579317D01*
X15752267Y2555906D01*
X15765530Y2536059D01*
X15785376Y2522798D01*
X15808788Y2518141D01*
X15832198Y2522798D01*
X15852045Y2536059D01*
X15853699Y2538533D01*
X16617072D01*
X16617075Y2538533D01*
X16632681Y2541638D01*
X16645912Y2550478D01*
X20412581Y6317148D01*
X20412582Y6317149D01*
X20421423Y6330380D01*
X20424527Y6345987D01*
Y9967915D01*
X21147452Y10690840D01*
X21147452Y10690840D01*
X21156293Y10704072D01*
X21159398Y10719679D01*
X21159398Y10719680D01*
Y12120157D01*
X21159398Y12120159D01*
X21156293Y12135766D01*
X21147452Y12148997D01*
X20404129Y12892320D01*
Y15721260D01*
X20404129Y15721262D01*
X20401024Y15736868D01*
X20392183Y15750101D01*
X20392183Y15750101D01*
X16197310Y19944974D01*
X16184079Y19953815D01*
X16181490Y19954329D01*
X16168472Y19956918D01*
D02*
G37*
G36*
X6106160Y19738931D02*
X6082749Y19734274D01*
X6062903Y19721013D01*
X6049641Y19701167D01*
X6044985Y19677756D01*
X6045565Y19674837D01*
X3142491Y16771764D01*
X2320751D01*
X2319097Y16774237D01*
X2299251Y16787498D01*
X2275840Y16792155D01*
X2252429Y16787498D01*
X2232583Y16774237D01*
X2219321Y16754391D01*
X2214665Y16730980D01*
X2219321Y16707568D01*
X2232583Y16687723D01*
X2252429Y16674461D01*
X2275840Y16669804D01*
X2299251Y16674461D01*
X2319097Y16687723D01*
X2320751Y16690196D01*
X3159383D01*
X3159384Y16690196D01*
X3174991Y16693301D01*
X3188222Y16702142D01*
X6103242Y19617162D01*
X6106160Y19616582D01*
X6129571Y19621237D01*
X6149417Y19634499D01*
X6162679Y19654346D01*
X6167335Y19677756D01*
X6162679Y19701167D01*
X6149417Y19721013D01*
X6129571Y19734274D01*
X6106160Y19738931D01*
D02*
G37*
G36*
X15821193Y19621715D02*
X15797781Y19617059D01*
X15777934Y19603796D01*
X15776282Y19601324D01*
X12033770D01*
X12033769Y19601324D01*
X12018162Y19598219D01*
X12004931Y19589378D01*
X11580481Y19164928D01*
X11571640Y19151697D01*
X11568535Y19136090D01*
X11568535Y19136089D01*
Y18581764D01*
X11566061Y18580112D01*
X11552800Y18560265D01*
X11548144Y18536855D01*
X11552800Y18513443D01*
X11566061Y18493596D01*
X11585908Y18480334D01*
X11609319Y18475679D01*
X11632730Y18480334D01*
X11652576Y18493596D01*
X11665838Y18513443D01*
X11670494Y18536855D01*
X11665838Y18560265D01*
X11652576Y18580112D01*
X11650102Y18581764D01*
Y19119197D01*
X12050662Y19519756D01*
X15776282D01*
X15777934Y19517284D01*
X15797781Y19504021D01*
X15821193Y19499365D01*
X15844604Y19504021D01*
X15864450Y19517284D01*
X15877711Y19537129D01*
X15882368Y19560539D01*
X15877711Y19583951D01*
X15864450Y19603796D01*
X15844604Y19617059D01*
X15821193Y19621715D01*
D02*
G37*
G36*
X9922556Y19466859D02*
X9899145Y19462202D01*
X9879298Y19448941D01*
X9866037Y19429094D01*
X9861380Y19405682D01*
X9866037Y19382272D01*
X9879298Y19362427D01*
X9899145Y19349165D01*
X9922556Y19344508D01*
X9945967Y19349165D01*
X9965813Y19362427D01*
X9979075Y19382272D01*
X9983731Y19405682D01*
X9979075Y19429094D01*
X9965813Y19448941D01*
X9945967Y19462202D01*
X9922556Y19466859D01*
D02*
G37*
G36*
X6311453Y19313577D02*
X6308194Y19312929D01*
X6304878Y19313152D01*
X6298522Y19311006D01*
X6291944Y19309697D01*
X6289181Y19307851D01*
X6286032Y19306789D01*
X6280982Y19302373D01*
X6275405Y19298647D01*
X6273559Y19295883D01*
X6271057Y19293697D01*
X6268081Y19287685D01*
X6264354Y19282108D01*
X6263706Y19278848D01*
X6262231Y19275870D01*
X6261782Y19269177D01*
X6260473Y19262598D01*
X6261122Y19259338D01*
X6260899Y19256023D01*
X6263045Y19249667D01*
X6264354Y19243089D01*
X6266200Y19240327D01*
X6267263Y19237177D01*
X6271679Y19232127D01*
X6275405Y19226550D01*
X6278168Y19224704D01*
X6280355Y19222202D01*
X6286366Y19219226D01*
X6291944Y19215498D01*
X6295203Y19214851D01*
X6298181Y19213376D01*
X6304874Y19212927D01*
X6311453Y19211618D01*
X6314712Y19212267D01*
X6318028Y19212044D01*
X6324384Y19214191D01*
X6330962Y19215498D01*
X6333724Y19217345D01*
X6336874Y19218408D01*
X6341924Y19222824D01*
X6347501Y19226550D01*
X6349347Y19229314D01*
X6351849Y19231500D01*
X6354825Y19237511D01*
X6358552Y19243089D01*
X6359200Y19246349D01*
X6360675Y19249326D01*
X6361124Y19256020D01*
X6362433Y19262598D01*
X6361784Y19265857D01*
X6362007Y19269173D01*
X6359861Y19275529D01*
X6358552Y19282108D01*
X6356706Y19284869D01*
X6355643Y19288019D01*
X6351227Y19293069D01*
X6347501Y19298647D01*
X6344738Y19300491D01*
X6342551Y19302994D01*
X6336540Y19305969D01*
X6330962Y19309697D01*
X6327703Y19310345D01*
X6324725Y19311819D01*
X6318032Y19312270D01*
X6311453Y19313577D01*
D02*
G37*
G36*
X10210960Y19396738D02*
X10187549Y19392081D01*
X10167703Y19378819D01*
X10154441Y19358974D01*
X10149785Y19335562D01*
X10154441Y19312151D01*
X10167703Y19292305D01*
X10187549Y19279044D01*
X10210960Y19274387D01*
X10234371Y19279044D01*
X10254217Y19292305D01*
X10267479Y19312151D01*
X10272135Y19335562D01*
X10267479Y19358974D01*
X10254217Y19378819D01*
X10234371Y19392081D01*
X10210960Y19396738D01*
D02*
G37*
G36*
X15811459Y19242870D02*
X15804881Y19241560D01*
X15798190Y19241112D01*
X15795210Y19239638D01*
X15791949Y19238988D01*
X15786374Y19235263D01*
X15780363Y19232288D01*
X15778175Y19229784D01*
X15775410Y19227937D01*
X15771686Y19222362D01*
X15767271Y19217313D01*
X15766206Y19214163D01*
X15764360Y19211398D01*
X15763052Y19204820D01*
X15760905Y19198466D01*
X15761128Y19195151D01*
X15760480Y19191888D01*
X15761787Y19185310D01*
X15762238Y19178621D01*
X15763712Y19175641D01*
X15764360Y19172382D01*
X15768086Y19166805D01*
X15771062Y19160794D01*
X15773566Y19158606D01*
X15775410Y19155843D01*
X15780988Y19152116D01*
X15786037Y19147701D01*
X15789186Y19146638D01*
X15791949Y19144791D01*
X15798528Y19143481D01*
X15804881Y19141336D01*
X15808199Y19141559D01*
X15811459Y19140910D01*
X15818037Y19142218D01*
X15824728Y19142667D01*
X15827708Y19144142D01*
X15830968Y19144791D01*
X15836543Y19148515D01*
X15842555Y19151492D01*
X15844743Y19153995D01*
X15847507Y19155843D01*
X15851233Y19161417D01*
X15855647Y19166467D01*
X15856711Y19169617D01*
X15858559Y19172382D01*
X15859866Y19178958D01*
X15862013Y19185312D01*
X15861790Y19188629D01*
X15862439Y19191888D01*
X15861131Y19198468D01*
X15860683Y19205157D01*
X15859207Y19208138D01*
X15858559Y19211398D01*
X15854832Y19216975D01*
X15851857Y19222984D01*
X15849355Y19225172D01*
X15847507Y19227937D01*
X15841931Y19231664D01*
X15836882Y19236078D01*
X15833733Y19237141D01*
X15830968Y19238988D01*
X15824391Y19240297D01*
X15818037Y19242442D01*
X15814720Y19242220D01*
X15811459Y19242870D01*
D02*
G37*
G36*
X14084937Y19037300D02*
X14038580D01*
Y18990942D01*
X14049448Y18993105D01*
X14069426Y19006454D01*
X14082774Y19026433D01*
X14084937Y19037300D01*
D02*
G37*
G36*
X14013181D02*
X13966823D01*
X13968985Y19026433D01*
X13982333Y19006454D01*
X14002313Y18993105D01*
X14013181Y18990942D01*
Y19037300D01*
D02*
G37*
G36*
X6019800Y18821616D02*
X5996389Y18816959D01*
X5976543Y18803697D01*
X5963281Y18783852D01*
X5958625Y18760440D01*
X5963281Y18737029D01*
X5976543Y18717183D01*
X5996389Y18703922D01*
X6019800Y18699265D01*
X6043211Y18703922D01*
X6063057Y18717183D01*
X6076319Y18737029D01*
X6080975Y18760440D01*
X6076319Y18783852D01*
X6063057Y18803697D01*
X6043211Y18816959D01*
X6019800Y18821616D01*
D02*
G37*
G36*
X8594334Y18734361D02*
X8570923Y18729704D01*
X8551076Y18716443D01*
X8537815Y18696597D01*
X8533158Y18673186D01*
X8537815Y18649776D01*
X8551076Y18629929D01*
X8570923Y18616667D01*
X8594334Y18612012D01*
X8617745Y18616667D01*
X8637591Y18629929D01*
X8650853Y18649776D01*
X8655509Y18673186D01*
X8650853Y18696597D01*
X8637591Y18716443D01*
X8617745Y18729704D01*
X8594334Y18734361D01*
D02*
G37*
G36*
X7826520Y18740828D02*
X7803109Y18736172D01*
X7783262Y18722910D01*
X7770001Y18703064D01*
X7765344Y18679652D01*
X7770001Y18656242D01*
X7783262Y18636395D01*
X7803109Y18623134D01*
X7826520Y18618477D01*
X7849931Y18623134D01*
X7850421Y18623462D01*
X8409170D01*
X8410823Y18620988D01*
X8430669Y18607726D01*
X8454080Y18603070D01*
X8477491Y18607726D01*
X8497338Y18620988D01*
X8510599Y18640834D01*
X8515256Y18664246D01*
X8510599Y18687656D01*
X8497338Y18707503D01*
X8477491Y18720764D01*
X8454080Y18725421D01*
X8430669Y18720764D01*
X8410823Y18707503D01*
X8409170Y18705029D01*
X7881726D01*
X7869777Y18722910D01*
X7849931Y18736172D01*
X7826520Y18740828D01*
D02*
G37*
G36*
X11960860Y18722556D02*
X11937449Y18717899D01*
X11917603Y18704637D01*
X11904341Y18684792D01*
X11899685Y18661380D01*
X11904341Y18637968D01*
X11917603Y18618123D01*
X11937449Y18604861D01*
X11960860Y18600204D01*
X11984271Y18604861D01*
X12004117Y18618123D01*
X12017379Y18637968D01*
X12022035Y18661380D01*
X12017379Y18684792D01*
X12004117Y18704637D01*
X11984271Y18717899D01*
X11960860Y18722556D01*
D02*
G37*
G36*
X12379960Y18596617D02*
X12356549Y18591962D01*
X12336703Y18578699D01*
X12323441Y18558853D01*
X12318785Y18535442D01*
X12323441Y18512032D01*
X12336703Y18492184D01*
X12356549Y18478923D01*
X12379960Y18474266D01*
X12403371Y18478923D01*
X12423217Y18492184D01*
X12436479Y18512032D01*
X12441135Y18535442D01*
X12436479Y18558853D01*
X12423217Y18578699D01*
X12403371Y18591962D01*
X12379960Y18596617D01*
D02*
G37*
G36*
X8572500Y18479137D02*
Y18432780D01*
X8618857D01*
X8616695Y18443646D01*
X8603346Y18463626D01*
X8583367Y18476974D01*
X8572500Y18479137D01*
D02*
G37*
G36*
X8547100D02*
X8536233Y18476974D01*
X8516254Y18463626D01*
X8502905Y18443646D01*
X8500743Y18432780D01*
X8547100D01*
Y18479137D01*
D02*
G37*
G36*
X8842169Y18926096D02*
X8818758Y18921439D01*
X8798912Y18908179D01*
X8785650Y18888332D01*
X8780994Y18864920D01*
X8785650Y18841508D01*
X8798912Y18821663D01*
X8801386Y18820010D01*
Y18684993D01*
X8801385Y18684991D01*
X8804490Y18669385D01*
X8813331Y18656152D01*
X8929877Y18539607D01*
X8929297Y18536690D01*
X8933953Y18513278D01*
X8947215Y18493431D01*
X8967061Y18480170D01*
X8990472Y18475513D01*
X9013883Y18480170D01*
X9015480Y18481236D01*
X9026910Y18473599D01*
X9025657Y18467299D01*
X9030313Y18443887D01*
X9043575Y18424042D01*
X9063421Y18410780D01*
X9086832Y18406123D01*
X9110243Y18410780D01*
X9130090Y18424042D01*
X9143351Y18443887D01*
X9148008Y18467299D01*
X9143351Y18490710D01*
X9130090Y18510556D01*
X9110243Y18523817D01*
X9086832Y18528474D01*
X9063421Y18523817D01*
X9061824Y18522749D01*
X9050394Y18530386D01*
X9051648Y18536690D01*
X9046991Y18560100D01*
X9033730Y18579945D01*
X9013883Y18593208D01*
X8990472Y18597864D01*
X8987554Y18597284D01*
X8882953Y18701884D01*
Y18820010D01*
X8885427Y18821663D01*
X8898688Y18841508D01*
X8903345Y18864920D01*
X8898688Y18888332D01*
X8885427Y18908179D01*
X8865580Y18921439D01*
X8842169Y18926096D01*
D02*
G37*
G36*
X11761678Y18392284D02*
X11761677Y18392284D01*
X10890454D01*
X10890453Y18392284D01*
X10874846Y18389178D01*
X10861615Y18380338D01*
X10696318Y18215042D01*
X10693400Y18215622D01*
X10669989Y18210966D01*
X10650143Y18197704D01*
X10636881Y18177858D01*
X10632225Y18154446D01*
X10636881Y18131036D01*
X10641526Y18124084D01*
X10635540Y18112885D01*
X10526663D01*
X10520676Y18124084D01*
X10525627Y18131493D01*
X10530283Y18154904D01*
X10525627Y18178316D01*
X10512365Y18198161D01*
X10492519Y18211423D01*
X10469108Y18216080D01*
X10445697Y18211423D01*
X10425850Y18198161D01*
X10412589Y18178316D01*
X10407932Y18154904D01*
X10412589Y18131493D01*
X10417540Y18124084D01*
X10411553Y18112885D01*
X9541893D01*
X9431459Y18223318D01*
X9418228Y18232159D01*
X9402620Y18235265D01*
X9402619Y18235263D01*
X6815963D01*
X6800356Y18232159D01*
X6787125Y18223318D01*
X6787124Y18223317D01*
X4631258Y16067451D01*
X3445408D01*
X3193368Y16319492D01*
Y16326701D01*
X3193368Y16326701D01*
X3190264Y16342310D01*
X3181423Y16355540D01*
X3181422Y16355540D01*
X2929595Y16607368D01*
X2930175Y16610287D01*
X2925519Y16633698D01*
X2912258Y16653545D01*
X2892411Y16666806D01*
X2869000Y16671461D01*
X2845589Y16666806D01*
X2825743Y16653545D01*
X2812481Y16633698D01*
X2807825Y16610287D01*
X2812481Y16586876D01*
X2825743Y16567029D01*
X2845589Y16553767D01*
X2869000Y16549110D01*
X2871918Y16549692D01*
X3111801Y16309808D01*
Y16302600D01*
X3111801Y16302599D01*
X3114905Y16286992D01*
X3123746Y16273759D01*
X3399676Y15997832D01*
X3399676Y15997830D01*
X3412908Y15988989D01*
X3428515Y15985886D01*
X3428516Y15985886D01*
X4648150D01*
X4648152Y15985886D01*
X4663759Y15988989D01*
X4676990Y15997830D01*
X6832856Y18153696D01*
X7948688D01*
X7952541Y18140996D01*
X7947288Y18137486D01*
X7934027Y18117639D01*
X7929370Y18094228D01*
X7934027Y18070818D01*
X7947288Y18050970D01*
X7949762Y18049318D01*
Y17168867D01*
X7949762Y17168866D01*
X7952866Y17153259D01*
X7961707Y17140027D01*
X8131798Y16969936D01*
X8145029Y16961096D01*
X8160636Y16957991D01*
X12975641D01*
X13958563Y15975070D01*
X13958563Y15975069D01*
X13971794Y15966229D01*
X13987402Y15963124D01*
X15479552D01*
X15481206Y15960651D01*
X15501051Y15947389D01*
X15524461Y15942732D01*
X15547873Y15947389D01*
X15567720Y15960651D01*
X15580981Y15980498D01*
X15585638Y16003908D01*
X15580981Y16027318D01*
X15567720Y16047165D01*
X15547873Y16060426D01*
X15524461Y16065083D01*
X15501051Y16060426D01*
X15481206Y16047165D01*
X15479552Y16044691D01*
X14004295D01*
X13021373Y17027612D01*
X13008142Y17036453D01*
X12992535Y17039558D01*
X12992532Y17039558D01*
X8177530D01*
X8031329Y17185759D01*
Y18049318D01*
X8033803Y18050970D01*
X8047064Y18070818D01*
X8051721Y18094228D01*
X8047064Y18117639D01*
X8033803Y18137486D01*
X8028550Y18140996D01*
X8032402Y18153696D01*
X8065497D01*
X8071483Y18142496D01*
X8068941Y18138692D01*
X8064285Y18115280D01*
X8068941Y18091869D01*
X8082203Y18072023D01*
X8102049Y18058762D01*
X8117367Y18055714D01*
Y18042766D01*
X8102049Y18039719D01*
X8082203Y18026457D01*
X8068941Y18006612D01*
X8064285Y17983200D01*
X8068941Y17959789D01*
X8082203Y17939943D01*
X8102049Y17926682D01*
X8125460Y17922025D01*
X8148871Y17926682D01*
X8168717Y17939943D01*
X8181979Y17959789D01*
X8186635Y17983200D01*
X8181979Y18006612D01*
X8168717Y18026457D01*
X8148871Y18039719D01*
X8133553Y18042766D01*
Y18055714D01*
X8148871Y18058762D01*
X8168717Y18072023D01*
X8181979Y18091869D01*
X8186635Y18115280D01*
X8181979Y18138692D01*
X8179437Y18142496D01*
X8185423Y18153696D01*
X9385727D01*
X9496161Y18043262D01*
X9496162Y18043262D01*
X9509393Y18034421D01*
X9525000Y18031316D01*
X10810239D01*
X10810240Y18031316D01*
X10825847Y18034421D01*
X10839078Y18043262D01*
X10909480Y18113663D01*
X11080289D01*
X11081943Y18111189D01*
X11101789Y18097928D01*
X11125200Y18093271D01*
X11148611Y18097928D01*
X11168457Y18111189D01*
X11181719Y18131036D01*
X11186375Y18154446D01*
X11181719Y18177858D01*
X11168457Y18197704D01*
X11148611Y18210966D01*
X11125200Y18215622D01*
X11101789Y18210966D01*
X11081943Y18197704D01*
X11080289Y18195230D01*
X10892588D01*
X10892587Y18195232D01*
X10876980Y18192126D01*
X10863748Y18183286D01*
X10793347Y18112885D01*
X10751260D01*
X10745274Y18124084D01*
X10749919Y18131036D01*
X10754575Y18154446D01*
X10753995Y18157365D01*
X10907346Y18310716D01*
X11744785D01*
X11898142Y18157359D01*
X11897561Y18154442D01*
X11902218Y18131030D01*
X11915479Y18111185D01*
X11932772Y18099631D01*
X11932340Y18089102D01*
X11931431Y18086414D01*
X11920991Y18084337D01*
X11901012Y18070988D01*
X11887663Y18051009D01*
X11885501Y18040141D01*
X12003615D01*
X12001454Y18051009D01*
X11988104Y18070988D01*
X11970608Y18082680D01*
X11970961Y18092909D01*
X11971948Y18095894D01*
X11982147Y18097923D01*
X12001994Y18111185D01*
X12015255Y18131030D01*
X12019912Y18154442D01*
X12015255Y18177853D01*
X12001994Y18197699D01*
X11996364Y18201460D01*
Y18214162D01*
X12004117Y18219344D01*
X12017379Y18239189D01*
X12022035Y18262601D01*
X12017379Y18286011D01*
X12004117Y18305856D01*
X11984271Y18319119D01*
X11960860Y18323775D01*
X11937449Y18319119D01*
X11917603Y18305856D01*
X11904341Y18286011D01*
X11903734Y18282961D01*
X11891581Y18279274D01*
X11790517Y18380338D01*
X11777286Y18389178D01*
X11774696Y18389694D01*
X11761678Y18392284D01*
D02*
G37*
G36*
X14038580Y18425797D02*
Y18379440D01*
X14084937D01*
X14082774Y18390308D01*
X14069426Y18410286D01*
X14049448Y18423634D01*
X14038580Y18425797D01*
D02*
G37*
G36*
X14013181D02*
X14002313Y18423634D01*
X13982333Y18410286D01*
X13968985Y18390308D01*
X13966823Y18379440D01*
X14013181D01*
Y18425797D01*
D02*
G37*
G36*
X11911147Y18574910D02*
X11887736Y18570253D01*
X11867890Y18556992D01*
X11854629Y18537146D01*
X11849972Y18513734D01*
X11854629Y18490324D01*
X11867890Y18470477D01*
X11887736Y18457216D01*
X11903905Y18453999D01*
X11899685Y18432780D01*
X11904341Y18409369D01*
X11917603Y18389523D01*
X11937449Y18376260D01*
X11960860Y18371605D01*
X11984271Y18376260D01*
X12004117Y18389523D01*
X12017379Y18409369D01*
X12022035Y18432780D01*
X12017379Y18456190D01*
X12004117Y18476038D01*
X11984271Y18489299D01*
X11968102Y18492516D01*
X11972323Y18513734D01*
X11967666Y18537146D01*
X11954405Y18556992D01*
X11934558Y18570253D01*
X11911147Y18574910D01*
D02*
G37*
G36*
X8618857Y18407381D02*
X8572500D01*
Y18361023D01*
X8583367Y18363185D01*
X8603346Y18376534D01*
X8616695Y18396513D01*
X8618857Y18407381D01*
D02*
G37*
G36*
X8547100D02*
X8500743D01*
X8502905Y18396513D01*
X8516254Y18376534D01*
X8536233Y18363185D01*
X8547100Y18361023D01*
Y18407381D01*
D02*
G37*
G36*
X8162920Y18598441D02*
X8139509Y18593784D01*
X8119662Y18580524D01*
X8106401Y18560677D01*
X8101745Y18537265D01*
X8106401Y18513855D01*
X8119662Y18494008D01*
X8139509Y18480746D01*
X8142006Y18480251D01*
Y18467300D01*
X8139509Y18466805D01*
X8119662Y18453543D01*
X8106401Y18433698D01*
X8101745Y18410286D01*
X8106401Y18386874D01*
X8119662Y18367027D01*
X8139509Y18353767D01*
X8162920Y18349110D01*
X8186331Y18353767D01*
X8206177Y18367027D01*
X8219439Y18386874D01*
X8224095Y18410286D01*
X8219439Y18433698D01*
X8206177Y18453543D01*
X8186331Y18466805D01*
X8183834Y18467300D01*
Y18480251D01*
X8186331Y18480746D01*
X8206177Y18494008D01*
X8219439Y18513855D01*
X8224095Y18537265D01*
X8219439Y18560677D01*
X8206177Y18580524D01*
X8186331Y18593784D01*
X8162920Y18598441D01*
D02*
G37*
G36*
X12456160Y18469617D02*
X12432749Y18464961D01*
X12412903Y18451698D01*
X12399641Y18431853D01*
X12394985Y18408443D01*
X12399641Y18385031D01*
X12412903Y18365184D01*
X12432749Y18351923D01*
X12456160Y18347266D01*
X12479571Y18351923D01*
X12499417Y18365184D01*
X12512679Y18385031D01*
X12517335Y18408443D01*
X12512679Y18431853D01*
X12499417Y18451698D01*
X12479571Y18464961D01*
X12456160Y18469617D01*
D02*
G37*
G36*
X14084937Y18354041D02*
X14038580D01*
Y18307683D01*
X14049448Y18309845D01*
X14069426Y18323193D01*
X14082774Y18343173D01*
X14084937Y18354041D01*
D02*
G37*
G36*
X14013181D02*
X13966823D01*
X13968985Y18343173D01*
X13982333Y18323193D01*
X14002313Y18309845D01*
X14013181Y18307683D01*
Y18354041D01*
D02*
G37*
G36*
X9161539Y18381281D02*
X9138128Y18376624D01*
X9118281Y18363364D01*
X9105020Y18343517D01*
X9100363Y18320107D01*
X9105020Y18296695D01*
X9118281Y18276848D01*
X9138128Y18263586D01*
X9161539Y18258929D01*
X9184950Y18263586D01*
X9204796Y18276848D01*
X9218058Y18296695D01*
X9222714Y18320107D01*
X9218058Y18343517D01*
X9204796Y18363364D01*
X9184950Y18376624D01*
X9161539Y18381281D01*
D02*
G37*
G36*
X9922556Y18343079D02*
X9899145Y18338423D01*
X9879298Y18325162D01*
X9866037Y18305315D01*
X9861380Y18281905D01*
X9866037Y18258493D01*
X9879298Y18238647D01*
X9899145Y18225385D01*
X9922556Y18220729D01*
X9945967Y18225385D01*
X9965813Y18238647D01*
X9979075Y18258493D01*
X9983731Y18281905D01*
X9979075Y18305315D01*
X9965813Y18325162D01*
X9945967Y18338423D01*
X9922556Y18343079D01*
D02*
G37*
G36*
X13229382Y18449225D02*
X13213774Y18446121D01*
X13200543Y18437280D01*
X13199483Y18436218D01*
X13190640Y18422987D01*
X13187537Y18407381D01*
X13187537Y18407379D01*
Y17568294D01*
X13170787Y17551544D01*
X12528982D01*
X12526536Y17564006D01*
X12529126Y17564520D01*
X12542357Y17573363D01*
X12699701Y17730705D01*
X12705003Y17730183D01*
X12724849Y17716924D01*
X12748260Y17712267D01*
X12771671Y17716924D01*
X12791517Y17730183D01*
X12804779Y17750031D01*
X12809435Y17773442D01*
X12804779Y17796854D01*
X12791517Y17816699D01*
X12797183Y17828188D01*
X12865668Y17896672D01*
X12875533Y17888576D01*
X12869540Y17879611D01*
X12864885Y17856200D01*
X12869540Y17832790D01*
X12882803Y17812943D01*
X12902649Y17799681D01*
X12926060Y17795026D01*
X12949471Y17799681D01*
X12969318Y17812943D01*
X12982579Y17832790D01*
X12987234Y17856200D01*
X12982579Y17879611D01*
X12969318Y17899457D01*
X12949471Y17912720D01*
X12926060Y17917375D01*
X12902649Y17912720D01*
X12893684Y17906728D01*
X12885588Y17916592D01*
X12999342Y18030347D01*
X13002260Y18029765D01*
X13025671Y18034422D01*
X13045517Y18047684D01*
X13058778Y18067531D01*
X13063435Y18090942D01*
X13058778Y18114352D01*
X13045517Y18134200D01*
X13025671Y18147461D01*
X13002260Y18152116D01*
X12978848Y18147461D01*
X12959003Y18134200D01*
X12945741Y18114352D01*
X12941084Y18090942D01*
X12941666Y18088023D01*
X12719422Y17865781D01*
X12719421Y17865779D01*
X12687672Y17834030D01*
X12687671Y17834029D01*
X12496625Y17642984D01*
X12186230D01*
X12180244Y17654184D01*
X12182479Y17657529D01*
X12187135Y17680940D01*
X12182479Y17704350D01*
X12180244Y17707697D01*
X12186230Y17718896D01*
X12481559D01*
X12481560Y17718896D01*
X12497167Y17722002D01*
X12510398Y17730843D01*
X12777098Y17997542D01*
X12785939Y18010773D01*
X12789044Y18026379D01*
X12785939Y18041988D01*
X12777098Y18055219D01*
X12763867Y18064059D01*
X12748260Y18067165D01*
X12732653Y18064059D01*
X12719422Y18055219D01*
X12464667Y17800464D01*
X12023078D01*
X12017092Y17811664D01*
X12018339Y17813531D01*
X12022996Y17836942D01*
X12022624Y17838808D01*
X12030983Y17848157D01*
X12272999D01*
X12273001Y17848157D01*
X12288608Y17851260D01*
X12301839Y17860101D01*
X12554333Y18112596D01*
X12799196D01*
X12799197Y18112596D01*
X12814804Y18115701D01*
X12828036Y18124542D01*
X12924341Y18220847D01*
X12927258Y18220267D01*
X12950670Y18224924D01*
X12970515Y18238184D01*
X12983778Y18258031D01*
X12988434Y18281442D01*
X12983778Y18304852D01*
X12970515Y18324699D01*
X12950670Y18337961D01*
X12927258Y18342616D01*
X12903848Y18337961D01*
X12884001Y18324699D01*
X12870740Y18304852D01*
X12866083Y18281442D01*
X12866664Y18278523D01*
X12782304Y18194164D01*
X12537441D01*
X12537440Y18194164D01*
X12521833Y18191058D01*
X12508602Y18182217D01*
X12508601Y18182217D01*
X12256107Y17929724D01*
X12013820D01*
X12013819Y17929724D01*
X12013818Y17929724D01*
X11875768D01*
X11874115Y17932198D01*
X11854269Y17945459D01*
X11830858Y17950116D01*
X11807447Y17945459D01*
X11787600Y17932198D01*
X11774339Y17912352D01*
X11769682Y17888940D01*
X11774339Y17865530D01*
X11787600Y17845683D01*
X11807447Y17832422D01*
X11830858Y17827765D01*
X11854269Y17832422D01*
X11874115Y17845683D01*
X11875768Y17848157D01*
X11892866D01*
X11900923Y17838341D01*
X11900645Y17836942D01*
X11905301Y17813531D01*
X11906549Y17811664D01*
X11900562Y17800464D01*
X11818877D01*
X11817224Y17802937D01*
X11797378Y17816199D01*
X11773967Y17820856D01*
X11750556Y17816199D01*
X11730709Y17802937D01*
X11717448Y17783092D01*
X11712791Y17759680D01*
X11717448Y17736269D01*
X11730709Y17716423D01*
X11750556Y17703162D01*
X11773967Y17698505D01*
X11797378Y17703162D01*
X11817224Y17716423D01*
X11818877Y17718896D01*
X12065690D01*
X12071676Y17707697D01*
X12069441Y17704350D01*
X12064785Y17680940D01*
X12069441Y17657529D01*
X12071676Y17654184D01*
X12065690Y17642984D01*
X11670068D01*
X11542523Y17770529D01*
X11543103Y17773447D01*
X11538447Y17796858D01*
X11525185Y17816704D01*
X11505339Y17829967D01*
X11481928Y17834622D01*
X11471906Y17832629D01*
X11465650Y17844333D01*
X11485502Y17864185D01*
X11488420Y17863605D01*
X11511831Y17868262D01*
X11531677Y17881523D01*
X11544939Y17901369D01*
X11549595Y17924780D01*
X11544939Y17948190D01*
X11531677Y17968037D01*
X11511831Y17981299D01*
X11488420Y17985954D01*
X11465009Y17981299D01*
X11445163Y17968037D01*
X11431901Y17948190D01*
X11427245Y17924780D01*
X11427825Y17921861D01*
X11349607Y17843645D01*
X11122784D01*
X11118932Y17856345D01*
X11120197Y17857188D01*
X11133459Y17877036D01*
X11138115Y17900447D01*
X11133459Y17923859D01*
X11120197Y17943704D01*
X11100351Y17956966D01*
X11076940Y17961623D01*
X11053529Y17956966D01*
X11033683Y17943704D01*
X11020421Y17923859D01*
X11015765Y17900447D01*
X11020421Y17877036D01*
X11033683Y17857188D01*
X11034948Y17856345D01*
X11031096Y17843645D01*
X10739244D01*
X10735392Y17856345D01*
X10736657Y17857188D01*
X10749919Y17877036D01*
X10754575Y17900447D01*
X10749919Y17923859D01*
X10736657Y17943704D01*
X10716811Y17956966D01*
X10693400Y17961623D01*
X10669989Y17956966D01*
X10650143Y17943704D01*
X10648489Y17941229D01*
X9719842D01*
X9719432Y17941312D01*
X9703825Y17938206D01*
X9690594Y17929366D01*
X9681753Y17916135D01*
X9678648Y17900528D01*
X9681753Y17884921D01*
X9690594Y17871690D01*
X9690674Y17871609D01*
X9690675Y17871608D01*
X9703906Y17862767D01*
X9719513Y17859663D01*
X9719514Y17859663D01*
X10394064D01*
X10397916Y17846964D01*
X10396651Y17846117D01*
X10383389Y17826271D01*
X10378733Y17802859D01*
X10383389Y17779449D01*
X10396651Y17759602D01*
X10416497Y17746341D01*
X10439908Y17741685D01*
X10463319Y17746341D01*
X10483165Y17759602D01*
X10484819Y17762076D01*
X11251446D01*
X11256306Y17750343D01*
X11057507Y17551544D01*
X9394651D01*
X9392997Y17554018D01*
X9373151Y17567279D01*
X9349740Y17571935D01*
X9326329Y17567279D01*
X9306483Y17554018D01*
X9293221Y17534171D01*
X9288565Y17510760D01*
X9293221Y17487349D01*
X9306483Y17467503D01*
X9326329Y17454240D01*
X9349740Y17449585D01*
X9373151Y17454240D01*
X9392997Y17467503D01*
X9394651Y17469975D01*
X11074399D01*
X11074400Y17469975D01*
X11090007Y17473080D01*
X11103238Y17481921D01*
X11313983Y17692667D01*
X11325716Y17687807D01*
Y17653001D01*
X11325716Y17653000D01*
X11328821Y17637393D01*
X11337662Y17624162D01*
X11479901Y17481921D01*
X11479902Y17481921D01*
X11493133Y17473080D01*
X11508740Y17469975D01*
X11508741Y17469975D01*
X12957745D01*
X12958997Y17457277D01*
X12950838Y17455653D01*
X12937392Y17452979D01*
X12917545Y17439717D01*
X12904283Y17419872D01*
X12899628Y17396460D01*
X12904283Y17373048D01*
X12917545Y17353203D01*
X12937392Y17339941D01*
X12960802Y17335284D01*
X12984213Y17339941D01*
X13004060Y17353203D01*
X13017320Y17373048D01*
X13021979Y17396460D01*
X13017320Y17419872D01*
X13004060Y17439717D01*
X12984213Y17452979D01*
X12970767Y17455653D01*
X12962607Y17457277D01*
X12963858Y17469975D01*
X13187679D01*
X13187680Y17469975D01*
X13203287Y17473080D01*
X13216518Y17481921D01*
X13257158Y17522562D01*
X13257158Y17522562D01*
X13265999Y17535793D01*
X13269104Y17551401D01*
Y18403104D01*
X13270164Y18408443D01*
X13267061Y18424049D01*
X13258220Y18437280D01*
X13244989Y18446121D01*
X13229382Y18449225D01*
D02*
G37*
G36*
X11506200Y18290755D02*
X11482789Y18286099D01*
X11462943Y18272836D01*
X11449681Y18252991D01*
X11445025Y18229581D01*
X11449681Y18206169D01*
X11462943Y18186324D01*
X11482789Y18173061D01*
X11506200Y18168405D01*
X11529611Y18173061D01*
X11549457Y18186324D01*
X11562719Y18206169D01*
X11567375Y18229581D01*
X11562719Y18252991D01*
X11549457Y18272836D01*
X11529611Y18286099D01*
X11506200Y18290755D01*
D02*
G37*
G36*
X14038580Y18197197D02*
Y18150841D01*
X14084937D01*
X14082774Y18161707D01*
X14069426Y18181686D01*
X14049448Y18195035D01*
X14038580Y18197197D01*
D02*
G37*
G36*
X4381358Y18271581D02*
X4357947Y18266924D01*
X4338100Y18253664D01*
X4324839Y18233817D01*
X4320182Y18210406D01*
X4324839Y18186995D01*
X4338100Y18167148D01*
X4357947Y18153886D01*
X4381358Y18149229D01*
X4404769Y18153886D01*
X4424615Y18167148D01*
X4437877Y18186995D01*
X4442533Y18210406D01*
X4437877Y18233817D01*
X4424615Y18253664D01*
X4404769Y18266924D01*
X4381358Y18271581D01*
D02*
G37*
G36*
X10999627Y18086504D02*
Y18040147D01*
X11045985D01*
X11043823Y18051015D01*
X11030473Y18070993D01*
X11010494Y18084341D01*
X10999627Y18086504D01*
D02*
G37*
G36*
X10974227D02*
X10963361Y18084341D01*
X10943381Y18070993D01*
X10930032Y18051015D01*
X10927870Y18040147D01*
X10974227D01*
Y18086504D01*
D02*
G37*
G36*
X9027160Y18099448D02*
X9003749Y18094791D01*
X8983903Y18081531D01*
X8970641Y18061684D01*
X8965985Y18038272D01*
X8970641Y18014861D01*
X8983903Y17995015D01*
X9003749Y17981754D01*
X9027160Y17977097D01*
X9050571Y17981754D01*
X9070417Y17995015D01*
X9083679Y18014861D01*
X9088335Y18038272D01*
X9083679Y18061684D01*
X9070417Y18081531D01*
X9050571Y18094791D01*
X9027160Y18099448D01*
D02*
G37*
G36*
X11045985Y18014748D02*
X10999627D01*
Y17968390D01*
X11010494Y17970551D01*
X11030473Y17983900D01*
X11043823Y18003880D01*
X11045985Y18014748D01*
D02*
G37*
G36*
X10974227D02*
X10927870D01*
X10930032Y18003880D01*
X10943381Y17983900D01*
X10963361Y17970551D01*
X10974227Y17968390D01*
Y18014748D01*
D02*
G37*
G36*
X12003615Y18014742D02*
X11957258D01*
Y17968385D01*
X11968125Y17970546D01*
X11988104Y17983896D01*
X12001454Y18003876D01*
X12003615Y18014742D01*
D02*
G37*
G36*
X11931858D02*
X11885501D01*
X11887663Y18003876D01*
X11901012Y17983896D01*
X11920991Y17970546D01*
X11931858Y17968385D01*
Y18014742D01*
D02*
G37*
G36*
X9240520Y18031676D02*
X9217109Y18027019D01*
X9197263Y18013757D01*
X9184001Y17993912D01*
X9179345Y17970500D01*
X9184001Y17947089D01*
X9197263Y17927243D01*
X9217109Y17913982D01*
X9240520Y17909325D01*
X9263931Y17913982D01*
X9283777Y17927243D01*
X9297039Y17947089D01*
X9301695Y17970500D01*
X9297039Y17993912D01*
X9283777Y18013757D01*
X9263931Y18027019D01*
X9240520Y18031676D01*
D02*
G37*
G36*
X9090660Y17972469D02*
X9067249Y17967812D01*
X9047403Y17954550D01*
X9034141Y17934705D01*
X9029485Y17911293D01*
X9034141Y17887881D01*
X9047403Y17868034D01*
X9067249Y17854774D01*
X9090660Y17850117D01*
X9114071Y17854774D01*
X9133917Y17868034D01*
X9147179Y17887881D01*
X9151835Y17911293D01*
X9147179Y17934705D01*
X9133917Y17954550D01*
X9114071Y17967812D01*
X9090660Y17972469D01*
D02*
G37*
G36*
X12456820Y17961617D02*
X12433409Y17956961D01*
X12413563Y17943700D01*
X12400302Y17923853D01*
X12395645Y17900443D01*
X12400302Y17877031D01*
X12413563Y17857184D01*
X12433409Y17843922D01*
X12456820Y17839265D01*
X12480231Y17843922D01*
X12500078Y17857184D01*
X12513339Y17877031D01*
X12517996Y17900443D01*
X12513339Y17923853D01*
X12500078Y17943700D01*
X12480231Y17956961D01*
X12456820Y17961617D01*
D02*
G37*
G36*
X8592368Y17943156D02*
X8592367Y17943156D01*
X8465368D01*
X8449761Y17940051D01*
X8436529Y17931210D01*
X8427689Y17917979D01*
X8424584Y17902373D01*
X8427689Y17886765D01*
X8436529Y17873534D01*
X8449761Y17864693D01*
X8465368Y17861589D01*
X8575475D01*
X8672050Y17765015D01*
X8670439Y17748663D01*
X8660434Y17741977D01*
X8647172Y17722131D01*
X8642516Y17698720D01*
X8647172Y17675310D01*
X8660434Y17655463D01*
X8680280Y17642201D01*
X8703691Y17637544D01*
X8727102Y17642201D01*
X8746948Y17655463D01*
X8748602Y17657936D01*
X10005869D01*
X10007523Y17655463D01*
X10027369Y17642201D01*
X10050780Y17637544D01*
X10074191Y17642201D01*
X10094037Y17655463D01*
X10107299Y17675310D01*
X10111955Y17698720D01*
X10107299Y17722131D01*
X10094037Y17741977D01*
X10074191Y17755238D01*
X10050780Y17759895D01*
X10027369Y17755238D01*
X10007523Y17741977D01*
X10005869Y17739503D01*
X9290073D01*
X9284812Y17752203D01*
X9329042Y17796432D01*
X9331960Y17795853D01*
X9355371Y17800510D01*
X9375217Y17813771D01*
X9388479Y17833617D01*
X9393135Y17857028D01*
X9388479Y17880440D01*
X9375217Y17900285D01*
X9355371Y17913547D01*
X9331960Y17918204D01*
X9308549Y17913547D01*
X9288703Y17900285D01*
X9275441Y17880440D01*
X9270785Y17857028D01*
X9271365Y17854111D01*
X9230830Y17813576D01*
X8738842D01*
X8621206Y17931210D01*
X8607975Y17940051D01*
X8605386Y17940565D01*
X8592368Y17943156D01*
D02*
G37*
G36*
X8201660Y17457635D02*
X8178249Y17452979D01*
X8158403Y17439717D01*
X8145141Y17419872D01*
X8140485Y17396460D01*
X8145141Y17373048D01*
X8158403Y17353203D01*
X8178249Y17339941D01*
X8201660Y17335284D01*
X8225071Y17339941D01*
X8244917Y17353203D01*
X8258179Y17373048D01*
X8262835Y17396460D01*
X8258179Y17419872D01*
X8244917Y17439717D01*
X8225071Y17452979D01*
X8201660Y17457635D01*
D02*
G37*
G36*
X12841496Y16926750D02*
X12818085Y16922093D01*
X12798238Y16908832D01*
X12796585Y16906358D01*
X5958815D01*
X5943207Y16903255D01*
X5929976Y16894414D01*
X5929976Y16894412D01*
X5590202Y16554639D01*
X5587284Y16555219D01*
X5563873Y16550563D01*
X5544026Y16537302D01*
X5530765Y16517455D01*
X5526108Y16494044D01*
X5530765Y16470633D01*
X5544026Y16450786D01*
X5563873Y16437524D01*
X5587284Y16432867D01*
X5610695Y16437524D01*
X5630541Y16450786D01*
X5643803Y16470633D01*
X5648459Y16494044D01*
X5647879Y16496962D01*
X5975708Y16824791D01*
X12796585D01*
X12798238Y16822318D01*
X12818085Y16809056D01*
X12841496Y16804399D01*
X12864906Y16809056D01*
X12884753Y16822318D01*
X12898015Y16842165D01*
X12902670Y16865575D01*
X12898015Y16888986D01*
X12884753Y16908832D01*
X12864906Y16922093D01*
X12841496Y16926750D01*
D02*
G37*
G36*
X7803634Y16811838D02*
X7780223Y16807181D01*
X7760377Y16793919D01*
X7747116Y16774072D01*
X7742459Y16750662D01*
X7747116Y16727252D01*
X7760377Y16707405D01*
X7780223Y16694144D01*
X7803634Y16689487D01*
X7827045Y16694144D01*
X7846892Y16707405D01*
X7860153Y16727252D01*
X7864810Y16750662D01*
X7860153Y16774072D01*
X7846892Y16793919D01*
X7827045Y16807181D01*
X7803634Y16811838D01*
D02*
G37*
G36*
X15201900Y16398877D02*
Y16352521D01*
X15248257D01*
X15246095Y16363387D01*
X15232745Y16383366D01*
X15212767Y16396715D01*
X15201900Y16398877D01*
D02*
G37*
G36*
X15176500D02*
X15165633Y16396715D01*
X15145654Y16383366D01*
X15132304Y16363387D01*
X15130144Y16352521D01*
X15176500D01*
Y16398877D01*
D02*
G37*
G36*
X15248257Y16327119D02*
X15201900D01*
Y16280763D01*
X15212767Y16282925D01*
X15232745Y16296274D01*
X15246095Y16316254D01*
X15248257Y16327119D01*
D02*
G37*
G36*
X15176500D02*
X15130144D01*
X15132304Y16316254D01*
X15145654Y16296274D01*
X15165633Y16282925D01*
X15176500Y16280763D01*
Y16327119D01*
D02*
G37*
G36*
X11858196Y19222324D02*
X11834785Y19217667D01*
X11814938Y19204405D01*
X11801677Y19184560D01*
X11797020Y19161148D01*
X11801677Y19137737D01*
X11814938Y19117889D01*
X11834785Y19104630D01*
X11858196Y19099973D01*
X11881607Y19104630D01*
X11901453Y19117889D01*
X11903106Y19120364D01*
X14004927D01*
X14006178Y19107664D01*
X14002313Y19106895D01*
X13982333Y19093546D01*
X13968985Y19073567D01*
X13966823Y19062700D01*
X14084937D01*
X14082774Y19073567D01*
X14069426Y19093546D01*
X14049448Y19106895D01*
X14045583Y19107664D01*
X14046832Y19120364D01*
X14138792D01*
X16757805Y16501353D01*
X16757805Y16501352D01*
X16771037Y16492511D01*
X16786644Y16489407D01*
X16786646Y16489407D01*
X19352409D01*
X19615038Y16226781D01*
X19612444Y16214610D01*
X19610664Y16213193D01*
X19591216Y16200197D01*
X19589561Y16197723D01*
X16686005D01*
X14030949Y18852779D01*
X14017719Y18861620D01*
X14002110Y18864725D01*
X14002109Y18864725D01*
X13061098D01*
X13045490Y18861620D01*
X13032259Y18852779D01*
X13032259Y18852779D01*
X12362760Y18183279D01*
X12353919Y18170049D01*
X12350815Y18154442D01*
X12353919Y18138835D01*
X12362760Y18125603D01*
X12375991Y18116763D01*
X12391598Y18113658D01*
X12407205Y18116763D01*
X12420437Y18125603D01*
X13077991Y18783156D01*
X13985217D01*
X16640273Y16128102D01*
X16640273Y16128102D01*
X16653503Y16119261D01*
X16669112Y16116156D01*
X19589561D01*
X19591216Y16113683D01*
X19611063Y16100421D01*
X19634473Y16095766D01*
X19657884Y16100421D01*
X19677730Y16113683D01*
X19690726Y16133131D01*
X19692143Y16134911D01*
X19704314Y16137505D01*
X20204231Y15637587D01*
Y11932688D01*
X20204230Y11932686D01*
X20207335Y11917079D01*
X20216176Y11903848D01*
X20603217Y11516807D01*
X20602637Y11513889D01*
X20607294Y11490478D01*
X20608005Y11489412D01*
X20598140Y11481316D01*
X14013358Y18066098D01*
X14019614Y18077803D01*
X14025880Y18076556D01*
X14049448Y18081245D01*
X14069426Y18094594D01*
X14082774Y18114574D01*
X14084937Y18125439D01*
X14025880D01*
Y18138139D01*
X14013181D01*
Y18197197D01*
X14002313Y18195035D01*
X13982333Y18181686D01*
X13968985Y18161707D01*
X13964297Y18138139D01*
X13965543Y18131874D01*
X13953838Y18125618D01*
X13539098Y18540358D01*
X13525867Y18549199D01*
X13510260Y18552304D01*
X13510258Y18552304D01*
X12978340D01*
X12978339Y18552304D01*
X12962730Y18549199D01*
X12949500Y18540358D01*
X12751178Y18342036D01*
X12748260Y18342616D01*
X12724849Y18337961D01*
X12705003Y18324699D01*
X12691741Y18304852D01*
X12687085Y18281442D01*
X12691741Y18258031D01*
X12705003Y18238184D01*
X12724849Y18224924D01*
X12748260Y18220267D01*
X12771671Y18224924D01*
X12791517Y18238184D01*
X12804779Y18258031D01*
X12809435Y18281442D01*
X12808855Y18284360D01*
X12995232Y18470737D01*
X13493367D01*
X20885521Y11078582D01*
X20885522Y11078582D01*
X20898753Y11069741D01*
X20914360Y11066636D01*
X20955566D01*
X20957219Y11064163D01*
X20977065Y11050901D01*
X21000476Y11046245D01*
X21023888Y11050901D01*
X21043735Y11064163D01*
X21056995Y11084009D01*
X21061652Y11107420D01*
X21056995Y11130831D01*
X21043735Y11150677D01*
X21023888Y11163939D01*
X21000476Y11168595D01*
X20977065Y11163939D01*
X20957219Y11150677D01*
X20955566Y11148204D01*
X20931253D01*
X20631239Y11448217D01*
X20639336Y11458082D01*
X20640401Y11457370D01*
X20663812Y11452713D01*
X20687222Y11457370D01*
X20707069Y11470631D01*
X20720331Y11490478D01*
X20724986Y11513889D01*
X20720331Y11537300D01*
X20707069Y11557146D01*
X20687222Y11570407D01*
X20663812Y11575064D01*
X20660893Y11574484D01*
X20285799Y11949580D01*
Y15654478D01*
X20285799Y15654480D01*
X20282693Y15670087D01*
X20273853Y15683318D01*
X20273853Y15683319D01*
X19398141Y16559029D01*
X19384911Y16567870D01*
X19369302Y16570975D01*
X19369302Y16570975D01*
X16803537D01*
X14184525Y19189986D01*
X14171294Y19198827D01*
X14155685Y19201932D01*
X14155685Y19201932D01*
X11903106D01*
X11901453Y19204405D01*
X11881607Y19217667D01*
X11858196Y19222324D01*
D02*
G37*
G36*
X2983149Y16177925D02*
X2959738Y16173268D01*
X2939891Y16160007D01*
X2926630Y16140161D01*
X2921973Y16116750D01*
X2926630Y16093340D01*
X2939891Y16073492D01*
X2959738Y16060231D01*
X2983149Y16055574D01*
X3006560Y16060231D01*
X3026406Y16073492D01*
X3028059Y16075966D01*
X3150850D01*
X3417756Y15809061D01*
X3417756Y15809061D01*
X3430987Y15800220D01*
X3446595Y15797115D01*
X4859719D01*
X4859720Y15797115D01*
X4875328Y15800220D01*
X4888559Y15809061D01*
X5114967Y16035468D01*
X6477114D01*
X6478767Y16032994D01*
X6498613Y16019733D01*
X6522024Y16015076D01*
X6545435Y16019733D01*
X6565282Y16032994D01*
X6578543Y16052841D01*
X6583199Y16076253D01*
X6578543Y16099663D01*
X6565282Y16119508D01*
X6545435Y16132771D01*
X6522024Y16137427D01*
X6498613Y16132771D01*
X6478767Y16119508D01*
X6477114Y16117035D01*
X5098075D01*
X5098074Y16117036D01*
X5082467Y16113931D01*
X5069235Y16105090D01*
X4842827Y15878682D01*
X3463488D01*
X3196582Y16145589D01*
X3183351Y16154430D01*
X3167743Y16157533D01*
X3167742Y16157533D01*
X3028059D01*
X3026406Y16160007D01*
X3006560Y16173268D01*
X2983149Y16177925D01*
D02*
G37*
G36*
X19677760Y15941255D02*
X19654350Y15936600D01*
X19634505Y15923337D01*
X19621242Y15903491D01*
X19616586Y15880080D01*
X19621242Y15856670D01*
X19634505Y15836823D01*
X19654350Y15823561D01*
X19677760Y15818906D01*
X19701172Y15823561D01*
X19721017Y15836823D01*
X19734280Y15856670D01*
X19738936Y15880080D01*
X19734280Y15903491D01*
X19721017Y15923337D01*
X19701172Y15936600D01*
X19677760Y15941255D01*
D02*
G37*
G36*
X19344627Y15924023D02*
X19321216Y15919366D01*
X19301370Y15906107D01*
X19288107Y15886259D01*
X19283452Y15862849D01*
X19288107Y15839438D01*
X19301370Y15819591D01*
X19321216Y15806329D01*
X19344627Y15801672D01*
X19368037Y15806329D01*
X19387885Y15819591D01*
X19401146Y15839438D01*
X19405803Y15862849D01*
X19401146Y15886259D01*
X19387885Y15906107D01*
X19368037Y15919366D01*
X19344627Y15924023D01*
D02*
G37*
G36*
X2808300Y15862328D02*
X2801798Y15861034D01*
X2795182Y15860609D01*
X2792128Y15859109D01*
X2788791Y15858447D01*
X2783279Y15854764D01*
X2777328Y15851840D01*
X2775081Y15849286D01*
X2772252Y15847395D01*
X2768570Y15841884D01*
X2764190Y15836906D01*
X2763092Y15833685D01*
X2761201Y15830856D01*
X2759908Y15824355D01*
X2757767Y15818080D01*
X2757984Y15814685D01*
X2757321Y15811348D01*
X2758614Y15804845D01*
X2759037Y15798228D01*
X2760538Y15795175D01*
X2761201Y15791840D01*
X2764884Y15786327D01*
X2767808Y15780376D01*
X2770362Y15778128D01*
X2772252Y15775301D01*
X2777764Y15771617D01*
X2782742Y15767236D01*
X2785962Y15766139D01*
X2788791Y15764249D01*
X2795294Y15762955D01*
X2801568Y15760815D01*
X2804963Y15761032D01*
X2808300Y15760368D01*
X2814803Y15761661D01*
X2821419Y15762085D01*
X2824472Y15763585D01*
X2827809Y15764249D01*
X2833321Y15767932D01*
X2839272Y15770856D01*
X2841520Y15773410D01*
X2844348Y15775301D01*
X2848031Y15780811D01*
X2852410Y15785789D01*
X2853509Y15789011D01*
X2855399Y15791840D01*
X2856693Y15798341D01*
X2858833Y15804614D01*
X2858616Y15808011D01*
X2859280Y15811348D01*
X2857986Y15817850D01*
X2857563Y15824466D01*
X2856063Y15827521D01*
X2855399Y15830856D01*
X2851716Y15836369D01*
X2848793Y15842320D01*
X2846238Y15844566D01*
X2844348Y15847395D01*
X2838836Y15851077D01*
X2833858Y15855458D01*
X2830638Y15856557D01*
X2827809Y15858447D01*
X2821307Y15859740D01*
X2815032Y15861880D01*
X2811637Y15861662D01*
X2808300Y15862328D01*
D02*
G37*
G36*
X19262785Y15739635D02*
X19259450Y15738971D01*
X19256055Y15739189D01*
X19249779Y15737048D01*
X19243277Y15735754D01*
X19240450Y15733865D01*
X19237228Y15732767D01*
X19232249Y15728386D01*
X19226738Y15724702D01*
X19224849Y15721877D01*
X19222295Y15719627D01*
X19219370Y15713676D01*
X19215688Y15708163D01*
X19215022Y15704828D01*
X19213522Y15701775D01*
X19213100Y15695158D01*
X19211806Y15688655D01*
X19212469Y15685320D01*
X19212253Y15681924D01*
X19214394Y15675648D01*
X19215688Y15669147D01*
X19217577Y15666318D01*
X19218675Y15663098D01*
X19223055Y15658119D01*
X19226738Y15652608D01*
X19229565Y15650719D01*
X19231813Y15648163D01*
X19237766Y15645239D01*
X19243277Y15641556D01*
X19246613Y15640894D01*
X19249667Y15639394D01*
X19256284Y15638969D01*
X19262785Y15637675D01*
X19266122Y15638341D01*
X19269518Y15638123D01*
X19275793Y15640263D01*
X19282295Y15641556D01*
X19285123Y15643446D01*
X19288342Y15644545D01*
X19293323Y15648924D01*
X19298834Y15652608D01*
X19300723Y15655435D01*
X19303278Y15657683D01*
X19306203Y15663634D01*
X19309885Y15669147D01*
X19310548Y15672482D01*
X19312048Y15675536D01*
X19312473Y15682153D01*
X19313766Y15688655D01*
X19313103Y15691992D01*
X19313319Y15695387D01*
X19311179Y15701662D01*
X19309885Y15708163D01*
X19307996Y15710992D01*
X19306897Y15714214D01*
X19302518Y15719193D01*
X19298834Y15724702D01*
X19296005Y15726593D01*
X19293759Y15729147D01*
X19287807Y15732071D01*
X19282295Y15735754D01*
X19278960Y15736418D01*
X19275905Y15737918D01*
X19269289Y15738342D01*
X19262785Y15739635D01*
D02*
G37*
G36*
X8482239Y15137015D02*
X8458828Y15132359D01*
X8438981Y15119096D01*
X8425720Y15099251D01*
X8421063Y15075841D01*
X8425720Y15052429D01*
X8438981Y15032582D01*
X8458828Y15019321D01*
X8482239Y15014664D01*
X8505649Y15019321D01*
X8525496Y15032582D01*
X8538757Y15052429D01*
X8543414Y15075841D01*
X8538757Y15099251D01*
X8525496Y15119096D01*
X8505649Y15132359D01*
X8482239Y15137015D01*
D02*
G37*
G36*
X14787880Y15003995D02*
X14764468Y14999339D01*
X14744623Y14986076D01*
X14731361Y14966231D01*
X14726704Y14942821D01*
X14731361Y14919409D01*
X14744623Y14899564D01*
X14764468Y14886301D01*
X14787880Y14881645D01*
X14811292Y14886301D01*
X14831137Y14899564D01*
X14844398Y14919409D01*
X14849055Y14942821D01*
X14844398Y14966231D01*
X14831137Y14986076D01*
X14811292Y14999339D01*
X14787880Y15003995D01*
D02*
G37*
G36*
X6888480D02*
X6865069Y14999339D01*
X6845223Y14986076D01*
X6831961Y14966231D01*
X6827305Y14942821D01*
X6831961Y14919409D01*
X6845223Y14899564D01*
X6865069Y14886301D01*
X6888480Y14881645D01*
X6911891Y14886301D01*
X6931737Y14899564D01*
X6944999Y14919409D01*
X6949655Y14942821D01*
X6944999Y14966231D01*
X6931737Y14986076D01*
X6911891Y14999339D01*
X6888480Y15003995D01*
D02*
G37*
G36*
X7474260Y16343480D02*
X7450849Y16338823D01*
X7431002Y16325562D01*
X7417741Y16305714D01*
X7413084Y16282304D01*
X7417741Y16258893D01*
X7431002Y16239047D01*
X7450849Y16225784D01*
X7474260Y16221129D01*
X7497671Y16225784D01*
X7517517Y16239047D01*
X7519170Y16241521D01*
X10599039D01*
X12152401Y14688159D01*
X12151820Y14685242D01*
X12156477Y14661830D01*
X12169738Y14641985D01*
X12189585Y14628722D01*
X12212996Y14624066D01*
X12236407Y14628722D01*
X12256253Y14641985D01*
X12269514Y14661830D01*
X12274171Y14685242D01*
X12269514Y14708652D01*
X12256253Y14728499D01*
X12236407Y14741760D01*
X12212996Y14746417D01*
X12210077Y14745836D01*
X10644771Y16311143D01*
X10631540Y16319983D01*
X10615933Y16323088D01*
X10615931Y16323088D01*
X7519170D01*
X7517517Y16325562D01*
X7497671Y16338823D01*
X7474260Y16343480D01*
D02*
G37*
G36*
X15519400Y14544255D02*
X15495988Y14539600D01*
X15476143Y14526337D01*
X15474489Y14523865D01*
X5937711D01*
X5936057Y14526337D01*
X5916211Y14539600D01*
X5892800Y14544255D01*
X5869389Y14539600D01*
X5849543Y14526337D01*
X5847889Y14523865D01*
X5447694D01*
X5446041Y14526337D01*
X5426194Y14539600D01*
X5402783Y14544255D01*
X5379372Y14539600D01*
X5359526Y14526337D01*
X5346264Y14506491D01*
X5341608Y14483080D01*
X5346264Y14459669D01*
X5359526Y14439822D01*
X5379372Y14426561D01*
X5402783Y14421906D01*
X5426194Y14426561D01*
X5446041Y14439822D01*
X5447694Y14442296D01*
X5847889D01*
X5849543Y14439822D01*
X5869389Y14426561D01*
X5892800Y14421906D01*
X5916211Y14426561D01*
X5936057Y14439822D01*
X5937711Y14442296D01*
X15474489D01*
X15476143Y14439822D01*
X15495988Y14426561D01*
X15519400Y14421906D01*
X15542812Y14426561D01*
X15562657Y14439822D01*
X15575919Y14459669D01*
X15580576Y14483080D01*
X15575919Y14506491D01*
X15562657Y14526337D01*
X15542812Y14539600D01*
X15519400Y14544255D01*
D02*
G37*
G36*
X3937000Y14567114D02*
X3913589Y14562459D01*
X3893743Y14549197D01*
X3880481Y14529350D01*
X3875825Y14505940D01*
X3880481Y14482529D01*
X3893743Y14462683D01*
X3913589Y14449422D01*
X3937000Y14444765D01*
X3960411Y14449422D01*
X3980257Y14462683D01*
X3993519Y14482529D01*
X3998175Y14505940D01*
X3993519Y14529350D01*
X3980257Y14549197D01*
X3960411Y14562459D01*
X3937000Y14567114D01*
D02*
G37*
G36*
X2427994Y14269745D02*
X2404583Y14265088D01*
X2384736Y14251826D01*
X2371475Y14231979D01*
X2366818Y14208569D01*
X2371475Y14185159D01*
X2384736Y14165312D01*
X2404583Y14152051D01*
X2427994Y14147394D01*
X2451405Y14152051D01*
X2471251Y14165312D01*
X2484512Y14185159D01*
X2489169Y14208569D01*
X2484512Y14231979D01*
X2471251Y14251826D01*
X2451405Y14265088D01*
X2427994Y14269745D01*
D02*
G37*
G36*
X5506720Y14249615D02*
X5483309Y14244958D01*
X5463463Y14231697D01*
X5450201Y14211852D01*
X5445545Y14188440D01*
X5450201Y14165028D01*
X5463463Y14145183D01*
X5483309Y14131921D01*
X5506720Y14127264D01*
X5530131Y14131921D01*
X5549977Y14145183D01*
X5563239Y14165028D01*
X5567895Y14188440D01*
X5563239Y14211852D01*
X5549977Y14231697D01*
X5530131Y14244958D01*
X5506720Y14249615D01*
D02*
G37*
G36*
X4940300Y14196275D02*
X4916889Y14191618D01*
X4897043Y14178357D01*
X4883781Y14158511D01*
X4879125Y14135100D01*
X4883781Y14111690D01*
X4897043Y14091843D01*
X4916889Y14078581D01*
X4940300Y14073924D01*
X4963711Y14078581D01*
X4983557Y14091843D01*
X4996819Y14111690D01*
X5001475Y14135100D01*
X4996819Y14158511D01*
X4983557Y14178357D01*
X4963711Y14191618D01*
X4940300Y14196275D01*
D02*
G37*
G36*
X4554220Y14776315D02*
X4530809Y14771658D01*
X4510963Y14758397D01*
X4497701Y14738550D01*
X4493045Y14715138D01*
X4497701Y14691730D01*
X4510963Y14671883D01*
X4530809Y14658621D01*
X4554220Y14653964D01*
X4557138Y14654544D01*
X5184821Y14026862D01*
X5184821Y14026862D01*
X5198053Y14018021D01*
X5213660Y14014915D01*
X5213661Y14014915D01*
X5327631D01*
X5329284Y14012442D01*
X5349131Y13999181D01*
X5372542Y13994524D01*
X5395953Y13999181D01*
X5415799Y14012442D01*
X5429061Y14032289D01*
X5433717Y14055701D01*
X5429061Y14079111D01*
X5415799Y14098956D01*
X5395953Y14112218D01*
X5372542Y14116875D01*
X5349131Y14112218D01*
X5329284Y14098956D01*
X5327631Y14096483D01*
X5230553D01*
X4614815Y14712221D01*
X4615395Y14715138D01*
X4610739Y14738550D01*
X4597477Y14758397D01*
X4577631Y14771658D01*
X4554220Y14776315D01*
D02*
G37*
G36*
X17505679Y13937195D02*
X17482269Y13932539D01*
X17462424Y13919276D01*
X17449161Y13899431D01*
X17444505Y13876019D01*
X17449161Y13852609D01*
X17462424Y13832764D01*
X17482269Y13819501D01*
X17505679Y13814845D01*
X17529091Y13819501D01*
X17548936Y13832764D01*
X17562199Y13852609D01*
X17566855Y13876019D01*
X17562199Y13899431D01*
X17548936Y13919276D01*
X17529091Y13932539D01*
X17505679Y13937195D01*
D02*
G37*
G36*
X18366180Y13495235D02*
X18342770Y13490579D01*
X18322923Y13477316D01*
X18321271Y13474844D01*
X17426131D01*
X17424477Y13477316D01*
X17404631Y13490579D01*
X17381219Y13495235D01*
X17357809Y13490579D01*
X17337962Y13477316D01*
X17324701Y13457471D01*
X17320045Y13434061D01*
X17324701Y13410649D01*
X17337962Y13390804D01*
X17357809Y13377541D01*
X17381219Y13372885D01*
X17404631Y13377541D01*
X17424477Y13390804D01*
X17426131Y13393275D01*
X18321271D01*
X18322923Y13390804D01*
X18342770Y13377541D01*
X18366180Y13372885D01*
X18389592Y13377541D01*
X18409439Y13390804D01*
X18422701Y13410649D01*
X18427357Y13434061D01*
X18422701Y13457471D01*
X18409439Y13477316D01*
X18389592Y13490579D01*
X18366180Y13495235D01*
D02*
G37*
G36*
X16311880Y13330135D02*
X16288469Y13325479D01*
X16268623Y13312218D01*
X16255360Y13292371D01*
X16250705Y13268961D01*
X16255360Y13245549D01*
X16268623Y13225703D01*
X16288469Y13212440D01*
X16311880Y13207785D01*
X16335291Y13212440D01*
X16355138Y13225703D01*
X16368399Y13245549D01*
X16373055Y13268961D01*
X16368399Y13292371D01*
X16355138Y13312218D01*
X16335291Y13325479D01*
X16311880Y13330135D01*
D02*
G37*
G36*
X16635538Y13256474D02*
X16612126Y13251819D01*
X16592279Y13238557D01*
X16579018Y13218710D01*
X16574362Y13195300D01*
X16579018Y13171889D01*
X16592279Y13152043D01*
X16612126Y13138782D01*
X16635538Y13134125D01*
X16658948Y13138782D01*
X16678793Y13152043D01*
X16692056Y13171889D01*
X16696712Y13195300D01*
X16692056Y13218710D01*
X16678793Y13238557D01*
X16658948Y13251819D01*
X16635538Y13256474D01*
D02*
G37*
G36*
X17635860Y13135194D02*
X17612450Y13130539D01*
X17592603Y13117278D01*
X17579341Y13097430D01*
X17574686Y13074020D01*
X17579341Y13050609D01*
X17592603Y13030763D01*
X17612450Y13017500D01*
X17635860Y13012845D01*
X17659271Y13017500D01*
X17679118Y13030763D01*
X17692380Y13050609D01*
X17697035Y13074020D01*
X17692380Y13097430D01*
X17679118Y13117278D01*
X17659271Y13130539D01*
X17635860Y13135194D01*
D02*
G37*
G36*
X18366187Y13079230D02*
X18342775Y13074573D01*
X18322929Y13061311D01*
X18309666Y13041466D01*
X18305011Y13018054D01*
X18309666Y12994643D01*
X18322929Y12974796D01*
X18342775Y12961536D01*
X18366187Y12956879D01*
X18389597Y12961536D01*
X18409444Y12974796D01*
X18422705Y12994643D01*
X18427362Y13018054D01*
X18422705Y13041466D01*
X18409444Y13061311D01*
X18389597Y13074573D01*
X18366187Y13079230D01*
D02*
G37*
G36*
X3872220Y15278316D02*
X3848809Y15273659D01*
X3828962Y15260397D01*
X3815701Y15240552D01*
X3811044Y15217140D01*
X3815701Y15193729D01*
X3828962Y15173883D01*
X3848809Y15160622D01*
X3872220Y15155965D01*
X3895631Y15160622D01*
X3915477Y15173883D01*
X3917130Y15176357D01*
X4326507D01*
X5203561Y14299303D01*
X5203562Y14299303D01*
X5216793Y14290462D01*
X5232400Y14287357D01*
X16820767D01*
X16997536Y14110587D01*
Y13388341D01*
X16997536Y13388341D01*
X17000641Y13372733D01*
X17009482Y13359502D01*
X17670636Y12698347D01*
Y12683623D01*
X17657936Y12676835D01*
X17651472Y12681154D01*
X17635864Y12684258D01*
X17635220D01*
X17635220Y12684259D01*
X17619614Y12681154D01*
X17606383Y12672313D01*
X17368781Y12434713D01*
X17365863Y12435293D01*
X17342451Y12430637D01*
X17340958Y12429638D01*
X16716638Y13053958D01*
X16703407Y13062799D01*
X16687801Y13065904D01*
X16687799Y13065904D01*
X16256000D01*
X16240393Y13062799D01*
X16227162Y13053958D01*
X16227161Y13053958D01*
X15858107Y12684904D01*
X15680135D01*
X15678481Y12687377D01*
X15658635Y12700639D01*
X15635223Y12705295D01*
X15611813Y12700639D01*
X15591966Y12687377D01*
X15578705Y12667531D01*
X15574049Y12644120D01*
X15578705Y12620709D01*
X15591966Y12600863D01*
X15595456Y12598531D01*
Y12407013D01*
X15477107Y12288664D01*
X15312851D01*
X15311197Y12291137D01*
X15291351Y12304399D01*
X15267940Y12309055D01*
X15245224Y12304537D01*
X15242998Y12304476D01*
X15232524Y12310978D01*
Y12449427D01*
X16470258Y13687161D01*
X16470258Y13687161D01*
X16479099Y13700394D01*
X16482204Y13716000D01*
X16482204Y13716000D01*
Y13977620D01*
X16479099Y13993227D01*
X16470258Y14006458D01*
X16470258Y14006459D01*
X16249663Y14227054D01*
X16236432Y14235893D01*
X16220825Y14238998D01*
X16220824Y14238998D01*
X6062595D01*
X6046988Y14235893D01*
X6033757Y14227054D01*
X6033756Y14227052D01*
X5769227Y13962524D01*
X4830193D01*
X4616078Y14176637D01*
X4602847Y14185480D01*
X4587240Y14188583D01*
X4587239Y14188583D01*
X4282441D01*
X4282440Y14188583D01*
X4266833Y14185480D01*
X4253602Y14176637D01*
X3765922Y13688959D01*
X3757081Y13675726D01*
X3753976Y13660120D01*
X3753976Y13660120D01*
Y10650221D01*
X3753976Y10650220D01*
X3757081Y10634613D01*
X3765922Y10621382D01*
X3810365Y10576938D01*
X3809785Y10574020D01*
X3814441Y10550609D01*
X3827703Y10530763D01*
X3847549Y10517501D01*
X3870960Y10512845D01*
X3894371Y10517501D01*
X3914217Y10530763D01*
X3927479Y10550609D01*
X3932135Y10574020D01*
X3927479Y10597431D01*
X3914217Y10617277D01*
X3894371Y10630539D01*
X3870960Y10635195D01*
X3868042Y10634615D01*
X3835544Y10667113D01*
Y11311734D01*
X3846744Y11317721D01*
X3848809Y11316341D01*
X3872220Y11311685D01*
X3875138Y11312265D01*
X5023221Y10164182D01*
X5023222Y10164182D01*
X5036453Y10155341D01*
X5052060Y10152236D01*
X5052061Y10152236D01*
X7218975D01*
X7258421Y10112791D01*
X7258422Y10112790D01*
X9594395Y7776817D01*
X9589535Y7765084D01*
X8457153D01*
X6830958Y9391278D01*
X6817727Y9400119D01*
X6802120Y9403224D01*
X6802119Y9403224D01*
X3873500D01*
X3857893Y9400119D01*
X3844662Y9391278D01*
X3844661Y9391278D01*
X3791397Y9338014D01*
X3779664Y9342874D01*
Y10155729D01*
X3782137Y10157383D01*
X3795399Y10177229D01*
X3800055Y10200640D01*
X3795399Y10224051D01*
X3782137Y10243897D01*
X3762291Y10257159D01*
X3738880Y10261815D01*
X3715469Y10257159D01*
X3695623Y10243897D01*
X3682361Y10224051D01*
X3677705Y10200640D01*
X3682361Y10177229D01*
X3695623Y10157383D01*
X3698096Y10155729D01*
Y7406641D01*
X3698096Y7406640D01*
X3701201Y7391033D01*
X3710042Y7377802D01*
X4100580Y6987263D01*
X4092485Y6977399D01*
X4088870Y6979814D01*
X4075786Y6988555D01*
X4064919Y6990717D01*
Y6944360D01*
X4111277D01*
X4109115Y6955227D01*
X4100373Y6968310D01*
X4097958Y6971925D01*
X4107823Y6980021D01*
X4154541Y6933302D01*
X4154542Y6933302D01*
X4167773Y6924461D01*
X4183380Y6921356D01*
X4183381Y6921356D01*
X5336387D01*
X5342374Y6910156D01*
X5338441Y6904271D01*
X5333785Y6880860D01*
X5338441Y6857449D01*
X5351703Y6837603D01*
X5371549Y6824341D01*
X5394960Y6819685D01*
X5418371Y6824341D01*
X5438217Y6837603D01*
X5451479Y6857449D01*
X5456135Y6880860D01*
X5451479Y6904271D01*
X5447546Y6910156D01*
X5453533Y6921356D01*
X12920526D01*
X14047841Y5794041D01*
X14047842Y5794040D01*
X14061073Y5785200D01*
X14076680Y5782095D01*
X14076682Y5782095D01*
X14628473D01*
X14628474Y5782095D01*
X14644083Y5785200D01*
X14657314Y5794040D01*
X14972969Y6109696D01*
X14982832Y6101600D01*
X14978607Y6095276D01*
X14973952Y6071865D01*
X14978607Y6048454D01*
X14991869Y6028607D01*
X15011716Y6015346D01*
X15035126Y6010690D01*
X15058537Y6015346D01*
X15078384Y6028607D01*
X15091644Y6048454D01*
X15096301Y6071865D01*
X15091644Y6095276D01*
X15078384Y6115122D01*
X15058537Y6128384D01*
X15035126Y6133040D01*
X15011716Y6128384D01*
X15005391Y6124158D01*
X14997295Y6134023D01*
X15164870Y6301596D01*
X16388966D01*
X16611964Y6078598D01*
X16611385Y6075680D01*
X16616042Y6052269D01*
X16629303Y6032423D01*
X16649149Y6019161D01*
X16658020Y6017397D01*
X16662199Y6003616D01*
X16642967Y5984384D01*
X16102713D01*
X15948296Y6138802D01*
X15948875Y6141720D01*
X15944218Y6165131D01*
X15930957Y6184977D01*
X15911111Y6198239D01*
X15887700Y6202895D01*
X15864288Y6198239D01*
X15858681Y6194491D01*
X15847250Y6202128D01*
X15848012Y6205957D01*
X15843355Y6229368D01*
X15830093Y6249214D01*
X15810248Y6262475D01*
X15786836Y6267132D01*
X15763426Y6262475D01*
X15743579Y6249214D01*
X15730318Y6229368D01*
X15725661Y6205957D01*
X15730318Y6182546D01*
X15743579Y6162699D01*
X15763426Y6149438D01*
X15786836Y6144781D01*
X15810248Y6149438D01*
X15815855Y6153186D01*
X15827286Y6145549D01*
X15826524Y6141720D01*
X15831181Y6118309D01*
X15844443Y6098463D01*
X15864288Y6085201D01*
X15887700Y6080545D01*
X15890617Y6081125D01*
X16056981Y5914762D01*
X16056982Y5914762D01*
X16070213Y5905921D01*
X16085820Y5902816D01*
X16085822Y5902816D01*
X16659859D01*
X16659860Y5902816D01*
X16675467Y5905921D01*
X16688698Y5914762D01*
X16777599Y6003661D01*
X16777599Y6003662D01*
X16786440Y6016893D01*
X16789545Y6032500D01*
X16789545Y6032501D01*
Y6108699D01*
X16789545Y6108700D01*
X16786440Y6124307D01*
X16777599Y6137538D01*
X16777599Y6137539D01*
X16462637Y6452498D01*
X16449406Y6461339D01*
X16433800Y6464444D01*
X16433800Y6464444D01*
X15874405D01*
X15867616Y6477144D01*
X15875639Y6489149D01*
X15880295Y6512560D01*
X15879715Y6515478D01*
X16891898Y7527661D01*
X16891898Y7527662D01*
X16900739Y7540893D01*
X16903844Y7556500D01*
X16903844Y7556501D01*
Y11281027D01*
X17302213Y11679395D01*
X17312077Y11671299D01*
X17309338Y11667203D01*
X17304683Y11643792D01*
X17309338Y11620381D01*
X17322601Y11600534D01*
X17342447Y11587273D01*
X17365858Y11582616D01*
X17389268Y11587273D01*
X17409116Y11600534D01*
X17422377Y11620381D01*
X17427032Y11643792D01*
X17422377Y11667203D01*
X17409116Y11687049D01*
X17389268Y11700311D01*
X17365858Y11704967D01*
X17342447Y11700311D01*
X17338350Y11697573D01*
X17330255Y11707438D01*
X17740257Y12117441D01*
X17740257Y12117442D01*
X17749100Y12130673D01*
X17752203Y12146280D01*
Y12588239D01*
X17752203Y12588240D01*
X17752203Y12588241D01*
Y12715239D01*
X17752203Y12715240D01*
X17749100Y12730847D01*
X17740257Y12744078D01*
X17079105Y13405232D01*
Y14127480D01*
X17079105Y14127480D01*
X17075999Y14143086D01*
X17067159Y14156319D01*
X17067159Y14156319D01*
X16866498Y14356978D01*
X16853267Y14365819D01*
X16837660Y14368924D01*
X16837659Y14368924D01*
X5249293D01*
X4372238Y15245978D01*
X4359007Y15254819D01*
X4343400Y15257924D01*
X4343399Y15257924D01*
X3917130D01*
X3915477Y15260397D01*
X3895631Y15273659D01*
X3872220Y15278316D01*
D02*
G37*
G36*
X18366187Y12705295D02*
X18342775Y12700639D01*
X18322929Y12687377D01*
X18309666Y12667531D01*
X18305011Y12644120D01*
X18309666Y12620709D01*
X18322929Y12600863D01*
X18342775Y12587601D01*
X18366187Y12582945D01*
X18389597Y12587601D01*
X18409444Y12600863D01*
X18422705Y12620709D01*
X18427362Y12644120D01*
X18422705Y12667531D01*
X18409444Y12687377D01*
X18389597Y12700639D01*
X18366187Y12705295D01*
D02*
G37*
G36*
X2322383Y11668975D02*
X2298972Y11664319D01*
X2279125Y11651057D01*
X2265864Y11631211D01*
X2261208Y11607800D01*
X2265864Y11584389D01*
X2279125Y11564543D01*
X2298972Y11551281D01*
X2322383Y11546625D01*
X2345794Y11551281D01*
X2365640Y11564543D01*
X2378902Y11584389D01*
X2383558Y11607800D01*
X2378902Y11631211D01*
X2365640Y11651057D01*
X2345794Y11664319D01*
X2322383Y11668975D01*
D02*
G37*
G36*
X1499977Y11121879D02*
X1499970Y11121878D01*
X1499963Y11121879D01*
X1490260Y11119947D01*
X1480468Y11117999D01*
X1480462Y11117995D01*
X1480456Y11117994D01*
X1472257Y11112512D01*
X1463929Y11106948D01*
X1463925Y11106942D01*
X1463919Y11106938D01*
X1458350Y11098598D01*
X1452878Y11090409D01*
X1452876Y11090402D01*
X1452873Y11090397D01*
X1450925Y11080591D01*
X1448997Y11070900D01*
X1448998Y11070893D01*
X1448997Y11070887D01*
X1450930Y11061184D01*
X1452878Y11051391D01*
X1452882Y11051385D01*
X1452883Y11051379D01*
X1458364Y11043180D01*
X1463929Y11034852D01*
X1463934Y11034848D01*
X1463938Y11034843D01*
X1472278Y11029273D01*
X1480468Y11023801D01*
X1480474Y11023800D01*
X1480480Y11023796D01*
X1490286Y11021848D01*
X1499977Y11019920D01*
X1499983Y11019922D01*
X1499990Y11019920D01*
X1509693Y11021853D01*
X1519486Y11023801D01*
X1519491Y11023805D01*
X1519498Y11023806D01*
X1527696Y11029287D01*
X1536025Y11034852D01*
X1536028Y11034858D01*
X1536034Y11034861D01*
X1541604Y11043202D01*
X1547076Y11051391D01*
X1547077Y11051398D01*
X1547081Y11051403D01*
X1549029Y11061209D01*
X1550956Y11070900D01*
X1550955Y11070906D01*
X1550956Y11070913D01*
X1549024Y11080616D01*
X1547076Y11090409D01*
X1547072Y11090414D01*
X1547071Y11090421D01*
X1541589Y11098620D01*
X1536025Y11106948D01*
X1536019Y11106952D01*
X1536015Y11106957D01*
X1527675Y11112527D01*
X1519486Y11117999D01*
X1519479Y11118000D01*
X1519473Y11118004D01*
X1509668Y11119952D01*
X1499977Y11121879D01*
D02*
G37*
G36*
X20911819Y11041595D02*
X20888409Y11036939D01*
X20868562Y11023677D01*
X20866908Y11021204D01*
X17410770D01*
X17409116Y11023677D01*
X17389268Y11036939D01*
X17365858Y11041595D01*
X17342447Y11036939D01*
X17322601Y11023677D01*
X17309338Y11003831D01*
X17304683Y10980420D01*
X17309338Y10957009D01*
X17322601Y10937163D01*
X17342447Y10923901D01*
X17365858Y10919245D01*
X17389268Y10923901D01*
X17409116Y10937163D01*
X17410770Y10939636D01*
X20444843D01*
X20444995Y10939570D01*
X20454280Y10926936D01*
X20453934Y10925189D01*
X20451971Y10915404D01*
X20451979Y10915367D01*
X20451971Y10915330D01*
X20453905Y10905613D01*
X20455824Y10895889D01*
X20455846Y10895858D01*
X20455852Y10895821D01*
X20461394Y10887528D01*
X20466850Y10879334D01*
X20466882Y10879314D01*
X20466904Y10879282D01*
X20475130Y10873785D01*
X20483374Y10868259D01*
X20483411Y10868252D01*
X20483443Y10868231D01*
X20493092Y10866312D01*
X20502876Y10864350D01*
X20502914Y10864358D01*
X20502951Y10864350D01*
X20512668Y10866283D01*
X20522392Y10868203D01*
X20522423Y10868224D01*
X20522459Y10868231D01*
X20530753Y10873773D01*
X20538947Y10879230D01*
X20538968Y10879261D01*
X20538998Y10879282D01*
X20544496Y10887508D01*
X20550021Y10895753D01*
X20550029Y10895790D01*
X20550050Y10895821D01*
X20551970Y10905471D01*
X20553931Y10915256D01*
X20553923Y10915293D01*
X20553931Y10915330D01*
X20551997Y10925046D01*
X20551625Y10926936D01*
X20560867Y10939543D01*
X20561076Y10939636D01*
X20866908D01*
X20868562Y10937163D01*
X20888409Y10923901D01*
X20911819Y10919245D01*
X20935231Y10923901D01*
X20955077Y10937163D01*
X20968340Y10957009D01*
X20972995Y10980420D01*
X20968340Y11003831D01*
X20955077Y11023677D01*
X20935231Y11036939D01*
X20911819Y11041595D01*
D02*
G37*
G36*
X1081009Y11026698D02*
X1057598Y11022042D01*
X1037751Y11008780D01*
X1024490Y10988934D01*
X1019833Y10965523D01*
X1024490Y10942112D01*
X1037751Y10922265D01*
X1057598Y10909004D01*
X1081009Y10904348D01*
X1104420Y10909004D01*
X1124266Y10922265D01*
X1137528Y10942112D01*
X1142184Y10965523D01*
X1137528Y10988934D01*
X1124266Y11008780D01*
X1104420Y11022042D01*
X1081009Y11026698D01*
D02*
G37*
G36*
X20968307Y10818949D02*
X20944896Y10814293D01*
X20925050Y10801031D01*
X20923396Y10798557D01*
X20827094D01*
X20827094Y10798558D01*
X20811485Y10795453D01*
X20798254Y10786612D01*
X20798254Y10786611D01*
X19946008Y9934366D01*
X19937167Y9921135D01*
X19934064Y9905528D01*
X19934064Y9905526D01*
Y7475641D01*
X19210780Y6752359D01*
X19197952Y6757490D01*
X19185764Y6775731D01*
X19165916Y6788992D01*
X19142506Y6793649D01*
X19119095Y6788992D01*
X19099249Y6775731D01*
X19085986Y6755884D01*
X19081331Y6732473D01*
X19085986Y6709063D01*
X19099249Y6689216D01*
X19117490Y6677028D01*
X19122621Y6664199D01*
X13846452Y1388030D01*
X10579195D01*
X10577542Y1390504D01*
X10557695Y1403765D01*
X10534284Y1408422D01*
X10510873Y1403765D01*
X10491027Y1390504D01*
X10477765Y1370657D01*
X10473109Y1347246D01*
X10477765Y1323836D01*
X10491027Y1303989D01*
X10510873Y1290728D01*
X10534284Y1286071D01*
X10557695Y1290728D01*
X10577542Y1303989D01*
X10579195Y1306463D01*
X13863344D01*
X13863345Y1306463D01*
X13878954Y1309567D01*
X13892184Y1318408D01*
X20003685Y7429910D01*
X20012526Y7443141D01*
X20015631Y7458748D01*
X20015631Y7458749D01*
Y9888634D01*
X20843987Y10716990D01*
X20923396D01*
X20925050Y10714516D01*
X20944896Y10701255D01*
X20968307Y10696598D01*
X20991718Y10701255D01*
X21011565Y10714516D01*
X21024826Y10734363D01*
X21029482Y10757774D01*
X21024826Y10781185D01*
X21011565Y10801031D01*
X20991718Y10814293D01*
X20968307Y10818949D01*
D02*
G37*
G36*
X4246880Y10574657D02*
Y10528300D01*
X4293237D01*
X4291075Y10539167D01*
X4277726Y10559146D01*
X4257747Y10572495D01*
X4246880Y10574657D01*
D02*
G37*
G36*
X4221480D02*
X4210613Y10572495D01*
X4190634Y10559146D01*
X4177285Y10539167D01*
X4175123Y10528300D01*
X4221480D01*
Y10574657D01*
D02*
G37*
G36*
X4293237Y10502900D02*
X4246880D01*
Y10456543D01*
X4257747Y10458705D01*
X4277726Y10472054D01*
X4291075Y10492033D01*
X4293237Y10502900D01*
D02*
G37*
G36*
X4221480D02*
X4175123D01*
X4177285Y10492033D01*
X4190634Y10472054D01*
X4210613Y10458705D01*
X4221480Y10456543D01*
Y10502900D01*
D02*
G37*
G36*
X8007055Y8425517D02*
X7999441Y8424002D01*
X7991725Y8423157D01*
X7989753Y8422075D01*
X7987546Y8421636D01*
X7981092Y8417324D01*
X7974286Y8413590D01*
X7972878Y8411835D01*
X7971007Y8410585D01*
X7966695Y8404131D01*
X7961836Y8398077D01*
X7961206Y8395917D01*
X7959956Y8394046D01*
X7958442Y8386433D01*
X7956270Y8378981D01*
X7956515Y8376744D01*
X7956076Y8374537D01*
X7957590Y8366923D01*
X7958435Y8359208D01*
X7959517Y8357236D01*
X7959956Y8355029D01*
X7964269Y8348574D01*
X7968003Y8341768D01*
X7969757Y8340360D01*
X7971007Y8338490D01*
X7977462Y8334177D01*
X7983516Y8329318D01*
X7985676Y8328688D01*
X7987546Y8327439D01*
X7995160Y8325924D01*
X8002612Y8323752D01*
X8004848Y8323997D01*
X8007055Y8323558D01*
X8014670Y8325073D01*
X8022385Y8325918D01*
X8024357Y8327000D01*
X8026564Y8327439D01*
X8033019Y8331751D01*
X8039824Y8335485D01*
X8041233Y8337240D01*
X8043103Y8338490D01*
X8047416Y8344944D01*
X8052275Y8350998D01*
X8052904Y8353158D01*
X8054154Y8355029D01*
X8055669Y8362642D01*
X8057841Y8370094D01*
X8057596Y8372330D01*
X8058035Y8374537D01*
X8056520Y8382152D01*
X8055675Y8389867D01*
X8054593Y8391839D01*
X8054154Y8394046D01*
X8049841Y8400501D01*
X8046108Y8407307D01*
X8044353Y8408715D01*
X8043103Y8410585D01*
X8036649Y8414898D01*
X8030595Y8419757D01*
X8028435Y8420387D01*
X8026564Y8421636D01*
X8018950Y8423151D01*
X8011499Y8425323D01*
X8009262Y8425078D01*
X8007055Y8425517D01*
D02*
G37*
G36*
X8295787Y8309978D02*
X8272376Y8305321D01*
X8252530Y8292060D01*
X8239269Y8272213D01*
X8234612Y8248802D01*
X8239269Y8225391D01*
X8252530Y8205545D01*
X8272376Y8192284D01*
X8295787Y8187627D01*
X8319198Y8192284D01*
X8339045Y8205545D01*
X8352306Y8225391D01*
X8356963Y8248802D01*
X8352306Y8272213D01*
X8339045Y8292060D01*
X8319198Y8305321D01*
X8295787Y8309978D01*
D02*
G37*
G36*
X16799561Y7336157D02*
Y7289800D01*
X16845917D01*
X16843755Y7300667D01*
X16830406Y7320646D01*
X16810426Y7333995D01*
X16799561Y7336157D01*
D02*
G37*
G36*
X16774159D02*
X16763293Y7333995D01*
X16743314Y7320646D01*
X16729965Y7300667D01*
X16727803Y7289800D01*
X16774159D01*
Y7336157D01*
D02*
G37*
G36*
X16845917Y7264400D02*
X16799561D01*
Y7218043D01*
X16810426Y7220205D01*
X16830406Y7233554D01*
X16843755Y7253533D01*
X16845917Y7264400D01*
D02*
G37*
G36*
X16774159D02*
X16727803D01*
X16729965Y7253533D01*
X16743314Y7233554D01*
X16763293Y7220205D01*
X16774159Y7218043D01*
Y7264400D01*
D02*
G37*
G36*
X17152605Y7176335D02*
Y7129978D01*
X17198962D01*
X17196800Y7140845D01*
X17183450Y7160824D01*
X17163472Y7174174D01*
X17152605Y7176335D01*
D02*
G37*
G36*
X17127205D02*
X17116338Y7174174D01*
X17096359Y7160824D01*
X17083009Y7140845D01*
X17080849Y7129978D01*
X17127205D01*
Y7176335D01*
D02*
G37*
G36*
X17198962Y7104578D02*
X17152605D01*
Y7058221D01*
X17163472Y7060383D01*
X17183450Y7073732D01*
X17196800Y7093711D01*
X17198962Y7104578D01*
D02*
G37*
G36*
X17127205D02*
X17080849D01*
X17083009Y7093711D01*
X17096359Y7073732D01*
X17116338Y7060383D01*
X17127205Y7058221D01*
Y7104578D01*
D02*
G37*
G36*
X4039519Y6990717D02*
X4028653Y6988555D01*
X4008673Y6975206D01*
X3995324Y6955227D01*
X3993162Y6944360D01*
X4039519D01*
Y6990717D01*
D02*
G37*
G36*
X16568436Y6983112D02*
Y6936755D01*
X16614792D01*
X16612631Y6947622D01*
X16599281Y6967601D01*
X16579301Y6980951D01*
X16568436Y6983112D01*
D02*
G37*
G36*
X16543034D02*
X16532169Y6980951D01*
X16512189Y6967601D01*
X16498840Y6947622D01*
X16496678Y6936755D01*
X16543034D01*
Y6983112D01*
D02*
G37*
G36*
X4111277Y6918960D02*
X4064919D01*
Y6872603D01*
X4075786Y6874765D01*
X4095765Y6888114D01*
X4109115Y6908093D01*
X4111277Y6918960D01*
D02*
G37*
G36*
X4039519D02*
X3993162D01*
X3995324Y6908093D01*
X4008673Y6888114D01*
X4028653Y6874765D01*
X4039519Y6872603D01*
Y6918960D01*
D02*
G37*
G36*
X16614792Y6911355D02*
X16568436D01*
Y6864998D01*
X16579301Y6867160D01*
X16599281Y6880509D01*
X16612631Y6900488D01*
X16614792Y6911355D01*
D02*
G37*
G36*
X16543034D02*
X16496678D01*
X16498840Y6900488D01*
X16512189Y6880509D01*
X16532169Y6867160D01*
X16543034Y6864998D01*
Y6911355D01*
D02*
G37*
G36*
X11696700Y6779475D02*
X11673289Y6774819D01*
X11653443Y6761557D01*
X11640181Y6741711D01*
X11635525Y6718300D01*
X11640181Y6694889D01*
X11653443Y6675043D01*
X11673289Y6661781D01*
X11696700Y6657125D01*
X11720111Y6661781D01*
X11739957Y6675043D01*
X11753219Y6694889D01*
X11757875Y6718300D01*
X11753219Y6741711D01*
X11739957Y6761557D01*
X11720111Y6774819D01*
X11696700Y6779475D01*
D02*
G37*
G36*
X4581401Y6576557D02*
X4557990Y6571901D01*
X4538143Y6558639D01*
X4524882Y6538793D01*
X4520225Y6515382D01*
X4524882Y6491971D01*
X4538143Y6472124D01*
X4557990Y6458863D01*
X4581401Y6454207D01*
X4604811Y6458863D01*
X4624658Y6472124D01*
X4637919Y6491971D01*
X4642576Y6515382D01*
X4637919Y6538793D01*
X4624658Y6558639D01*
X4604811Y6571901D01*
X4581401Y6576557D01*
D02*
G37*
G36*
X2737211Y6362326D02*
X2733874Y6361662D01*
X2730479Y6361880D01*
X2724204Y6359739D01*
X2717702Y6358445D01*
X2714873Y6356555D01*
X2711654Y6355457D01*
X2706676Y6351078D01*
X2701163Y6347394D01*
X2699273Y6344566D01*
X2696719Y6342319D01*
X2693795Y6336368D01*
X2690112Y6330855D01*
X2689448Y6327519D01*
X2687948Y6324466D01*
X2687524Y6317849D01*
X2686231Y6311346D01*
X2686895Y6308010D01*
X2686677Y6304615D01*
X2688818Y6298340D01*
X2690112Y6291837D01*
X2692002Y6289009D01*
X2693100Y6285789D01*
X2697479Y6280811D01*
X2701163Y6275298D01*
X2703991Y6273409D01*
X2706238Y6270854D01*
X2712189Y6267931D01*
X2717702Y6264247D01*
X2721038Y6263584D01*
X2724091Y6262084D01*
X2730708Y6261660D01*
X2737211Y6260367D01*
X2740547Y6261030D01*
X2743942Y6260813D01*
X2750217Y6262954D01*
X2756720Y6264247D01*
X2759548Y6266137D01*
X2762768Y6267236D01*
X2767746Y6271615D01*
X2773259Y6275298D01*
X2775148Y6278127D01*
X2777703Y6280374D01*
X2780626Y6286324D01*
X2784310Y6291837D01*
X2784973Y6295174D01*
X2786473Y6298227D01*
X2786897Y6304844D01*
X2788190Y6311346D01*
X2787527Y6314683D01*
X2787744Y6318078D01*
X2785603Y6324353D01*
X2784310Y6330855D01*
X2782420Y6333684D01*
X2781321Y6336903D01*
X2776942Y6341881D01*
X2773259Y6347394D01*
X2770430Y6349284D01*
X2768183Y6351838D01*
X2762233Y6354761D01*
X2756720Y6358445D01*
X2753383Y6359109D01*
X2750330Y6360609D01*
X2743713Y6361032D01*
X2737211Y6362326D01*
D02*
G37*
G36*
X17785080Y6373075D02*
X17761668Y6368419D01*
X17741823Y6355157D01*
X17728561Y6335311D01*
X17723904Y6311900D01*
X17728561Y6288489D01*
X17741823Y6268643D01*
X17761668Y6255381D01*
X17785080Y6250725D01*
X17808492Y6255381D01*
X17828337Y6268643D01*
X17841599Y6288489D01*
X17846255Y6311900D01*
X17841599Y6335311D01*
X17828337Y6355157D01*
X17808492Y6368419D01*
X17785080Y6373075D01*
D02*
G37*
G36*
X3872220Y6327355D02*
X3848809Y6322699D01*
X3828962Y6309437D01*
X3815701Y6289591D01*
X3811044Y6266180D01*
X3815701Y6242769D01*
X3828962Y6222923D01*
X3848809Y6209661D01*
X3872220Y6205005D01*
X3895631Y6209661D01*
X3915477Y6222923D01*
X3928739Y6242769D01*
X3933395Y6266180D01*
X3928739Y6289591D01*
X3915477Y6309437D01*
X3895631Y6322699D01*
X3872220Y6327355D01*
D02*
G37*
G36*
X19191702Y6239629D02*
X19185199Y6238335D01*
X19178583Y6237912D01*
X19175529Y6236412D01*
X19172192Y6235748D01*
X19166681Y6232065D01*
X19160730Y6229142D01*
X19158482Y6226587D01*
X19155653Y6224697D01*
X19151970Y6219185D01*
X19147591Y6214207D01*
X19146494Y6210987D01*
X19144603Y6208158D01*
X19143309Y6201655D01*
X19141168Y6195381D01*
X19141386Y6191986D01*
X19140723Y6188649D01*
X19142015Y6182147D01*
X19142439Y6175530D01*
X19143939Y6172477D01*
X19144603Y6169140D01*
X19148285Y6163628D01*
X19151208Y6157677D01*
X19153764Y6155430D01*
X19155653Y6152601D01*
X19161166Y6148918D01*
X19166144Y6144539D01*
X19169363Y6143440D01*
X19172192Y6141550D01*
X19178696Y6140256D01*
X19184970Y6138116D01*
X19188364Y6138333D01*
X19191702Y6137669D01*
X19198204Y6138963D01*
X19204820Y6139386D01*
X19207874Y6140886D01*
X19211211Y6141550D01*
X19216722Y6145233D01*
X19222675Y6148156D01*
X19224921Y6150711D01*
X19227750Y6152601D01*
X19231433Y6158113D01*
X19235812Y6163091D01*
X19236909Y6166311D01*
X19238800Y6169140D01*
X19240094Y6175643D01*
X19242235Y6181917D01*
X19242017Y6185312D01*
X19242680Y6188649D01*
X19241388Y6195151D01*
X19240964Y6201768D01*
X19239464Y6204821D01*
X19238800Y6208158D01*
X19235118Y6213670D01*
X19232195Y6219621D01*
X19229639Y6221868D01*
X19227750Y6224697D01*
X19222237Y6228380D01*
X19217259Y6232759D01*
X19214040Y6233858D01*
X19211211Y6235748D01*
X19204707Y6237042D01*
X19198434Y6239182D01*
X19195039Y6238965D01*
X19191702Y6239629D01*
D02*
G37*
G36*
X19396419Y6197864D02*
X19373007Y6193207D01*
X19353160Y6179946D01*
X19339899Y6160099D01*
X19335243Y6136688D01*
X19339899Y6113277D01*
X19353160Y6093431D01*
X19373007Y6080169D01*
X19396419Y6075513D01*
X19419829Y6080169D01*
X19439674Y6093431D01*
X19452937Y6113277D01*
X19457593Y6136688D01*
X19452937Y6160099D01*
X19439674Y6179946D01*
X19419829Y6193207D01*
X19396419Y6197864D01*
D02*
G37*
G36*
X16395700Y6169875D02*
X16372289Y6165219D01*
X16352443Y6151957D01*
X16339182Y6132111D01*
X16334525Y6108700D01*
X16339182Y6085289D01*
X16352443Y6065443D01*
X16372289Y6052181D01*
X16395700Y6047525D01*
X16419112Y6052181D01*
X16438957Y6065443D01*
X16452219Y6085289D01*
X16456876Y6108700D01*
X16452219Y6132111D01*
X16438957Y6151957D01*
X16419112Y6165219D01*
X16395700Y6169875D01*
D02*
G37*
G36*
X15527020Y6073355D02*
X15503609Y6068699D01*
X15483763Y6055437D01*
X15470502Y6035591D01*
X15465845Y6012180D01*
X15470502Y5988769D01*
X15483763Y5968923D01*
X15503609Y5955661D01*
X15527020Y5951005D01*
X15550430Y5955661D01*
X15570277Y5968923D01*
X15583539Y5988769D01*
X15588194Y6012180D01*
X15583539Y6035591D01*
X15570277Y6055437D01*
X15550430Y6068699D01*
X15527020Y6073355D01*
D02*
G37*
G36*
X17033240Y6032715D02*
X17009830Y6028059D01*
X16989983Y6014797D01*
X16976721Y5994951D01*
X16972066Y5971540D01*
X16976721Y5948129D01*
X16989983Y5928283D01*
X17009830Y5915021D01*
X17033240Y5910365D01*
X17056651Y5915021D01*
X17076497Y5928283D01*
X17089758Y5948129D01*
X17094415Y5971540D01*
X17089758Y5994951D01*
X17076497Y6014797D01*
X17056651Y6028059D01*
X17033240Y6032715D01*
D02*
G37*
G36*
X2357100Y5953975D02*
X2333689Y5949319D01*
X2313842Y5936057D01*
X2300581Y5916211D01*
X2295924Y5892800D01*
X2300581Y5869389D01*
X2313842Y5849543D01*
X2333689Y5836281D01*
X2357100Y5831625D01*
X2380511Y5836281D01*
X2400357Y5849543D01*
X2413618Y5869389D01*
X2418275Y5892800D01*
X2413618Y5916211D01*
X2400357Y5936057D01*
X2380511Y5949319D01*
X2357100Y5953975D01*
D02*
G37*
G36*
X17195799Y6202895D02*
X17172389Y6198239D01*
X17152544Y6184977D01*
X17139281Y6165131D01*
X17134625Y6141720D01*
X17139281Y6118309D01*
X17152544Y6098463D01*
X17172389Y6085201D01*
X17195799Y6080545D01*
X17219211Y6085201D01*
X17239056Y6098463D01*
X17240710Y6100936D01*
X17558708D01*
X17900107Y5759538D01*
X17893851Y5747834D01*
X17879060Y5750775D01*
X17855649Y5746119D01*
X17835803Y5732857D01*
X17834149Y5730384D01*
X14020950D01*
X14014964Y5741584D01*
X14018452Y5746804D01*
X14023108Y5770215D01*
X14018452Y5793625D01*
X14005190Y5813472D01*
X13985344Y5826733D01*
X13961932Y5831390D01*
X13959015Y5830810D01*
X13736105Y6053718D01*
X13722874Y6062559D01*
X13707268Y6065664D01*
X13707266Y6065664D01*
X3963641D01*
X3963640Y6065664D01*
X3948032Y6062559D01*
X3934801Y6053718D01*
X3934801Y6053718D01*
X3875138Y5994055D01*
X3872220Y5994636D01*
X3848809Y5989979D01*
X3828962Y5976718D01*
X3815701Y5956871D01*
X3811044Y5933460D01*
X3815701Y5910049D01*
X3828962Y5890203D01*
X3848809Y5876942D01*
X3872220Y5872285D01*
X3895631Y5876942D01*
X3915477Y5890203D01*
X3928739Y5910049D01*
X3933395Y5933460D01*
X3932815Y5936379D01*
X3980533Y5984096D01*
X6460005D01*
X6466260Y5971396D01*
X6456341Y5956551D01*
X6451684Y5933140D01*
X6456341Y5909729D01*
X6469602Y5889883D01*
X6489449Y5876621D01*
X6512860Y5871965D01*
X6515778Y5872545D01*
X6727561Y5660762D01*
X6727562Y5660762D01*
X6740793Y5651921D01*
X6756400Y5648816D01*
X14781737D01*
X14785588Y5636116D01*
X14780939Y5633010D01*
X14767677Y5613164D01*
X14763022Y5589753D01*
X14767677Y5566342D01*
X14780939Y5546495D01*
X14800786Y5533234D01*
X14824197Y5528577D01*
X14847607Y5533234D01*
X14867455Y5546495D01*
X14880716Y5566342D01*
X14885371Y5589753D01*
X14880716Y5613164D01*
X14867455Y5633010D01*
X14862805Y5636116D01*
X14866658Y5648816D01*
X17225258D01*
X17226509Y5636116D01*
X17226111Y5636037D01*
X17212880Y5627197D01*
X17212878Y5627196D01*
X16472787Y4887104D01*
X15170731D01*
X15164745Y4898304D01*
X15166978Y4901649D01*
X15171635Y4925060D01*
X15166978Y4948471D01*
X15153717Y4968317D01*
X15133871Y4981579D01*
X15110460Y4986235D01*
X15087048Y4981579D01*
X15067203Y4968317D01*
X15065549Y4965844D01*
X9486013D01*
X9386198Y5065658D01*
X9372967Y5074499D01*
X9357360Y5077604D01*
X9357359Y5077604D01*
X4315898D01*
X4315897Y5077604D01*
X4300290Y5074499D01*
X4287058Y5065658D01*
X4287058Y5065658D01*
X4172841Y4951441D01*
X4169923Y4952022D01*
X4146512Y4947365D01*
X4126666Y4934104D01*
X4113404Y4914257D01*
X4108748Y4890846D01*
X4113404Y4867435D01*
X4126666Y4847589D01*
X4146512Y4834327D01*
X4169923Y4829671D01*
X4193334Y4834327D01*
X4213181Y4847589D01*
X4226442Y4867435D01*
X4231098Y4890846D01*
X4230518Y4893764D01*
X4332790Y4996036D01*
X9340467D01*
X9436700Y4899804D01*
X9431634Y4887104D01*
X5858893D01*
X5839095Y4906902D01*
X5839675Y4909820D01*
X5835019Y4933231D01*
X5821757Y4953077D01*
X5801911Y4966339D01*
X5778500Y4970995D01*
X5755089Y4966339D01*
X5735243Y4953077D01*
X5721981Y4933231D01*
X5717325Y4909820D01*
X5721981Y4886409D01*
X5735243Y4866563D01*
X5755089Y4853301D01*
X5778500Y4848645D01*
X5781418Y4849225D01*
X5813161Y4817482D01*
X5813162Y4817482D01*
X5826393Y4808641D01*
X5842000Y4805536D01*
X9455666D01*
X9460526Y4793803D01*
X9236327Y4569604D01*
X8998118D01*
X8992131Y4580804D01*
X8997761Y4589229D01*
X9002417Y4612640D01*
X8997761Y4636051D01*
X8984499Y4655897D01*
X8964653Y4669159D01*
X8941242Y4673815D01*
X8917831Y4669159D01*
X8897984Y4655897D01*
X8896331Y4653424D01*
X6737770D01*
X6736117Y4655897D01*
X6716270Y4669159D01*
X6692859Y4673815D01*
X6669448Y4669159D01*
X6649602Y4655897D01*
X6647949Y4653424D01*
X6558594D01*
X6554907Y4665577D01*
X6556117Y4666385D01*
X6569379Y4686232D01*
X6574035Y4709643D01*
X6569379Y4733054D01*
X6556117Y4752900D01*
X6536271Y4766161D01*
X6512860Y4770818D01*
X6489449Y4766161D01*
X6469602Y4752900D01*
X6456341Y4733054D01*
X6451684Y4709643D01*
X6456341Y4686232D01*
X6469602Y4666385D01*
X6470812Y4665577D01*
X6467125Y4653424D01*
X5375523D01*
X5256630Y4772317D01*
X5257210Y4775236D01*
X5252554Y4798646D01*
X5239292Y4818493D01*
X5219446Y4831754D01*
X5196035Y4836411D01*
X5172624Y4831754D01*
X5152777Y4818493D01*
X5139516Y4798646D01*
X5134859Y4775236D01*
X5139516Y4751825D01*
X5152777Y4731978D01*
X5172624Y4718717D01*
X5196035Y4714060D01*
X5198953Y4714641D01*
X5329791Y4583802D01*
X5329792Y4583802D01*
X5332034Y4582304D01*
X5328181Y4569604D01*
X4119071D01*
X4117417Y4572077D01*
X4097571Y4585339D01*
X4074160Y4589995D01*
X4050749Y4585339D01*
X4030903Y4572077D01*
X4017641Y4552231D01*
X4012985Y4528820D01*
X4017641Y4505409D01*
X4030903Y4485563D01*
X4050749Y4472301D01*
X4074160Y4467645D01*
X4097571Y4472301D01*
X4117417Y4485563D01*
X4119071Y4488036D01*
X9253219D01*
X9253220Y4488036D01*
X9268827Y4491141D01*
X9282058Y4499982D01*
X9587613Y4805536D01*
X16489679D01*
X16489680Y4805536D01*
X16505287Y4808641D01*
X16518518Y4817482D01*
X17258611Y5557575D01*
X17906999D01*
X17907001Y5557574D01*
X17922607Y5560679D01*
X17935838Y5569520D01*
X17982899Y5616580D01*
X17982899Y5616581D01*
X17991740Y5629812D01*
X17994846Y5645419D01*
Y5763260D01*
X17991740Y5778867D01*
X17982899Y5792098D01*
X17982899Y5792099D01*
X17604440Y6170558D01*
X17591208Y6179399D01*
X17575601Y6182504D01*
X17575600Y6182504D01*
X17240710D01*
X17239056Y6184977D01*
X17219211Y6198239D01*
X17195799Y6202895D01*
D02*
G37*
G36*
X15730220Y5562815D02*
X15706808Y5558159D01*
X15686963Y5544897D01*
X15673701Y5525051D01*
X15669044Y5501640D01*
X15673701Y5478229D01*
X15686963Y5458383D01*
X15706808Y5445121D01*
X15730220Y5440465D01*
X15753632Y5445121D01*
X15773477Y5458383D01*
X15786739Y5478229D01*
X15791396Y5501640D01*
X15786739Y5525051D01*
X15773477Y5544897D01*
X15753632Y5558159D01*
X15730220Y5562815D01*
D02*
G37*
G36*
X15170407Y5468434D02*
X15146996Y5463777D01*
X15127148Y5450516D01*
X15113889Y5430670D01*
X15109232Y5407259D01*
X15113889Y5383848D01*
X15127148Y5364001D01*
X15146996Y5350740D01*
X15170407Y5346083D01*
X15193817Y5350740D01*
X15213664Y5364001D01*
X15226926Y5383848D01*
X15231583Y5407259D01*
X15226926Y5430670D01*
X15213664Y5450516D01*
X15193817Y5463777D01*
X15170407Y5468434D01*
D02*
G37*
G36*
X922020Y11046675D02*
X898609Y11042019D01*
X878763Y11028757D01*
X865501Y11008911D01*
X860845Y10985500D01*
X865501Y10962089D01*
X878763Y10942243D01*
X881236Y10940589D01*
Y9267651D01*
X878763Y9265997D01*
X865501Y9246151D01*
X860845Y9222740D01*
X865501Y9199329D01*
X878763Y9179483D01*
X881236Y9177829D01*
Y8543469D01*
X881236Y8543468D01*
X884341Y8527861D01*
X893182Y8514630D01*
X4069630Y5338182D01*
X4082861Y5329341D01*
X4098468Y5326236D01*
X4098469Y5326236D01*
X5814869D01*
X5816523Y5323763D01*
X5836369Y5310501D01*
X5859780Y5305845D01*
X5883191Y5310501D01*
X5903037Y5323763D01*
X5916299Y5343609D01*
X5920955Y5367020D01*
X5916299Y5390431D01*
X5903037Y5410277D01*
X5883191Y5423539D01*
X5859780Y5428195D01*
X5836369Y5423539D01*
X5816523Y5410277D01*
X5814869Y5407804D01*
X4115361D01*
X962804Y8560361D01*
Y9177829D01*
X965277Y9179483D01*
X978539Y9199329D01*
X983195Y9222740D01*
X978539Y9246151D01*
X965277Y9265997D01*
X962804Y9267651D01*
Y10940589D01*
X965277Y10942243D01*
X978539Y10962089D01*
X983195Y10985500D01*
X978539Y11008911D01*
X965277Y11028757D01*
X945431Y11042019D01*
X922020Y11046675D01*
D02*
G37*
G36*
X17388689Y5242623D02*
X17365277Y5237966D01*
X17345430Y5224705D01*
X17332169Y5204859D01*
X17327512Y5181448D01*
X17332169Y5158037D01*
X17345430Y5138190D01*
X17365277Y5124929D01*
X17388689Y5120272D01*
X17412099Y5124929D01*
X17431944Y5138190D01*
X17445206Y5158037D01*
X17449863Y5181448D01*
X17445206Y5204859D01*
X17431944Y5224705D01*
X17412099Y5237966D01*
X17388689Y5242623D01*
D02*
G37*
G36*
X17045940D02*
X17022530Y5237966D01*
X17002682Y5224705D01*
X16989421Y5204859D01*
X16984766Y5181448D01*
X16989421Y5158037D01*
X17002682Y5138190D01*
X17022530Y5124929D01*
X17045940Y5120272D01*
X17069351Y5124929D01*
X17089197Y5138190D01*
X17102460Y5158037D01*
X17107115Y5181448D01*
X17102460Y5204859D01*
X17089197Y5224705D01*
X17069351Y5237966D01*
X17045940Y5242623D01*
D02*
G37*
G36*
X13855701Y5240235D02*
X13832289Y5235579D01*
X13812444Y5222317D01*
X13799181Y5202471D01*
X13794525Y5179060D01*
X13799181Y5155649D01*
X13812444Y5135803D01*
X13832289Y5122541D01*
X13855701Y5117885D01*
X13879111Y5122541D01*
X13898956Y5135803D01*
X13912219Y5155649D01*
X13916875Y5179060D01*
X13912219Y5202471D01*
X13898956Y5222317D01*
X13879111Y5235579D01*
X13855701Y5240235D01*
D02*
G37*
G36*
X17145000Y5006555D02*
X17121590Y5001899D01*
X17101743Y4988637D01*
X17088481Y4968791D01*
X17083826Y4945380D01*
X17088481Y4921969D01*
X17101743Y4902123D01*
X17121590Y4888861D01*
X17145000Y4884205D01*
X17168411Y4888861D01*
X17188257Y4902123D01*
X17201518Y4921969D01*
X17206175Y4945380D01*
X17201518Y4968791D01*
X17188257Y4988637D01*
X17168411Y5001899D01*
X17145000Y5006555D01*
D02*
G37*
G36*
X5372542Y4834318D02*
X5349131Y4829661D01*
X5329284Y4816400D01*
X5316023Y4796554D01*
X5311367Y4773143D01*
X5316023Y4749732D01*
X5329284Y4729885D01*
X5349131Y4716624D01*
X5372542Y4711967D01*
X5395953Y4716624D01*
X5415799Y4729885D01*
X5429061Y4749732D01*
X5433717Y4773143D01*
X5429061Y4796554D01*
X5415799Y4816400D01*
X5395953Y4829661D01*
X5372542Y4834318D01*
D02*
G37*
G36*
X12606269Y4590274D02*
Y4503379D01*
X12693163D01*
X12691385Y4516889D01*
X12681268Y4541312D01*
X12665175Y4562286D01*
X12644202Y4578378D01*
X12619779Y4588495D01*
X12606269Y4590274D01*
D02*
G37*
G36*
X12580869D02*
X12567359Y4588495D01*
X12542936Y4578378D01*
X12521963Y4562286D01*
X12505870Y4541312D01*
X12495753Y4516889D01*
X12493975Y4503379D01*
X12580869D01*
Y4590274D01*
D02*
G37*
G36*
X12693163Y4477979D02*
X12606269D01*
Y4391085D01*
X12619779Y4392864D01*
X12644202Y4402980D01*
X12665175Y4419073D01*
X12681268Y4440046D01*
X12691385Y4464470D01*
X12693163Y4477979D01*
D02*
G37*
G36*
X12580869D02*
X12493975D01*
X12495753Y4464470D01*
X12505870Y4440046D01*
X12521963Y4419073D01*
X12542936Y4402980D01*
X12567359Y4392864D01*
X12580869Y4391085D01*
Y4477979D01*
D02*
G37*
G36*
X12439569Y4590679D02*
X12239569D01*
Y4390680D01*
X12439569D01*
Y4590679D01*
D02*
G37*
G36*
X13812228Y4427933D02*
X13788817Y4423277D01*
X13768970Y4410015D01*
X13755708Y4390169D01*
X13751053Y4366758D01*
X13755708Y4343347D01*
X13768970Y4323500D01*
X13788817Y4310239D01*
X13812228Y4305582D01*
X13835638Y4310239D01*
X13855486Y4323500D01*
X13868747Y4343347D01*
X13873402Y4366758D01*
X13868747Y4390169D01*
X13855486Y4410015D01*
X13835638Y4423277D01*
X13812228Y4427933D01*
D02*
G37*
G36*
X14210475Y4272010D02*
X14187064Y4267354D01*
X14167216Y4254092D01*
X14153957Y4234246D01*
X14149300Y4210835D01*
X14153957Y4187424D01*
X14167216Y4167577D01*
X14187064Y4154316D01*
X14210475Y4149659D01*
X14233885Y4154316D01*
X14253732Y4167577D01*
X14266994Y4187424D01*
X14271651Y4210835D01*
X14266994Y4234246D01*
X14253732Y4254092D01*
X14233885Y4267354D01*
X14210475Y4272010D01*
D02*
G37*
G36*
X17564101Y4132795D02*
X17540689Y4128139D01*
X17520844Y4114877D01*
X17507581Y4095031D01*
X17502925Y4071620D01*
X17507581Y4048209D01*
X17520844Y4028363D01*
X17540689Y4015101D01*
X17564101Y4010445D01*
X17587511Y4015101D01*
X17607356Y4028363D01*
X17620619Y4048209D01*
X17625275Y4071620D01*
X17620619Y4095031D01*
X17607356Y4114877D01*
X17587511Y4128139D01*
X17564101Y4132795D01*
D02*
G37*
G36*
X12208942Y3693304D02*
X12208941Y3693304D01*
X11708197D01*
X11708196Y3693304D01*
X11692589Y3690199D01*
X11679358Y3681358D01*
X11679357Y3681358D01*
X11613628Y3615629D01*
X11603779Y3619709D01*
X11590269Y3621487D01*
Y3534593D01*
X11677163D01*
X11675385Y3548103D01*
X11671305Y3557952D01*
X11725089Y3611736D01*
X11763526D01*
X11767837Y3599036D01*
X11760248Y3593214D01*
X11744219Y3572324D01*
X11734143Y3547998D01*
X11730706Y3521893D01*
X11734143Y3495788D01*
X11744219Y3471462D01*
X11760248Y3450572D01*
X11781138Y3434543D01*
X11805464Y3424467D01*
X11831569Y3421030D01*
X11857674Y3424467D01*
X11882000Y3434543D01*
X11902890Y3450572D01*
X11918919Y3471462D01*
X11928995Y3495788D01*
X11932432Y3521893D01*
X11928995Y3547998D01*
X11918919Y3572324D01*
X11902890Y3593214D01*
X11895301Y3599036D01*
X11899612Y3611736D01*
X12017526D01*
X12021837Y3599036D01*
X12014248Y3593214D01*
X11998219Y3572324D01*
X11988143Y3547998D01*
X11984706Y3521893D01*
X11988143Y3495788D01*
X11998219Y3471462D01*
X12014248Y3450572D01*
X12035138Y3434543D01*
X12059464Y3424467D01*
X12085569Y3421030D01*
X12111674Y3424467D01*
X12136000Y3434543D01*
X12156890Y3450572D01*
X12172919Y3471462D01*
X12182995Y3495788D01*
X12186432Y3521893D01*
X12182995Y3547998D01*
X12172919Y3572324D01*
X12156890Y3593214D01*
X12149301Y3599036D01*
X12153612Y3611736D01*
X12192049D01*
X12245833Y3557952D01*
X12241753Y3548103D01*
X12239975Y3534593D01*
X12326869D01*
Y3621487D01*
X12313359Y3619709D01*
X12303510Y3615629D01*
X12237780Y3681358D01*
X12224549Y3690199D01*
X12221960Y3690714D01*
X12208942Y3693304D01*
D02*
G37*
G36*
X16570959Y3660355D02*
X16547549Y3655699D01*
X16527702Y3642437D01*
X16514441Y3622591D01*
X16509785Y3599180D01*
X16514441Y3575769D01*
X16527702Y3555923D01*
X16547549Y3542661D01*
X16570959Y3538005D01*
X16594371Y3542661D01*
X16614217Y3555923D01*
X16627480Y3575769D01*
X16632135Y3599180D01*
X16627480Y3622591D01*
X16614217Y3642437D01*
X16594371Y3655699D01*
X16570959Y3660355D01*
D02*
G37*
G36*
X12352269Y3621487D02*
Y3534593D01*
X12439163D01*
X12437385Y3548103D01*
X12427268Y3572526D01*
X12411175Y3593499D01*
X12390202Y3609592D01*
X12365779Y3619709D01*
X12352269Y3621487D01*
D02*
G37*
G36*
X11564869D02*
X11551359Y3619709D01*
X11526936Y3609592D01*
X11505963Y3593499D01*
X11489870Y3572526D01*
X11479753Y3548103D01*
X11477975Y3534593D01*
X11564869D01*
Y3621487D01*
D02*
G37*
G36*
X10795000Y3546055D02*
X10771589Y3541399D01*
X10751743Y3528137D01*
X10738481Y3508291D01*
X10733825Y3484880D01*
X10738481Y3461469D01*
X10751743Y3441623D01*
X10771589Y3428361D01*
X10795000Y3423705D01*
X10818411Y3428361D01*
X10838257Y3441623D01*
X10851519Y3461469D01*
X10856175Y3484880D01*
X10851519Y3508291D01*
X10838257Y3528137D01*
X10818411Y3541399D01*
X10795000Y3546055D01*
D02*
G37*
G36*
X12439163Y3509193D02*
X12352269D01*
Y3422299D01*
X12365779Y3424077D01*
X12390202Y3434194D01*
X12411175Y3450287D01*
X12427268Y3471260D01*
X12437385Y3495683D01*
X12439163Y3509193D01*
D02*
G37*
G36*
X11677163D02*
X11590269D01*
Y3422299D01*
X11603779Y3424077D01*
X11628202Y3434194D01*
X11649175Y3450287D01*
X11665268Y3471260D01*
X11675385Y3495683D01*
X11677163Y3509193D01*
D02*
G37*
G36*
X12326869D02*
X12239975D01*
X12241753Y3495683D01*
X12251870Y3471260D01*
X12267963Y3450287D01*
X12288936Y3434194D01*
X12313359Y3424077D01*
X12326869Y3422299D01*
Y3509193D01*
D02*
G37*
G36*
X11564869D02*
X11477975D01*
X11479753Y3495683D01*
X11489870Y3471260D01*
X11505963Y3450287D01*
X11526936Y3434194D01*
X11551359Y3424077D01*
X11564869Y3422299D01*
Y3509193D01*
D02*
G37*
G36*
X12693569Y3621893D02*
X12493569D01*
Y3421893D01*
X12693569D01*
Y3621893D01*
D02*
G37*
G36*
X8941242Y4137875D02*
X8917831Y4133219D01*
X8897984Y4119957D01*
X8884723Y4100111D01*
X8880067Y4076700D01*
X8884723Y4053289D01*
X8897984Y4033443D01*
X8917831Y4020181D01*
X8941242Y4015525D01*
X8964653Y4020181D01*
X8984499Y4033443D01*
X8986152Y4035916D01*
X10751869D01*
X11230139Y3557646D01*
X11226143Y3547998D01*
X11222706Y3521893D01*
X11226143Y3495788D01*
X11236219Y3471462D01*
X11252248Y3450572D01*
X11273138Y3434543D01*
X11297464Y3424467D01*
X11323569Y3421030D01*
X11349674Y3424467D01*
X11374000Y3434543D01*
X11394890Y3450572D01*
X11410919Y3471462D01*
X11420995Y3495788D01*
X11424432Y3521893D01*
X11420995Y3547998D01*
X11410919Y3572324D01*
X11394890Y3593214D01*
X11374000Y3609242D01*
X11349674Y3619319D01*
X11323569Y3622756D01*
X11297464Y3619319D01*
X11287816Y3615322D01*
X10797600Y4105538D01*
X10784369Y4114379D01*
X10768762Y4117484D01*
X10768761Y4117484D01*
X8986152D01*
X8984499Y4119957D01*
X8964653Y4133219D01*
X8941242Y4137875D01*
D02*
G37*
G36*
X11069569Y3622756D02*
X11043464Y3619319D01*
X11019138Y3609242D01*
X10998248Y3593214D01*
X10982219Y3572324D01*
X10972143Y3547998D01*
X10968706Y3521893D01*
X10972143Y3495788D01*
X10982219Y3471462D01*
X10998248Y3450572D01*
X11019138Y3434543D01*
X11043464Y3424467D01*
X11069569Y3421030D01*
X11095674Y3424467D01*
X11120000Y3434543D01*
X11140890Y3450572D01*
X11156919Y3471462D01*
X11166995Y3495788D01*
X11170432Y3521893D01*
X11166995Y3547998D01*
X11156919Y3572324D01*
X11140890Y3593214D01*
X11120000Y3609242D01*
X11095674Y3619319D01*
X11069569Y3622756D01*
D02*
G37*
G36*
X5969000Y3173097D02*
Y3126740D01*
X6015357D01*
X6013195Y3137607D01*
X5999846Y3157586D01*
X5979867Y3170935D01*
X5969000Y3173097D01*
D02*
G37*
G36*
X5943600D02*
X5932733Y3170935D01*
X5912754Y3157586D01*
X5899405Y3137607D01*
X5897243Y3126740D01*
X5943600D01*
Y3173097D01*
D02*
G37*
G36*
X6015357Y3101340D02*
X5969000D01*
Y3054983D01*
X5979867Y3057145D01*
X5999846Y3070494D01*
X6013195Y3090473D01*
X6015357Y3101340D01*
D02*
G37*
G36*
X5943600D02*
X5897243D01*
X5899405Y3090473D01*
X5912754Y3070494D01*
X5932733Y3057145D01*
X5943600Y3054983D01*
Y3101340D01*
D02*
G37*
G36*
X15688544Y2788378D02*
X15685284Y2787730D01*
X15681969Y2787952D01*
X15675613Y2785806D01*
X15669035Y2784498D01*
X15666272Y2782652D01*
X15663123Y2781588D01*
X15658073Y2777173D01*
X15652496Y2773447D01*
X15650648Y2770683D01*
X15648148Y2768496D01*
X15645172Y2762485D01*
X15641444Y2756908D01*
X15640796Y2753648D01*
X15639322Y2750670D01*
X15638873Y2743979D01*
X15637564Y2737399D01*
X15638213Y2734139D01*
X15637990Y2730823D01*
X15640137Y2724469D01*
X15641444Y2717890D01*
X15643291Y2715127D01*
X15644354Y2711978D01*
X15648770Y2706928D01*
X15652496Y2701351D01*
X15655260Y2699504D01*
X15657446Y2697002D01*
X15663457Y2694027D01*
X15669035Y2690300D01*
X15672295Y2689651D01*
X15675272Y2688177D01*
X15681964Y2687728D01*
X15688544Y2686419D01*
X15691805Y2687068D01*
X15695119Y2686845D01*
X15701474Y2688991D01*
X15708054Y2690300D01*
X15710815Y2692146D01*
X15713965Y2693209D01*
X15719016Y2697625D01*
X15724593Y2701351D01*
X15726437Y2704114D01*
X15728940Y2706301D01*
X15731915Y2712312D01*
X15735643Y2717890D01*
X15736292Y2721150D01*
X15737766Y2724127D01*
X15738214Y2730819D01*
X15739523Y2737399D01*
X15738875Y2740659D01*
X15739098Y2743974D01*
X15736951Y2750329D01*
X15735643Y2756908D01*
X15733797Y2759671D01*
X15732733Y2762819D01*
X15728317Y2767870D01*
X15724593Y2773447D01*
X15721828Y2775293D01*
X15719641Y2777795D01*
X15713631Y2780771D01*
X15708054Y2784498D01*
X15704793Y2785146D01*
X15701814Y2786620D01*
X15695123Y2787069D01*
X15688544Y2788378D01*
D02*
G37*
G36*
X6188542Y2859092D02*
X6181964Y2857783D01*
X6175273Y2857335D01*
X6172294Y2855860D01*
X6169033Y2855211D01*
X6163457Y2851485D01*
X6157447Y2848510D01*
X6155258Y2846007D01*
X6152494Y2844160D01*
X6148769Y2838584D01*
X6144354Y2833535D01*
X6143290Y2830385D01*
X6141443Y2827621D01*
X6140135Y2821043D01*
X6137989Y2814690D01*
X6138211Y2811373D01*
X6137563Y2808112D01*
X6138871Y2801534D01*
X6139320Y2794843D01*
X6140795Y2791864D01*
X6141443Y2788603D01*
X6145169Y2783027D01*
X6148145Y2777017D01*
X6150648Y2774828D01*
X6152494Y2772064D01*
X6158070Y2768339D01*
X6163119Y2763924D01*
X6166269Y2762860D01*
X6169033Y2761013D01*
X6175611Y2759705D01*
X6181965Y2757559D01*
X6185282Y2757781D01*
X6188542Y2757133D01*
X6195120Y2758441D01*
X6201811Y2758890D01*
X6204791Y2760365D01*
X6208051Y2761013D01*
X6213627Y2764739D01*
X6219638Y2767715D01*
X6221826Y2770217D01*
X6224590Y2772064D01*
X6228316Y2777640D01*
X6232730Y2782689D01*
X6233794Y2785839D01*
X6235641Y2788603D01*
X6236950Y2795181D01*
X6239096Y2801535D01*
X6238873Y2804851D01*
X6239522Y2808112D01*
X6238214Y2814690D01*
X6237765Y2821381D01*
X6236290Y2824361D01*
X6235641Y2827621D01*
X6231915Y2833197D01*
X6228940Y2839208D01*
X6226437Y2841396D01*
X6224590Y2844160D01*
X6219014Y2847886D01*
X6213965Y2852300D01*
X6210816Y2853364D01*
X6208051Y2855211D01*
X6201473Y2856520D01*
X6195120Y2858666D01*
X6191803Y2858443D01*
X6188542Y2859092D01*
D02*
G37*
G36*
X7693660Y2535135D02*
X7670249Y2530479D01*
X7650403Y2517217D01*
X7637141Y2497371D01*
X7632485Y2473960D01*
X7637141Y2450549D01*
X7650403Y2430703D01*
X7670249Y2417441D01*
X7693660Y2412785D01*
X7717071Y2417441D01*
X7736917Y2430703D01*
X7750179Y2450549D01*
X7754835Y2473960D01*
X7750179Y2497371D01*
X7736917Y2517217D01*
X7717071Y2530479D01*
X7693660Y2535135D01*
D02*
G37*
G36*
X9449242Y2485844D02*
X9425831Y2481188D01*
X9405984Y2467926D01*
X9392723Y2448080D01*
X9388067Y2424669D01*
X9392723Y2401258D01*
X9405984Y2381411D01*
X9425831Y2368150D01*
X9449242Y2363493D01*
X9472653Y2368150D01*
X9492499Y2381411D01*
X9505761Y2401258D01*
X9510417Y2424669D01*
X9505761Y2448080D01*
X9492499Y2467926D01*
X9472653Y2481188D01*
X9449242Y2485844D01*
D02*
G37*
G36*
X6121400Y2383416D02*
X6097989Y2378760D01*
X6078143Y2365498D01*
X6064881Y2345652D01*
X6060225Y2322241D01*
X6064881Y2298830D01*
X6078143Y2278983D01*
X6097989Y2265722D01*
X6121400Y2261065D01*
X6144811Y2265722D01*
X6164657Y2278983D01*
X6177919Y2298830D01*
X6182575Y2322241D01*
X6177919Y2345652D01*
X6164657Y2365498D01*
X6144811Y2378760D01*
X6121400Y2383416D01*
D02*
G37*
G36*
X10929103Y1550977D02*
X10929103Y1550976D01*
X10929102Y1550977D01*
X10909594Y1547096D01*
X10909594Y1547096D01*
X10909593Y1547096D01*
X10899635Y1540442D01*
X10893055Y1536046D01*
X10893054Y1536045D01*
X10893054Y1536045D01*
X10888658Y1529467D01*
X10882003Y1519508D01*
X10882003Y1519506D01*
X10882003Y1519506D01*
X10878122Y1499999D01*
X10878123Y1499998D01*
X10878122Y1499997D01*
X10882002Y1480490D01*
X10882003Y1480489D01*
X10882003Y1480488D01*
X10888657Y1470530D01*
X10893053Y1463950D01*
X10893053Y1463950D01*
X10893054Y1463949D01*
X10899632Y1459554D01*
X10909591Y1452899D01*
X10909592Y1452898D01*
X10909593Y1452898D01*
X10929100Y1449017D01*
X10929101Y1449018D01*
X10929102Y1449017D01*
X10948609Y1452898D01*
X10948610Y1452898D01*
X10948611Y1452898D01*
X10958569Y1459552D01*
X10965149Y1463948D01*
X10965149Y1463949D01*
X10965150Y1463949D01*
X10969545Y1470527D01*
X10976200Y1480486D01*
X10976201Y1480488D01*
X10976201Y1480488D01*
X10980081Y1499995D01*
X10980081Y1499996D01*
X10980081Y1499997D01*
X10976201Y1519504D01*
X10976201Y1519505D01*
X10976201Y1519506D01*
X10969547Y1529464D01*
X10965151Y1536044D01*
X10965150Y1536044D01*
X10965150Y1536045D01*
X10958571Y1540440D01*
X10948612Y1547095D01*
X10948611Y1547096D01*
X10948611Y1547096D01*
X10940745Y1548661D01*
X10929103Y1550977D01*
D02*
G37*
%LPD*%
G36*
X11413542Y17776311D02*
X11421259Y17770901D01*
X11425409Y17750037D01*
X11438670Y17730190D01*
X11458517Y17716928D01*
X11481928Y17712271D01*
X11484846Y17712852D01*
X11624336Y17573363D01*
X11624336Y17573363D01*
X11637567Y17564520D01*
X11640157Y17564006D01*
X11637711Y17551544D01*
X11525633D01*
X11407284Y17669893D01*
Y17777332D01*
X11408751Y17778212D01*
X11413542Y17776311D01*
D02*
G37*
G36*
X7334162Y14145699D02*
X7023987Y13835524D01*
X4588893D01*
X4370975Y14053442D01*
X4371555Y14056360D01*
X4366899Y14079771D01*
X4357180Y14094316D01*
X4363684Y14107016D01*
X4570347D01*
X4784462Y13892902D01*
X4797693Y13884061D01*
X4813300Y13880956D01*
X4813301Y13880956D01*
X5786119D01*
X5786120Y13880956D01*
X5801727Y13884061D01*
X5814958Y13892902D01*
X6079488Y14157433D01*
X7329302D01*
X7334162Y14145699D01*
D02*
G37*
G36*
X16304939Y13871318D02*
X16304359Y13868401D01*
X16309016Y13844989D01*
X16322276Y13825143D01*
X16342123Y13811880D01*
X16365535Y13807225D01*
X16387936Y13811681D01*
X16390942Y13811404D01*
X16400636Y13806223D01*
Y13732893D01*
X15244257Y12576514D01*
X15232524Y12581374D01*
Y13241582D01*
X15383893Y13392950D01*
X15497917D01*
X15513524Y13396056D01*
X15526755Y13404897D01*
X15535596Y13418127D01*
X15538699Y13433736D01*
X15535596Y13449342D01*
X15526755Y13462573D01*
X15513524Y13471414D01*
X15497917Y13474518D01*
X15367000D01*
X15351393Y13471414D01*
X15338162Y13462573D01*
X15338161Y13462573D01*
X15162901Y13287312D01*
X15154060Y13274081D01*
X15150957Y13258475D01*
X15150957Y13258475D01*
Y12466321D01*
X15150957Y12466320D01*
X15150957Y12466319D01*
Y12192001D01*
X15150957Y12192000D01*
X15154060Y12176393D01*
X15162901Y12163162D01*
X15211160Y12114902D01*
X15211162Y12114902D01*
X15224393Y12106061D01*
X15239999Y12102956D01*
X15240001Y12102956D01*
X15756818D01*
X15756819Y12102956D01*
X15772426Y12106061D01*
X15785657Y12114902D01*
X16242574Y12571817D01*
X16254277Y12565561D01*
X16250705Y12547600D01*
X16255360Y12524189D01*
X16268623Y12504343D01*
X16271095Y12502689D01*
Y11477373D01*
X15287437Y10493714D01*
X15275703Y10498574D01*
Y11179349D01*
X15278177Y11181003D01*
X15291438Y11200849D01*
X15296095Y11224260D01*
X15291438Y11247671D01*
X15278177Y11267517D01*
X15258331Y11280779D01*
X15234920Y11285435D01*
X15211510Y11280779D01*
X15191663Y11267517D01*
X15178401Y11247671D01*
X15173746Y11224260D01*
X15178401Y11200849D01*
X15191663Y11181003D01*
X15194136Y11179349D01*
Y10496933D01*
X12524611Y7827408D01*
X9659157D01*
X7328044Y10158521D01*
Y11798300D01*
X7324939Y11813907D01*
X7316098Y11827138D01*
X7316098Y11827139D01*
X6553344Y12589893D01*
Y12711492D01*
X6553643Y12713000D01*
X6550539Y12728607D01*
X6541698Y12741838D01*
X6528467Y12750679D01*
X6512860Y12753783D01*
X6497253Y12750679D01*
X6484022Y12741838D01*
X6483722Y12741538D01*
X6474881Y12728307D01*
X6471776Y12712700D01*
X6471776Y12712699D01*
Y12573001D01*
X6471776Y12573000D01*
X6474881Y12557393D01*
X6483722Y12544162D01*
X6675434Y12352449D01*
X6671748Y12340296D01*
X6669292Y12339807D01*
X6649313Y12326458D01*
X6635964Y12306479D01*
X6633802Y12295612D01*
X6692859D01*
Y12282912D01*
X6705559D01*
Y12223855D01*
X6716426Y12226016D01*
X6736405Y12239366D01*
X6749755Y12259345D01*
X6750243Y12261800D01*
X6762396Y12265487D01*
X7246476Y11781407D01*
Y10241703D01*
X7236659Y10233647D01*
X7235868Y10233804D01*
X7235867Y10233804D01*
X5068953D01*
X3932815Y11369942D01*
X3933395Y11372860D01*
X3928739Y11396271D01*
X3915477Y11416118D01*
X3895631Y11429379D01*
X3872220Y11434036D01*
X3848809Y11429379D01*
X3846744Y11427999D01*
X3835544Y11433986D01*
Y13643227D01*
X4238316Y14046001D01*
X4252097Y14041818D01*
X4253861Y14032948D01*
X4267123Y14013103D01*
X4286969Y13999841D01*
X4310380Y13995184D01*
X4313298Y13995766D01*
X4543162Y13765903D01*
X4556393Y13757060D01*
X4572000Y13753957D01*
X4572001Y13753957D01*
X7040879D01*
X7040880Y13753957D01*
X7056487Y13757060D01*
X7069718Y13765903D01*
X7406248Y14102432D01*
X16073827D01*
X16304939Y13871318D01*
D02*
G37*
G36*
X17309964Y12345280D02*
X17315396Y12341650D01*
X17322606Y12330861D01*
X17342451Y12317599D01*
X17361377Y12313835D01*
X17366637Y12301133D01*
X16979192Y11913688D01*
X16976273Y11914268D01*
X16952863Y11909612D01*
X16933015Y11896350D01*
X16919754Y11876504D01*
X16915097Y11853093D01*
X16919754Y11829682D01*
X16933015Y11809835D01*
X16952863Y11796574D01*
X16976273Y11791917D01*
X16999684Y11796574D01*
X17019530Y11809835D01*
X17032793Y11829682D01*
X17037448Y11853093D01*
X17036868Y11856011D01*
X17658904Y12478046D01*
X17670636Y12473186D01*
Y12163173D01*
X16834222Y11326758D01*
X16825381Y11313527D01*
X16822276Y11297920D01*
X16822276Y11297919D01*
Y7573393D01*
X15822038Y6573155D01*
X15819119Y6573735D01*
X15796404Y6569217D01*
X15794177Y6569156D01*
X15783704Y6575658D01*
Y6780147D01*
X15879317Y6875760D01*
X15882588Y6875088D01*
X15888400Y6860929D01*
X15884113Y6854510D01*
X15879456Y6831099D01*
X15884113Y6807688D01*
X15897374Y6787841D01*
X15917220Y6774580D01*
X15940631Y6769923D01*
X15964043Y6774580D01*
X15983888Y6787841D01*
X15997150Y6807688D01*
X16001807Y6831099D01*
X15997150Y6854510D01*
X15986278Y6870780D01*
X15991354Y6883480D01*
X16066185D01*
X16066187Y6883480D01*
X16081793Y6886584D01*
X16095024Y6895425D01*
X16691238Y7491639D01*
X16691238Y7491639D01*
X16700079Y7504870D01*
X16703185Y7520478D01*
Y9707880D01*
Y12446000D01*
X16700079Y12461607D01*
X16691238Y12474838D01*
X16691238Y12474839D01*
X16556618Y12609458D01*
X16556618Y12609459D01*
X16514638Y12651440D01*
X16501405Y12660280D01*
X16485799Y12663385D01*
X16485799Y12663385D01*
X16235681D01*
X16235680Y12663385D01*
X16220073Y12660280D01*
X16206842Y12651440D01*
X16206841Y12651439D01*
X15739926Y12184524D01*
X15303976D01*
X15300124Y12197224D01*
X15311197Y12204623D01*
X15312851Y12207096D01*
X15493999D01*
X15494000Y12207096D01*
X15509607Y12210201D01*
X15522838Y12219042D01*
X15665079Y12361281D01*
X15665079Y12361282D01*
X15673920Y12374513D01*
X15677023Y12390120D01*
X15677023Y12390121D01*
Y12599888D01*
X15678481Y12600863D01*
X15680135Y12603336D01*
X15874998D01*
X15875000Y12603336D01*
X15890607Y12606441D01*
X15903838Y12615282D01*
X16272893Y12984335D01*
X16303091D01*
X16308388Y12974429D01*
X16308475Y12971635D01*
X16306483Y12961620D01*
X16424597D01*
X16422604Y12971635D01*
X16422693Y12974429D01*
X16427989Y12984335D01*
X16670908D01*
X17309964Y12345280D01*
D02*
G37*
G36*
X6456380Y8845323D02*
X6450124Y8833619D01*
X6446520Y8834335D01*
X6423109Y8829679D01*
X6403263Y8816417D01*
X6401609Y8813944D01*
X3917130D01*
X3915477Y8816417D01*
X3895631Y8829679D01*
X3872220Y8834335D01*
X3848809Y8829679D01*
X3846744Y8828299D01*
X3835544Y8834286D01*
Y9184474D01*
X3846744Y9190461D01*
X3848809Y9189081D01*
X3872220Y9184425D01*
X3895631Y9189081D01*
X3915477Y9202343D01*
X3917130Y9204816D01*
X6096887D01*
X6456380Y8845323D01*
D02*
G37*
G36*
X16621616Y12429107D02*
Y9707880D01*
Y7537371D01*
X16060025Y6975780D01*
X16050160Y6983876D01*
X16058852Y6996882D01*
X16063509Y7020293D01*
X16058852Y7043704D01*
X16045590Y7063551D01*
X16025745Y7076812D01*
X16002333Y7081469D01*
X15978922Y7076812D01*
X15959074Y7063551D01*
X15957422Y7061077D01*
X13639180D01*
X13442578Y7257678D01*
X13429347Y7266519D01*
X13413741Y7269624D01*
X13413739Y7269624D01*
X6367475D01*
X6365879Y7277651D01*
X6352617Y7297497D01*
X6332771Y7310759D01*
X6309360Y7315415D01*
X6285949Y7310759D01*
X6266103Y7297497D01*
X6252841Y7277651D01*
X6248185Y7254240D01*
X6252841Y7230829D01*
X6256774Y7224944D01*
X6250787Y7213744D01*
X5451282D01*
X5435675Y7210639D01*
X5422444Y7201798D01*
X5422443Y7201798D01*
X5375460Y7154815D01*
X5372542Y7155395D01*
X5349131Y7150739D01*
X5329284Y7137477D01*
X5316023Y7117631D01*
X5311367Y7094220D01*
X5316023Y7070809D01*
X5329284Y7050963D01*
X5349131Y7037701D01*
X5372542Y7033045D01*
X5395953Y7037701D01*
X5415799Y7050963D01*
X5429061Y7070809D01*
X5433717Y7094220D01*
X5433137Y7097138D01*
X5468175Y7132176D01*
X6476100D01*
X6481428Y7119476D01*
X6475181Y7110127D01*
X6472076Y7094520D01*
X6475181Y7078913D01*
X6484021Y7065681D01*
X6484321Y7065382D01*
X6484321Y7065382D01*
X6497552Y7056541D01*
X6513159Y7053436D01*
X6513161Y7053436D01*
X12939647D01*
X14091341Y5901743D01*
X14090759Y5898825D01*
X14094331Y5880864D01*
X14082628Y5874608D01*
X12966257Y6990978D01*
X12953026Y6999819D01*
X12937419Y7002924D01*
X12937418Y7002924D01*
X4200273D01*
X3852848Y7350349D01*
X3859104Y7362054D01*
X3872220Y7359445D01*
X3895631Y7364101D01*
X3915477Y7377363D01*
X3928739Y7397209D01*
X3933395Y7420620D01*
X3928739Y7444031D01*
X3915477Y7463878D01*
X3895631Y7477139D01*
X3872220Y7481796D01*
X3869302Y7481215D01*
X3835544Y7514973D01*
Y8712034D01*
X3846744Y8718021D01*
X3848809Y8716641D01*
X3872220Y8711985D01*
X3895631Y8716641D01*
X3915477Y8729903D01*
X3917130Y8732376D01*
X6401609D01*
X6403263Y8729903D01*
X6423109Y8716641D01*
X6446520Y8711985D01*
X6469931Y8716641D01*
X6489777Y8729903D01*
X6503039Y8749749D01*
X6507695Y8773160D01*
X6506979Y8776764D01*
X6518683Y8783020D01*
X7812141Y7489562D01*
X7812142Y7489562D01*
X7825373Y7480721D01*
X7840980Y7477616D01*
X13457806D01*
X13747990Y7187433D01*
X13747990Y7187433D01*
X13761221Y7178592D01*
X13776830Y7175488D01*
X14240192D01*
X14245633Y7162787D01*
X14241354Y7141271D01*
X14246010Y7117860D01*
X14259271Y7098013D01*
X14279118Y7084752D01*
X14302528Y7080096D01*
X14325940Y7084752D01*
X14345787Y7098013D01*
X14359048Y7117860D01*
X14363705Y7141271D01*
X14359425Y7162787D01*
X14364867Y7175488D01*
X15015596D01*
X15018578Y7171026D01*
X15038423Y7157764D01*
X15061835Y7153108D01*
X15085245Y7157764D01*
X15105092Y7171026D01*
X15118353Y7190872D01*
X15123010Y7214283D01*
X15119218Y7233344D01*
X15119373Y7233691D01*
X15127864Y7242631D01*
X15129198Y7243323D01*
X15147491Y7239684D01*
X15170901Y7244340D01*
X15190749Y7257602D01*
X15204008Y7277448D01*
X15208665Y7300859D01*
X15204008Y7324270D01*
X15190749Y7344117D01*
X15170901Y7357378D01*
X15147491Y7362035D01*
X15124080Y7357378D01*
X15104233Y7344117D01*
X15090971Y7324270D01*
X15086314Y7300859D01*
X15090106Y7281798D01*
X15089954Y7281452D01*
X15081461Y7272512D01*
X15080128Y7271820D01*
X15061835Y7275459D01*
X15038423Y7270802D01*
X15018578Y7257541D01*
X15018253Y7257055D01*
X13880656D01*
X13879407Y7269755D01*
X13880177Y7269908D01*
X13900024Y7283169D01*
X13913286Y7303016D01*
X13917941Y7326427D01*
X13917361Y7329345D01*
X16394379Y9806361D01*
X16394379Y9806362D01*
X16403220Y9819593D01*
X16406323Y9835200D01*
Y11014249D01*
X16408798Y11015903D01*
X16422060Y11035749D01*
X16426715Y11059160D01*
X16422060Y11082571D01*
X16408798Y11102417D01*
X16388951Y11115679D01*
X16365540Y11120335D01*
X16342130Y11115679D01*
X16322282Y11102417D01*
X16309021Y11082571D01*
X16304366Y11059160D01*
X16309021Y11035749D01*
X16322282Y11015903D01*
X16324757Y11014249D01*
Y9852093D01*
X13859685Y7387022D01*
X13856767Y7387602D01*
X13833356Y7382946D01*
X13813509Y7369684D01*
X13800249Y7349838D01*
X13795592Y7326427D01*
X13800249Y7303016D01*
X13813509Y7283169D01*
X13833356Y7269908D01*
X13834126Y7269755D01*
X13832877Y7257055D01*
X13793723D01*
X13503539Y7547238D01*
X13490308Y7556079D01*
X13474699Y7559184D01*
X13474699Y7559184D01*
X7857873D01*
X6142618Y9274438D01*
X6129387Y9283279D01*
X6113780Y9286384D01*
X6113779Y9286384D01*
X3917130D01*
X3915477Y9288857D01*
X3895631Y9302119D01*
X3894916Y9302261D01*
X3890214Y9315969D01*
X3894826Y9321656D01*
X6785227D01*
X8389871Y7717013D01*
X8385011Y7705279D01*
X8219742D01*
X7556135Y8368886D01*
X7556715Y8371804D01*
X7552059Y8395215D01*
X7538797Y8415062D01*
X7518951Y8428323D01*
X7495540Y8432980D01*
X7472129Y8428323D01*
X7452283Y8415062D01*
X7439021Y8395215D01*
X7434365Y8371804D01*
X7439021Y8348394D01*
X7452283Y8328547D01*
X7472129Y8315286D01*
X7495540Y8310629D01*
X7498458Y8311209D01*
X8174010Y7635658D01*
X8174010Y7635657D01*
X8187241Y7626817D01*
X8202849Y7623712D01*
X13465854D01*
X13465855Y7623712D01*
X13481464Y7626817D01*
X13494695Y7635657D01*
X16174342Y10315305D01*
X16177260Y10314725D01*
X16200671Y10319381D01*
X16220517Y10332643D01*
X16233778Y10352489D01*
X16238435Y10375900D01*
X16233778Y10399311D01*
X16220517Y10419157D01*
X16200671Y10432419D01*
X16177260Y10437075D01*
X16153848Y10432419D01*
X16134003Y10419157D01*
X16120741Y10399311D01*
X16116084Y10375900D01*
X16116666Y10372982D01*
X13448962Y7705279D01*
X12630950D01*
X12626089Y7717013D01*
X16340718Y11431641D01*
X16340718Y11431642D01*
X16349559Y11444873D01*
X16352664Y11460480D01*
X16352664Y11460481D01*
Y12456622D01*
X16367229Y12459519D01*
X16387074Y12472780D01*
X16388728Y12475254D01*
X16507460D01*
X16523067Y12478359D01*
X16536298Y12487200D01*
X16540009Y12492753D01*
X16555972Y12494751D01*
X16621616Y12429107D01*
D02*
G37*
G36*
X13593448Y6991455D02*
X13606679Y6982614D01*
X13622287Y6979510D01*
X13622289Y6979510D01*
X15512659D01*
X15514198Y6974433D01*
X15515820Y6966810D01*
X15503033Y6947674D01*
X15498376Y6924264D01*
X15501895Y6906576D01*
X14651756Y6056438D01*
X14648837Y6057018D01*
X14625427Y6052362D01*
X14605580Y6039100D01*
X14592319Y6019254D01*
X14587662Y5995843D01*
X14592319Y5972432D01*
X14605580Y5952585D01*
X14625427Y5939324D01*
X14648837Y5934667D01*
X14668546Y5938587D01*
X14674908Y5926990D01*
X14611581Y5863662D01*
X14214072D01*
X14208844Y5873445D01*
X14208643Y5876362D01*
X14213110Y5898825D01*
X14208453Y5922236D01*
X14195193Y5942082D01*
X14175346Y5955344D01*
X14151935Y5960000D01*
X14149017Y5959420D01*
X12988960Y7119476D01*
X12994026Y7132176D01*
X13287627D01*
X13674461Y6745342D01*
X13674461Y6745342D01*
X13687692Y6736501D01*
X13703300Y6733396D01*
X15158719D01*
X15158720Y6733396D01*
X15174327Y6736501D01*
X15187558Y6745342D01*
X15239622Y6797405D01*
X15242540Y6796825D01*
X15265952Y6801481D01*
X15285797Y6814743D01*
X15299059Y6834589D01*
X15303716Y6858000D01*
X15299059Y6881411D01*
X15285797Y6901257D01*
X15265952Y6914519D01*
X15242540Y6919175D01*
X15219128Y6914519D01*
X15199283Y6901257D01*
X15186021Y6881411D01*
X15181364Y6858000D01*
X15181944Y6855082D01*
X15141827Y6814964D01*
X14928094D01*
X14921304Y6827664D01*
X14929535Y6839979D01*
X14934190Y6863390D01*
X14929535Y6886801D01*
X14916273Y6906647D01*
X14896426Y6919909D01*
X14873016Y6924565D01*
X14849605Y6919909D01*
X14829758Y6906647D01*
X14816496Y6886801D01*
X14811839Y6863390D01*
X14816496Y6839979D01*
X14824725Y6827664D01*
X14817938Y6814964D01*
X14222685D01*
X14218832Y6827664D01*
X14235304Y6838669D01*
X14248566Y6858516D01*
X14253223Y6881927D01*
X14248566Y6905338D01*
X14235304Y6925184D01*
X14215459Y6938446D01*
X14192047Y6943102D01*
X14168636Y6938446D01*
X14148788Y6925184D01*
X14135529Y6905338D01*
X14130872Y6881927D01*
X14135529Y6858516D01*
X14148788Y6838669D01*
X14165260Y6827664D01*
X14161407Y6814964D01*
X13720193D01*
X13358833Y7176323D01*
X13363693Y7188056D01*
X13396848D01*
X13593448Y6991455D01*
D02*
G37*
G36*
X15948055Y6977747D02*
X15943776Y6966152D01*
X15942618Y6965047D01*
X15870145D01*
X15854536Y6961943D01*
X15841306Y6953102D01*
X15841306Y6953101D01*
X15714082Y6825878D01*
X15705241Y6812647D01*
X15702136Y6797040D01*
X15702136Y6797039D01*
Y6460491D01*
X15702136Y6460490D01*
X15705241Y6444883D01*
X15714082Y6431652D01*
X15749870Y6395864D01*
X15749361Y6391482D01*
X15745500Y6383164D01*
X15147977D01*
X15147977Y6383164D01*
X15132368Y6380059D01*
X15119138Y6371218D01*
X15119138Y6371218D01*
X14717691Y5969772D01*
X14706093Y5976135D01*
X14710013Y5995843D01*
X14709433Y5998761D01*
X15577287Y6866616D01*
X15582964Y6867745D01*
X15602811Y6881006D01*
X15616071Y6900853D01*
X15620728Y6924264D01*
X15616071Y6947674D01*
X15603285Y6966810D01*
X15604907Y6974433D01*
X15606447Y6979510D01*
X15945992D01*
X15948055Y6977747D01*
D02*
G37*
%LPC*%
G36*
X15635219Y13774635D02*
X15611807Y13769978D01*
X15591962Y13756717D01*
X15578700Y13736871D01*
X15574043Y13713460D01*
X15578700Y13690050D01*
X15591962Y13670203D01*
X15611807Y13656941D01*
X15635219Y13652284D01*
X15658630Y13656941D01*
X15678476Y13670203D01*
X15691737Y13690050D01*
X15696394Y13713460D01*
X15691737Y13736871D01*
X15678476Y13756717D01*
X15658630Y13769978D01*
X15635219Y13774635D01*
D02*
G37*
G36*
X13992824Y13683896D02*
X13985175Y13682375D01*
X13977425Y13681514D01*
X13975487Y13680447D01*
X13973315Y13680016D01*
X13966830Y13675684D01*
X13959999Y13671921D01*
X13958617Y13670193D01*
X13956776Y13668964D01*
X13952444Y13662480D01*
X13947571Y13656390D01*
X13946954Y13654265D01*
X13945724Y13652425D01*
X13944205Y13644775D01*
X13942033Y13637286D01*
X13942278Y13635088D01*
X13941846Y13632916D01*
X13943365Y13625267D01*
X13944228Y13617516D01*
X13945294Y13615578D01*
X13945724Y13613406D01*
X13950058Y13606923D01*
X13953819Y13600092D01*
X13955547Y13598708D01*
X13956776Y13596867D01*
X13963261Y13592535D01*
X13969350Y13587663D01*
X13971475Y13587047D01*
X13973315Y13585817D01*
X13980965Y13584296D01*
X13988455Y13582124D01*
X13990654Y13582368D01*
X13992824Y13581937D01*
X14000475Y13583458D01*
X14008224Y13584319D01*
X14010162Y13585387D01*
X14012334Y13585817D01*
X14018819Y13590150D01*
X14025650Y13593912D01*
X14027032Y13595639D01*
X14028873Y13596867D01*
X14033205Y13603352D01*
X14038078Y13609442D01*
X14038693Y13611568D01*
X14039923Y13613406D01*
X14041444Y13621057D01*
X14043616Y13628548D01*
X14043372Y13630746D01*
X14043803Y13632916D01*
X14042284Y13640565D01*
X14041422Y13648317D01*
X14040355Y13650255D01*
X14039923Y13652425D01*
X14035591Y13658910D01*
X14031828Y13665742D01*
X14030101Y13667125D01*
X14028873Y13668964D01*
X14022388Y13673297D01*
X14016299Y13678169D01*
X14014172Y13678786D01*
X14012334Y13680016D01*
X14004683Y13681537D01*
X13997194Y13683708D01*
X13994995Y13683464D01*
X13992824Y13683896D01*
D02*
G37*
G36*
X7916296Y13567818D02*
X7914089Y13567380D01*
X7911853Y13567624D01*
X7904401Y13565453D01*
X7896787Y13563937D01*
X7894916Y13562688D01*
X7892756Y13562057D01*
X7886703Y13557199D01*
X7880248Y13552887D01*
X7878998Y13551016D01*
X7877244Y13549608D01*
X7873510Y13542802D01*
X7869197Y13536348D01*
X7868758Y13534142D01*
X7867676Y13532169D01*
X7866831Y13524454D01*
X7865317Y13516840D01*
X7865755Y13514632D01*
X7865511Y13512395D01*
X7867683Y13504944D01*
X7869197Y13497330D01*
X7870447Y13495459D01*
X7871077Y13493298D01*
X7875935Y13487245D01*
X7880248Y13480791D01*
X7882119Y13479541D01*
X7883527Y13477786D01*
X7890332Y13474052D01*
X7896787Y13469740D01*
X7898994Y13469301D01*
X7900966Y13468219D01*
X7908681Y13467374D01*
X7916296Y13465858D01*
X7918503Y13466298D01*
X7920739Y13466052D01*
X7928191Y13468225D01*
X7935805Y13469740D01*
X7937676Y13470990D01*
X7939836Y13471619D01*
X7945890Y13476479D01*
X7952344Y13480791D01*
X7953594Y13482661D01*
X7955349Y13484070D01*
X7959082Y13490875D01*
X7963395Y13497330D01*
X7963834Y13499538D01*
X7964916Y13501509D01*
X7965761Y13509224D01*
X7967276Y13516840D01*
X7966837Y13519046D01*
X7967082Y13521281D01*
X7964910Y13528734D01*
X7963395Y13536348D01*
X7962145Y13538219D01*
X7961515Y13540378D01*
X7956657Y13546432D01*
X7952344Y13552887D01*
X7950473Y13554137D01*
X7949065Y13555891D01*
X7942260Y13559625D01*
X7935805Y13563937D01*
X7933598Y13564375D01*
X7931626Y13565459D01*
X7923911Y13566304D01*
X7916296Y13567818D01*
D02*
G37*
G36*
X13836264Y13506439D02*
X13812852Y13501784D01*
X13793005Y13488521D01*
X13779745Y13468675D01*
X13775089Y13445264D01*
X13779745Y13421854D01*
X13793005Y13402007D01*
X13812852Y13388745D01*
X13836264Y13384090D01*
X13859676Y13388745D01*
X13879521Y13402007D01*
X13892783Y13421854D01*
X13897440Y13445264D01*
X13892783Y13468675D01*
X13879521Y13488521D01*
X13859676Y13501784D01*
X13836264Y13506439D01*
D02*
G37*
G36*
X8144523Y13473135D02*
X8121112Y13468478D01*
X8101265Y13455217D01*
X8088004Y13435370D01*
X8083347Y13411958D01*
X8088004Y13388548D01*
X8101265Y13368703D01*
X8121112Y13355441D01*
X8144523Y13350784D01*
X8167934Y13355441D01*
X8187780Y13368703D01*
X8201042Y13388548D01*
X8205698Y13411958D01*
X8201042Y13435370D01*
X8187780Y13455217D01*
X8167934Y13468478D01*
X8144523Y13473135D01*
D02*
G37*
G36*
X7473168Y13134978D02*
X7462301Y13132816D01*
X7442322Y13119466D01*
X7440476Y13116704D01*
X4279572D01*
X4277726Y13119466D01*
X4257747Y13132816D01*
X4246880Y13134978D01*
Y13075920D01*
Y13016862D01*
X4257747Y13019025D01*
X4277726Y13032375D01*
X4279572Y13035136D01*
X7440476D01*
X7442322Y13032375D01*
X7462301Y13019025D01*
X7473168Y13016862D01*
Y13075920D01*
Y13134978D01*
D02*
G37*
G36*
X7498568D02*
Y13088620D01*
X7544925D01*
X7542763Y13099487D01*
X7529414Y13119466D01*
X7509435Y13132816D01*
X7498568Y13134978D01*
D02*
G37*
G36*
X4221480D02*
X4210613Y13132816D01*
X4190634Y13119466D01*
X4177285Y13099487D01*
X4175123Y13088620D01*
X4221480D01*
Y13134978D01*
D02*
G37*
G36*
X7544925Y13063220D02*
X7498568D01*
Y13016862D01*
X7509435Y13019025D01*
X7529414Y13032375D01*
X7542763Y13052353D01*
X7544925Y13063220D01*
D02*
G37*
G36*
X4221480D02*
X4175123D01*
X4177285Y13052353D01*
X4190634Y13032375D01*
X4210613Y13019025D01*
X4221480Y13016862D01*
Y13063220D01*
D02*
G37*
G36*
X5372542Y12956755D02*
X5349131Y12952100D01*
X5329284Y12938837D01*
X5327631Y12936365D01*
X4904456D01*
X4888848Y12933260D01*
X4875617Y12924419D01*
X4875617Y12924419D01*
X4055138Y12103939D01*
X4052219Y12104519D01*
X4028809Y12099863D01*
X4008962Y12086601D01*
X3995701Y12066755D01*
X3991044Y12043344D01*
X3995701Y12019933D01*
X4008962Y12000086D01*
X4028809Y11986825D01*
X4052219Y11982169D01*
X4075630Y11986825D01*
X4095477Y12000086D01*
X4108738Y12019933D01*
X4113395Y12043344D01*
X4112814Y12046262D01*
X4921349Y12854796D01*
X5327631D01*
X5329284Y12852322D01*
X5349131Y12839061D01*
X5372542Y12834406D01*
X5395953Y12839061D01*
X5415799Y12852322D01*
X5429061Y12872169D01*
X5433717Y12895580D01*
X5429061Y12918991D01*
X5415799Y12938837D01*
X5395953Y12952100D01*
X5372542Y12956755D01*
D02*
G37*
G36*
X4064919Y12827637D02*
Y12781280D01*
X4111277D01*
X4109115Y12792147D01*
X4095765Y12812126D01*
X4075786Y12825475D01*
X4064919Y12827637D01*
D02*
G37*
G36*
X4039519D02*
X4028653Y12825475D01*
X4008673Y12812126D01*
X3995324Y12792147D01*
X3993162Y12781280D01*
X4039519D01*
Y12827637D01*
D02*
G37*
G36*
X4111277Y12755880D02*
X4064919D01*
Y12709523D01*
X4075786Y12711685D01*
X4095765Y12725034D01*
X4109115Y12745013D01*
X4111277Y12755880D01*
D02*
G37*
G36*
X4039519D02*
X3993162D01*
X3995324Y12745013D01*
X4008673Y12725034D01*
X4028653Y12711685D01*
X4039519Y12709523D01*
Y12755880D01*
D02*
G37*
G36*
X6680159Y12270212D02*
X6633802D01*
X6635964Y12259345D01*
X6649313Y12239366D01*
X6669292Y12226016D01*
X6680159Y12223855D01*
Y12270212D01*
D02*
G37*
G36*
X6512860Y12092856D02*
X6489449Y12088199D01*
X6469602Y12074938D01*
X6456341Y12055091D01*
X6451684Y12031680D01*
X6456341Y12008269D01*
X6469602Y11988423D01*
X6489449Y11975161D01*
X6512860Y11970505D01*
X6536271Y11975161D01*
X6556117Y11988423D01*
X6569379Y12008269D01*
X6574035Y12031680D01*
X6569379Y12055091D01*
X6556117Y12074938D01*
X6536271Y12088199D01*
X6512860Y12092856D01*
D02*
G37*
G36*
X5192542Y12088075D02*
X5169131Y12083419D01*
X5149285Y12070157D01*
X5136024Y12050311D01*
X5131367Y12026900D01*
X5136024Y12003489D01*
X5149285Y11983643D01*
X5169131Y11970381D01*
X5192542Y11965725D01*
X5215953Y11970381D01*
X5235800Y11983643D01*
X5249061Y12003489D01*
X5253718Y12026900D01*
X5249061Y12050311D01*
X5235800Y12070157D01*
X5215953Y12083419D01*
X5192542Y12088075D01*
D02*
G37*
G36*
X15394940Y11851855D02*
X15371529Y11847199D01*
X15351683Y11833937D01*
X15338422Y11814091D01*
X15333765Y11790680D01*
X15338422Y11767269D01*
X15351683Y11747423D01*
X15371529Y11734161D01*
X15394940Y11729505D01*
X15418352Y11734161D01*
X15438197Y11747423D01*
X15451459Y11767269D01*
X15456116Y11790680D01*
X15451459Y11814091D01*
X15438197Y11833937D01*
X15418352Y11847199D01*
X15394940Y11851855D01*
D02*
G37*
G36*
X4052219Y11668975D02*
X4028809Y11664319D01*
X4008962Y11651057D01*
X3995701Y11631211D01*
X3991044Y11607800D01*
X3995701Y11584389D01*
X4008962Y11564543D01*
X4028809Y11551281D01*
X4052219Y11546625D01*
X4075630Y11551281D01*
X4095477Y11564543D01*
X4108738Y11584389D01*
X4113395Y11607800D01*
X4108738Y11631211D01*
X4095477Y11651057D01*
X4075630Y11664319D01*
X4052219Y11668975D01*
D02*
G37*
G36*
X5372542Y11401833D02*
X5349131Y11397177D01*
X5329284Y11383916D01*
X5316023Y11364069D01*
X5311367Y11340658D01*
X5316023Y11317247D01*
X5329284Y11297401D01*
X5349131Y11284139D01*
X5372542Y11279483D01*
X5395953Y11284139D01*
X5415799Y11297401D01*
X5429061Y11317247D01*
X5433717Y11340658D01*
X5429061Y11364069D01*
X5415799Y11383916D01*
X5395953Y11397177D01*
X5372542Y11401833D01*
D02*
G37*
G36*
X5192542Y11020493D02*
X5169131Y11015836D01*
X5149285Y11002575D01*
X5136024Y10982729D01*
X5131367Y10959318D01*
X5136024Y10935907D01*
X5149285Y10916060D01*
X5169131Y10902799D01*
X5192542Y10898142D01*
X5215953Y10902799D01*
X5235800Y10916060D01*
X5249061Y10935907D01*
X5253718Y10959318D01*
X5249061Y10982729D01*
X5235800Y11002575D01*
X5215953Y11015836D01*
X5192542Y11020493D01*
D02*
G37*
G36*
X6512860Y10906975D02*
X6489449Y10902319D01*
X6469602Y10889057D01*
X6456341Y10869211D01*
X6451684Y10845800D01*
X6456341Y10822389D01*
X6469602Y10802543D01*
X6489449Y10789281D01*
X6512860Y10784625D01*
X6536271Y10789281D01*
X6556117Y10802543D01*
X6569379Y10822389D01*
X6574035Y10845800D01*
X6569379Y10869211D01*
X6556117Y10889057D01*
X6536271Y10902319D01*
X6512860Y10906975D01*
D02*
G37*
G36*
X7781976Y10764413D02*
X7758565Y10759756D01*
X7738718Y10746495D01*
X7725457Y10726648D01*
X7720800Y10703237D01*
X7725457Y10679826D01*
X7738718Y10659980D01*
X7758565Y10646719D01*
X7781976Y10642062D01*
X7805387Y10646719D01*
X7825233Y10659980D01*
X7838495Y10679826D01*
X7843151Y10703237D01*
X7838495Y10726648D01*
X7825233Y10746495D01*
X7805387Y10759756D01*
X7781976Y10764413D01*
D02*
G37*
G36*
X6692900Y10635195D02*
X6669489Y10630539D01*
X6649643Y10617277D01*
X6636381Y10597431D01*
X6631725Y10574020D01*
X6636381Y10550609D01*
X6649643Y10530763D01*
X6669489Y10517501D01*
X6692900Y10512845D01*
X6716311Y10517501D01*
X6736157Y10530763D01*
X6749419Y10550609D01*
X6754075Y10574020D01*
X6749419Y10597431D01*
X6736157Y10617277D01*
X6716311Y10630539D01*
X6692900Y10635195D01*
D02*
G37*
G36*
X11000000Y14038895D02*
X10829608Y14034116D01*
X10659752Y14019788D01*
X10490966Y13995959D01*
X10323782Y13962704D01*
X10158726Y13920126D01*
X9996317Y13868362D01*
X9837065Y13807573D01*
X9681473Y13737950D01*
X9530029Y13659714D01*
X9383210Y13573106D01*
X9241479Y13478404D01*
X9105280Y13375903D01*
X8975043Y13265929D01*
X8851177Y13148824D01*
X8734072Y13024957D01*
X8624096Y12894720D01*
X8521596Y12758522D01*
X8426894Y12616790D01*
X8340288Y12469971D01*
X8262050Y12318527D01*
X8192427Y12162935D01*
X8131638Y12003684D01*
X8079873Y11841274D01*
X8037296Y11676218D01*
X8004041Y11509034D01*
X7980213Y11340248D01*
X7965886Y11170392D01*
X7961105Y11000000D01*
X7965886Y10829608D01*
X7980213Y10659752D01*
X8004041Y10490966D01*
X8037296Y10323782D01*
X8079873Y10158726D01*
X8131638Y9996317D01*
X8192427Y9837065D01*
X8262050Y9681473D01*
X8340288Y9530029D01*
X8426894Y9383210D01*
X8521596Y9241479D01*
X8624096Y9105280D01*
X8734072Y8975043D01*
X8851177Y8851177D01*
X8975043Y8734072D01*
X9105280Y8624096D01*
X9241479Y8521596D01*
X9383210Y8426894D01*
X9530029Y8340288D01*
X9681473Y8262050D01*
X9837065Y8192427D01*
X9996317Y8131638D01*
X10158726Y8079873D01*
X10323782Y8037296D01*
X10490966Y8004041D01*
X10659752Y7980213D01*
X10829608Y7965886D01*
X11000000Y7961105D01*
X11170392Y7965886D01*
X11340248Y7980213D01*
X11509034Y8004041D01*
X11676218Y8037296D01*
X11841274Y8079873D01*
X12003684Y8131638D01*
X12162935Y8192427D01*
X12318527Y8262050D01*
X12469971Y8340288D01*
X12616790Y8426894D01*
X12758522Y8521596D01*
X12894720Y8624096D01*
X13024957Y8734072D01*
X13148824Y8851177D01*
X13265929Y8975043D01*
X13375903Y9105280D01*
X13478404Y9241479D01*
X13573106Y9383210D01*
X13659714Y9530029D01*
X13737950Y9681473D01*
X13807573Y9837065D01*
X13868362Y9996317D01*
X13920126Y10158726D01*
X13962704Y10323782D01*
X13995959Y10490966D01*
X14019788Y10659752D01*
X14034116Y10829608D01*
X14038895Y11000000D01*
X14034116Y11170392D01*
X14019788Y11340248D01*
X13995959Y11509034D01*
X13962704Y11676218D01*
X13920126Y11841274D01*
X13868362Y12003684D01*
X13807573Y12162935D01*
X13737950Y12318527D01*
X13659714Y12469971D01*
X13573106Y12616790D01*
X13478404Y12758522D01*
X13375903Y12894720D01*
X13265929Y13024957D01*
X13148824Y13148824D01*
X13024957Y13265929D01*
X12894720Y13375903D01*
X12758522Y13478404D01*
X12616790Y13573106D01*
X12469971Y13659714D01*
X12318527Y13737950D01*
X12162935Y13807573D01*
X12003684Y13868362D01*
X11841274Y13920126D01*
X11676218Y13962704D01*
X11509034Y13995959D01*
X11340248Y14019788D01*
X11170392Y14034116D01*
X11000000Y14038895D01*
D02*
G37*
G36*
X16424597Y12936220D02*
X16378239D01*
Y12889864D01*
X16389107Y12892026D01*
X16409087Y12905374D01*
X16422437Y12925352D01*
X16424597Y12936220D01*
D02*
G37*
G36*
X16352840D02*
X16306483D01*
X16308646Y12925352D01*
X16321994Y12905374D01*
X16341972Y12892026D01*
X16352840Y12889864D01*
Y12936220D01*
D02*
G37*
G36*
X16786861Y12286195D02*
X16763449Y12281539D01*
X16743604Y12268277D01*
X16730341Y12248431D01*
X16725685Y12225020D01*
X16730341Y12201609D01*
X16743604Y12181763D01*
X16763449Y12168501D01*
X16786861Y12163845D01*
X16810271Y12168501D01*
X16830116Y12181763D01*
X16843379Y12201609D01*
X16848035Y12225020D01*
X16843379Y12248431D01*
X16830116Y12268277D01*
X16810271Y12281539D01*
X16786861Y12286195D01*
D02*
G37*
G36*
X16508919Y10662759D02*
X16485507Y10658103D01*
X16465660Y10644842D01*
X16452399Y10624995D01*
X16447743Y10601584D01*
X16452399Y10578173D01*
X16465660Y10558327D01*
X16485507Y10545065D01*
X16508919Y10540409D01*
X16532329Y10545065D01*
X16552174Y10558327D01*
X16565437Y10578173D01*
X16570093Y10601584D01*
X16565437Y10624995D01*
X16552174Y10644842D01*
X16532329Y10658103D01*
X16508919Y10662759D01*
D02*
G37*
G36*
X15074899Y10043375D02*
X15051489Y10038719D01*
X15031644Y10025457D01*
X15018381Y10005611D01*
X15013725Y9982200D01*
X15018381Y9958789D01*
X15031644Y9938943D01*
X15051489Y9925681D01*
X15074899Y9921025D01*
X15098311Y9925681D01*
X15118156Y9938943D01*
X15131419Y9958789D01*
X15136075Y9982200D01*
X15131419Y10005611D01*
X15118156Y10025457D01*
X15098311Y10038719D01*
X15074899Y10043375D01*
D02*
G37*
G36*
X6512860Y9149595D02*
X6489449Y9144939D01*
X6469602Y9131677D01*
X6456341Y9111831D01*
X6451684Y9088420D01*
X6456341Y9065009D01*
X6469602Y9045162D01*
X6489449Y9031901D01*
X6512860Y9027244D01*
X6536271Y9031901D01*
X6556117Y9045162D01*
X6569379Y9065009D01*
X6574035Y9088420D01*
X6569379Y9111831D01*
X6556117Y9131677D01*
X6536271Y9144939D01*
X6512860Y9149595D01*
D02*
G37*
G36*
X13759132Y8735841D02*
X13735721Y8731185D01*
X13715875Y8717923D01*
X13702612Y8698077D01*
X13697957Y8674666D01*
X13702612Y8651255D01*
X13715875Y8631408D01*
X13735721Y8618147D01*
X13759132Y8613491D01*
X13782542Y8618147D01*
X13802390Y8631408D01*
X13815651Y8651255D01*
X13820306Y8674666D01*
X13815651Y8698077D01*
X13802390Y8717923D01*
X13782542Y8731185D01*
X13759132Y8735841D01*
D02*
G37*
G36*
X14083707Y8534138D02*
X14081499Y8533699D01*
X14079262Y8533944D01*
X14071811Y8531772D01*
X14064197Y8530257D01*
X14062326Y8529007D01*
X14060165Y8528377D01*
X14054112Y8523519D01*
X14047658Y8519206D01*
X14046408Y8517335D01*
X14044653Y8515927D01*
X14040919Y8509122D01*
X14036607Y8502667D01*
X14036168Y8500460D01*
X14035086Y8498488D01*
X14034241Y8490773D01*
X14032726Y8483158D01*
X14033165Y8480951D01*
X14032919Y8478715D01*
X14035092Y8471263D01*
X14036607Y8463649D01*
X14037857Y8461778D01*
X14038486Y8459618D01*
X14043346Y8453565D01*
X14047658Y8447110D01*
X14049529Y8445860D01*
X14050937Y8444106D01*
X14057742Y8440372D01*
X14064197Y8436059D01*
X14066405Y8435620D01*
X14068376Y8434538D01*
X14076091Y8433693D01*
X14083707Y8432178D01*
X14085913Y8432617D01*
X14088148Y8432373D01*
X14095601Y8434544D01*
X14103215Y8436059D01*
X14105086Y8437309D01*
X14107245Y8437939D01*
X14113300Y8442797D01*
X14119754Y8447110D01*
X14121004Y8448981D01*
X14122758Y8450389D01*
X14126492Y8457194D01*
X14130804Y8463649D01*
X14131244Y8465856D01*
X14132326Y8467828D01*
X14133171Y8475543D01*
X14134685Y8483158D01*
X14134245Y8485365D01*
X14134491Y8487601D01*
X14132320Y8495053D01*
X14130804Y8502667D01*
X14129555Y8504538D01*
X14128925Y8506698D01*
X14124066Y8512752D01*
X14119754Y8519206D01*
X14117883Y8520456D01*
X14116475Y8522211D01*
X14109669Y8525944D01*
X14103215Y8530257D01*
X14101009Y8530696D01*
X14099036Y8531778D01*
X14091319Y8532623D01*
X14083707Y8534138D01*
D02*
G37*
G36*
X6600520Y8387224D02*
X6600519Y8387224D01*
X5463540D01*
X5447933Y8384119D01*
X5434702Y8375278D01*
X5434701Y8375278D01*
X5343704Y8284280D01*
X5334863Y8271049D01*
X5331758Y8255442D01*
X5334863Y8239835D01*
X5343704Y8226604D01*
X5356935Y8217763D01*
X5372542Y8214658D01*
X5388149Y8217763D01*
X5401380Y8226604D01*
X5480433Y8305656D01*
X6583627D01*
X6632264Y8257019D01*
X6631684Y8254101D01*
X6636341Y8230690D01*
X6649602Y8210843D01*
X6669448Y8197582D01*
X6692859Y8192925D01*
X6716270Y8197582D01*
X6736117Y8210843D01*
X6749378Y8230690D01*
X6754035Y8254101D01*
X6749378Y8277512D01*
X6736117Y8297358D01*
X6716270Y8310620D01*
X6692859Y8315276D01*
X6689941Y8314696D01*
X6629359Y8375278D01*
X6616127Y8384119D01*
X6613538Y8384634D01*
X6600520Y8387224D01*
D02*
G37*
G36*
X5129042Y8315276D02*
X5105631Y8310620D01*
X5085785Y8297358D01*
X5072524Y8277512D01*
X5067867Y8254101D01*
X5072524Y8230690D01*
X5085785Y8210843D01*
X5105631Y8197582D01*
X5129042Y8192925D01*
X5152453Y8197582D01*
X5172300Y8210843D01*
X5185561Y8230690D01*
X5190218Y8254101D01*
X5185561Y8277512D01*
X5172300Y8297358D01*
X5152453Y8310620D01*
X5129042Y8315276D01*
D02*
G37*
G36*
X6874896Y8302769D02*
X6851485Y8298113D01*
X6831639Y8284851D01*
X6818377Y8265005D01*
X6813721Y8241594D01*
X6818377Y8218183D01*
X6831639Y8198336D01*
X6851485Y8185075D01*
X6874896Y8180418D01*
X6898307Y8185075D01*
X6918154Y8198336D01*
X6931415Y8218183D01*
X6936071Y8241594D01*
X6931415Y8265005D01*
X6918154Y8284851D01*
X6898307Y8298113D01*
X6874896Y8302769D01*
D02*
G37*
G36*
X6716601Y8153466D02*
X6693190Y8148809D01*
X6673343Y8135548D01*
X6660082Y8115701D01*
X6655425Y8092290D01*
X6660082Y8068879D01*
X6673343Y8049033D01*
X6693190Y8035771D01*
X6716601Y8031115D01*
X6740012Y8035771D01*
X6759858Y8049033D01*
X6773120Y8068879D01*
X6777776Y8092290D01*
X6773120Y8115701D01*
X6759858Y8135548D01*
X6740012Y8148809D01*
X6716601Y8153466D01*
D02*
G37*
G36*
X16334740Y7516075D02*
X16311330Y7511419D01*
X16291483Y7498157D01*
X16278221Y7478311D01*
X16273566Y7454900D01*
X16278221Y7431489D01*
X16291483Y7411643D01*
X16311330Y7398381D01*
X16334740Y7393725D01*
X16358151Y7398381D01*
X16377997Y7411643D01*
X16391258Y7431489D01*
X16395915Y7454900D01*
X16391258Y7478311D01*
X16377997Y7498157D01*
X16358151Y7511419D01*
X16334740Y7516075D01*
D02*
G37*
G36*
X15471140Y7363604D02*
X15455533Y7360499D01*
X15442302Y7351658D01*
X15433461Y7338427D01*
X15430356Y7322820D01*
Y7227187D01*
X15427882Y7225534D01*
X15414621Y7205688D01*
X15409966Y7182277D01*
X15414621Y7158866D01*
X15427882Y7139019D01*
X15447729Y7125758D01*
X15471140Y7121101D01*
X15494551Y7125758D01*
X15514397Y7139019D01*
X15527660Y7158866D01*
X15532315Y7182277D01*
X15527660Y7205688D01*
X15514397Y7225534D01*
X15511925Y7227187D01*
Y7322820D01*
X15508820Y7338427D01*
X15499979Y7351658D01*
X15486748Y7360499D01*
X15471140Y7363604D01*
D02*
G37*
G36*
X14653613Y6602679D02*
X14630202Y6598022D01*
X14610356Y6584761D01*
X14597095Y6564914D01*
X14592438Y6541503D01*
X14597095Y6518092D01*
X14610356Y6498246D01*
X14630202Y6484984D01*
X14653613Y6480328D01*
X14677023Y6484984D01*
X14696870Y6498246D01*
X14710132Y6518092D01*
X14714787Y6541503D01*
X14710132Y6564914D01*
X14696870Y6584761D01*
X14677023Y6598022D01*
X14653613Y6602679D01*
D02*
G37*
G36*
X14150340Y6487375D02*
X14126929Y6482719D01*
X14107083Y6469457D01*
X14093822Y6449611D01*
X14089165Y6426200D01*
X14093822Y6402789D01*
X14107083Y6382943D01*
X14126929Y6369681D01*
X14150340Y6365025D01*
X14173750Y6369681D01*
X14193597Y6382943D01*
X14206859Y6402789D01*
X14211514Y6426200D01*
X14206859Y6449611D01*
X14193597Y6469457D01*
X14173750Y6482719D01*
X14150340Y6487375D01*
D02*
G37*
%LPD*%
G36*
X13901338Y5773133D02*
X13900758Y5770215D01*
X13905414Y5746804D01*
X13908902Y5741584D01*
X13902914Y5730384D01*
X6773293D01*
X6573455Y5930222D01*
X6574035Y5933140D01*
X6569379Y5956551D01*
X6559459Y5971396D01*
X6565715Y5984096D01*
X13690375D01*
X13901338Y5773133D01*
D02*
G37*
D32*
X16311880Y11460480D02*
Y12547600D01*
X13622287Y7020293D02*
X16002333D01*
X13413741Y7228840D02*
X13622287Y7020293D01*
X16066187Y6924264D02*
X16662399Y7520478D01*
X15870145Y6924264D02*
X16066187D01*
X15742920Y6797040D02*
X15870145Y6924264D01*
X15559552Y6906557D02*
Y6924264D01*
X14648837Y5995843D02*
X15559552Y6906557D01*
X6756400Y5689600D02*
X17879060D01*
X6512860Y5933140D02*
X6756400Y5689600D01*
X14628474Y5822879D02*
X15147977Y6342380D01*
X14076680Y5822879D02*
X14628474D01*
X15147977Y6342380D02*
X16405859D01*
X15059846Y7216271D02*
X15061835Y7214283D01*
X13776830Y7216271D02*
X15059846D01*
X13474699Y7518400D02*
X13776830Y7216271D01*
X13703300Y6774180D02*
X15158720D01*
X13304520Y7172960D02*
X13703300Y6774180D01*
X15158720D02*
X15242540Y6858000D01*
X15471140Y7182277D02*
Y7322820D01*
X16405859Y6342380D02*
X16672560Y6075680D01*
X6692859Y4612640D02*
X8941242D01*
X5358630D02*
X6692859D01*
X5196035Y4775236D02*
X5358630Y4612640D01*
X7474260Y16282304D02*
X10615933D01*
X12212996Y14685242D01*
X5232400Y14328140D02*
X16837660D01*
X5892800Y14483080D02*
X15519400D01*
X4343400Y15217140D02*
X5232400Y14328140D01*
X16837660D02*
X17038319Y14127480D01*
X7040880Y13794740D02*
X7389355Y14143214D01*
X5402783Y14483080D02*
X5892800D01*
X16441420Y13716000D02*
Y13977620D01*
X4813300Y13921741D02*
X5786120D01*
X16220825Y14198215D02*
X16441420Y13977620D01*
X6062595Y14198215D02*
X16220825D01*
X17038319Y13388341D02*
Y14127480D01*
X16090720Y14143214D02*
X16365535Y13868401D01*
X5786120Y13921741D02*
X6062595Y14198215D01*
X7389355Y14143214D02*
X16090720D01*
X5098074Y16076253D02*
X6522024D01*
X11366500Y17802859D02*
X11488420Y17924780D01*
X11481928Y17773447D02*
X11653175Y17602200D01*
X15524461Y16003908D02*
X15524461Y16003908D01*
X12992535Y16998775D02*
X13987402Y16003908D01*
X15524461D01*
X8160636Y16998775D02*
X12992535D01*
X13510260Y18511520D02*
X20914360Y11107420D01*
X21000476D01*
X7990545Y17168866D02*
Y18094228D01*
Y17168866D02*
X8160636Y16998775D01*
X6815963Y18194479D02*
X9402620D01*
X9719432Y17900528D02*
X9719513Y17900447D01*
X10693400D01*
X3428515Y16026668D02*
X4648152D01*
X9402620Y18194479D02*
X9525000Y18072099D01*
X4648152Y16026668D02*
X6815963Y18194479D01*
X5958815Y16865575D02*
X12841496D01*
X5587284Y16494044D02*
X5958815Y16865575D01*
X12799197Y18153380D02*
X12927258Y18281442D01*
X16669112Y16156940D02*
X19634473D01*
X17365858Y10980420D02*
X20911819D01*
X20827094Y10757774D02*
X20968307D01*
X19974847Y9905528D02*
X20827094Y10757774D01*
X19974847Y7458748D02*
Y9905528D01*
X13863345Y1347246D02*
X19974847Y7458748D01*
X10534284Y1347246D02*
X13863345D01*
X17907001Y5598358D02*
X17954060Y5645419D01*
Y5763260D01*
X17241718Y5598358D02*
X17907001D01*
X17575601Y6141720D02*
X17954060Y5763260D01*
X16489680Y4846320D02*
X17241718Y5598358D01*
X9570720Y4846320D02*
X16489680D01*
X16617075Y2579317D02*
X20383743Y6345987D01*
X15808788Y2579317D02*
X16617075D01*
X8842169Y18684991D02*
Y18864920D01*
Y18684991D02*
X8990472Y18536690D01*
X12033769Y19560539D02*
X15821193D01*
X11609319Y19136090D02*
X12033769Y19560539D01*
X20383743Y6345987D02*
Y9984809D01*
X21118614Y10719679D01*
Y12120159D01*
X20363345Y12875427D02*
X21118614Y12120159D01*
X16168472Y19916135D02*
X20363345Y15721262D01*
Y12875427D02*
Y15721262D01*
X8735167Y19916135D02*
X16168472D01*
X16786644Y16530190D02*
X19369302D01*
X20245013Y15654480D01*
Y11932686D02*
Y15654480D01*
X8591177Y19207732D02*
Y19772145D01*
X8735167Y19916135D01*
X10351894Y19123048D02*
X10683240Y18791702D01*
X6164580Y18895061D02*
X6392568Y19123048D01*
X10351894D01*
X11858196Y19161148D02*
X14155685D01*
X12391598Y18154442D02*
X13061098Y18823940D01*
X14002110D01*
X16669112Y16156940D01*
X14155685Y19161148D02*
X16786644Y16530190D01*
X12978339Y18511520D02*
X13510260D01*
X20245013Y11932686D02*
X20663812Y11513889D01*
X8703691Y17698720D02*
X10050780D01*
X8721949Y17772791D02*
X9247723D01*
X9331960Y17857028D01*
X12748260Y18281442D02*
X12978339Y18511520D01*
X11609319Y18536855D02*
Y19136090D01*
X4554220Y14715138D02*
X5213660Y14055701D01*
X4074160Y4528820D02*
X9253220D01*
X4098468Y5367020D02*
X5859780D01*
X922020Y8543468D02*
Y9222740D01*
Y8543468D02*
X4098468Y5367020D01*
X3872220Y5933460D02*
X3963640Y6024880D01*
X13707268D01*
X13961932Y5770215D01*
X922020Y9222740D02*
Y10985500D01*
X2869000Y16610287D02*
X3152585Y16326701D01*
Y16302599D02*
Y16326701D01*
Y16302599D02*
X3428515Y16026668D01*
X7287260Y10141628D02*
Y11798300D01*
Y10141628D02*
X9642264Y7786624D01*
X7235868Y10193020D02*
X7287260Y10141628D01*
X9642264Y7786624D02*
X12541504D01*
X5052060Y10193020D02*
X7235868D01*
X12541504Y7786624D02*
X15234920Y10480040D01*
X6802120Y9362440D02*
X8440260Y7724300D01*
X12575700D02*
X16311880Y11460480D01*
X8440260Y7724300D02*
X12575700D01*
X7495540Y8371804D02*
X8202849Y7664496D01*
X13465855D02*
X16177260Y10375900D01*
X8202849Y7664496D02*
X13465855D01*
X7841927Y18664246D02*
X8454080D01*
X7826520Y18679652D02*
X7841927Y18664246D01*
X2983149Y16116750D02*
X3167743D01*
X3446595Y15837898D01*
X4859720D01*
X5098074Y16076253D01*
X9349740Y17510760D02*
X11074400D01*
X11366500Y17802859D01*
X10683240Y18481039D02*
Y18791702D01*
X15636240Y12644120D02*
X15875000D01*
X15635223D02*
X15636240D01*
Y12390120D02*
Y12644120D01*
X12716510Y17805193D02*
X12748260Y17836942D01*
X12513518Y17602200D02*
X12716510Y17805193D01*
X12748260Y17836942D02*
X13002260Y18090942D01*
X12013819Y17888940D02*
X12273001D01*
X11830858D02*
X12013819D01*
X17711420Y12588240D02*
Y12715240D01*
Y12146280D02*
Y12588240D01*
X16527780Y12580620D02*
X16662399Y12446000D01*
X16485799Y12622601D02*
X16527780Y12580620D01*
X16388080Y12622601D02*
X16485799D01*
X16235680D02*
X16388080D01*
X16662399Y7520478D02*
Y9707880D01*
X15191740Y12466320D02*
Y13258475D01*
X3869700Y10575280D02*
X3870960Y10574020D01*
X3794760Y10650220D02*
X3869700Y10575280D01*
X5842000Y4846320D02*
X9570720D01*
X4052219Y12043344D02*
X4904456Y12895580D01*
X5372542D01*
X2275840Y16730980D02*
X3159384D01*
X6106160Y19677756D01*
X8941242Y4076700D02*
X10768762D01*
X11323569Y3521893D01*
X10890453Y18351500D02*
X11761678D01*
X11958737Y18154442D01*
X10693400Y18154446D02*
X10890453Y18351500D01*
X15494000Y12247880D02*
X15636240Y12390120D01*
X15267940Y12247880D02*
X15494000D01*
X15875000Y12644120D02*
X16256000Y13025121D01*
X16687801D01*
X17338802Y12374118D01*
X17365863D02*
X17635220Y12643475D01*
X17635864D01*
X12481560Y17759680D02*
X12748260Y18026379D01*
X11773967Y17759680D02*
X12481560D01*
X11653175Y17602200D02*
X12513518D01*
X12748260Y17773442D02*
Y17836942D01*
X11961820D02*
X12013819Y17888940D01*
X12273001D02*
X12537440Y18153380D01*
X12799197D01*
X8465368Y17902373D02*
X8592368D01*
X8721949Y17772791D01*
X13228320Y18407381D02*
X13229382Y18408443D01*
X13228320Y17551401D02*
Y18407381D01*
X13187680Y17510760D02*
X13228320Y17551401D01*
X11508740Y17510760D02*
X13187680D01*
X11366500Y17653000D02*
X11508740Y17510760D01*
X11366500Y17653000D02*
Y17802859D01*
X10439908D02*
X11366500D01*
X4234180Y13075920D02*
X7485868D01*
X11577569Y3521893D02*
X11708196Y3652520D01*
X12208942D01*
X12339569Y3521893D01*
X9525000Y18072099D02*
X10810240D01*
X10892587Y18154446D01*
X11125200D01*
X6512560Y12712700D02*
X6512860Y12713000D01*
X6512560Y12573000D02*
Y12712700D01*
Y12573000D02*
X7287260Y11798300D01*
X15234920Y10480040D02*
Y11224260D01*
X3872220Y11372860D02*
X5052060Y10193020D01*
X13856767Y7326427D02*
X16365540Y9835200D01*
Y11059160D01*
X15819119Y6512560D02*
X16863060Y7556500D01*
Y11297920D01*
X17711420Y12146280D01*
X17038319Y13388341D02*
X17711420Y12715240D01*
X16976273Y11853093D02*
X17711420Y12588240D01*
X3872220Y15217140D02*
X4343400D01*
X5213660Y14055701D02*
X5372542D01*
X4310380Y14056360D02*
X4572000Y13794740D01*
X7040880D01*
X17381219Y13434061D02*
X18366180D01*
X15887700Y6141720D02*
X16085820Y5943600D01*
X16433800Y6423660D02*
X16748759Y6108700D01*
X15742920Y6460490D02*
X15779750Y6423660D01*
X15191740Y12192000D02*
X15239999Y12143740D01*
X3794760Y13660120D02*
X4282440Y14147800D01*
X3794760Y10650220D02*
Y13660120D01*
X4282440Y14147800D02*
X4587240D01*
X4813300Y13921741D01*
X15191740Y12466320D02*
X16441420Y13716000D01*
X15191740Y12192000D02*
Y12466320D01*
X15239999Y12143740D02*
X15756819D01*
X16662399Y9707880D02*
Y12446000D01*
X15742920Y6460490D02*
Y6797040D01*
X15779750Y6423660D02*
X16433800D01*
X16085820Y5943600D02*
X16659860D01*
X15367000Y13433736D02*
X15497917D01*
X15191740Y13258475D02*
X15367000Y13433736D01*
X15756819Y12143740D02*
X16235680Y12622601D01*
X16748759Y6032500D02*
Y6108700D01*
X16659860Y5943600D02*
X16748759Y6032500D01*
X3794760Y7498080D02*
X3872220Y7420620D01*
X3794760Y7498080D02*
Y9283700D01*
X3873500Y9362440D01*
X6802120D01*
X16343819Y12516038D02*
X16507460D01*
X4169923Y4890846D02*
X4315897Y5036820D01*
X9357360D01*
X9469120Y4925060D01*
X15110460D01*
X6512860Y7094520D02*
X6513159Y7094220D01*
X12956540D01*
X14151935Y5898825D01*
X3738880Y7406640D02*
Y10200640D01*
Y7406640D02*
X4183380Y6962140D01*
X12937419D01*
X14076680Y5822879D01*
X5372542Y7094220D02*
X5451282Y7172960D01*
X13304520D01*
X6309360Y7254240D02*
X6334760Y7228840D01*
X13413741D01*
X3872220Y8773160D02*
X6446520D01*
X3872220Y9245600D02*
X6113780D01*
X7840980Y7518400D01*
X13474699D01*
X5778500Y4909820D02*
X5842000Y4846320D01*
X9253220Y4528820D02*
X9570720Y4846320D01*
X17195799Y6141720D02*
X17575601D01*
X6600520Y8346440D02*
X6692859Y8254101D01*
X5463540Y8346440D02*
X6600520D01*
X5372542Y8255442D02*
X5463540Y8346440D01*
D33*
X12339569Y4490679D02*
D03*
X12593569Y3521893D02*
D03*
D34*
Y4490679D02*
D03*
X11069569Y3521893D02*
D03*
X11323569D02*
D03*
X11577569D02*
D03*
X11831569D02*
D03*
X12339569D02*
D03*
X12085569D02*
D03*
D35*
X1499977Y11070900D02*
D03*
X14083707Y8483158D02*
D03*
X13992824Y13632916D02*
D03*
X7916296Y13516840D02*
D03*
X8007055Y8374537D02*
D03*
X20502951Y10915330D02*
D03*
X2808300Y15811348D02*
D03*
X2737211Y6311346D02*
D03*
X6188542Y2808112D02*
D03*
X10929102Y1499997D02*
D03*
X15688544Y2737399D02*
D03*
X19191702Y6188649D02*
D03*
X19262785Y15688655D02*
D03*
X15811459Y19191888D02*
D03*
X11070900Y20500005D02*
D03*
X6311453Y19262598D02*
D03*
D36*
X16002333Y7020293D02*
D03*
X15940631Y6831099D02*
D03*
X15559552Y6924264D02*
D03*
X14824197Y5589753D02*
D03*
X15170407Y5407259D02*
D03*
X15147491Y7300859D02*
D03*
X15061835Y7214283D02*
D03*
X14873016Y6863390D02*
D03*
X14653613Y6541503D02*
D03*
X14648837Y5995843D02*
D03*
X14302528Y7141271D02*
D03*
X15471140Y7182277D02*
D03*
X15035126Y6071865D02*
D03*
X14210475Y4210835D02*
D03*
X13812228Y4366758D02*
D03*
X7693660Y2473960D02*
D03*
X6692859Y4612640D02*
D03*
X9449242Y2424669D02*
D03*
X10795000Y3484880D02*
D03*
X6512860Y4709643D02*
D03*
X5196035Y4775236D02*
D03*
X6716601Y8092290D02*
D03*
X6874896Y8241594D02*
D03*
X8295787Y8248802D02*
D03*
X13759132Y8674666D02*
D03*
X12212996Y14685242D02*
D03*
X7474260Y16282304D02*
D03*
X6522024Y16076253D02*
D03*
X11960860Y18262601D02*
D03*
X11911147Y18513734D02*
D03*
X11481928Y17773447D02*
D03*
X11488420Y17924780D02*
D03*
X15189200Y16339819D02*
D03*
X7803634Y16750662D02*
D03*
X8201660Y17396460D02*
D03*
X7990545Y18094228D02*
D03*
X8125460Y18115280D02*
D03*
X12841496Y16865575D02*
D03*
X15524461Y16003908D02*
D03*
X12927258Y18281442D02*
D03*
X12748260D02*
D03*
X12379960Y18535442D02*
D03*
X12960802Y17396460D02*
D03*
X14025880Y19050000D02*
D03*
X19344627Y15862849D02*
D03*
X19634473Y16156940D02*
D03*
X20911819Y10980420D02*
D03*
X20968307Y10757774D02*
D03*
X19142506Y6732473D02*
D03*
X17388689Y5181448D02*
D03*
X17879060Y5689600D02*
D03*
X16570959Y3599180D02*
D03*
X10534284Y1347246D02*
D03*
X9035793Y20392467D02*
D03*
X8842169Y18864920D02*
D03*
X8990472Y18536690D02*
D03*
X10421650Y20752100D02*
D03*
X15821193Y19560539D02*
D03*
X19677760Y15880080D02*
D03*
X21000476Y11107420D02*
D03*
X19396419Y6136688D02*
D03*
X17564101Y4071620D02*
D03*
X8591177Y19207732D02*
D03*
X11858196Y19161148D02*
D03*
X12748260Y17773442D02*
D03*
X14025880Y18366740D02*
D03*
Y18138139D02*
D03*
X15808788Y2579317D02*
D03*
X8703691Y17698720D02*
D03*
X9027160Y18038272D02*
D03*
X9922556Y18281905D02*
D03*
X9090660Y17911293D02*
D03*
X9240520Y17970500D02*
D03*
X9331960Y17857028D02*
D03*
X20663812Y11513889D02*
D03*
X11609319Y18536855D02*
D03*
X9086832Y18467299D02*
D03*
X9161539Y18320107D02*
D03*
X11960860Y18661380D02*
D03*
X12456160Y18408443D02*
D03*
X8162920Y18410286D02*
D03*
X5587284Y16494044D02*
D03*
X4554220Y14715138D02*
D03*
X4581401Y6515382D02*
D03*
X4074160Y4528820D02*
D03*
X4169923Y4890846D02*
D03*
X3872220Y5933460D02*
D03*
Y6266180D02*
D03*
X8594334Y18673186D02*
D03*
X8162920Y18537265D02*
D03*
X4381358Y18210406D02*
D03*
X2427994Y14208569D02*
D03*
X2869000Y16610287D02*
D03*
X2983149Y16116750D02*
D03*
X6512860Y10845800D02*
D03*
X7826520Y18679652D02*
D03*
X9349740Y17510760D02*
D03*
X8144523Y13411958D02*
D03*
X8482239Y15075841D02*
D03*
X9922556Y19405682D02*
D03*
X10210960Y19335562D02*
D03*
X1081009Y10965523D02*
D03*
X6512860Y9088420D02*
D03*
X5129042Y8254101D02*
D03*
X5192542Y10959318D02*
D03*
X7781976Y10703237D02*
D03*
X13836264Y13445264D02*
D03*
X5859780Y5367020D02*
D03*
X922020Y9222740D02*
D03*
X2322383Y11607800D02*
D03*
X4052219D02*
D03*
X922020Y10985500D02*
D03*
X4052219Y12043344D02*
D03*
X5372542Y12895580D02*
D03*
X2275840Y16730980D02*
D03*
X6106160Y19677756D02*
D03*
X14192047Y6881927D02*
D03*
X17045940Y5181448D02*
D03*
X17365858Y10980420D02*
D03*
Y11643792D02*
D03*
X18366187Y12644120D02*
D03*
Y13018054D02*
D03*
X8941242Y4612640D02*
D03*
Y4076700D02*
D03*
X15074899Y9982200D02*
D03*
X17033240Y5971540D02*
D03*
X15730220Y5501640D02*
D03*
X8125460Y17983200D02*
D03*
X3937000Y14505940D02*
D03*
X11958737Y18154442D02*
D03*
X10693400Y18154446D02*
D03*
X15267940Y12247880D02*
D03*
X15635223Y12644120D02*
D03*
X17365863Y12374118D02*
D03*
X11773967Y17759680D02*
D03*
X11506200Y18229581D02*
D03*
X17785080Y6311900D02*
D03*
X15786836Y6205957D02*
D03*
X8454080Y18664246D02*
D03*
X10469108Y18154904D02*
D03*
X10050780Y17698720D02*
D03*
X13002260Y18090942D02*
D03*
X12125960Y17680940D02*
D03*
X12926060Y17856200D02*
D03*
X11076940Y17900447D02*
D03*
X11830858Y17888940D02*
D03*
X11961820Y17836942D02*
D03*
X10693400Y17900447D02*
D03*
X5192542Y12026900D02*
D03*
X10439908Y17802859D02*
D03*
X4052219Y6931660D02*
D03*
X4234180Y13075920D02*
D03*
X4052219Y12768580D02*
D03*
X7485868Y13075920D02*
D03*
X4234180Y10515600D02*
D03*
X6692859Y12282912D02*
D03*
X5956300Y3114040D02*
D03*
X16786861Y7277100D02*
D03*
X17139905Y7117278D02*
D03*
X16555734Y6924055D02*
D03*
X16365540Y12948920D02*
D03*
X8559800Y18420081D02*
D03*
X11944558Y18027441D02*
D03*
X10986927Y18027448D02*
D03*
X4940300Y14135100D02*
D03*
X13855701Y5179060D02*
D03*
X12456820Y17900443D02*
D03*
X11696700Y6718300D02*
D03*
X6121400Y2322241D02*
D03*
X11960860Y18432780D02*
D03*
X2357100Y5892800D02*
D03*
X6019800Y18760440D02*
D03*
X11125200Y18154446D02*
D03*
X6164580Y18895061D02*
D03*
X10683240Y18481039D02*
D03*
X3872220Y11372860D02*
D03*
X15234920Y11224260D02*
D03*
X13856767Y7326427D02*
D03*
X16365540Y11059160D02*
D03*
X15819119Y6512560D02*
D03*
X16976273Y11853093D02*
D03*
X3872220Y15217140D02*
D03*
X5372542Y14055701D02*
D03*
X5506720Y14188440D02*
D03*
X16508919Y10601584D02*
D03*
X5394960Y6880860D02*
D03*
X16334740Y7454900D02*
D03*
X16635538Y13195300D02*
D03*
X4310380Y14056360D02*
D03*
X16365535Y13868401D02*
D03*
X16311880Y13268961D02*
D03*
X14150340Y6426200D02*
D03*
X16395700Y6108700D02*
D03*
X16786861Y12225020D02*
D03*
X17635860Y13074020D02*
D03*
X17505679Y13876019D02*
D03*
X6512860Y12031680D02*
D03*
X17381219Y13434061D02*
D03*
X18366180D02*
D03*
X6692900Y10574020D02*
D03*
X13961932Y5770215D02*
D03*
X15635219Y13713460D02*
D03*
X3870960Y10574020D02*
D03*
X15887700Y6141720D02*
D03*
X17145000Y4945380D02*
D03*
X15394940Y11790680D02*
D03*
X3872220Y7420620D02*
D03*
X16311880Y12547600D02*
D03*
X16343819Y12516038D02*
D03*
X15110460Y4925060D02*
D03*
X5372542Y11340658D02*
D03*
X14151935Y5898825D02*
D03*
X6888480Y14942821D02*
D03*
X14787880D02*
D03*
X3738880Y10200640D02*
D03*
X16672560Y6075680D02*
D03*
X5402783Y14483080D02*
D03*
X5892800D02*
D03*
X15519400D02*
D03*
X15527020Y6012180D02*
D03*
X6512860Y5933140D02*
D03*
X5372542Y4773143D02*
D03*
Y7094220D02*
D03*
X15242540Y6858000D02*
D03*
X6309360Y7254240D02*
D03*
X3872220Y8773160D02*
D03*
X6446520D02*
D03*
X3872220Y9245600D02*
D03*
X5778500Y4909820D02*
D03*
X17195799Y6141720D02*
D03*
X7495540Y8371804D02*
D03*
X16177260Y10375900D02*
D03*
X6692859Y8254101D02*
D03*
%TF.MD5,6b8ac5a6c5a23e56608edcd106d01b36*%
M02*
