%TF.GenerationSoftware,Altium Limited,Altium Designer,20.2.3 (150)*%
G04 Layer_Color=16711935*
%FSLAX45Y45*%
%MOMM*%
%TF.SameCoordinates,D065702F-5D7C-4ECE-B493-19553C93D9E3*%
%TF.FilePolarity,Positive*%
%TF.FileFunction,Other,Mechanical_13*%
%TF.Part,Single*%
G01*
G75*
%TA.AperFunction,NonConductor*%
%ADD54C,0.20000*%
%ADD55C,0.12700*%
%ADD56C,0.25400*%
%ADD70C,0.00000*%
%ADD71C,0.15240*%
%ADD96C,0.10000*%
D54*
X13933437Y4147240D02*
G03*
X13933437Y4147240I-10000J0D01*
G01*
X14663745Y6905424D02*
G03*
X14663745Y6905424I-10000J0D01*
G01*
X15956410Y5278948D02*
G03*
X15956410Y5278948I-10000J0D01*
G01*
X14300247Y5078948D02*
G03*
X14300247Y5078948I-10000J0D01*
G01*
X14940247Y5278945D02*
G03*
X14940247Y5278945I-10000J0D01*
G01*
X13966934Y5880918D02*
G03*
X13966934Y5880918I-10000J0D01*
G01*
X16972569Y5272947D02*
G03*
X16972569Y5272947I-10000J0D01*
G01*
X14045103Y17729718D02*
G03*
X14045103Y17729718I-7787J-6274D01*
G01*
X10242006Y17732185D02*
G03*
X10242006Y17732185I-5796J-8149D01*
G01*
X11500069Y17733086D02*
G03*
X11500069Y17733086I2653J-9642D01*
G01*
X12780021Y17723444D02*
G03*
X12780021Y17723444I-10000J0D01*
G01*
X8989558Y17746742D02*
G03*
X8989558Y17746742I-3386J-9409D01*
G01*
D55*
X13912840Y4234439D02*
Y4364441D01*
X14082837D01*
Y4234439D02*
Y4364441D01*
X13912840Y4234439D02*
X14082837D01*
X14054745Y6890675D02*
Y7381174D01*
X14444746Y6890675D02*
Y7381174D01*
X14054745D02*
X14444746D01*
X14054745Y6890675D02*
X14444746D01*
X16101411Y5028951D02*
X16241409D01*
X16101411Y5328950D02*
X16241409D01*
Y5028951D02*
Y5328950D01*
X16101411Y5028951D02*
Y5328950D01*
X13995248D02*
X14135246D01*
X13995248Y5028951D02*
X14135246D01*
X13995248D02*
Y5328950D01*
X14135246Y5028951D02*
Y5328950D01*
X15085248Y5028946D02*
X15225249D01*
X15085248Y5328945D02*
X15225249D01*
Y5028946D02*
Y5328945D01*
X15085248Y5028946D02*
Y5328945D01*
X14206931Y6035914D02*
Y6175919D01*
X13906932Y6035914D02*
Y6175919D01*
X14206931D01*
X13906932Y6035914D02*
X14206931D01*
X17107565Y5036449D02*
X17237569D01*
Y5326451D01*
X17107565D02*
X17237569D01*
X17107565Y5036449D02*
Y5326451D01*
X13427817Y17722948D02*
Y18712943D01*
X13817818Y17722942D02*
Y18712943D01*
X13427817D02*
X13817818D01*
X13427817Y17722948D02*
X13817818Y17722942D01*
X9625955Y18713065D02*
X9626712Y17723068D01*
X10015957Y18713370D02*
X10016714Y17723363D01*
X9625955Y18713065D02*
X10015957Y18713370D01*
X9626712Y17723068D02*
X10016714Y17723363D01*
X10893222Y17722948D02*
Y18712943D01*
X11283224Y17722948D02*
Y18712947D01*
X10893222Y18712943D02*
X11283224Y18712947D01*
X10893222Y17722948D02*
X11283224D01*
X12160519Y17722942D02*
Y18712943D01*
X12550521Y17722942D02*
Y18712943D01*
X12160519D02*
X12550521D01*
X12160519Y17722942D02*
X12550521D01*
X8358937Y18715685D02*
X8376778Y17725842D01*
X8748873Y18722716D02*
X8766713Y17732874D01*
X8358937Y18715685D02*
X8748873Y18722716D01*
X8376778Y17725842D02*
X8766713Y17732874D01*
X1632453Y11175335D02*
X1632539Y10825333D01*
X1367450Y11175263D02*
X1632453Y11175335D01*
X1367450Y11175263D02*
X1367541Y10825267D01*
X1632539Y10825333D01*
X14027338Y8209854D02*
X14252316Y8477966D01*
X14049313Y8648304D02*
X14252316Y8477966D01*
X13824336Y8380192D02*
X14049313Y8648304D01*
X13824336Y8380192D02*
X14027338Y8209854D01*
X14026982Y13798108D02*
X14252347Y13530321D01*
X13824225Y13627477D02*
X14026982Y13798108D01*
X13824225Y13627477D02*
X14049588Y13359689D01*
X14252347Y13530321D01*
X7747686Y13522035D02*
X7972659Y13790147D01*
X7747686Y13522035D02*
X7950688Y13351698D01*
X8175666Y13619810D01*
X7972659Y13790147D02*
X8175666Y13619810D01*
X7747686Y8477504D02*
X7972659Y8209392D01*
X8175666Y8379729D01*
X7950688Y8647846D02*
X8175666Y8379729D01*
X7747686Y8477504D02*
X7950688Y8647846D01*
X20370302Y10811124D02*
X20370810Y11161126D01*
X20370302Y10811124D02*
X20635300Y10810738D01*
X20635808Y11160740D01*
X20370810Y11161126D02*
X20635808Y11160740D01*
X2799817Y15532414D02*
X2975285Y15835254D01*
X2745989Y15968111D02*
X2975285Y15835254D01*
X2570526Y15665273D02*
X2745989Y15968111D01*
X2570526Y15665273D02*
X2799817Y15532414D01*
X2799522Y6468105D02*
X2974980Y6165261D01*
X2570226Y6335253D02*
X2799522Y6468105D01*
X2570226Y6335253D02*
X2745689Y6032414D01*
X2974980Y6165261D01*
X6164128Y2975026D02*
X6467500Y2800482D01*
X6031977Y2745323D02*
X6164128Y2975026D01*
X6031977Y2745323D02*
X6335349Y2570785D01*
X6467500Y2800482D01*
X10824703Y1632499D02*
X11174705Y1632488D01*
X10824698Y1367500D02*
X10824703Y1632499D01*
X10824698Y1367500D02*
X11174694Y1367490D01*
X11174705Y1632488D01*
X15531978Y2800193D02*
X15835361Y2974721D01*
X15531978Y2800193D02*
X15664124Y2570490D01*
X15967506Y2745019D01*
X15835361Y2974721D02*
X15967506Y2745019D01*
X19024718Y6164748D02*
X19200185Y6467582D01*
X19024718Y6164748D02*
X19254008Y6031890D01*
X19429475Y6334730D01*
X19200185Y6467582D02*
X19429475Y6334730D01*
X19025017Y15834737D02*
X19200481Y15531897D01*
X19429776Y15664749D01*
X19254314Y15967587D02*
X19429776Y15664749D01*
X19025017Y15834737D02*
X19254314Y15967587D01*
X15532501Y19199519D02*
X15835873Y19024976D01*
X15968025Y19254672D01*
X15664651Y19429218D02*
X15968025Y19254672D01*
X15532501Y19199519D02*
X15664651Y19429218D01*
X10825297Y20367513D02*
X11175294Y20367503D01*
X11175304Y20632501D01*
X10825302Y20632510D02*
X11175304Y20632501D01*
X10825297Y20367513D02*
X10825302Y20632510D01*
X6164636Y19025281D02*
X6468019Y19199805D01*
X6335878Y19429512D02*
X6468019Y19199805D01*
X6032495Y19254988D02*
X6335878Y19429512D01*
X6032495Y19254988D02*
X6164636Y19025281D01*
D56*
X15269934Y7382574D02*
X15354573Y7297934D01*
X15269934D02*
X15354573Y7382574D01*
X15269934Y7340254D02*
X15354573D01*
X15312253Y7297934D02*
Y7382574D01*
X16471915D02*
X16556554Y7297934D01*
X16471915D02*
X16556554Y7382574D01*
X16471915Y7340254D02*
X16556554D01*
X16514235Y7297934D02*
Y7382574D01*
D70*
X17567915Y5949416D02*
G03*
X17506955Y5949416I-30480J0D01*
G01*
X16360857D02*
G03*
X16299896Y5949416I-30480J0D01*
G01*
X15153796Y5949419D02*
G03*
X15092838Y5949419I-30480J0D01*
G01*
D71*
X15544254Y7304715D02*
G03*
X15605214Y7304715I30480J0D01*
G01*
X16746236D02*
G03*
X16807195Y7304715I30480J0D01*
G01*
X14810806Y4136700D02*
Y4426260D01*
X14968286D01*
Y4136700D02*
Y4426260D01*
X14810806Y4136700D02*
X14968286D01*
Y4400860D02*
X15031786D01*
Y4352600D02*
Y4400860D01*
X14968286Y4352600D02*
X15031786D01*
X14968286D02*
Y4400860D01*
Y4210360D02*
X15031786D01*
Y4162100D02*
Y4210360D01*
X14968286Y4162100D02*
X15031786D01*
X14968286D02*
Y4210360D01*
X14747305Y4162100D02*
X14810806D01*
X14747305D02*
Y4210360D01*
X14810806D01*
Y4162100D02*
Y4210360D01*
X14747305Y4256080D02*
X14810806D01*
X14747305D02*
Y4306880D01*
X14810806D01*
Y4256080D02*
Y4306880D01*
X14747305Y4352600D02*
X14810806D01*
X14747305D02*
Y4400860D01*
X14810806D01*
Y4352600D02*
Y4400860D01*
X17697455Y5949417D02*
Y6269457D01*
X17567915Y5949417D02*
X17697455D01*
X17506955D02*
X17567915D01*
X17377415D02*
X17506955D01*
X17377415D02*
Y6269457D01*
X17697455D01*
X17280894Y5992597D02*
X17377415D01*
X17280894D02*
Y6030697D01*
X17377415D01*
Y5992597D02*
Y6030697D01*
X17280894Y6058637D02*
X17377415D01*
X17280894D02*
Y6096737D01*
X17377415D01*
Y6058637D02*
Y6096737D01*
X17280894Y6122137D02*
X17377415D01*
X17280894D02*
Y6160237D01*
X17377415D01*
Y6122137D02*
Y6160237D01*
X17280894Y6188177D02*
X17377415D01*
X17280894D02*
Y6226277D01*
X17377415D01*
Y6188177D02*
Y6226277D01*
X17697455D02*
X17793974D01*
Y6188177D02*
Y6226277D01*
X17697455Y6188177D02*
X17793974D01*
X17697455D02*
Y6226277D01*
Y6160237D02*
X17793974D01*
Y6122137D02*
Y6160237D01*
X17697455Y6122137D02*
X17793974D01*
X17697455D02*
Y6160237D01*
Y6096737D02*
X17793974D01*
Y6058637D02*
Y6096737D01*
X17697455Y6058637D02*
X17793974D01*
X17697455D02*
Y6096737D01*
Y6030697D02*
X17793974D01*
Y5992597D02*
Y6030697D01*
X17697455Y5992597D02*
X17793974D01*
X17697455D02*
Y6030697D01*
X16490396Y5949417D02*
Y6269457D01*
X16360857Y5949417D02*
X16490396D01*
X16299896D02*
X16360857D01*
X16170357D02*
X16299896D01*
X16170357D02*
Y6269457D01*
X16490396D01*
X16073836Y5992597D02*
X16170357D01*
X16073836D02*
Y6030697D01*
X16170357D01*
Y5992597D02*
Y6030697D01*
X16073836Y6058637D02*
X16170357D01*
X16073836D02*
Y6096737D01*
X16170357D01*
Y6058637D02*
Y6096737D01*
X16073836Y6122137D02*
X16170357D01*
X16073836D02*
Y6160237D01*
X16170357D01*
Y6122137D02*
Y6160237D01*
X16073836Y6188177D02*
X16170357D01*
X16073836D02*
Y6226277D01*
X16170357D01*
Y6188177D02*
Y6226277D01*
X16490396D02*
X16586916D01*
Y6188177D02*
Y6226277D01*
X16490396Y6188177D02*
X16586916D01*
X16490396D02*
Y6226277D01*
Y6160237D02*
X16586916D01*
Y6122137D02*
Y6160237D01*
X16490396Y6122137D02*
X16586916D01*
X16490396D02*
Y6160237D01*
Y6096737D02*
X16586916D01*
Y6058637D02*
Y6096737D01*
X16490396Y6058637D02*
X16586916D01*
X16490396D02*
Y6096737D01*
Y6030697D02*
X16586916D01*
Y5992597D02*
Y6030697D01*
X16490396Y5992597D02*
X16586916D01*
X16490396D02*
Y6030697D01*
X15283337Y5949417D02*
Y6269457D01*
X15153796Y5949417D02*
X15283337D01*
X15092838D02*
X15153796D01*
X14963297D02*
X15092838D01*
X14963297D02*
Y6269457D01*
X15283337D01*
X14866777Y5992597D02*
X14963297D01*
X14866777D02*
Y6030697D01*
X14963297D01*
Y5992597D02*
Y6030697D01*
X14866777Y6058637D02*
X14963297D01*
X14866777D02*
Y6096737D01*
X14963297D01*
Y6058637D02*
Y6096737D01*
X14866777Y6122137D02*
X14963297D01*
X14866777D02*
Y6160237D01*
X14963297D01*
Y6122137D02*
Y6160237D01*
X14866777Y6188177D02*
X14963297D01*
X14866777D02*
Y6226277D01*
X14963297D01*
Y6188177D02*
Y6226277D01*
X15283337D02*
X15379857D01*
Y6188177D02*
Y6226277D01*
X15283337Y6188177D02*
X15379857D01*
X15283337D02*
Y6226277D01*
Y6160237D02*
X15379857D01*
Y6122137D02*
Y6160237D01*
X15283337Y6122137D02*
X15379857D01*
X15283337D02*
Y6160237D01*
Y6096737D02*
X15379857D01*
Y6058637D02*
Y6096737D01*
X15283337Y6058637D02*
X15379857D01*
X15283337D02*
Y6096737D01*
Y6030697D02*
X15379857D01*
Y5992597D02*
Y6030697D01*
X15283337Y5992597D02*
X15379857D01*
X15283337D02*
Y6030697D01*
X15419797Y6994835D02*
Y7304715D01*
X15544257D01*
X15605215D01*
X15729675D01*
Y6994835D02*
Y7304715D01*
X15419797Y6994835D02*
X15729675D01*
Y7266615D02*
X15828735D01*
Y7228515D02*
Y7266615D01*
X15729675Y7228515D02*
X15828735D01*
X15729675D02*
Y7266615D01*
Y7200575D02*
X15828735D01*
Y7162475D02*
Y7200575D01*
X15729675Y7162475D02*
X15828735D01*
X15729675D02*
Y7200575D01*
Y7137075D02*
X15828735D01*
Y7098975D02*
Y7137075D01*
X15729675Y7098975D02*
X15828735D01*
X15729675D02*
Y7137075D01*
Y7071035D02*
X15828735D01*
Y7032935D02*
Y7071035D01*
X15729675Y7032935D02*
X15828735D01*
X15729675D02*
Y7071035D01*
X15320737Y7032935D02*
X15419797D01*
X15320737D02*
Y7071035D01*
X15419797D01*
Y7032935D02*
Y7071035D01*
X15320737Y7098975D02*
X15419797D01*
X15320737D02*
Y7137075D01*
X15419797D01*
Y7098975D02*
Y7137075D01*
X15320737Y7162475D02*
X15419797D01*
X15320737D02*
Y7200575D01*
X15419797D01*
Y7162475D02*
Y7200575D01*
X15320737Y7228515D02*
X15419797D01*
X15320737D02*
Y7266615D01*
X15419797D01*
Y7228515D02*
Y7266615D01*
X16621774Y6994835D02*
Y7304715D01*
X16746236D01*
X16807195D01*
X16931654D01*
Y6994835D02*
Y7304715D01*
X16621774Y6994835D02*
X16931654D01*
Y7266615D02*
X17030714D01*
Y7228515D02*
Y7266615D01*
X16931654Y7228515D02*
X17030714D01*
X16931654D02*
Y7266615D01*
Y7200575D02*
X17030714D01*
Y7162475D02*
Y7200575D01*
X16931654Y7162475D02*
X17030714D01*
X16931654D02*
Y7200575D01*
Y7137075D02*
X17030714D01*
Y7098975D02*
Y7137075D01*
X16931654Y7098975D02*
X17030714D01*
X16931654D02*
Y7137075D01*
Y7071035D02*
X17030714D01*
Y7032935D02*
Y7071035D01*
X16931654Y7032935D02*
X17030714D01*
X16931654D02*
Y7071035D01*
X16522716Y7032935D02*
X16621774D01*
X16522716D02*
Y7071035D01*
X16621774D01*
Y7032935D02*
Y7071035D01*
X16522716Y7098975D02*
X16621774D01*
X16522716D02*
Y7137075D01*
X16621774D01*
Y7098975D02*
Y7137075D01*
X16522716Y7162475D02*
X16621774D01*
X16522716D02*
Y7200575D01*
X16621774D01*
Y7162475D02*
Y7200575D01*
X16522716Y7228515D02*
X16621774D01*
X16522716D02*
Y7266615D01*
X16621774D01*
Y7228515D02*
Y7266615D01*
D96*
X18671184Y10315158D02*
Y10495158D01*
X18331184Y10315158D02*
Y10495158D01*
Y10315158D02*
X18671184D01*
X18331184Y10495158D02*
X18671184D01*
X17670860Y10315158D02*
Y10495158D01*
X17330862Y10315158D02*
Y10495158D01*
Y10315158D02*
X17670860D01*
X17330862Y10495158D02*
X17670860D01*
X16670543Y10315158D02*
Y10495158D01*
X16330544Y10315158D02*
Y10495158D01*
Y10315158D02*
X16670543D01*
X16330544Y10495158D02*
X16670543D01*
X15670226Y10315158D02*
Y10495158D01*
X15330226Y10315158D02*
Y10495158D01*
Y10315158D02*
X15670226D01*
X15330226Y10495158D02*
X15670226D01*
X18671179Y11105479D02*
Y11285479D01*
X18331180Y11105479D02*
Y11285479D01*
Y11105479D02*
X18671179D01*
X18331180Y11285479D02*
X18671179D01*
X17670860Y11105479D02*
Y11285479D01*
X17330862Y11105479D02*
Y11285479D01*
Y11105479D02*
X17670860D01*
X17330862Y11285479D02*
X17670860D01*
X16670538Y11105479D02*
Y11285479D01*
X16330539Y11105479D02*
Y11285479D01*
Y11105479D02*
X16670538D01*
X16330539Y11285479D02*
X16670538D01*
X15670226Y11105479D02*
Y11285479D01*
X15330226Y11105479D02*
Y11285479D01*
Y11105479D02*
X15670226D01*
X15330226Y11285479D02*
X15670226D01*
X18671184Y11895795D02*
Y12075795D01*
X18331180Y11895795D02*
Y12075795D01*
Y11895795D02*
X18671184D01*
X18331180Y12075795D02*
X18671184D01*
X17670860Y11895795D02*
Y12075795D01*
X17330862Y11895795D02*
Y12075795D01*
Y11895795D02*
X17670860D01*
X17330862Y12075795D02*
X17670860D01*
X16670538Y11895795D02*
Y12075795D01*
X16330539Y11895795D02*
Y12075795D01*
Y11895795D02*
X16670538D01*
X16330539Y12075795D02*
X16670538D01*
X15670226Y11895795D02*
Y12075795D01*
X15330226Y11895795D02*
Y12075795D01*
Y11895795D02*
X15670226D01*
X15330226Y12075795D02*
X15670226D01*
X18671184Y12686116D02*
Y12866116D01*
X18331184Y12686116D02*
Y12866116D01*
Y12686116D02*
X18671184D01*
X18331184Y12866116D02*
X18671184D01*
X17670860Y12686116D02*
Y12866116D01*
X17330862Y12686116D02*
Y12866116D01*
Y12686116D02*
X17670860D01*
X17330862Y12866116D02*
X17670860D01*
X16670543Y12686116D02*
Y12866116D01*
X16330539Y12686116D02*
Y12866116D01*
Y12686116D02*
X16670543D01*
X16330539Y12866116D02*
X16670543D01*
X15670226Y12686116D02*
Y12866116D01*
X15330226Y12686116D02*
Y12866116D01*
Y12686116D02*
X15670226D01*
X15330226Y12866116D02*
X15670226D01*
X18671179Y13476437D02*
Y13656438D01*
X18331180Y13476437D02*
Y13656438D01*
Y13476437D02*
X18671179D01*
X18331180Y13656438D02*
X18671179D01*
X17670860Y13476437D02*
Y13656438D01*
X17330856Y13476437D02*
Y13656438D01*
Y13476437D02*
X17670860D01*
X17330856Y13656438D02*
X17670860D01*
X16670538Y13476437D02*
Y13656438D01*
X16330539Y13476437D02*
Y13656438D01*
Y13476437D02*
X16670538D01*
X16330539Y13656438D02*
X16670538D01*
X15670215Y13476437D02*
Y13656438D01*
X15330215Y13476437D02*
Y13656438D01*
Y13476437D02*
X15670215D01*
X15330215Y13656438D02*
X15670215D01*
X18671184Y14266753D02*
Y14446753D01*
X18331184Y14266753D02*
Y14446753D01*
Y14266753D02*
X18671184D01*
X18331184Y14446753D02*
X18671184D01*
X17670860Y14266753D02*
Y14446753D01*
X17330862Y14266753D02*
Y14446753D01*
Y14266753D02*
X17670860D01*
X17330862Y14446753D02*
X17670860D01*
X3854719Y16424046D02*
X4069720D01*
X3854719Y16564046D02*
X4069720D01*
Y16424046D02*
Y16564046D01*
X3854719Y16424046D02*
Y16564046D01*
X5175042Y16424046D02*
X5390043D01*
X5175042Y16564046D02*
X5390043D01*
Y16424046D02*
Y16564046D01*
X5175042Y16424046D02*
Y16564046D01*
X6495359Y16424046D02*
X6710360D01*
X6495359Y16564046D02*
X6710360D01*
Y16424046D02*
Y16564046D01*
X6495359Y16424046D02*
Y16564046D01*
X3854719Y15263724D02*
X4069720D01*
X3854719Y15403728D02*
X4069720D01*
Y15263724D02*
Y15403728D01*
X3854719Y15263724D02*
Y15403728D01*
X5175042Y15263724D02*
X5390043D01*
X5175042Y15403728D02*
X5390043D01*
Y15263724D02*
Y15403728D01*
X5175042Y15263724D02*
Y15403728D01*
X6495359Y15263728D02*
X6710360D01*
X6495359Y15403728D02*
X6710360D01*
Y15263728D02*
Y15403728D01*
X6495359Y15263728D02*
Y15403728D01*
X3854719Y14103401D02*
X4069720D01*
X3854719Y14243407D02*
X4069720D01*
Y14103401D02*
Y14243407D01*
X3854719Y14103401D02*
Y14243407D01*
X5175042Y14103406D02*
X5390043D01*
X5175042Y14243407D02*
X5390043D01*
Y14103406D02*
Y14243407D01*
X5175042Y14103406D02*
Y14243407D01*
X6495359Y14103401D02*
X6710360D01*
X6495359Y14243407D02*
X6710360D01*
Y14103401D02*
Y14243407D01*
X6495359Y14103401D02*
Y14243407D01*
X3854724Y12943088D02*
X4069720D01*
X3854724Y13083089D02*
X4069720D01*
Y12943088D02*
Y13083089D01*
X3854724Y12943088D02*
Y13083089D01*
X5175042Y12943083D02*
X5390043D01*
X5175042Y13083089D02*
X5390043D01*
Y12943083D02*
Y13083089D01*
X5175042Y12943083D02*
Y13083089D01*
X6495359Y12943088D02*
X6710360D01*
X6495359Y13083089D02*
X6710360D01*
Y12943088D02*
Y13083089D01*
X6495359Y12943088D02*
Y13083089D01*
X3854719Y11782760D02*
X4069720D01*
X3854719Y11922765D02*
X4069720D01*
Y11782760D02*
Y11922765D01*
X3854719Y11782760D02*
Y11922765D01*
X5175042Y11782765D02*
X5390043D01*
X5175042Y11922765D02*
X5390043D01*
Y11782765D02*
Y11922765D01*
X5175042Y11782765D02*
Y11922765D01*
X6495364Y11782760D02*
X6710360D01*
X6495364Y11922765D02*
X6710360D01*
Y11782760D02*
Y11922765D01*
X6495364Y11782760D02*
Y11922765D01*
X3854724Y10622448D02*
X4069720D01*
X3854724Y10762447D02*
X4069720D01*
Y10622448D02*
Y10762447D01*
X3854724Y10622448D02*
Y10762447D01*
X5175047Y10622443D02*
X5390043D01*
X5175047Y10762447D02*
X5390043D01*
Y10622443D02*
Y10762447D01*
X5175047Y10622443D02*
Y10762447D01*
X6495359Y10622448D02*
X6710360D01*
X6495359Y10762447D02*
X6710360D01*
Y10622448D02*
Y10762447D01*
X6495359Y10622448D02*
Y10762447D01*
X3854724Y9602125D02*
X4069720D01*
X3854724Y9462125D02*
X4069720D01*
X3854724D02*
Y9602125D01*
X4069720Y9462125D02*
Y9602125D01*
X5175047Y9462130D02*
X5390043D01*
X5175047Y9602130D02*
X5390043D01*
Y9462130D02*
Y9602130D01*
X5175047Y9462130D02*
Y9602130D01*
X6495364Y9462125D02*
X6710360D01*
X6495364Y9602130D02*
X6710360D01*
Y9462125D02*
Y9602130D01*
X6495364Y9462125D02*
Y9602130D01*
X3854724Y8301807D02*
X4069720D01*
X3854724Y8441807D02*
X4069720D01*
Y8301807D02*
Y8441807D01*
X3854724Y8301807D02*
Y8441807D01*
X5175042Y8301802D02*
X5390043D01*
X5175042Y8441802D02*
X5390043D01*
Y8301802D02*
Y8441802D01*
X5175042Y8301802D02*
Y8441802D01*
X6495359Y8301802D02*
X6710360Y8301807D01*
X6495359Y8441807D02*
X6710360D01*
Y8301807D02*
Y8441807D01*
X6495359Y8301802D02*
Y8441807D01*
X3854719Y7141484D02*
X4069720D01*
X3854719Y7281489D02*
X4069720D01*
Y7141484D02*
Y7281489D01*
X3854719Y7141484D02*
Y7281489D01*
X5175042Y7141489D02*
X5390043D01*
X5175042Y7281489D02*
X5390043D01*
Y7141489D02*
Y7281489D01*
X5175042Y7141489D02*
Y7281489D01*
X6495359Y7141484D02*
X6710360D01*
X6495359Y7281489D02*
X6710360D01*
Y7141484D02*
Y7281489D01*
X6495359Y7141484D02*
Y7281489D01*
X3854719Y5981167D02*
X4069720D01*
X3854719Y6121166D02*
X4069720D01*
Y5981167D02*
Y6121166D01*
X3854719Y5981167D02*
Y6121166D01*
X5175042Y5981162D02*
X5390043D01*
X5175042Y6121166D02*
X5390043D01*
Y5981162D02*
Y6121166D01*
X5175042Y5981162D02*
Y6121166D01*
X6495359Y5981167D02*
X6710360D01*
X6495359Y6121166D02*
X6710360D01*
Y5981167D02*
Y6121166D01*
X6495359Y5981167D02*
Y6121166D01*
X3854719Y4820844D02*
X4069720D01*
X3854719Y4960849D02*
X4069720D01*
Y4820844D02*
Y4960849D01*
X3854719Y4820844D02*
Y4960849D01*
X5175042Y4820849D02*
X5390043D01*
X5175042Y4960849D02*
X5390043D01*
Y4820849D02*
Y4960849D01*
X5175042Y4820849D02*
Y4960849D01*
X6495359Y4820844D02*
X6710360D01*
X6495359Y4960849D02*
X6710360D01*
Y4820844D02*
Y4960849D01*
X6495359Y4820844D02*
Y4960849D01*
X8667740Y4807458D02*
X9722744D01*
X8667740Y5707456D02*
X9722744D01*
X8667740Y4807458D02*
Y5707456D01*
X9722744Y4807458D02*
Y5707456D01*
X21017067Y10967268D02*
X21017941Y11032261D01*
X20982066Y10967735D02*
X20982945Y11032734D01*
X21017941Y11032261D01*
X20982066Y10967735D02*
X21017067Y10967268D01*
X10967502Y21017503D02*
X11032500D01*
X10967502Y20982503D02*
X11032500Y20982507D01*
X10967502Y20982503D02*
Y21017503D01*
X11032500Y20982507D02*
Y21017503D01*
X15980705Y19691727D02*
X16036896Y19659056D01*
X15963107Y19661464D02*
X16019302Y19628795D01*
X15963107Y19661464D02*
X15980705Y19691727D01*
X16019302Y19628795D02*
X16036896Y19659056D01*
X5963102Y19659163D02*
X6019394Y19691666D01*
X5980603Y19628856D02*
X6036894Y19661353D01*
X5963102Y19659163D02*
X5980603Y19628856D01*
X6019394Y19691666D02*
X6036894Y19661353D01*
X2335256Y15962198D02*
X2374316Y16014151D01*
X2307280Y15983229D02*
X2346340Y16035182D01*
X2374316Y16014151D01*
X2307280Y15983229D02*
X2335256Y15962198D01*
X982370Y11032429D02*
X982619Y10967430D01*
X1017367Y11032566D02*
X1017621Y10967568D01*
X982619Y10967430D02*
X1017621Y10967568D01*
X982370Y11032429D02*
X1017367Y11032566D01*
X2308428Y6019536D02*
X2340666Y5963097D01*
X2338817Y6036899D02*
X2371060Y5980455D01*
X2340666Y5963097D02*
X2371060Y5980455D01*
X2308428Y6019536D02*
X2338817Y6036899D01*
X5963102Y2340834D02*
X6019394Y2308337D01*
X5980603Y2371146D02*
X6036894Y2338644D01*
X6019394Y2308337D02*
X6036894Y2338644D01*
X5963102Y2340834D02*
X5980603Y2371146D01*
X10967502Y982492D02*
X11032500D01*
X10967502Y1017494D02*
X11032500D01*
Y982492D02*
Y1017494D01*
X10967502Y982492D02*
Y1017494D01*
X15980608Y2308337D02*
X16036900Y2340833D01*
X15963107Y2338649D02*
X16019398Y2371146D01*
X16036900Y2340833D01*
X15963107Y2338649D02*
X15980608Y2308337D01*
X19659163Y5963102D02*
X19691666Y6019394D01*
X19628851Y5980603D02*
X19661353Y6036894D01*
X19691666Y6019394D01*
X19628851Y5980603D02*
X19659163Y5963102D01*
Y16036899D02*
X19691666Y15980608D01*
X19628851Y16019398D02*
X19661353Y15963107D01*
X19628851Y16019398D02*
X19659163Y16036899D01*
X19661353Y15963107D02*
X19691666Y15980608D01*
%TF.MD5,15c6fa3c291702b1a997aba6e6e69704*%
M02*
